*
*
G04 PADS 9.5 Build Number: 522968 generated Gerber (RS-274-X) file*
G04 PC Version=2.1*
*
%IN "alarm_USB&OLED_V1.1.pcb"*%
*
%MOIN*%
*
%FSLAX35Y35*%
*
*
*
*
G04 PC Standard Apertures*
*
*
G04 Thermal Relief Aperture macro.*
%AMTER*
1,1,$1,0,0*
1,0,$1-$2,0,0*
21,0,$3,$4,0,0,45*
21,0,$3,$4,0,0,135*
%
*
*
G04 Annular Aperture macro.*
%AMANN*
1,1,$1,0,0*
1,0,$2,0,0*
%
*
*
G04 Odd Aperture macro.*
%AMODD*
1,1,$1,0,0*
1,0,$1-0.005,0,0*
%
*
*
G04 PC Custom Aperture Macros*
*
*
*
*
*
*
G04 PC Aperture Table*
*
%ADD035C,0.01*%
%ADD075C,0.001*%
*
*
*
*
G04 PC Circuitry*
G04 Layer Name alarm_USB&OLED_V1.1.pcb - circuitry*
%LPD*%
*
*
G04 PC Custom Flashes*
G04 Layer Name alarm_USB&OLED_V1.1.pcb - flashes*
%LPD*%
*
*
G04 PC Circuitry*
G04 Layer Name alarm_USB&OLED_V1.1.pcb - circuitry*
%LPD*%
*
G54D35*
G01X172378Y166732D02*
X180378D01*
X176378Y162732D02*
Y170732D01*
X178378Y172014D02*
Y168732D01*
Y172014D02*
X179401D01*
X179742Y171857*
X179855Y171701*
X179969Y171389*
Y171076*
X179855Y170764*
X179742Y170607*
X179401Y170451*
X178378D02*
X179401D01*
X179742Y170295*
X179855Y170139*
X179969Y169826*
Y169357*
X179855Y169045*
X179742Y168889*
X179401Y168732*
X178378*
X172378Y171850D02*
X180378D01*
X176378Y167850D02*
Y175850D01*
X178378Y177132D02*
Y173850D01*
Y177132D02*
X179401D01*
X179742Y176975*
X179855Y176819*
X179969Y176507*
Y176194*
X179855Y175882*
X179742Y175725*
X179401Y175569*
X178378D02*
X179401D01*
X179742Y175413*
X179855Y175257*
X179969Y174944*
Y174475*
X179855Y174163*
X179742Y174007*
X179401Y173850*
X178378*
X174409Y166732D02*
G75*
G03X178346I1969J0D01*
G01Y171850*
G03X174409I-1968J0*
G01Y166732*
X114110D02*
X122110D01*
X118110Y162732D02*
Y170732D01*
X120110Y172014D02*
Y168732D01*
Y172014D02*
X121133D01*
X121474Y171857*
X121588Y171701*
X121701Y171389*
Y171076*
X121588Y170764*
X121474Y170607*
X121133Y170451*
X120110D02*
X121133D01*
X121474Y170295*
X121588Y170139*
X121701Y169826*
Y169357*
X121588Y169045*
X121474Y168889*
X121133Y168732*
X120110*
X114110Y171850D02*
X122110D01*
X118110Y167850D02*
Y175850D01*
X120110Y177132D02*
Y173850D01*
Y177132D02*
X121133D01*
X121474Y176975*
X121588Y176819*
X121701Y176507*
Y176194*
X121588Y175882*
X121474Y175725*
X121133Y175569*
X120110D02*
X121133D01*
X121474Y175413*
X121588Y175257*
X121701Y174944*
Y174475*
X121588Y174163*
X121474Y174007*
X121133Y173850*
X120110*
X116142Y166732D02*
G03X120079I1968J0D01*
G01Y171850*
G03X116142I-1969J0*
G01Y166732*
X199543Y170866D02*
X207543D01*
X203543Y166866D02*
Y174866D01*
X206452Y176147D02*
X205543Y172866D01*
X206452Y176147D02*
X207361Y172866D01*
X205884Y173960D02*
X207021D01*
X199543Y180866D02*
X207543D01*
X203543Y176866D02*
Y184866D01*
X206452Y186147D02*
X205543Y182866D01*
X206452Y186147D02*
X207361Y182866D01*
X205884Y183960D02*
X207021D01*
X199543Y190866D02*
X207543D01*
X203543Y186866D02*
Y194866D01*
X206452Y196147D02*
X205543Y192866D01*
X206452Y196147D02*
X207361Y192866D01*
X205884Y193960D02*
X207021D01*
X199543Y200866D02*
X207543D01*
X203543Y196866D02*
Y204866D01*
X206452Y206147D02*
X205543Y202866D01*
X206452Y206147D02*
X207361Y202866D01*
X205884Y203960D02*
X207021D01*
X157024Y157417D02*
X165024Y165417D01*
X157024D02*
X165024Y157417D01*
X147181D02*
X155181Y165417D01*
X147181D02*
X155181Y157417D01*
X139307D02*
X147307Y165417D01*
X139307D02*
X147307Y157417D01*
X129465D02*
X137465Y165417D01*
X129465D02*
X137465Y157417D01*
X118441Y122047D02*
X126441D01*
X122441Y118047D02*
Y126047D01*
X126145Y126547D02*
X126032Y126860D01*
X125805Y127172*
X125577Y127328*
X125123*
X124895Y127172*
X124668Y126860*
X124555Y126547*
X124441Y126078*
Y125297*
X124555Y124828*
X124668Y124516*
X124895Y124203*
X125123Y124047*
X125577*
X125805Y124203*
X126032Y124516*
X126145Y124828*
X125921Y115748D02*
X133921D01*
X129921Y111748D02*
Y119748D01*
X133626Y120248D02*
X133512Y120561D01*
X133285Y120873*
X133058Y121029*
X132603*
X132376Y120873*
X132149Y120561*
X132035Y120248*
X131921Y119779*
Y118998*
X132035Y118529*
X132149Y118217*
X132376Y117904*
X132603Y117748*
X133058*
X133285Y117904*
X133512Y118217*
X133626Y118529*
X125134Y122835D02*
X133134D01*
X129134Y118835D02*
Y126835D01*
X132838Y127335D02*
X132725Y127647D01*
X132497Y127960*
X132270Y128116*
X131816*
X131588Y127960*
X131361Y127647*
X131247Y127335*
X131134Y126866*
Y126085*
X131247Y125616*
X131361Y125303*
X131588Y124991*
X131816Y124835*
X132270*
X132497Y124991*
X132725Y125303*
X132838Y125616*
X112142Y125591D02*
X120142D01*
X116142Y121591D02*
Y129591D01*
X119846Y130091D02*
X119733Y130403D01*
X119505Y130716*
X119278Y130872*
X118824*
X118596Y130716*
X118369Y130403*
X118255Y130091*
X118142Y129622*
Y128841*
X118255Y128372*
X118369Y128059*
X118596Y127747*
X118824Y127591*
X119278*
X119505Y127747*
X119733Y128059*
X119846Y128372*
X179465Y122047D02*
X187465D01*
X183465Y118047D02*
Y126047D01*
X187169Y126547D02*
X187055Y126860D01*
X186828Y127172*
X186601Y127328*
X186146*
X185919Y127172*
X185692Y126860*
X185578Y126547*
X185465Y126078*
Y125297*
X185578Y124828*
X185692Y124516*
X185919Y124203*
X186146Y124047*
X186601*
X186828Y124203*
X187055Y124516*
X187169Y124828*
X180646Y125197D02*
X188646D01*
X184646Y121197D02*
Y129197D01*
X188350Y129697D02*
X188237Y130009D01*
X188009Y130322*
X187782Y130478*
X187327*
X187100Y130322*
X186873Y130009*
X186759Y129697*
X186646Y129228*
Y128447*
X186759Y127978*
X186873Y127666*
X187100Y127353*
X187327Y127197*
X187782*
X188009Y127353*
X188237Y127666*
X188350Y127978*
X154268Y111024D02*
X162268D01*
X158268Y107024D02*
Y115024D01*
X161972Y115524D02*
X161859Y115836D01*
X161631Y116149*
X161404Y116305*
X160950*
X160722Y116149*
X160495Y115836*
X160381Y115524*
X160268Y115055*
Y114274*
X160381Y113805*
X160495Y113492*
X160722Y113180*
X160950Y113024*
X161404*
X161631Y113180*
X161859Y113492*
X161972Y113805*
X159386Y109055D02*
X167386D01*
X163386Y105055D02*
Y113055D01*
X167090Y113555D02*
X166977Y113868D01*
X166749Y114180*
X166522Y114336*
X166068*
X165840Y114180*
X165613Y113868*
X165499Y113555*
X165386Y113086*
Y112305*
X165499Y111836*
X165613Y111524*
X165840Y111211*
X166068Y111055*
X166522*
X166749Y111211*
X166977Y111524*
X167090Y111836*
X161354Y125197D02*
X169354D01*
X165354Y121197D02*
Y129197D01*
X169059Y129697D02*
X168945Y130009D01*
X168718Y130322*
X168491Y130478*
X168036*
X167809Y130322*
X167582Y130009*
X167468Y129697*
X167354Y129228*
Y128447*
X167468Y127978*
X167582Y127666*
X167809Y127353*
X168036Y127197*
X168491*
X168718Y127353*
X168945Y127666*
X169059Y127978*
X210961Y122441D02*
X218961D01*
X214961Y118441D02*
Y126441D01*
X218665Y126941D02*
X218552Y127253D01*
X218324Y127566*
X218097Y127722*
X217642*
X217415Y127566*
X217188Y127253*
X217074Y126941*
X216961Y126472*
Y125691*
X217074Y125222*
X217188Y124910*
X217415Y124597*
X217642Y124441*
X218097*
X218324Y124597*
X218552Y124910*
X218665Y125222*
X197575Y121654D02*
X205575D01*
X201575Y117654D02*
Y125654D01*
X205279Y126154D02*
X205166Y126466D01*
X204938Y126779*
X204711Y126935*
X204257*
X204029Y126779*
X203802Y126466*
X203688Y126154*
X203575Y125685*
Y124904*
X203688Y124435*
X203802Y124122*
X204029Y123810*
X204257Y123654*
X204711*
X204938Y123810*
X205166Y124122*
X205279Y124435*
X191669Y125591D02*
X199669D01*
X195669Y121591D02*
Y129591D01*
X199374Y130091D02*
X199260Y130403D01*
X199033Y130716*
X198806Y130872*
X198351*
X198124Y130716*
X197897Y130403*
X197783Y130091*
X197669Y129622*
Y128841*
X197783Y128372*
X197897Y128059*
X198124Y127747*
X198351Y127591*
X198806*
X199033Y127747*
X199260Y128059*
X199374Y128372*
X106630Y133071D02*
X114630D01*
X110630Y129071D02*
Y137071D01*
X114334Y137571D02*
X114221Y137883D01*
X113994Y138196*
X113766Y138352*
X113312*
X113084Y138196*
X112857Y137883*
X112744Y137571*
X112630Y137102*
Y136321*
X112744Y135852*
X112857Y135540*
X113084Y135227*
X113312Y135071*
X113766*
X113994Y135227*
X114221Y135540*
X114334Y135852*
X110567Y149213D02*
X118567D01*
X114567Y145213D02*
Y153213D01*
X118271Y153713D02*
X118158Y154025D01*
X117931Y154338*
X117703Y154494*
X117249*
X117021Y154338*
X116794Y154025*
X116681Y153713*
X116567Y153244*
Y152463*
X116681Y151994*
X116794Y151681*
X117021Y151369*
X117249Y151213*
X117703*
X117931Y151369*
X118158Y151681*
X118271Y151994*
X130646Y128346D02*
X138646D01*
X134646Y124346D02*
Y132346D01*
X138350Y132846D02*
X138237Y133159D01*
X138009Y133471*
X137782Y133628*
X137327*
X137100Y133471*
X136873Y133159*
X136759Y132846*
X136646Y132378*
Y131596*
X136759Y131128*
X136873Y130815*
X137100Y130503*
X137327Y130346*
X137782*
X138009Y130503*
X138237Y130815*
X138350Y131128*
X113717Y139764D02*
X121717D01*
X117717Y135764D02*
Y143764D01*
X121421Y144264D02*
X121307Y144576D01*
X121080Y144889*
X120853Y145045*
X120398*
X120171Y144889*
X119944Y144576*
X119830Y144264*
X119717Y143795*
Y143014*
X119830Y142545*
X119944Y142233*
X120171Y141920*
X120398Y141764*
X120853*
X121080Y141920*
X121307Y142233*
X121421Y142545*
X112929Y133465D02*
X120929D01*
X116929Y129465D02*
Y137465D01*
X120634Y137965D02*
X120520Y138277D01*
X120293Y138590*
X120065Y138746*
X120065D02*
X119611D01*
X119384Y138590*
X119156Y138277*
X119043Y137965*
X118929Y137496*
Y136715*
X119043Y136246*
X119156Y135933*
X119384Y135621*
X119611Y135465*
X120065*
X120065D02*
X120293Y135621D01*
X120520Y135933*
X120634Y136246*
X121197Y130315D02*
X129197D01*
X125197Y126315D02*
Y134315D01*
X128901Y134815D02*
X128788Y135127D01*
X128560Y135440*
X128333Y135596*
X127879*
X127651Y135440*
X127424Y135127*
X127310Y134815*
X127197Y134346*
Y133565*
X127310Y133096*
X127424Y132784*
X127651Y132471*
X127879Y132315*
X128333*
X128560Y132471*
X128788Y132784*
X128901Y133096*
X118835Y140945D02*
X126835D01*
X122835Y136945D02*
Y144945D01*
X126539Y145445D02*
X126426Y145757D01*
X126198Y146070*
X125971Y146226*
X125516*
X125289Y146070*
X125062Y145757*
X124948Y145445*
X124835Y144976*
Y144195*
X124948Y143726*
X125062Y143414*
X125289Y143101*
X125516Y142945*
X125971*
X126198Y143101*
X126426Y143414*
X126539Y143726*
X124346Y149606D02*
X132346D01*
X128346Y145606D02*
Y153606D01*
X132051Y154106D02*
X131937Y154419D01*
X131710Y154731*
X131483Y154888*
X131028*
X130801Y154731*
X130574Y154419*
X130460Y154106*
X130346Y153638*
Y152856*
X130460Y152388*
X130574Y152075*
X130801Y151763*
X131028Y151606*
X131483*
X131710Y151763*
X131937Y152075*
X132051Y152388*
X124740Y142520D02*
X132740D01*
X128740Y138520D02*
Y146520D01*
X132445Y147020D02*
X132331Y147332D01*
X132104Y147645*
X131877Y147801*
X131422*
X131195Y147645*
X130967Y147332*
X130854Y147020*
X130740Y146551*
Y145770*
X130854Y145301*
X130967Y144988*
X131195Y144676*
X131422Y144520*
X131877*
X132104Y144676*
X132331Y144988*
X132445Y145301*
X134583Y145276D02*
X142583D01*
X138583Y141276D02*
Y149276D01*
X142287Y149776D02*
X142174Y150088D01*
X141946Y150401*
X141719Y150557*
X141264*
X141037Y150401*
X140810Y150088*
X140696Y149776*
X140583Y149307*
Y148526*
X140696Y148057*
X140810Y147744*
X141037Y147432*
X141264Y147276*
X141719*
X141946Y147432*
X142174Y147744*
X142287Y148057*
X133008Y150787D02*
X141008D01*
X137008Y146787D02*
Y154787D01*
X140712Y155287D02*
X140599Y155600D01*
X140372Y155912*
X140144Y156069*
X139690*
X139462Y155912*
X139235Y155600*
X139122Y155287*
X139008Y154819*
Y154037*
X139122Y153569*
X139235Y153256*
X139462Y152944*
X139690Y152787*
X140144*
X140372Y152944*
X140599Y153256*
X140712Y153569*
X138126Y150394D02*
X146126D01*
X142126Y146394D02*
Y154394D01*
X145831Y154894D02*
X145717Y155206D01*
X145490Y155519*
X145262Y155675*
X144808*
X144581Y155519*
X144353Y155206*
X144240Y154894*
X144126Y154425*
Y153644*
X144240Y153175*
X144353Y152862*
X144581Y152550*
X144808Y152394*
X145262*
X145490Y152550*
X145717Y152862*
X145831Y153175*
X129071Y138976D02*
X137071D01*
X133071Y134976D02*
Y142976D01*
X136775Y143476D02*
X136662Y143789D01*
X136435Y144101*
X136435D02*
X136207Y144258D01*
X135753*
X135525Y144101*
X135298Y143789*
X135185Y143476*
X135185D02*
X135071Y143008D01*
Y142226*
X135185Y141758*
X135185D02*
X135298Y141445D01*
X135525Y141133*
X135753Y140976*
X136207*
X136435Y141133*
X136435D02*
X136662Y141445D01*
X136775Y141758*
X143244Y137402D02*
X151244D01*
X147244Y133402D02*
Y141402D01*
X150949Y141902D02*
X150835Y142214D01*
X150608Y142527*
X150380Y142683*
X149926*
X149699Y142527*
X149471Y142214*
X149358Y141902*
X149244Y141433*
Y140652*
X149358Y140183*
X149471Y139870*
X149699Y139558*
X149926Y139402*
X150380*
X150608Y139558*
X150835Y139870*
X150949Y140183*
X179465Y128740D02*
X187465D01*
X183465Y124740D02*
Y132740D01*
X187169Y133240D02*
X187055Y133553D01*
X186828Y133865*
X186601Y134021*
X186146*
X185919Y133865*
X185692Y133553*
X185578Y133240*
X185465Y132771*
Y131990*
X185578Y131521*
X185692Y131209*
X185919Y130896*
X186146Y130740*
X186601*
X186828Y130896*
X187055Y131209*
X187169Y131521*
X158992Y129528D02*
X166992D01*
X162992Y125528D02*
Y133528D01*
X166697Y134028D02*
X166583Y134340D01*
X166356Y134653*
X166128Y134809*
X165674*
X165447Y134653*
X165219Y134340*
X165106Y134028*
X164992Y133559*
Y132778*
X165106Y132309*
X165219Y131996*
X165447Y131684*
X165674Y131528*
X166128*
X166356Y131684*
X166583Y131996*
X166697Y132309*
X170803Y139764D02*
X178803D01*
X174803Y135764D02*
Y143764D01*
X178508Y144264D02*
X178394Y144576D01*
X178167Y144889*
X177940Y145045*
X177485*
X177258Y144889*
X177030Y144576*
X176917Y144264*
X176803Y143795*
Y143014*
X176917Y142545*
X177030Y142233*
X177258Y141920*
X177485Y141764*
X177940*
X178167Y141920*
X178394Y142233*
X178508Y142545*
X174346Y148031D02*
X182346D01*
X178346Y144031D02*
Y152031D01*
X182051Y152531D02*
X181937Y152844D01*
X181710Y153156*
X181483Y153313*
X181028*
X180801Y153156*
X180574Y152844*
X180460Y152531*
X180346Y152063*
Y151281*
X180460Y150813*
X180574Y150500*
X180801Y150188*
X181028Y150031*
X181483*
X181710Y150188*
X181937Y150500*
X182051Y150813*
X166472Y158661D02*
X174472D01*
X170472Y154661D02*
Y162661D01*
X174177Y163161D02*
X174063Y163474D01*
X173836Y163786*
X173609Y163943*
X173154*
X172927Y163786*
X172700Y163474*
X172586Y163161*
X172472Y162693*
Y161911*
X172586Y161443*
X172700Y161130*
X172927Y160818*
X173154Y160661*
X173609*
X173836Y160818*
X174063Y161130*
X174177Y161443*
X175921Y159055D02*
X183921D01*
X179921Y155055D02*
Y163055D01*
X183626Y163555D02*
X183512Y163868D01*
X183285Y164180*
X183058Y164336*
X182603*
X182376Y164180*
X182149Y163868*
X182035Y163555*
X181921Y163086*
Y162305*
X182035Y161836*
X182149Y161524*
X182376Y161211*
X182603Y161055*
X183058*
X183285Y161211*
X183512Y161524*
X183626Y161836*
X162535Y149606D02*
X170535D01*
X166535Y145606D02*
Y153606D01*
X170240Y154106D02*
X170126Y154419D01*
X169899Y154731*
X169672Y154888*
X169217*
X168990Y154731*
X168763Y154419*
X168649Y154106*
X168535Y153638*
Y152856*
X168649Y152388*
X168763Y152075*
X168990Y151763*
X169217Y151606*
X169672*
X169899Y151763*
X170126Y152075*
X170240Y152388*
X161354Y140551D02*
X169354D01*
X165354Y136551D02*
Y144551D01*
X169059Y145051D02*
X168945Y145364D01*
X168718Y145676*
X168491Y145832*
X168036*
X167809Y145676*
X167582Y145364*
X167468Y145051*
X167354Y144582*
Y143801*
X167468Y143332*
X167582Y143020*
X167809Y142707*
X168036Y142551*
X168491*
X168718Y142707*
X168945Y143020*
X169059Y143332*
X152693Y146850D02*
X160693D01*
X156693Y142850D02*
Y150850D01*
X160397Y151350D02*
X160284Y151663D01*
X160057Y151975*
X159829Y152132*
X159375*
X159147Y151975*
X158920Y151663*
X158807Y151350*
X158693Y150882*
Y150100*
X158807Y149632*
X158920Y149319*
X159147Y149007*
X159375Y148850*
X159829*
X160057Y149007*
X160284Y149319*
X160397Y149632*
X152693Y139764D02*
X160693D01*
X156693Y135764D02*
Y143764D01*
X160397Y144264D02*
X160284Y144576D01*
X160057Y144889*
X159829Y145045*
X159375*
X159147Y144889*
X158920Y144576*
X158807Y144264*
X158693Y143795*
Y143014*
X158807Y142545*
X158920Y142233*
X159147Y141920*
X159375Y141764*
X159829*
X160057Y141920*
X160284Y142233*
X160397Y142545*
X177496Y140945D02*
X185496D01*
X181496Y136945D02*
Y144945D01*
X185201Y145445D02*
X185087Y145757D01*
X184860Y146070*
X184632Y146226*
X184178*
X183951Y146070*
X183723Y145757*
X183610Y145445*
X183496Y144976*
Y144195*
X183610Y143726*
X183723Y143414*
X183951Y143101*
X184178Y142945*
X184632*
X184860Y143101*
X185087Y143414*
X185201Y143726*
X188126Y141339D02*
X196126D01*
X192126Y137339D02*
Y145339D01*
X195831Y145839D02*
X195717Y146151D01*
X195490Y146464*
X195262Y146620*
X194808*
X194581Y146464*
X194353Y146151*
X194240Y145839*
X194126Y145370*
Y144589*
X194240Y144120*
X194353Y143807*
X194581Y143495*
X194808Y143339*
X195262*
X195490Y143495*
X195717Y143807*
X195831Y144120*
X210961Y127559D02*
X218961D01*
X214961Y123559D02*
Y131559D01*
X218665Y132059D02*
X218552Y132372D01*
X218324Y132684*
X218097Y132840*
X217642*
X217415Y132684*
X217188Y132372*
X217074Y132059*
X216961Y131590*
Y130809*
X217074Y130340*
X217188Y130028*
X217415Y129715*
X217642Y129559*
X218097*
X218324Y129715*
X218552Y130028*
X218665Y130340*
X208992Y133465D02*
X216992D01*
X212992Y129465D02*
Y137465D01*
X216697Y137965D02*
X216583Y138277D01*
X216356Y138590*
X216128Y138746*
X215674*
X215447Y138590*
X215219Y138277*
X215106Y137965*
X214992Y137496*
Y136715*
X215106Y136246*
X215219Y135933*
X215447Y135621*
X215674Y135465*
X216128*
X216356Y135621*
X216583Y135933*
X216697Y136246*
X216866Y138976D02*
X224866D01*
X220866Y134976D02*
Y142976D01*
X224571Y143476D02*
X224457Y143789D01*
X224230Y144101*
X224003Y144258*
X223548*
X223321Y144101*
X223093Y143789*
X222980Y143476*
X222866Y143008*
Y142226*
X222980Y141758*
X223093Y141445*
X223321Y141133*
X223548Y140976*
X224003*
X224230Y141133*
X224457Y141445*
X224571Y141758*
X190094Y165748D02*
X198094D01*
X194094Y161748D02*
Y169748D01*
X197799Y170248D02*
X197685Y170561D01*
X197458Y170873*
X197231Y171029*
X196776*
X196549Y170873*
X196322Y170561*
X196208Y170248*
X196094Y169779*
Y168998*
X196208Y168529*
X196322Y168217*
X196549Y167904*
X196776Y167748*
X197231*
X197458Y167904*
X197685Y168217*
X197799Y168529*
X218835Y162205D02*
X226835D01*
X222835Y158205D02*
Y166205D01*
X226539Y166705D02*
X226426Y167017D01*
X226198Y167330*
X225971Y167486*
X225516*
X225289Y167330*
X225062Y167017*
X224948Y166705*
X224835Y166236*
Y165455*
X224948Y164986*
X225062Y164673*
X225289Y164361*
X225516Y164205*
X225971*
X226198Y164361*
X226426Y164673*
X226539Y164986*
X224346Y160630D02*
X232346D01*
X228346Y156630D02*
Y164630D01*
X232051Y165130D02*
X231937Y165442D01*
X231710Y165755*
X231483Y165911*
X231028*
X230801Y165755*
X230574Y165442*
X230460Y165130*
X230346Y164661*
Y163880*
X230460Y163411*
X230574Y163099*
X230801Y162786*
X231028Y162630*
X231483*
X231710Y162786*
X231937Y163099*
X232051Y163411*
X226315Y154724D02*
X234315D01*
X230315Y150724D02*
Y158724D01*
X234020Y159224D02*
X233906Y159537D01*
X233679Y159849*
X233451Y160006*
X232997*
X232770Y159849*
X232542Y159537*
X232429Y159224*
X232315Y158756*
Y157974*
X232429Y157506*
X232542Y157193*
X232770Y156881*
X232997Y156724*
X233451*
X233679Y156881*
X233906Y157193*
X234020Y157506*
X220016Y153150D02*
X228016D01*
X224016Y149150D02*
Y157150D01*
X227720Y157650D02*
X227607Y157962D01*
X227379Y158275*
X227152Y158431*
X226698*
X226470Y158275*
X226243Y157962*
X226129Y157650*
X226016Y157181*
Y156400*
X226129Y155931*
X226243Y155618*
X226470Y155306*
X226698Y155150*
X227152*
X227379Y155306*
X227607Y155618*
X227720Y155931*
X207024Y153937D02*
X215024D01*
X211024Y149937D02*
Y157937D01*
X214728Y158437D02*
X214615Y158750D01*
X214387Y159062*
X214160Y159218*
X213705*
X213478Y159062*
X213251Y158750*
X213137Y158437*
X213024Y157968*
Y157187*
X213137Y156718*
X213251Y156406*
X213478Y156093*
X213705Y155937*
X214160*
X214387Y156093*
X214615Y156406*
X214728Y156718*
X204268Y157480D02*
X212268D01*
X208268Y153480D02*
Y161480D01*
X211972Y161980D02*
X211859Y162293D01*
X211631Y162605*
X211404Y162762*
X210950*
X210722Y162605*
X210495Y162293*
X210381Y161980*
X210268Y161512*
Y160730*
X210381Y160262*
X210495Y159949*
X210722Y159637*
X210950Y159480*
X211404*
X211631Y159637*
X211859Y159949*
X211972Y160262*
X188520Y155118D02*
X196520D01*
X192520Y151118D02*
Y159118D01*
X196224Y159618D02*
X196111Y159931D01*
X195883Y160243*
X195656Y160399*
X195202*
X194974Y160243*
X194747Y159931*
X194633Y159618*
X194520Y159149*
Y158368*
X194633Y157899*
X194747Y157587*
X194974Y157274*
X195202Y157118*
X195656*
X195883Y157274*
X196111Y157587*
X196224Y157899*
X192063Y158661D02*
X200063D01*
X196063Y154661D02*
Y162661D01*
X199768Y163161D02*
X199654Y163474D01*
X199427Y163786*
X199199Y163943*
X198745*
X198518Y163786*
X198290Y163474*
X198177Y163161*
X198063Y162693*
Y161911*
X198177Y161443*
X198290Y161130*
X198518Y160818*
X198745Y160661*
X199199*
X199427Y160818*
X199654Y161130*
X199768Y161443*
X197181Y154331D02*
X205181D01*
X201181Y150331D02*
Y158331D01*
X204886Y158831D02*
X204772Y159143D01*
X204545Y159456*
X204317Y159612*
X203863*
X203636Y159456*
X203408Y159143*
X203295Y158831*
X203181Y158362*
Y157581*
X203295Y157112*
X203408Y156799*
X203636Y156487*
X203863Y156331*
X204317*
X204545Y156487*
X204772Y156799*
X204886Y157112*
X212142Y159055D02*
X220142D01*
X216142Y155055D02*
Y163055D01*
X219846Y163555D02*
X219733Y163868D01*
X219505Y164180*
X219278Y164336*
X218824*
X218596Y164180*
X218369Y163868*
X218255Y163555*
X218142Y163086*
Y162305*
X218255Y161836*
X218369Y161524*
X218596Y161211*
X218824Y161055*
X219278*
X219505Y161211*
X219733Y161524*
X219846Y161836*
X205449Y133465D02*
X213449D01*
X209449Y129465D02*
Y137465D01*
X213153Y137965D02*
X213040Y138277D01*
X212812Y138590*
X212585Y138746*
X212131*
X211903Y138590*
X211676Y138277*
X211562Y137965*
X211449Y137496*
Y136715*
X211562Y136246*
X211676Y135933*
X211903Y135621*
X212131Y135465*
X212585*
X212812Y135621*
X213040Y135933*
X213153Y136246*
X201118Y133465D02*
X209118D01*
X205118Y129465D02*
Y137465D01*
X208823Y137965D02*
X208709Y138277D01*
X208482Y138590*
X208254Y138746*
X207800*
X207573Y138590*
X207345Y138277*
X207232Y137965*
X207118Y137496*
Y136715*
X207232Y136246*
X207345Y135933*
X207573Y135621*
X207800Y135465*
X208254*
X208482Y135621*
X208709Y135933*
X208823Y136246*
X195606Y146457D02*
X203606D01*
X199606Y142457D02*
Y150457D01*
X203311Y150957D02*
X203197Y151269D01*
X202970Y151582*
X202743Y151738*
X202288*
X202061Y151582*
X201834Y151269*
X201720Y150957*
X201606Y150488*
Y149707*
X201720Y149238*
X201834Y148925*
X202061Y148613*
X202288Y148457*
X202743*
X202970Y148613*
X203197Y148925*
X203311Y149238*
X188126Y144882D02*
X196126D01*
X192126Y140882D02*
Y148882D01*
X195831Y149382D02*
X195717Y149694D01*
X195490Y150007*
X195262Y150163*
X194808*
X194581Y150007*
X194353Y149694*
X194240Y149382*
X194126Y148913*
Y148132*
X194240Y147663*
X194353Y147351*
X194581Y147038*
X194808Y146882*
X195262*
X195490Y147038*
X195717Y147351*
X195831Y147663*
X191669Y146063D02*
X199669D01*
X195669Y142063D02*
Y150063D01*
X199374Y150563D02*
X199260Y150875D01*
X199033Y151188*
X198806Y151344*
X198351*
X198124Y151188*
X197897Y150875*
X197783Y150563*
X197669Y150094*
Y149313*
X197783Y148844*
X197897Y148532*
X198124Y148219*
X198351Y148063*
X198806*
X199033Y148219*
X199260Y148532*
X199374Y148844*
X192457Y142520D02*
X200457D01*
X196457Y138520D02*
Y146520D01*
X200161Y147020D02*
X200048Y147332D01*
X199820Y147645*
X199593Y147801*
X199139*
X198911Y147645*
X198684Y147332*
X198570Y147020*
X198457Y146551*
Y145770*
X198570Y145301*
X198684Y144988*
X198911Y144676*
X199139Y144520*
X199593*
X199820Y144676*
X200048Y144988*
X200161Y145301*
X197969Y127165D02*
X205969D01*
X201969Y123165D02*
Y131165D01*
X205673Y131665D02*
X205559Y131978D01*
X205332Y132290*
X205105Y132447*
X204650*
X204423Y132290*
X204196Y131978*
X204082Y131665*
X203969Y131197*
Y130415*
X204082Y129947*
X204196Y129634*
X204423Y129322*
X204650Y129165*
X205105*
X205332Y129322*
X205559Y129634*
X205673Y129947*
X258992Y160236D02*
X266992D01*
X262992Y156236D02*
Y164236D01*
X266697Y164736D02*
X266583Y165049D01*
X266356Y165361*
X266128Y165517*
X265674*
X265447Y165361*
X265219Y165049*
X265106Y164736*
X264992Y164267*
Y163486*
X265106Y163017*
X265219Y162705*
X265447Y162392*
X265674Y162236*
X266128*
X266356Y162392*
X266583Y162705*
X266697Y163017*
X249543Y156299D02*
X257543D01*
X253543Y152299D02*
Y160299D01*
X257248Y160799D02*
X257134Y161112D01*
X256907Y161424*
X256680Y161580*
X256225*
X255998Y161424*
X255771Y161112*
X255657Y160799*
X255543Y160330*
Y159549*
X255657Y159080*
X255771Y158768*
X255998Y158455*
X256225Y158299*
X256680*
X256907Y158455*
X257134Y158768*
X257248Y159080*
X249937Y137402D02*
X257937D01*
X253937Y133402D02*
Y141402D01*
X257642Y141902D02*
X257528Y142214D01*
X257301Y142527*
X257073Y142683*
X256619*
X256392Y142527*
X256164Y142214*
X256051Y141902*
X255937Y141433*
Y140652*
X256051Y140183*
X256164Y139870*
X256392Y139558*
X256619Y139402*
X257073*
X257301Y139558*
X257528Y139870*
X257642Y140183*
X256630Y148031D02*
X264630D01*
X260630Y144031D02*
Y152031D01*
X264334Y152531D02*
X264221Y152844D01*
X263994Y153156*
X263766Y153313*
X263312*
X263084Y153156*
X262857Y152844*
X262744Y152531*
X262630Y152063*
Y151281*
X262744Y150813*
X262857Y150500*
X263084Y150188*
X263312Y150031*
X263766*
X263994Y150188*
X264221Y150500*
X264334Y150813*
X248362Y131102D02*
X256362D01*
X252362Y127102D02*
Y135102D01*
X256067Y135602D02*
X255953Y135915D01*
X255726Y136227*
X255499Y136384*
X255044*
X254817Y136227*
X254589Y135915*
X254476Y135602*
X254362Y135134*
Y134352*
X254476Y133884*
X254589Y133571*
X254817Y133259*
X255044Y133102*
X255499*
X255726Y133259*
X255953Y133571*
X256067Y133884*
X234583Y137402D02*
X242583D01*
X238583Y133402D02*
Y141402D01*
X242287Y141902D02*
X242174Y142214D01*
X241946Y142527*
X241719Y142683*
X241264*
X241037Y142527*
X240810Y142214*
X240696Y141902*
X240583Y141433*
Y140652*
X240696Y140183*
X240810Y139870*
X241037Y139558*
X241264Y139402*
X241719*
X241946Y139558*
X242174Y139870*
X242287Y140183*
X106630Y184646D02*
X114630D01*
X110630Y180646D02*
Y188646D01*
X114334Y189146D02*
X114221Y189458D01*
X113994Y189771*
X113766Y189927*
X113312*
X113084Y189771*
X112857Y189458*
X112744Y189146*
X112630Y188677*
Y187896*
X112744Y187427*
X112857Y187114*
X113084Y186802*
X113312Y186646*
X113766*
X113994Y186802*
X114221Y187114*
X114334Y187427*
X106236Y168504D02*
X114236D01*
X110236Y164504D02*
Y172504D01*
X113941Y173004D02*
X113827Y173316D01*
X113600Y173629*
X113373Y173785*
X112918*
X112691Y173629*
X112463Y173316*
X112350Y173004*
X112236Y172535*
Y171754*
X112350Y171285*
X112463Y170973*
X112691Y170660*
X112918Y170504*
X113373*
X113600Y170660*
X113827Y170973*
X113941Y171285*
X125528Y172835D02*
X133528D01*
X129528Y168835D02*
Y176835D01*
X133232Y177335D02*
X133118Y177647D01*
X132891Y177960*
X132664Y178116*
X132209*
X131982Y177960*
X131755Y177647*
X131641Y177335*
X131528Y176866*
Y176085*
X131641Y175616*
X131755Y175303*
X131982Y174991*
X132209Y174835*
X132664*
X132891Y174991*
X133118Y175303*
X133232Y175616*
X163717Y172835D02*
X171717D01*
X167717Y168835D02*
Y176835D01*
X171421Y177335D02*
X171307Y177647D01*
X171080Y177960*
X170853Y178116*
X170398*
X170171Y177960*
X169944Y177647*
X169830Y177335*
X169717Y176866*
Y176085*
X169830Y175616*
X169944Y175303*
X170171Y174991*
X170398Y174835*
X170853*
X171080Y174991*
X171307Y175303*
X171421Y175616*
X190882Y175197D02*
X198882D01*
X194882Y171197D02*
Y179197D01*
X198586Y179697D02*
X198473Y180009D01*
X198246Y180322*
X198018Y180478*
X197564*
X197336Y180322*
X197109Y180009*
X196996Y179697*
X196882Y179228*
Y178447*
X196996Y177978*
X197109Y177666*
X197336Y177353*
X197564Y177197*
X198018*
X198246Y177353*
X198473Y177666*
X198586Y177978*
X212142Y175591D02*
X220142D01*
X216142Y171591D02*
Y179591D01*
X219846Y180091D02*
X219733Y180403D01*
X219505Y180716*
X219278Y180872*
X218824*
X218596Y180716*
X218369Y180403*
X218255Y180091*
X218142Y179622*
Y178841*
X218255Y178372*
X218369Y178059*
X218596Y177747*
X218824Y177591*
X219278*
X219505Y177747*
X219733Y178059*
X219846Y178372*
X212142Y166142D02*
X220142D01*
X216142Y162142D02*
Y170142D01*
X219846Y170642D02*
X219733Y170954D01*
X219505Y171267*
X219278Y171423*
X218824*
X218596Y171267*
X218369Y170954*
X218255Y170642*
X218142Y170173*
Y169392*
X218255Y168923*
X218369Y168610*
X218596Y168298*
X218824Y168142*
X219278*
X219505Y168298*
X219733Y168610*
X219846Y168923*
X243244Y172441D02*
X251244D01*
X247244Y168441D02*
Y176441D01*
X250949Y176941D02*
X250835Y177253D01*
X250608Y177566*
X250380Y177722*
X249926*
X249699Y177566*
X249471Y177253*
X249358Y176941*
X249244Y176472*
Y175691*
X249358Y175222*
X249471Y174910*
X249699Y174597*
X249926Y174441*
X250380*
X250608Y174597*
X250835Y174910*
X250949Y175222*
X258205Y170472D02*
X266205D01*
X262205Y166472D02*
Y174472D01*
X265909Y174972D02*
X265796Y175285D01*
X265568Y175597*
X265341Y175754*
X264887*
X264659Y175597*
X264432Y175285*
X264318Y174972*
X264205Y174504*
Y173722*
X264318Y173254*
X264432Y172941*
X264659Y172629*
X264887Y172472*
X265341*
X265568Y172629*
X265796Y172941*
X265909Y173254*
X256236Y184252D02*
X264236D01*
X260236Y180252D02*
Y188252D01*
X263941Y188752D02*
X263827Y189064D01*
X263600Y189377*
X263373Y189533*
X262918*
X262691Y189377*
X262463Y189064*
X262350Y188752*
X262236Y188283*
Y187502*
X262350Y187033*
X262463Y186721*
X262691Y186408*
X262918Y186252*
X263373*
X263600Y186408*
X263827Y186721*
X263941Y187033*
X239701Y198031D02*
X247701D01*
X243701Y194031D02*
Y202031D01*
X247405Y202531D02*
X247292Y202844D01*
X247064Y203156*
X246837Y203313*
X246383*
X246155Y203156*
X245928Y202844*
X245814Y202531*
X245701Y202063*
Y201281*
X245814Y200813*
X245928Y200500*
X246155Y200188*
X246383Y200031*
X246837*
X247064Y200188*
X247292Y200500*
X247405Y200813*
X227496Y175197D02*
X235496D01*
X231496Y171197D02*
Y179197D01*
X235201Y179697D02*
X235087Y180009D01*
X234860Y180322*
X234632Y180478*
X234178*
X233951Y180322*
X233723Y180009*
X233610Y179697*
X233496Y179228*
Y178447*
X233610Y177978*
X233723Y177666*
X233951Y177353*
X234178Y177197*
X234632*
X234860Y177353*
X235087Y177666*
X235201Y177978*
X270803Y190157D02*
X278803D01*
X274803Y186157D02*
Y194157D01*
X278508Y194657D02*
X278394Y194970D01*
X278167Y195282*
X277940Y195439*
X277485*
X277258Y195282*
X277030Y194970*
X276917Y194657*
X276803Y194189*
Y193407*
X276917Y192939*
X277030Y192626*
X277258Y192314*
X277485Y192157*
X277940*
X278167Y192314*
X278394Y192626*
X278508Y192939*
X269622Y170079D02*
X277622D01*
X273622Y166079D02*
Y174079D01*
X277327Y174579D02*
X277213Y174891D01*
X276986Y175204*
X276758Y175360*
X276304*
X276077Y175204*
X275849Y174891*
X275736Y174579*
X275622Y174110*
Y173329*
X275736Y172860*
X275849Y172547*
X276077Y172235*
X276304Y172079*
X276758*
X276986Y172235*
X277213Y172547*
X277327Y172860*
X268047Y202362D02*
X276047D01*
X272047Y198362D02*
Y206362D01*
X275752Y206862D02*
X275638Y207175D01*
X275411Y207487*
X275184Y207643*
X274729*
X274502Y207487*
X274275Y207175*
X274161Y206862*
X274047Y206393*
Y205612*
X274161Y205143*
X274275Y204831*
X274502Y204518*
X274729Y204362*
X275184*
X275411Y204518*
X275638Y204831*
X275752Y205143*
X221591Y206693D02*
X229591D01*
X225591Y202693D02*
Y210693D01*
X229295Y211193D02*
X229181Y211505D01*
X228954Y211818*
X228727Y211974*
X228272*
X228045Y211818*
X227818Y211505*
X227704Y211193*
X227591Y210724*
Y209943*
X227704Y209474*
X227818Y209162*
X228045Y208849*
X228272Y208693*
X228727*
X228954Y208849*
X229181Y209162*
X229295Y209474*
X237732Y208268D02*
X245732D01*
X241732Y204268D02*
Y212268D01*
X245437Y212768D02*
X245323Y213080D01*
X245096Y213393*
X244869Y213549*
X244414*
X244187Y213393*
X243960Y213080*
X243846Y212768*
X243732Y212299*
Y211518*
X243846Y211049*
X243960Y210736*
X244187Y210424*
X244414Y210268*
X244869*
X245096Y210424*
X245323Y210736*
X245437Y211049*
X105512Y209055D02*
X113386Y216929D01*
X271654*
X279528Y209055*
Y113386*
X271654Y105512*
X129134*
X105512Y129134*
Y209055*
X236220Y119291D02*
G03X236220I-5905J0D01*
G01X493701Y1120000D02*
X751701D01*
X493701Y1096000D02*
X751701D01*
X493701Y1072000D02*
X751701D01*
X493701Y1048000D02*
X751701D01*
X493701Y1024000D02*
X751701D01*
X493701Y1000000D02*
X751701D01*
X493701Y1120000D02*
Y1000000D01*
X577701Y1120000D02*
Y1000000D01*
X613701Y1120000D02*
Y1000000D01*
X649701Y1120000D02*
Y1000000D01*
X703701Y1120000D02*
Y1000000D01*
X751701Y1120000D02*
Y1000000D01*
X720383Y1109875D02*
Y1102000D01*
X718474Y1109875D02*
X722292D01*
X726383D02*
X725837Y1109500D01*
X725292Y1108750*
X725019Y1108000*
X724746Y1106875*
Y1105000*
X725019Y1103875*
X725292Y1103125*
X725837Y1102375*
X726383Y1102000*
X727474*
X728019Y1102375*
X728564Y1103125*
X728837Y1103875*
X729110Y1105000*
Y1106875*
X728837Y1108000*
X728564Y1108750*
X728019Y1109500*
X727474Y1109875*
X726383*
X731564D02*
Y1102000D01*
X734837*
X500246Y1085875D02*
X503246D01*
X501610Y1082875*
X502428*
X502974Y1082500*
X503246Y1082125*
X503519Y1081000*
Y1080250*
X503246Y1079125*
X502701Y1078375*
X501883Y1078000*
X501064*
X500246Y1078375*
X499974Y1078750*
X499701Y1079500*
X509519Y1085875D02*
X506792D01*
X506519Y1082500*
X506792Y1082875*
X507610Y1083250*
X508428*
X509246Y1082875*
X509792Y1082125*
X510064Y1081000*
X509792Y1080250*
X509519Y1079125*
X508974Y1078375*
X508155Y1078000*
X507337*
X506519Y1078375*
X506246Y1078750*
X505974Y1079500*
X595337Y1085875D02*
X592610Y1080625D01*
X596701*
X595337Y1085875D02*
Y1078000D01*
X625701D02*
X637701Y1090000D01*
X625701D02*
X637701Y1078000D01*
X658337Y1085875D02*
X660519Y1082125D01*
Y1078000*
X662701Y1085875D02*
X660519Y1082125D01*
X665155Y1085875D02*
Y1078000D01*
Y1085875D02*
X668701D01*
X665155Y1082125D02*
X667337D01*
X665155Y1078000D02*
X668701D01*
X674974Y1084750D02*
X674428Y1085500D01*
X673610Y1085875*
X672519*
X671701Y1085500*
X671155Y1084750*
Y1084000*
X671428Y1083250*
X671701Y1082875*
X672246Y1082500*
X673883Y1081750*
X674428Y1081375*
X674701Y1081000*
X674974Y1080250*
Y1079125*
X674428Y1078375*
X673610Y1078000*
X672519*
X671701Y1078375*
X671155Y1079125*
X711519Y1084750D02*
Y1078000D01*
X709064Y1081375D02*
X713974D01*
X721337Y1087375D02*
X716428Y1075375D01*
X723792Y1081375D02*
X728701D01*
X732792Y1085875D02*
X731974Y1085500D01*
X731428Y1084375*
X731155Y1082500*
Y1081375*
X731428Y1079500*
X731974Y1078375*
X732792Y1078000*
X733337*
X734155Y1078375*
X734701Y1079500*
X734974Y1081375*
Y1082500*
X734701Y1084375*
X734155Y1085500*
X733337Y1085875*
X732792*
X737701Y1078750D02*
X737428Y1078375D01*
X737701Y1078000*
X737974Y1078375*
X737701Y1078750*
X742064Y1085875D02*
X741246Y1085500D01*
X740701Y1084375*
X740428Y1082500*
Y1081375*
X740701Y1079500*
X741246Y1078375*
X742064Y1078000*
X742610*
X743428Y1078375*
X743974Y1079500*
X744246Y1081375*
Y1082500*
X743974Y1084375*
X743428Y1085500*
X742610Y1085875*
X742064*
X502428Y1061875D02*
X499701Y1056625D01*
X503792*
X502428Y1061875D02*
Y1054000D01*
X506792Y1061875D02*
X509792D01*
X508155Y1058875*
X508974*
X509519Y1058500*
X509792Y1058125*
X510064Y1057000*
Y1056250*
X509792Y1055125*
X509246Y1054375*
X508428Y1054000*
X507610*
X506792Y1054375*
X506519Y1054750*
X506246Y1055500*
X512792Y1054750D02*
X512519Y1054375D01*
X512792Y1054000*
X513064Y1054375*
X512792Y1054750*
X516064Y1061875D02*
X519064D01*
X517428Y1058875*
X518246*
X518792Y1058500*
X519064Y1058125*
X519337Y1057000*
Y1056250*
X519064Y1055125*
X518519Y1054375*
X517701Y1054000*
X516883*
X516064Y1054375*
X515792Y1054750*
X515519Y1055500*
X521792Y1060375D02*
X522337Y1060750D01*
X523155Y1061875*
Y1054000*
X595337Y1061875D02*
X592610Y1056625D01*
X596701*
X595337Y1061875D02*
Y1054000D01*
X625701Y1060000D02*
X637701D01*
X631701Y1054000D02*
Y1066000D01*
X636446Y1069300D02*
X634701Y1063000D01*
X636446Y1069300D02*
X638192Y1063000D01*
X635355Y1065100D02*
X637537D01*
X658337Y1061875D02*
X660519Y1058125D01*
Y1054000*
X662701Y1061875D02*
X660519Y1058125D01*
X665155Y1061875D02*
Y1054000D01*
Y1061875D02*
X668701D01*
X665155Y1058125D02*
X667337D01*
X665155Y1054000D02*
X668701D01*
X674974Y1060750D02*
X674428Y1061500D01*
X673610Y1061875*
X672519*
X671701Y1061500*
X671155Y1060750*
Y1060000*
X671428Y1059250*
X671701Y1058875*
X672246Y1058500*
X673883Y1057750*
X674428Y1057375*
X674701Y1057000*
X674974Y1056250*
Y1055125*
X674428Y1054375*
X673610Y1054000*
X672519*
X671701Y1054375*
X671155Y1055125*
X711519Y1060750D02*
Y1054000D01*
X709064Y1057375D02*
X713974D01*
X721337Y1063375D02*
X716428Y1051375D01*
X723792Y1057375D02*
X728701D01*
X732792Y1061875D02*
X731974Y1061500D01*
X731428Y1060375*
X731155Y1058500*
Y1057375*
X731428Y1055500*
X731974Y1054375*
X732792Y1054000*
X733337*
X734155Y1054375*
X734701Y1055500*
X734974Y1057375*
Y1058500*
X734701Y1060375*
X734155Y1061500*
X733337Y1061875*
X732792*
X737701Y1054750D02*
X737428Y1054375D01*
X737701Y1054000*
X737974Y1054375*
X737701Y1054750*
X742064Y1061875D02*
X741246Y1061500D01*
X740701Y1060375*
X740428Y1058500*
Y1057375*
X740701Y1055500*
X741246Y1054375*
X742064Y1054000*
X742610*
X743428Y1054375*
X743974Y1055500*
X744246Y1057375*
Y1058500*
X743974Y1060375*
X743428Y1061500*
X742610Y1061875*
X742064*
X500246Y1037875D02*
X503246D01*
X501610Y1034875*
X502428*
X502974Y1034500*
X503246Y1034125*
X503519Y1033000*
Y1032250*
X503246Y1031125*
X502701Y1030375*
X501883Y1030000*
X501064*
X500246Y1030375*
X499974Y1030750*
X499701Y1031500*
X509519Y1035250D02*
X509246Y1034125D01*
X508701Y1033375*
X507883Y1033000*
X507610*
X506792Y1033375*
X506246Y1034125*
X505974Y1035250*
Y1035625*
X506246Y1036750*
X506792Y1037500*
X507610Y1037875*
X507883*
X508701Y1037500*
X509246Y1036750*
X509519Y1035250*
Y1033375*
X509246Y1031500*
X508701Y1030375*
X507883Y1030000*
X507337*
X506519Y1030375*
X506246Y1031125*
X512246Y1030750D02*
X511974Y1030375D01*
X512246Y1030000*
X512519Y1030375*
X512246Y1030750*
X515519Y1037875D02*
X518519D01*
X516883Y1034875*
X517701*
X518246Y1034500*
X518519Y1034125*
X518792Y1033000*
Y1032250*
X518519Y1031125*
X517974Y1030375*
X517155Y1030000*
X516337*
X515519Y1030375*
X515246Y1030750*
X514974Y1031500*
X525064Y1037875D02*
X522337Y1030000D01*
X521246Y1037875D02*
X525064D01*
X533792Y1035250D02*
X536792Y1030000D01*
Y1035250D02*
X533792Y1030000D01*
X549064Y1035250D02*
X548792Y1034125D01*
X548246Y1033375*
X547428Y1033000*
X547155*
X546337Y1033375*
X545792Y1034125*
X545519Y1035250*
Y1035625*
X545792Y1036750*
X546337Y1037500*
X547155Y1037875*
X547428*
X548246Y1037500*
X548792Y1036750*
X549064Y1035250*
Y1033375*
X548792Y1031500*
X548246Y1030375*
X547428Y1030000*
X546883*
X546064Y1030375*
X545792Y1031125*
X553155Y1037875D02*
X552337Y1037500D01*
X551792Y1036375*
X551519Y1034500*
Y1033375*
X551792Y1031500*
X552337Y1030375*
X553155Y1030000*
X553701*
X554519Y1030375*
X555064Y1031500*
X555337Y1033375*
Y1034500*
X555064Y1036375*
X554519Y1037500*
X553701Y1037875*
X553155*
X558064Y1030750D02*
X557792Y1030375D01*
X558064Y1030000*
X558337Y1030375*
X558064Y1030750*
X564337Y1037875D02*
X561610D01*
X561337Y1034500*
X561610Y1034875*
X562428Y1035250*
X563246*
X564064Y1034875*
X564610Y1034125*
X564883Y1033000*
X564610Y1032250*
X564337Y1031125*
X563792Y1030375*
X562974Y1030000*
X562155*
X561337Y1030375*
X561064Y1030750*
X560792Y1031500*
X570883Y1037875D02*
X568155D01*
X567883Y1034500*
X568155Y1034875*
X568974Y1035250*
X569792*
X570610Y1034875*
X571155Y1034125*
X571428Y1033000*
X571155Y1032250*
X570883Y1031125*
X570337Y1030375*
X569519Y1030000*
X568701*
X567883Y1030375*
X567610Y1030750*
X567337Y1031500*
X593019Y1036000D02*
Y1036375D01*
X593292Y1037125*
X593564Y1037500*
X594110Y1037875*
X595201*
X595746Y1037500*
X596019Y1037125*
X596292Y1036375*
Y1035625*
X596019Y1034875*
X595474Y1033750*
X592746Y1030000*
X596564*
X625701Y1036000D02*
X637701D01*
X631701Y1030000D02*
Y1042000D01*
X634701Y1045300D02*
Y1039000D01*
Y1045300D02*
X636664D01*
X637319Y1045000*
X637537Y1044700*
X637755Y1044100*
Y1043500*
X637537Y1042900*
X637319Y1042600*
X636664Y1042300*
X634701D02*
X636664D01*
X637319Y1042000*
X637537Y1041700*
X637755Y1041100*
Y1040200*
X637537Y1039600*
X637319Y1039300*
X636664Y1039000*
X634701*
X658337Y1037875D02*
X660519Y1034125D01*
Y1030000*
X662701Y1037875D02*
X660519Y1034125D01*
X665155Y1037875D02*
Y1030000D01*
Y1037875D02*
X668701D01*
X665155Y1034125D02*
X667337D01*
X665155Y1030000D02*
X668701D01*
X674974Y1036750D02*
X674428Y1037500D01*
X673610Y1037875*
X672519*
X671701Y1037500*
X671155Y1036750*
Y1036000*
X671428Y1035250*
X671701Y1034875*
X672246Y1034500*
X673883Y1033750*
X674428Y1033375*
X674701Y1033000*
X674974Y1032250*
Y1031125*
X674428Y1030375*
X673610Y1030000*
X672519*
X671701Y1030375*
X671155Y1031125*
X711519Y1036750D02*
Y1030000D01*
X709064Y1033375D02*
X713974D01*
X721337Y1039375D02*
X716428Y1027375D01*
X723792Y1033375D02*
X728701D01*
X732792Y1037875D02*
X731974Y1037500D01*
X731428Y1036375*
X731155Y1034500*
Y1033375*
X731428Y1031500*
X731974Y1030375*
X732792Y1030000*
X733337*
X734155Y1030375*
X734701Y1031500*
X734974Y1033375*
Y1034500*
X734701Y1036375*
X734155Y1037500*
X733337Y1037875*
X732792*
X737701Y1030750D02*
X737428Y1030375D01*
X737701Y1030000*
X737974Y1030375*
X737701Y1030750*
X742064Y1037875D02*
X741246Y1037500D01*
X740701Y1036375*
X740428Y1034500*
Y1033375*
X740701Y1031500*
X741246Y1030375*
X742064Y1030000*
X742610*
X743428Y1030375*
X743974Y1031500*
X744246Y1033375*
Y1034500*
X743974Y1036375*
X743428Y1037500*
X742610Y1037875*
X742064*
X499701Y1012375D02*
X500246Y1012750D01*
X501064Y1013875*
Y1006000*
X503792Y1012000D02*
Y1012375D01*
X504064Y1013125*
X504337Y1013500*
X504883Y1013875*
X505974*
X506519Y1013500*
X506792Y1013125*
X507064Y1012375*
Y1011625*
X506792Y1010875*
X506246Y1009750*
X503519Y1006000*
X507337*
X590974Y1013875D02*
X590155Y1013500D01*
X589883Y1012750*
Y1012000*
X590155Y1011250*
X590701Y1010875*
X591792Y1010500*
X592610Y1010125*
X593155Y1009375*
X593428Y1008625*
Y1007500*
X593155Y1006750*
X592883Y1006375*
X592064Y1006000*
X590974*
X590155Y1006375*
X589883Y1006750*
X589610Y1007500*
Y1008625*
X589883Y1009375*
X590428Y1010125*
X591246Y1010500*
X592337Y1010875*
X592883Y1011250*
X593155Y1012000*
Y1012750*
X592883Y1013500*
X592064Y1013875*
X590974*
X596155Y1012000D02*
Y1012375D01*
X596428Y1013125*
X596701Y1013500*
X597246Y1013875*
X598337*
X598883Y1013500*
X599155Y1013125*
X599428Y1012375*
Y1011625*
X599155Y1010875*
X598610Y1009750*
X595883Y1006000*
X599701*
X625701Y1012000D02*
X637701D01*
X631701Y1006000D02*
Y1018000D01*
X637974Y1019800D02*
X637755Y1020400D01*
X637319Y1021000*
X636883Y1021300*
X636010*
X635574Y1021000*
X635137Y1020400*
X634919Y1019800*
X634701Y1018900*
Y1017400*
X634919Y1016500*
X635137Y1015900*
X635574Y1015300*
X636010Y1015000*
X636883*
X637319Y1015300*
X637755Y1015900*
X637974Y1016500*
X658337Y1013875D02*
X660519Y1010125D01*
Y1006000*
X662701Y1013875D02*
X660519Y1010125D01*
X665155Y1013875D02*
Y1006000D01*
Y1013875D02*
X668701D01*
X665155Y1010125D02*
X667337D01*
X665155Y1006000D02*
X668701D01*
X674974Y1012750D02*
X674428Y1013500D01*
X673610Y1013875*
X672519*
X671701Y1013500*
X671155Y1012750*
Y1012000*
X671428Y1011250*
X671701Y1010875*
X672246Y1010500*
X673883Y1009750*
X674428Y1009375*
X674701Y1009000*
X674974Y1008250*
Y1007125*
X674428Y1006375*
X673610Y1006000*
X672519*
X671701Y1006375*
X671155Y1007125*
X711519Y1012750D02*
Y1006000D01*
X709064Y1009375D02*
X713974D01*
X721337Y1015375D02*
X716428Y1003375D01*
X723792Y1009375D02*
X728701D01*
X732792Y1013875D02*
X731974Y1013500D01*
X731428Y1012375*
X731155Y1010500*
Y1009375*
X731428Y1007500*
X731974Y1006375*
X732792Y1006000*
X733337*
X734155Y1006375*
X734701Y1007500*
X734974Y1009375*
Y1010500*
X734701Y1012375*
X734155Y1013500*
X733337Y1013875*
X732792*
X737701Y1006750D02*
X737428Y1006375D01*
X737701Y1006000*
X737974Y1006375*
X737701Y1006750*
X742064Y1013875D02*
X741246Y1013500D01*
X740701Y1012375*
X740428Y1010500*
Y1009375*
X740701Y1007500*
X741246Y1006375*
X742064Y1006000*
X742610*
X743428Y1006375*
X743974Y1007500*
X744246Y1009375*
Y1010500*
X743974Y1012375*
X743428Y1013500*
X742610Y1013875*
X742064*
G54D75*
G74*
X0Y0D02*
M02*
