*
*
G04 PADS 9.5 Build Number: 522968 generated Gerber (RS-274-X) file*
G04 PC Version=2.1*
*
%IN "alarm_V1.1.pcb"*%
*
%MOIN*%
*
%FSLAX35Y35*%
*
*
*
*
G04 PC Standard Apertures*
*
*
G04 Thermal Relief Aperture macro.*
%AMTER*
1,1,$1,0,0*
1,0,$1-$2,0,0*
21,0,$3,$4,0,0,45*
21,0,$3,$4,0,0,135*
%
*
*
G04 Annular Aperture macro.*
%AMANN*
1,1,$1,0,0*
1,0,$2,0,0*
%
*
*
G04 Odd Aperture macro.*
%AMODD*
1,1,$1,0,0*
1,0,$1-0.005,0,0*
%
*
*
G04 PC Custom Aperture Macros*
*
*
*
*
*
*
G04 PC Aperture Table*
*
%ADD017C,0.024*%
%ADD020R,0.036X0.036*%
%ADD035C,0.01*%
%ADD037C,0.005*%
%ADD039C,0.012*%
%ADD040C,0.015*%
%ADD042C,0.06*%
%ADD045C,0.03*%
%ADD046C,0.02*%
%ADD070C,0.008*%
%ADD075C,0.001*%
%ADD107C,0.1*%
%ADD108R,0.025X0.02*%
%ADD113R,0.02X0.025*%
%ADD116R,0.05X0.036*%
%ADD118R,0.05118X0.06299*%
%ADD120O,0.06X0.013*%
%ADD121R,0.05X0.07*%
%ADD127R,0.04724X0.01772*%
%ADD132C,0.016*%
%ADD133R,0.01378X0.05512*%
%ADD134O,0.01378X0.05512*%
%ADD173R,0.02362X0.04724*%
*
*
*
*
G04 PC Circuitry*
G04 Layer Name alarm_V1.1.pcb - circuitry*
%LPD*%
*
*
G04 PC Custom Flashes*
G04 Layer Name alarm_V1.1.pcb - flashes*
%LPD*%
*
*
G04 PC Circuitry*
G04 Layer Name alarm_V1.1.pcb - circuitry*
%LPD*%
*
G54D17*
G01X285400Y118800D03*
X289000Y122000D03*
X294800Y126200D03*
X286600Y130000D03*
X236200Y138600D03*
X272600Y136400D03*
X276200Y142400D03*
X284400Y142600D03*
X293200Y133000D03*
X288400Y140800D03*
X292800Y139000D03*
X313600Y142800D03*
X317400Y147000D03*
X312200Y151400D03*
X339200Y151000D03*
X328200Y139000D03*
X158400Y163400D03*
X164800Y157400D03*
X147400Y169800D03*
X176000Y157800D03*
X169800Y157600D03*
X203200Y153600D03*
X207000D03*
X210600D03*
X234200Y156200D03*
X236000Y171400D03*
X262400Y152400D03*
X262000Y158200D03*
X257000Y154200D03*
X309800Y167600D03*
X339000Y168200D03*
X336800Y158200D03*
X346600Y165600D03*
X138000Y182600D03*
X140400Y178600D03*
X136400Y185400D03*
X143400Y172800D03*
X158000Y184800D03*
X156600Y180000D03*
X151400Y180600D03*
X153600Y184000D03*
X192000Y176400D03*
X224200Y185600D03*
X210200Y182200D03*
X233200Y175000D03*
X258800Y179000D03*
X303200Y178400D03*
X300600Y174400D03*
X305400Y174800D03*
X313000Y179800D03*
X333200Y174400D03*
X333000Y183000D03*
X325600Y180000D03*
X348200Y184000D03*
X353000Y188800D03*
X364400Y180800D03*
X365200Y188000D03*
X350400Y179200D03*
X368000Y183600D03*
X369600Y188600D03*
X135600Y203400D03*
X129800Y206200D03*
X162600Y208400D03*
X161200Y201400D03*
X164000Y196200D03*
X184800Y195400D03*
X175000D03*
X169000Y193400D03*
X200000Y210000D03*
X195400Y210400D03*
X191200Y211000D03*
X195000Y205400D03*
X199800D03*
X224400Y196400D03*
X257200Y198800D03*
Y193600D03*
Y196200D03*
X270600Y206200D03*
X275600D03*
X300000Y194400D03*
X294800Y209800D03*
X307600Y198400D03*
X320600Y210000D03*
X346400Y204400D03*
X364000Y199000D03*
X349200Y192400D03*
X369400Y198600D03*
X374400Y199200D03*
X368800Y194200D03*
X367600Y203400D03*
X372400Y202800D03*
X130000Y211800D03*
X181400Y229200D03*
X185000Y218600D03*
Y216200D03*
Y213800D03*
X190200Y215800D03*
X189600Y220200D03*
X195200Y214400D03*
X199200Y213600D03*
X219400Y215200D03*
X225200Y214400D03*
X219000Y212000D03*
X230000Y224000D03*
X227400Y226200D03*
X230000Y217800D03*
X234000D03*
X231000Y214600D03*
X234200Y221600D03*
X233000Y225800D03*
X228400Y221000D03*
X262600Y228600D03*
X252800Y225000D03*
X252400Y215200D03*
X262200Y224600D03*
X254600Y219800D03*
X248800Y219400D03*
Y225000D03*
X257600Y224800D03*
X280400Y220800D03*
X286800D03*
X354800Y230800D03*
X364400Y217400D03*
Y220000D03*
Y222800D03*
Y225600D03*
X358400Y219400D03*
Y213000D03*
X375800Y217600D03*
Y220200D03*
Y223000D03*
Y225600D03*
X143200Y246000D03*
X133600Y244800D03*
X133200Y250600D03*
X142800Y237200D03*
X174600Y245400D03*
X181400D03*
X182000Y240200D03*
X201800Y250400D03*
X197000Y247800D03*
X196400Y238400D03*
X219400Y246400D03*
X206000Y249600D03*
X212600Y243000D03*
X241200Y251200D03*
X237400Y232400D03*
X239000Y242200D03*
X261800Y234600D03*
X277600Y242800D03*
X273000Y242000D03*
X309400Y248200D03*
X124800Y262200D03*
X143800Y256000D03*
X129600Y266000D03*
X165000Y263600D03*
X163800Y268800D03*
X160800Y261600D03*
X160200Y265400D03*
X179800Y267200D03*
X180200Y271000D03*
X188000Y265600D03*
X189000Y271200D03*
X197400Y252200D03*
X213000Y257800D03*
X212200Y251600D03*
X220000Y252400D03*
X218800Y257600D03*
X205600D03*
X237400Y259200D03*
X239200Y262400D03*
X234600Y266800D03*
X250400Y252800D03*
X258400Y253400D03*
X262800Y270600D03*
X253600Y259200D03*
X253800Y267200D03*
X269200Y267600D03*
X276600Y255800D03*
X274200Y264400D03*
X294200Y262400D03*
X301800Y252000D03*
X292800D03*
X286400Y265400D03*
X285600Y255000D03*
X309400Y254000D03*
X314200Y268000D03*
X315200Y259600D03*
X320200D03*
X332600Y257200D03*
X328000Y269400D03*
X344800Y267600D03*
Y270200D03*
X333800Y267600D03*
Y270200D03*
X377800Y267200D03*
X130800Y280800D03*
X127800Y272800D03*
X145400Y273400D03*
X149800D03*
X169000Y281800D03*
X166200Y284200D03*
X195800Y272000D03*
X202400Y272200D03*
X198200Y274800D03*
X207200Y272200D03*
X217000Y278400D03*
X236200Y272200D03*
X229600Y289800D03*
X226000Y290000D03*
X259200Y282000D03*
X261400Y288200D03*
X270000Y281200D03*
X277800Y283400D03*
X276000Y271800D03*
X270800Y290800D03*
X266000Y290200D03*
X300800Y275800D03*
X315800Y275600D03*
X324200Y281000D03*
X310600Y290600D03*
X334200Y290800D03*
X344800Y272800D03*
Y275400D03*
X333800Y272800D03*
Y275400D03*
X372400Y287200D03*
X132800Y292200D03*
X148400Y305600D03*
X159400Y296400D03*
X166400Y306200D03*
X166600Y295600D03*
X187800Y306200D03*
X192800Y306000D03*
X195000Y310600D03*
X199000Y308400D03*
X241200Y298000D03*
X237600Y301200D03*
X237800Y311400D03*
X240600Y308800D03*
X226600Y307200D03*
X227000Y300000D03*
X246200Y306400D03*
X300800Y294400D03*
X292800Y296800D03*
X308400Y301000D03*
X318800D03*
X306600Y310400D03*
X359600Y299400D03*
X347400Y302400D03*
X162400Y319000D03*
X149000Y322400D03*
X211000Y318800D03*
Y313000D03*
Y323800D03*
X227800Y323200D03*
X230400Y326800D03*
X226800Y314000D03*
X261600Y326800D03*
X250400Y326600D03*
Y331200D03*
X270400Y324000D03*
X271400Y317800D03*
X277400Y318000D03*
X296800Y321000D03*
X307200Y321400D03*
X340000Y321000D03*
X347800Y319200D03*
X157600Y332000D03*
X172400Y336200D03*
X192200D03*
X230400Y337200D03*
X262800Y332600D03*
X271800Y331600D03*
X300200Y332000D03*
G54D20*
X254220Y169876D03*
Y177376D03*
X282620Y169876D03*
Y177376D03*
G54D35*
X332700Y276700D02*
X345500D01*
Y265100*
X332700*
Y276700*
X363300Y227500D02*
X376900D01*
Y215900*
X363300*
Y227500*
X332700Y275899D02*
X345500D01*
X332700Y274999D02*
X345500D01*
X332700Y274099D02*
X345500D01*
X332700Y273199D02*
X345500D01*
X332700Y272299D02*
X345500D01*
X332700Y271399D02*
X345500D01*
X332700Y270499D02*
X345500D01*
X332700Y269599D02*
X345500D01*
X332700Y268699D02*
X345500D01*
X332700Y267799D02*
X345500D01*
X332700Y266899D02*
X345500D01*
X332700Y265999D02*
X345500D01*
X363300Y226699D02*
X376900D01*
X363300Y225799D02*
X376900D01*
X363300Y224899D02*
X376900D01*
X363300Y223999D02*
X376900D01*
X363300Y223099D02*
X376900D01*
X363300Y222199D02*
X376900D01*
X363300Y221299D02*
X376900D01*
X363300Y220399D02*
X376900D01*
X363300Y219499D02*
X376900D01*
X363300Y218599D02*
X376900D01*
X363300Y217699D02*
X376900D01*
X363300Y216799D02*
X376900D01*
X201496Y260837D02*
Y258587D01*
X208976Y246270D02*
Y244020D01*
Y239770D02*
Y242020D01*
X192990Y234890D02*
X195240D01*
X196240Y238390D02*
Y236140D01*
X220155Y252331D02*
X222405D01*
X200965Y238390D02*
Y236140D01*
X204215Y234890D02*
X201965D01*
X227029Y230025D02*
X224779D01*
X223779Y226525D02*
Y228775D01*
X220102Y246548D02*
X222352D01*
X356596Y219118D02*
X354346D01*
X285400Y246000D02*
Y243750D01*
X325340Y206967D02*
Y209217D01*
X356650Y213300D02*
X354400D01*
X248407Y228334D02*
Y230584D01*
X282862Y267879D02*
Y265629D01*
X274539Y264379D02*
X276789D01*
X277789Y267879D02*
Y265629D01*
X296018Y209478D02*
X298268D01*
X315115Y259700D02*
Y257450D01*
X292815Y317987D02*
Y320237D01*
Y324487D02*
Y322237D01*
X296315Y321237D02*
X294065D01*
X290600Y223400D02*
Y225650D01*
X361630Y279582D02*
Y277332D01*
X261850Y231900D02*
X259600D01*
X258600Y228400D02*
Y230650D01*
X253407Y228334D02*
Y230584D01*
X276578Y223389D02*
X274328D01*
X270702Y206290D02*
Y208540D01*
X265957Y206273D02*
Y208523D01*
X278752Y209790D02*
X276502D01*
X275502Y206290D02*
Y208540D01*
X261202Y206273D02*
Y208523D01*
X320115Y259700D02*
Y257450D01*
X323365Y256200D02*
X321115D01*
X283012Y296879D02*
X285262D01*
X287821Y302279D02*
Y300029D01*
X292630Y296879D02*
X290380D01*
X287821Y291479D02*
Y293729D01*
X277585Y318420D02*
Y316170D01*
X282394Y313021D02*
X280144D01*
X277585Y307621D02*
Y309871D01*
X227243Y314008D02*
X229493D01*
X257164D02*
X259414D01*
X257164Y316568D02*
X259414D01*
X267664D02*
X265414D01*
X282566Y292000D02*
Y289750D01*
X270854Y317408D02*
Y315158D01*
X246633Y334618D02*
Y332368D01*
X250133Y331368D02*
X247883D01*
X250133Y326568D02*
X247883D01*
X246633Y323318D02*
Y325568D01*
G54D37*
X229516Y146068D02*
G75*
G03X229516I-7250J0D01*
G01X213250Y146000D02*
G03X213250I-7250J0D01*
G01X196650D02*
G03X196650I-7250J0D01*
G01X358498Y244094D02*
G03X358498I-13045J0D01*
G01X383835Y238117D02*
G03X383408Y238305I-250J11D01*
G01X381138Y236035*
X378487Y234937D02*
G03X381138Y236035I-0J3750D01*
G01X378487Y234937D02*
X378149D01*
G03X377924Y234795I0J-250*
G01X376813Y242739D02*
G03X377924Y234795I-5426J-4809D01*
G01X376813Y242739D02*
G03X377250Y242905I187J166D01*
G01Y248848*
G03X376800Y248997I-250J-0*
G01X364854Y249464D02*
G03X376800Y248997I6133J3866D01*
G01X364854Y249464D02*
G03X364643Y249580I-211J-134D01*
G01X362212*
X359561Y250679D02*
G03X362212Y249580I2651J2651D01*
G01X359561Y250679D02*
X355238Y255001D01*
X354140Y257653D02*
G03X355238Y255001I3750J-0D01*
G01X354140Y257653D02*
Y265915D01*
X354439Y267382D02*
G03X354140Y265915I3451J-1467D01*
G01X354439Y267382D02*
G03X354459Y267480I-230J98D01*
G01Y268277*
X355584Y270226D02*
G03X354459Y268277I1125J-1949D01*
G01X355584Y270226D02*
G03Y270659I-125J217D01*
G01X354459Y272608D02*
G03X355584Y270659I2250J-0D01*
G01X354459Y272608D02*
Y277332D01*
X356709Y279582D02*
G03X354459Y277332I-0J-2250D01*
G01X356709Y279582D02*
X359071D01*
X359691Y279495D02*
G03X359071Y279582I-620J-2163D01*
G01X359691Y279495D02*
G03X359829I69J241D01*
G01X360449Y279582D02*
G03X359829Y279495I0J-2250D01*
G01X360449Y279582D02*
X362811D01*
X363431Y279495D02*
G03X362811Y279582I-620J-2163D01*
G01X363431Y279495D02*
G03X363569I69J241D01*
G01X364189Y279582D02*
G03X363569Y279495I0J-2250D01*
G01X364189Y279582D02*
X366551D01*
X368801Y277332D02*
G03X366551Y279582I-2250J0D01*
G01X368801Y277332D02*
Y272608D01*
X367676Y270659D02*
G03X368801Y272608I-1125J1949D01*
G01X367676Y270659D02*
G03Y270226I125J-216D01*
G01X368251Y269751D02*
G03X367676Y270226I-1700J-1474D01*
G01X368251Y269751D02*
G03X368440Y269665I189J164D01*
G01X373800*
X376452Y268567D02*
G03X373800Y269665I-2652J-2652D01*
G01X376452Y268567D02*
X382173Y262845D01*
G03X382597Y263058I177J177*
X342187Y340283I-130235J-18964*
X342017Y340350I-170J-183*
G01X207700*
G03X207450Y340100I0J-250*
G01Y334868*
G03X207700Y334618I250J0*
G01X241633*
X242883*
X244008Y334317D02*
G03X242883Y334618I-1125J-1949D01*
G01X244008Y334317D02*
G03X244258I125J216D01*
G01X245383Y334618D02*
G03X244258Y334317I0J-2250D01*
G01X245383Y334618D02*
X247883D01*
X250133Y332368D02*
G03X247883Y334618I-2250J0D01*
G01X250133Y332368D02*
Y330368D01*
X249747Y329108D02*
G03X250133Y330368I-1864J1260D01*
G01X249747Y329108D02*
G03Y328828I207J-140D01*
G01X250133Y327568D02*
G03X249747Y328828I-2250J0D01*
G01X250133Y327568D02*
Y325568D01*
X247883Y323318D02*
G03X250133Y325568I0J2250D01*
G01X247883Y323318D02*
X245383D01*
X244834Y323386D02*
G03X245383Y323318I549J2182D01*
G01X244834Y323386D02*
G03X244522Y323144I-62J-242D01*
G01Y319128*
Y317672*
X243629Y315516D02*
G03X244522Y317672I-2157J2156D01*
G01X243629Y315516D02*
X242524Y314411D01*
X240917Y313567D02*
G03X242524Y314411I-549J3001D01*
G01X240917Y313567D02*
G03X240748Y313192I45J-245D01*
G01X241116Y312353D02*
G03X240748Y313192I-3316J-953D01*
G01X241116Y312353D02*
G03X241305Y312177I240J69D01*
G01X243982Y309481D02*
G03X241305Y312177I-3382J-681D01*
G01X243982Y309481D02*
G03X244361Y309319I245J49D01*
G01X245920Y309839D02*
G03X244361Y309319I280J-3439D01*
G01X245920Y309839D02*
G03X246150Y310088I-20J249D01*
G01Y317200*
X246926Y319074D02*
G03X246150Y317200I1874J-1874D01*
G01X246926Y319074D02*
X248854Y321001D01*
X250728Y321778D02*
G03X248854Y321001I-0J-2650D01*
G01X250728Y321778D02*
X258834D01*
G03X258932Y321797I0J250*
G01X260064Y322028D02*
G03X258932Y321797I0J-2900D01*
G01X260064Y322028D02*
X264764D01*
X267414Y317949D02*
G03X264764Y322028I-2650J1179D01*
G01X267414Y317949D02*
G03Y317746I229J-101D01*
G01X267660Y316717D02*
G03X267414Y317746I-2896J-149D01*
G01X267660Y316717D02*
G03X268104Y316573I250J13D01*
G01X269854Y317408D02*
G03X268105Y316573I-0J-2250D01*
G01X269854Y317408D02*
X271854D01*
X272771Y317212D02*
G03X271854Y317408I-917J-2054D01*
G01X272771Y317212D02*
G03X273088Y317313I102J228D01*
G01X275026Y318420D02*
G03X273088Y317313I0J-2250D01*
G01X275026Y318420D02*
X280144D01*
X282394Y316170D02*
G03X280144Y318420I-2250J0D01*
G01X282394Y316170D02*
Y309871D01*
X280144Y307621D02*
G03X282394Y309871I0J2250D01*
G01X280144Y307621D02*
X275026D01*
X274414Y307706D02*
G03X275026Y307621I612J2165D01*
G01X274414Y307706D02*
G03X274097Y307485I-68J-241D01*
G01X274081Y307336D02*
G03X274097Y307485I-2227J322D01*
G01X274081Y307336D02*
G03X274328Y307050I247J-36D01*
G01X284199*
G03X284376Y307123I-0J250*
G01X284594Y307342*
G03X284502Y307754I-177J176*
G01X283012Y309871D02*
G03X284502Y307754I2250J0D01*
G01X283012Y309871D02*
Y316170D01*
X284734Y318357D02*
G03X283012Y316170I528J-2187D01*
G01X284734Y318357D02*
G03X284864Y318764I-59J243D01*
G01X284315Y320237D02*
G03X284864Y318764I2250J-0D01*
G01X284315Y320237D02*
Y322237D01*
X286565Y324487D02*
G03X284315Y322237I0J-2250D01*
G01X286565Y324487D02*
X289065D01*
X290190Y324185D02*
G03X289065Y324487I-1125J-1948D01*
G01X290190Y324185D02*
G03X290440I125J217D01*
G01X291565Y324487D02*
G03X290440Y324185I0J-2250D01*
G01X291565Y324487D02*
X294065D01*
X296315Y322237D02*
G03X294065Y324487I-2250J-0D01*
G01X296315Y322237D02*
Y320237D01*
X294065Y317986D02*
G03X296315Y320237I0J2251D01*
G01X294065Y317986D02*
X292329D01*
X292329D02*
G03X292134Y317580I0J-250D01*
G01X292630Y316170D02*
G03X292134Y317580I-2250J0D01*
G01X292630Y316170D02*
Y309871D01*
X290668Y307640D02*
G03X292630Y309871I-288J2231D01*
G01X290668Y307640D02*
G03X290450Y307392I32J-248D01*
G01Y306800*
X289674Y304926D02*
G03X290450Y306800I-1874J1874D01*
G01X289674Y304926D02*
X287453Y302705D01*
G03X287630Y302279I177J-176*
G01X290380*
X292630Y300029D02*
G03X290380Y302279I-2250J-0D01*
G01X292630Y300029D02*
Y293729D01*
X290380Y291479D02*
G03X292630Y293729I0J2250D01*
G01X290380Y291479D02*
X285831D01*
G03X285630Y291081I0J-250*
G01X286066Y289750D02*
G03X285630Y291081I-2250J-0D01*
G01X286066Y289750D02*
Y289500D01*
G03X286316Y289250I250J0*
G01X289950*
X292450Y286750D02*
G03X289950Y289250I-2500J0D01*
G01X292450Y286750D02*
Y276650D01*
X289950Y274150D02*
G03X292450Y276650I0J2500D01*
G01X289950Y274150D02*
X247500D01*
G03X247250Y273900I0J-250*
G01Y250784*
G03X247500Y250534I250J0*
G01X249407*
X250757Y250084D02*
G03X249407Y250534I-1350J-1800D01*
G01X250757Y250084D02*
G03X251057I150J200D01*
G01X252407Y250534D02*
G03X251057Y250084I-0J-2250D01*
G01X252407Y250534D02*
X254407D01*
X255847Y250013D02*
G03X254407Y250534I-1440J-1729D01*
G01X255847Y250013D02*
G03X256167I160J192D01*
G01X257607Y250534D02*
G03X256167Y250013I-0J-2250D01*
G01X257607Y250534D02*
X259607D01*
X261297Y249769D02*
G03X259607Y250534I-1690J-1485D01*
G01X261297Y249769D02*
G03X261485Y249684I188J165D01*
G01X262428*
X262747Y249665D02*
G03X262428Y249684I-319J-2631D01*
G01X262747Y249665D02*
G03X263026Y249899I30J248D01*
G01X265272Y252017D02*
G03X263026Y249899I0J-2250D01*
G01X265272Y252017D02*
X265620D01*
G03X265870Y252267I0J250*
G01Y255628*
G03X265558Y255870I-250J0*
G01X265000Y255800D02*
G03X265558Y255870I0J2250D01*
G01X265000Y255800D02*
X263000D01*
X260750Y258050D02*
G03X263000Y255800I2250J0D01*
G01X260750Y258050D02*
Y260550D01*
X261051Y261675D02*
G03X260750Y260550I1949J-1125D01*
G01X261051Y261675D02*
G03Y261925I-216J125D01*
G01X260750Y263050D02*
G03X261051Y261925I2250J0D01*
G01X260750Y263050D02*
Y265550D01*
X263000Y267800D02*
G03X260750Y265550I0J-2250D01*
G01X263000Y267800D02*
X265000D01*
X265469Y267751D02*
G03X265000Y267800I-469J-2201D01*
G01X265469Y267751D02*
G03X265770Y267968I52J244D01*
G01X272256Y265999D02*
G03X265770Y267968I-3056J1601D01*
G01X272256Y265999D02*
G03X272230Y265850I222J-116D01*
G01X272250Y265550D02*
G03X272230Y265850I-2250J0D01*
G01X272250Y265550D02*
Y263050D01*
X271949Y261925D02*
G03X272250Y263050I-1949J1125D01*
G01X271949Y261925D02*
G03Y261675I216J-125D01*
G01X272250Y260550D02*
G03X271949Y261675I-2250J0D01*
G01X272250Y260550D02*
Y260073D01*
G03X272677Y259897I250J0*
G01X274174Y261394*
X274685Y261799D02*
G03X274174Y261394I1504J-2420D01*
G01X274685Y261799D02*
G03X274777Y262123I-132J213D01*
G01X274539Y263129D02*
G03X274777Y262123I2250J-0D01*
G01X274539Y263129D02*
Y265629D01*
X276789Y267879D02*
G03X274539Y265629I0J-2250D01*
G01X276789Y267879D02*
X278789D01*
X280172Y267404D02*
G03X278789Y267879I-1383J-1775D01*
G01X280172Y267404D02*
G03X280479I154J197D01*
G01X281862Y267879D02*
G03X280479Y267404I-0J-2250D01*
G01X281862Y267879D02*
X283862D01*
X286112Y265629D02*
G03X283862Y267879I-2250J-0D01*
G01X286112Y265629D02*
Y264902D01*
G03X286539Y264725I250J-0*
G01X289029Y267215*
X291044Y268050D02*
G03X289029Y267215I0J-2850D01*
G01X291044Y268050D02*
X306049D01*
X308064Y267215D02*
G03X306049Y268050I-2015J-2015D01*
G01X308064Y267215D02*
X314015Y261264D01*
X314776Y259893D02*
G03X314015Y261264I-2776J-644D01*
G01X314776Y259893D02*
G03X315020Y259700I244J57D01*
G01X316115*
X317465Y259250D02*
G03X316115Y259700I-1350J-1800D01*
G01X317465Y259250D02*
G03X317765I150J200D01*
G01X319115Y259700D02*
G03X317765Y259250I0J-2250D01*
G01X319115Y259700D02*
X321115D01*
X323365Y257450D02*
G03X321115Y259700I-2250J-0D01*
G01X323365Y257450D02*
Y254950D01*
X323328Y254545D02*
G03X323365Y254950I-2213J405D01*
G01X323328Y254545D02*
G03X323574Y254250I246J-45D01*
G01X325964*
X328120Y253357D02*
G03X325964Y254250I-2156J-2157D01*
G01X328120Y253357D02*
X330720Y250757D01*
X331614Y248600D02*
G03X330720Y250757I-3050J0D01*
G01X331614Y248600D02*
Y228513D01*
G03X331714Y228313I250J-0*
G01X332764Y227263D02*
G03X331714Y228313I-4200J-3150D01*
G01X332764Y227263D02*
G03X332964Y227163I200J150D01*
G01X338278*
G03X338292I-0J250*
G01X338472Y227168D02*
G03X338292Y227163I0J-3050D01*
G01X338472Y227168D02*
X344375D01*
X346000*
X346022D02*
G03X346000I-22J-3050D01*
G01X346022D02*
X346192Y227167D01*
G03X346334Y227210I2J250*
G01X347600Y227600D02*
G03X346335Y227210I0J-2250D01*
G01X347600Y227600D02*
X349600D01*
X350823Y227238D02*
G03X349600Y227600I-1223J-1888D01*
G01X350823Y227238D02*
G03X351098Y227240I136J210D01*
G01X352346Y227618D02*
G03X351098Y227240I-0J-2250D01*
G01X352346Y227618D02*
X354346D01*
X356596Y225368D02*
G03X354346Y227618I-2250J-0D01*
G01X356596Y225368D02*
Y222868D01*
X356295Y221743D02*
G03X356596Y222868I-1949J1125D01*
G01X356295Y221743D02*
G03Y221493I216J-125D01*
G01X356596Y220368D02*
G03X356295Y221493I-2250J-0D01*
G01X356596Y220368D02*
Y217868D01*
X356053Y216402D02*
G03X356596Y217868I-1707J1466D01*
G01X356053Y216402D02*
G03X356059Y216070I190J-163D01*
G01X356650Y214550D02*
G03X356059Y216070I-2250J0D01*
G01X356650Y214550D02*
Y212050D01*
X356349Y210925D02*
G03X356650Y212050I-1949J1125D01*
G01X356349Y210925D02*
G03Y210675I216J-125D01*
G01X356650Y209550D02*
G03X356349Y210675I-2250J0D01*
G01X356650Y209550D02*
Y208977D01*
G03X356656Y208923I250J0*
G01Y207525D02*
G03Y208923I-3174J699D01*
G01Y207525D02*
G03X356650Y207471I244J-54D01*
G01Y207050*
Y202800*
X355698Y200502D02*
G03X356650Y202800I-2298J2298D01*
G01X355698Y200502D02*
X354298Y199102D01*
X352000Y198150D02*
G03X354298Y199102I0J3250D01*
G01X352000Y198150D02*
X311266D01*
G03X311018Y197934I0J-250*
G01X310304Y196257D02*
G03X311018Y197934I-2704J2143D01*
G01X310304Y196257D02*
G03X310250Y196102I196J-155D01*
G01Y179003*
X309474Y177129D02*
G03X310250Y179003I-1874J1874D01*
G01X309474Y177129D02*
X308669Y176324D01*
G03X308613Y176057I177J-176*
G01X302712Y176963D02*
G03X308613Y176057I2688J-2163D01*
G01X302712Y176963D02*
G03X302766Y177092I-195J157D01*
G01X303526Y178677D02*
G03X302766Y177092I1874J-1874D01*
G01X303526Y178677D02*
X304877Y180027D01*
G03X304950Y180204I-177J177*
G01Y196102*
G03X304896Y196257I-250J0*
G01X304182Y197934D02*
G03X304896Y196257I3418J466D01*
G01X304182Y197934D02*
G03X303934Y198150I-248J-34D01*
G01X278621*
G03X278371Y197900I-0J-250*
G01Y180700*
G03X278621Y180450I250J0*
G01X278838*
G03X279037Y180548I0J250*
G01X280820Y181426D02*
G03X279037Y180548I0J-2250D01*
G01X280820Y181426D02*
X284420D01*
X286670Y179176D02*
G03X284420Y181426I-2250J0D01*
G01X286670Y179176D02*
Y177619D01*
G03X287040Y177400I250J0*
G01X288120Y177676D02*
G03X287040Y177400I0J-2250D01*
G01X288120Y177676D02*
X293120D01*
X295370Y175426D02*
G03X293120Y177676I-2250J0D01*
G01X295370Y175426D02*
Y171826D01*
X295129Y170813D02*
G03X295370Y171826I-2009J1013D01*
G01X295129Y170813D02*
G03X295352Y170450I223J-113D01*
G01X307780*
G03X307917Y170491I0J250*
G01Y164709D02*
G03Y170491I1883J2891D01*
G01Y164709D02*
G03X307780Y164750I-137J-209D01*
G01X295698*
G03X295448Y164491I0J-250*
G01X295450Y164400D02*
G03X295448Y164491I-2650J0D01*
G01X295450Y164400D02*
Y141298D01*
G03X295504Y141143I250J-0*
G01X290096D02*
G03X295504I2704J-2143D01*
G01X290096D02*
G03X290150Y141298I-196J155D01*
G01Y163199*
G03X290077Y163376I-250J-0*
G01X289776Y163677*
G03X289599Y163750I-177J-177*
G01X236800*
X234926Y164526D02*
G03X236800Y163750I1874J1874D01*
G01X234926Y164526D02*
X234126Y165326D01*
X233350Y167200D02*
G03X234126Y165326I2650J0D01*
G01X233350Y167200D02*
Y169102D01*
G03X233296Y169257I-250J0*
G01X232550Y171410D02*
G03X233296Y169257I3450J-10D01*
G01X232550Y171410D02*
Y171411D01*
G03X232361Y171654I-250J0*
G01X235422Y177639D02*
G03X232361Y171654I-2222J-2639D01*
G01X235422Y177639D02*
G03X235583Y177581I161J192D01*
G01X237669*
X238954Y177248D02*
G03X237669Y177581I-1285J-2317D01*
G01X238954Y177248D02*
G03X239288Y177335I121J219D01*
G01X241200Y178400D02*
G03X239288Y177335I0J-2250D01*
G01X241200Y178400D02*
X243200D01*
X244631Y177886D02*
G03X243200Y178400I-1431J-1736D01*
G01X244631Y177886D02*
G03X244948Y177885I159J193D01*
G01X246367Y178389D02*
G03X244948Y177885I0J-2250D01*
G01X246367Y178389D02*
X248367D01*
X249765Y177902D02*
G03X248367Y178389I-1398J-1763D01*
G01X249765Y177902D02*
G03X250170Y178098I155J196D01*
G01Y179176*
X252420Y181426D02*
G03X250170Y179176I0J-2250D01*
G01X252420Y181426D02*
X256020D01*
X258270Y179176D02*
G03X256020Y181426I-2250J0D01*
G01X258270Y179176D02*
Y177619D01*
G03X258640Y177400I250J0*
G01X259639Y177675D02*
G03X258640Y177400I81J-2249D01*
G01X259639Y177675D02*
G03X259853Y177812I-9J250D01*
G01X260346Y178494D02*
G03X259853Y177812I1874J-1874D01*
G01X260346Y178494D02*
X261104Y179252D01*
X262978Y180028D02*
G03X261104Y179252I-0J-2650D01*
G01X262978Y180028D02*
X267043D01*
G03X267231Y180113I-0J250*
G01X268921Y180878D02*
G03X267231Y180113I-0J-2250D01*
G01X268921Y180878D02*
X270921D01*
X271551Y180788D02*
G03X270921Y180878I-630J-2160D01*
G01X271551Y180788D02*
G03X271871Y181028I70J240D01*
G01Y197900*
G03X271621Y198150I-250J-0*
G01X260789*
G03X260546Y197961I-0J-250*
G01X260464Y197681D02*
G03X260546Y197961I-3264J1119D01*
G01X260464Y197681D02*
G03X260450Y197600I236J-81D01*
G01Y197400*
G03X260464Y197319I250J0*
G01Y195081D02*
G03Y197319I-3264J1119D01*
G01Y195081D02*
G03X260450Y195000I236J-81D01*
G01Y194800*
G03X260464Y194719I250J0*
G01X253936D02*
G03X260464I3264J-1119D01*
G01X253936D02*
G03X253950Y194800I-236J81D01*
G01Y195000*
G03X253936Y195081I-250J-0*
G01Y197319D02*
G03Y195081I3264J-1119D01*
G01Y197319D02*
G03X253950Y197400I-236J81D01*
G01Y197600*
G03X253936Y197681I-250J-0*
G01Y199919D02*
G03Y197681I3264J-1119D01*
G01Y199919D02*
G03X253950Y200000I-236J81D01*
G01Y201400*
Y213773*
X254902Y216071D02*
G03X253950Y213773I2298J-2298D01*
G01X254902Y216071D02*
X255902Y217071D01*
X258200Y218023D02*
G03X255902Y217071I0J-3250D01*
G01X258200Y218023D02*
X259112D01*
G03X259221Y218048I0J250*
G01X260202Y218273D02*
G03X259221Y218048I0J-2250D01*
G01X260202Y218273D02*
X262202D01*
X262793Y218194D02*
G03X262202Y218273I-591J-2171D01*
G01X262793Y218194D02*
G03X263109Y218426I66J241D01*
G01X263111Y218476D02*
G03X263109Y218426I2846J-150D01*
G01X263111Y218476D02*
G03Y218490I-250J14D01*
G01Y220574*
G03X263104Y220633I-250J0*
G01X263022Y221322D02*
G03X263104Y220633I2939J0D01*
G01X263022Y221322D02*
Y224904D01*
G03X262761Y225154I-250J-0*
G01X259176Y228180D02*
G03X262761Y225154I3424J420D01*
G01X259176Y228180D02*
G03X258927Y228400I-249J-30D01*
G01X257600*
X256198Y228890D02*
G03X257600Y228400I1402J1760D01*
G01X256198Y228890D02*
G03X255879Y228883I-155J-196D01*
G01X254407Y228334D02*
G03X255879Y228883I-0J2250D01*
G01X254407Y228334D02*
X252407D01*
X251057Y228784D02*
G03X252407Y228334I1350J1800D01*
G01X251057Y228784D02*
G03X250757I-150J-200D01*
G01X249407Y228334D02*
G03X250757Y228784I-0J2250D01*
G01X249407Y228334D02*
X247500D01*
G03X247250Y228084I0J-250*
G01Y199850*
X244750Y197350D02*
G03X247250Y199850I0J2500D01*
G01X244750Y197350D02*
X214500D01*
G03X214250Y197100I0J-250*
G01Y192250*
X211750Y189750D02*
G03X214250Y192250I0J2500D01*
G01X211750Y189750D02*
X206900D01*
G03X206650Y189500I0J-250*
G01Y181650*
X206105Y180091D02*
G03X206650Y181650I-1955J1559D01*
G01X206105Y180091D02*
G03X206050Y179935I195J-156D01*
G01Y179550*
X205578*
G03X205448Y179514I0J-250*
G01X204150Y179150D02*
G03X205448Y179514I0J2500D01*
G01X204150Y179150D02*
X184250D01*
X182952Y179514D02*
G03X184250Y179150I1298J2136D01*
G01X182952Y179514D02*
G03X182822Y179550I-130J-214D01*
G01X180150*
Y225818*
G03X180001Y226046I-250J-0*
G01X179517Y226309D02*
G03X180001Y226046I1883J2891D01*
G01X179517Y226309D02*
G03X179380Y226350I-137J-209D01*
G01X122242*
G03X121995Y226066I0J-250*
X383835Y238117I130367J18028*
G01X238422Y322428D02*
Y324401D01*
G03X238393Y324518I-250J-0*
G01X238133Y325568D02*
G03X238393Y324518I2250J0D01*
G01X238133Y325568D02*
Y327568D01*
X238149Y327838D02*
G03X238133Y327568I2234J-270D01*
G01X238149Y327838D02*
G03X237901Y328118I-248J30D01*
G01X207700*
G03X207450Y327868I0J-250*
G01Y297100*
G03X207700Y296850I250J0*
G01X227160*
G03X227397Y297020I0J250*
G01X227493Y297266D02*
G03X227397Y297020I2650J-1178D01*
G01X227493Y297266D02*
G03Y297469I-228J102D01*
G01Y299826D02*
G03Y297469I2650J-1178D01*
G01Y299826D02*
G03Y300029I-228J102D01*
G01Y302386D02*
G03Y300029I2650J-1178D01*
G01Y302386D02*
G03Y302589I-228J102D01*
G01Y304946D02*
G03Y302589I2650J-1178D01*
G01Y304946D02*
G03Y305149I-228J102D01*
G01Y307506D02*
G03Y305149I2650J-1178D01*
G01Y307506D02*
G03Y307709I-228J102D01*
G01Y310066D02*
G03Y307709I2650J-1178D01*
G01Y310066D02*
G03Y310269I-228J102D01*
G01Y312626D02*
G03Y310269I2650J-1178D01*
G01Y312626D02*
G03Y312829I-228J102D01*
G01Y315186D02*
G03Y312829I2650J-1178D01*
G01Y315186D02*
G03Y315389I-228J102D01*
G01Y317746D02*
G03Y315389I2650J-1178D01*
G01Y317746D02*
G03Y317949I-228J102D01*
G01X230143Y322028D02*
G03X227493Y317949I0J-2900D01*
G01X230143Y322028D02*
X231509D01*
G03X231584Y322039I0J250*
G01X232493Y322178D02*
G03X231584Y322039I0J-3050D01*
G01X232493Y322178D02*
X238172D01*
G03X238422Y322428I0J250*
G01X257415Y315186D02*
G03Y315389I-229J102D01*
G01X257181Y316255D02*
G03X257415Y315389I2883J313D01*
G01X257181Y316255D02*
G03X256933Y316478I-248J-27D01*
G01X251929*
G03X251752Y316404I-0J-250*
G01X251523Y316176*
G03X251450Y315999I177J-177*
G01Y308941*
G03X251808Y308715I250J-0*
G01X252958Y308978D02*
G03X251808Y308715I-0J-2650D01*
G01X252958Y308978D02*
X256933D01*
G03X257181Y309201I-0J250*
G01X257415Y310066D02*
G03X257181Y309201I2649J-1178D01*
G01X257415Y310066D02*
G03Y310269I-229J102D01*
G01Y312626D02*
G03Y310269I2649J-1178D01*
G01Y312626D02*
G03Y312829I-229J102D01*
G01Y315186D02*
G03Y312829I2649J-1178D01*
G01X283247Y292000D02*
G03X283449Y292398I0J250D01*
G01X283012Y293729D02*
G03X283449Y292398I2250J0D01*
G01X283012Y293729D02*
Y300029D01*
X283443Y301353D02*
G03X283012Y300029I1819J-1324D01*
G01X283443Y301353D02*
G03X283241Y301750I-202J147D01*
G01X282165*
G03X281963Y301353I0J-250*
G01X282394Y300029D02*
G03X281963Y301353I-2250J-0D01*
G01X282394Y300029D02*
Y293729D01*
X281958Y292398D02*
G03X282394Y293729I-1814J1331D01*
G01X281958Y292398D02*
G03X282159Y292000I201J-148D01*
G01X283247*
X274563Y291161D02*
G03X274434Y291559I-195J157D01*
G01X272776Y293729D02*
G03X274434Y291559I2250J0D01*
G01X272776Y293729D02*
Y295748D01*
G03X272526Y295998I-250J-0*
G01X267896*
G03X267647Y295775I-0J-250*
G01X264764Y293188D02*
G03X267647Y295775I0J2900D01*
G01X264764Y293188D02*
X260064D01*
X257415Y297266D02*
G03X260064Y293188I2649J-1178D01*
G01X257415Y297266D02*
G03Y297469I-229J102D01*
G01Y299826D02*
G03Y297469I2649J-1178D01*
G01Y299826D02*
G03Y300029I-229J102D01*
G01X257181Y300895D02*
G03X257415Y300029I2883J313D01*
G01X257181Y300895D02*
G03X256933Y301118I-248J-27D01*
G01X254993*
G03X254743Y300868I0J-250*
G01Y298093*
X253967Y296219D02*
G03X254743Y298093I-1874J1874D01*
G01X253967Y296219D02*
X248474Y290726D01*
X246600Y289950D02*
G03X248474Y290726I0J2650D01*
G01X246600Y289950D02*
X207700D01*
G03X207450Y289700I0J-250*
G01Y289500*
G03X207700Y289250I250J0*
G01X273816*
G03X274066Y289500I-0J250*
G01Y289750*
X274563Y291161D02*
G03X274066Y289750I1753J-1411D01*
G01X296511Y206450D02*
G03X296687Y206878I-0J250D01*
G01X296018Y208478D02*
G03X296687Y206878I2250J0D01*
G01X296018Y208478D02*
Y210478D01*
X296363Y211675D02*
G03X296018Y210478I1905J-1197D01*
G01X296363Y211675D02*
G03X296362Y211942I-212J133D01*
G01X296218Y212207D02*
G03X296362Y211942I2045J938D01*
G01X296218Y212207D02*
G03X295911Y212339I-227J-105D01*
G01X295000Y212190D02*
G03X295911Y212339I0J2850D01*
G01X295000Y212190D02*
X291708D01*
G03X291474Y211852I-0J-250*
G01X290756Y206850D02*
G03X291474Y211852I-4197J3155D01*
G01X290756Y206850D02*
G03X290955Y206450I199J-150D01*
G01X296511*
X283909Y204900D02*
Y205332D01*
G03X283791Y205544I-250J-0*
G01X281645Y211852D02*
G03X283791Y205544I4914J-1847D01*
G01X281645Y211852D02*
G03X281411Y212190I-234J88D01*
G01X278834*
G03X278601Y211850I-0J-250*
G01X278752Y211040D02*
G03X278601Y211850I-2250J-0D01*
G01X278752Y211040D02*
Y208540D01*
X276502Y206290D02*
G03X278752Y208540I-0J2250D01*
G01X276502Y206290D02*
X274502D01*
X273242Y206676D02*
G03X274502Y206290I1260J1864D01*
G01X273242Y206676D02*
G03X272962I-140J-207D01*
G01X271702Y206290D02*
G03X272962Y206676I-0J2250D01*
G01X271702Y206290D02*
X269702D01*
X268478Y206651D02*
G03X269702Y206290I1224J1889D01*
G01X268478Y206651D02*
G03X268204Y206650I-136J-209D01*
G01X266957Y206273D02*
G03X268204Y206650I0J2250D01*
G01X266957Y206273D02*
X264957D01*
X263717Y206645D02*
G03X264957Y206273I1240J1878D01*
G01X263717Y206645D02*
G03X263442I-137J-209D01*
G01X262202Y206273D02*
G03X263442Y206645I0J2250D01*
G01X262202Y206273D02*
X260700D01*
G03X260450Y206023I0J-250*
G01Y204900*
G03X260700Y204650I250J0*
G01X275400*
X275493Y204649D02*
G03X275400Y204650I-93J-3249D01*
G01X275493Y204649D02*
G03X275507I7J250D01*
G01X275600Y204650D02*
G03X275507Y204649I0J-3250D01*
G01X275600Y204650D02*
X283659D01*
G03X283909Y204900I0J250*
G01X293911Y218140D02*
Y220774D01*
G03X293904Y220833I-250J0*
G01X293822Y221522D02*
G03X293904Y220833I2939J0D01*
G01X293822Y221522D02*
Y224114D01*
G03X293375Y224267I-250J-0*
G01X291600Y223400D02*
G03X293375Y224267I0J2250D01*
G01X291600Y223400D02*
X289600D01*
X288250Y223850D02*
G03X289600Y223400I1350J1800D01*
G01X288250Y223850D02*
G03X287950I-150J-200D01*
G01X286600Y223400D02*
G03X287950Y223850I0J2250D01*
G01X286600Y223400D02*
X284600D01*
X283250Y223850D02*
G03X284600Y223400I1350J1800D01*
G01X283250Y223850D02*
G03X282950I-150J-200D01*
G01X281600Y223400D02*
G03X282950Y223850I0J2250D01*
G01X281600Y223400D02*
X279600D01*
X277654Y224521D02*
G03X279600Y223400I1946J1129D01*
G01X277654Y224521D02*
G03X277563Y224612I-217J-125D01*
G01X277026Y225026D02*
G03X277563Y224612I1874J1874D01*
G01X277026Y225026D02*
X277004Y225048D01*
G03X276578Y224871I-176J-177*
G01Y221322*
X275075Y218758D02*
G03X276578Y221322I-1436J2564D01*
G01X275075Y218758D02*
G03X275197Y218290I122J-218D01*
G01X276502*
X277722Y217930D02*
G03X276502Y218290I-1220J-1890D01*
G01X277722Y217930D02*
G03X277858Y217890I136J210D01*
G01X293661*
G03X293911Y218140I0J250*
G01X286161Y252000D02*
Y255097D01*
G03X286076Y255285I-250J0*
G01X285473Y256137D02*
G03X286076Y255285I2088J839D01*
G01X285473Y256137D02*
G03X285103Y256252I-232J-93D01*
G01X283862Y255879D02*
G03X285103Y256252I-0J2250D01*
G01X283862Y255879D02*
X281862D01*
X280574Y256284D02*
G03X281862Y255879I1288J1845D01*
G01X280574Y256284D02*
G03X280431Y256329I-143J-205D01*
G01X280220*
G03X280077Y256284I0J-250*
G01X278789Y255879D02*
G03X280077Y256284I0J2250D01*
G01X278789Y255879D02*
X276824D01*
G03X276647Y255805I-0J-250*
G01X276562Y255721*
G03X276489Y255544I177J-177*
G01Y249826*
G03X276496Y249767I250J0*
G01X276578Y249078D02*
G03X276496Y249767I-2939J-0D01*
G01X276578Y249078D02*
Y244944D01*
X273434Y242012D02*
G03X276578Y244944I205J2932D01*
G01X273434Y242012D02*
G03X273215Y241911I-17J-249D01*
G01X272953Y241606D02*
G03X273215Y241911I-1873J1874D01*
G01X272953Y241606D02*
X271674Y240326D01*
X269800Y239550D02*
G03X271674Y240326I0J2650D01*
G01X269800Y239550D02*
X261820D01*
G03X261598Y239185I-0J-250*
G01X261850Y238150D02*
G03X261598Y239185I-2250J0D01*
G01X261850Y238150D02*
Y235650D01*
X261549Y234525D02*
G03X261850Y235650I-1949J1125D01*
G01X261549Y234525D02*
G03Y234275I216J-125D01*
G01X261850Y233150D02*
G03X261549Y234275I-2250J0D01*
G01X261850Y233150D02*
Y232266D01*
G03X262134Y232018I250J0*
G01X264743Y231304D02*
G03X262134Y232018I-2143J-2704D01*
G01X264743Y231304D02*
G03X264898Y231250I155J196D01*
G01X275500*
G03X275750Y231500I-0J250*
G01Y237000*
X276526Y238874D02*
G03X275750Y237000I1874J-1874D01*
G01X276526Y238874D02*
X277026Y239374D01*
X277560Y239786D02*
G03X277026Y239374I1340J-2286D01*
G01X277560Y239786D02*
G03X277650Y240127I-126J216D01*
G01X277350Y241250D02*
G03X277650Y240127I2250J0D01*
G01X277350Y241250D02*
Y243750D01*
X279600Y246000D02*
G03X277350Y243750I0J-2250D01*
G01X279600Y246000D02*
X281600D01*
X282860Y245614D02*
G03X281600Y246000I-1260J-1864D01*
G01X282860Y245614D02*
G03X283140I140J207D01*
G01X284400Y246000D02*
G03X283140Y245614I0J-2250D01*
G01X284400Y246000D02*
X285911D01*
G03X286161Y246250I-0J250*
G01Y252000*
X342393Y206450D02*
G03X342570Y206877I-0J250D01*
G01X341149Y208297*
G03X340748Y208230I-177J-176*
G01X338726Y206967D02*
G03X340748Y208230I-0J2250D01*
G01X338726Y206967D02*
X334001D01*
X332668Y207404D02*
G03X334001Y206967I1333J1813D01*
G01X332668Y207404D02*
G03X332520Y207453I-148J-201D01*
G01X332097*
X330224Y208229D02*
G03X332097Y207453I1873J1874D01*
G01X330224Y208229D02*
X330135Y208317D01*
G03X329733Y208248I-177J-177*
G01X327702Y206967D02*
G03X329733Y208248I0J2250D01*
G01X327702Y206967D02*
X322978D01*
X321198Y207840D02*
G03X322978Y206967I1780J1377D01*
G01X321198Y207840D02*
G03X320750Y207687I-198J-153D01*
G01Y206700*
G03X321000Y206450I250J0*
G01X342393*
X243550Y244934D02*
Y248154D01*
G03X243158Y248359I-250J-0*
G01X238240Y249428D02*
G03X243158Y248359I2960J1772D01*
G01X238240Y249428D02*
G03X238025Y249550I-215J-128D01*
G01X229300*
G03X229050Y249300I0J-250*
G01Y242600*
X228274Y240726D02*
G03X229050Y242600I-1874J1874D01*
G01X228274Y240726D02*
X226874Y239326D01*
X226016Y238752D02*
G03X226874Y239326I-1016J2448D01*
G01X226016Y238752D02*
G03X225935Y238699I95J-231D01*
G01X225860Y238627D02*
G03X225935Y238699I-1508J1671D01*
G01X225860Y238627D02*
G03X225902Y238225I167J-185D01*
G01X226469Y237761D02*
G03X225902Y238225I-1690J-1486D01*
G01X226469Y237761D02*
G03X226657Y237676I188J165D01*
G01X234775*
X236648Y236899D02*
G03X234775Y237676I-1873J-1874D01*
G01X236648Y236899D02*
X237649Y235899D01*
G03X237797Y235827I177J176*
G01X233973Y232003D02*
G03X237797Y235827I3427J397D01*
G01X233973Y232003D02*
G03X233901Y232151I-248J-29D01*
G01X233750Y232302*
G03X233573Y232375I-177J-177*
G01X227130*
G03X226895Y232040I-0J-250*
G01X227029Y231275D02*
G03X226895Y232040I-2250J0D01*
G01X227029Y231275D02*
Y228775D01*
X224779Y226525D02*
G03X227029Y228775I-0J2250D01*
G01X224779Y226525D02*
X222779D01*
X221865Y226720D02*
G03X222779Y226525I914J2055D01*
G01X221865Y226720D02*
G03X221513Y226491I-102J-229D01*
G01Y218047*
G03X221603Y217855I250J0*
G01X216195Y216477D02*
G03X221603Y217855I3205J-1277D01*
G01X216195Y216477D02*
G03X216213Y216570I-232J93D01*
G01Y227157*
G03X216153Y227320I-250J0*
G01X215681Y228232D02*
G03X216153Y227320I2182J550D01*
G01X215681Y228232D02*
G03X215193Y228217I-242J-61D01*
G01X212982Y226384D02*
G03X215193Y228217I0J2250D01*
G01X212982Y226384D02*
X210482D01*
X210134Y226411D02*
G03X210482Y226384I348J2223D01*
G01X210134Y226411D02*
G03X209855Y226233I-38J-247D01*
G01X209030Y224834D02*
G03X209855Y226233I-2298J2298D01*
G01X209030Y224834D02*
X207698Y223502D01*
X205400Y222550D02*
G03X207698Y223502I0J3250D01*
G01X205400Y222550D02*
X188650D01*
G03X188473Y222477I-0J-250*
G01X188323Y222327*
G03X188250Y222150I177J-177*
G01Y219800*
G03X188264Y219719I250J0*
G01Y217481D02*
G03Y219719I-3264J1119D01*
G01Y217481D02*
G03Y217319I236J-81D01*
G01Y215081D02*
G03Y217319I-3264J1119D01*
G01Y215081D02*
G03Y214919I236J-81D01*
G01X184534Y210382D02*
G03X188264Y214919I466J3418D01*
G01X184534Y210382D02*
G03X184250Y210134I-34J-248D01*
G01Y182300*
G03X184500Y182050I250J0*
G01X203300*
G03X203550Y182300I-0J250*
G01Y190950*
X206050Y193450D02*
G03X203550Y190950I0J-2500D01*
G01X206050Y193450D02*
X210100D01*
G03X210350Y193700I-0J250*
G01Y198750*
X212850Y201250D02*
G03X210350Y198750I0J-2500D01*
G01X212850Y201250D02*
X243300D01*
G03X243550Y201500I-0J250*
G01Y239134*
G03X243300Y239384I-250J0*
G01X241072*
G03X240932Y239342I-0J-250*
G01X241324Y244750D02*
G03X240932Y239342I-2324J-2550D01*
G01X241324Y244750D02*
G03X241493Y244684I169J184D01*
G01X243300*
G03X243550Y244934I-0J250*
G01X288550Y278100D02*
Y284900D01*
G03X288300Y285150I-250J-0*
G01X263073*
G03X262960Y285123I0J-250*
G01X259840D02*
G03X262960I1560J3077D01*
G01X259840D02*
G03X259727Y285150I-113J-223D01*
G01X206450*
X203950Y287650D02*
G03X206450Y285150I2500J0D01*
G01X203950Y287650D02*
Y289700D01*
G03X203700Y289950I-250J-0*
G01X172401*
G03X172224Y289877I0J-250*
G01X171723Y289376*
G03X171650Y289199I177J-177*
G01Y284098*
G03X171704Y283943I250J-0*
G01X165748Y280648D02*
G03X171704Y283943I3252J1152D01*
G01X165748Y280648D02*
G03X165559Y280810I-236J-84D01*
G01X163496Y286343D02*
G03X165559Y280810I2704J-2143D01*
G01X163496Y286343D02*
G03X163550Y286498I-196J155D01*
G01Y289863*
X164326Y291737D02*
G03X163550Y289863I1874J-1874D01*
G01X164326Y291737D02*
X164853Y292263D01*
G03X164806Y292653I-177J177*
G01X165527Y298879D02*
G03X164806Y292653I1073J-3279D01*
G01X165527Y298879D02*
G03X165627Y298940I-77J238D01*
G01X168843Y302157*
X171000Y303050D02*
G03X168843Y302157I0J-3050D01*
G01X171000Y303050D02*
X203700D01*
G03X203950Y303300I-0J250*
G01Y327868*
G03X203700Y328118I-250J0*
G01X193250*
G03X193073Y328045I-0J-250*
G01X193051Y328023*
G03X192977Y327846I176J-177*
G01Y323003*
G03X193068Y322810I250J-0*
G01X193485Y322426D02*
G03X193068Y322810I-3758J-3666D01*
G01X193485Y322426D02*
G03X193843I179J175D01*
G01Y315094D02*
G03Y322426I3758J3666D01*
G01Y315094D02*
G03X193485I-179J-174D01*
G01X185969D02*
G03X193485I3758J3666D01*
G01X185969D02*
G03X185611I-179J-174D01*
G01X178095D02*
G03X185611I3758J3666D01*
G01X178095D02*
G03X177737I-179J-174D01*
G01Y322426D02*
G03Y315094I-3758J-3666D01*
G01Y322426D02*
G03X178095I179J175D01*
G01X185611D02*
G03X178095I-3758J-3666D01*
G01X185611D02*
G03X185969I179J175D01*
G01X186386Y322810D02*
G03X185969Y322426I3341J-4050D01*
G01X186386Y322810D02*
G03X186477Y323003I-159J193D01*
G01Y329296*
X187429Y331594D02*
G03X186477Y329296I2298J-2298D01*
G01X187429Y331594D02*
X189502Y333666D01*
X191800Y334618D02*
G03X189502Y333666I0J-3250D01*
G01X191800Y334618D02*
X203700D01*
G03X203950Y334868I-0J250*
G01Y340350*
X203970Y340668D02*
G03X203950Y340350I2480J-318D01*
G01X203970Y340668D02*
G03X203722Y340950I-248J32D01*
G01X163355*
G03X163185Y340884I-0J-250*
X121525Y229873I89177J-96790*
X121773Y229650I248J27*
G01X177767*
G03X178012Y229853I-0J250*
G01X182235Y232547D02*
G03X178012Y229853I-835J-3347D01*
G01X182235Y232547D02*
G03X182295Y232540I60J243D01*
G01X192889*
G03X193124Y232875I0J250*
G01X192990Y233640D02*
G03X193124Y232875I2250J0D01*
G01X192990Y233640D02*
Y236140D01*
X195240Y238390D02*
G03X192990Y236140I0J-2250D01*
G01X195240Y238390D02*
X197240D01*
X198466Y238027D02*
G03X197240Y238390I-1226J-1887D01*
G01X198466Y238027D02*
G03X198739I136J209D01*
G01X199965Y238390D02*
G03X198739Y238027I-0J-2250D01*
G01X199965Y238390D02*
X201965D01*
X204215Y236140D02*
G03X201965Y238390I-2250J0D01*
G01X204215Y236140D02*
Y234900D01*
G03X204465Y234650I250J0*
G01X208975*
G03X209213Y234822I0J250*
G01X209858Y235874D02*
G03X209213Y234822I1874J-1874D01*
G01X209858Y235874D02*
X210890Y236906D01*
X212340Y237648D02*
G03X210890Y236906I424J-2616D01*
G01X212340Y237648D02*
G03X212550Y237895I-40J247D01*
G01Y240624*
G03X212093Y240763I-250J-0*
G01X210226Y239770D02*
G03X212093Y240763I0J2250D01*
G01X210226Y239770D02*
X207726D01*
X206601Y240071D02*
G03X207726Y239770I1125J1949D01*
G01X206601Y240071D02*
G03X206351I-125J-216D01*
G01X205226Y239770D02*
G03X206351Y240071I0J2250D01*
G01X205226Y239770D02*
X202726D01*
X201264Y240310D02*
G03X202726Y239770I1462J1710D01*
G01X201264Y240310D02*
G03X201102Y240370I-162J-190D01*
G01X185699*
G03X185449Y240125I0J-250*
G01X179298Y242345D02*
G03X185449Y240125I2702J-2145D01*
G01X179298Y242345D02*
G03X179102Y242750I-196J155D01*
G01X176898*
G03X176743Y242696I-0J-250*
G01X172601Y242588D02*
G03X176743Y242696I1999J2812D01*
G01X172601Y242588D02*
G03X172209Y242416I-145J-204D01*
G01X171738Y247936D02*
G03X172209Y242416I-12466J-3842D01*
G01X171738Y247936D02*
G03X172155Y247834I239J74D01*
G01X176743Y248104D02*
G03X172155Y247834I-2143J-2704D01*
G01X176743Y248104D02*
G03X176898Y248050I155J196D01*
G01X179102*
G03X179257Y248104I0J250*
G01X184816Y245885D02*
G03X179257Y248104I-3416J-485D01*
G01X184816Y245885D02*
G03X185063Y245670I247J35D01*
G01X201102*
G03X201264Y245730I-0J250*
G01X202726Y246270D02*
G03X201264Y245730I0J-2250D01*
G01X202726Y246270D02*
X205226D01*
X206351Y245969D02*
G03X205226Y246270I-1125J-1949D01*
G01X206351Y245969D02*
G03X206601I125J216D01*
G01X207726Y246270D02*
G03X206601Y245969I0J-2250D01*
G01X207726Y246270D02*
X210226D01*
X212093Y245277D02*
G03X210226Y246270I-1867J-1257D01*
G01X212093Y245277D02*
G03X212550Y245416I207J139D01*
G01Y252300*
G03X212300Y252550I-250J-0*
G01X197096*
X195222Y253326D02*
G03X197096Y252550I1874J1874D01*
G01X195222Y253326D02*
X194622Y253926D01*
X194142Y254582D02*
G03X194622Y253926I2354J1218D01*
G01X194142Y254582D02*
G03X194053Y254679I-222J-115D01*
G01X192996Y256587D02*
G03X194053Y254679I2250J-0D01*
G01X192996Y256587D02*
Y258587D01*
X193761Y260277D02*
G03X192996Y258587I1485J-1690D01*
G01X193761Y260277D02*
G03X193846Y260465I-165J188D01*
G01Y269028*
G03X193745Y269229I-250J0*
G01X199153Y271188D02*
G03X193745Y269229I-3353J812D01*
G01X199153Y271188D02*
G03X199146Y271129I243J-59D01*
G01Y260938*
G03X199481Y260703I250J-0*
G01X200246Y260837D02*
G03X199481Y260703I0J-2250D01*
G01X200246Y260837D02*
X202746D01*
X204996Y258587D02*
G03X202746Y260837I-2250J-0D01*
G01X204996Y258587D02*
Y258100D01*
G03X205246Y257850I250J0*
G01X215400*
X219905*
G03X220155Y258100I0J250*
G01Y258581*
X222405Y260831D02*
G03X220155Y258581I0J-2250D01*
G01X222405Y260831D02*
X224405D01*
X226096Y260066D02*
G03X224405Y260831I-1691J-1485D01*
G01X226096Y260066D02*
G03X226284Y259981I188J165D01*
G01X228167*
G03X228344Y260054I-0J250*
G01X229363Y261074*
X231237Y261850D02*
G03X229363Y261074I0J-2650D01*
G01X231237Y261850D02*
X235102D01*
G03X235257Y261904I0J250*
G01Y256496D02*
G03Y261904I2143J2704D01*
G01Y256496D02*
G03X235102Y256550I-155J-196D01*
G01X232438*
G03X232262Y256477I0J-250*
G01X231242Y255457*
X231061Y255292D02*
G03X231242Y255457I-1693J2039D01*
G01X231061Y255292D02*
G03X231221Y254850I160J-192D01*
G01X240200*
X241168Y254667D02*
G03X240200Y254850I-968J-2467D01*
G01X241168Y254667D02*
G03X241256Y254650I92J233D01*
G01X243158Y254041D02*
G03X241256Y254650I-1958J-2841D01*
G01X243158Y254041D02*
G03X243550Y254246I142J205D01*
G01Y275350*
X246050Y277850D02*
G03X243550Y275350I0J-2500D01*
G01X246050Y277850D02*
X288300D01*
G03X288550Y278100I-0J250*
G01X220680Y249303D02*
G03X220685Y249631I-186J167D01*
G01X220155Y251081D02*
G03X220685Y249631I2250J-0D01*
G01X220155Y251081D02*
Y252300D01*
G03X219905Y252550I-250J-0*
G01X218100*
G03X217850Y252300I0J-250*
G01Y238782*
G03X218100Y238532I250J0*
G01X219863*
X220357Y238477D02*
G03X219863Y238532I-494J-2195D01*
G01X220357Y238477D02*
G03X220606Y238879I55J244D01*
G01X220102Y240298D02*
G03X220606Y238879I2250J-0D01*
G01X220102Y240298D02*
Y242798D01*
X220404Y243923D02*
G03X220102Y242798I1948J-1125D01*
G01X220404Y243923D02*
G03Y244173I-217J125D01*
G01X220102Y245298D02*
G03X220404Y244173I2250J-0D01*
G01X220102Y245298D02*
Y247798D01*
X220680Y249303D02*
G03X220102Y247798I1672J-1505D01*
G01X358250Y186400D02*
Y179400D01*
X357415Y177385D02*
G03X358250Y179400I-2015J2015D01*
G01X357415Y177385D02*
X349523Y169493D01*
G03X349450Y169316I177J-177*
G01Y167620*
G03X349491Y167483I250J-0*
G01X343709D02*
G03X349491I2891J-1883D01*
G01X343709D02*
G03X343750Y167620I-209J137D01*
G01Y170600*
X344585Y172615D02*
G03X343750Y170600I2015J-2015D01*
G01X344585Y172615D02*
X352477Y180507D01*
G03X352550Y180684I-177J177*
G01Y183716*
G03X352123Y183893I-250J-0*
G01X351644Y183413*
G03X351576Y183288I176J-177*
G01X347488Y187376D02*
G03X351576Y183288I712J-3376D01*
G01X347488Y187376D02*
G03X347613Y187444I-52J244D01*
G01X348747Y188577*
G03X348613Y189000I-177J177*
G01X347317Y189509D02*
G03X348613Y189000I1883J2891D01*
G01X347317Y189509D02*
G03X347180Y189550I-137J-209D01*
G01X328700*
G03X328450Y189300I0J-250*
G01Y182020*
G03X328491Y181883I250J-0*
G01Y178117D02*
G03Y181883I-2891J1883D01*
G01Y178117D02*
G03X328450Y177980I209J-137D01*
G01Y154200*
X327615Y152185D02*
G03X328450Y154200I-2015J2015D01*
G01X327615Y152185D02*
X325015Y149585D01*
X323000Y148750D02*
G03X325015Y149585I0J2850D01*
G01X323000Y148750D02*
X320782D01*
G03X320554Y148399I0J-250*
G01X314105Y148022D02*
G03X320554Y148399I3295J-1022D01*
G01X314105Y148022D02*
G03X313754Y148320I-239J74D01*
G01X313760Y154477D02*
G03X313754Y148320I-1560J-3077D01*
G01X313760Y154477D02*
G03X313873Y154450I113J223D01*
G01X317600*
X321716*
G03X321893Y154523I-0J250*
G01X322677Y155307*
G03X322750Y155484I-177J177*
G01Y177980*
G03X322709Y178117I-250J0*
G01Y181883D02*
G03Y178117I2891J-1883D01*
G01Y181883D02*
G03X322750Y182020I-209J137D01*
G01Y190800*
X323585Y192815D02*
G03X322750Y190800I2015J-2015D01*
G01X323585Y192815D02*
X325185Y194415D01*
X327200Y195250D02*
G03X325185Y194415I0J-2850D01*
G01X327200Y195250D02*
X347180D01*
G03X347317Y195291I0J250*
G01X352649Y192492D02*
G03X347317Y195291I-3449J-92D01*
G01X352649Y192492D02*
G03X352906Y192249I250J7D01*
G01X356376Y189512D02*
G03X352906Y192249I-3376J-712D01*
G01X356376Y189512D02*
G03X356444Y189387I244J52D01*
G01X357415Y188415*
X358250Y186400D02*
G03X357415Y188415I-2850J0D01*
G01X229516Y146068D02*
G03X229516I-7250J0D01*
G01X213250Y146000D02*
G03X213250I-7250J0D01*
G01X196650D02*
G03X196650I-7250J0D01*
G01X336496Y153143D02*
G03X341904I2704J-2143D01*
G01X336496D02*
G03X336550Y153298I-196J155D01*
G01Y165670*
G03X336482Y165841I-250J0*
G01X341891Y166317D02*
G03X336482Y165841I-2891J1883D01*
G01X341891Y166317D02*
G03X341850Y166180I209J-137D01*
G01Y153298*
G03X341904Y153143I250J-0*
G01X358498Y244094D02*
G03X358498I-13045J0D01*
G01X320750Y206899D02*
X342548D01*
X339980Y207349D02*
X342098D01*
X340473Y207799D02*
X341648D01*
X340758Y208249D02*
X341198D01*
X328956Y207349D02*
X332747D01*
X329449Y207799D02*
X330788D01*
X329733Y208249D02*
X330204D01*
X320750Y207349D02*
X321724D01*
X320776Y207799D02*
X321231D01*
X276489Y255049D02*
X286161D01*
X276489Y254599D02*
X286161D01*
X276489Y254149D02*
X286161D01*
X276489Y253699D02*
X286161D01*
X276489Y253249D02*
X286161D01*
X276489Y252799D02*
X286161D01*
X276489Y252349D02*
X286161D01*
X276489Y251899D02*
X286161D01*
X276489Y251449D02*
X286161D01*
X276489Y250999D02*
X286161D01*
X276489Y250549D02*
X286161D01*
X276489Y250099D02*
X286161D01*
X276522Y249649D02*
X286161D01*
X276575Y249199D02*
X286161D01*
X276578Y248749D02*
X286161D01*
X276578Y248299D02*
X286161D01*
X276578Y247849D02*
X286161D01*
X276578Y247399D02*
X286161D01*
X276578Y246949D02*
X286161D01*
X276578Y246499D02*
X286161D01*
X276578Y246049D02*
X286059D01*
X276489Y255499D02*
X285863D01*
X284419Y255949D02*
X285559D01*
X282886Y245599D02*
X283114D01*
X279346Y255949D02*
X281305D01*
X276578Y245599D02*
X278317D01*
X276578Y245149D02*
X277838D01*
X271537Y240199D02*
X277611D01*
X276567Y244699D02*
X277560D01*
X270807Y239749D02*
X277498D01*
X271996Y240649D02*
X277432D01*
X276494Y244249D02*
X277406D01*
X272446Y241099D02*
X277355D01*
X276345Y243799D02*
X277351D01*
X276107Y243349D02*
X277350D01*
X275749Y242899D02*
X277350D01*
X275191Y242449D02*
X277350D01*
X273334Y241999D02*
X277350D01*
X272896Y241549D02*
X277350D01*
X261570Y239299D02*
X276951D01*
X261739Y238849D02*
X276501D01*
X261836Y238399D02*
X276149D01*
X261850Y237949D02*
X275926D01*
X261850Y237499D02*
X275797D01*
X261850Y237049D02*
X275750D01*
X261850Y236599D02*
X275750D01*
X261850Y236149D02*
X275750D01*
X261850Y235699D02*
X275750D01*
X261814Y235249D02*
X275750D01*
X261683Y234799D02*
X275750D01*
X261520Y234349D02*
X275750D01*
X261722Y233899D02*
X275750D01*
X261830Y233449D02*
X275750D01*
X261850Y232999D02*
X275750D01*
X261850Y232549D02*
X275750D01*
X261914Y232099D02*
X275750D01*
X264215Y231649D02*
X275750D01*
X276429Y220399D02*
X293911D01*
X276237Y219949D02*
X293911D01*
X275944Y219499D02*
X293911D01*
X275501Y219049D02*
X293911D01*
X274954Y218599D02*
X293911D01*
X277286Y218149D02*
X293911D01*
X276539Y220849D02*
X293901D01*
X276577Y221299D02*
X293831D01*
X293128Y223999D02*
X293822D01*
X292404Y223549D02*
X293822D01*
X276578Y223099D02*
X293822D01*
X276578Y222649D02*
X293822D01*
X276578Y222199D02*
X293822D01*
X276578Y221749D02*
X293822D01*
X287404Y223549D02*
X288796D01*
X282404D02*
X283796D01*
X276578D02*
X278796D01*
X276578Y223999D02*
X278072D01*
X276578Y224449D02*
X277698D01*
X276579Y224899D02*
X277163D01*
X260450Y205099D02*
X283909D01*
X260450Y205549D02*
X283784D01*
X260450Y205999D02*
X283166D01*
X277332Y206449D02*
X282697D01*
X278041Y206899D02*
X282327D01*
X278410Y207349D02*
X282031D01*
X278626Y207799D02*
X281795D01*
X278601Y211849D02*
X281644D01*
X278733Y208249D02*
X281612D01*
X278723Y211399D02*
X281498D01*
X278752Y208699D02*
X281474D01*
X278752Y210949D02*
X281395D01*
X278752Y209149D02*
X281380D01*
X278752Y210499D02*
X281332D01*
X278752Y209599D02*
X281325D01*
X278752Y210049D02*
X281309D01*
X275493Y204649D02*
X275507D01*
X275493D02*
X275493D01*
X272532Y206449D02*
X273671D01*
X267829D02*
X268871D01*
X263075D02*
X264085D01*
X290792Y206899D02*
X296666D01*
X291475Y211849D02*
X296398D01*
X291088Y207349D02*
X296322D01*
X291621Y211399D02*
X296215D01*
X295780Y212299D02*
X296146D01*
X291323Y207799D02*
X296123D01*
X291724Y210949D02*
X296068D01*
X291507Y208249D02*
X296030D01*
X291786Y210499D02*
X296018D01*
X291809Y210049D02*
X296018D01*
X291794Y209599D02*
X296018D01*
X291739Y209149D02*
X296018D01*
X291644Y208699D02*
X296018D01*
X249246Y291499D02*
X274541D01*
X248796Y291049D02*
X274479D01*
X248337Y290599D02*
X274232D01*
X247607Y290149D02*
X274101D01*
X207450Y289699D02*
X274066D01*
X249696Y291949D02*
X273651D01*
X250146Y292399D02*
X273212D01*
X250596Y292849D02*
X272956D01*
X265560Y293299D02*
X272818D01*
X267614Y295549D02*
X272776D01*
X267491Y295099D02*
X272776D01*
X267282Y294649D02*
X272776D01*
X266965Y294199D02*
X272776D01*
X266479Y293749D02*
X272776D01*
X251046Y293299D02*
X259269D01*
X251496Y293749D02*
X258350D01*
X251946Y294199D02*
X257864D01*
X252396Y294649D02*
X257546D01*
X254636Y297349D02*
X257435D01*
X254743Y300049D02*
X257406D01*
X252846Y295099D02*
X257338D01*
X254743Y299599D02*
X257325D01*
X254727Y297799D02*
X257291D01*
X254459Y296899D02*
X257280D01*
X254743Y300499D02*
X257252D01*
X253296Y295549D02*
X257215D01*
X254743Y299149D02*
X257208D01*
X254743Y298249D02*
X257192D01*
X254171Y296449D02*
X257187D01*
X254757Y300949D02*
X257169D01*
X253746Y295999D02*
X257166D01*
X254743Y298699D02*
X257165D01*
X281937Y301399D02*
X283470D01*
X281958Y292399D02*
X283448D01*
X282198Y300949D02*
X283209D01*
X282215Y292849D02*
X283192D01*
X282345Y300499D02*
X283062D01*
X282353Y293299D02*
X283054D01*
X282394Y300049D02*
X283012D01*
X282394Y299599D02*
X283012D01*
X282394Y299149D02*
X283012D01*
X282394Y298699D02*
X283012D01*
X282394Y298249D02*
X283012D01*
X282394Y297799D02*
X283012D01*
X282394Y297349D02*
X283012D01*
X282394Y296899D02*
X283012D01*
X282394Y296449D02*
X283012D01*
X282394Y295999D02*
X283012D01*
X282394Y295549D02*
X283012D01*
X282394Y295099D02*
X283012D01*
X282394Y294649D02*
X283012D01*
X282394Y294199D02*
X283012D01*
X282394Y293749D02*
X283012D01*
X251450Y315349D02*
X257428D01*
X251450Y312649D02*
X257423D01*
X251450Y309949D02*
X257365D01*
X251450Y310399D02*
X257361D01*
X251450Y313099D02*
X257310D01*
X251450Y314899D02*
X257305D01*
X251450Y315799D02*
X257268D01*
X251450Y312199D02*
X257263D01*
X251450Y309499D02*
X257229D01*
X251450Y310849D02*
X257227D01*
X251450Y313549D02*
X257201D01*
X251450Y314449D02*
X257198D01*
X251596Y316249D02*
X257182D01*
X251450Y311749D02*
X257180D01*
X251450Y311299D02*
X257168D01*
X251450Y313999D02*
X257164D01*
X251450Y309049D02*
X257107D01*
X207450Y324349D02*
X238422D01*
X207450Y323899D02*
X238422D01*
X207450Y323449D02*
X238422D01*
X207450Y322999D02*
X238422D01*
X207450Y322549D02*
X238422D01*
X207450Y324799D02*
X238269D01*
X207450Y325249D02*
X238156D01*
X207463Y327949D02*
X238138D01*
X207450Y327499D02*
X238133D01*
X207450Y327049D02*
X238133D01*
X207450Y326599D02*
X238133D01*
X207450Y326149D02*
X238133D01*
X207450Y325699D02*
X238133D01*
X207450Y322099D02*
X231804D01*
X207450Y321649D02*
X228710D01*
X207450Y321199D02*
X228113D01*
X207450Y320749D02*
X227738D01*
X207450Y297349D02*
X227514D01*
X207450Y304999D02*
X227510D01*
X207450Y315349D02*
X227507D01*
X207450Y312649D02*
X227502D01*
X207450Y307699D02*
X227498D01*
X207450Y320299D02*
X227490D01*
X207450Y300049D02*
X227485D01*
X207450Y302299D02*
X227456D01*
X207450Y318049D02*
X227451D01*
X207450Y309949D02*
X227444D01*
X207450Y310399D02*
X227439D01*
X207450Y317599D02*
X227433D01*
X207450Y302749D02*
X227428D01*
X207450Y299599D02*
X227403D01*
X207450Y307249D02*
X227393D01*
X207450Y313099D02*
X227389D01*
X207450Y314899D02*
X227383D01*
X207450Y305449D02*
X227379D01*
X207450Y297799D02*
X227370D01*
X207450Y304549D02*
X227350D01*
X207450Y315799D02*
X227347D01*
X207450Y312199D02*
X227342D01*
X207450Y308149D02*
X227339D01*
X207450Y319849D02*
X227334D01*
X207450Y300499D02*
X227331D01*
X207450Y301849D02*
X227315D01*
X207450Y318499D02*
X227312D01*
X207552Y296899D02*
X227308D01*
X207450Y309499D02*
X227308D01*
X207450Y310849D02*
X227306D01*
X207450Y317149D02*
X227302D01*
X207450Y303199D02*
X227299D01*
X207450Y299149D02*
X227287D01*
X207450Y306799D02*
X227282D01*
X207450Y313549D02*
X227280D01*
X207450Y314449D02*
X227277D01*
X207450Y305899D02*
X227275D01*
X207450Y298249D02*
X227271D01*
X207450Y304099D02*
X227262D01*
X207450Y316249D02*
X227261D01*
X207450Y311749D02*
X227259D01*
X207450Y308599D02*
X227257D01*
X207450Y319399D02*
X227256D01*
X207450Y300949D02*
X227255D01*
X207450Y301399D02*
X227249D01*
X207450Y318949D02*
X227249D01*
X207450Y309049D02*
X227248D01*
X207450Y311299D02*
X227247D01*
X207450Y316699D02*
X227246D01*
X207450Y303649D02*
X227245D01*
X207450Y298699D02*
X227243D01*
X207450Y306349D02*
X227243D01*
X207450Y313999D02*
X227243D01*
X383052Y237949D02*
X383827D01*
X382602Y237499D02*
X383805D01*
X382152Y237049D02*
X383782D01*
X381702Y236599D02*
X383757D01*
X381252Y236149D02*
X383730D01*
X380753Y235699D02*
X383702D01*
X379984Y235249D02*
X383673D01*
X377926Y234799D02*
X383642D01*
X377690Y234349D02*
X383609D01*
X377412Y233899D02*
X383575D01*
X377086Y233449D02*
X383539D01*
X376701Y232999D02*
X383502D01*
X376245Y232549D02*
X383463D01*
X375694Y232099D02*
X383423D01*
X375007Y231649D02*
X383381D01*
X374079Y231199D02*
X383337D01*
X372380Y230749D02*
X383292D01*
X331614Y230299D02*
X383245D01*
X331614Y229849D02*
X383197D01*
X331614Y229399D02*
X383147D01*
X331614Y228949D02*
X383096D01*
X331614Y228499D02*
X383043D01*
X332038Y228049D02*
X382989D01*
X354639Y227599D02*
X382933D01*
X355721Y227149D02*
X382875D01*
X356160Y226699D02*
X382816D01*
X356416Y226249D02*
X382755D01*
X356554Y225799D02*
X382693D01*
X356596Y225349D02*
X382629D01*
X381870Y263149D02*
X382584D01*
X356596Y224899D02*
X382563D01*
X381420Y263599D02*
X382517D01*
X356596Y224449D02*
X382496D01*
X380970Y264049D02*
X382449D01*
X356596Y223999D02*
X382427D01*
X380520Y264499D02*
X382379D01*
X356596Y223549D02*
X382357D01*
X380070Y264949D02*
X382308D01*
X356596Y223099D02*
X382285D01*
X379620Y265399D02*
X382235D01*
X356585Y222649D02*
X382211D01*
X379170Y265849D02*
X382160D01*
X356494Y222199D02*
X382136D01*
X378720Y266299D02*
X382084D01*
X356298Y221749D02*
X382060D01*
X378270Y266749D02*
X382006D01*
X356394Y221299D02*
X381981D01*
X377820Y267199D02*
X381927D01*
X356544Y220849D02*
X381901D01*
X377370Y267649D02*
X381846D01*
X356596Y220399D02*
X381820D01*
X376920Y268099D02*
X381763D01*
X356596Y219949D02*
X381737D01*
X376470Y268549D02*
X381679D01*
X356596Y219499D02*
X381652D01*
X375934Y268999D02*
X381593D01*
X356596Y219049D02*
X381565D01*
X375055Y269449D02*
X381505D01*
X356596Y218599D02*
X381477D01*
X368111Y269899D02*
X381416D01*
X356596Y218149D02*
X381388D01*
X367569Y270349D02*
X381325D01*
X356590Y217699D02*
X381296D01*
X367889Y270799D02*
X381233D01*
X356509Y217249D02*
X381203D01*
X368345Y271249D02*
X381139D01*
X356326Y216799D02*
X381109D01*
X368610Y271699D02*
X381043D01*
X356018Y216349D02*
X381013D01*
X368754Y272149D02*
X380946D01*
X356201Y215899D02*
X380915D01*
X368801Y272599D02*
X380847D01*
X356463Y215449D02*
X380815D01*
X368801Y273049D02*
X380746D01*
X356605Y214999D02*
X380714D01*
X368801Y273499D02*
X380644D01*
X356650Y214549D02*
X380611D01*
X368801Y273949D02*
X380540D01*
X356650Y214099D02*
X380507D01*
X368801Y274399D02*
X380434D01*
X356650Y213649D02*
X380400D01*
X368801Y274849D02*
X380327D01*
X356650Y213199D02*
X380293D01*
X368801Y275299D02*
X380218D01*
X356650Y212749D02*
X380183D01*
X368801Y275749D02*
X380107D01*
X356650Y212299D02*
X380072D01*
X368801Y276199D02*
X379995D01*
X356641Y211849D02*
X379959D01*
X368801Y276649D02*
X379881D01*
X356554Y211399D02*
X379844D01*
X368801Y277099D02*
X379765D01*
X356362Y210949D02*
X379728D01*
X368791Y277549D02*
X379648D01*
X356440Y210499D02*
X379610D01*
X368701Y277999D02*
X379528D01*
X356594Y210049D02*
X379491D01*
X368505Y278449D02*
X379408D01*
X356649Y209599D02*
X379369D01*
X368167Y278899D02*
X379285D01*
X356650Y209149D02*
X379246D01*
X367550Y279349D02*
X379161D01*
X356697Y208699D02*
X379121D01*
X292450Y279799D02*
X379035D01*
X356732Y208249D02*
X378995D01*
X292450Y280249D02*
X378907D01*
X356704Y207799D02*
X378867D01*
X292450Y280699D02*
X378778D01*
X356650Y207349D02*
X378737D01*
X292450Y281149D02*
X378646D01*
X356650Y206899D02*
X378605D01*
X292450Y281599D02*
X378514D01*
X356650Y206449D02*
X378471D01*
X292450Y282049D02*
X378379D01*
X356650Y205999D02*
X378336D01*
X292450Y282499D02*
X378242D01*
X356650Y205549D02*
X378199D01*
X292450Y282949D02*
X378104D01*
X356650Y205099D02*
X378060D01*
X292450Y283399D02*
X377964D01*
X356650Y204649D02*
X377920D01*
X292450Y283849D02*
X377823D01*
X356650Y204199D02*
X377778D01*
X292450Y284299D02*
X377679D01*
X356650Y203749D02*
X377634D01*
X292450Y284749D02*
X377534D01*
X356650Y203299D02*
X377488D01*
X292450Y285199D02*
X377387D01*
X356650Y202849D02*
X377340D01*
X376606Y248749D02*
X377250D01*
X376206Y248299D02*
X377250D01*
X375732Y247849D02*
X377250D01*
X375155Y247399D02*
X377250D01*
X374427Y246949D02*
X377250D01*
X373414Y246499D02*
X377250D01*
X358351Y246049D02*
X377250D01*
X358411Y245599D02*
X377250D01*
X372064Y245149D02*
X377250D01*
X373985Y244699D02*
X377250D01*
X374942Y244249D02*
X377250D01*
X375644Y243799D02*
X377250D01*
X376204Y243349D02*
X377250D01*
X376667Y242899D02*
X377250D01*
X292450Y285649D02*
X377238D01*
X356625Y202399D02*
X377191D01*
X292450Y286099D02*
X377087D01*
X356537Y201949D02*
X377040D01*
X292450Y286549D02*
X376935D01*
X356378Y201499D02*
X376887D01*
X292438Y286999D02*
X376781D01*
X356138Y201049D02*
X376732D01*
X292350Y287449D02*
X376625D01*
X355791Y200599D02*
X376575D01*
X292171Y287899D02*
X376467D01*
X355345Y200149D02*
X376417D01*
X291872Y288349D02*
X376307D01*
X354895Y199699D02*
X376256D01*
X291383Y288799D02*
X376145D01*
X354445Y199249D02*
X376094D01*
X290032Y289249D02*
X375982D01*
X353948Y198799D02*
X375930D01*
X286066Y289699D02*
X375817D01*
X353119Y198349D02*
X375764D01*
X286030Y290149D02*
X375649D01*
X311013Y197899D02*
X375596D01*
X285900Y290599D02*
X375480D01*
X310916Y197449D02*
X375427D01*
X285653Y291049D02*
X375309D01*
X310753Y196999D02*
X375255D01*
X290674Y291499D02*
X375137D01*
X310511Y196549D02*
X375082D01*
X291756Y291949D02*
X374962D01*
X310250Y196099D02*
X374907D01*
X292195Y292399D02*
X374785D01*
X350361Y195649D02*
X374729D01*
X292451Y292849D02*
X374607D01*
X351217Y195199D02*
X374550D01*
X292589Y293299D02*
X374426D01*
X351727Y194749D02*
X374369D01*
X292630Y293749D02*
X374244D01*
X352081Y194299D02*
X374186D01*
X292630Y294199D02*
X374060D01*
X352331Y193849D02*
X374001D01*
X292630Y294649D02*
X373874D01*
X352502Y193399D02*
X373815D01*
X292630Y295099D02*
X373685D01*
X352606Y192949D02*
X373626D01*
X292630Y295549D02*
X373495D01*
X352649Y192499D02*
X373435D01*
X292630Y295999D02*
X373303D01*
X354161Y192049D02*
X373242D01*
X292630Y296449D02*
X373109D01*
X355017Y191599D02*
X373047D01*
X292630Y296899D02*
X372913D01*
X355527Y191149D02*
X372851D01*
X292630Y297349D02*
X372715D01*
X355881Y190699D02*
X372652D01*
X292630Y297799D02*
X372515D01*
X356131Y190249D02*
X372451D01*
X292630Y298249D02*
X372312D01*
X356302Y189799D02*
X372248D01*
X292630Y298699D02*
X372108D01*
X356482Y189349D02*
X372044D01*
X292630Y299149D02*
X371902D01*
X356932Y188899D02*
X371837D01*
X292630Y299599D02*
X371694D01*
X357382Y188449D02*
X371628D01*
X292630Y300049D02*
X371483D01*
X357759Y187999D02*
X371417D01*
X292581Y300499D02*
X371271D01*
X358008Y187549D02*
X371204D01*
X292434Y300949D02*
X371056D01*
X358163Y187099D02*
X370989D01*
X292165Y301399D02*
X370840D01*
X358239Y186649D02*
X370771D01*
X358455Y245149D02*
X370709D01*
X291703Y301849D02*
X370621D01*
X358250Y186199D02*
X370552D01*
X287532Y302299D02*
X370400D01*
X331614Y230749D02*
X370394D01*
X358250Y185749D02*
X370330D01*
X287496Y302749D02*
X370177D01*
X358250Y185299D02*
X370107D01*
X287946Y303199D02*
X369952D01*
X358250Y184849D02*
X369881D01*
X288396Y303649D02*
X369725D01*
X358250Y184399D02*
X369653D01*
X288846Y304099D02*
X369496D01*
X358250Y183949D02*
X369423D01*
X289296Y304549D02*
X369264D01*
X358250Y183499D02*
X369191D01*
X289744Y304999D02*
X369030D01*
X358250Y183049D02*
X368956D01*
X290080Y305449D02*
X368794D01*
X358484Y244699D02*
X368788D01*
X358250Y182599D02*
X368719D01*
X347422Y231199D02*
X368695D01*
X358275Y246499D02*
X368560D01*
X290292Y305899D02*
X368556D01*
X358250Y182149D02*
X368480D01*
X290411Y306349D02*
X368315D01*
X358250Y181699D02*
X368239D01*
X290450Y306799D02*
X368073D01*
X358250Y181249D02*
X367996D01*
X358497Y244249D02*
X367831D01*
X290450Y307249D02*
X367828D01*
X349362Y231649D02*
X367767D01*
X358250Y180799D02*
X367750D01*
X290966Y307699D02*
X367580D01*
X358182Y246949D02*
X367546D01*
X358250Y180349D02*
X367502D01*
X291828Y308149D02*
X367331D01*
X358250Y179899D02*
X367252D01*
X358495Y243799D02*
X367129D01*
X350579Y232099D02*
X367079D01*
X292236Y308599D02*
X367079D01*
X358250Y179449D02*
X366999D01*
X292475Y309049D02*
X366825D01*
X358073Y247399D02*
X366818D01*
X358222Y178999D02*
X366744D01*
X358477Y243349D02*
X366570D01*
X292599Y309499D02*
X366568D01*
X351525Y232549D02*
X366529D01*
X358120Y178549D02*
X366487D01*
X292630Y309949D02*
X366309D01*
X357946Y247849D02*
X366242D01*
X357936Y178099D02*
X366227D01*
X358443Y242899D02*
X366107D01*
X352313Y232999D02*
X366073D01*
X292630Y310399D02*
X366048D01*
X357648Y177649D02*
X365965D01*
X292630Y310849D02*
X365784D01*
X357802Y248299D02*
X365767D01*
X358394Y242449D02*
X365717D01*
X357229Y177199D02*
X365701D01*
X352992Y233449D02*
X365688D01*
X292630Y311299D02*
X365518D01*
X356779Y176749D02*
X365434D01*
X358329Y241999D02*
X365386D01*
X357640Y248749D02*
X365368D01*
X353591Y233899D02*
X365361D01*
X292630Y311749D02*
X365250D01*
X356329Y176299D02*
X365165D01*
X358247Y241549D02*
X365104D01*
X354124Y234349D02*
X365083D01*
X357458Y249199D02*
X365029D01*
X292630Y312199D02*
X364979D01*
X355879Y175849D02*
X364893D01*
X358149Y241099D02*
X364866D01*
X354605Y234799D02*
X364848D01*
X292630Y312649D02*
X364706D01*
X358035Y240649D02*
X364666D01*
X355041Y235249D02*
X364651D01*
X355429Y175399D02*
X364619D01*
X357903Y240199D02*
X364501D01*
X355437Y235699D02*
X364489D01*
X292630Y313099D02*
X364430D01*
X357753Y239749D02*
X364369D01*
X355799Y236149D02*
X364359D01*
X354979Y174949D02*
X364343D01*
X357585Y239299D02*
X364267D01*
X356129Y236599D02*
X364260D01*
X357397Y238849D02*
X364195D01*
X356432Y237049D02*
X364191D01*
X357189Y238399D02*
X364152D01*
X292630Y313549D02*
X364151D01*
X356708Y237499D02*
X364150D01*
X356960Y237949D02*
X364137D01*
X354529Y174499D02*
X364063D01*
X292630Y313999D02*
X363871D01*
X354079Y174049D02*
X363782D01*
X292630Y314449D02*
X363587D01*
X353629Y173599D02*
X363498D01*
X292630Y314899D02*
X363301D01*
X353179Y173149D02*
X363211D01*
X292630Y315349D02*
X363013D01*
X352729Y172699D02*
X362922D01*
X292630Y315799D02*
X362722D01*
X352279Y172249D02*
X362630D01*
X292629Y316249D02*
X362428D01*
X351829Y171799D02*
X362335D01*
X292568Y316699D02*
X362132D01*
X351379Y171349D02*
X362038D01*
X292407Y317149D02*
X361833D01*
X350929Y170899D02*
X361738D01*
X292121Y317599D02*
X361531D01*
X357257Y249649D02*
X361500D01*
X350479Y170449D02*
X361436D01*
X294591Y318049D02*
X361227D01*
X350029Y169999D02*
X361131D01*
X295495Y318499D02*
X360920D01*
X349579Y169549D02*
X360823D01*
X295910Y318949D02*
X360610D01*
X349450Y169099D02*
X360512D01*
X357034Y250099D02*
X360310D01*
X296154Y319399D02*
X360297D01*
X349450Y168649D02*
X360198D01*
X296282Y319849D02*
X359982D01*
X349450Y168199D02*
X359882D01*
X356790Y250549D02*
X359697D01*
X296315Y320299D02*
X359664D01*
X349450Y167749D02*
X359563D01*
X296315Y320749D02*
X359343D01*
X349603Y167299D02*
X359241D01*
X356521Y250999D02*
X359241D01*
X296315Y321199D02*
X359019D01*
X349816Y166849D02*
X358916D01*
X356228Y251449D02*
X358791D01*
X296315Y321649D02*
X358692D01*
X349956Y166399D02*
X358589D01*
X296315Y322099D02*
X358363D01*
X355906Y251899D02*
X358341D01*
X350032Y165949D02*
X358258D01*
X296294Y322549D02*
X358030D01*
X350049Y165499D02*
X357925D01*
X355555Y252349D02*
X357891D01*
X296182Y322999D02*
X357694D01*
X350006Y165049D02*
X357588D01*
X355170Y252799D02*
X357441D01*
X295961Y323449D02*
X357356D01*
X349902Y164599D02*
X357249D01*
X295582Y323899D02*
X357014D01*
X354747Y253249D02*
X356991D01*
X349730Y164149D02*
X356906D01*
X294841Y324349D02*
X356669D01*
X349479Y163699D02*
X356560D01*
X354281Y253699D02*
X356541D01*
X249997Y324799D02*
X356322D01*
X349125Y163249D02*
X356212D01*
X353765Y254149D02*
X356091D01*
X250110Y325249D02*
X355971D01*
X348614Y162799D02*
X355860D01*
X292450Y279349D02*
X355710D01*
X271285Y270349D02*
X355691D01*
X353188Y254599D02*
X355641D01*
X250133Y325699D02*
X355617D01*
X347754Y162349D02*
X355505D01*
X270493Y270799D02*
X355371D01*
X250133Y326149D02*
X355259D01*
X352537Y255049D02*
X355191D01*
X271773Y269899D02*
X355149D01*
X341850Y161899D02*
X355146D01*
X292450Y278899D02*
X355094D01*
X247250Y271249D02*
X354916D01*
X250133Y326599D02*
X354899D01*
X351787Y255499D02*
X354820D01*
X272113Y269449D02*
X354788D01*
X341850Y161449D02*
X354785D01*
X292450Y278449D02*
X354755D01*
X247250Y271699D02*
X354651D01*
X272354Y268999D02*
X354578D01*
X292450Y277999D02*
X354560D01*
X350899Y255949D02*
X354549D01*
X250133Y327049D02*
X354535D01*
X247250Y272149D02*
X354506D01*
X272517Y268549D02*
X354475D01*
X292450Y277549D02*
X354469D01*
X247250Y272599D02*
X354459D01*
X292450Y277099D02*
X354459D01*
X292450Y276649D02*
X354459D01*
X292409Y276199D02*
X354459D01*
X292282Y275749D02*
X354459D01*
X292053Y275299D02*
X354459D01*
X291684Y274849D02*
X354459D01*
X291037Y274399D02*
X354459D01*
X247255Y273949D02*
X354459D01*
X247250Y273499D02*
X354459D01*
X247250Y273049D02*
X354459D01*
X272614Y268099D02*
X354459D01*
X307507Y267649D02*
X354459D01*
X341850Y160999D02*
X354420D01*
X308081Y267199D02*
X354367D01*
X349787Y256399D02*
X354356D01*
X308531Y266749D02*
X354234D01*
X348193Y256849D02*
X354227D01*
X250133Y327499D02*
X354168D01*
X308981Y266299D02*
X354160D01*
X323365Y257299D02*
X354157D01*
X309431Y265849D02*
X354140D01*
X309881Y265399D02*
X354140D01*
X310331Y264949D02*
X354140D01*
X310781Y264499D02*
X354140D01*
X311231Y264049D02*
X354140D01*
X311681Y263599D02*
X354140D01*
X312131Y263149D02*
X354140D01*
X312581Y262699D02*
X354140D01*
X313031Y262249D02*
X354140D01*
X313481Y261799D02*
X354140D01*
X313931Y261349D02*
X354140D01*
X314324Y260899D02*
X354140D01*
X314585Y260449D02*
X354140D01*
X314750Y259999D02*
X354140D01*
X321926Y259549D02*
X354140D01*
X322646Y259099D02*
X354140D01*
X323019Y258649D02*
X354140D01*
X323237Y258199D02*
X354140D01*
X323345Y257749D02*
X354140D01*
X341850Y160549D02*
X354052D01*
X250101Y327949D02*
X353798D01*
X341850Y160099D02*
X353681D01*
X249974Y328399D02*
X353424D01*
X341850Y159649D02*
X353306D01*
X249735Y328849D02*
X353047D01*
X341850Y159199D02*
X352928D01*
X249863Y329299D02*
X352667D01*
X351729Y183499D02*
X352550D01*
X351516Y183049D02*
X352550D01*
X351353Y182599D02*
X352550D01*
X351111Y182149D02*
X352550D01*
X350770Y181699D02*
X352550D01*
X350282Y181249D02*
X352550D01*
X349486Y180799D02*
X352550D01*
X341850Y158749D02*
X352546D01*
X352209Y183949D02*
X352391D01*
X329032Y180349D02*
X352318D01*
X250046Y329749D02*
X352283D01*
X341850Y158299D02*
X352161D01*
X349677Y227599D02*
X352053D01*
X250127Y330199D02*
X351895D01*
X329049Y179899D02*
X351868D01*
X341850Y157849D02*
X351772D01*
X250133Y330649D02*
X351504D01*
X329006Y179449D02*
X351418D01*
X341850Y157399D02*
X351380D01*
X250133Y331099D02*
X351109D01*
X341850Y156949D02*
X350984D01*
X328902Y178999D02*
X350968D01*
X250133Y331549D02*
X350711D01*
X341850Y156499D02*
X350585D01*
X328730Y178549D02*
X350518D01*
X250133Y331999D02*
X350309D01*
X341850Y156049D02*
X350182D01*
X328480Y178099D02*
X350068D01*
X250132Y332449D02*
X349903D01*
X341850Y155599D02*
X349775D01*
X328450Y177649D02*
X349618D01*
X250070Y332899D02*
X349494D01*
X341850Y155149D02*
X349364D01*
X328450Y177199D02*
X349168D01*
X249908Y333349D02*
X349080D01*
X341850Y154699D02*
X348950D01*
X328450Y188899D02*
X348774D01*
X328450Y176749D02*
X348718D01*
X249620Y333799D02*
X348663D01*
X328450Y188449D02*
X348618D01*
X341850Y154249D02*
X348531D01*
X328450Y176299D02*
X348268D01*
X249119Y334249D02*
X348242D01*
X328450Y187999D02*
X348168D01*
X341850Y153799D02*
X348109D01*
X310250Y195649D02*
X348039D01*
X328450Y175849D02*
X347818D01*
X207516Y334699D02*
X347817D01*
X328450Y187549D02*
X347718D01*
X341850Y153349D02*
X347682D01*
X328455Y189349D02*
X347590D01*
X332489Y227599D02*
X347523D01*
X207450Y335149D02*
X347388D01*
X328450Y175399D02*
X347368D01*
X342081Y152899D02*
X347252D01*
X207450Y335599D02*
X346955D01*
X328450Y174949D02*
X346918D01*
X328956Y180799D02*
X346914D01*
X342331Y152449D02*
X346817D01*
X328450Y187099D02*
X346683D01*
X207450Y336049D02*
X346517D01*
X328450Y174499D02*
X346468D01*
X342502Y151999D02*
X346379D01*
X328816Y181249D02*
X346118D01*
X207450Y336499D02*
X346076D01*
X328450Y174049D02*
X346018D01*
X328450Y186649D02*
X345989D01*
X342606Y151549D02*
X345936D01*
X207450Y336949D02*
X345630D01*
X328603Y181699D02*
X345630D01*
X328450Y173599D02*
X345568D01*
X328450Y186199D02*
X345541D01*
X342649Y151099D02*
X345489D01*
X341850Y162349D02*
X345446D01*
X328450Y182149D02*
X345289D01*
X328450Y185749D02*
X345226D01*
X207450Y337399D02*
X345180D01*
X328450Y173149D02*
X345118D01*
X328450Y182599D02*
X345047D01*
X342632Y150649D02*
X345037D01*
X328450Y185299D02*
X345004D01*
X328450Y183049D02*
X344884D01*
X328450Y184849D02*
X344856D01*
X328450Y183499D02*
X344787D01*
X328450Y184399D02*
X344773D01*
X328450Y183949D02*
X344750D01*
X207450Y337849D02*
X344725D01*
X328450Y172699D02*
X344668D01*
X341850Y162799D02*
X344586D01*
X342556Y150199D02*
X344581D01*
X328450Y172249D02*
X344275D01*
X207450Y338299D02*
X344266D01*
X342415Y149749D02*
X344121D01*
X341850Y163249D02*
X344075D01*
X328450Y171799D02*
X344014D01*
X340410Y171349D02*
X343850D01*
X207450Y338749D02*
X343802D01*
X341149Y170899D02*
X343766D01*
X341616Y170449D02*
X343750D01*
X341944Y169999D02*
X343750D01*
X342175Y169549D02*
X343750D01*
X342331Y169099D02*
X343750D01*
X342421Y168649D02*
X343750D01*
X342450Y168199D02*
X343750D01*
X342420Y167749D02*
X343750D01*
X341850Y163699D02*
X343721D01*
X342201Y149299D02*
X343656D01*
X342330Y167299D02*
X343597D01*
X331614Y231199D02*
X343483D01*
X341850Y164149D02*
X343470D01*
X342174Y166849D02*
X343384D01*
X207450Y339199D02*
X343334D01*
X341850Y164599D02*
X343298D01*
X341942Y166399D02*
X343244D01*
X341850Y165049D02*
X343194D01*
X341897Y148849D02*
X343186D01*
X341850Y165949D02*
X343168D01*
X341850Y165499D02*
X343151D01*
X207450Y339649D02*
X342862D01*
X323365Y256849D02*
X342712D01*
X341466Y148399D02*
X342712D01*
X207450Y340099D02*
X342384D01*
X340810Y147949D02*
X342233D01*
X320814Y147499D02*
X341749D01*
X331614Y231649D02*
X341544D01*
X320850Y147049D02*
X341260D01*
X323365Y256399D02*
X341118D01*
X320827Y146599D02*
X340766D01*
X331614Y232099D02*
X340326D01*
X320743Y146149D02*
X340268D01*
X323365Y255949D02*
X340007D01*
X320595Y145699D02*
X339764D01*
X331614Y232549D02*
X339380D01*
X320372Y145249D02*
X339254D01*
X323365Y255499D02*
X339118D01*
X320056Y144799D02*
X338740D01*
X331614Y232999D02*
X338593D01*
X323365Y255049D02*
X338369D01*
X319608Y144349D02*
X338220D01*
X331614Y233449D02*
X337913D01*
X323338Y254599D02*
X337717D01*
X318911Y143899D02*
X337694D01*
X320717Y147949D02*
X337590D01*
X328450Y171349D02*
X337590D01*
X331614Y233899D02*
X337315D01*
X295450Y143449D02*
X337163D01*
X326743Y254149D02*
X337141D01*
X320554Y148399D02*
X336934D01*
X328450Y170899D02*
X336851D01*
X331614Y234349D02*
X336781D01*
X295450Y142999D02*
X336626D01*
X327713Y253699D02*
X336624D01*
X328450Y165499D02*
X336550D01*
X328450Y165049D02*
X336550D01*
X328450Y164599D02*
X336550D01*
X328450Y164149D02*
X336550D01*
X328450Y163699D02*
X336550D01*
X328450Y163249D02*
X336550D01*
X328450Y162799D02*
X336550D01*
X328450Y162349D02*
X336550D01*
X328450Y161899D02*
X336550D01*
X328450Y161449D02*
X336550D01*
X328450Y160999D02*
X336550D01*
X328450Y160549D02*
X336550D01*
X328450Y160099D02*
X336550D01*
X328450Y159649D02*
X336550D01*
X328450Y159199D02*
X336550D01*
X328450Y158749D02*
X336550D01*
X328450Y158299D02*
X336550D01*
X328450Y157849D02*
X336550D01*
X328450Y157399D02*
X336550D01*
X328450Y156949D02*
X336550D01*
X328450Y156499D02*
X336550D01*
X328450Y156049D02*
X336550D01*
X328450Y155599D02*
X336550D01*
X328450Y155149D02*
X336550D01*
X328450Y154699D02*
X336550D01*
X328450Y154249D02*
X336550D01*
X328422Y153799D02*
X336550D01*
X328320Y153349D02*
X336550D01*
X323744Y148849D02*
X336503D01*
X328450Y165949D02*
X336386D01*
X328450Y170449D02*
X336384D01*
X328136Y152899D02*
X336319D01*
X331614Y234799D02*
X336300D01*
X324681Y149299D02*
X336199D01*
X328228Y253249D02*
X336159D01*
X295450Y142549D02*
X336083D01*
X327848Y152449D02*
X336069D01*
X328450Y166399D02*
X336058D01*
X328450Y169999D02*
X336056D01*
X325179Y149749D02*
X335985D01*
X327429Y151999D02*
X335898D01*
X331614Y235249D02*
X335865D01*
X325629Y150199D02*
X335844D01*
X328450Y166849D02*
X335826D01*
X328450Y169549D02*
X335825D01*
X326979Y151549D02*
X335794D01*
X326079Y150649D02*
X335768D01*
X326529Y151099D02*
X335751D01*
X328678Y252799D02*
X335736D01*
X328450Y167299D02*
X335670D01*
X328450Y169099D02*
X335669D01*
X328450Y167749D02*
X335580D01*
X328450Y168649D02*
X335579D01*
X328450Y168199D02*
X335550D01*
X295450Y142099D02*
X335534D01*
X331614Y235699D02*
X335468D01*
X329128Y252349D02*
X335351D01*
X331614Y236149D02*
X335107D01*
X329578Y251899D02*
X334999D01*
X295450Y141649D02*
X334979D01*
X331614Y236599D02*
X334776D01*
X330028Y251449D02*
X334678D01*
X331614Y237049D02*
X334474D01*
X295471Y141199D02*
X334418D01*
X330478Y250999D02*
X334384D01*
X331614Y237499D02*
X334198D01*
X330910Y250549D02*
X334116D01*
X331614Y237949D02*
X333946D01*
X331220Y250099D02*
X333871D01*
X295774Y140749D02*
X333851D01*
X331614Y238399D02*
X333717D01*
X331428Y249649D02*
X333649D01*
X331614Y238849D02*
X333509D01*
X331554Y249199D02*
X333447D01*
X331614Y239299D02*
X333321D01*
X295996Y140299D02*
X333277D01*
X331610Y248749D02*
X333266D01*
X331614Y239749D02*
X333153D01*
X331614Y248299D02*
X333103D01*
X331614Y240199D02*
X333003D01*
X331614Y247849D02*
X332959D01*
X331614Y240649D02*
X332871D01*
X331614Y247399D02*
X332833D01*
X331614Y241099D02*
X332756D01*
X331614Y246949D02*
X332724D01*
X296144Y139849D02*
X332696D01*
X331614Y241549D02*
X332658D01*
X331614Y246499D02*
X332631D01*
X331614Y241999D02*
X332577D01*
X331614Y246049D02*
X332555D01*
X331614Y242449D02*
X332512D01*
X331614Y245599D02*
X332494D01*
X331614Y242899D02*
X332462D01*
X331614Y245149D02*
X332450D01*
X331614Y243349D02*
X332429D01*
X331614Y244699D02*
X332421D01*
X331614Y243799D02*
X332411D01*
X331614Y244249D02*
X332408D01*
X296227Y139399D02*
X332109D01*
X296250Y138949D02*
X331515D01*
X296213Y138499D02*
X330913D01*
X296116Y138049D02*
X330305D01*
X295953Y137599D02*
X329689D01*
X295711Y137149D02*
X329065D01*
X295370Y136699D02*
X328434D01*
X294882Y136249D02*
X327794D01*
X294086Y135799D02*
X327147D01*
X310250Y195199D02*
X326662D01*
X178233Y135349D02*
X326491D01*
X178898Y134899D02*
X325827D01*
X310250Y194749D02*
X325586D01*
X179571Y134449D02*
X325153D01*
X310250Y194299D02*
X325068D01*
X310250Y193849D02*
X324618D01*
X180254Y133999D02*
X324471D01*
X310250Y193399D02*
X324168D01*
X180945Y133549D02*
X323779D01*
X310250Y192949D02*
X323718D01*
X310250Y192499D02*
X323312D01*
X181647Y133099D02*
X323078D01*
X310250Y192049D02*
X323038D01*
X310250Y191599D02*
X322864D01*
X310250Y191149D02*
X322771D01*
X310250Y190699D02*
X322750D01*
X310250Y190249D02*
X322750D01*
X310250Y189799D02*
X322750D01*
X310250Y189349D02*
X322750D01*
X310250Y188899D02*
X322750D01*
X310250Y188449D02*
X322750D01*
X310250Y187999D02*
X322750D01*
X310250Y187549D02*
X322750D01*
X310250Y187099D02*
X322750D01*
X310250Y186649D02*
X322750D01*
X310250Y186199D02*
X322750D01*
X310250Y185749D02*
X322750D01*
X310250Y185299D02*
X322750D01*
X310250Y184849D02*
X322750D01*
X310250Y184399D02*
X322750D01*
X310250Y183949D02*
X322750D01*
X310250Y183499D02*
X322750D01*
X310250Y183049D02*
X322750D01*
X310250Y182599D02*
X322750D01*
X310250Y182149D02*
X322750D01*
X309878Y177649D02*
X322750D01*
X309541Y177199D02*
X322750D01*
X309093Y176749D02*
X322750D01*
X308647Y176299D02*
X322750D01*
X308687Y175849D02*
X322750D01*
X308798Y175399D02*
X322750D01*
X308847Y174949D02*
X322750D01*
X308837Y174499D02*
X322750D01*
X308767Y174049D02*
X322750D01*
X308634Y173599D02*
X322750D01*
X308429Y173149D02*
X322750D01*
X308136Y172699D02*
X322750D01*
X307722Y172249D02*
X322750D01*
X307101Y171799D02*
X322750D01*
X295319Y171349D02*
X322750D01*
X310811Y170899D02*
X322750D01*
X311746Y170449D02*
X322750D01*
X312280Y169999D02*
X322750D01*
X312647Y169549D02*
X322750D01*
X312908Y169099D02*
X322750D01*
X313087Y168649D02*
X322750D01*
X313198Y168199D02*
X322750D01*
X313247Y167749D02*
X322750D01*
X313237Y167299D02*
X322750D01*
X313167Y166849D02*
X322750D01*
X313034Y166399D02*
X322750D01*
X312829Y165949D02*
X322750D01*
X312536Y165499D02*
X322750D01*
X312122Y165049D02*
X322750D01*
X311501Y164599D02*
X322750D01*
X295450Y164149D02*
X322750D01*
X295450Y163699D02*
X322750D01*
X295450Y163249D02*
X322750D01*
X295450Y162799D02*
X322750D01*
X295450Y162349D02*
X322750D01*
X295450Y161899D02*
X322750D01*
X295450Y161449D02*
X322750D01*
X295450Y160999D02*
X322750D01*
X295450Y160549D02*
X322750D01*
X295450Y160099D02*
X322750D01*
X295450Y159649D02*
X322750D01*
X295450Y159199D02*
X322750D01*
X295450Y158749D02*
X322750D01*
X295450Y158299D02*
X322750D01*
X295450Y157849D02*
X322750D01*
X295450Y157399D02*
X322750D01*
X295450Y156949D02*
X322750D01*
X295450Y156499D02*
X322750D01*
X295450Y156049D02*
X322750D01*
X295450Y155599D02*
X322750D01*
X310091Y178099D02*
X322720D01*
X310250Y181699D02*
X322597D01*
X295450Y155149D02*
X322518D01*
X310211Y178549D02*
X322470D01*
X310250Y181249D02*
X322384D01*
X182358Y132649D02*
X322366D01*
X310250Y178999D02*
X322298D01*
X310250Y180799D02*
X322244D01*
X310250Y179449D02*
X322194D01*
X310250Y180349D02*
X322168D01*
X310250Y179899D02*
X322151D01*
X313211Y154699D02*
X322068D01*
X183080Y132199D02*
X321645D01*
X183812Y131749D02*
X320913D01*
X184555Y131299D02*
X320170D01*
X185309Y130849D02*
X319415D01*
X186075Y130399D02*
X318649D01*
X316926Y259549D02*
X318304D01*
X186853Y129949D02*
X317871D01*
X187643Y129499D02*
X317081D01*
X188447Y129049D02*
X316278D01*
X295450Y143899D02*
X315889D01*
X189263Y128599D02*
X315461D01*
X295450Y144349D02*
X315192D01*
X295450Y144799D02*
X314744D01*
X190094Y128149D02*
X314630D01*
X295450Y145249D02*
X314428D01*
X295450Y145699D02*
X314205D01*
X295450Y147949D02*
X314083D01*
X295450Y146149D02*
X314057D01*
X295450Y147499D02*
X313986D01*
X295450Y146599D02*
X313973D01*
X295450Y147049D02*
X313950D01*
X190940Y127699D02*
X313785D01*
X191800Y127249D02*
X312924D01*
X192676Y126799D02*
X312048D01*
X295450Y154699D02*
X311189D01*
X193569Y126349D02*
X311156D01*
X295450Y148399D02*
X310499D01*
X295450Y154249D02*
X310254D01*
X194479Y125899D02*
X310246D01*
X295450Y148849D02*
X309878D01*
X295450Y153799D02*
X309720D01*
X295450Y149299D02*
X309464D01*
X295450Y153349D02*
X309353D01*
X195407Y125449D02*
X309317D01*
X295450Y149749D02*
X309171D01*
X295450Y152899D02*
X309092D01*
X295450Y150199D02*
X308966D01*
X295450Y152449D02*
X308913D01*
X295450Y150649D02*
X308833D01*
X295450Y151999D02*
X308802D01*
X295170Y170899D02*
X308789D01*
X295450Y151099D02*
X308763D01*
X295450Y151549D02*
X308753D01*
X196354Y124999D02*
X308370D01*
X295469Y164599D02*
X308099D01*
X197321Y124549D02*
X307403D01*
X198309Y124099D02*
X306415D01*
X199319Y123649D02*
X305405D01*
X278371Y196099D02*
X304950D01*
X278371Y195649D02*
X304950D01*
X278371Y195199D02*
X304950D01*
X278371Y194749D02*
X304950D01*
X278371Y194299D02*
X304950D01*
X278371Y193849D02*
X304950D01*
X278371Y193399D02*
X304950D01*
X278371Y192949D02*
X304950D01*
X278371Y192499D02*
X304950D01*
X278371Y192049D02*
X304950D01*
X278371Y191599D02*
X304950D01*
X278371Y191149D02*
X304950D01*
X278371Y190699D02*
X304950D01*
X278371Y190249D02*
X304950D01*
X278371Y189799D02*
X304950D01*
X278371Y189349D02*
X304950D01*
X278371Y188899D02*
X304950D01*
X278371Y188449D02*
X304950D01*
X278371Y187999D02*
X304950D01*
X278371Y187549D02*
X304950D01*
X278371Y187099D02*
X304950D01*
X278371Y186649D02*
X304950D01*
X278371Y186199D02*
X304950D01*
X278371Y185749D02*
X304950D01*
X278371Y185299D02*
X304950D01*
X278371Y184849D02*
X304950D01*
X278371Y184399D02*
X304950D01*
X278371Y183949D02*
X304950D01*
X278371Y183499D02*
X304950D01*
X278371Y183049D02*
X304950D01*
X278371Y182599D02*
X304950D01*
X278371Y182149D02*
X304950D01*
X278371Y181699D02*
X304950D01*
X285296Y181249D02*
X304950D01*
X285979Y180799D02*
X304950D01*
X286341Y180349D02*
X304950D01*
X286551Y179899D02*
X304748D01*
X278371Y196549D02*
X304689D01*
X278371Y196999D02*
X304447D01*
X200353Y123199D02*
X304371D01*
X286654Y179449D02*
X304298D01*
X278371Y197449D02*
X304284D01*
X278371Y197899D02*
X304187D01*
X286670Y178999D02*
X303848D01*
X295370Y171799D02*
X303699D01*
X286670Y178549D02*
X303406D01*
X201412Y122749D02*
X303312D01*
X286670Y178099D02*
X303088D01*
X295370Y172249D02*
X303078D01*
X293471Y177649D02*
X302889D01*
X294506Y177199D02*
X302780D01*
X295370Y172699D02*
X302664D01*
X294941Y176749D02*
X302553D01*
X295370Y173149D02*
X302371D01*
X295194Y176299D02*
X302292D01*
X202497Y122299D02*
X302227D01*
X295370Y173599D02*
X302166D01*
X295330Y175849D02*
X302113D01*
X295370Y174049D02*
X302033D01*
X295370Y175399D02*
X302002D01*
X295370Y174499D02*
X301963D01*
X295370Y174949D02*
X301953D01*
X203611Y121849D02*
X301114D01*
X204755Y121399D02*
X299970D01*
X205931Y120949D02*
X298793D01*
X207143Y120499D02*
X297582D01*
X208392Y120049D02*
X296332D01*
X209683Y119599D02*
X295042D01*
X211019Y119149D02*
X293706D01*
X212404Y118699D02*
X292320D01*
X177578Y135799D02*
X291514D01*
X213845Y118249D02*
X290879D01*
X289841Y324349D02*
X290790D01*
X176930Y136249D02*
X290718D01*
X176291Y136699D02*
X290230D01*
X148865Y162799D02*
X290150D01*
X149220Y162349D02*
X290150D01*
X149578Y161899D02*
X290150D01*
X149940Y161449D02*
X290150D01*
X150304Y160999D02*
X290150D01*
X150672Y160549D02*
X290150D01*
X151044Y160099D02*
X290150D01*
X151418Y159649D02*
X290150D01*
X151797Y159199D02*
X290150D01*
X152178Y158749D02*
X290150D01*
X152563Y158299D02*
X290150D01*
X152952Y157849D02*
X290150D01*
X153344Y157399D02*
X290150D01*
X153740Y156949D02*
X290150D01*
X154139Y156499D02*
X290150D01*
X154543Y156049D02*
X290150D01*
X154950Y155599D02*
X290150D01*
X155360Y155149D02*
X290150D01*
X155775Y154699D02*
X290150D01*
X156193Y154249D02*
X290150D01*
X156616Y153799D02*
X290150D01*
X157042Y153349D02*
X290150D01*
X224695Y152899D02*
X290150D01*
X225708Y152449D02*
X290150D01*
X226435Y151999D02*
X290150D01*
X227011Y151549D02*
X290150D01*
X227486Y151099D02*
X290150D01*
X227885Y150649D02*
X290150D01*
X228224Y150199D02*
X290150D01*
X228512Y149749D02*
X290150D01*
X228756Y149299D02*
X290150D01*
X228961Y148849D02*
X290150D01*
X229131Y148399D02*
X290150D01*
X229267Y147949D02*
X290150D01*
X229373Y147499D02*
X290150D01*
X229449Y147049D02*
X290150D01*
X229496Y146599D02*
X290150D01*
X229515Y146149D02*
X290150D01*
X229506Y145699D02*
X290150D01*
X229469Y145249D02*
X290150D01*
X229404Y144799D02*
X290150D01*
X229309Y144349D02*
X290150D01*
X229184Y143899D02*
X290150D01*
X229026Y143449D02*
X290150D01*
X228834Y142999D02*
X290150D01*
X228604Y142549D02*
X290150D01*
X228333Y142099D02*
X290150D01*
X228013Y141649D02*
X290150D01*
X148513Y163249D02*
X290145D01*
X227637Y141199D02*
X290129D01*
X175659Y137149D02*
X289889D01*
X227192Y140749D02*
X289826D01*
X148164Y163699D02*
X289750D01*
X175036Y137599D02*
X289647D01*
X226657Y140299D02*
X289604D01*
X284853Y267649D02*
X289586D01*
X174420Y138049D02*
X289484D01*
X225992Y139849D02*
X289456D01*
X173811Y138499D02*
X289387D01*
X215347Y117799D02*
X289377D01*
X225109Y139399D02*
X289373D01*
X223637Y138949D02*
X289350D01*
X285474Y267199D02*
X289012D01*
X285813Y266749D02*
X288562D01*
X286010Y266299D02*
X288112D01*
X216919Y117349D02*
X287806D01*
X286670Y177649D02*
X287770D01*
X286101Y265849D02*
X287662D01*
X286112Y265399D02*
X287212D01*
X286112Y264949D02*
X286762D01*
X218569Y116899D02*
X286155D01*
X249774Y324349D02*
X285790D01*
X249391Y323899D02*
X285049D01*
X267595Y318499D02*
X284903D01*
X267659Y318949D02*
X284720D01*
X248638Y323449D02*
X284670D01*
X280730Y307699D02*
X284590D01*
X274083Y307249D02*
X284501D01*
X267652Y319399D02*
X284477D01*
X244522Y322999D02*
X284448D01*
X220311Y116449D02*
X284413D01*
X267573Y319849D02*
X284349D01*
X244522Y322549D02*
X284337D01*
X244522Y322099D02*
X284315D01*
X266197Y321649D02*
X284315D01*
X266794Y321199D02*
X284315D01*
X267169Y320749D02*
X284315D01*
X267417Y320299D02*
X284315D01*
X281383Y318049D02*
X284023D01*
X281592Y308149D02*
X283815D01*
X281883Y317599D02*
X283524D01*
X282000Y308599D02*
X283407D01*
X282170Y317149D02*
X283236D01*
X282238Y309049D02*
X283168D01*
X282331Y316699D02*
X283075D01*
X282363Y309499D02*
X283043D01*
X282393Y316249D02*
X283014D01*
X282394Y315799D02*
X283012D01*
X282394Y315349D02*
X283012D01*
X282394Y314899D02*
X283012D01*
X282394Y314449D02*
X283012D01*
X282394Y313999D02*
X283012D01*
X282394Y313549D02*
X283012D01*
X282394Y313099D02*
X283012D01*
X282394Y312649D02*
X283012D01*
X282394Y312199D02*
X283012D01*
X282394Y311749D02*
X283012D01*
X282394Y311299D02*
X283012D01*
X282394Y310849D02*
X283012D01*
X282394Y310399D02*
X283012D01*
X282394Y309949D02*
X283012D01*
X222160Y115999D02*
X282565D01*
X279781Y267649D02*
X280871D01*
X224136Y115549D02*
X280588D01*
X278371Y181249D02*
X279944D01*
X278371Y180799D02*
X279261D01*
X226270Y115099D02*
X278455D01*
X228603Y114649D02*
X276122D01*
X272650Y267649D02*
X275798D01*
X272627Y267199D02*
X275178D01*
X272543Y266749D02*
X274838D01*
X272102Y262249D02*
X274719D01*
X271915Y261799D02*
X274684D01*
X272395Y266299D02*
X274641D01*
X272222Y262699D02*
X274581D01*
X272230Y265849D02*
X274550D01*
X272250Y265399D02*
X274539D01*
X272250Y264949D02*
X274539D01*
X272250Y264499D02*
X274539D01*
X272250Y264049D02*
X274539D01*
X272250Y263599D02*
X274539D01*
X272250Y263149D02*
X274539D01*
X274257Y307699D02*
X274441D01*
X272103Y261349D02*
X274129D01*
X267456Y318049D02*
X273787D01*
X272223Y260899D02*
X273679D01*
X231201Y114199D02*
X273524D01*
X267475Y317599D02*
X273288D01*
X272250Y260449D02*
X273229D01*
X272261Y259999D02*
X272779D01*
X260530Y197899D02*
X271871D01*
X260450Y197449D02*
X271871D01*
X260556Y196999D02*
X271871D01*
X260632Y196549D02*
X271871D01*
X260649Y196099D02*
X271871D01*
X260606Y195649D02*
X271871D01*
X260502Y195199D02*
X271871D01*
X260455Y194749D02*
X271871D01*
X260579Y194299D02*
X271871D01*
X260641Y193849D02*
X271871D01*
X260644Y193399D02*
X271871D01*
X260588Y192949D02*
X271871D01*
X260470Y192499D02*
X271871D01*
X260282Y192049D02*
X271871D01*
X260010Y191599D02*
X271871D01*
X259628Y191149D02*
X271871D01*
X259067Y190699D02*
X271871D01*
X258019Y190249D02*
X271871D01*
X212241Y189799D02*
X271871D01*
X206650Y189349D02*
X271871D01*
X206650Y188899D02*
X271871D01*
X206650Y188449D02*
X271871D01*
X206650Y187999D02*
X271871D01*
X206650Y187549D02*
X271871D01*
X206650Y187099D02*
X271871D01*
X206650Y186649D02*
X271871D01*
X206650Y186199D02*
X271871D01*
X206650Y185749D02*
X271871D01*
X206650Y185299D02*
X271871D01*
X206650Y184849D02*
X271871D01*
X206650Y184399D02*
X271871D01*
X206650Y183949D02*
X271871D01*
X206650Y183499D02*
X271871D01*
X206650Y183049D02*
X271871D01*
X206650Y182599D02*
X271871D01*
X206650Y182149D02*
X271871D01*
X206650Y181699D02*
X271871D01*
X256896Y181249D02*
X271871D01*
X271513Y180799D02*
X271720D01*
X234177Y113749D02*
X270547D01*
X267606Y317149D02*
X268806D01*
X257579Y180799D02*
X268329D01*
X267662Y316699D02*
X268214D01*
X247250Y270799D02*
X267907D01*
X257941Y180349D02*
X267471D01*
X247250Y270349D02*
X267115D01*
X237761Y113299D02*
X266963D01*
X247250Y269899D02*
X266627D01*
X247250Y269449D02*
X266287D01*
X247250Y268999D02*
X266046D01*
X247250Y268549D02*
X265883D01*
X247250Y255499D02*
X265870D01*
X247250Y255049D02*
X265870D01*
X247250Y254599D02*
X265870D01*
X247250Y254149D02*
X265870D01*
X247250Y253699D02*
X265870D01*
X247250Y253249D02*
X265870D01*
X247250Y252799D02*
X265870D01*
X247250Y252349D02*
X265870D01*
X247250Y268099D02*
X265786D01*
X247250Y251899D02*
X264553D01*
X247250Y251449D02*
X263778D01*
X247250Y250999D02*
X263390D01*
X247417Y250549D02*
X263163D01*
X247250Y220399D02*
X263111D01*
X247250Y219949D02*
X263111D01*
X247250Y219499D02*
X263111D01*
X247250Y219049D02*
X263111D01*
X247250Y218599D02*
X263111D01*
X247250Y220849D02*
X263061D01*
X260937Y250099D02*
X263047D01*
X247250Y221299D02*
X263023D01*
X247250Y224899D02*
X263022D01*
X247250Y224449D02*
X263022D01*
X247250Y223999D02*
X263022D01*
X247250Y223549D02*
X263022D01*
X247250Y223099D02*
X263022D01*
X247250Y222649D02*
X263022D01*
X247250Y222199D02*
X263022D01*
X247250Y221749D02*
X263022D01*
X247250Y255949D02*
X262196D01*
X247250Y267649D02*
X262189D01*
X258151Y179899D02*
X262160D01*
X242602Y112849D02*
X262123D01*
X247250Y256399D02*
X261472D01*
X247250Y267199D02*
X261469D01*
X247250Y225349D02*
X261446D01*
X258254Y179449D02*
X261324D01*
X247250Y256849D02*
X261098D01*
X247250Y266749D02*
X261096D01*
X247250Y261799D02*
X261085D01*
X247250Y262249D02*
X260898D01*
X247250Y261349D02*
X260897D01*
X247250Y257299D02*
X260879D01*
X247250Y266299D02*
X260878D01*
X258270Y178999D02*
X260851D01*
X247250Y262699D02*
X260778D01*
X247250Y260899D02*
X260777D01*
X247250Y257749D02*
X260770D01*
X247250Y265849D02*
X260770D01*
X247250Y265399D02*
X260750D01*
X247250Y264949D02*
X260750D01*
X247250Y264499D02*
X260750D01*
X247250Y264049D02*
X260750D01*
X247250Y263599D02*
X260750D01*
X247250Y263149D02*
X260750D01*
X247250Y260449D02*
X260750D01*
X247250Y259999D02*
X260750D01*
X247250Y259549D02*
X260750D01*
X247250Y259099D02*
X260750D01*
X247250Y258649D02*
X260750D01*
X247250Y258199D02*
X260750D01*
X247250Y225799D02*
X260586D01*
X258270Y178549D02*
X260401D01*
X247250Y226249D02*
X260075D01*
X258270Y178099D02*
X260021D01*
X247250Y226699D02*
X259721D01*
X247250Y227149D02*
X259470D01*
X247250Y218149D02*
X259465D01*
X258270Y177649D02*
X259370D01*
X247250Y227599D02*
X259298D01*
X247250Y228049D02*
X259194D01*
X255251Y228499D02*
X256941D01*
X247250Y217699D02*
X256785D01*
X213248Y190249D02*
X256381D01*
X255737Y250099D02*
X256276D01*
X247250Y217249D02*
X256095D01*
X247250Y216799D02*
X255630D01*
X213710Y190699D02*
X255333D01*
X247250Y216349D02*
X255180D01*
X213994Y191149D02*
X254772D01*
X247250Y215899D02*
X254742D01*
X247250Y215449D02*
X254415D01*
X214164Y191599D02*
X254390D01*
X247250Y214999D02*
X254190D01*
X214242Y192049D02*
X254118D01*
X247250Y214549D02*
X254044D01*
X247250Y214099D02*
X253966D01*
X247250Y213649D02*
X253950D01*
X247250Y213199D02*
X253950D01*
X247250Y212749D02*
X253950D01*
X247250Y212299D02*
X253950D01*
X247250Y211849D02*
X253950D01*
X247250Y211399D02*
X253950D01*
X247250Y210949D02*
X253950D01*
X247250Y210499D02*
X253950D01*
X247250Y210049D02*
X253950D01*
X247250Y209599D02*
X253950D01*
X247250Y209149D02*
X253950D01*
X247250Y208699D02*
X253950D01*
X247250Y208249D02*
X253950D01*
X247250Y207799D02*
X253950D01*
X247250Y207349D02*
X253950D01*
X247250Y206899D02*
X253950D01*
X247250Y206449D02*
X253950D01*
X247250Y205999D02*
X253950D01*
X247250Y205549D02*
X253950D01*
X247250Y205099D02*
X253950D01*
X247250Y204649D02*
X253950D01*
X247250Y204199D02*
X253950D01*
X247250Y203749D02*
X253950D01*
X247250Y203299D02*
X253950D01*
X247250Y202849D02*
X253950D01*
X247250Y202399D02*
X253950D01*
X247250Y201949D02*
X253950D01*
X247250Y201499D02*
X253950D01*
X247250Y201049D02*
X253950D01*
X247250Y200599D02*
X253950D01*
X247250Y200149D02*
X253950D01*
X245446Y197449D02*
X253950D01*
X214250Y194749D02*
X253945D01*
X214250Y192499D02*
X253930D01*
X214250Y195199D02*
X253898D01*
X246313Y197899D02*
X253870D01*
X247245Y199699D02*
X253869D01*
X214250Y196999D02*
X253844D01*
X214250Y194299D02*
X253821D01*
X214250Y192949D02*
X253812D01*
X214250Y195649D02*
X253794D01*
X246749Y198349D02*
X253780D01*
X247177Y199249D02*
X253779D01*
X214250Y196549D02*
X253768D01*
X214250Y193849D02*
X253759D01*
X214250Y193399D02*
X253756D01*
X214250Y196099D02*
X253751D01*
X247018Y198799D02*
X253750D01*
X250251Y228499D02*
X251563D01*
X206618Y181249D02*
X251544D01*
X250737Y250099D02*
X251076D01*
X206501Y180799D02*
X250861D01*
X206285Y180349D02*
X250500D01*
X206050Y179899D02*
X250289D01*
X205335Y179449D02*
X250187D01*
X137980Y178999D02*
X250170D01*
X138237Y178549D02*
X250170D01*
X249472Y178099D02*
X250170D01*
X244522Y321649D02*
X249911D01*
X244522Y321199D02*
X249074D01*
X244522Y320749D02*
X248601D01*
X244522Y320299D02*
X248151D01*
X244522Y319849D02*
X247701D01*
X244522Y319399D02*
X247251D01*
X244522Y318949D02*
X246809D01*
X244522Y318499D02*
X246490D01*
X244522Y318049D02*
X246290D01*
X244522Y317599D02*
X246180D01*
X244477Y317149D02*
X246150D01*
X244363Y316699D02*
X246150D01*
X244170Y316249D02*
X246150D01*
X243879Y315799D02*
X246150D01*
X243462Y315349D02*
X246150D01*
X243012Y314899D02*
X246150D01*
X242562Y314449D02*
X246150D01*
X242012Y313999D02*
X246150D01*
X240858Y313549D02*
X246150D01*
X240803Y313099D02*
X246150D01*
X241016Y312649D02*
X246150D01*
X241244Y312199D02*
X246150D01*
X242391Y311749D02*
X246150D01*
X242979Y311299D02*
X246150D01*
X243376Y310849D02*
X246150D01*
X243657Y310399D02*
X246150D01*
X243853Y309949D02*
X246108D01*
X244325Y178099D02*
X245262D01*
X243979Y309499D02*
X244683D01*
X234717Y178099D02*
X240075D01*
X235411Y177649D02*
X239522D01*
X147818Y164149D02*
X235402D01*
X147476Y164599D02*
X234854D01*
X147136Y165049D02*
X234404D01*
X146800Y165499D02*
X233968D01*
X146466Y165949D02*
X233664D01*
X146136Y166399D02*
X233474D01*
X145808Y166849D02*
X233373D01*
X144212Y169099D02*
X233350D01*
X144526Y168649D02*
X233350D01*
X144842Y168199D02*
X233350D01*
X145161Y167749D02*
X233350D01*
X145483Y167299D02*
X233350D01*
X143902Y169549D02*
X233089D01*
X143594Y169999D02*
X232847D01*
X143289Y170449D02*
X232684D01*
X142986Y170899D02*
X232587D01*
X142686Y171349D02*
X232550D01*
X142389Y171799D02*
X231914D01*
X138497Y178099D02*
X231683D01*
X142095Y172249D02*
X231118D01*
X138759Y177649D02*
X230989D01*
X141803Y172699D02*
X230630D01*
X139023Y177199D02*
X230541D01*
X141514Y173149D02*
X230289D01*
X139290Y176749D02*
X230226D01*
X141227Y173599D02*
X230047D01*
X139559Y176299D02*
X230004D01*
X140943Y174049D02*
X229884D01*
X139831Y175849D02*
X229856D01*
X140661Y174499D02*
X229787D01*
X140105Y175399D02*
X229773D01*
X140382Y174949D02*
X229750D01*
X207686Y138949D02*
X220894D01*
X208230Y152899D02*
X219836D01*
X208998Y139399D02*
X219422D01*
X209313Y152449D02*
X218824D01*
X209837Y139849D02*
X218539D01*
X210072Y151999D02*
X218096D01*
X210479Y140299D02*
X217875D01*
X210666Y151549D02*
X217520D01*
X210999Y140749D02*
X217339D01*
X211154Y151099D02*
X217045D01*
X211432Y141199D02*
X216894D01*
X211563Y150649D02*
X216646D01*
X211799Y141649D02*
X216518D01*
X211910Y150199D02*
X216308D01*
X212111Y142099D02*
X216199D01*
X212206Y149749D02*
X216020D01*
X212376Y142549D02*
X215927D01*
X212456Y149299D02*
X215775D01*
X212600Y142999D02*
X215697D01*
X212667Y148849D02*
X215570D01*
X212786Y143449D02*
X215505D01*
X212842Y148399D02*
X215401D01*
X212939Y143899D02*
X215348D01*
X212983Y147949D02*
X215264D01*
X213059Y144349D02*
X215222D01*
X213093Y147499D02*
X215158D01*
X213150Y144799D02*
X215128D01*
X213174Y147049D02*
X215082D01*
X213211Y145249D02*
X215062D01*
X213225Y146599D02*
X215035D01*
X213244Y145699D02*
X215025D01*
X213248Y146149D02*
X215016D01*
X191086Y138949D02*
X204314D01*
X191630Y152899D02*
X203770D01*
X192398Y139399D02*
X203002D01*
X192713Y152449D02*
X202687D01*
X193237Y139849D02*
X202163D01*
X193472Y151999D02*
X201928D01*
X193879Y140299D02*
X201521D01*
X194066Y151549D02*
X201334D01*
X194399Y140749D02*
X201001D01*
X194554Y151099D02*
X200846D01*
X194832Y141199D02*
X200568D01*
X194963Y150649D02*
X200437D01*
X195199Y141649D02*
X200201D01*
X195310Y150199D02*
X200090D01*
X195511Y142099D02*
X199889D01*
X195606Y149749D02*
X199794D01*
X195776Y142549D02*
X199624D01*
X195856Y149299D02*
X199544D01*
X196000Y142999D02*
X199400D01*
X196067Y148849D02*
X199333D01*
X196186Y143449D02*
X199214D01*
X196242Y148399D02*
X199158D01*
X196339Y143899D02*
X199061D01*
X196383Y147949D02*
X199017D01*
X196459Y144349D02*
X198941D01*
X196493Y147499D02*
X198907D01*
X196550Y144799D02*
X198850D01*
X196574Y147049D02*
X198826D01*
X196611Y145249D02*
X198789D01*
X196625Y146599D02*
X198775D01*
X196644Y145699D02*
X198756D01*
X196648Y146149D02*
X198752D01*
X173210Y138949D02*
X187714D01*
X157472Y152899D02*
X187170D01*
X172616Y139399D02*
X186402D01*
X157907Y152449D02*
X186087D01*
X172028Y139849D02*
X185563D01*
X158346Y151999D02*
X185328D01*
X171448Y140299D02*
X184921D01*
X158789Y151549D02*
X184734D01*
X170874Y140749D02*
X184401D01*
X159236Y151099D02*
X184246D01*
X170306Y141199D02*
X183968D01*
X159687Y150649D02*
X183837D01*
X169745Y141649D02*
X183601D01*
X160143Y150199D02*
X183490D01*
X169190Y142099D02*
X183289D01*
X160604Y149749D02*
X183194D01*
X137725Y179449D02*
X183065D01*
X168641Y142549D02*
X183024D01*
X161069Y149299D02*
X182944D01*
X168099Y142999D02*
X182800D01*
X161538Y148849D02*
X182733D01*
X167562Y143449D02*
X182614D01*
X162013Y148399D02*
X182558D01*
X167030Y143899D02*
X182461D01*
X162492Y147949D02*
X182417D01*
X166505Y144349D02*
X182341D01*
X162976Y147499D02*
X182307D01*
X165985Y144799D02*
X182250D01*
X163464Y147049D02*
X182226D01*
X165470Y145249D02*
X182189D01*
X163958Y146599D02*
X182175D01*
X164961Y145699D02*
X182156D01*
X164457Y146149D02*
X182152D01*
X122032Y225799D02*
X180150D01*
X122096Y225349D02*
X180150D01*
X122161Y224899D02*
X180150D01*
X122229Y224449D02*
X180150D01*
X122297Y223999D02*
X180150D01*
X122368Y223549D02*
X180150D01*
X122440Y223099D02*
X180150D01*
X122513Y222649D02*
X180150D01*
X122588Y222199D02*
X180150D01*
X122665Y221749D02*
X180150D01*
X122743Y221299D02*
X180150D01*
X122823Y220849D02*
X180150D01*
X122905Y220399D02*
X180150D01*
X122988Y219949D02*
X180150D01*
X123073Y219499D02*
X180150D01*
X123159Y219049D02*
X180150D01*
X123247Y218599D02*
X180150D01*
X123337Y218149D02*
X180150D01*
X123428Y217699D02*
X180150D01*
X123521Y217249D02*
X180150D01*
X123616Y216799D02*
X180150D01*
X123712Y216349D02*
X180150D01*
X123810Y215899D02*
X180150D01*
X123909Y215449D02*
X180150D01*
X124010Y214999D02*
X180150D01*
X124113Y214549D02*
X180150D01*
X124218Y214099D02*
X180150D01*
X124324Y213649D02*
X180150D01*
X124432Y213199D02*
X180150D01*
X124541Y212749D02*
X180150D01*
X124653Y212299D02*
X180150D01*
X124765Y211849D02*
X180150D01*
X124880Y211399D02*
X180150D01*
X124996Y210949D02*
X180150D01*
X125114Y210499D02*
X180150D01*
X125234Y210049D02*
X180150D01*
X125355Y209599D02*
X180150D01*
X125478Y209149D02*
X180150D01*
X125603Y208699D02*
X180150D01*
X125730Y208249D02*
X180150D01*
X125858Y207799D02*
X180150D01*
X125988Y207349D02*
X180150D01*
X126120Y206899D02*
X180150D01*
X126253Y206449D02*
X180150D01*
X126388Y205999D02*
X180150D01*
X126525Y205549D02*
X180150D01*
X126664Y205099D02*
X180150D01*
X126804Y204649D02*
X180150D01*
X126947Y204199D02*
X180150D01*
X127091Y203749D02*
X180150D01*
X127237Y203299D02*
X180150D01*
X127384Y202849D02*
X180150D01*
X127534Y202399D02*
X180150D01*
X127685Y201949D02*
X180150D01*
X127838Y201499D02*
X180150D01*
X127993Y201049D02*
X180150D01*
X128149Y200599D02*
X180150D01*
X128308Y200149D02*
X180150D01*
X128468Y199699D02*
X180150D01*
X128630Y199249D02*
X180150D01*
X128794Y198799D02*
X180150D01*
X128960Y198349D02*
X180150D01*
X129128Y197899D02*
X180150D01*
X129298Y197449D02*
X180150D01*
X129469Y196999D02*
X180150D01*
X129642Y196549D02*
X180150D01*
X129818Y196099D02*
X180150D01*
X129995Y195649D02*
X180150D01*
X130174Y195199D02*
X180150D01*
X130355Y194749D02*
X180150D01*
X130538Y194299D02*
X180150D01*
X130723Y193849D02*
X180150D01*
X130910Y193399D02*
X180150D01*
X131099Y192949D02*
X180150D01*
X131289Y192499D02*
X180150D01*
X131482Y192049D02*
X180150D01*
X131677Y191599D02*
X180150D01*
X131874Y191149D02*
X180150D01*
X132072Y190699D02*
X180150D01*
X132273Y190249D02*
X180150D01*
X132476Y189799D02*
X180150D01*
X132681Y189349D02*
X180150D01*
X132888Y188899D02*
X180150D01*
X133097Y188449D02*
X180150D01*
X133308Y187999D02*
X180150D01*
X133521Y187549D02*
X180150D01*
X133736Y187099D02*
X180150D01*
X133953Y186649D02*
X180150D01*
X134172Y186199D02*
X180150D01*
X134394Y185749D02*
X180150D01*
X134618Y185299D02*
X180150D01*
X134843Y184849D02*
X180150D01*
X135071Y184399D02*
X180150D01*
X135301Y183949D02*
X180150D01*
X135534Y183499D02*
X180150D01*
X135768Y183049D02*
X180150D01*
X136005Y182599D02*
X180150D01*
X136244Y182149D02*
X180150D01*
X136485Y181699D02*
X180150D01*
X136729Y181249D02*
X180150D01*
X136974Y180799D02*
X180150D01*
X137222Y180349D02*
X180150D01*
X137473Y179899D02*
X180150D01*
X122041Y226249D02*
X179613D01*
X217850Y249599D02*
X220708D01*
X217850Y238799D02*
X220650D01*
X217850Y249149D02*
X220553D01*
X217850Y250049D02*
X220406D01*
X217850Y244199D02*
X220389D01*
X217850Y239249D02*
X220362D01*
X217850Y243749D02*
X220313D01*
X217850Y248699D02*
X220290D01*
X217850Y250499D02*
X220232D01*
X217850Y244649D02*
X220198D01*
X217850Y239699D02*
X220183D01*
X217850Y250949D02*
X220159D01*
X217850Y243299D02*
X220159D01*
X217850Y252299D02*
X220155D01*
X217850Y251849D02*
X220155D01*
X217850Y251399D02*
X220155D01*
X217850Y248249D02*
X220148D01*
X217850Y245099D02*
X220111D01*
X217850Y240149D02*
X220107D01*
X217850Y242849D02*
X220103D01*
X217850Y247799D02*
X220102D01*
X217850Y247349D02*
X220102D01*
X217850Y246899D02*
X220102D01*
X217850Y246449D02*
X220102D01*
X217850Y245999D02*
X220102D01*
X217850Y245549D02*
X220102D01*
X217850Y242399D02*
X220102D01*
X217850Y241949D02*
X220102D01*
X217850Y241499D02*
X220102D01*
X217850Y241049D02*
X220102D01*
X217850Y240599D02*
X220102D01*
X171650Y284699D02*
X288550D01*
X171650Y284249D02*
X288550D01*
X171812Y283799D02*
X288550D01*
X172083Y283349D02*
X288550D01*
X172270Y282899D02*
X288550D01*
X172388Y282449D02*
X288550D01*
X172444Y281999D02*
X288550D01*
X172441Y281549D02*
X288550D01*
X172378Y281099D02*
X288550D01*
X172252Y280649D02*
X288550D01*
X172056Y280199D02*
X288550D01*
X171774Y279749D02*
X288550D01*
X171376Y279299D02*
X288550D01*
X170787Y278849D02*
X288550D01*
X169578Y278399D02*
X288550D01*
X125183Y277949D02*
X288499D01*
X263048Y285149D02*
X288325D01*
X171650D02*
X259752D01*
X125064Y277499D02*
X244772D01*
X124947Y277049D02*
X244216D01*
X124831Y276599D02*
X243884D01*
X124717Y276149D02*
X243681D01*
X124605Y275699D02*
X243574D01*
X196961Y275249D02*
X243550D01*
X197817Y274799D02*
X243550D01*
X198327Y274349D02*
X243550D01*
X198681Y273899D02*
X243550D01*
X198931Y273449D02*
X243550D01*
X199102Y272999D02*
X243550D01*
X199206Y272549D02*
X243550D01*
X199249Y272099D02*
X243550D01*
X199232Y271649D02*
X243550D01*
X199156Y271199D02*
X243550D01*
X199146Y270749D02*
X243550D01*
X199146Y270299D02*
X243550D01*
X199146Y269849D02*
X243550D01*
X199146Y269399D02*
X243550D01*
X199146Y268949D02*
X243550D01*
X199146Y268499D02*
X243550D01*
X199146Y268049D02*
X243550D01*
X199146Y267599D02*
X243550D01*
X199146Y267149D02*
X243550D01*
X199146Y266699D02*
X243550D01*
X199146Y266249D02*
X243550D01*
X199146Y265799D02*
X243550D01*
X199146Y265349D02*
X243550D01*
X199146Y264899D02*
X243550D01*
X199146Y264449D02*
X243550D01*
X199146Y263999D02*
X243550D01*
X199146Y263549D02*
X243550D01*
X199146Y263099D02*
X243550D01*
X237496Y262649D02*
X243550D01*
X239106Y262199D02*
X243550D01*
X239725Y261749D02*
X243550D01*
X240138Y261299D02*
X243550D01*
X240431Y260849D02*
X243550D01*
X240635Y260399D02*
X243550D01*
X240768Y259949D02*
X243550D01*
X240837Y259499D02*
X243550D01*
X240847Y259049D02*
X243550D01*
X240797Y258599D02*
X243550D01*
X240686Y258149D02*
X243550D01*
X240506Y257699D02*
X243550D01*
X240245Y257249D02*
X243550D01*
X239877Y256799D02*
X243550D01*
X239342Y256349D02*
X243550D01*
X238402Y255899D02*
X243550D01*
X231234Y255449D02*
X243550D01*
X230992Y254999D02*
X243550D01*
X242030Y254549D02*
X243550D01*
X243071Y254099D02*
X243502D01*
X199146Y262649D02*
X237304D01*
X231684Y255899D02*
X236398D01*
X199146Y262199D02*
X235694D01*
X232134Y256349D02*
X235458D01*
X199146Y261749D02*
X230511D01*
X199146Y261299D02*
X229619D01*
X199163Y260849D02*
X229138D01*
X225732Y260399D02*
X228688D01*
X204080D02*
X221079D01*
X204537Y259949D02*
X220619D01*
X204803Y259499D02*
X220351D01*
X204948Y259049D02*
X220205D01*
X204996Y258599D02*
X220156D01*
X204996Y258149D02*
X220155D01*
X169414Y252299D02*
X212550D01*
X169762Y251849D02*
X212550D01*
X170080Y251399D02*
X212550D01*
X170371Y250949D02*
X212550D01*
X170637Y250499D02*
X212550D01*
X170879Y250049D02*
X212550D01*
X171099Y249599D02*
X212550D01*
X171298Y249149D02*
X212550D01*
X182411Y248699D02*
X212550D01*
X183346Y248249D02*
X212550D01*
X183880Y247799D02*
X212550D01*
X184247Y247349D02*
X212550D01*
X184508Y246899D02*
X212550D01*
X184687Y246449D02*
X212550D01*
X211297Y245999D02*
X212550D01*
X211877Y245549D02*
X212550D01*
X211971Y240599D02*
X212550D01*
X211476Y240149D02*
X212550D01*
X185413Y239699D02*
X212550D01*
X185316Y239249D02*
X212550D01*
X185153Y238799D02*
X212550D01*
X202394Y238349D02*
X212550D01*
X203368Y237899D02*
X212550D01*
X203795Y237449D02*
X211677D01*
X204044Y236999D02*
X210988D01*
X204177Y236549D02*
X210533D01*
X204215Y236099D02*
X210083D01*
X204215Y235649D02*
X209658D01*
X204215Y235199D02*
X209369D01*
X204266Y234749D02*
X209174D01*
X206297Y245999D02*
X206655D01*
X171650Y285599D02*
X205021D01*
X171650Y286049D02*
X204530D01*
X171650Y286499D02*
X204231D01*
X171650Y286949D02*
X204050D01*
X171650Y287399D02*
X203963D01*
X162769Y340499D02*
X203954D01*
X162287Y340049D02*
X203950D01*
X161810Y339599D02*
X203950D01*
X161338Y339149D02*
X203950D01*
X160870Y338699D02*
X203950D01*
X160407Y338249D02*
X203950D01*
X159949Y337799D02*
X203950D01*
X159495Y337349D02*
X203950D01*
X159045Y336899D02*
X203950D01*
X158600Y336449D02*
X203950D01*
X158158Y335999D02*
X203950D01*
X157722Y335549D02*
X203950D01*
X157289Y335099D02*
X203950D01*
X192977Y327449D02*
X203950D01*
X192977Y326999D02*
X203950D01*
X192977Y326549D02*
X203950D01*
X192977Y326099D02*
X203950D01*
X192977Y325649D02*
X203950D01*
X192977Y325199D02*
X203950D01*
X192977Y324749D02*
X203950D01*
X192977Y324299D02*
X203950D01*
X198894Y323849D02*
X203950D01*
X200061Y323399D02*
X203950D01*
X200767Y322949D02*
X203950D01*
X201287Y322499D02*
X203950D01*
X201694Y322049D02*
X203950D01*
X202018Y321599D02*
X203950D01*
X202277Y321149D02*
X203950D01*
X202480Y320699D02*
X203950D01*
X202636Y320249D02*
X203950D01*
X202748Y319799D02*
X203950D01*
X202818Y319349D02*
X203950D01*
X202850Y318899D02*
X203950D01*
X202842Y318449D02*
X203950D01*
X202796Y317999D02*
X203950D01*
X202710Y317549D02*
X203950D01*
X202581Y317099D02*
X203950D01*
X202408Y316649D02*
X203950D01*
X202184Y316199D02*
X203950D01*
X201902Y315749D02*
X203950D01*
X201548Y315299D02*
X203950D01*
X201103Y314849D02*
X203950D01*
X200524Y314399D02*
X203950D01*
X199702Y313949D02*
X203950D01*
X140542Y313499D02*
X203950D01*
X140264Y313049D02*
X203950D01*
X139988Y312599D02*
X203950D01*
X139715Y312149D02*
X203950D01*
X139445Y311699D02*
X203950D01*
X139176Y311249D02*
X203950D01*
X138911Y310799D02*
X203950D01*
X138647Y310349D02*
X203950D01*
X138386Y309899D02*
X203950D01*
X138128Y309449D02*
X203950D01*
X137871Y308999D02*
X203950D01*
X137617Y308549D02*
X203950D01*
X137366Y308099D02*
X203950D01*
X137116Y307649D02*
X203950D01*
X136869Y307199D02*
X203950D01*
X136625Y306749D02*
X203950D01*
X136382Y306299D02*
X203950D01*
X136142Y305849D02*
X203950D01*
X135904Y305399D02*
X203950D01*
X135668Y304949D02*
X203950D01*
X135435Y304499D02*
X203950D01*
X135203Y304049D02*
X203950D01*
X134974Y303599D02*
X203950D01*
X171996Y289649D02*
X203950D01*
X171650Y289199D02*
X203950D01*
X171650Y288749D02*
X203950D01*
X171650Y288299D02*
X203950D01*
X171650Y287849D02*
X203950D01*
X192983Y327899D02*
X203948D01*
X134747Y303149D02*
X203899D01*
X156860Y334649D02*
X203819D01*
X163329Y340949D02*
X203748D01*
X184798Y245999D02*
X201655D01*
X185451Y240149D02*
X201477D01*
X197670Y238349D02*
X199535D01*
X192977Y323849D02*
X196309D01*
X169033Y252749D02*
X196089D01*
X191828Y313949D02*
X195501D01*
X168615Y253199D02*
X195359D01*
X192977Y323399D02*
X195142D01*
X168154Y253649D02*
X194900D01*
X184911Y238349D02*
X194811D01*
X192650Y314399D02*
X194679D01*
X124495Y275249D02*
X194639D01*
X167644Y254099D02*
X194464D01*
X192983Y322949D02*
X194436D01*
X167075Y254549D02*
X194160D01*
X193229Y314849D02*
X194100D01*
X193413Y322499D02*
X193915D01*
X123122Y268949D02*
X193846D01*
X123036Y268499D02*
X193846D01*
X122952Y268049D02*
X193846D01*
X122870Y267599D02*
X193846D01*
X122789Y267149D02*
X193846D01*
X122710Y266699D02*
X193846D01*
X122632Y266249D02*
X193846D01*
X122556Y265799D02*
X193846D01*
X122482Y265349D02*
X193846D01*
X122409Y264899D02*
X193846D01*
X122337Y264449D02*
X193846D01*
X122268Y263999D02*
X193846D01*
X122200Y263549D02*
X193846D01*
X122133Y263099D02*
X193846D01*
X122068Y262649D02*
X193846D01*
X122005Y262199D02*
X193846D01*
X121943Y261749D02*
X193846D01*
X121883Y261299D02*
X193846D01*
X121825Y260849D02*
X193846D01*
X121768Y260399D02*
X193837D01*
X184570Y237899D02*
X193837D01*
X124386Y274799D02*
X193783D01*
X166433Y254999D02*
X193652D01*
X123209Y269399D02*
X193534D01*
X121712Y259949D02*
X193455D01*
X184082Y237449D02*
X193410D01*
X165695Y255449D02*
X193305D01*
X124279Y274349D02*
X193273D01*
X121659Y259499D02*
X193189D01*
X183286Y236999D02*
X193160D01*
X164825Y255899D02*
X193104D01*
X123298Y269849D02*
X193103D01*
X166050Y232949D02*
X193099D01*
X121606Y259049D02*
X193044D01*
X169913Y236549D02*
X193027D01*
X163745Y256349D02*
X193009D01*
X166740Y233399D02*
X193003D01*
X121556Y258599D02*
X192996D01*
X121507Y258149D02*
X192996D01*
X121459Y257699D02*
X192996D01*
X121413Y257249D02*
X192996D01*
X162235Y256799D02*
X192996D01*
X169579Y236099D02*
X192990D01*
X169214Y235649D02*
X192990D01*
X168813Y235199D02*
X192990D01*
X168373Y234749D02*
X192990D01*
X167887Y234299D02*
X192990D01*
X167347Y233849D02*
X192990D01*
X124173Y273899D02*
X192919D01*
X123389Y270299D02*
X192799D01*
X124069Y273449D02*
X192669D01*
X123481Y270749D02*
X192585D01*
X123967Y272999D02*
X192498D01*
X123575Y271199D02*
X192444D01*
X123867Y272549D02*
X192394D01*
X123671Y271649D02*
X192368D01*
X123768Y272099D02*
X192351D01*
X156435Y334199D02*
X190203D01*
X156015Y333749D02*
X189587D01*
X155598Y333299D02*
X189134D01*
X155185Y332849D02*
X188684D01*
X154776Y332399D02*
X188234D01*
X154371Y331949D02*
X187784D01*
X183954Y313949D02*
X187627D01*
X153969Y331499D02*
X187338D01*
X153571Y331049D02*
X186991D01*
X184775Y314399D02*
X186805D01*
X153177Y330599D02*
X186750D01*
X152786Y330149D02*
X186591D01*
X152399Y329699D02*
X186502D01*
X152015Y329249D02*
X186477D01*
X151635Y328799D02*
X186477D01*
X151258Y328349D02*
X186477D01*
X150885Y327899D02*
X186477D01*
X150515Y327449D02*
X186477D01*
X150149Y326999D02*
X186477D01*
X149785Y326549D02*
X186477D01*
X149425Y326099D02*
X186477D01*
X149068Y325649D02*
X186477D01*
X148715Y325199D02*
X186477D01*
X148364Y324749D02*
X186477D01*
X148017Y324299D02*
X186477D01*
X183146Y323849D02*
X186477D01*
X184313Y323399D02*
X186477D01*
X185019Y322949D02*
X186471D01*
X185355Y314849D02*
X186226D01*
X185539Y322499D02*
X186041D01*
X170218Y236999D02*
X180714D01*
X175272Y323849D02*
X180561D01*
X175611Y248699D02*
X180389D01*
X165248Y232499D02*
X180389D01*
X170497Y237449D02*
X179918D01*
X176080Y313949D02*
X179753D01*
X176546Y248249D02*
X179454D01*
X164279Y232049D02*
X179454D01*
X170752Y237899D02*
X179430D01*
X176439Y323399D02*
X179394D01*
X176301Y242399D02*
X179330D01*
X170983Y238349D02*
X179089D01*
X172139Y241949D02*
X179026D01*
X176901Y314399D02*
X178931D01*
X163018Y231599D02*
X178920D01*
X171194Y238799D02*
X178847D01*
X172056Y241499D02*
X178804D01*
X177145Y322949D02*
X178688D01*
X171384Y239249D02*
X178684D01*
X171956Y241049D02*
X178656D01*
X171554Y239699D02*
X178587D01*
X171840Y240599D02*
X178573D01*
X160880Y231149D02*
X178553D01*
X171706Y240149D02*
X178550D01*
X177481Y314849D02*
X178352D01*
X121437Y230699D02*
X178292D01*
X177665Y322499D02*
X178167D01*
X121484Y230249D02*
X178113D01*
X121545Y229799D02*
X177995D01*
X171477Y248699D02*
X173589D01*
X172206Y242399D02*
X172899D01*
X147672Y323849D02*
X172687D01*
X171638Y248249D02*
X172654D01*
X171844Y247799D02*
X172111D01*
X140822Y313949D02*
X171879D01*
X147331Y323399D02*
X171520D01*
X141106Y314399D02*
X171057D01*
X146993Y322949D02*
X170814D01*
X141391Y314849D02*
X170478D01*
X146657Y322499D02*
X170293D01*
X141679Y315299D02*
X170032D01*
X146325Y322049D02*
X169887D01*
X141970Y315749D02*
X169679D01*
X134522Y302699D02*
X169579D01*
X145996Y321599D02*
X169563D01*
X142264Y316199D02*
X169397D01*
X145669Y321149D02*
X169304D01*
X142560Y316649D02*
X169173D01*
X145346Y320699D02*
X169100D01*
X142858Y317099D02*
X168999D01*
X145025Y320249D02*
X168945D01*
X134299Y302249D02*
X168939D01*
X143160Y317549D02*
X168871D01*
X144707Y319799D02*
X168833D01*
X143464Y317999D02*
X168785D01*
X144392Y319349D02*
X168762D01*
X143770Y318449D02*
X168739D01*
X144080Y318899D02*
X168731D01*
X134079Y301799D02*
X168485D01*
X125303Y278399D02*
X168422D01*
X133860Y301349D02*
X168035D01*
X133644Y300899D02*
X167585D01*
X125426Y278849D02*
X167213D01*
X133430Y300449D02*
X167135D01*
X133218Y299999D02*
X166685D01*
X125550Y279299D02*
X166624D01*
X133007Y299549D02*
X166235D01*
X125676Y279749D02*
X166226D01*
X125803Y280199D02*
X165944D01*
X132799Y299099D02*
X165785D01*
X125932Y280649D02*
X165748D01*
X132593Y298649D02*
X164985D01*
X129919Y292349D02*
X164909D01*
X126063Y281099D02*
X164689D01*
X130098Y292799D02*
X164586D01*
X129743Y291899D02*
X164488D01*
X132389Y298199D02*
X164331D01*
X129568Y291449D02*
X164077D01*
X130278Y293249D02*
X164075D01*
X126196Y281549D02*
X163992D01*
X132188Y297749D02*
X163901D01*
X129396Y290999D02*
X163806D01*
X130460Y293699D02*
X163721D01*
X129225Y290549D02*
X163640D01*
X131988Y297299D02*
X163597D01*
X129056Y290099D02*
X163561D01*
X128889Y289649D02*
X163550D01*
X128724Y289199D02*
X163550D01*
X128561Y288749D02*
X163550D01*
X128400Y288299D02*
X163550D01*
X128240Y287849D02*
X163550D01*
X128082Y287399D02*
X163550D01*
X127926Y286949D02*
X163550D01*
X127772Y286499D02*
X163550D01*
X126330Y281999D02*
X163544D01*
X130644Y294149D02*
X163470D01*
X131790Y296849D02*
X163384D01*
X130830Y294599D02*
X163298D01*
X127620Y286049D02*
X163287D01*
X131594Y296399D02*
X163244D01*
X126467Y282449D02*
X163228D01*
X131018Y295049D02*
X163194D01*
X131400Y295949D02*
X163168D01*
X131208Y295499D02*
X163151D01*
X127470Y285599D02*
X163046D01*
X126605Y282899D02*
X163005D01*
X127321Y285149D02*
X162883D01*
X126744Y283349D02*
X162857D01*
X127174Y284699D02*
X162786D01*
X126886Y283799D02*
X162773D01*
X127029Y284249D02*
X162750D01*
X121392Y231149D02*
X157664D01*
X121369Y256799D02*
X156308D01*
X121349Y231599D02*
X155525D01*
X121326Y256349D02*
X154798D01*
X121306Y232049D02*
X154264D01*
X121284Y255899D02*
X153718D01*
X121266Y232499D02*
X153295D01*
X121245Y255449D02*
X152848D01*
X121227Y232949D02*
X152493D01*
X121206Y254999D02*
X152111D01*
X121189Y233399D02*
X151803D01*
X121170Y254549D02*
X151468D01*
X121153Y233849D02*
X151197D01*
X121135Y254099D02*
X150899D01*
X121119Y234299D02*
X150656D01*
X121101Y253649D02*
X150389D01*
X121086Y234749D02*
X150170D01*
X121069Y253199D02*
X149929D01*
X121055Y235199D02*
X149730D01*
X121039Y252749D02*
X149510D01*
X121025Y235649D02*
X149329D01*
X121010Y252299D02*
X149129D01*
X120997Y236099D02*
X148964D01*
X120983Y251849D02*
X148781D01*
X120970Y236549D02*
X148630D01*
X120957Y251399D02*
X148463D01*
X120945Y236999D02*
X148325D01*
X120933Y250949D02*
X148172D01*
X120922Y237449D02*
X148046D01*
X120910Y250499D02*
X147907D01*
X120900Y237899D02*
X147792D01*
X120889Y250049D02*
X147664D01*
X120879Y238349D02*
X147560D01*
X120869Y249599D02*
X147444D01*
X120861Y238799D02*
X147350D01*
X120851Y249149D02*
X147245D01*
X120843Y239249D02*
X147160D01*
X120835Y248699D02*
X147066D01*
X120827Y239699D02*
X146989D01*
X120820Y248249D02*
X146905D01*
X120813Y240149D02*
X146837D01*
X120806Y247799D02*
X146763D01*
X120800Y240599D02*
X146703D01*
X120794Y247349D02*
X146639D01*
X120789Y241049D02*
X146587D01*
X120784Y246899D02*
X146531D01*
X120780Y241499D02*
X146487D01*
X120775Y246449D02*
X146441D01*
X120771Y241949D02*
X146404D01*
X120768Y245999D02*
X146366D01*
X120765Y242399D02*
X146337D01*
X120762Y245549D02*
X146308D01*
X120760Y242849D02*
X146286D01*
X120758Y245099D02*
X146265D01*
X120756Y243299D02*
X146251D01*
X120755Y244649D02*
X146238D01*
X120754Y243749D02*
X146231D01*
X120754Y244199D02*
X146227D01*
X241778Y247799D02*
X243550D01*
X229050Y247349D02*
X243550D01*
X229050Y246899D02*
X243550D01*
X229050Y246449D02*
X243550D01*
X229050Y245999D02*
X243550D01*
X239830Y245549D02*
X243550D01*
X240871Y245099D02*
X243550D01*
X239578Y238799D02*
X243550D01*
X225795Y238349D02*
X243550D01*
X226337Y237899D02*
X243550D01*
X235847Y237449D02*
X243550D01*
X236543Y236999D02*
X243550D01*
X236999Y236549D02*
X243550D01*
X237449Y236099D02*
X243550D01*
X238561Y235649D02*
X243550D01*
X239417Y235199D02*
X243550D01*
X239927Y234749D02*
X243550D01*
X240281Y234299D02*
X243550D01*
X240531Y233849D02*
X243550D01*
X240702Y233399D02*
X243550D01*
X240806Y232949D02*
X243550D01*
X240849Y232499D02*
X243550D01*
X240832Y232049D02*
X243550D01*
X240756Y231599D02*
X243550D01*
X240615Y231149D02*
X243550D01*
X240401Y230699D02*
X243550D01*
X240097Y230249D02*
X243550D01*
X239666Y229799D02*
X243550D01*
X239010Y229349D02*
X243550D01*
X227029Y228899D02*
X243550D01*
X227005Y228449D02*
X243550D01*
X226890Y227999D02*
X243550D01*
X226665Y227549D02*
X243550D01*
X226279Y227099D02*
X243550D01*
X225513Y226649D02*
X243550D01*
X221513Y226199D02*
X243550D01*
X221513Y225749D02*
X243550D01*
X221513Y225299D02*
X243550D01*
X221513Y224849D02*
X243550D01*
X221513Y224399D02*
X243550D01*
X221513Y223949D02*
X243550D01*
X221513Y223499D02*
X243550D01*
X221513Y223049D02*
X243550D01*
X221513Y222599D02*
X243550D01*
X221513Y222149D02*
X243550D01*
X221513Y221699D02*
X243550D01*
X221513Y221249D02*
X243550D01*
X221513Y220799D02*
X243550D01*
X221513Y220349D02*
X243550D01*
X221513Y219899D02*
X243550D01*
X221513Y219449D02*
X243550D01*
X221513Y218999D02*
X243550D01*
X221513Y218549D02*
X243550D01*
X221513Y218099D02*
X243550D01*
X221830Y217649D02*
X243550D01*
X222212Y217199D02*
X243550D01*
X222483Y216749D02*
X243550D01*
X222670Y216299D02*
X243550D01*
X222788Y215849D02*
X243550D01*
X222844Y215399D02*
X243550D01*
X222841Y214949D02*
X243550D01*
X222778Y214499D02*
X243550D01*
X222652Y214049D02*
X243550D01*
X222456Y213599D02*
X243550D01*
X222174Y213149D02*
X243550D01*
X221776Y212699D02*
X243550D01*
X221187Y212249D02*
X243550D01*
X219978Y211799D02*
X243550D01*
X187428Y211349D02*
X243550D01*
X186867Y210899D02*
X243550D01*
X185819Y210449D02*
X243550D01*
X184250Y209999D02*
X243550D01*
X184250Y209549D02*
X243550D01*
X184250Y209099D02*
X243550D01*
X184250Y208649D02*
X243550D01*
X184250Y208199D02*
X243550D01*
X184250Y207749D02*
X243550D01*
X184250Y207299D02*
X243550D01*
X184250Y206849D02*
X243550D01*
X184250Y206399D02*
X243550D01*
X184250Y205949D02*
X243550D01*
X184250Y205499D02*
X243550D01*
X184250Y205049D02*
X243550D01*
X184250Y204599D02*
X243550D01*
X184250Y204149D02*
X243550D01*
X184250Y203699D02*
X243550D01*
X184250Y203249D02*
X243550D01*
X184250Y202799D02*
X243550D01*
X184250Y202349D02*
X243550D01*
X184250Y201899D02*
X243550D01*
X184250Y201449D02*
X243545D01*
X242987Y248249D02*
X243531D01*
X240787Y239249D02*
X243522D01*
X229050Y247799D02*
X240622D01*
X229050Y248249D02*
X239413D01*
X229050Y248699D02*
X238824D01*
X229050Y249149D02*
X238426D01*
X226121Y238799D02*
X238422D01*
X229050Y245549D02*
X238170D01*
X226793Y239249D02*
X237213D01*
X229050Y245099D02*
X237129D01*
X227246Y239699D02*
X236624D01*
X229050Y244649D02*
X236570D01*
X227696Y240149D02*
X236226D01*
X229050Y244199D02*
X236188D01*
X228146Y240599D02*
X235944D01*
X229050Y243749D02*
X235917D01*
X227029Y229349D02*
X235790D01*
X228548Y241049D02*
X235748D01*
X229050Y243299D02*
X235730D01*
X228810Y241499D02*
X235622D01*
X229050Y242849D02*
X235612D01*
X228969Y241949D02*
X235559D01*
X229042Y242399D02*
X235556D01*
X227029Y229799D02*
X235134D01*
X227029Y230249D02*
X234703D01*
X227029Y230699D02*
X234399D01*
X227029Y231149D02*
X234185D01*
X227005Y231599D02*
X234044D01*
X226892Y232049D02*
X233963D01*
X221569Y226649D02*
X222044D01*
X187810Y211799D02*
X218822D01*
X188082Y212249D02*
X217613D01*
X188270Y212699D02*
X217024D01*
X188388Y213149D02*
X216626D01*
X188444Y213599D02*
X216344D01*
X214627Y227099D02*
X216213D01*
X214041Y226649D02*
X216213D01*
X209845Y226199D02*
X216213D01*
X209673Y225749D02*
X216213D01*
X209416Y225299D02*
X216213D01*
X209045Y224849D02*
X216213D01*
X208595Y224399D02*
X216213D01*
X208145Y223949D02*
X216213D01*
X207695Y223499D02*
X216213D01*
X207130Y223049D02*
X216213D01*
X205961Y222599D02*
X216213D01*
X188250Y222149D02*
X216213D01*
X188250Y221699D02*
X216213D01*
X188250Y221249D02*
X216213D01*
X188250Y220799D02*
X216213D01*
X188250Y220349D02*
X216213D01*
X188250Y219899D02*
X216213D01*
X188344Y219449D02*
X216213D01*
X188427Y218999D02*
X216213D01*
X188450Y218549D02*
X216213D01*
X188413Y218099D02*
X216213D01*
X188316Y217649D02*
X216213D01*
X188302Y217199D02*
X216213D01*
X188406Y216749D02*
X216213D01*
X188441Y214049D02*
X216148D01*
X188449Y216299D02*
X216130D01*
X188379Y214499D02*
X216022D01*
X188432Y215849D02*
X216012D01*
X214953Y227549D02*
X215981D01*
X188255Y214949D02*
X215959D01*
X188356Y215399D02*
X215956D01*
X215141Y227999D02*
X215754D01*
X184250Y200999D02*
X211758D01*
X184250Y200549D02*
X211114D01*
X184250Y200099D02*
X210745D01*
X184250Y199649D02*
X210517D01*
X184250Y199199D02*
X210391D01*
X184250Y198749D02*
X210350D01*
X184250Y198299D02*
X210350D01*
X184250Y197849D02*
X210350D01*
X184250Y197399D02*
X210350D01*
X184250Y196949D02*
X210350D01*
X184250Y196499D02*
X210350D01*
X184250Y196049D02*
X210350D01*
X184250Y195599D02*
X210350D01*
X184250Y195149D02*
X210350D01*
X184250Y194699D02*
X210350D01*
X184250Y194249D02*
X210350D01*
X184250Y193799D02*
X210350D01*
X184250Y193349D02*
X205345D01*
X184250Y192899D02*
X204484D01*
X184250Y192449D02*
X204049D01*
X184250Y191999D02*
X203781D01*
X184250Y191549D02*
X203623D01*
X184250Y191099D02*
X203554D01*
X184250Y190649D02*
X203550D01*
X184250Y190199D02*
X203550D01*
X184250Y189749D02*
X203550D01*
X184250Y189299D02*
X203550D01*
X184250Y188849D02*
X203550D01*
X184250Y188399D02*
X203550D01*
X184250Y187949D02*
X203550D01*
X184250Y187499D02*
X203550D01*
X184250Y187049D02*
X203550D01*
X184250Y186599D02*
X203550D01*
X184250Y186149D02*
X203550D01*
X184250Y185699D02*
X203550D01*
X184250Y185249D02*
X203550D01*
X184250Y184799D02*
X203550D01*
X184250Y184349D02*
X203550D01*
X184250Y183899D02*
X203550D01*
X184250Y183449D02*
X203550D01*
X184250Y182999D02*
X203550D01*
X184250Y182549D02*
X203550D01*
X184352Y182099D02*
X203448D01*
G54D39*
X317400Y147000D02*
X317600D01*
Y151600*
X312200Y151400D02*
Y151600D01*
X317600*
X323000*
X325600Y154200*
Y180000*
X309800Y167600D02*
X292600D01*
X292400Y167800*
X346600Y165600D02*
Y170600D01*
X355400Y179400*
Y186400*
X325600Y180000D02*
Y190800D01*
X327200Y192400*
X349200*
X355400Y186400D02*
X353000Y188800D01*
X348200Y184000*
X270600Y218800D02*
X271000Y219200D01*
Y223389*
X271080*
X270600Y218800D02*
X268920D01*
X268520Y219200*
Y223389*
X265957Y214773D02*
Y218326D01*
X265961Y218330*
Y223389*
X275502Y214790D02*
Y215040D01*
X295000*
X296761Y216801*
Y223589*
X273639Y247011D02*
Y256828D01*
X276189Y259379*
X277789*
X304439Y247211D02*
Y250400D01*
X305239Y251200*
X312000*
Y259249*
X306049Y265200*
X312000Y251200D02*
X315115D01*
X282862Y259379D02*
X285223D01*
X291044Y265200*
X306049*
G54D40*
X197601Y313510D02*
Y315760D01*
X202851Y318760D02*
X200601D01*
X197601Y324010D02*
Y321760D01*
X206000Y138750D02*
Y141000D01*
X213250Y146000D02*
X211000D01*
X206000Y153250D02*
Y151000D01*
X198750Y146000D02*
X201000D01*
G54D42*
X286559Y210005D03*
X197601Y318760D03*
X189727D03*
X181853D03*
X173979D03*
X328564Y224113D03*
G54D45*
X381000Y241200D02*
Y258715D01*
X373800Y265915*
X365370*
X371387Y237930D02*
Y238687D01*
X378487*
X381000Y241200*
X370987Y253330D02*
X362212D01*
X357890Y257653*
Y265915*
G54D46*
X282620Y177376D02*
Y177200D01*
X275121*
Y177378*
Y200921*
X275400Y201200*
X257200Y201400D02*
Y213773D01*
X258200Y214773*
X261202*
X257200Y193600D02*
Y201400D01*
X275400Y201200D02*
Y201400D01*
X257200*
X275400Y201200D02*
X275600Y201400D01*
X352000*
X353400Y202800*
Y208300*
X353482Y208224D02*
X353400Y208300D01*
X348648Y208224D02*
X345819D01*
X340200Y213843*
X336363*
X348648Y208224D02*
X353482D01*
X185000Y213800D02*
Y223600D01*
X187200Y225800*
X205400*
X206732Y227132*
Y229634*
X261202Y214773D02*
X265957D01*
X265956Y214758*
X270701Y214775*
X270702Y214790*
X275502*
X189727Y318760D02*
Y329296D01*
X191800Y331368*
X241633*
Y326568*
G54D70*
X292800Y139000D02*
Y164400D01*
X290800Y166400*
X236800*
X236000Y167200*
Y171400*
X339200Y151000D02*
Y168000D01*
X339000Y168200*
X328200Y139000D02*
X314600D01*
X313600Y140000*
Y142800*
X242200Y169900D02*
X239800D01*
X238400Y171300*
Y174200*
X237669Y174931*
X233200*
Y175000*
X242200Y169900D02*
X242900Y170600D01*
X243078*
X247367Y174889*
X254220Y169876D02*
X250400D01*
X250387Y169889*
X247367*
X282620Y169876D02*
Y169834D01*
X279744*
X277200Y172378*
X275121*
X151400Y180600D02*
X138800D01*
X138000Y181400*
Y182600*
X242200Y174900D02*
Y178200D01*
X244200Y180200*
X253400*
X254675Y177376D02*
X254051Y178000D01*
Y179549*
X253400Y180200*
X254675Y177376D02*
X257000D01*
X258624Y179000*
X258800*
X262220Y173626D02*
Y176620D01*
X262978Y177378*
X269921*
X254220Y177376D02*
X254675D01*
X269921Y172378D02*
X275121D01*
X305400Y174800D02*
Y176803D01*
X307600Y179003*
Y198400*
X333200Y174400D02*
X338000Y179200D01*
X350400*
X304600Y203800D02*
X287359D01*
X286559Y204600*
Y210005*
X304600Y203800D02*
X304400Y204000D01*
Y209360*
X304600Y203800D02*
X345800D01*
X346400Y204400*
X304400Y209360D02*
X304518Y209478D01*
X308400*
X309600Y210678*
Y224925*
X312800Y228125*
X299518Y209478D02*
X295122D01*
X294800Y209800*
X320600Y210000D02*
X325340D01*
Y210103*
X316000Y208600D02*
Y213000D01*
X317200Y214200*
X328000*
X336363Y210103D02*
X332097D01*
X328000Y214200*
X181400Y229200D02*
X182090Y229890D01*
X196240*
X200965*
Y231600*
X201365Y232000*
X211600*
X219400Y215200D02*
X218863Y215737D01*
Y230032*
X211732Y229634D02*
Y231868D01*
X227400Y226200D02*
X223779Y229766D01*
Y230025*
X262600Y228600D02*
X278400D01*
Y237000*
X278900Y237500*
X280600*
Y226900D02*
X278900D01*
X278400Y227400*
Y228600*
X299495Y223589D02*
Y227705D01*
X297800Y229400*
X299495Y223589D02*
X299320D01*
X301705D02*
Y231200D01*
X303405Y232900*
X310600*
X301880Y223589D02*
X301705D01*
X285600Y226900D02*
Y228800D01*
X286200Y229400*
X297800*
X299513Y214145D02*
X299320Y214338D01*
Y223589*
X304513Y214145D02*
X304439Y214220D01*
Y223589*
X312800Y228125D02*
Y247000D01*
X311600Y248200*
X309400*
X325340Y217583D02*
Y219260D01*
X324000Y220600*
X316000*
X364400Y225600D02*
X359200Y230800D01*
X354800*
X358400Y213000D02*
X353400D01*
Y213300*
X348648Y213224D02*
X353400D01*
Y213300*
X353346Y213354*
Y219118*
X348600Y219100D02*
X353346Y219118D01*
Y219400*
X358400*
X174600Y245400D02*
X181400D01*
X182000Y240200D02*
Y242000D01*
X183020Y243020*
X203976*
X200965Y234890D02*
X196240D01*
X196400*
Y238400*
X200965Y234890D02*
X207000D01*
X208976Y236866*
Y243020*
X225000Y241200D02*
X226400Y242600D01*
Y251000*
X227600Y252200*
X240200*
X225000Y241200D02*
X223352D01*
Y241548*
X218863Y235032D02*
X215200D01*
Y255000*
X215400Y255200*
X211600Y232000D02*
X211732Y231868D01*
Y234000*
X212764Y235032*
X215200*
X219400Y246400D02*
X219548Y246548D01*
X223352*
X212600Y243000D02*
X208976D01*
Y243020*
X223779Y235025D02*
X218863D01*
Y235032*
X241200Y251200D02*
X240200Y252200D01*
X237400Y232400D02*
X234775Y235025D01*
X223779*
X248407Y242034D02*
X239000D01*
Y242200*
X253407Y242034D02*
X248407Y247034D01*
X253407D02*
X258607D01*
Y242034D02*
X258772Y242200D01*
X269800*
X271080Y243480*
Y247011*
X258600Y236900D02*
X258607Y242034D01*
X248407Y236834D02*
Y242034D01*
X253407Y236834D02*
Y242034D01*
X280600Y242500D02*
X277700D01*
X277600Y242600*
X280600Y242500D02*
X285400D01*
X280600Y231900D02*
X285600D01*
X268520Y247011D02*
Y258820D01*
X269000Y259300*
X265961Y247011D02*
X262451D01*
X262428Y247034*
X258607*
X296628Y240000D02*
Y247211D01*
X296761*
X301880D02*
X301800D01*
Y252000*
X301880Y247211D02*
X302014D01*
X299320D02*
Y253453D01*
X299338Y253470*
Y257957*
X296761Y247211D02*
Y252439D01*
X293634Y255566*
X285600Y231900D02*
Y237500D01*
X285400*
X290600Y231900D02*
X289111D01*
X288811Y232200*
Y252000*
X310600Y237900D02*
X298728D01*
X296628Y240000*
X201496Y257587D02*
Y257600D01*
X205600*
X196496Y257587D02*
Y271304D01*
X195800Y272000*
X215400Y255200D02*
X197096D01*
X196496Y255800*
Y257587*
X215400Y255200D02*
X223000D01*
X223405Y255605*
Y257331*
Y252331D02*
X221905D01*
X221836Y252400*
X220000*
X223405Y257331D02*
X229368D01*
X231237Y259200*
X237400*
X264000Y259300D02*
X269000D01*
X264000Y264300D02*
X269000D01*
X282862Y264379D02*
X284379D01*
X285400Y265400*
X286400*
X277789Y264379D02*
X276289D01*
X276268Y264400*
X274200*
X269000Y264300D02*
X269200Y264500D01*
Y267600*
X292800Y252000D02*
X288811D01*
Y257976*
X293634Y255566D02*
Y257976D01*
X293811*
X299338Y257957D02*
Y262681D01*
X304338Y257957D02*
Y262681D01*
X293811Y257976D02*
X294200D01*
Y262400*
X309400Y254000D02*
Y256957D01*
X308400Y257957*
X304338*
X315200Y259600D02*
X315115Y259915D01*
Y256200*
X332600Y257200D02*
Y261800D01*
X333800Y263000*
Y267600*
X169000Y281800D02*
Y290400D01*
X171200Y292600*
X246600*
X252093Y298093*
Y303200*
X252661Y303768*
X262414*
X166200Y284200D02*
Y289863D01*
X170537Y294200*
X245863*
X250400Y298737*
Y303770*
X252958Y306328*
X262414*
X277566Y288750D02*
Y296860D01*
X277585Y296879*
X238795Y301205D02*
X232493D01*
Y301208*
X241200Y298000D02*
X247400D01*
X248800Y299400*
Y317200*
X250728Y319128*
X262414*
X237600Y301200D02*
X238795Y301205D01*
X237800Y311400D02*
X237752Y311448D01*
X232493*
X240600Y308800D02*
X240512Y308888D01*
X232493*
Y306328D02*
X240210D01*
X240283Y306400*
X246200*
X262414Y301208D02*
X269208D01*
X272400Y304400*
X285400*
X287800Y306800*
Y313021*
X287821*
X262414Y308888D02*
X270834D01*
X270854Y308908*
X277585Y296879D02*
X275817Y298648D01*
X262414*
X287821Y313021D02*
Y318200D01*
X287815Y318206*
Y321237*
G54D75*
G54D107*
X222266Y146068D03*
X189400Y146000D03*
X206000D03*
X371387Y237930D03*
X370987Y253330D03*
G54D108*
X292815Y321237D03*
X287815D03*
X241633Y326568D03*
X246633D03*
X241633Y331368D03*
X246633D03*
X282566Y288750D03*
X277566D03*
X299518Y209478D03*
X304518D03*
X288811Y257976D03*
X293811D03*
X203976Y243020D03*
X208976D03*
X211732Y229634D03*
X206732D03*
X196496Y257587D03*
X201496D03*
X304513Y214145D03*
X299513D03*
X304338Y262681D03*
X299338D03*
X304338Y257957D03*
X299338D03*
G54D113*
X310600Y237900D03*
Y232900D03*
X353346Y224118D03*
Y219118D03*
X348600Y224100D03*
Y219100D03*
X269921Y177378D03*
Y172378D03*
X275121Y177378D03*
Y172378D03*
X242200Y169900D03*
Y174900D03*
X247367Y174889D03*
Y169889D03*
X270854Y313908D03*
Y308908D03*
X315115Y251200D03*
Y256200D03*
X320115Y251200D03*
Y256200D03*
X269000Y264300D03*
Y259300D03*
X264000Y264300D03*
Y259300D03*
X277789Y259379D03*
Y264379D03*
X282862Y259379D03*
Y264379D03*
X261202Y214773D03*
Y209773D03*
X275502Y214790D03*
Y209790D03*
X265957Y214773D03*
Y209773D03*
X270702Y214790D03*
Y209790D03*
X223352Y246548D03*
Y241548D03*
X223779Y235025D03*
Y230025D03*
X253407Y231834D03*
Y236834D03*
X248407D03*
Y231834D03*
X258600Y231900D03*
Y236900D03*
X258607Y242034D03*
Y247034D03*
X253407D03*
Y242034D03*
X248407Y247034D03*
Y242034D03*
X353400Y208300D03*
Y213300D03*
X348648Y208224D03*
Y213224D03*
X218863Y230032D03*
Y235032D03*
X200965Y229890D03*
Y234890D03*
X223405Y257331D03*
Y252331D03*
X196240Y229890D03*
Y234890D03*
X290600Y226900D03*
Y231900D03*
X280600D03*
Y226900D03*
X285400Y242500D03*
Y237500D03*
X285600Y226900D03*
Y231900D03*
X280600Y237500D03*
Y242500D03*
G54D116*
X262220Y173626D03*
X290620D03*
G54D118*
X277585Y296879D03*
Y313021D03*
X287821D03*
Y296879D03*
G54D120*
X262414Y319128D03*
Y316568D03*
Y314008D03*
Y311448D03*
Y308888D03*
Y306328D03*
Y303768D03*
Y301208D03*
Y298648D03*
Y296088D03*
X232493D03*
Y298648D03*
Y301208D03*
Y303768D03*
Y306328D03*
Y308888D03*
Y311448D03*
Y314008D03*
Y316568D03*
Y319128D03*
G54D121*
X316000Y220600D03*
Y208600D03*
G54D127*
X336363Y217583D03*
Y213843D03*
Y210103D03*
X325340D03*
Y217583D03*
G54D132*
X292400Y167800D02*
X290620Y169580D01*
Y173626*
X336363Y217583D02*
X342400D01*
X344375Y219558*
Y224118*
X328564Y224113D02*
Y248600D01*
X325964Y251200*
X320115*
X328564Y224113D02*
X338467D01*
X338472Y224118*
X344375*
X353346D02*
X353344Y224087D01*
X348615Y224088*
X348600Y224100*
X346000Y224118*
X344375*
X353346D02*
Y224368D01*
X248407Y231834D02*
X261000D01*
X261800Y232634*
Y234600*
X315115Y251200D02*
X320115D01*
X277789Y259379D02*
X282862D01*
X166600Y295600D02*
X171000Y300000D01*
X227000*
X241472Y319128D02*
Y326408D01*
X241633Y326568*
X232493Y319128D02*
X241472D01*
X232493Y316568D02*
X240368D01*
X241472Y317672*
Y319128*
G54D133*
X265961Y247011D03*
X296761Y247211D03*
G54D134*
X268520Y247011D03*
X271080D03*
X273639D03*
Y223389D03*
X271080D03*
X268520D03*
X265961D03*
X299320Y247211D03*
X301880D03*
X304439D03*
Y223589D03*
X301880D03*
X299320D03*
X296761D03*
G54D173*
X357890Y274970D03*
X361630D03*
X365370D03*
Y265915D03*
X361630D03*
X357890D03*
G74*
X0Y0D02*
M02*
