*
*
G04 PADS 9.5 Build Number: 522968 generated Gerber (RS-274-X) file*
G04 PC Version=2.1*
*
%IN "alarm_V1.1.pcb"*%
*
%MOIN*%
*
%FSLAX35Y35*%
*
*
*
*
G04 PC Standard Apertures*
*
*
G04 Thermal Relief Aperture macro.*
%AMTER*
1,1,$1,0,0*
1,0,$1-$2,0,0*
21,0,$3,$4,0,0,45*
21,0,$3,$4,0,0,135*
%
*
*
G04 Annular Aperture macro.*
%AMANN*
1,1,$1,0,0*
1,0,$2,0,0*
%
*
*
G04 Odd Aperture macro.*
%AMODD*
1,1,$1,0,0*
1,0,$1-0.005,0,0*
%
*
*
G04 PC Custom Aperture Macros*
*
*
*
*
*
*
G04 PC Aperture Table*
*
%ADD035C,0.01*%
%ADD075C,0.001*%
*
*
*
*
G04 PC Circuitry*
G04 Layer Name alarm_V1.1.pcb - circuitry*
%LPD*%
*
*
G04 PC Custom Flashes*
G04 Layer Name alarm_V1.1.pcb - flashes*
%LPD*%
*
*
G04 PC Circuitry*
G04 Layer Name alarm_V1.1.pcb - circuitry*
%LPD*%
*
G54D35*
G01X218266Y146068D02*
X226266D01*
X222266Y142068D02*
Y150068D01*
X225175Y151349D02*
X224266Y148068D01*
X225175Y151349D02*
X226084Y148068D01*
X224607Y149162D02*
X225743D01*
X185400Y146000D02*
X193400D01*
X189400Y142000D02*
Y150000D01*
X192309Y151281D02*
X191400Y148000D01*
X192309Y151281D02*
X193218Y148000D01*
X191741Y149094D02*
X192877D01*
X202000Y146000D02*
X210000D01*
X206000Y142000D02*
Y150000D01*
X208909Y151281D02*
X208000Y148000D01*
X208909Y151281D02*
X209818Y148000D01*
X208341Y149094D02*
X209477D01*
X193601Y314760D02*
X201601Y322760D01*
X193601D02*
X201601Y314760D01*
X185727D02*
X193727Y322760D01*
X185727D02*
X193727Y314760D01*
X177853D02*
X185853Y322760D01*
X177853D02*
X185853Y314760D01*
X169979D02*
X177979Y322760D01*
X169979D02*
X177979Y314760D01*
X367387Y237930D02*
X375387D01*
X371387Y233930D02*
Y241930D01*
X373387Y243212D02*
Y239930D01*
Y243212D02*
X374410D01*
X374750Y243055*
X374864Y242899*
X374978Y242587*
Y242274*
X374864Y241962*
X374750Y241805*
X374410Y241649*
X373387D02*
X374410D01*
X374750Y241493*
X374864Y241337*
X374978Y241024*
Y240555*
X374864Y240243*
X374750Y240087*
X374410Y239930*
X373387*
X366987Y253330D02*
X374987D01*
X370987Y249330D02*
Y257330D01*
X373896Y258612D02*
X372987Y255330D01*
X373896Y258612D02*
X374805Y255330D01*
X373328Y256424D02*
X374464D01*
X281400Y118800D02*
X289400D01*
X285400Y114800D02*
Y122800D01*
X289105Y123300D02*
X288991Y123613D01*
X288991D02*
X288764Y123925D01*
X288536Y124081*
X288082*
X287855Y123925*
X287627Y123613*
X287627D02*
X287514Y123300D01*
X287400Y122831*
Y122050*
X287514Y121581*
X287627Y121269*
X287855Y120956*
X288082Y120800*
X288536*
X288764Y120956*
X288991Y121269*
X289105Y121581*
X285000Y122000D02*
X293000D01*
X289000Y118000D02*
Y126000D01*
X292705Y126500D02*
X292591Y126813D01*
X292591D02*
X292364Y127125D01*
X292136Y127281*
X291682*
X291455Y127125*
X291227Y126813*
X291227D02*
X291114Y126500D01*
X291000Y126031*
Y125250*
X291114Y124781*
X291227Y124469*
X291455Y124156*
X291682Y124000*
X292136*
X292364Y124156*
X292591Y124469*
X292705Y124781*
X290800Y126200D02*
X298800D01*
X294800Y122200D02*
Y130200D01*
X298505Y130700D02*
X298391Y131013D01*
X298391D02*
X298164Y131325D01*
X297936Y131481*
X297482*
X297255Y131325*
X297027Y131013*
X297027D02*
X296914Y130700D01*
X296800Y130231*
Y129450*
X296914Y128981*
X297027Y128669*
X297255Y128356*
X297482Y128200*
X297936*
X298164Y128356*
X298391Y128669*
X298505Y128981*
X282600Y130000D02*
X290600D01*
X286600Y126000D02*
Y134000D01*
X290305Y134500D02*
X290191Y134813D01*
X290191D02*
X289964Y135125D01*
X289736Y135281*
X289282*
X289055Y135125*
X288827Y134813*
X288827D02*
X288714Y134500D01*
X288600Y134031*
Y133250*
X288714Y132781*
X288827Y132469*
X289055Y132156*
X289282Y132000*
X289736*
X289964Y132156*
X290191Y132469*
X290305Y132781*
X232200Y138600D02*
X240200D01*
X236200Y134600D02*
Y142600D01*
X239905Y143100D02*
X239791Y143413D01*
X239791D02*
X239564Y143725D01*
X239336Y143881*
X238882*
X238655Y143725*
X238427Y143413*
X238427D02*
X238314Y143100D01*
X238200Y142631*
Y141850*
X238314Y141381*
X238427Y141069*
X238655Y140756*
X238882Y140600*
X239336*
X239564Y140756*
X239791Y141069*
X239905Y141381*
X268600Y136400D02*
X276600D01*
X272600Y132400D02*
Y140400D01*
X276305Y140900D02*
X276191Y141213D01*
X276191D02*
X275964Y141525D01*
X275736Y141681*
X275282*
X275055Y141525*
X274827Y141213*
X274827D02*
X274714Y140900D01*
X274600Y140431*
Y139650*
X274714Y139181*
X274827Y138869*
X275055Y138556*
X275282Y138400*
X275736*
X275964Y138556*
X276191Y138869*
X276305Y139181*
X272200Y142400D02*
X280200D01*
X276200Y138400D02*
Y146400D01*
X279905Y146900D02*
X279791Y147213D01*
X279791D02*
X279564Y147525D01*
X279336Y147681*
X278882*
X278655Y147525*
X278427Y147213*
X278427D02*
X278314Y146900D01*
X278200Y146431*
Y145650*
X278314Y145181*
X278427Y144869*
X278655Y144556*
X278882Y144400*
X279336*
X279564Y144556*
X279791Y144869*
X279905Y145181*
X280400Y142600D02*
X288400D01*
X284400Y138600D02*
Y146600D01*
X288105Y147100D02*
X287991Y147413D01*
X287991D02*
X287764Y147725D01*
X287536Y147881*
X287082*
X286855Y147725*
X286627Y147413*
X286627D02*
X286514Y147100D01*
X286400Y146631*
Y145850*
X286514Y145381*
X286627Y145069*
X286855Y144756*
X287082Y144600*
X287536*
X287764Y144756*
X287991Y145069*
X288105Y145381*
X289200Y133000D02*
X297200D01*
X293200Y129000D02*
Y137000D01*
X296905Y137500D02*
X296791Y137813D01*
X296791D02*
X296564Y138125D01*
X296336Y138281*
X295882*
X295655Y138125*
X295427Y137813*
X295427D02*
X295314Y137500D01*
X295200Y137031*
Y136250*
X295314Y135781*
X295427Y135469*
X295655Y135156*
X295882Y135000*
X296336*
X296564Y135156*
X296791Y135469*
X296905Y135781*
X284400Y140800D02*
X292400D01*
X288400Y136800D02*
Y144800D01*
X292105Y145300D02*
X291991Y145613D01*
X291991D02*
X291764Y145925D01*
X291536Y146081*
X291082*
X290855Y145925*
X290627Y145613*
X290627D02*
X290514Y145300D01*
X290400Y144831*
Y144050*
X290514Y143581*
X290627Y143269*
X290855Y142956*
X291082Y142800*
X291536*
X291764Y142956*
X291991Y143269*
X292105Y143581*
X288800Y139000D02*
X296800D01*
X292800Y135000D02*
Y143000D01*
X296505Y143500D02*
X296391Y143813D01*
X296391D02*
X296164Y144125D01*
X295936Y144281*
X295482*
X295255Y144125*
X295027Y143813*
X295027D02*
X294914Y143500D01*
X294800Y143031*
Y142250*
X294914Y141781*
X295027Y141469*
X295255Y141156*
X295482Y141000*
X295936*
X296164Y141156*
X296391Y141469*
X296505Y141781*
X309600Y142800D02*
X317600D01*
X313600Y138800D02*
Y146800D01*
X317305Y147300D02*
X317191Y147613D01*
X317191D02*
X316964Y147925D01*
X316736Y148081*
X316282*
X316055Y147925*
X315827Y147613*
X315827D02*
X315714Y147300D01*
X315600Y146831*
Y146050*
X315714Y145581*
X315827Y145269*
X316055Y144956*
X316282Y144800*
X316736*
X316964Y144956*
X317191Y145269*
X317305Y145581*
X313400Y147000D02*
X321400D01*
X317400Y143000D02*
Y151000D01*
X321105Y151500D02*
X320991Y151813D01*
X320991D02*
X320764Y152125D01*
X320536Y152281*
X320082*
X319855Y152125*
X319627Y151813*
X319627D02*
X319514Y151500D01*
X319400Y151031*
Y150250*
X319514Y149781*
X319627Y149469*
X319855Y149156*
X320082Y149000*
X320536*
X320764Y149156*
X320991Y149469*
X321105Y149781*
X308200Y151400D02*
X316200D01*
X312200Y147400D02*
Y155400D01*
X315905Y155900D02*
X315791Y156213D01*
X315791D02*
X315564Y156525D01*
X315336Y156681*
X314882*
X314655Y156525*
X314427Y156213*
X314427D02*
X314314Y155900D01*
X314200Y155431*
Y154650*
X314314Y154181*
X314427Y153869*
X314655Y153556*
X314882Y153400*
X315336*
X315564Y153556*
X315791Y153869*
X315905Y154181*
X335200Y151000D02*
X343200D01*
X339200Y147000D02*
Y155000D01*
X342905Y155500D02*
X342791Y155813D01*
X342791D02*
X342564Y156125D01*
X342336Y156281*
X341882*
X341655Y156125*
X341427Y155813*
X341427D02*
X341314Y155500D01*
X341200Y155031*
Y154250*
X341314Y153781*
X341427Y153469*
X341655Y153156*
X341882Y153000*
X342336*
X342564Y153156*
X342791Y153469*
X342905Y153781*
X324200Y139000D02*
X332200D01*
X328200Y135000D02*
Y143000D01*
X331905Y143500D02*
X331791Y143813D01*
X331791D02*
X331564Y144125D01*
X331336Y144281*
X330882*
X330655Y144125*
X330427Y143813*
X330427D02*
X330314Y143500D01*
X330200Y143031*
Y142250*
X330314Y141781*
X330427Y141469*
X330655Y141156*
X330882Y141000*
X331336*
X331564Y141156*
X331791Y141469*
X331905Y141781*
X154400Y163400D02*
X162400D01*
X158400Y159400D02*
Y167400D01*
X162105Y167900D02*
X161991Y168213D01*
X161991D02*
X161764Y168525D01*
X161536Y168681*
X161082*
X160855Y168525*
X160627Y168213*
X160627D02*
X160514Y167900D01*
X160400Y167431*
Y166650*
X160514Y166181*
X160627Y165869*
X160855Y165556*
X161082Y165400*
X161536*
X161764Y165556*
X161991Y165869*
X162105Y166181*
X160800Y157400D02*
X168800D01*
X164800Y153400D02*
Y161400D01*
X168505Y161900D02*
X168391Y162213D01*
X168391D02*
X168164Y162525D01*
X167936Y162681*
X167482*
X167255Y162525*
X167027Y162213*
X167027D02*
X166914Y161900D01*
X166800Y161431*
Y160650*
X166914Y160181*
X167027Y159869*
X167255Y159556*
X167482Y159400*
X167936*
X168164Y159556*
X168391Y159869*
X168505Y160181*
X143400Y169800D02*
X151400D01*
X147400Y165800D02*
Y173800D01*
X151105Y174300D02*
X150991Y174613D01*
X150991D02*
X150764Y174925D01*
X150536Y175081*
X150082*
X149855Y174925*
X149627Y174613*
X149627D02*
X149514Y174300D01*
X149400Y173831*
Y173050*
X149514Y172581*
X149627Y172269*
X149855Y171956*
X150082Y171800*
X150536*
X150764Y171956*
X150991Y172269*
X151105Y172581*
X172000Y157800D02*
X180000D01*
X176000Y153800D02*
Y161800D01*
X179705Y162300D02*
X179591Y162613D01*
X179591D02*
X179364Y162925D01*
X179136Y163081*
X178682*
X178455Y162925*
X178227Y162613*
X178227D02*
X178114Y162300D01*
X178000Y161831*
Y161050*
X178114Y160581*
X178227Y160269*
X178455Y159956*
X178682Y159800*
X179136*
X179364Y159956*
X179591Y160269*
X179705Y160581*
X165800Y157600D02*
X173800D01*
X169800Y153600D02*
Y161600D01*
X173505Y162100D02*
X173391Y162413D01*
X173391D02*
X173164Y162725D01*
X172936Y162881*
X172482*
X172255Y162725*
X172027Y162413*
X172027D02*
X171914Y162100D01*
X171800Y161631*
Y160850*
X171914Y160381*
X172027Y160069*
X172255Y159756*
X172482Y159600*
X172936*
X173164Y159756*
X173391Y160069*
X173505Y160381*
X199200Y153600D02*
X207200D01*
X203200Y149600D02*
Y157600D01*
X206905Y158100D02*
X206791Y158413D01*
X206791D02*
X206564Y158725D01*
X206336Y158881*
X205882*
X205655Y158725*
X205427Y158413*
X205427D02*
X205314Y158100D01*
X205200Y157631*
Y156850*
X205314Y156381*
X205427Y156069*
X205655Y155756*
X205882Y155600*
X206336*
X206564Y155756*
X206791Y156069*
X206905Y156381*
X203000Y153600D02*
X211000D01*
X207000Y149600D02*
Y157600D01*
X210705Y158100D02*
X210591Y158413D01*
X210591D02*
X210364Y158725D01*
X210136Y158881*
X209682*
X209455Y158725*
X209227Y158413*
X209227D02*
X209114Y158100D01*
X209000Y157631*
Y156850*
X209114Y156381*
X209227Y156069*
X209455Y155756*
X209682Y155600*
X210136*
X210364Y155756*
X210591Y156069*
X210705Y156381*
X206600Y153600D02*
X214600D01*
X210600Y149600D02*
Y157600D01*
X214305Y158100D02*
X214191Y158413D01*
X214191D02*
X213964Y158725D01*
X213736Y158881*
X213282*
X213055Y158725*
X212827Y158413*
X212827D02*
X212714Y158100D01*
X212600Y157631*
Y156850*
X212714Y156381*
X212827Y156069*
X213055Y155756*
X213282Y155600*
X213736*
X213964Y155756*
X214191Y156069*
X214305Y156381*
X230200Y156200D02*
X238200D01*
X234200Y152200D02*
Y160200D01*
X237905Y160700D02*
X237791Y161013D01*
X237791D02*
X237564Y161325D01*
X237336Y161481*
X236882*
X236655Y161325*
X236427Y161013*
X236427D02*
X236314Y160700D01*
X236200Y160231*
Y159450*
X236314Y158981*
X236427Y158669*
X236655Y158356*
X236882Y158200*
X237336*
X237564Y158356*
X237791Y158669*
X237905Y158981*
X232000Y171400D02*
X240000D01*
X236000Y167400D02*
Y175400D01*
X239705Y175900D02*
X239591Y176213D01*
X239591D02*
X239364Y176525D01*
X239136Y176681*
X238682*
X238455Y176525*
X238227Y176213*
X238227D02*
X238114Y175900D01*
X238000Y175431*
Y174650*
X238114Y174181*
X238227Y173869*
X238455Y173556*
X238682Y173400*
X239136*
X239364Y173556*
X239591Y173869*
X239705Y174181*
X258400Y152400D02*
X266400D01*
X262400Y148400D02*
Y156400D01*
X266105Y156900D02*
X265991Y157213D01*
X265991D02*
X265764Y157525D01*
X265536Y157681*
X265082*
X264855Y157525*
X264627Y157213*
X264627D02*
X264514Y156900D01*
X264400Y156431*
Y155650*
X264514Y155181*
X264627Y154869*
X264855Y154556*
X265082Y154400*
X265536*
X265764Y154556*
X265991Y154869*
X266105Y155181*
X258000Y158200D02*
X266000D01*
X262000Y154200D02*
Y162200D01*
X265705Y162700D02*
X265591Y163013D01*
X265591D02*
X265364Y163325D01*
X265136Y163481*
X264682*
X264455Y163325*
X264227Y163013*
X264227D02*
X264114Y162700D01*
X264000Y162231*
Y161450*
X264114Y160981*
X264227Y160669*
X264455Y160356*
X264682Y160200*
X265136*
X265364Y160356*
X265591Y160669*
X265705Y160981*
X253000Y154200D02*
X261000D01*
X257000Y150200D02*
Y158200D01*
X260705Y158700D02*
X260591Y159013D01*
X260591D02*
X260364Y159325D01*
X260136Y159481*
X259682*
X259455Y159325*
X259227Y159013*
X259227D02*
X259114Y158700D01*
X259000Y158231*
Y157450*
X259114Y156981*
X259227Y156669*
X259455Y156356*
X259682Y156200*
X260136*
X260364Y156356*
X260591Y156669*
X260705Y156981*
X305800Y167600D02*
X313800D01*
X309800Y163600D02*
Y171600D01*
X313505Y172100D02*
X313391Y172413D01*
X313391D02*
X313164Y172725D01*
X312936Y172881*
X312482*
X312255Y172725*
X312027Y172413*
X312027D02*
X311914Y172100D01*
X311800Y171631*
Y170850*
X311914Y170381*
X312027Y170069*
X312255Y169756*
X312482Y169600*
X312936*
X313164Y169756*
X313391Y170069*
X313505Y170381*
X335000Y168200D02*
X343000D01*
X339000Y164200D02*
Y172200D01*
X342705Y172700D02*
X342591Y173013D01*
X342591D02*
X342364Y173325D01*
X342136Y173481*
X341682*
X341455Y173325*
X341227Y173013*
X341227D02*
X341114Y172700D01*
X341000Y172231*
Y171450*
X341114Y170981*
X341227Y170669*
X341455Y170356*
X341682Y170200*
X342136*
X342364Y170356*
X342591Y170669*
X342705Y170981*
X332800Y158200D02*
X340800D01*
X336800Y154200D02*
Y162200D01*
X340505Y162700D02*
X340391Y163013D01*
X340391D02*
X340164Y163325D01*
X339936Y163481*
X339482*
X339255Y163325*
X339027Y163013*
X339027D02*
X338914Y162700D01*
X338800Y162231*
Y161450*
X338914Y160981*
X339027Y160669*
X339255Y160356*
X339482Y160200*
X339936*
X340164Y160356*
X340391Y160669*
X340505Y160981*
X342600Y165600D02*
X350600D01*
X346600Y161600D02*
Y169600D01*
X350305Y170100D02*
X350191Y170413D01*
X350191D02*
X349964Y170725D01*
X349736Y170881*
X349282*
X349055Y170725*
X348827Y170413*
X348827D02*
X348714Y170100D01*
X348600Y169631*
Y168850*
X348714Y168381*
X348827Y168069*
X349055Y167756*
X349282Y167600*
X349736*
X349964Y167756*
X350191Y168069*
X350305Y168381*
X134000Y182600D02*
X142000D01*
X138000Y178600D02*
Y186600D01*
X141705Y187100D02*
X141591Y187413D01*
X141591D02*
X141364Y187725D01*
X141136Y187881*
X140682*
X140455Y187725*
X140227Y187413*
X140227D02*
X140114Y187100D01*
X140000Y186631*
Y185850*
X140114Y185381*
X140227Y185069*
X140455Y184756*
X140682Y184600*
X141136*
X141364Y184756*
X141591Y185069*
X141705Y185381*
X136400Y178600D02*
X144400D01*
X140400Y174600D02*
Y182600D01*
X144105Y183100D02*
X143991Y183413D01*
X143991D02*
X143764Y183725D01*
X143536Y183881*
X143082*
X142855Y183725*
X142627Y183413*
X142627D02*
X142514Y183100D01*
X142400Y182631*
Y181850*
X142514Y181381*
X142627Y181069*
X142855Y180756*
X143082Y180600*
X143536*
X143764Y180756*
X143991Y181069*
X144105Y181381*
X132400Y185400D02*
X140400D01*
X136400Y181400D02*
Y189400D01*
X140105Y189900D02*
X139991Y190213D01*
X139991D02*
X139764Y190525D01*
X139536Y190681*
X139082*
X138855Y190525*
X138627Y190213*
X138627D02*
X138514Y189900D01*
X138400Y189431*
Y188650*
X138514Y188181*
X138627Y187869*
X138855Y187556*
X139082Y187400*
X139536*
X139764Y187556*
X139991Y187869*
X140105Y188181*
X139400Y172800D02*
X147400D01*
X143400Y168800D02*
Y176800D01*
X147105Y177300D02*
X146991Y177613D01*
X146991D02*
X146764Y177925D01*
X146536Y178081*
X146082*
X145855Y177925*
X145627Y177613*
X145627D02*
X145514Y177300D01*
X145400Y176831*
Y176050*
X145514Y175581*
X145627Y175269*
X145855Y174956*
X146082Y174800*
X146536*
X146764Y174956*
X146991Y175269*
X147105Y175581*
X154000Y184800D02*
X162000D01*
X158000Y180800D02*
Y188800D01*
X161705Y189300D02*
X161591Y189613D01*
X161591D02*
X161364Y189925D01*
X161136Y190081*
X160682*
X160455Y189925*
X160227Y189613*
X160227D02*
X160114Y189300D01*
X160000Y188831*
Y188050*
X160114Y187581*
X160227Y187269*
X160455Y186956*
X160682Y186800*
X161136*
X161364Y186956*
X161591Y187269*
X161705Y187581*
X152600Y180000D02*
X160600D01*
X156600Y176000D02*
Y184000D01*
X160305Y184500D02*
X160191Y184813D01*
X160191D02*
X159964Y185125D01*
X159736Y185281*
X159282*
X159055Y185125*
X158827Y184813*
X158827D02*
X158714Y184500D01*
X158600Y184031*
Y183250*
X158714Y182781*
X158827Y182469*
X159055Y182156*
X159282Y182000*
X159736*
X159964Y182156*
X160191Y182469*
X160305Y182781*
X147400Y180600D02*
X155400D01*
X151400Y176600D02*
Y184600D01*
X155105Y185100D02*
X154991Y185413D01*
X154991D02*
X154764Y185725D01*
X154536Y185881*
X154082*
X153855Y185725*
X153627Y185413*
X153627D02*
X153514Y185100D01*
X153400Y184631*
Y183850*
X153514Y183381*
X153627Y183069*
X153855Y182756*
X154082Y182600*
X154536*
X154764Y182756*
X154991Y183069*
X155105Y183381*
X149600Y184000D02*
X157600D01*
X153600Y180000D02*
Y188000D01*
X157305Y188500D02*
X157191Y188813D01*
X157191D02*
X156964Y189125D01*
X156736Y189281*
X156282*
X156055Y189125*
X155827Y188813*
X155827D02*
X155714Y188500D01*
X155600Y188031*
Y187250*
X155714Y186781*
X155827Y186469*
X156055Y186156*
X156282Y186000*
X156736*
X156964Y186156*
X157191Y186469*
X157305Y186781*
X188000Y176400D02*
X196000D01*
X192000Y172400D02*
Y180400D01*
X195705Y180900D02*
X195591Y181213D01*
X195591D02*
X195364Y181525D01*
X195136Y181681*
X194682*
X194455Y181525*
X194227Y181213*
X194227D02*
X194114Y180900D01*
X194000Y180431*
Y179650*
X194114Y179181*
X194227Y178869*
X194455Y178556*
X194682Y178400*
X195136*
X195364Y178556*
X195591Y178869*
X195705Y179181*
X220200Y185600D02*
X228200D01*
X224200Y181600D02*
Y189600D01*
X227905Y190100D02*
X227791Y190413D01*
X227791D02*
X227564Y190725D01*
X227336Y190881*
X226882*
X226655Y190725*
X226427Y190413*
X226427D02*
X226314Y190100D01*
X226200Y189631*
Y188850*
X226314Y188381*
X226427Y188069*
X226655Y187756*
X226882Y187600*
X227336*
X227564Y187756*
X227791Y188069*
X227905Y188381*
X206200Y182200D02*
X214200D01*
X210200Y178200D02*
Y186200D01*
X213905Y186700D02*
X213791Y187013D01*
X213791D02*
X213564Y187325D01*
X213336Y187481*
X212882*
X212655Y187325*
X212427Y187013*
X212427D02*
X212314Y186700D01*
X212200Y186231*
Y185450*
X212314Y184981*
X212427Y184669*
X212655Y184356*
X212882Y184200*
X213336*
X213564Y184356*
X213791Y184669*
X213905Y184981*
X229200Y175000D02*
X237200D01*
X233200Y171000D02*
Y179000D01*
X236905Y179500D02*
X236791Y179813D01*
X236791D02*
X236564Y180125D01*
X236336Y180281*
X235882*
X235655Y180125*
X235427Y179813*
X235427D02*
X235314Y179500D01*
X235200Y179031*
Y178250*
X235314Y177781*
X235427Y177469*
X235655Y177156*
X235882Y177000*
X236336*
X236564Y177156*
X236791Y177469*
X236905Y177781*
X254800Y179000D02*
X262800D01*
X258800Y175000D02*
Y183000D01*
X262505Y183500D02*
X262391Y183813D01*
X262391D02*
X262164Y184125D01*
X261936Y184281*
X261482*
X261255Y184125*
X261027Y183813*
X261027D02*
X260914Y183500D01*
X260800Y183031*
Y182250*
X260914Y181781*
X261027Y181469*
X261255Y181156*
X261482Y181000*
X261936*
X262164Y181156*
X262391Y181469*
X262505Y181781*
X299200Y178400D02*
X307200D01*
X303200Y174400D02*
Y182400D01*
X306905Y182900D02*
X306791Y183213D01*
X306791D02*
X306564Y183525D01*
X306336Y183681*
X305882*
X305655Y183525*
X305427Y183213*
X305427D02*
X305314Y182900D01*
X305200Y182431*
Y181650*
X305314Y181181*
X305427Y180869*
X305655Y180556*
X305882Y180400*
X306336*
X306564Y180556*
X306791Y180869*
X306905Y181181*
X296600Y174400D02*
X304600D01*
X300600Y170400D02*
Y178400D01*
X304305Y178900D02*
X304191Y179213D01*
X304191D02*
X303964Y179525D01*
X303736Y179681*
X303282*
X303055Y179525*
X302827Y179213*
X302827D02*
X302714Y178900D01*
X302600Y178431*
Y177650*
X302714Y177181*
X302827Y176869*
X303055Y176556*
X303282Y176400*
X303736*
X303964Y176556*
X304191Y176869*
X304305Y177181*
X301400Y174800D02*
X309400D01*
X305400Y170800D02*
Y178800D01*
X309105Y179300D02*
X308991Y179613D01*
X308991D02*
X308764Y179925D01*
X308536Y180081*
X308082*
X307855Y179925*
X307627Y179613*
X307627D02*
X307514Y179300D01*
X307400Y178831*
Y178050*
X307514Y177581*
X307627Y177269*
X307855Y176956*
X308082Y176800*
X308536*
X308764Y176956*
X308991Y177269*
X309105Y177581*
X309000Y179800D02*
X317000D01*
X313000Y175800D02*
Y183800D01*
X316705Y184300D02*
X316591Y184613D01*
X316591D02*
X316364Y184925D01*
X316136Y185081*
X315682*
X315455Y184925*
X315227Y184613*
X315227D02*
X315114Y184300D01*
X315000Y183831*
Y183050*
X315114Y182581*
X315227Y182269*
X315455Y181956*
X315682Y181800*
X316136*
X316364Y181956*
X316591Y182269*
X316705Y182581*
X329200Y174400D02*
X337200D01*
X333200Y170400D02*
Y178400D01*
X336905Y178900D02*
X336791Y179213D01*
X336791D02*
X336564Y179525D01*
X336336Y179681*
X335882*
X335655Y179525*
X335427Y179213*
X335427D02*
X335314Y178900D01*
X335200Y178431*
Y177650*
X335314Y177181*
X335427Y176869*
X335655Y176556*
X335882Y176400*
X336336*
X336564Y176556*
X336791Y176869*
X336905Y177181*
X329000Y183000D02*
X337000D01*
X333000Y179000D02*
Y187000D01*
X336705Y187500D02*
X336591Y187813D01*
X336591D02*
X336364Y188125D01*
X336136Y188281*
X335682*
X335455Y188125*
X335227Y187813*
X335227D02*
X335114Y187500D01*
X335000Y187031*
Y186250*
X335114Y185781*
X335227Y185469*
X335455Y185156*
X335682Y185000*
X336136*
X336364Y185156*
X336591Y185469*
X336705Y185781*
X321600Y180000D02*
X329600D01*
X325600Y176000D02*
Y184000D01*
X329305Y184500D02*
X329191Y184813D01*
X329191D02*
X328964Y185125D01*
X328736Y185281*
X328282*
X328055Y185125*
X327827Y184813*
X327827D02*
X327714Y184500D01*
X327600Y184031*
Y183250*
X327714Y182781*
X327827Y182469*
X328055Y182156*
X328282Y182000*
X328736*
X328964Y182156*
X329191Y182469*
X329305Y182781*
X344200Y184000D02*
X352200D01*
X348200Y180000D02*
Y188000D01*
X351905Y188500D02*
X351791Y188813D01*
X351791D02*
X351564Y189125D01*
X351336Y189281*
X350882*
X350655Y189125*
X350427Y188813*
X350427D02*
X350314Y188500D01*
X350200Y188031*
Y187250*
X350314Y186781*
X350427Y186469*
X350655Y186156*
X350882Y186000*
X351336*
X351564Y186156*
X351791Y186469*
X351905Y186781*
X349000Y188800D02*
X357000D01*
X353000Y184800D02*
Y192800D01*
X356705Y193300D02*
X356591Y193613D01*
X356591D02*
X356364Y193925D01*
X356136Y194081*
X355682*
X355455Y193925*
X355227Y193613*
X355227D02*
X355114Y193300D01*
X355000Y192831*
Y192050*
X355114Y191581*
X355227Y191269*
X355455Y190956*
X355682Y190800*
X356136*
X356364Y190956*
X356591Y191269*
X356705Y191581*
X360400Y180800D02*
X368400D01*
X364400Y176800D02*
Y184800D01*
X368105Y185300D02*
X367991Y185613D01*
X367991D02*
X367764Y185925D01*
X367536Y186081*
X367082*
X366855Y185925*
X366627Y185613*
X366627D02*
X366514Y185300D01*
X366400Y184831*
Y184050*
X366514Y183581*
X366627Y183269*
X366855Y182956*
X367082Y182800*
X367536*
X367764Y182956*
X367991Y183269*
X368105Y183581*
X361200Y188000D02*
X369200D01*
X365200Y184000D02*
Y192000D01*
X368905Y192500D02*
X368791Y192813D01*
X368791D02*
X368564Y193125D01*
X368336Y193281*
X367882*
X367655Y193125*
X367427Y192813*
X367427D02*
X367314Y192500D01*
X367200Y192031*
Y191250*
X367314Y190781*
X367427Y190469*
X367655Y190156*
X367882Y190000*
X368336*
X368564Y190156*
X368791Y190469*
X368905Y190781*
X346400Y179200D02*
X354400D01*
X350400Y175200D02*
Y183200D01*
X354105Y183700D02*
X353991Y184013D01*
X353991D02*
X353764Y184325D01*
X353536Y184481*
X353082*
X352855Y184325*
X352627Y184013*
X352627D02*
X352514Y183700D01*
X352400Y183231*
Y182450*
X352514Y181981*
X352627Y181669*
X352855Y181356*
X353082Y181200*
X353536*
X353764Y181356*
X353991Y181669*
X354105Y181981*
X364000Y183600D02*
X372000D01*
X368000Y179600D02*
Y187600D01*
X371705Y188100D02*
X371591Y188413D01*
X371591D02*
X371364Y188725D01*
X371136Y188881*
X370682*
X370455Y188725*
X370227Y188413*
X370227D02*
X370114Y188100D01*
X370000Y187631*
Y186850*
X370114Y186381*
X370227Y186069*
X370455Y185756*
X370682Y185600*
X371136*
X371364Y185756*
X371591Y186069*
X371705Y186381*
X365600Y188600D02*
X373600D01*
X369600Y184600D02*
Y192600D01*
X373305Y193100D02*
X373191Y193413D01*
X373191D02*
X372964Y193725D01*
X372736Y193881*
X372282*
X372055Y193725*
X371827Y193413*
X371827D02*
X371714Y193100D01*
X371600Y192631*
Y191850*
X371714Y191381*
X371827Y191069*
X372055Y190756*
X372282Y190600*
X372736*
X372964Y190756*
X373191Y191069*
X373305Y191381*
X131600Y203400D02*
X139600D01*
X135600Y199400D02*
Y207400D01*
X139305Y207900D02*
X139191Y208213D01*
X139191D02*
X138964Y208525D01*
X138736Y208681*
X138282*
X138055Y208525*
X137827Y208213*
X137827D02*
X137714Y207900D01*
X137600Y207431*
Y206650*
X137714Y206181*
X137827Y205869*
X138055Y205556*
X138282Y205400*
X138736*
X138964Y205556*
X139191Y205869*
X139305Y206181*
X125800Y206200D02*
X133800D01*
X129800Y202200D02*
Y210200D01*
X133505Y210700D02*
X133391Y211013D01*
X133391D02*
X133164Y211325D01*
X132936Y211481*
X132482*
X132255Y211325*
X132027Y211013*
X132027D02*
X131914Y210700D01*
X131800Y210231*
Y209450*
X131914Y208981*
X132027Y208669*
X132255Y208356*
X132482Y208200*
X132936*
X133164Y208356*
X133391Y208669*
X133505Y208981*
X158600Y208400D02*
X166600D01*
X162600Y204400D02*
Y212400D01*
X166305Y212900D02*
X166191Y213213D01*
X166191D02*
X165964Y213525D01*
X165736Y213681*
X165282*
X165055Y213525*
X164827Y213213*
X164827D02*
X164714Y212900D01*
X164600Y212431*
Y211650*
X164714Y211181*
X164827Y210869*
X165055Y210556*
X165282Y210400*
X165736*
X165964Y210556*
X166191Y210869*
X166305Y211181*
X157200Y201400D02*
X165200D01*
X161200Y197400D02*
Y205400D01*
X164905Y205900D02*
X164791Y206213D01*
X164791D02*
X164564Y206525D01*
X164336Y206681*
X163882*
X163655Y206525*
X163427Y206213*
X163427D02*
X163314Y205900D01*
X163200Y205431*
Y204650*
X163314Y204181*
X163427Y203869*
X163655Y203556*
X163882Y203400*
X164336*
X164564Y203556*
X164791Y203869*
X164905Y204181*
X160000Y196200D02*
X168000D01*
X164000Y192200D02*
Y200200D01*
X167705Y200700D02*
X167591Y201013D01*
X167591D02*
X167364Y201325D01*
X167136Y201481*
X166682*
X166455Y201325*
X166227Y201013*
X166227D02*
X166114Y200700D01*
X166000Y200231*
Y199450*
X166114Y198981*
X166227Y198669*
X166455Y198356*
X166682Y198200*
X167136*
X167364Y198356*
X167591Y198669*
X167705Y198981*
X180800Y195400D02*
X188800D01*
X184800Y191400D02*
Y199400D01*
X188505Y199900D02*
X188391Y200213D01*
X188391D02*
X188164Y200525D01*
X187936Y200681*
X187482*
X187255Y200525*
X187027Y200213*
X187027D02*
X186914Y199900D01*
X186800Y199431*
Y198650*
X186914Y198181*
X187027Y197869*
X187255Y197556*
X187482Y197400*
X187936*
X188164Y197556*
X188391Y197869*
X188505Y198181*
X171000Y195400D02*
X179000D01*
X175000Y191400D02*
Y199400D01*
X178705Y199900D02*
X178591Y200213D01*
X178591D02*
X178364Y200525D01*
X178136Y200681*
X177682*
X177455Y200525*
X177227Y200213*
X177227D02*
X177114Y199900D01*
X177000Y199431*
Y198650*
X177114Y198181*
X177227Y197869*
X177455Y197556*
X177682Y197400*
X178136*
X178364Y197556*
X178591Y197869*
X178705Y198181*
X165000Y193400D02*
X173000D01*
X169000Y189400D02*
Y197400D01*
X172705Y197900D02*
X172591Y198213D01*
X172591D02*
X172364Y198525D01*
X172136Y198681*
X171682*
X171455Y198525*
X171227Y198213*
X171227D02*
X171114Y197900D01*
X171000Y197431*
Y196650*
X171114Y196181*
X171227Y195869*
X171455Y195556*
X171682Y195400*
X172136*
X172364Y195556*
X172591Y195869*
X172705Y196181*
X196000Y210000D02*
X204000D01*
X200000Y206000D02*
Y214000D01*
X203705Y214500D02*
X203591Y214813D01*
X203591D02*
X203364Y215125D01*
X203136Y215281*
X202682*
X202455Y215125*
X202227Y214813*
X202227D02*
X202114Y214500D01*
X202000Y214031*
Y213250*
X202114Y212781*
X202227Y212469*
X202455Y212156*
X202682Y212000*
X203136*
X203364Y212156*
X203591Y212469*
X203705Y212781*
X191400Y210400D02*
X199400D01*
X195400Y206400D02*
Y214400D01*
X199105Y214900D02*
X198991Y215213D01*
X198991D02*
X198764Y215525D01*
X198536Y215681*
X198082*
X197855Y215525*
X197627Y215213*
X197627D02*
X197514Y214900D01*
X197400Y214431*
Y213650*
X197514Y213181*
X197627Y212869*
X197855Y212556*
X198082Y212400*
X198536*
X198764Y212556*
X198991Y212869*
X199105Y213181*
X187200Y211000D02*
X195200D01*
X191200Y207000D02*
Y215000D01*
X194905Y215500D02*
X194791Y215813D01*
X194791D02*
X194564Y216125D01*
X194336Y216281*
X193882*
X193655Y216125*
X193427Y215813*
X193427D02*
X193314Y215500D01*
X193200Y215031*
Y214250*
X193314Y213781*
X193427Y213469*
X193655Y213156*
X193882Y213000*
X194336*
X194564Y213156*
X194791Y213469*
X194905Y213781*
X191000Y205400D02*
X199000D01*
X195000Y201400D02*
Y209400D01*
X198705Y209900D02*
X198591Y210213D01*
X198591D02*
X198364Y210525D01*
X198136Y210681*
X197682*
X197455Y210525*
X197227Y210213*
X197227D02*
X197114Y209900D01*
X197000Y209431*
Y208650*
X197114Y208181*
X197227Y207869*
X197455Y207556*
X197682Y207400*
X198136*
X198364Y207556*
X198591Y207869*
X198705Y208181*
X195800Y205400D02*
X203800D01*
X199800Y201400D02*
Y209400D01*
X203505Y209900D02*
X203391Y210213D01*
X203391D02*
X203164Y210525D01*
X202936Y210681*
X202482*
X202255Y210525*
X202027Y210213*
X202027D02*
X201914Y209900D01*
X201800Y209431*
Y208650*
X201914Y208181*
X202027Y207869*
X202255Y207556*
X202482Y207400*
X202936*
X203164Y207556*
X203391Y207869*
X203505Y208181*
X220400Y196400D02*
X228400D01*
X224400Y192400D02*
Y200400D01*
X228105Y200900D02*
X227991Y201213D01*
X227991D02*
X227764Y201525D01*
X227536Y201681*
X227082*
X226855Y201525*
X226627Y201213*
X226627D02*
X226514Y200900D01*
X226400Y200431*
Y199650*
X226514Y199181*
X226627Y198869*
X226855Y198556*
X227082Y198400*
X227536*
X227764Y198556*
X227991Y198869*
X228105Y199181*
X253200Y198800D02*
X261200D01*
X257200Y194800D02*
Y202800D01*
X260905Y203300D02*
X260791Y203613D01*
X260791D02*
X260564Y203925D01*
X260336Y204081*
X259882*
X259655Y203925*
X259427Y203613*
X259427D02*
X259314Y203300D01*
X259200Y202831*
Y202050*
X259314Y201581*
X259427Y201269*
X259655Y200956*
X259882Y200800*
X260336*
X260564Y200956*
X260791Y201269*
X260905Y201581*
X253200Y193600D02*
X261200D01*
X257200Y189600D02*
Y197600D01*
X260905Y198100D02*
X260791Y198413D01*
X260791D02*
X260564Y198725D01*
X260336Y198881*
X259882*
X259655Y198725*
X259427Y198413*
X259427D02*
X259314Y198100D01*
X259200Y197631*
Y196850*
X259314Y196381*
X259427Y196069*
X259655Y195756*
X259882Y195600*
X260336*
X260564Y195756*
X260791Y196069*
X260905Y196381*
X253200Y196200D02*
X261200D01*
X257200Y192200D02*
Y200200D01*
X260905Y200700D02*
X260791Y201013D01*
X260791D02*
X260564Y201325D01*
X260336Y201481*
X259882*
X259655Y201325*
X259427Y201013*
X259427D02*
X259314Y200700D01*
X259200Y200231*
Y199450*
X259314Y198981*
X259427Y198669*
X259655Y198356*
X259882Y198200*
X260336*
X260564Y198356*
X260791Y198669*
X260905Y198981*
X266600Y206200D02*
X274600D01*
X270600Y202200D02*
Y210200D01*
X274305Y210700D02*
X274191Y211013D01*
X274191D02*
X273964Y211325D01*
X273736Y211481*
X273282*
X273055Y211325*
X272827Y211013*
X272827D02*
X272714Y210700D01*
X272600Y210231*
Y209450*
X272714Y208981*
X272827Y208669*
X273055Y208356*
X273282Y208200*
X273736*
X273964Y208356*
X274191Y208669*
X274305Y208981*
X271600Y206200D02*
X279600D01*
X275600Y202200D02*
Y210200D01*
X279305Y210700D02*
X279191Y211013D01*
X279191D02*
X278964Y211325D01*
X278736Y211481*
X278282*
X278055Y211325*
X277827Y211013*
X277827D02*
X277714Y210700D01*
X277600Y210231*
Y209450*
X277714Y208981*
X277827Y208669*
X278055Y208356*
X278282Y208200*
X278736*
X278964Y208356*
X279191Y208669*
X279305Y208981*
X296000Y194400D02*
X304000D01*
X300000Y190400D02*
Y198400D01*
X303705Y198900D02*
X303591Y199213D01*
X303591D02*
X303364Y199525D01*
X303136Y199681*
X302682*
X302455Y199525*
X302227Y199213*
X302227D02*
X302114Y198900D01*
X302000Y198431*
Y197650*
X302114Y197181*
X302227Y196869*
X302455Y196556*
X302682Y196400*
X303136*
X303364Y196556*
X303591Y196869*
X303705Y197181*
X290800Y209800D02*
X298800D01*
X294800Y205800D02*
Y213800D01*
X298505Y214300D02*
X298391Y214613D01*
X298391D02*
X298164Y214925D01*
X297936Y215081*
X297482*
X297255Y214925*
X297027Y214613*
X297027D02*
X296914Y214300D01*
X296800Y213831*
Y213050*
X296914Y212581*
X297027Y212269*
X297255Y211956*
X297482Y211800*
X297936*
X298164Y211956*
X298391Y212269*
X298505Y212581*
X303600Y198400D02*
X311600D01*
X307600Y194400D02*
Y202400D01*
X311305Y202900D02*
X311191Y203213D01*
X311191D02*
X310964Y203525D01*
X310736Y203681*
X310282*
X310055Y203525*
X309827Y203213*
X309827D02*
X309714Y202900D01*
X309600Y202431*
Y201650*
X309714Y201181*
X309827Y200869*
X310055Y200556*
X310282Y200400*
X310736*
X310964Y200556*
X311191Y200869*
X311305Y201181*
X316600Y210000D02*
X324600D01*
X320600Y206000D02*
Y214000D01*
X324305Y214500D02*
X324191Y214813D01*
X324191D02*
X323964Y215125D01*
X323736Y215281*
X323282*
X323055Y215125*
X322827Y214813*
X322827D02*
X322714Y214500D01*
X322600Y214031*
Y213250*
X322714Y212781*
X322827Y212469*
X323055Y212156*
X323282Y212000*
X323736*
X323964Y212156*
X324191Y212469*
X324305Y212781*
X342400Y204400D02*
X350400D01*
X346400Y200400D02*
Y208400D01*
X350105Y208900D02*
X349991Y209213D01*
X349991D02*
X349764Y209525D01*
X349536Y209681*
X349082*
X348855Y209525*
X348627Y209213*
X348627D02*
X348514Y208900D01*
X348400Y208431*
Y207650*
X348514Y207181*
X348627Y206869*
X348855Y206556*
X349082Y206400*
X349536*
X349764Y206556*
X349991Y206869*
X350105Y207181*
X360000Y199000D02*
X368000D01*
X364000Y195000D02*
Y203000D01*
X367705Y203500D02*
X367591Y203813D01*
X367591D02*
X367364Y204125D01*
X367136Y204281*
X366682*
X366455Y204125*
X366227Y203813*
X366227D02*
X366114Y203500D01*
X366000Y203031*
Y202250*
X366114Y201781*
X366227Y201469*
X366455Y201156*
X366682Y201000*
X367136*
X367364Y201156*
X367591Y201469*
X367705Y201781*
X345200Y192400D02*
X353200D01*
X349200Y188400D02*
Y196400D01*
X352905Y196900D02*
X352791Y197213D01*
X352791D02*
X352564Y197525D01*
X352336Y197681*
X351882*
X351655Y197525*
X351427Y197213*
X351427D02*
X351314Y196900D01*
X351200Y196431*
Y195650*
X351314Y195181*
X351427Y194869*
X351655Y194556*
X351882Y194400*
X352336*
X352564Y194556*
X352791Y194869*
X352905Y195181*
X365400Y198600D02*
X373400D01*
X369400Y194600D02*
Y202600D01*
X373105Y203100D02*
X372991Y203413D01*
X372991D02*
X372764Y203725D01*
X372536Y203881*
X372082*
X371855Y203725*
X371627Y203413*
X371627D02*
X371514Y203100D01*
X371400Y202631*
Y201850*
X371514Y201381*
X371627Y201069*
X371855Y200756*
X372082Y200600*
X372536*
X372764Y200756*
X372991Y201069*
X373105Y201381*
X370400Y199200D02*
X378400D01*
X374400Y195200D02*
Y203200D01*
X378105Y203700D02*
X377991Y204013D01*
X377991D02*
X377764Y204325D01*
X377536Y204481*
X377082*
X376855Y204325*
X376627Y204013*
X376627D02*
X376514Y203700D01*
X376400Y203231*
Y202450*
X376514Y201981*
X376627Y201669*
X376855Y201356*
X377082Y201200*
X377536*
X377764Y201356*
X377991Y201669*
X378105Y201981*
X364800Y194200D02*
X372800D01*
X368800Y190200D02*
Y198200D01*
X372505Y198700D02*
X372391Y199013D01*
X372391D02*
X372164Y199325D01*
X371936Y199481*
X371482*
X371255Y199325*
X371027Y199013*
X371027D02*
X370914Y198700D01*
X370800Y198231*
Y197450*
X370914Y196981*
X371027Y196669*
X371255Y196356*
X371482Y196200*
X371936*
X372164Y196356*
X372391Y196669*
X372505Y196981*
X363600Y203400D02*
X371600D01*
X367600Y199400D02*
Y207400D01*
X371305Y207900D02*
X371191Y208213D01*
X371191D02*
X370964Y208525D01*
X370736Y208681*
X370282*
X370055Y208525*
X369827Y208213*
X369827D02*
X369714Y207900D01*
X369600Y207431*
Y206650*
X369714Y206181*
X369827Y205869*
X370055Y205556*
X370282Y205400*
X370736*
X370964Y205556*
X371191Y205869*
X371305Y206181*
X368400Y202800D02*
X376400D01*
X372400Y198800D02*
Y206800D01*
X376105Y207300D02*
X375991Y207613D01*
X375991D02*
X375764Y207925D01*
X375536Y208081*
X375082*
X374855Y207925*
X374627Y207613*
X374627D02*
X374514Y207300D01*
X374400Y206831*
Y206050*
X374514Y205581*
X374627Y205269*
X374855Y204956*
X375082Y204800*
X375536*
X375764Y204956*
X375991Y205269*
X376105Y205581*
X126000Y211800D02*
X134000D01*
X130000Y207800D02*
Y215800D01*
X133705Y216300D02*
X133591Y216613D01*
X133591D02*
X133364Y216925D01*
X133136Y217081*
X132682*
X132455Y216925*
X132227Y216613*
X132227D02*
X132114Y216300D01*
X132000Y215831*
Y215050*
X132114Y214581*
X132227Y214269*
X132455Y213956*
X132682Y213800*
X133136*
X133364Y213956*
X133591Y214269*
X133705Y214581*
X177400Y229200D02*
X185400D01*
X181400Y225200D02*
Y233200D01*
X185105Y233700D02*
X184991Y234013D01*
X184991D02*
X184764Y234325D01*
X184536Y234481*
X184082*
X183855Y234325*
X183627Y234013*
X183627D02*
X183514Y233700D01*
X183400Y233231*
Y232450*
X183514Y231981*
X183627Y231669*
X183855Y231356*
X184082Y231200*
X184536*
X184764Y231356*
X184991Y231669*
X185105Y231981*
X181000Y218600D02*
X189000D01*
X185000Y214600D02*
Y222600D01*
X188705Y223100D02*
X188591Y223413D01*
X188591D02*
X188364Y223725D01*
X188136Y223881*
X187682*
X187455Y223725*
X187227Y223413*
X187227D02*
X187114Y223100D01*
X187000Y222631*
Y221850*
X187114Y221381*
X187227Y221069*
X187455Y220756*
X187682Y220600*
X188136*
X188364Y220756*
X188591Y221069*
X188705Y221381*
X181000Y216200D02*
X189000D01*
X185000Y212200D02*
Y220200D01*
X188705Y220700D02*
X188591Y221013D01*
X188591D02*
X188364Y221325D01*
X188136Y221481*
X187682*
X187455Y221325*
X187227Y221013*
X187227D02*
X187114Y220700D01*
X187000Y220231*
Y219450*
X187114Y218981*
X187227Y218669*
X187455Y218356*
X187682Y218200*
X188136*
X188364Y218356*
X188591Y218669*
X188705Y218981*
X181000Y213800D02*
X189000D01*
X185000Y209800D02*
Y217800D01*
X188705Y218300D02*
X188591Y218613D01*
X188591D02*
X188364Y218925D01*
X188136Y219081*
X187682*
X187455Y218925*
X187227Y218613*
X187227D02*
X187114Y218300D01*
X187000Y217831*
Y217050*
X187114Y216581*
X187227Y216269*
X187455Y215956*
X187682Y215800*
X188136*
X188364Y215956*
X188591Y216269*
X188705Y216581*
X186200Y215800D02*
X194200D01*
X190200Y211800D02*
Y219800D01*
X193905Y220300D02*
X193791Y220613D01*
X193791D02*
X193564Y220925D01*
X193336Y221081*
X192882*
X192655Y220925*
X192427Y220613*
X192427D02*
X192314Y220300D01*
X192200Y219831*
Y219050*
X192314Y218581*
X192427Y218269*
X192655Y217956*
X192882Y217800*
X193336*
X193564Y217956*
X193791Y218269*
X193905Y218581*
X185600Y220200D02*
X193600D01*
X189600Y216200D02*
Y224200D01*
X193305Y224700D02*
X193191Y225013D01*
X193191D02*
X192964Y225325D01*
X192736Y225481*
X192282*
X192055Y225325*
X191827Y225013*
X191827D02*
X191714Y224700D01*
X191600Y224231*
Y223450*
X191714Y222981*
X191827Y222669*
X192055Y222356*
X192282Y222200*
X192736*
X192964Y222356*
X193191Y222669*
X193305Y222981*
X191200Y214400D02*
X199200D01*
X195200Y210400D02*
Y218400D01*
X198905Y218900D02*
X198791Y219213D01*
X198791D02*
X198564Y219525D01*
X198336Y219681*
X197882*
X197655Y219525*
X197427Y219213*
X197427D02*
X197314Y218900D01*
X197200Y218431*
Y217650*
X197314Y217181*
X197427Y216869*
X197655Y216556*
X197882Y216400*
X198336*
X198564Y216556*
X198791Y216869*
X198905Y217181*
X195200Y213600D02*
X203200D01*
X199200Y209600D02*
Y217600D01*
X202905Y218100D02*
X202791Y218413D01*
X202791D02*
X202564Y218725D01*
X202336Y218881*
X201882*
X201655Y218725*
X201427Y218413*
X201427D02*
X201314Y218100D01*
X201200Y217631*
Y216850*
X201314Y216381*
X201427Y216069*
X201655Y215756*
X201882Y215600*
X202336*
X202564Y215756*
X202791Y216069*
X202905Y216381*
X215400Y215200D02*
X223400D01*
X219400Y211200D02*
Y219200D01*
X223105Y219700D02*
X222991Y220013D01*
X222991D02*
X222764Y220325D01*
X222536Y220481*
X222082*
X221855Y220325*
X221627Y220013*
X221627D02*
X221514Y219700D01*
X221400Y219231*
Y218450*
X221514Y217981*
X221627Y217669*
X221855Y217356*
X222082Y217200*
X222536*
X222764Y217356*
X222991Y217669*
X223105Y217981*
X221200Y214400D02*
X229200D01*
X225200Y210400D02*
Y218400D01*
X228905Y218900D02*
X228791Y219213D01*
X228791D02*
X228564Y219525D01*
X228336Y219681*
X227882*
X227655Y219525*
X227427Y219213*
X227427D02*
X227314Y218900D01*
X227200Y218431*
Y217650*
X227314Y217181*
X227427Y216869*
X227655Y216556*
X227882Y216400*
X228336*
X228564Y216556*
X228791Y216869*
X228905Y217181*
X215000Y212000D02*
X223000D01*
X219000Y208000D02*
Y216000D01*
X222705Y216500D02*
X222591Y216813D01*
X222591D02*
X222364Y217125D01*
X222136Y217281*
X221682*
X221455Y217125*
X221227Y216813*
X221227D02*
X221114Y216500D01*
X221000Y216031*
Y215250*
X221114Y214781*
X221227Y214469*
X221455Y214156*
X221682Y214000*
X222136*
X222364Y214156*
X222591Y214469*
X222705Y214781*
X226000Y224000D02*
X234000D01*
X230000Y220000D02*
Y228000D01*
X233705Y228500D02*
X233591Y228813D01*
X233591D02*
X233364Y229125D01*
X233136Y229281*
X232682*
X232455Y229125*
X232227Y228813*
X232227D02*
X232114Y228500D01*
X232000Y228031*
Y227250*
X232114Y226781*
X232227Y226469*
X232455Y226156*
X232682Y226000*
X233136*
X233364Y226156*
X233591Y226469*
X233705Y226781*
X223400Y226200D02*
X231400D01*
X227400Y222200D02*
Y230200D01*
X231105Y230700D02*
X230991Y231013D01*
X230991D02*
X230764Y231325D01*
X230536Y231481*
X230082*
X229855Y231325*
X229627Y231013*
X229627D02*
X229514Y230700D01*
X229400Y230231*
Y229450*
X229514Y228981*
X229627Y228669*
X229855Y228356*
X230082Y228200*
X230536*
X230764Y228356*
X230991Y228669*
X231105Y228981*
X226000Y217800D02*
X234000D01*
X230000Y213800D02*
Y221800D01*
X233705Y222300D02*
X233591Y222613D01*
X233591D02*
X233364Y222925D01*
X233136Y223081*
X232682*
X232455Y222925*
X232227Y222613*
X232227D02*
X232114Y222300D01*
X232000Y221831*
Y221050*
X232114Y220581*
X232227Y220269*
X232455Y219956*
X232682Y219800*
X233136*
X233364Y219956*
X233591Y220269*
X233705Y220581*
X230000Y217800D02*
X238000D01*
X234000Y213800D02*
Y221800D01*
X237705Y222300D02*
X237591Y222613D01*
X237591D02*
X237364Y222925D01*
X237136Y223081*
X236682*
X236455Y222925*
X236227Y222613*
X236227D02*
X236114Y222300D01*
X236000Y221831*
Y221050*
X236114Y220581*
X236227Y220269*
X236455Y219956*
X236682Y219800*
X237136*
X237364Y219956*
X237591Y220269*
X237705Y220581*
X227000Y214600D02*
X235000D01*
X231000Y210600D02*
Y218600D01*
X234705Y219100D02*
X234591Y219413D01*
X234591D02*
X234364Y219725D01*
X234136Y219881*
X233682*
X233455Y219725*
X233227Y219413*
X233227D02*
X233114Y219100D01*
X233000Y218631*
Y217850*
X233114Y217381*
X233227Y217069*
X233455Y216756*
X233682Y216600*
X234136*
X234364Y216756*
X234591Y217069*
X234705Y217381*
X230200Y221600D02*
X238200D01*
X234200Y217600D02*
Y225600D01*
X237905Y226100D02*
X237791Y226413D01*
X237791D02*
X237564Y226725D01*
X237336Y226881*
X236882*
X236655Y226725*
X236427Y226413*
X236427D02*
X236314Y226100D01*
X236200Y225631*
Y224850*
X236314Y224381*
X236427Y224069*
X236655Y223756*
X236882Y223600*
X237336*
X237564Y223756*
X237791Y224069*
X237905Y224381*
X229000Y225800D02*
X237000D01*
X233000Y221800D02*
Y229800D01*
X236705Y230300D02*
X236591Y230613D01*
X236591D02*
X236364Y230925D01*
X236136Y231081*
X235682*
X235455Y230925*
X235227Y230613*
X235227D02*
X235114Y230300D01*
X235000Y229831*
Y229050*
X235114Y228581*
X235227Y228269*
X235455Y227956*
X235682Y227800*
X236136*
X236364Y227956*
X236591Y228269*
X236705Y228581*
X224400Y221000D02*
X232400D01*
X228400Y217000D02*
Y225000D01*
X232105Y225500D02*
X231991Y225813D01*
X231991D02*
X231764Y226125D01*
X231536Y226281*
X231082*
X230855Y226125*
X230627Y225813*
X230627D02*
X230514Y225500D01*
X230400Y225031*
Y224250*
X230514Y223781*
X230627Y223469*
X230855Y223156*
X231082Y223000*
X231536*
X231764Y223156*
X231991Y223469*
X232105Y223781*
X258600Y228600D02*
X266600D01*
X262600Y224600D02*
Y232600D01*
X266305Y233100D02*
X266191Y233413D01*
X266191D02*
X265964Y233725D01*
X265736Y233881*
X265282*
X265055Y233725*
X264827Y233413*
X264827D02*
X264714Y233100D01*
X264600Y232631*
Y231850*
X264714Y231381*
X264827Y231069*
X265055Y230756*
X265282Y230600*
X265736*
X265964Y230756*
X266191Y231069*
X266305Y231381*
X248800Y225000D02*
X256800D01*
X252800Y221000D02*
Y229000D01*
X256505Y229500D02*
X256391Y229813D01*
X256391D02*
X256164Y230125D01*
X255936Y230281*
X255482*
X255255Y230125*
X255027Y229813*
X255027D02*
X254914Y229500D01*
X254800Y229031*
Y228250*
X254914Y227781*
X255027Y227469*
X255255Y227156*
X255482Y227000*
X255936*
X256164Y227156*
X256391Y227469*
X256505Y227781*
X248400Y215200D02*
X256400D01*
X252400Y211200D02*
Y219200D01*
X256105Y219700D02*
X255991Y220013D01*
X255991D02*
X255764Y220325D01*
X255536Y220481*
X255082*
X254855Y220325*
X254627Y220013*
X254627D02*
X254514Y219700D01*
X254400Y219231*
Y218450*
X254514Y217981*
X254627Y217669*
X254855Y217356*
X255082Y217200*
X255536*
X255764Y217356*
X255991Y217669*
X256105Y217981*
X258200Y224600D02*
X266200D01*
X262200Y220600D02*
Y228600D01*
X265905Y229100D02*
X265791Y229413D01*
X265791D02*
X265564Y229725D01*
X265336Y229881*
X264882*
X264655Y229725*
X264427Y229413*
X264427D02*
X264314Y229100D01*
X264200Y228631*
Y227850*
X264314Y227381*
X264427Y227069*
X264655Y226756*
X264882Y226600*
X265336*
X265564Y226756*
X265791Y227069*
X265905Y227381*
X250600Y219800D02*
X258600D01*
X254600Y215800D02*
Y223800D01*
X258305Y224300D02*
X258191Y224613D01*
X258191D02*
X257964Y224925D01*
X257736Y225081*
X257282*
X257055Y224925*
X256827Y224613*
X256827D02*
X256714Y224300D01*
X256600Y223831*
Y223050*
X256714Y222581*
X256827Y222269*
X257055Y221956*
X257282Y221800*
X257736*
X257964Y221956*
X258191Y222269*
X258305Y222581*
X244800Y219400D02*
X252800D01*
X248800Y215400D02*
Y223400D01*
X252505Y223900D02*
X252391Y224213D01*
X252391D02*
X252164Y224525D01*
X251936Y224681*
X251482*
X251255Y224525*
X251027Y224213*
X251027D02*
X250914Y223900D01*
X250800Y223431*
Y222650*
X250914Y222181*
X251027Y221869*
X251255Y221556*
X251482Y221400*
X251936*
X252164Y221556*
X252391Y221869*
X252505Y222181*
X244800Y225000D02*
X252800D01*
X248800Y221000D02*
Y229000D01*
X252505Y229500D02*
X252391Y229813D01*
X252391D02*
X252164Y230125D01*
X251936Y230281*
X251482*
X251255Y230125*
X251027Y229813*
X251027D02*
X250914Y229500D01*
X250800Y229031*
Y228250*
X250914Y227781*
X251027Y227469*
X251255Y227156*
X251482Y227000*
X251936*
X252164Y227156*
X252391Y227469*
X252505Y227781*
X253600Y224800D02*
X261600D01*
X257600Y220800D02*
Y228800D01*
X261305Y229300D02*
X261191Y229613D01*
X261191D02*
X260964Y229925D01*
X260736Y230081*
X260282*
X260055Y229925*
X259827Y229613*
X259827D02*
X259714Y229300D01*
X259600Y228831*
Y228050*
X259714Y227581*
X259827Y227269*
X260055Y226956*
X260282Y226800*
X260736*
X260964Y226956*
X261191Y227269*
X261305Y227581*
X276400Y220800D02*
X284400D01*
X280400Y216800D02*
Y224800D01*
X284105Y225300D02*
X283991Y225613D01*
X283991D02*
X283764Y225925D01*
X283536Y226081*
X283082*
X282855Y225925*
X282627Y225613*
X282627D02*
X282514Y225300D01*
X282400Y224831*
Y224050*
X282514Y223581*
X282627Y223269*
X282855Y222956*
X283082Y222800*
X283536*
X283764Y222956*
X283991Y223269*
X284105Y223581*
X282800Y220800D02*
X290800D01*
X286800Y216800D02*
Y224800D01*
X290505Y225300D02*
X290391Y225613D01*
X290391D02*
X290164Y225925D01*
X289936Y226081*
X289482*
X289255Y225925*
X289027Y225613*
X289027D02*
X288914Y225300D01*
X288800Y224831*
Y224050*
X288914Y223581*
X289027Y223269*
X289255Y222956*
X289482Y222800*
X289936*
X290164Y222956*
X290391Y223269*
X290505Y223581*
X350800Y230800D02*
X358800D01*
X354800Y226800D02*
Y234800D01*
X358505Y235300D02*
X358391Y235613D01*
X358391D02*
X358164Y235925D01*
X357936Y236081*
X357482*
X357255Y235925*
X357027Y235613*
X357027D02*
X356914Y235300D01*
X356800Y234831*
Y234050*
X356914Y233581*
X357027Y233269*
X357255Y232956*
X357482Y232800*
X357936*
X358164Y232956*
X358391Y233269*
X358505Y233581*
X360400Y217400D02*
X368400D01*
X364400Y213400D02*
Y221400D01*
X368105Y221900D02*
X367991Y222213D01*
X367991D02*
X367764Y222525D01*
X367536Y222681*
X367082*
X366855Y222525*
X366627Y222213*
X366627D02*
X366514Y221900D01*
X366400Y221431*
Y220650*
X366514Y220181*
X366627Y219869*
X366855Y219556*
X367082Y219400*
X367536*
X367764Y219556*
X367991Y219869*
X368105Y220181*
X360400Y220000D02*
X368400D01*
X364400Y216000D02*
Y224000D01*
X368105Y224500D02*
X367991Y224813D01*
X367991D02*
X367764Y225125D01*
X367536Y225281*
X367082*
X366855Y225125*
X366627Y224813*
X366627D02*
X366514Y224500D01*
X366400Y224031*
Y223250*
X366514Y222781*
X366627Y222469*
X366855Y222156*
X367082Y222000*
X367536*
X367764Y222156*
X367991Y222469*
X368105Y222781*
X360400Y222800D02*
X368400D01*
X364400Y218800D02*
Y226800D01*
X368105Y227300D02*
X367991Y227613D01*
X367991D02*
X367764Y227925D01*
X367536Y228081*
X367082*
X366855Y227925*
X366627Y227613*
X366627D02*
X366514Y227300D01*
X366400Y226831*
Y226050*
X366514Y225581*
X366627Y225269*
X366855Y224956*
X367082Y224800*
X367536*
X367764Y224956*
X367991Y225269*
X368105Y225581*
X360400Y225600D02*
X368400D01*
X364400Y221600D02*
Y229600D01*
X368105Y230100D02*
X367991Y230413D01*
X367991D02*
X367764Y230725D01*
X367536Y230881*
X367082*
X366855Y230725*
X366627Y230413*
X366627D02*
X366514Y230100D01*
X366400Y229631*
Y228850*
X366514Y228381*
X366627Y228069*
X366855Y227756*
X367082Y227600*
X367536*
X367764Y227756*
X367991Y228069*
X368105Y228381*
X354400Y219400D02*
X362400D01*
X358400Y215400D02*
Y223400D01*
X362105Y223900D02*
X361991Y224213D01*
X361991D02*
X361764Y224525D01*
X361536Y224681*
X361082*
X360855Y224525*
X360627Y224213*
X360627D02*
X360514Y223900D01*
X360400Y223431*
Y222650*
X360514Y222181*
X360627Y221869*
X360855Y221556*
X361082Y221400*
X361536*
X361764Y221556*
X361991Y221869*
X362105Y222181*
X354400Y213000D02*
X362400D01*
X358400Y209000D02*
Y217000D01*
X362105Y217500D02*
X361991Y217813D01*
X361991D02*
X361764Y218125D01*
X361536Y218281*
X361082*
X360855Y218125*
X360627Y217813*
X360627D02*
X360514Y217500D01*
X360400Y217031*
Y216250*
X360514Y215781*
X360627Y215469*
X360855Y215156*
X361082Y215000*
X361536*
X361764Y215156*
X361991Y215469*
X362105Y215781*
X371800Y217600D02*
X379800D01*
X375800Y213600D02*
Y221600D01*
X379505Y222100D02*
X379391Y222413D01*
X379391D02*
X379164Y222725D01*
X378936Y222881*
X378482*
X378255Y222725*
X378027Y222413*
X378027D02*
X377914Y222100D01*
X377800Y221631*
Y220850*
X377914Y220381*
X378027Y220069*
X378255Y219756*
X378482Y219600*
X378936*
X379164Y219756*
X379391Y220069*
X379505Y220381*
X371800Y220200D02*
X379800D01*
X375800Y216200D02*
Y224200D01*
X379505Y224700D02*
X379391Y225013D01*
X379391D02*
X379164Y225325D01*
X378936Y225481*
X378482*
X378255Y225325*
X378027Y225013*
X378027D02*
X377914Y224700D01*
X377800Y224231*
Y223450*
X377914Y222981*
X378027Y222669*
X378255Y222356*
X378482Y222200*
X378936*
X379164Y222356*
X379391Y222669*
X379505Y222981*
X371800Y223000D02*
X379800D01*
X375800Y219000D02*
Y227000D01*
X379505Y227500D02*
X379391Y227813D01*
X379391D02*
X379164Y228125D01*
X378936Y228281*
X378482*
X378255Y228125*
X378027Y227813*
X378027D02*
X377914Y227500D01*
X377800Y227031*
Y226250*
X377914Y225781*
X378027Y225469*
X378255Y225156*
X378482Y225000*
X378936*
X379164Y225156*
X379391Y225469*
X379505Y225781*
X371800Y225600D02*
X379800D01*
X375800Y221600D02*
Y229600D01*
X379505Y230100D02*
X379391Y230413D01*
X379391D02*
X379164Y230725D01*
X378936Y230881*
X378482*
X378255Y230725*
X378027Y230413*
X378027D02*
X377914Y230100D01*
X377800Y229631*
Y228850*
X377914Y228381*
X378027Y228069*
X378255Y227756*
X378482Y227600*
X378936*
X379164Y227756*
X379391Y228069*
X379505Y228381*
X139200Y246000D02*
X147200D01*
X143200Y242000D02*
Y250000D01*
X146905Y250500D02*
X146791Y250813D01*
X146791D02*
X146564Y251125D01*
X146336Y251281*
X145882*
X145655Y251125*
X145427Y250813*
X145427D02*
X145314Y250500D01*
X145200Y250031*
Y249250*
X145314Y248781*
X145427Y248469*
X145655Y248156*
X145882Y248000*
X146336*
X146564Y248156*
X146791Y248469*
X146905Y248781*
X129600Y244800D02*
X137600D01*
X133600Y240800D02*
Y248800D01*
X137305Y249300D02*
X137191Y249613D01*
X137191D02*
X136964Y249925D01*
X136736Y250081*
X136282*
X136055Y249925*
X135827Y249613*
X135827D02*
X135714Y249300D01*
X135600Y248831*
Y248050*
X135714Y247581*
X135827Y247269*
X136055Y246956*
X136282Y246800*
X136736*
X136964Y246956*
X137191Y247269*
X137305Y247581*
X129200Y250600D02*
X137200D01*
X133200Y246600D02*
Y254600D01*
X136905Y255100D02*
X136791Y255413D01*
X136791D02*
X136564Y255725D01*
X136336Y255881*
X135882*
X135655Y255725*
X135427Y255413*
X135427D02*
X135314Y255100D01*
X135200Y254631*
Y253850*
X135314Y253381*
X135427Y253069*
X135655Y252756*
X135882Y252600*
X136336*
X136564Y252756*
X136791Y253069*
X136905Y253381*
X138800Y237200D02*
X146800D01*
X142800Y233200D02*
Y241200D01*
X146505Y241700D02*
X146391Y242013D01*
X146391D02*
X146164Y242325D01*
X145936Y242481*
X145482*
X145255Y242325*
X145027Y242013*
X145027D02*
X144914Y241700D01*
X144800Y241231*
Y240450*
X144914Y239981*
X145027Y239669*
X145255Y239356*
X145482Y239200*
X145936*
X146164Y239356*
X146391Y239669*
X146505Y239981*
X170600Y245400D02*
X178600D01*
X174600Y241400D02*
Y249400D01*
X178305Y249900D02*
X178191Y250213D01*
X178191D02*
X177964Y250525D01*
X177736Y250681*
X177282*
X177055Y250525*
X176827Y250213*
X176827D02*
X176714Y249900D01*
X176600Y249431*
Y248650*
X176714Y248181*
X176827Y247869*
X177055Y247556*
X177282Y247400*
X177736*
X177964Y247556*
X178191Y247869*
X178305Y248181*
X177400Y245400D02*
X185400D01*
X181400Y241400D02*
Y249400D01*
X185105Y249900D02*
X184991Y250213D01*
X184991D02*
X184764Y250525D01*
X184536Y250681*
X184082*
X183855Y250525*
X183627Y250213*
X183627D02*
X183514Y249900D01*
X183400Y249431*
Y248650*
X183514Y248181*
X183627Y247869*
X183855Y247556*
X184082Y247400*
X184536*
X184764Y247556*
X184991Y247869*
X185105Y248181*
X178000Y240200D02*
X186000D01*
X182000Y236200D02*
Y244200D01*
X185705Y244700D02*
X185591Y245013D01*
X185591D02*
X185364Y245325D01*
X185136Y245481*
X184682*
X184455Y245325*
X184227Y245013*
X184227D02*
X184114Y244700D01*
X184000Y244231*
Y243450*
X184114Y242981*
X184227Y242669*
X184455Y242356*
X184682Y242200*
X185136*
X185364Y242356*
X185591Y242669*
X185705Y242981*
X197800Y250400D02*
X205800D01*
X201800Y246400D02*
Y254400D01*
X205505Y254900D02*
X205391Y255213D01*
X205391D02*
X205164Y255525D01*
X204936Y255681*
X204482*
X204255Y255525*
X204027Y255213*
X204027D02*
X203914Y254900D01*
X203800Y254431*
Y253650*
X203914Y253181*
X204027Y252869*
X204255Y252556*
X204482Y252400*
X204936*
X205164Y252556*
X205391Y252869*
X205505Y253181*
X193000Y247800D02*
X201000D01*
X197000Y243800D02*
Y251800D01*
X200705Y252300D02*
X200591Y252613D01*
X200591D02*
X200364Y252925D01*
X200136Y253081*
X199682*
X199455Y252925*
X199227Y252613*
X199227D02*
X199114Y252300D01*
X199000Y251831*
Y251050*
X199114Y250581*
X199227Y250269*
X199455Y249956*
X199682Y249800*
X200136*
X200364Y249956*
X200591Y250269*
X200705Y250581*
X192400Y238400D02*
X200400D01*
X196400Y234400D02*
Y242400D01*
X200105Y242900D02*
X199991Y243213D01*
X199991D02*
X199764Y243525D01*
X199536Y243681*
X199082*
X198855Y243525*
X198627Y243213*
X198627D02*
X198514Y242900D01*
X198400Y242431*
Y241650*
X198514Y241181*
X198627Y240869*
X198855Y240556*
X199082Y240400*
X199536*
X199764Y240556*
X199991Y240869*
X200105Y241181*
X215400Y246400D02*
X223400D01*
X219400Y242400D02*
Y250400D01*
X223105Y250900D02*
X222991Y251213D01*
X222991D02*
X222764Y251525D01*
X222536Y251681*
X222082*
X221855Y251525*
X221627Y251213*
X221627D02*
X221514Y250900D01*
X221400Y250431*
Y249650*
X221514Y249181*
X221627Y248869*
X221855Y248556*
X222082Y248400*
X222536*
X222764Y248556*
X222991Y248869*
X223105Y249181*
X202000Y249600D02*
X210000D01*
X206000Y245600D02*
Y253600D01*
X209705Y254100D02*
X209591Y254413D01*
X209591D02*
X209364Y254725D01*
X209136Y254881*
X208682*
X208455Y254725*
X208227Y254413*
X208227D02*
X208114Y254100D01*
X208000Y253631*
Y252850*
X208114Y252381*
X208227Y252069*
X208455Y251756*
X208682Y251600*
X209136*
X209364Y251756*
X209591Y252069*
X209705Y252381*
X208600Y243000D02*
X216600D01*
X212600Y239000D02*
Y247000D01*
X216305Y247500D02*
X216191Y247813D01*
X216191D02*
X215964Y248125D01*
X215736Y248281*
X215282*
X215055Y248125*
X214827Y247813*
X214827D02*
X214714Y247500D01*
X214600Y247031*
Y246250*
X214714Y245781*
X214827Y245469*
X215055Y245156*
X215282Y245000*
X215736*
X215964Y245156*
X216191Y245469*
X216305Y245781*
X237200Y251200D02*
X245200D01*
X241200Y247200D02*
Y255200D01*
X244905Y255700D02*
X244791Y256013D01*
X244791D02*
X244564Y256325D01*
X244336Y256481*
X243882*
X243655Y256325*
X243427Y256013*
X243427D02*
X243314Y255700D01*
X243200Y255231*
Y254450*
X243314Y253981*
X243427Y253669*
X243655Y253356*
X243882Y253200*
X244336*
X244564Y253356*
X244791Y253669*
X244905Y253981*
X233400Y232400D02*
X241400D01*
X237400Y228400D02*
Y236400D01*
X241105Y236900D02*
X240991Y237213D01*
X240991D02*
X240764Y237525D01*
X240536Y237681*
X240082*
X239855Y237525*
X239627Y237213*
X239627D02*
X239514Y236900D01*
X239400Y236431*
Y235650*
X239514Y235181*
X239627Y234869*
X239855Y234556*
X240082Y234400*
X240536*
X240764Y234556*
X240991Y234869*
X241105Y235181*
X235000Y242200D02*
X243000D01*
X239000Y238200D02*
Y246200D01*
X242705Y246700D02*
X242591Y247013D01*
X242591D02*
X242364Y247325D01*
X242136Y247481*
X241682*
X241455Y247325*
X241227Y247013*
X241227D02*
X241114Y246700D01*
X241000Y246231*
Y245450*
X241114Y244981*
X241227Y244669*
X241455Y244356*
X241682Y244200*
X242136*
X242364Y244356*
X242591Y244669*
X242705Y244981*
X257800Y234600D02*
X265800D01*
X261800Y230600D02*
Y238600D01*
X265505Y239100D02*
X265391Y239413D01*
X265391D02*
X265164Y239725D01*
X264936Y239881*
X264482*
X264255Y239725*
X264027Y239413*
X264027D02*
X263914Y239100D01*
X263800Y238631*
Y237850*
X263914Y237381*
X264027Y237069*
X264255Y236756*
X264482Y236600*
X264936*
X265164Y236756*
X265391Y237069*
X265505Y237381*
X273600Y242800D02*
X281600D01*
X277600Y238800D02*
Y246800D01*
X281305Y247300D02*
X281191Y247613D01*
X281191D02*
X280964Y247925D01*
X280736Y248081*
X280282*
X280055Y247925*
X279827Y247613*
X279827D02*
X279714Y247300D01*
X279600Y246831*
Y246050*
X279714Y245581*
X279827Y245269*
X280055Y244956*
X280282Y244800*
X280736*
X280964Y244956*
X281191Y245269*
X281305Y245581*
X269000Y242000D02*
X277000D01*
X273000Y238000D02*
Y246000D01*
X276705Y246500D02*
X276591Y246813D01*
X276591D02*
X276364Y247125D01*
X276136Y247281*
X275682*
X275455Y247125*
X275227Y246813*
X275227D02*
X275114Y246500D01*
X275000Y246031*
Y245250*
X275114Y244781*
X275227Y244469*
X275455Y244156*
X275682Y244000*
X276136*
X276364Y244156*
X276591Y244469*
X276705Y244781*
X305400Y248200D02*
X313400D01*
X309400Y244200D02*
Y252200D01*
X313105Y252700D02*
X312991Y253013D01*
X312991D02*
X312764Y253325D01*
X312536Y253481*
X312082*
X311855Y253325*
X311627Y253013*
X311627D02*
X311514Y252700D01*
X311400Y252231*
Y251450*
X311514Y250981*
X311627Y250669*
X311855Y250356*
X312082Y250200*
X312536*
X312764Y250356*
X312991Y250669*
X313105Y250981*
X120800Y262200D02*
X128800D01*
X124800Y258200D02*
Y266200D01*
X128505Y266700D02*
X128391Y267013D01*
X128391D02*
X128164Y267325D01*
X127936Y267481*
X127482*
X127255Y267325*
X127027Y267013*
X127027D02*
X126914Y266700D01*
X126800Y266231*
Y265450*
X126914Y264981*
X127027Y264669*
X127255Y264356*
X127482Y264200*
X127936*
X128164Y264356*
X128391Y264669*
X128505Y264981*
X139800Y256000D02*
X147800D01*
X143800Y252000D02*
Y260000D01*
X147505Y260500D02*
X147391Y260813D01*
X147391D02*
X147164Y261125D01*
X146936Y261281*
X146482*
X146255Y261125*
X146027Y260813*
X146027D02*
X145914Y260500D01*
X145800Y260031*
Y259250*
X145914Y258781*
X146027Y258469*
X146255Y258156*
X146482Y258000*
X146936*
X147164Y258156*
X147391Y258469*
X147505Y258781*
X125600Y266000D02*
X133600D01*
X129600Y262000D02*
Y270000D01*
X133305Y270500D02*
X133191Y270813D01*
X133191D02*
X132964Y271125D01*
X132736Y271281*
X132282*
X132055Y271125*
X131827Y270813*
X131827D02*
X131714Y270500D01*
X131600Y270031*
Y269250*
X131714Y268781*
X131827Y268469*
X132055Y268156*
X132282Y268000*
X132736*
X132964Y268156*
X133191Y268469*
X133305Y268781*
X161000Y263600D02*
X169000D01*
X165000Y259600D02*
Y267600D01*
X168705Y268100D02*
X168591Y268413D01*
X168591D02*
X168364Y268725D01*
X168136Y268881*
X167682*
X167455Y268725*
X167227Y268413*
X167227D02*
X167114Y268100D01*
X167000Y267631*
Y266850*
X167114Y266381*
X167227Y266069*
X167455Y265756*
X167682Y265600*
X168136*
X168364Y265756*
X168591Y266069*
X168705Y266381*
X159800Y268800D02*
X167800D01*
X163800Y264800D02*
Y272800D01*
X167505Y273300D02*
X167391Y273613D01*
X167391D02*
X167164Y273925D01*
X166936Y274081*
X166482*
X166255Y273925*
X166027Y273613*
X166027D02*
X165914Y273300D01*
X165800Y272831*
Y272050*
X165914Y271581*
X166027Y271269*
X166255Y270956*
X166482Y270800*
X166936*
X167164Y270956*
X167391Y271269*
X167505Y271581*
X156800Y261600D02*
X164800D01*
X160800Y257600D02*
Y265600D01*
X164505Y266100D02*
X164391Y266413D01*
X164391D02*
X164164Y266725D01*
X163936Y266881*
X163482*
X163255Y266725*
X163027Y266413*
X163027D02*
X162914Y266100D01*
X162800Y265631*
Y264850*
X162914Y264381*
X163027Y264069*
X163255Y263756*
X163482Y263600*
X163936*
X164164Y263756*
X164391Y264069*
X164505Y264381*
X156200Y265400D02*
X164200D01*
X160200Y261400D02*
Y269400D01*
X163905Y269900D02*
X163791Y270213D01*
X163791D02*
X163564Y270525D01*
X163336Y270681*
X162882*
X162655Y270525*
X162427Y270213*
X162427D02*
X162314Y269900D01*
X162200Y269431*
Y268650*
X162314Y268181*
X162427Y267869*
X162655Y267556*
X162882Y267400*
X163336*
X163564Y267556*
X163791Y267869*
X163905Y268181*
X175800Y267200D02*
X183800D01*
X179800Y263200D02*
Y271200D01*
X183505Y271700D02*
X183391Y272013D01*
X183391D02*
X183164Y272325D01*
X182936Y272481*
X182482*
X182255Y272325*
X182027Y272013*
X182027D02*
X181914Y271700D01*
X181800Y271231*
Y270450*
X181914Y269981*
X182027Y269669*
X182255Y269356*
X182482Y269200*
X182936*
X183164Y269356*
X183391Y269669*
X183505Y269981*
X176200Y271000D02*
X184200D01*
X180200Y267000D02*
Y275000D01*
X183905Y275500D02*
X183791Y275813D01*
X183791D02*
X183564Y276125D01*
X183336Y276281*
X182882*
X182655Y276125*
X182427Y275813*
X182427D02*
X182314Y275500D01*
X182200Y275031*
Y274250*
X182314Y273781*
X182427Y273469*
X182655Y273156*
X182882Y273000*
X183336*
X183564Y273156*
X183791Y273469*
X183905Y273781*
X184000Y265600D02*
X192000D01*
X188000Y261600D02*
Y269600D01*
X191705Y270100D02*
X191591Y270413D01*
X191591D02*
X191364Y270725D01*
X191136Y270881*
X190682*
X190455Y270725*
X190227Y270413*
X190227D02*
X190114Y270100D01*
X190000Y269631*
Y268850*
X190114Y268381*
X190227Y268069*
X190455Y267756*
X190682Y267600*
X191136*
X191364Y267756*
X191591Y268069*
X191705Y268381*
X185000Y271200D02*
X193000D01*
X189000Y267200D02*
Y275200D01*
X192705Y275700D02*
X192591Y276013D01*
X192591D02*
X192364Y276325D01*
X192136Y276481*
X191682*
X191455Y276325*
X191227Y276013*
X191227D02*
X191114Y275700D01*
X191000Y275231*
Y274450*
X191114Y273981*
X191227Y273669*
X191455Y273356*
X191682Y273200*
X192136*
X192364Y273356*
X192591Y273669*
X192705Y273981*
X193400Y252200D02*
X201400D01*
X197400Y248200D02*
Y256200D01*
X201105Y256700D02*
X200991Y257013D01*
X200991D02*
X200764Y257325D01*
X200536Y257481*
X200082*
X199855Y257325*
X199627Y257013*
X199627D02*
X199514Y256700D01*
X199400Y256231*
Y255450*
X199514Y254981*
X199627Y254669*
X199855Y254356*
X200082Y254200*
X200536*
X200764Y254356*
X200991Y254669*
X201105Y254981*
X209000Y257800D02*
X217000D01*
X213000Y253800D02*
Y261800D01*
X216705Y262300D02*
X216591Y262613D01*
X216591D02*
X216364Y262925D01*
X216136Y263081*
X215682*
X215455Y262925*
X215227Y262613*
X215227D02*
X215114Y262300D01*
X215000Y261831*
Y261050*
X215114Y260581*
X215227Y260269*
X215455Y259956*
X215682Y259800*
X216136*
X216364Y259956*
X216591Y260269*
X216705Y260581*
X208200Y251600D02*
X216200D01*
X212200Y247600D02*
Y255600D01*
X215905Y256100D02*
X215791Y256413D01*
X215791D02*
X215564Y256725D01*
X215336Y256881*
X214882*
X214655Y256725*
X214427Y256413*
X214427D02*
X214314Y256100D01*
X214200Y255631*
Y254850*
X214314Y254381*
X214427Y254069*
X214655Y253756*
X214882Y253600*
X215336*
X215564Y253756*
X215791Y254069*
X215905Y254381*
X216000Y252400D02*
X224000D01*
X220000Y248400D02*
Y256400D01*
X223705Y256900D02*
X223591Y257213D01*
X223591D02*
X223364Y257525D01*
X223136Y257681*
X222682*
X222455Y257525*
X222227Y257213*
X222227D02*
X222114Y256900D01*
X222000Y256431*
Y255650*
X222114Y255181*
X222227Y254869*
X222455Y254556*
X222682Y254400*
X223136*
X223364Y254556*
X223591Y254869*
X223705Y255181*
X214800Y257600D02*
X222800D01*
X218800Y253600D02*
Y261600D01*
X222505Y262100D02*
X222391Y262413D01*
X222391D02*
X222164Y262725D01*
X221936Y262881*
X221482*
X221255Y262725*
X221027Y262413*
X221027D02*
X220914Y262100D01*
X220800Y261631*
Y260850*
X220914Y260381*
X221027Y260069*
X221255Y259756*
X221482Y259600*
X221936*
X222164Y259756*
X222391Y260069*
X222505Y260381*
X201600Y257600D02*
X209600D01*
X205600Y253600D02*
Y261600D01*
X209305Y262100D02*
X209191Y262413D01*
X209191D02*
X208964Y262725D01*
X208736Y262881*
X208282*
X208055Y262725*
X207827Y262413*
X207827D02*
X207714Y262100D01*
X207600Y261631*
Y260850*
X207714Y260381*
X207827Y260069*
X208055Y259756*
X208282Y259600*
X208736*
X208964Y259756*
X209191Y260069*
X209305Y260381*
X233400Y259200D02*
X241400D01*
X237400Y255200D02*
Y263200D01*
X241105Y263700D02*
X240991Y264013D01*
X240991D02*
X240764Y264325D01*
X240536Y264481*
X240082*
X239855Y264325*
X239627Y264013*
X239627D02*
X239514Y263700D01*
X239400Y263231*
Y262450*
X239514Y261981*
X239627Y261669*
X239855Y261356*
X240082Y261200*
X240536*
X240764Y261356*
X240991Y261669*
X241105Y261981*
X235200Y262400D02*
X243200D01*
X239200Y258400D02*
Y266400D01*
X242905Y266900D02*
X242791Y267213D01*
X242791D02*
X242564Y267525D01*
X242336Y267681*
X241882*
X241655Y267525*
X241427Y267213*
X241427D02*
X241314Y266900D01*
X241200Y266431*
Y265650*
X241314Y265181*
X241427Y264869*
X241655Y264556*
X241882Y264400*
X242336*
X242564Y264556*
X242791Y264869*
X242905Y265181*
X230600Y266800D02*
X238600D01*
X234600Y262800D02*
Y270800D01*
X238305Y271300D02*
X238191Y271613D01*
X238191D02*
X237964Y271925D01*
X237736Y272081*
X237282*
X237055Y271925*
X236827Y271613*
X236827D02*
X236714Y271300D01*
X236600Y270831*
Y270050*
X236714Y269581*
X236827Y269269*
X237055Y268956*
X237282Y268800*
X237736*
X237964Y268956*
X238191Y269269*
X238305Y269581*
X246400Y252800D02*
X254400D01*
X250400Y248800D02*
Y256800D01*
X254105Y257300D02*
X253991Y257613D01*
X253991D02*
X253764Y257925D01*
X253536Y258081*
X253082*
X252855Y257925*
X252627Y257613*
X252627D02*
X252514Y257300D01*
X252400Y256831*
Y256050*
X252514Y255581*
X252627Y255269*
X252855Y254956*
X253082Y254800*
X253536*
X253764Y254956*
X253991Y255269*
X254105Y255581*
X254400Y253400D02*
X262400D01*
X258400Y249400D02*
Y257400D01*
X262105Y257900D02*
X261991Y258213D01*
X261991D02*
X261764Y258525D01*
X261536Y258681*
X261082*
X260855Y258525*
X260627Y258213*
X260627D02*
X260514Y257900D01*
X260400Y257431*
Y256650*
X260514Y256181*
X260627Y255869*
X260855Y255556*
X261082Y255400*
X261536*
X261764Y255556*
X261991Y255869*
X262105Y256181*
X258800Y270600D02*
X266800D01*
X262800Y266600D02*
Y274600D01*
X266505Y275100D02*
X266391Y275413D01*
X266391D02*
X266164Y275725D01*
X265936Y275881*
X265482*
X265255Y275725*
X265027Y275413*
X265027D02*
X264914Y275100D01*
X264800Y274631*
Y273850*
X264914Y273381*
X265027Y273069*
X265255Y272756*
X265482Y272600*
X265936*
X266164Y272756*
X266391Y273069*
X266505Y273381*
X249600Y259200D02*
X257600D01*
X253600Y255200D02*
Y263200D01*
X257305Y263700D02*
X257191Y264013D01*
X257191D02*
X256964Y264325D01*
X256736Y264481*
X256282*
X256055Y264325*
X255827Y264013*
X255827D02*
X255714Y263700D01*
X255600Y263231*
Y262450*
X255714Y261981*
X255827Y261669*
X256055Y261356*
X256282Y261200*
X256736*
X256964Y261356*
X257191Y261669*
X257305Y261981*
X249800Y267200D02*
X257800D01*
X253800Y263200D02*
Y271200D01*
X257505Y271700D02*
X257391Y272013D01*
X257391D02*
X257164Y272325D01*
X256936Y272481*
X256482*
X256255Y272325*
X256027Y272013*
X256027D02*
X255914Y271700D01*
X255800Y271231*
Y270450*
X255914Y269981*
X256027Y269669*
X256255Y269356*
X256482Y269200*
X256936*
X257164Y269356*
X257391Y269669*
X257505Y269981*
X265200Y267600D02*
X273200D01*
X269200Y263600D02*
Y271600D01*
X272905Y272100D02*
X272791Y272413D01*
X272791D02*
X272564Y272725D01*
X272336Y272881*
X271882*
X271655Y272725*
X271427Y272413*
X271427D02*
X271314Y272100D01*
X271200Y271631*
Y270850*
X271314Y270381*
X271427Y270069*
X271655Y269756*
X271882Y269600*
X272336*
X272564Y269756*
X272791Y270069*
X272905Y270381*
X272600Y255800D02*
X280600D01*
X276600Y251800D02*
Y259800D01*
X280305Y260300D02*
X280191Y260613D01*
X280191D02*
X279964Y260925D01*
X279736Y261081*
X279282*
X279055Y260925*
X278827Y260613*
X278827D02*
X278714Y260300D01*
X278600Y259831*
Y259050*
X278714Y258581*
X278827Y258269*
X279055Y257956*
X279282Y257800*
X279736*
X279964Y257956*
X280191Y258269*
X280305Y258581*
X270200Y264400D02*
X278200D01*
X274200Y260400D02*
Y268400D01*
X277905Y268900D02*
X277791Y269213D01*
X277791D02*
X277564Y269525D01*
X277336Y269681*
X276882*
X276655Y269525*
X276427Y269213*
X276427D02*
X276314Y268900D01*
X276200Y268431*
Y267650*
X276314Y267181*
X276427Y266869*
X276655Y266556*
X276882Y266400*
X277336*
X277564Y266556*
X277791Y266869*
X277905Y267181*
X290200Y262400D02*
X298200D01*
X294200Y258400D02*
Y266400D01*
X297905Y266900D02*
X297791Y267213D01*
X297791D02*
X297564Y267525D01*
X297336Y267681*
X296882*
X296655Y267525*
X296427Y267213*
X296427D02*
X296314Y266900D01*
X296200Y266431*
Y265650*
X296314Y265181*
X296427Y264869*
X296655Y264556*
X296882Y264400*
X297336*
X297564Y264556*
X297791Y264869*
X297905Y265181*
X297800Y252000D02*
X305800D01*
X301800Y248000D02*
Y256000D01*
X305505Y256500D02*
X305391Y256813D01*
X305391D02*
X305164Y257125D01*
X304936Y257281*
X304482*
X304255Y257125*
X304027Y256813*
X304027D02*
X303914Y256500D01*
X303800Y256031*
Y255250*
X303914Y254781*
X304027Y254469*
X304255Y254156*
X304482Y254000*
X304936*
X305164Y254156*
X305391Y254469*
X305505Y254781*
X288800Y252000D02*
X296800D01*
X292800Y248000D02*
Y256000D01*
X296505Y256500D02*
X296391Y256813D01*
X296391D02*
X296164Y257125D01*
X295936Y257281*
X295482*
X295255Y257125*
X295027Y256813*
X295027D02*
X294914Y256500D01*
X294800Y256031*
Y255250*
X294914Y254781*
X295027Y254469*
X295255Y254156*
X295482Y254000*
X295936*
X296164Y254156*
X296391Y254469*
X296505Y254781*
X282400Y265400D02*
X290400D01*
X286400Y261400D02*
Y269400D01*
X290105Y269900D02*
X289991Y270213D01*
X289991D02*
X289764Y270525D01*
X289536Y270681*
X289082*
X288855Y270525*
X288627Y270213*
X288627D02*
X288514Y269900D01*
X288400Y269431*
Y268650*
X288514Y268181*
X288627Y267869*
X288855Y267556*
X289082Y267400*
X289536*
X289764Y267556*
X289991Y267869*
X290105Y268181*
X281600Y255000D02*
X289600D01*
X285600Y251000D02*
Y259000D01*
X289305Y259500D02*
X289191Y259813D01*
X289191D02*
X288964Y260125D01*
X288736Y260281*
X288282*
X288055Y260125*
X287827Y259813*
X287827D02*
X287714Y259500D01*
X287600Y259031*
Y258250*
X287714Y257781*
X287827Y257469*
X288055Y257156*
X288282Y257000*
X288736*
X288964Y257156*
X289191Y257469*
X289305Y257781*
X305400Y254000D02*
X313400D01*
X309400Y250000D02*
Y258000D01*
X313105Y258500D02*
X312991Y258813D01*
X312991D02*
X312764Y259125D01*
X312536Y259281*
X312082*
X311855Y259125*
X311627Y258813*
X311627D02*
X311514Y258500D01*
X311400Y258031*
Y257250*
X311514Y256781*
X311627Y256469*
X311855Y256156*
X312082Y256000*
X312536*
X312764Y256156*
X312991Y256469*
X313105Y256781*
X310200Y268000D02*
X318200D01*
X314200Y264000D02*
Y272000D01*
X317905Y272500D02*
X317791Y272813D01*
X317791D02*
X317564Y273125D01*
X317336Y273281*
X316882*
X316655Y273125*
X316427Y272813*
X316427D02*
X316314Y272500D01*
X316200Y272031*
Y271250*
X316314Y270781*
X316427Y270469*
X316655Y270156*
X316882Y270000*
X317336*
X317564Y270156*
X317791Y270469*
X317905Y270781*
X311200Y259600D02*
X319200D01*
X315200Y255600D02*
Y263600D01*
X318905Y264100D02*
X318791Y264413D01*
X318791D02*
X318564Y264725D01*
X318336Y264881*
X317882*
X317655Y264725*
X317427Y264413*
X317427D02*
X317314Y264100D01*
X317200Y263631*
Y262850*
X317314Y262381*
X317427Y262069*
X317655Y261756*
X317882Y261600*
X318336*
X318564Y261756*
X318791Y262069*
X318905Y262381*
X316200Y259600D02*
X324200D01*
X320200Y255600D02*
Y263600D01*
X323905Y264100D02*
X323791Y264413D01*
X323791D02*
X323564Y264725D01*
X323336Y264881*
X322882*
X322655Y264725*
X322427Y264413*
X322427D02*
X322314Y264100D01*
X322200Y263631*
Y262850*
X322314Y262381*
X322427Y262069*
X322655Y261756*
X322882Y261600*
X323336*
X323564Y261756*
X323791Y262069*
X323905Y262381*
X328600Y257200D02*
X336600D01*
X332600Y253200D02*
Y261200D01*
X336305Y261700D02*
X336191Y262013D01*
X336191D02*
X335964Y262325D01*
X335736Y262481*
X335282*
X335055Y262325*
X334827Y262013*
X334827D02*
X334714Y261700D01*
X334600Y261231*
Y260450*
X334714Y259981*
X334827Y259669*
X335055Y259356*
X335282Y259200*
X335736*
X335964Y259356*
X336191Y259669*
X336305Y259981*
X324000Y269400D02*
X332000D01*
X328000Y265400D02*
Y273400D01*
X331705Y273900D02*
X331591Y274213D01*
X331591D02*
X331364Y274525D01*
X331136Y274681*
X330682*
X330455Y274525*
X330227Y274213*
X330227D02*
X330114Y273900D01*
X330000Y273431*
Y272650*
X330114Y272181*
X330227Y271869*
X330455Y271556*
X330682Y271400*
X331136*
X331364Y271556*
X331591Y271869*
X331705Y272181*
X340800Y267600D02*
X348800D01*
X344800Y263600D02*
Y271600D01*
X348505Y272100D02*
X348391Y272413D01*
X348391D02*
X348164Y272725D01*
X347936Y272881*
X347482*
X347255Y272725*
X347027Y272413*
X347027D02*
X346914Y272100D01*
X346800Y271631*
Y270850*
X346914Y270381*
X347027Y270069*
X347255Y269756*
X347482Y269600*
X347936*
X348164Y269756*
X348391Y270069*
X348505Y270381*
X340800Y270200D02*
X348800D01*
X344800Y266200D02*
Y274200D01*
X348505Y274700D02*
X348391Y275013D01*
X348391D02*
X348164Y275325D01*
X347936Y275481*
X347482*
X347255Y275325*
X347027Y275013*
X347027D02*
X346914Y274700D01*
X346800Y274231*
Y273450*
X346914Y272981*
X347027Y272669*
X347255Y272356*
X347482Y272200*
X347936*
X348164Y272356*
X348391Y272669*
X348505Y272981*
X329800Y267600D02*
X337800D01*
X333800Y263600D02*
Y271600D01*
X337505Y272100D02*
X337391Y272413D01*
X337391D02*
X337164Y272725D01*
X336936Y272881*
X336482*
X336255Y272725*
X336027Y272413*
X336027D02*
X335914Y272100D01*
X335800Y271631*
Y270850*
X335914Y270381*
X336027Y270069*
X336255Y269756*
X336482Y269600*
X336936*
X337164Y269756*
X337391Y270069*
X337505Y270381*
X329800Y270200D02*
X337800D01*
X333800Y266200D02*
Y274200D01*
X337505Y274700D02*
X337391Y275013D01*
X337391D02*
X337164Y275325D01*
X336936Y275481*
X336482*
X336255Y275325*
X336027Y275013*
X336027D02*
X335914Y274700D01*
X335800Y274231*
Y273450*
X335914Y272981*
X336027Y272669*
X336255Y272356*
X336482Y272200*
X336936*
X337164Y272356*
X337391Y272669*
X337505Y272981*
X373800Y267200D02*
X381800D01*
X377800Y263200D02*
Y271200D01*
X381505Y271700D02*
X381391Y272013D01*
X381391D02*
X381164Y272325D01*
X380936Y272481*
X380482*
X380255Y272325*
X380027Y272013*
X380027D02*
X379914Y271700D01*
X379800Y271231*
Y270450*
X379914Y269981*
X380027Y269669*
X380255Y269356*
X380482Y269200*
X380936*
X381164Y269356*
X381391Y269669*
X381505Y269981*
X126800Y280800D02*
X134800D01*
X130800Y276800D02*
Y284800D01*
X134505Y285300D02*
X134391Y285613D01*
X134391D02*
X134164Y285925D01*
X133936Y286081*
X133482*
X133255Y285925*
X133027Y285613*
X133027D02*
X132914Y285300D01*
X132800Y284831*
Y284050*
X132914Y283581*
X133027Y283269*
X133255Y282956*
X133482Y282800*
X133936*
X134164Y282956*
X134391Y283269*
X134505Y283581*
X123800Y272800D02*
X131800D01*
X127800Y268800D02*
Y276800D01*
X131505Y277300D02*
X131391Y277613D01*
X131391D02*
X131164Y277925D01*
X130936Y278081*
X130482*
X130255Y277925*
X130027Y277613*
X130027D02*
X129914Y277300D01*
X129800Y276831*
Y276050*
X129914Y275581*
X130027Y275269*
X130255Y274956*
X130482Y274800*
X130936*
X131164Y274956*
X131391Y275269*
X131505Y275581*
X141400Y273400D02*
X149400D01*
X145400Y269400D02*
Y277400D01*
X149105Y277900D02*
X148991Y278213D01*
X148991D02*
X148764Y278525D01*
X148536Y278681*
X148082*
X147855Y278525*
X147627Y278213*
X147627D02*
X147514Y277900D01*
X147400Y277431*
Y276650*
X147514Y276181*
X147627Y275869*
X147855Y275556*
X148082Y275400*
X148536*
X148764Y275556*
X148991Y275869*
X149105Y276181*
X145800Y273400D02*
X153800D01*
X149800Y269400D02*
Y277400D01*
X153505Y277900D02*
X153391Y278213D01*
X153391D02*
X153164Y278525D01*
X152936Y278681*
X152482*
X152255Y278525*
X152027Y278213*
X152027D02*
X151914Y277900D01*
X151800Y277431*
Y276650*
X151914Y276181*
X152027Y275869*
X152255Y275556*
X152482Y275400*
X152936*
X153164Y275556*
X153391Y275869*
X153505Y276181*
X165000Y281800D02*
X173000D01*
X169000Y277800D02*
Y285800D01*
X172705Y286300D02*
X172591Y286613D01*
X172591D02*
X172364Y286925D01*
X172136Y287081*
X171682*
X171455Y286925*
X171227Y286613*
X171227D02*
X171114Y286300D01*
X171000Y285831*
Y285050*
X171114Y284581*
X171227Y284269*
X171455Y283956*
X171682Y283800*
X172136*
X172364Y283956*
X172591Y284269*
X172705Y284581*
X162200Y284200D02*
X170200D01*
X166200Y280200D02*
Y288200D01*
X169905Y288700D02*
X169791Y289013D01*
X169791D02*
X169564Y289325D01*
X169336Y289481*
X168882*
X168655Y289325*
X168427Y289013*
X168427D02*
X168314Y288700D01*
X168200Y288231*
Y287450*
X168314Y286981*
X168427Y286669*
X168655Y286356*
X168882Y286200*
X169336*
X169564Y286356*
X169791Y286669*
X169905Y286981*
X191800Y272000D02*
X199800D01*
X195800Y268000D02*
Y276000D01*
X199505Y276500D02*
X199391Y276813D01*
X199391D02*
X199164Y277125D01*
X198936Y277281*
X198482*
X198255Y277125*
X198027Y276813*
X198027D02*
X197914Y276500D01*
X197800Y276031*
Y275250*
X197914Y274781*
X198027Y274469*
X198255Y274156*
X198482Y274000*
X198936*
X199164Y274156*
X199391Y274469*
X199505Y274781*
X198400Y272200D02*
X206400D01*
X202400Y268200D02*
Y276200D01*
X206105Y276700D02*
X205991Y277013D01*
X205991D02*
X205764Y277325D01*
X205536Y277481*
X205082*
X204855Y277325*
X204627Y277013*
X204627D02*
X204514Y276700D01*
X204400Y276231*
Y275450*
X204514Y274981*
X204627Y274669*
X204855Y274356*
X205082Y274200*
X205536*
X205764Y274356*
X205991Y274669*
X206105Y274981*
X194200Y274800D02*
X202200D01*
X198200Y270800D02*
Y278800D01*
X201905Y279300D02*
X201791Y279613D01*
X201791D02*
X201564Y279925D01*
X201336Y280081*
X200882*
X200655Y279925*
X200427Y279613*
X200427D02*
X200314Y279300D01*
X200200Y278831*
Y278050*
X200314Y277581*
X200427Y277269*
X200655Y276956*
X200882Y276800*
X201336*
X201564Y276956*
X201791Y277269*
X201905Y277581*
X203200Y272200D02*
X211200D01*
X207200Y268200D02*
Y276200D01*
X210905Y276700D02*
X210791Y277013D01*
X210791D02*
X210564Y277325D01*
X210336Y277481*
X209882*
X209655Y277325*
X209427Y277013*
X209427D02*
X209314Y276700D01*
X209200Y276231*
Y275450*
X209314Y274981*
X209427Y274669*
X209655Y274356*
X209882Y274200*
X210336*
X210564Y274356*
X210791Y274669*
X210905Y274981*
X213000Y278400D02*
X221000D01*
X217000Y274400D02*
Y282400D01*
X220705Y282900D02*
X220591Y283213D01*
X220591D02*
X220364Y283525D01*
X220136Y283681*
X219682*
X219455Y283525*
X219227Y283213*
X219227D02*
X219114Y282900D01*
X219000Y282431*
Y281650*
X219114Y281181*
X219227Y280869*
X219455Y280556*
X219682Y280400*
X220136*
X220364Y280556*
X220591Y280869*
X220705Y281181*
X232200Y272200D02*
X240200D01*
X236200Y268200D02*
Y276200D01*
X239905Y276700D02*
X239791Y277013D01*
X239791D02*
X239564Y277325D01*
X239336Y277481*
X238882*
X238655Y277325*
X238427Y277013*
X238427D02*
X238314Y276700D01*
X238200Y276231*
Y275450*
X238314Y274981*
X238427Y274669*
X238655Y274356*
X238882Y274200*
X239336*
X239564Y274356*
X239791Y274669*
X239905Y274981*
X225600Y289800D02*
X233600D01*
X229600Y285800D02*
Y293800D01*
X233305Y294300D02*
X233191Y294613D01*
X233191D02*
X232964Y294925D01*
X232736Y295081*
X232282*
X232055Y294925*
X231827Y294613*
X231827D02*
X231714Y294300D01*
X231600Y293831*
Y293050*
X231714Y292581*
X231827Y292269*
X232055Y291956*
X232282Y291800*
X232736*
X232964Y291956*
X233191Y292269*
X233305Y292581*
X222000Y290000D02*
X230000D01*
X226000Y286000D02*
Y294000D01*
X229705Y294500D02*
X229591Y294813D01*
X229591D02*
X229364Y295125D01*
X229136Y295281*
X228682*
X228455Y295125*
X228227Y294813*
X228227D02*
X228114Y294500D01*
X228000Y294031*
Y293250*
X228114Y292781*
X228227Y292469*
X228455Y292156*
X228682Y292000*
X229136*
X229364Y292156*
X229591Y292469*
X229705Y292781*
X255200Y282000D02*
X263200D01*
X259200Y278000D02*
Y286000D01*
X262905Y286500D02*
X262791Y286813D01*
X262791D02*
X262564Y287125D01*
X262336Y287281*
X261882*
X261655Y287125*
X261427Y286813*
X261427D02*
X261314Y286500D01*
X261200Y286031*
Y285250*
X261314Y284781*
X261427Y284469*
X261655Y284156*
X261882Y284000*
X262336*
X262564Y284156*
X262791Y284469*
X262905Y284781*
X257400Y288200D02*
X265400D01*
X261400Y284200D02*
Y292200D01*
X265105Y292700D02*
X264991Y293013D01*
X264991D02*
X264764Y293325D01*
X264536Y293481*
X264082*
X263855Y293325*
X263627Y293013*
X263627D02*
X263514Y292700D01*
X263400Y292231*
Y291450*
X263514Y290981*
X263627Y290669*
X263855Y290356*
X264082Y290200*
X264536*
X264764Y290356*
X264991Y290669*
X265105Y290981*
X266000Y281200D02*
X274000D01*
X270000Y277200D02*
Y285200D01*
X273705Y285700D02*
X273591Y286013D01*
X273591D02*
X273364Y286325D01*
X273136Y286481*
X272682*
X272455Y286325*
X272227Y286013*
X272227D02*
X272114Y285700D01*
X272000Y285231*
Y284450*
X272114Y283981*
X272227Y283669*
X272455Y283356*
X272682Y283200*
X273136*
X273364Y283356*
X273591Y283669*
X273705Y283981*
X273800Y283400D02*
X281800D01*
X277800Y279400D02*
Y287400D01*
X281505Y287900D02*
X281391Y288213D01*
X281391D02*
X281164Y288525D01*
X280936Y288681*
X280482*
X280255Y288525*
X280027Y288213*
X280027D02*
X279914Y287900D01*
X279800Y287431*
Y286650*
X279914Y286181*
X280027Y285869*
X280255Y285556*
X280482Y285400*
X280936*
X281164Y285556*
X281391Y285869*
X281505Y286181*
X272000Y271800D02*
X280000D01*
X276000Y267800D02*
Y275800D01*
X279705Y276300D02*
X279591Y276613D01*
X279591D02*
X279364Y276925D01*
X279136Y277081*
X278682*
X278455Y276925*
X278227Y276613*
X278227D02*
X278114Y276300D01*
X278000Y275831*
Y275050*
X278114Y274581*
X278227Y274269*
X278455Y273956*
X278682Y273800*
X279136*
X279364Y273956*
X279591Y274269*
X279705Y274581*
X266800Y290800D02*
X274800D01*
X270800Y286800D02*
Y294800D01*
X274505Y295300D02*
X274391Y295613D01*
X274391D02*
X274164Y295925D01*
X273936Y296081*
X273482*
X273255Y295925*
X273027Y295613*
X273027D02*
X272914Y295300D01*
X272800Y294831*
Y294050*
X272914Y293581*
X273027Y293269*
X273255Y292956*
X273482Y292800*
X273936*
X274164Y292956*
X274391Y293269*
X274505Y293581*
X262000Y290200D02*
X270000D01*
X266000Y286200D02*
Y294200D01*
X269705Y294700D02*
X269591Y295013D01*
X269591D02*
X269364Y295325D01*
X269136Y295481*
X268682*
X268455Y295325*
X268227Y295013*
X268227D02*
X268114Y294700D01*
X268000Y294231*
Y293450*
X268114Y292981*
X268227Y292669*
X268455Y292356*
X268682Y292200*
X269136*
X269364Y292356*
X269591Y292669*
X269705Y292981*
X296800Y275800D02*
X304800D01*
X300800Y271800D02*
Y279800D01*
X304505Y280300D02*
X304391Y280613D01*
X304391D02*
X304164Y280925D01*
X303936Y281081*
X303482*
X303255Y280925*
X303027Y280613*
X303027D02*
X302914Y280300D01*
X302800Y279831*
Y279050*
X302914Y278581*
X303027Y278269*
X303255Y277956*
X303482Y277800*
X303936*
X304164Y277956*
X304391Y278269*
X304505Y278581*
X311800Y275600D02*
X319800D01*
X315800Y271600D02*
Y279600D01*
X319505Y280100D02*
X319391Y280413D01*
X319391D02*
X319164Y280725D01*
X318936Y280881*
X318482*
X318255Y280725*
X318027Y280413*
X318027D02*
X317914Y280100D01*
X317800Y279631*
Y278850*
X317914Y278381*
X318027Y278069*
X318255Y277756*
X318482Y277600*
X318936*
X319164Y277756*
X319391Y278069*
X319505Y278381*
X320200Y281000D02*
X328200D01*
X324200Y277000D02*
Y285000D01*
X327905Y285500D02*
X327791Y285813D01*
X327791D02*
X327564Y286125D01*
X327336Y286281*
X326882*
X326655Y286125*
X326427Y285813*
X326427D02*
X326314Y285500D01*
X326200Y285031*
Y284250*
X326314Y283781*
X326427Y283469*
X326655Y283156*
X326882Y283000*
X327336*
X327564Y283156*
X327791Y283469*
X327905Y283781*
X306600Y290600D02*
X314600D01*
X310600Y286600D02*
Y294600D01*
X314305Y295100D02*
X314191Y295413D01*
X314191D02*
X313964Y295725D01*
X313736Y295881*
X313282*
X313055Y295725*
X312827Y295413*
X312827D02*
X312714Y295100D01*
X312600Y294631*
Y293850*
X312714Y293381*
X312827Y293069*
X313055Y292756*
X313282Y292600*
X313736*
X313964Y292756*
X314191Y293069*
X314305Y293381*
X330200Y290800D02*
X338200D01*
X334200Y286800D02*
Y294800D01*
X337905Y295300D02*
X337791Y295613D01*
X337791D02*
X337564Y295925D01*
X337336Y296081*
X336882*
X336655Y295925*
X336427Y295613*
X336427D02*
X336314Y295300D01*
X336200Y294831*
Y294050*
X336314Y293581*
X336427Y293269*
X336655Y292956*
X336882Y292800*
X337336*
X337564Y292956*
X337791Y293269*
X337905Y293581*
X340800Y272800D02*
X348800D01*
X344800Y268800D02*
Y276800D01*
X348505Y277300D02*
X348391Y277613D01*
X348391D02*
X348164Y277925D01*
X347936Y278081*
X347482*
X347255Y277925*
X347027Y277613*
X347027D02*
X346914Y277300D01*
X346800Y276831*
Y276050*
X346914Y275581*
X347027Y275269*
X347255Y274956*
X347482Y274800*
X347936*
X348164Y274956*
X348391Y275269*
X348505Y275581*
X340800Y275400D02*
X348800D01*
X344800Y271400D02*
Y279400D01*
X348505Y279900D02*
X348391Y280213D01*
X348391D02*
X348164Y280525D01*
X347936Y280681*
X347482*
X347255Y280525*
X347027Y280213*
X347027D02*
X346914Y279900D01*
X346800Y279431*
Y278650*
X346914Y278181*
X347027Y277869*
X347255Y277556*
X347482Y277400*
X347936*
X348164Y277556*
X348391Y277869*
X348505Y278181*
X329800Y272800D02*
X337800D01*
X333800Y268800D02*
Y276800D01*
X337505Y277300D02*
X337391Y277613D01*
X337391D02*
X337164Y277925D01*
X336936Y278081*
X336482*
X336255Y277925*
X336027Y277613*
X336027D02*
X335914Y277300D01*
X335800Y276831*
Y276050*
X335914Y275581*
X336027Y275269*
X336255Y274956*
X336482Y274800*
X336936*
X337164Y274956*
X337391Y275269*
X337505Y275581*
X329800Y275400D02*
X337800D01*
X333800Y271400D02*
Y279400D01*
X337505Y279900D02*
X337391Y280213D01*
X337391D02*
X337164Y280525D01*
X336936Y280681*
X336482*
X336255Y280525*
X336027Y280213*
X336027D02*
X335914Y279900D01*
X335800Y279431*
Y278650*
X335914Y278181*
X336027Y277869*
X336255Y277556*
X336482Y277400*
X336936*
X337164Y277556*
X337391Y277869*
X337505Y278181*
X368400Y287200D02*
X376400D01*
X372400Y283200D02*
Y291200D01*
X376105Y291700D02*
X375991Y292013D01*
X375991D02*
X375764Y292325D01*
X375536Y292481*
X375082*
X374855Y292325*
X374627Y292013*
X374627D02*
X374514Y291700D01*
X374400Y291231*
Y290450*
X374514Y289981*
X374627Y289669*
X374855Y289356*
X375082Y289200*
X375536*
X375764Y289356*
X375991Y289669*
X376105Y289981*
X128800Y292200D02*
X136800D01*
X132800Y288200D02*
Y296200D01*
X136505Y296700D02*
X136391Y297013D01*
X136391D02*
X136164Y297325D01*
X135936Y297481*
X135482*
X135255Y297325*
X135027Y297013*
X135027D02*
X134914Y296700D01*
X134800Y296231*
Y295450*
X134914Y294981*
X135027Y294669*
X135255Y294356*
X135482Y294200*
X135936*
X136164Y294356*
X136391Y294669*
X136505Y294981*
X144400Y305600D02*
X152400D01*
X148400Y301600D02*
Y309600D01*
X152105Y310100D02*
X151991Y310413D01*
X151991D02*
X151764Y310725D01*
X151536Y310881*
X151082*
X150855Y310725*
X150627Y310413*
X150627D02*
X150514Y310100D01*
X150400Y309631*
Y308850*
X150514Y308381*
X150627Y308069*
X150855Y307756*
X151082Y307600*
X151536*
X151764Y307756*
X151991Y308069*
X152105Y308381*
X155400Y296400D02*
X163400D01*
X159400Y292400D02*
Y300400D01*
X163105Y300900D02*
X162991Y301213D01*
X162991D02*
X162764Y301525D01*
X162536Y301681*
X162082*
X161855Y301525*
X161627Y301213*
X161627D02*
X161514Y300900D01*
X161400Y300431*
Y299650*
X161514Y299181*
X161627Y298869*
X161855Y298556*
X162082Y298400*
X162536*
X162764Y298556*
X162991Y298869*
X163105Y299181*
X162400Y306200D02*
X170400D01*
X166400Y302200D02*
Y310200D01*
X170105Y310700D02*
X169991Y311013D01*
X169991D02*
X169764Y311325D01*
X169536Y311481*
X169082*
X168855Y311325*
X168627Y311013*
X168627D02*
X168514Y310700D01*
X168400Y310231*
Y309450*
X168514Y308981*
X168627Y308669*
X168855Y308356*
X169082Y308200*
X169536*
X169764Y308356*
X169991Y308669*
X170105Y308981*
X162600Y295600D02*
X170600D01*
X166600Y291600D02*
Y299600D01*
X170305Y300100D02*
X170191Y300413D01*
X170191D02*
X169964Y300725D01*
X169736Y300881*
X169282*
X169055Y300725*
X168827Y300413*
X168827D02*
X168714Y300100D01*
X168600Y299631*
Y298850*
X168714Y298381*
X168827Y298069*
X169055Y297756*
X169282Y297600*
X169736*
X169964Y297756*
X170191Y298069*
X170305Y298381*
X183800Y306200D02*
X191800D01*
X187800Y302200D02*
Y310200D01*
X191505Y310700D02*
X191391Y311013D01*
X191391D02*
X191164Y311325D01*
X190936Y311481*
X190482*
X190255Y311325*
X190027Y311013*
X190027D02*
X189914Y310700D01*
X189800Y310231*
Y309450*
X189914Y308981*
X190027Y308669*
X190255Y308356*
X190482Y308200*
X190936*
X191164Y308356*
X191391Y308669*
X191505Y308981*
X188800Y306000D02*
X196800D01*
X192800Y302000D02*
Y310000D01*
X196505Y310500D02*
X196391Y310813D01*
X196391D02*
X196164Y311125D01*
X195936Y311281*
X195482*
X195255Y311125*
X195027Y310813*
X195027D02*
X194914Y310500D01*
X194800Y310031*
Y309250*
X194914Y308781*
X195027Y308469*
X195255Y308156*
X195482Y308000*
X195936*
X196164Y308156*
X196391Y308469*
X196505Y308781*
X191000Y310600D02*
X199000D01*
X195000Y306600D02*
Y314600D01*
X198705Y315100D02*
X198591Y315413D01*
X198591D02*
X198364Y315725D01*
X198136Y315881*
X197682*
X197455Y315725*
X197227Y315413*
X197227D02*
X197114Y315100D01*
X197000Y314631*
Y313850*
X197114Y313381*
X197227Y313069*
X197455Y312756*
X197682Y312600*
X198136*
X198364Y312756*
X198591Y313069*
X198705Y313381*
X195000Y308400D02*
X203000D01*
X199000Y304400D02*
Y312400D01*
X202705Y312900D02*
X202591Y313213D01*
X202591D02*
X202364Y313525D01*
X202136Y313681*
X201682*
X201455Y313525*
X201227Y313213*
X201227D02*
X201114Y312900D01*
X201000Y312431*
Y311650*
X201114Y311181*
X201227Y310869*
X201455Y310556*
X201682Y310400*
X202136*
X202364Y310556*
X202591Y310869*
X202705Y311181*
X237200Y298000D02*
X245200D01*
X241200Y294000D02*
Y302000D01*
X244905Y302500D02*
X244791Y302813D01*
X244791D02*
X244564Y303125D01*
X244336Y303281*
X243882*
X243655Y303125*
X243427Y302813*
X243427D02*
X243314Y302500D01*
X243200Y302031*
Y301250*
X243314Y300781*
X243427Y300469*
X243655Y300156*
X243882Y300000*
X244336*
X244564Y300156*
X244791Y300469*
X244905Y300781*
X233600Y301200D02*
X241600D01*
X237600Y297200D02*
Y305200D01*
X241305Y305700D02*
X241191Y306013D01*
X241191D02*
X240964Y306325D01*
X240736Y306481*
X240282*
X240055Y306325*
X239827Y306013*
X239827D02*
X239714Y305700D01*
X239600Y305231*
Y304450*
X239714Y303981*
X239827Y303669*
X240055Y303356*
X240282Y303200*
X240736*
X240964Y303356*
X241191Y303669*
X241305Y303981*
X233800Y311400D02*
X241800D01*
X237800Y307400D02*
Y315400D01*
X241505Y315900D02*
X241391Y316213D01*
X241391D02*
X241164Y316525D01*
X240936Y316681*
X240482*
X240255Y316525*
X240027Y316213*
X240027D02*
X239914Y315900D01*
X239800Y315431*
Y314650*
X239914Y314181*
X240027Y313869*
X240255Y313556*
X240482Y313400*
X240936*
X241164Y313556*
X241391Y313869*
X241505Y314181*
X236600Y308800D02*
X244600D01*
X240600Y304800D02*
Y312800D01*
X244305Y313300D02*
X244191Y313613D01*
X244191D02*
X243964Y313925D01*
X243736Y314081*
X243282*
X243055Y313925*
X242827Y313613*
X242827D02*
X242714Y313300D01*
X242600Y312831*
Y312050*
X242714Y311581*
X242827Y311269*
X243055Y310956*
X243282Y310800*
X243736*
X243964Y310956*
X244191Y311269*
X244305Y311581*
X222600Y307200D02*
X230600D01*
X226600Y303200D02*
Y311200D01*
X230305Y311700D02*
X230191Y312013D01*
X230191D02*
X229964Y312325D01*
X229736Y312481*
X229282*
X229055Y312325*
X228827Y312013*
X228827D02*
X228714Y311700D01*
X228600Y311231*
Y310450*
X228714Y309981*
X228827Y309669*
X229055Y309356*
X229282Y309200*
X229736*
X229964Y309356*
X230191Y309669*
X230305Y309981*
X223000Y300000D02*
X231000D01*
X227000Y296000D02*
Y304000D01*
X230705Y304500D02*
X230591Y304813D01*
X230591D02*
X230364Y305125D01*
X230136Y305281*
X229682*
X229455Y305125*
X229227Y304813*
X229227D02*
X229114Y304500D01*
X229000Y304031*
Y303250*
X229114Y302781*
X229227Y302469*
X229455Y302156*
X229682Y302000*
X230136*
X230364Y302156*
X230591Y302469*
X230705Y302781*
X242200Y306400D02*
X250200D01*
X246200Y302400D02*
Y310400D01*
X249905Y310900D02*
X249791Y311213D01*
X249791D02*
X249564Y311525D01*
X249336Y311681*
X248882*
X248655Y311525*
X248427Y311213*
X248427D02*
X248314Y310900D01*
X248200Y310431*
Y309650*
X248314Y309181*
X248427Y308869*
X248655Y308556*
X248882Y308400*
X249336*
X249564Y308556*
X249791Y308869*
X249905Y309181*
X296800Y294400D02*
X304800D01*
X300800Y290400D02*
Y298400D01*
X304505Y298900D02*
X304391Y299213D01*
X304391D02*
X304164Y299525D01*
X303936Y299681*
X303482*
X303255Y299525*
X303027Y299213*
X303027D02*
X302914Y298900D01*
X302800Y298431*
Y297650*
X302914Y297181*
X303027Y296869*
X303255Y296556*
X303482Y296400*
X303936*
X304164Y296556*
X304391Y296869*
X304505Y297181*
X288800Y296800D02*
X296800D01*
X292800Y292800D02*
Y300800D01*
X296505Y301300D02*
X296391Y301613D01*
X296391D02*
X296164Y301925D01*
X295936Y302081*
X295482*
X295255Y301925*
X295027Y301613*
X295027D02*
X294914Y301300D01*
X294800Y300831*
Y300050*
X294914Y299581*
X295027Y299269*
X295255Y298956*
X295482Y298800*
X295936*
X296164Y298956*
X296391Y299269*
X296505Y299581*
X304400Y301000D02*
X312400D01*
X308400Y297000D02*
Y305000D01*
X312105Y305500D02*
X311991Y305813D01*
X311991D02*
X311764Y306125D01*
X311536Y306281*
X311082*
X310855Y306125*
X310627Y305813*
X310627D02*
X310514Y305500D01*
X310400Y305031*
Y304250*
X310514Y303781*
X310627Y303469*
X310855Y303156*
X311082Y303000*
X311536*
X311764Y303156*
X311991Y303469*
X312105Y303781*
X314800Y301000D02*
X322800D01*
X318800Y297000D02*
Y305000D01*
X322505Y305500D02*
X322391Y305813D01*
X322391D02*
X322164Y306125D01*
X321936Y306281*
X321482*
X321255Y306125*
X321027Y305813*
X321027D02*
X320914Y305500D01*
X320800Y305031*
Y304250*
X320914Y303781*
X321027Y303469*
X321255Y303156*
X321482Y303000*
X321936*
X322164Y303156*
X322391Y303469*
X322505Y303781*
X302600Y310400D02*
X310600D01*
X306600Y306400D02*
Y314400D01*
X310305Y314900D02*
X310191Y315213D01*
X310191D02*
X309964Y315525D01*
X309736Y315681*
X309282*
X309055Y315525*
X308827Y315213*
X308827D02*
X308714Y314900D01*
X308600Y314431*
Y313650*
X308714Y313181*
X308827Y312869*
X309055Y312556*
X309282Y312400*
X309736*
X309964Y312556*
X310191Y312869*
X310305Y313181*
X355600Y299400D02*
X363600D01*
X359600Y295400D02*
Y303400D01*
X363305Y303900D02*
X363191Y304213D01*
X363191D02*
X362964Y304525D01*
X362736Y304681*
X362282*
X362055Y304525*
X361827Y304213*
X361827D02*
X361714Y303900D01*
X361600Y303431*
Y302650*
X361714Y302181*
X361827Y301869*
X362055Y301556*
X362282Y301400*
X362736*
X362964Y301556*
X363191Y301869*
X363305Y302181*
X343400Y302400D02*
X351400D01*
X347400Y298400D02*
Y306400D01*
X351105Y306900D02*
X350991Y307213D01*
X350991D02*
X350764Y307525D01*
X350536Y307681*
X350082*
X349855Y307525*
X349627Y307213*
X349627D02*
X349514Y306900D01*
X349400Y306431*
Y305650*
X349514Y305181*
X349627Y304869*
X349855Y304556*
X350082Y304400*
X350536*
X350764Y304556*
X350991Y304869*
X351105Y305181*
X158400Y319000D02*
X166400D01*
X162400Y315000D02*
Y323000D01*
X166105Y323500D02*
X165991Y323813D01*
X165991D02*
X165764Y324125D01*
X165536Y324281*
X165082*
X164855Y324125*
X164627Y323813*
X164627D02*
X164514Y323500D01*
X164400Y323031*
Y322250*
X164514Y321781*
X164627Y321469*
X164855Y321156*
X165082Y321000*
X165536*
X165764Y321156*
X165991Y321469*
X166105Y321781*
X145000Y322400D02*
X153000D01*
X149000Y318400D02*
Y326400D01*
X152705Y326900D02*
X152591Y327213D01*
X152591D02*
X152364Y327525D01*
X152136Y327681*
X151682*
X151455Y327525*
X151227Y327213*
X151227D02*
X151114Y326900D01*
X151000Y326431*
Y325650*
X151114Y325181*
X151227Y324869*
X151455Y324556*
X151682Y324400*
X152136*
X152364Y324556*
X152591Y324869*
X152705Y325181*
X207000Y318800D02*
X215000D01*
X211000Y314800D02*
Y322800D01*
X214705Y323300D02*
X214591Y323613D01*
X214591D02*
X214364Y323925D01*
X214136Y324081*
X213682*
X213455Y323925*
X213227Y323613*
X213227D02*
X213114Y323300D01*
X213000Y322831*
Y322050*
X213114Y321581*
X213227Y321269*
X213455Y320956*
X213682Y320800*
X214136*
X214364Y320956*
X214591Y321269*
X214705Y321581*
X207000Y313000D02*
X215000D01*
X211000Y309000D02*
Y317000D01*
X214705Y317500D02*
X214591Y317813D01*
X214591D02*
X214364Y318125D01*
X214136Y318281*
X213682*
X213455Y318125*
X213227Y317813*
X213227D02*
X213114Y317500D01*
X213000Y317031*
Y316250*
X213114Y315781*
X213227Y315469*
X213455Y315156*
X213682Y315000*
X214136*
X214364Y315156*
X214591Y315469*
X214705Y315781*
X207000Y323800D02*
X215000D01*
X211000Y319800D02*
Y327800D01*
X214705Y328300D02*
X214591Y328613D01*
X214591D02*
X214364Y328925D01*
X214136Y329081*
X213682*
X213455Y328925*
X213227Y328613*
X213227D02*
X213114Y328300D01*
X213000Y327831*
Y327050*
X213114Y326581*
X213227Y326269*
X213455Y325956*
X213682Y325800*
X214136*
X214364Y325956*
X214591Y326269*
X214705Y326581*
X223800Y323200D02*
X231800D01*
X227800Y319200D02*
Y327200D01*
X231505Y327700D02*
X231391Y328013D01*
X231391D02*
X231164Y328325D01*
X230936Y328481*
X230482*
X230255Y328325*
X230027Y328013*
X230027D02*
X229914Y327700D01*
X229800Y327231*
Y326450*
X229914Y325981*
X230027Y325669*
X230255Y325356*
X230482Y325200*
X230936*
X231164Y325356*
X231391Y325669*
X231505Y325981*
X226400Y326800D02*
X234400D01*
X230400Y322800D02*
Y330800D01*
X234105Y331300D02*
X233991Y331613D01*
X233991D02*
X233764Y331925D01*
X233536Y332081*
X233082*
X232855Y331925*
X232627Y331613*
X232627D02*
X232514Y331300D01*
X232400Y330831*
Y330050*
X232514Y329581*
X232627Y329269*
X232855Y328956*
X233082Y328800*
X233536*
X233764Y328956*
X233991Y329269*
X234105Y329581*
X222800Y314000D02*
X230800D01*
X226800Y310000D02*
Y318000D01*
X230505Y318500D02*
X230391Y318813D01*
X230391D02*
X230164Y319125D01*
X229936Y319281*
X229482*
X229255Y319125*
X229027Y318813*
X229027D02*
X228914Y318500D01*
X228800Y318031*
Y317250*
X228914Y316781*
X229027Y316469*
X229255Y316156*
X229482Y316000*
X229936*
X230164Y316156*
X230391Y316469*
X230505Y316781*
X257600Y326800D02*
X265600D01*
X261600Y322800D02*
Y330800D01*
X265305Y331300D02*
X265191Y331613D01*
X265191D02*
X264964Y331925D01*
X264736Y332081*
X264282*
X264055Y331925*
X263827Y331613*
X263827D02*
X263714Y331300D01*
X263600Y330831*
Y330050*
X263714Y329581*
X263827Y329269*
X264055Y328956*
X264282Y328800*
X264736*
X264964Y328956*
X265191Y329269*
X265305Y329581*
X246400Y326600D02*
X254400D01*
X250400Y322600D02*
Y330600D01*
X254105Y331100D02*
X253991Y331413D01*
X253991D02*
X253764Y331725D01*
X253536Y331881*
X253082*
X252855Y331725*
X252627Y331413*
X252627D02*
X252514Y331100D01*
X252400Y330631*
Y329850*
X252514Y329381*
X252627Y329069*
X252855Y328756*
X253082Y328600*
X253536*
X253764Y328756*
X253991Y329069*
X254105Y329381*
X246400Y331200D02*
X254400D01*
X250400Y327200D02*
Y335200D01*
X254105Y335700D02*
X253991Y336013D01*
X253991D02*
X253764Y336325D01*
X253536Y336481*
X253082*
X252855Y336325*
X252627Y336013*
X252627D02*
X252514Y335700D01*
X252400Y335231*
Y334450*
X252514Y333981*
X252627Y333669*
X252855Y333356*
X253082Y333200*
X253536*
X253764Y333356*
X253991Y333669*
X254105Y333981*
X266400Y324000D02*
X274400D01*
X270400Y320000D02*
Y328000D01*
X274105Y328500D02*
X273991Y328813D01*
X273991D02*
X273764Y329125D01*
X273536Y329281*
X273082*
X272855Y329125*
X272627Y328813*
X272627D02*
X272514Y328500D01*
X272400Y328031*
Y327250*
X272514Y326781*
X272627Y326469*
X272855Y326156*
X273082Y326000*
X273536*
X273764Y326156*
X273991Y326469*
X274105Y326781*
X267400Y317800D02*
X275400D01*
X271400Y313800D02*
Y321800D01*
X275105Y322300D02*
X274991Y322613D01*
X274991D02*
X274764Y322925D01*
X274536Y323081*
X274082*
X273855Y322925*
X273627Y322613*
X273627D02*
X273514Y322300D01*
X273400Y321831*
Y321050*
X273514Y320581*
X273627Y320269*
X273855Y319956*
X274082Y319800*
X274536*
X274764Y319956*
X274991Y320269*
X275105Y320581*
X273400Y318000D02*
X281400D01*
X277400Y314000D02*
Y322000D01*
X281105Y322500D02*
X280991Y322813D01*
X280991D02*
X280764Y323125D01*
X280536Y323281*
X280082*
X279855Y323125*
X279627Y322813*
X279627D02*
X279514Y322500D01*
X279400Y322031*
Y321250*
X279514Y320781*
X279627Y320469*
X279855Y320156*
X280082Y320000*
X280536*
X280764Y320156*
X280991Y320469*
X281105Y320781*
X292800Y321000D02*
X300800D01*
X296800Y317000D02*
Y325000D01*
X300505Y325500D02*
X300391Y325813D01*
X300391D02*
X300164Y326125D01*
X299936Y326281*
X299482*
X299255Y326125*
X299027Y325813*
X299027D02*
X298914Y325500D01*
X298800Y325031*
Y324250*
X298914Y323781*
X299027Y323469*
X299255Y323156*
X299482Y323000*
X299936*
X300164Y323156*
X300391Y323469*
X300505Y323781*
X303200Y321400D02*
X311200D01*
X307200Y317400D02*
Y325400D01*
X310905Y325900D02*
X310791Y326213D01*
X310791D02*
X310564Y326525D01*
X310336Y326681*
X309882*
X309655Y326525*
X309427Y326213*
X309427D02*
X309314Y325900D01*
X309200Y325431*
Y324650*
X309314Y324181*
X309427Y323869*
X309655Y323556*
X309882Y323400*
X310336*
X310564Y323556*
X310791Y323869*
X310905Y324181*
X336000Y321000D02*
X344000D01*
X340000Y317000D02*
Y325000D01*
X343705Y325500D02*
X343591Y325813D01*
X343591D02*
X343364Y326125D01*
X343136Y326281*
X342682*
X342455Y326125*
X342227Y325813*
X342227D02*
X342114Y325500D01*
X342000Y325031*
Y324250*
X342114Y323781*
X342227Y323469*
X342455Y323156*
X342682Y323000*
X343136*
X343364Y323156*
X343591Y323469*
X343705Y323781*
X343800Y319200D02*
X351800D01*
X347800Y315200D02*
Y323200D01*
X351505Y323700D02*
X351391Y324013D01*
X351391D02*
X351164Y324325D01*
X350936Y324481*
X350482*
X350255Y324325*
X350027Y324013*
X350027D02*
X349914Y323700D01*
X349800Y323231*
Y322450*
X349914Y321981*
X350027Y321669*
X350255Y321356*
X350482Y321200*
X350936*
X351164Y321356*
X351391Y321669*
X351505Y321981*
X153600Y332000D02*
X161600D01*
X157600Y328000D02*
Y336000D01*
X161305Y336500D02*
X161191Y336813D01*
X161191D02*
X160964Y337125D01*
X160736Y337281*
X160282*
X160055Y337125*
X159827Y336813*
X159827D02*
X159714Y336500D01*
X159600Y336031*
Y335250*
X159714Y334781*
X159827Y334469*
X160055Y334156*
X160282Y334000*
X160736*
X160964Y334156*
X161191Y334469*
X161305Y334781*
X168400Y336200D02*
X176400D01*
X172400Y332200D02*
Y340200D01*
X176105Y340700D02*
X175991Y341013D01*
X175991D02*
X175764Y341325D01*
X175536Y341481*
X175082*
X174855Y341325*
X174627Y341013*
X174627D02*
X174514Y340700D01*
X174400Y340231*
Y339450*
X174514Y338981*
X174627Y338669*
X174855Y338356*
X175082Y338200*
X175536*
X175764Y338356*
X175991Y338669*
X176105Y338981*
X188200Y336200D02*
X196200D01*
X192200Y332200D02*
Y340200D01*
X195905Y340700D02*
X195791Y341013D01*
X195791D02*
X195564Y341325D01*
X195336Y341481*
X194882*
X194655Y341325*
X194427Y341013*
X194427D02*
X194314Y340700D01*
X194200Y340231*
Y339450*
X194314Y338981*
X194427Y338669*
X194655Y338356*
X194882Y338200*
X195336*
X195564Y338356*
X195791Y338669*
X195905Y338981*
X226400Y337200D02*
X234400D01*
X230400Y333200D02*
Y341200D01*
X234105Y341700D02*
X233991Y342013D01*
X233991D02*
X233764Y342325D01*
X233536Y342481*
X233082*
X232855Y342325*
X232627Y342013*
X232627D02*
X232514Y341700D01*
X232400Y341231*
Y340450*
X232514Y339981*
X232627Y339669*
X232855Y339356*
X233082Y339200*
X233536*
X233764Y339356*
X233991Y339669*
X234105Y339981*
X258800Y332600D02*
X266800D01*
X262800Y328600D02*
Y336600D01*
X266505Y337100D02*
X266391Y337413D01*
X266391D02*
X266164Y337725D01*
X265936Y337881*
X265482*
X265255Y337725*
X265027Y337413*
X265027D02*
X264914Y337100D01*
X264800Y336631*
Y335850*
X264914Y335381*
X265027Y335069*
X265255Y334756*
X265482Y334600*
X265936*
X266164Y334756*
X266391Y335069*
X266505Y335381*
X267800Y331600D02*
X275800D01*
X271800Y327600D02*
Y335600D01*
X275505Y336100D02*
X275391Y336413D01*
X275391D02*
X275164Y336725D01*
X274936Y336881*
X274482*
X274255Y336725*
X274027Y336413*
X274027D02*
X273914Y336100D01*
X273800Y335631*
Y334850*
X273914Y334381*
X274027Y334069*
X274255Y333756*
X274482Y333600*
X274936*
X275164Y333756*
X275391Y334069*
X275505Y334381*
X296200Y332000D02*
X304200D01*
X300200Y328000D02*
Y336000D01*
X303905Y336500D02*
X303791Y336813D01*
X303791D02*
X303564Y337125D01*
X303336Y337281*
X302882*
X302655Y337125*
X302427Y336813*
X302427D02*
X302314Y336500D01*
X302200Y336031*
Y335250*
X302314Y334781*
X302427Y334469*
X302655Y334156*
X302882Y334000*
X303336*
X303564Y334156*
X303791Y334469*
X303905Y334781*
X386220Y244094D02*
G75*
G03X386220I-133858J0D01*
G01X351358D02*
G03X351358I-5905J0D01*
G01X165177D02*
G03X165177I-5905J0D01*
G01X493701Y1120000D02*
X751701D01*
X493701Y1096000D02*
X751701D01*
X493701Y1072000D02*
X751701D01*
X493701Y1048000D02*
X751701D01*
X493701Y1024000D02*
X751701D01*
X493701Y1000000D02*
X751701D01*
X493701Y1120000D02*
Y1000000D01*
X577701Y1120000D02*
Y1000000D01*
X613701Y1120000D02*
Y1000000D01*
X649701Y1120000D02*
Y1000000D01*
X703701Y1120000D02*
Y1000000D01*
X751701Y1120000D02*
Y1000000D01*
X522519Y1102000D02*
X524064Y1104375D01*
X524428Y1106375*
Y1109625*
X524792Y1109875*
X531883*
X532246Y1109625*
Y1107000*
X531883Y1106750*
X524428*
X528519D02*
X529246Y1105000D01*
X531155Y1103125*
X533428Y1102000*
X539246Y1104625D02*
X538519Y1105875D01*
X537428Y1106750*
X535883Y1108500D02*
X545974D01*
X543792Y1110250D02*
Y1102000D01*
X543428Y1101750*
X540792Y1102250*
X582519Y1105000D02*
X587792D01*
X587064D02*
X586246Y1103500D01*
X585155Y1102625*
X582883Y1101750*
X587064D02*
X585155Y1102875D01*
X583246Y1103500*
Y1103750*
X584428Y1104625*
X585155Y1105875*
Y1106125D02*
Y1110250D01*
X582883D02*
X583610Y1109000D01*
X586246D02*
X587064Y1110250D01*
X587792Y1108500D02*
X582883D01*
X582519Y1106375D02*
X584064Y1107250D01*
X585155Y1108500*
X587428Y1107000*
X588155D02*
X588883Y1108750D01*
Y1110250*
Y1108750D02*
X593792D01*
X593064D02*
X592246Y1106125D01*
X590428Y1103125*
X588519Y1101750*
X593428D02*
X591883Y1103125D01*
X590064Y1106125*
X589246Y1108750*
X595883Y1102000D02*
X606792D01*
X605974Y1103125D02*
X596610D01*
X597428Y1104625D02*
Y1106375D01*
X597792Y1106750*
X605246*
X605610Y1106375*
Y1104625*
X605246Y1104375*
X597792*
X597428Y1104625*
Y1105500D02*
X605610D01*
X601519Y1106750D02*
Y1102000D01*
X596246Y1107625D02*
X607155D01*
X597428Y1108750D02*
Y1109875D01*
X597792Y1110250*
X605246*
X605610Y1109875*
Y1108750*
X605246Y1108500*
X597792*
X597428Y1108750*
Y1109375D02*
X605610D01*
X619246Y1105500D02*
X620792Y1106750D01*
X621883Y1108125*
X620792Y1106750D02*
Y1101750D01*
X625246Y1103750D02*
X623792Y1105250D01*
X623064Y1106750D02*
X629792D01*
X628246Y1107875D02*
Y1102000D01*
X627883Y1101750*
X626428Y1102000*
X625246Y1103750D02*
X623792Y1105250D01*
X618519Y1108750D02*
X620064Y1109625D01*
X620428Y1110500*
X620064Y1109625D02*
X624155D01*
X622610Y1108500D02*
X621155Y1109625D01*
X626064Y1110500D02*
X625610Y1109625D01*
X624519Y1108750*
X625610Y1109625D02*
X629792D01*
X628246Y1108500D02*
X627155Y1109625D01*
X631883Y1106125D02*
X642428D01*
X634883D02*
X634155Y1104625D01*
X634519Y1104375*
X640519*
X640883Y1104125*
X640519Y1102000*
X640155Y1101750*
X637155Y1102000*
X633792Y1107875D02*
Y1109625D01*
X634155Y1109875*
X640519*
X640883Y1109625*
Y1107875*
X640519Y1107625*
X634155*
X633792Y1107875*
X679201Y1108000D02*
Y1108375D01*
X679474Y1109125*
X679746Y1109500*
X680292Y1109875*
X681383*
X681928Y1109500*
X682201Y1109125*
X682474Y1108375*
Y1107625*
X682201Y1106875*
X681928Y1106500*
X680837Y1105750*
Y1104625*
Y1102750D02*
X680564Y1102375D01*
X680837Y1102000*
X681110Y1102375*
X680837Y1102750*
X684928Y1108000D02*
Y1108375D01*
X685201Y1109125*
X685474Y1109500*
X686019Y1109875*
X687110*
X687655Y1109500*
X687928Y1109125*
X688201Y1108375*
Y1107625*
X687928Y1106875*
X687655Y1106500*
X686564Y1105750*
Y1104625*
Y1102750D02*
X686292Y1102375D01*
X686564Y1102000*
X686837Y1102375*
X686564Y1102750*
X720383Y1109875D02*
Y1102000D01*
X718474Y1109875D02*
X722292D01*
X726383D02*
X725837Y1109500D01*
X725292Y1108750*
X725019Y1108000*
X724746Y1106875*
Y1105000*
X725019Y1103875*
X725292Y1103125*
X725837Y1102375*
X726383Y1102000*
X727474*
X728019Y1102375*
X728564Y1103125*
X728837Y1103875*
X729110Y1105000*
Y1106875*
X728837Y1108000*
X728564Y1108750*
X728019Y1109500*
X727474Y1109875*
X726383*
X731564D02*
Y1102000D01*
X734837*
X500246Y1085875D02*
X503246D01*
X501610Y1082875*
X502428*
X502974Y1082500*
X503246Y1082125*
X503519Y1081000*
Y1080250*
X503246Y1079125*
X502701Y1078375*
X501883Y1078000*
X501064*
X500246Y1078375*
X499974Y1078750*
X499701Y1079500*
X509519Y1085875D02*
X506792D01*
X506519Y1082500*
X506792Y1082875*
X507610Y1083250*
X508428*
X509246Y1082875*
X509792Y1082125*
X510064Y1081000*
X509792Y1080250*
X509519Y1079125*
X508974Y1078375*
X508155Y1078000*
X507337*
X506519Y1078375*
X506246Y1078750*
X505974Y1079500*
X595337Y1085875D02*
X592610Y1080625D01*
X596701*
X595337Y1085875D02*
Y1078000D01*
X625701D02*
X637701Y1090000D01*
X625701D02*
X637701Y1078000D01*
X658337Y1085875D02*
X660519Y1082125D01*
Y1078000*
X662701Y1085875D02*
X660519Y1082125D01*
X665155Y1085875D02*
Y1078000D01*
Y1085875D02*
X668701D01*
X665155Y1082125D02*
X667337D01*
X665155Y1078000D02*
X668701D01*
X674974Y1084750D02*
X674428Y1085500D01*
X673610Y1085875*
X672519*
X671701Y1085500*
X671155Y1084750*
Y1084000*
X671428Y1083250*
X671701Y1082875*
X672246Y1082500*
X673883Y1081750*
X674428Y1081375*
X674701Y1081000*
X674974Y1080250*
Y1079125*
X674428Y1078375*
X673610Y1078000*
X672519*
X671701Y1078375*
X671155Y1079125*
X711519Y1084750D02*
Y1078000D01*
X709064Y1081375D02*
X713974D01*
X721337Y1087375D02*
X716428Y1075375D01*
X723792Y1081375D02*
X728701D01*
X732792Y1085875D02*
X731974Y1085500D01*
X731428Y1084375*
X731155Y1082500*
Y1081375*
X731428Y1079500*
X731974Y1078375*
X732792Y1078000*
X733337*
X734155Y1078375*
X734701Y1079500*
X734974Y1081375*
Y1082500*
X734701Y1084375*
X734155Y1085500*
X733337Y1085875*
X732792*
X737701Y1078750D02*
X737428Y1078375D01*
X737701Y1078000*
X737974Y1078375*
X737701Y1078750*
X742064Y1085875D02*
X741246Y1085500D01*
X740701Y1084375*
X740428Y1082500*
Y1081375*
X740701Y1079500*
X741246Y1078375*
X742064Y1078000*
X742610*
X743428Y1078375*
X743974Y1079500*
X744246Y1081375*
Y1082500*
X743974Y1084375*
X743428Y1085500*
X742610Y1085875*
X742064*
X502974Y1060750D02*
X502701Y1061500D01*
X501883Y1061875*
X501337*
X500519Y1061500*
X499974Y1060375*
X499701Y1058500*
Y1056625*
X499974Y1055125*
X500519Y1054375*
X501337Y1054000*
X501610*
X502428Y1054375*
X502974Y1055125*
X503246Y1056250*
Y1056625*
X502974Y1057750*
X502428Y1058500*
X501610Y1058875*
X501337*
X500519Y1058500*
X499974Y1057750*
X499701Y1056625*
X505974Y1060000D02*
Y1060375D01*
X506246Y1061125*
X506519Y1061500*
X507064Y1061875*
X508155*
X508701Y1061500*
X508974Y1061125*
X509246Y1060375*
Y1059625*
X508974Y1058875*
X508428Y1057750*
X505701Y1054000*
X509519*
X512246Y1054750D02*
X511974Y1054375D01*
X512246Y1054000*
X512519Y1054375*
X512246Y1054750*
X518519Y1059250D02*
X518246Y1058125D01*
X517701Y1057375*
X516883Y1057000*
X516610*
X515792Y1057375*
X515246Y1058125*
X514974Y1059250*
Y1059625*
X515246Y1060750*
X515792Y1061500*
X516610Y1061875*
X516883*
X517701Y1061500*
X518246Y1060750*
X518519Y1059250*
Y1057375*
X518246Y1055500*
X517701Y1054375*
X516883Y1054000*
X516337*
X515519Y1054375*
X515246Y1055125*
X524519Y1059250D02*
X524246Y1058125D01*
X523701Y1057375*
X522883Y1057000*
X522610*
X521792Y1057375*
X521246Y1058125*
X520974Y1059250*
Y1059625*
X521246Y1060750*
X521792Y1061500*
X522610Y1061875*
X522883*
X523701Y1061500*
X524246Y1060750*
X524519Y1059250*
Y1057375*
X524246Y1055500*
X523701Y1054375*
X522883Y1054000*
X522337*
X521519Y1054375*
X521246Y1055125*
X595337Y1061875D02*
X592610Y1056625D01*
X596701*
X595337Y1061875D02*
Y1054000D01*
X625701Y1060000D02*
X637701D01*
X631701Y1054000D02*
Y1066000D01*
X636446Y1069300D02*
X634701Y1063000D01*
X636446Y1069300D02*
X638192Y1063000D01*
X635355Y1065100D02*
X637537D01*
X658337Y1061875D02*
X660519Y1058125D01*
Y1054000*
X662701Y1061875D02*
X660519Y1058125D01*
X665155Y1061875D02*
Y1054000D01*
Y1061875D02*
X668701D01*
X665155Y1058125D02*
X667337D01*
X665155Y1054000D02*
X668701D01*
X674974Y1060750D02*
X674428Y1061500D01*
X673610Y1061875*
X672519*
X671701Y1061500*
X671155Y1060750*
Y1060000*
X671428Y1059250*
X671701Y1058875*
X672246Y1058500*
X673883Y1057750*
X674428Y1057375*
X674701Y1057000*
X674974Y1056250*
Y1055125*
X674428Y1054375*
X673610Y1054000*
X672519*
X671701Y1054375*
X671155Y1055125*
X711519Y1060750D02*
Y1054000D01*
X709064Y1057375D02*
X713974D01*
X721337Y1063375D02*
X716428Y1051375D01*
X723792Y1057375D02*
X728701D01*
X732792Y1061875D02*
X731974Y1061500D01*
X731428Y1060375*
X731155Y1058500*
Y1057375*
X731428Y1055500*
X731974Y1054375*
X732792Y1054000*
X733337*
X734155Y1054375*
X734701Y1055500*
X734974Y1057375*
Y1058500*
X734701Y1060375*
X734155Y1061500*
X733337Y1061875*
X732792*
X737701Y1054750D02*
X737428Y1054375D01*
X737701Y1054000*
X737974Y1054375*
X737701Y1054750*
X742064Y1061875D02*
X741246Y1061500D01*
X740701Y1060375*
X740428Y1058500*
Y1057375*
X740701Y1055500*
X741246Y1054375*
X742064Y1054000*
X742610*
X743428Y1054375*
X743974Y1055500*
X744246Y1057375*
Y1058500*
X743974Y1060375*
X743428Y1061500*
X742610Y1061875*
X742064*
X502974Y1036750D02*
X502701Y1037500D01*
X501883Y1037875*
X501337*
X500519Y1037500*
X499974Y1036375*
X499701Y1034500*
Y1032625*
X499974Y1031125*
X500519Y1030375*
X501337Y1030000*
X501610*
X502428Y1030375*
X502974Y1031125*
X503246Y1032250*
Y1032625*
X502974Y1033750*
X502428Y1034500*
X501610Y1034875*
X501337*
X500519Y1034500*
X499974Y1033750*
X499701Y1032625*
X505974Y1036000D02*
Y1036375D01*
X506246Y1037125*
X506519Y1037500*
X507064Y1037875*
X508155*
X508701Y1037500*
X508974Y1037125*
X509246Y1036375*
Y1035625*
X508974Y1034875*
X508428Y1033750*
X505701Y1030000*
X509519*
X512246Y1030750D02*
X511974Y1030375D01*
X512246Y1030000*
X512519Y1030375*
X512246Y1030750*
X518519Y1035250D02*
X518246Y1034125D01*
X517701Y1033375*
X516883Y1033000*
X516610*
X515792Y1033375*
X515246Y1034125*
X514974Y1035250*
Y1035625*
X515246Y1036750*
X515792Y1037500*
X516610Y1037875*
X516883*
X517701Y1037500*
X518246Y1036750*
X518519Y1035250*
Y1033375*
X518246Y1031500*
X517701Y1030375*
X516883Y1030000*
X516337*
X515519Y1030375*
X515246Y1031125*
X524519Y1035250D02*
X524246Y1034125D01*
X523701Y1033375*
X522883Y1033000*
X522610*
X521792Y1033375*
X521246Y1034125*
X520974Y1035250*
Y1035625*
X521246Y1036750*
X521792Y1037500*
X522610Y1037875*
X522883*
X523701Y1037500*
X524246Y1036750*
X524519Y1035250*
Y1033375*
X524246Y1031500*
X523701Y1030375*
X522883Y1030000*
X522337*
X521519Y1030375*
X521246Y1031125*
X593974Y1036375D02*
X594519Y1036750D01*
X595337Y1037875*
Y1030000*
X625701Y1036000D02*
X637701D01*
X631701Y1030000D02*
Y1042000D01*
X634701Y1045300D02*
Y1039000D01*
Y1045300D02*
X636664D01*
X637319Y1045000*
X637537Y1044700*
X637755Y1044100*
Y1043500*
X637537Y1042900*
X637319Y1042600*
X636664Y1042300*
X634701D02*
X636664D01*
X637319Y1042000*
X637537Y1041700*
X637755Y1041100*
Y1040200*
X637537Y1039600*
X637319Y1039300*
X636664Y1039000*
X634701*
X658337Y1037875D02*
X660519Y1034125D01*
Y1030000*
X662701Y1037875D02*
X660519Y1034125D01*
X665155Y1037875D02*
Y1030000D01*
Y1037875D02*
X668701D01*
X665155Y1034125D02*
X667337D01*
X665155Y1030000D02*
X668701D01*
X674974Y1036750D02*
X674428Y1037500D01*
X673610Y1037875*
X672519*
X671701Y1037500*
X671155Y1036750*
Y1036000*
X671428Y1035250*
X671701Y1034875*
X672246Y1034500*
X673883Y1033750*
X674428Y1033375*
X674701Y1033000*
X674974Y1032250*
Y1031125*
X674428Y1030375*
X673610Y1030000*
X672519*
X671701Y1030375*
X671155Y1031125*
X711519Y1036750D02*
Y1030000D01*
X709064Y1033375D02*
X713974D01*
X721337Y1039375D02*
X716428Y1027375D01*
X723792Y1033375D02*
X728701D01*
X732792Y1037875D02*
X731974Y1037500D01*
X731428Y1036375*
X731155Y1034500*
Y1033375*
X731428Y1031500*
X731974Y1030375*
X732792Y1030000*
X733337*
X734155Y1030375*
X734701Y1031500*
X734974Y1033375*
Y1034500*
X734701Y1036375*
X734155Y1037500*
X733337Y1037875*
X732792*
X737701Y1030750D02*
X737428Y1030375D01*
X737701Y1030000*
X737974Y1030375*
X737701Y1030750*
X742064Y1037875D02*
X741246Y1037500D01*
X740701Y1036375*
X740428Y1034500*
Y1033375*
X740701Y1031500*
X741246Y1030375*
X742064Y1030000*
X742610*
X743428Y1030375*
X743974Y1031500*
X744246Y1033375*
Y1034500*
X743974Y1036375*
X743428Y1037500*
X742610Y1037875*
X742064*
X499701Y1012375D02*
X500246Y1012750D01*
X501064Y1013875*
Y1006000*
X503792Y1012000D02*
Y1012375D01*
X504064Y1013125*
X504337Y1013500*
X504883Y1013875*
X505974*
X506519Y1013500*
X506792Y1013125*
X507064Y1012375*
Y1011625*
X506792Y1010875*
X506246Y1009750*
X503519Y1006000*
X507337*
X586610Y1012000D02*
Y1012375D01*
X586883Y1013125*
X587155Y1013500*
X587701Y1013875*
X588792*
X589337Y1013500*
X589610Y1013125*
X589883Y1012375*
Y1011625*
X589610Y1010875*
X589064Y1009750*
X586337Y1006000*
X590155*
X596428Y1013875D02*
X593701Y1006000D01*
X592610Y1013875D02*
X596428D01*
X602428D02*
X599701D01*
X599428Y1010500*
X599701Y1010875*
X600519Y1011250*
X601337*
X602155Y1010875*
X602701Y1010125*
X602974Y1009000*
X602701Y1008250*
X602428Y1007125*
X601883Y1006375*
X601064Y1006000*
X600246*
X599428Y1006375*
X599155Y1006750*
X598883Y1007500*
X625701Y1012000D02*
X637701D01*
X631701Y1006000D02*
Y1018000D01*
X637974Y1019800D02*
X637755Y1020400D01*
X637319Y1021000*
X636883Y1021300*
X636010*
X635574Y1021000*
X635137Y1020400*
X634919Y1019800*
X634701Y1018900*
Y1017400*
X634919Y1016500*
X635137Y1015900*
X635574Y1015300*
X636010Y1015000*
X636883*
X637319Y1015300*
X637755Y1015900*
X637974Y1016500*
X658337Y1013875D02*
X660519Y1010125D01*
Y1006000*
X662701Y1013875D02*
X660519Y1010125D01*
X665155Y1013875D02*
Y1006000D01*
Y1013875D02*
X668701D01*
X665155Y1010125D02*
X667337D01*
X665155Y1006000D02*
X668701D01*
X674974Y1012750D02*
X674428Y1013500D01*
X673610Y1013875*
X672519*
X671701Y1013500*
X671155Y1012750*
Y1012000*
X671428Y1011250*
X671701Y1010875*
X672246Y1010500*
X673883Y1009750*
X674428Y1009375*
X674701Y1009000*
X674974Y1008250*
Y1007125*
X674428Y1006375*
X673610Y1006000*
X672519*
X671701Y1006375*
X671155Y1007125*
X711519Y1012750D02*
Y1006000D01*
X709064Y1009375D02*
X713974D01*
X721337Y1015375D02*
X716428Y1003375D01*
X723792Y1009375D02*
X728701D01*
X732792Y1013875D02*
X731974Y1013500D01*
X731428Y1012375*
X731155Y1010500*
Y1009375*
X731428Y1007500*
X731974Y1006375*
X732792Y1006000*
X733337*
X734155Y1006375*
X734701Y1007500*
X734974Y1009375*
Y1010500*
X734701Y1012375*
X734155Y1013500*
X733337Y1013875*
X732792*
X737701Y1006750D02*
X737428Y1006375D01*
X737701Y1006000*
X737974Y1006375*
X737701Y1006750*
X742064Y1013875D02*
X741246Y1013500D01*
X740701Y1012375*
X740428Y1010500*
Y1009375*
X740701Y1007500*
X741246Y1006375*
X742064Y1006000*
X742610*
X743428Y1006375*
X743974Y1007500*
X744246Y1009375*
Y1010500*
X743974Y1012375*
X743428Y1013500*
X742610Y1013875*
X742064*
G54D75*
G74*
X0Y0D02*
M02*
