%
T1C.012F095S3
X01474Y01698
X01434Y01728
X01404Y01786
X0138Y01826
X01364Y01854
X01356Y02034
X01298Y02062
X013Y02118
X01428Y02372
X01336Y02448
X01432Y0246
X01332Y02506
X01438Y0256
X01248Y02622
X01296Y0266
X01278Y02728
X01454Y02734
X01308Y02808
X01328Y02922
X01484Y03056
X0149Y03224
X01724Y03362
X01576Y0332
X01624Y0319
X01664Y03062
X01594Y02964
X01666Y02956
X01662Y02842
X0169Y02818
X01498Y02734
X01638Y02688
X01602Y02654
X0165Y02636
X01608Y02616
X01746Y02454
X01626Y02084
X01612Y02014
X0164Y01962
X0169Y01934
X0158Y01848
X01536Y0184
X01514Y01806
X01566Y018
X01584Y01634
X01698Y01576
X01648Y01574
X0176Y01578
X0192Y01764
X01848Y01954
X0175Y01954
X0195Y02054
X01954Y02104
X01912Y0211
X01992Y02136
X0185Y02138
X01952Y02144
X01902Y02158
X0185Y02162
X0185Y02186
X01896Y02202
X01814Y02292
X01964Y02384
X0182Y02402
X01814Y02454
X0197Y02478
X01974Y02522
X0188Y02656
X01798Y02672
X01802Y0271
X0189Y02712
X01958Y0272
X01982Y02748
X01928Y0306
X01878Y03062
X0199Y03084
X0195Y03106
X01922Y03362
X0211Y03238
X0211Y03188
X0211Y0313
X0217Y02784
X02024Y02722
X02072Y02722
X0213Y02578
X02188Y02576
X02056Y02576
X022Y02524
X02122Y02516
X02018Y02504
X0206Y02496
X02194Y02464
X02126Y0243
X02194Y02152
X0219Y0212
X02Y021
X01998Y02054
X02244Y01964
X02242Y01856
X02102Y01822
X02106Y01536
X02032Y01536
X0207Y01536
X02362Y01386
X02342Y01562
X0236Y01714
X02332Y0175
X02252Y02144
X0231Y02146
X023Y02178
X0234Y02178
X02488Y02194
X02284Y0221
X02342Y02216
X023Y0224
X02488Y0225
X0233Y02258
X02274Y02262
X02374Y02324
X0239Y02422
X02412Y02512
X02374Y02592
X02392Y02624
X02346Y02668
X02362Y02722
X02296Y02898
X0226Y029
X02412Y0298
X0227Y03
X02376Y03012
X02462Y03064
X02266Y03072
X02406Y03088
X02378Y03114
X02268Y0314
X02278Y03232
X02304Y03268
X02304Y03372
X02628Y03326
X02718Y03316
X02504Y03312
X02616Y03268
X02504Y03266
X02704Y0324
X02714Y03178
X02708Y02908
X0266Y02902
X02614Y02882
X02592Y0282
X027Y02812
X02628Y02706
X02692Y02676
X02538Y02672
X02742Y02644
X02536Y02592
X02584Y02534
X02504Y02528
X0273Y0242
X02618Y02346
X02626Y02286
X02528Y0225
X02576Y02248
X02622Y02246
X02546Y02198
X02524Y02152
X02706Y02062
X02572Y01988
X02572Y01962
X02572Y01936
X02588Y0179
X0262Y01582
X0257Y01542
X02624Y01524
X02726Y01364
X02854Y01188
X0289Y0122
X02948Y01262
X02866Y013
X02932Y0133
X02928Y0139
X02884Y01408
X02762Y01424
X02844Y01426
X02756Y02062
X02948Y02098
X02804Y02208
X02868Y02208
X02776Y02428
X02928Y0252
X02856Y0255
X02766Y02558
X02942Y02624
X02864Y02654
X0276Y02718
X02778Y02834
X02928Y02968
X02774Y0318
X02968Y0321
X03002Y0332
X03072Y03214
X03066Y03104
X03084Y0301
X03188Y0301
X03008Y02944
X03106Y02906
X03242Y0281
X03008Y02758
X03158Y02756
X03142Y0268
X03152Y02596
X03202Y02596
X03094Y0254
X03018Y0252
X03094Y02482
X03206Y021
X03076Y01984
X03Y01944
X0313Y01798
X03032Y01784
X03054Y01748
X03006Y01744
X03098Y01676
X03122Y01514
X03174Y0147
X03136Y01428
X03282Y0139
X03392Y0151
X03368Y01582
X03466Y01656
X0339Y01682
X03332Y01744
X03256Y018
X0333Y0183
X03482Y0184
X03492Y01924
X03464Y02044
X03326Y02572
X03448Y02676
X03338Y02676
X0328Y02694
X03448Y02702
X03338Y02702
X03448Y02728
X03338Y02728
X03338Y02754
X03448Y02754
X03342Y02908
X03474Y03024
X03478Y03192
X034Y0321
X03596Y02994
X03724Y02872
X03548Y02308
X03644Y02256
X03644Y02228
X03644Y022
X03584Y02194
X03644Y02174
X03584Y0213
X03676Y02034
X03724Y02028
X03744Y01992
X0364Y0199
X03694Y01986
X03688Y01942
X0353Y01888
X03696Y01886
X03652Y0188
X0368Y01836
X03644Y01808
X03504Y01792
X03758Y02176
X03758Y02202
X03758Y0223
X03758Y02256
X03778Y02672
T2C.035F197S55
X017398Y031876
X018973Y031876
X018185Y031876
X01976Y031876
T3C.06299F089S55
X037139Y023793
T4C.06299F089S55
X01894Y0146
X0206Y0146
X022227Y014607
X037099Y025333
M30
