*
*
G04 PADS 9.5 Build Number: 522968 generated Gerber (RS-274-X) file*
G04 PC Version=2.1*
*
%IN "alarm_V1.1.pcb"*%
*
%MOIN*%
*
%FSLAX35Y35*%
*
*
*
*
G04 PC Standard Apertures*
*
*
G04 Thermal Relief Aperture macro.*
%AMTER*
1,1,$1,0,0*
1,0,$1-$2,0,0*
21,0,$3,$4,0,0,45*
21,0,$3,$4,0,0,135*
%
*
*
G04 Annular Aperture macro.*
%AMANN*
1,1,$1,0,0*
1,0,$2,0,0*
%
*
*
G04 Odd Aperture macro.*
%AMODD*
1,1,$1,0,0*
1,0,$1-0.005,0,0*
%
*
*
G04 PC Custom Aperture Macros*
*
*
*
*
*
*
G04 PC Aperture Table*
*
%ADD015C,0.07*%
%ADD033R,0.046X0.046*%
%ADD075C,0.001*%
%ADD138C,0.11*%
%ADD139R,0.035X0.03*%
%ADD144R,0.03X0.035*%
%ADD147R,0.06X0.046*%
%ADD149R,0.06118X0.07299*%
%ADD151O,0.07X0.023*%
%ADD152R,0.06X0.08*%
%ADD158R,0.05724X0.02772*%
%ADD166R,0.02378X0.06512*%
%ADD167O,0.02378X0.06512*%
%ADD178R,0.03362X0.05724*%
*
*
*
*
G04 PC Circuitry*
G04 Layer Name alarm_V1.1.pcb - circuitry*
%LPD*%
*
*
G04 PC Custom Flashes*
G04 Layer Name alarm_V1.1.pcb - flashes*
%LPD*%
*
*
G04 PC Circuitry*
G04 Layer Name alarm_V1.1.pcb - circuitry*
%LPD*%
*
G54D15*
G01X286559Y210005D03*
X197601Y318760D03*
X189727D03*
X181853D03*
X173979D03*
X328564Y224113D03*
G54D33*
X254220Y169876D03*
Y177376D03*
X282620Y169876D03*
Y177376D03*
G54D75*
G54D138*
X222266Y146068D03*
X189400Y146000D03*
X206000D03*
X371387Y237930D03*
X370987Y253330D03*
G54D139*
X292815Y321237D03*
X287815D03*
X241633Y326568D03*
X246633D03*
X241633Y331368D03*
X246633D03*
X282566Y288750D03*
X277566D03*
X299518Y209478D03*
X304518D03*
X288811Y257976D03*
X293811D03*
X203976Y243020D03*
X208976D03*
X211732Y229634D03*
X206732D03*
X196496Y257587D03*
X201496D03*
X304513Y214145D03*
X299513D03*
X304338Y262681D03*
X299338D03*
X304338Y257957D03*
X299338D03*
G54D144*
X310600Y237900D03*
Y232900D03*
X353346Y224118D03*
Y219118D03*
X348600Y224100D03*
Y219100D03*
X269921Y177378D03*
Y172378D03*
X275121Y177378D03*
Y172378D03*
X242200Y169900D03*
Y174900D03*
X247367Y174889D03*
Y169889D03*
X270854Y313908D03*
Y308908D03*
X315115Y251200D03*
Y256200D03*
X320115Y251200D03*
Y256200D03*
X269000Y264300D03*
Y259300D03*
X264000Y264300D03*
Y259300D03*
X277789Y259379D03*
Y264379D03*
X282862Y259379D03*
Y264379D03*
X261202Y214773D03*
Y209773D03*
X275502Y214790D03*
Y209790D03*
X265957Y214773D03*
Y209773D03*
X270702Y214790D03*
Y209790D03*
X223352Y246548D03*
Y241548D03*
X223779Y235025D03*
Y230025D03*
X253407Y231834D03*
Y236834D03*
X248407D03*
Y231834D03*
X258600Y231900D03*
Y236900D03*
X258607Y242034D03*
Y247034D03*
X253407D03*
Y242034D03*
X248407Y247034D03*
Y242034D03*
X353400Y208300D03*
Y213300D03*
X348648Y208224D03*
Y213224D03*
X218863Y230032D03*
Y235032D03*
X200965Y229890D03*
Y234890D03*
X223405Y257331D03*
Y252331D03*
X196240Y229890D03*
Y234890D03*
X290600Y226900D03*
Y231900D03*
X280600D03*
Y226900D03*
X285400Y242500D03*
Y237500D03*
X285600Y226900D03*
Y231900D03*
X280600Y237500D03*
Y242500D03*
G54D147*
X262220Y173626D03*
X290620D03*
G54D149*
X277585Y296879D03*
Y313021D03*
X287821D03*
Y296879D03*
G54D151*
X262414Y319128D03*
Y316568D03*
Y314008D03*
Y311448D03*
Y308888D03*
Y306328D03*
Y303768D03*
Y301208D03*
Y298648D03*
Y296088D03*
X232493D03*
Y298648D03*
Y301208D03*
Y303768D03*
Y306328D03*
Y308888D03*
Y311448D03*
Y314008D03*
Y316568D03*
Y319128D03*
G54D152*
X316000Y220600D03*
Y208600D03*
G54D158*
X336363Y217583D03*
Y213843D03*
Y210103D03*
X325340D03*
Y217583D03*
G54D166*
X265961Y247011D03*
X296761Y247211D03*
G54D167*
X268520Y247011D03*
X271080D03*
X273639D03*
Y223389D03*
X271080D03*
X268520D03*
X265961D03*
X299320Y247211D03*
X301880D03*
X304439D03*
Y223589D03*
X301880D03*
X299320D03*
X296761D03*
G54D178*
X357890Y274970D03*
X361630D03*
X365370D03*
Y265915D03*
X361630D03*
X357890D03*
X0Y0D02*
M02*
