*
*
G04 PADS 9.5 Build Number: 522968 generated Gerber (RS-274-X) file*
G04 PC Version=2.1*
*
%IN "alarm_V1.1.pcb"*%
*
%MOIN*%
*
%FSLAX35Y35*%
*
*
*
*
G04 PC Standard Apertures*
*
*
G04 Thermal Relief Aperture macro.*
%AMTER*
1,1,$1,0,0*
1,0,$1-$2,0,0*
21,0,$3,$4,0,0,45*
21,0,$3,$4,0,0,135*
%
*
*
G04 Annular Aperture macro.*
%AMANN*
1,1,$1,0,0*
1,0,$2,0,0*
%
*
*
G04 Odd Aperture macro.*
%AMODD*
1,1,$1,0,0*
1,0,$1-0.005,0,0*
%
*
*
G04 PC Custom Aperture Macros*
*
*
*
*
*
*
G04 PC Aperture Table*
*
%ADD017C,0.024*%
%ADD020R,0.036X0.036*%
%ADD035C,0.01*%
%ADD037C,0.005*%
%ADD039C,0.012*%
%ADD040C,0.015*%
%ADD041C,0.025*%
%ADD042C,0.06*%
%ADD045C,0.03*%
%ADD046C,0.02*%
%ADD070C,0.008*%
%ADD075C,0.001*%
%ADD106R,0.1X0.1*%
%ADD107C,0.1*%
%ADD108R,0.025X0.02*%
%ADD109R,0.02362X0.02756*%
%ADD110O,0.01102X0.0707*%
%ADD111O,0.0707X0.01102*%
%ADD113R,0.02X0.025*%
%ADD114R,0.04331X0.14567*%
%ADD117R,0.08661X0.125*%
%ADD119R,0.036X0.05*%
%ADD122O,0.01299X0.06693*%
%ADD126R,0.03543X0.0315*%
%ADD131R,0.04921X0.0374*%
%ADD132C,0.016*%
%ADD170O,0.012X0.06693*%
%ADD171R,0.07087X0.01181*%
%ADD172R,0.11811X0.07874*%
%ADD180R,0.09X0.075*%
%ADD181R,0.07874X0.04724*%
*
*
*
*
G04 PC Circuitry*
G04 Layer Name alarm_V1.1.pcb - circuitry*
%LPD*%
*
*
G04 PC Custom Flashes*
G04 Layer Name alarm_V1.1.pcb - flashes*
%LPD*%
*
*
G04 PC Circuitry*
G04 Layer Name alarm_V1.1.pcb - circuitry*
%LPD*%
*
G54D17*
G01X285400Y118800D03*
X289000Y122000D03*
X294800Y126200D03*
X286600Y130000D03*
X236200Y138600D03*
X272600Y136400D03*
X276200Y142400D03*
X284400Y142600D03*
X293200Y133000D03*
X288400Y140800D03*
X292800Y139000D03*
X313600Y142800D03*
X317400Y147000D03*
X312200Y151400D03*
X339200Y151000D03*
X328200Y139000D03*
X158400Y163400D03*
X164800Y157400D03*
X147400Y169800D03*
X176000Y157800D03*
X169800Y157600D03*
X203200Y153600D03*
X207000D03*
X210600D03*
X234200Y156200D03*
X236000Y171400D03*
X262400Y152400D03*
X262000Y158200D03*
X257000Y154200D03*
X309800Y167600D03*
X339000Y168200D03*
X336800Y158200D03*
X346600Y165600D03*
X138000Y182600D03*
X140400Y178600D03*
X136400Y185400D03*
X143400Y172800D03*
X158000Y184800D03*
X156600Y180000D03*
X151400Y180600D03*
X153600Y184000D03*
X192000Y176400D03*
X224200Y185600D03*
X210200Y182200D03*
X233200Y175000D03*
X258800Y179000D03*
X303200Y178400D03*
X300600Y174400D03*
X305400Y174800D03*
X313000Y179800D03*
X333200Y174400D03*
X333000Y183000D03*
X325600Y180000D03*
X348200Y184000D03*
X353000Y188800D03*
X364400Y180800D03*
X365200Y188000D03*
X350400Y179200D03*
X368000Y183600D03*
X369600Y188600D03*
X135600Y203400D03*
X129800Y206200D03*
X162600Y208400D03*
X161200Y201400D03*
X164000Y196200D03*
X184800Y195400D03*
X175000D03*
X169000Y193400D03*
X200000Y210000D03*
X195400Y210400D03*
X191200Y211000D03*
X195000Y205400D03*
X199800D03*
X224400Y196400D03*
X257200Y198800D03*
Y193600D03*
Y196200D03*
X270600Y206200D03*
X275600D03*
X300000Y194400D03*
X294800Y209800D03*
X307600Y198400D03*
X320600Y210000D03*
X346400Y204400D03*
X364000Y199000D03*
X349200Y192400D03*
X369400Y198600D03*
X374400Y199200D03*
X368800Y194200D03*
X367600Y203400D03*
X372400Y202800D03*
X130000Y211800D03*
X181400Y229200D03*
X185000Y218600D03*
Y216200D03*
Y213800D03*
X190200Y215800D03*
X189600Y220200D03*
X195200Y214400D03*
X199200Y213600D03*
X219400Y215200D03*
X225200Y214400D03*
X219000Y212000D03*
X230000Y224000D03*
X227400Y226200D03*
X230000Y217800D03*
X234000D03*
X231000Y214600D03*
X234200Y221600D03*
X233000Y225800D03*
X228400Y221000D03*
X262600Y228600D03*
X252800Y225000D03*
X252400Y215200D03*
X262200Y224600D03*
X254600Y219800D03*
X248800Y219400D03*
Y225000D03*
X257600Y224800D03*
X280400Y220800D03*
X286800D03*
X354800Y230800D03*
X364400Y217400D03*
Y220000D03*
Y222800D03*
Y225600D03*
X358400Y219400D03*
Y213000D03*
X375800Y217600D03*
Y220200D03*
Y223000D03*
Y225600D03*
X143200Y246000D03*
X133600Y244800D03*
X133200Y250600D03*
X142800Y237200D03*
X174600Y245400D03*
X181400D03*
X182000Y240200D03*
X201800Y250400D03*
X197000Y247800D03*
X196400Y238400D03*
X219400Y246400D03*
X206000Y249600D03*
X212600Y243000D03*
X241200Y251200D03*
X237400Y232400D03*
X239000Y242200D03*
X261800Y234600D03*
X277600Y242800D03*
X273000Y242000D03*
X309400Y248200D03*
X124800Y262200D03*
X143800Y256000D03*
X129600Y266000D03*
X165000Y263600D03*
X163800Y268800D03*
X160800Y261600D03*
X160200Y265400D03*
X179800Y267200D03*
X180200Y271000D03*
X188000Y265600D03*
X189000Y271200D03*
X197400Y252200D03*
X213000Y257800D03*
X212200Y251600D03*
X220000Y252400D03*
X218800Y257600D03*
X205600D03*
X237400Y259200D03*
X239200Y262400D03*
X234600Y266800D03*
X250400Y252800D03*
X258400Y253400D03*
X262800Y270600D03*
X253600Y259200D03*
X253800Y267200D03*
X269200Y267600D03*
X276600Y255800D03*
X274200Y264400D03*
X294200Y262400D03*
X301800Y252000D03*
X292800D03*
X286400Y265400D03*
X285600Y255000D03*
X309400Y254000D03*
X314200Y268000D03*
X315200Y259600D03*
X320200D03*
X332600Y257200D03*
X328000Y269400D03*
X344800Y267600D03*
Y270200D03*
X333800Y267600D03*
Y270200D03*
X377800Y267200D03*
X130800Y280800D03*
X127800Y272800D03*
X145400Y273400D03*
X149800D03*
X169000Y281800D03*
X166200Y284200D03*
X195800Y272000D03*
X202400Y272200D03*
X198200Y274800D03*
X207200Y272200D03*
X217000Y278400D03*
X236200Y272200D03*
X229600Y289800D03*
X226000Y290000D03*
X259200Y282000D03*
X261400Y288200D03*
X270000Y281200D03*
X277800Y283400D03*
X276000Y271800D03*
X270800Y290800D03*
X266000Y290200D03*
X300800Y275800D03*
X315800Y275600D03*
X324200Y281000D03*
X310600Y290600D03*
X334200Y290800D03*
X344800Y272800D03*
Y275400D03*
X333800Y272800D03*
Y275400D03*
X372400Y287200D03*
X132800Y292200D03*
X148400Y305600D03*
X159400Y296400D03*
X166400Y306200D03*
X166600Y295600D03*
X187800Y306200D03*
X192800Y306000D03*
X195000Y310600D03*
X199000Y308400D03*
X241200Y298000D03*
X237600Y301200D03*
X237800Y311400D03*
X240600Y308800D03*
X226600Y307200D03*
X227000Y300000D03*
X246200Y306400D03*
X300800Y294400D03*
X292800Y296800D03*
X308400Y301000D03*
X318800D03*
X306600Y310400D03*
X359600Y299400D03*
X347400Y302400D03*
X162400Y319000D03*
X149000Y322400D03*
X211000Y318800D03*
Y313000D03*
Y323800D03*
X227800Y323200D03*
X230400Y326800D03*
X226800Y314000D03*
X261600Y326800D03*
X250400Y326600D03*
Y331200D03*
X270400Y324000D03*
X271400Y317800D03*
X277400Y318000D03*
X296800Y321000D03*
X307200Y321400D03*
X340000Y321000D03*
X347800Y319200D03*
X157600Y332000D03*
X172400Y336200D03*
X192200D03*
X230400Y337200D03*
X262800Y332600D03*
X271800Y331600D03*
X300200Y332000D03*
G54D20*
X207541Y291607D03*
X200041D03*
X184294Y184892D03*
X176794D03*
X182077Y163423D03*
X189577D03*
G54D35*
X154611Y285811D02*
X160000D01*
X332900Y277000D02*
X345500D01*
Y265400*
X332900*
Y277000*
X363300Y227500D02*
X376900D01*
Y215900*
X363300*
Y227500*
X332900Y276199D02*
X345500D01*
X332900Y275299D02*
X345500D01*
X332900Y274399D02*
X345500D01*
X332900Y273499D02*
X345500D01*
X332900Y272599D02*
X345500D01*
X332900Y271699D02*
X345500D01*
X332900Y270799D02*
X345500D01*
X332900Y269899D02*
X345500D01*
X332900Y268999D02*
X345500D01*
X332900Y268099D02*
X345500D01*
X332900Y267199D02*
X345500D01*
X332900Y266299D02*
X345500D01*
X363300Y226699D02*
X376900D01*
X363300Y225799D02*
X376900D01*
X363300Y224899D02*
X376900D01*
X363300Y223999D02*
X376900D01*
X363300Y223099D02*
X376900D01*
X363300Y222199D02*
X376900D01*
X363300Y221299D02*
X376900D01*
X363300Y220399D02*
X376900D01*
X363300Y219499D02*
X376900D01*
X363300Y218599D02*
X376900D01*
X363300Y217699D02*
X376900D01*
X363300Y216799D02*
X376900D01*
X193955Y231012D02*
X191705D01*
X226085D02*
X228335D01*
X216910Y227742D02*
Y225492D01*
X150945Y302628D02*
Y300378D01*
X159100Y296441D02*
X156850D01*
X150945Y290254D02*
Y292504D01*
Y271526D02*
Y269276D01*
X142789Y265339D02*
X145039D01*
X150945Y259152D02*
Y261402D01*
X159100Y265339D02*
X156850D01*
X154207Y277937D02*
X156457D01*
X139515Y240417D02*
Y238167D01*
X143015Y237167D02*
X140765D01*
X199838Y205106D02*
Y202856D01*
X195038Y205106D02*
Y202856D01*
X284395Y278965D02*
Y281215D01*
X278208Y283577D02*
X280458D01*
X163650Y309400D02*
X161400D01*
X158400Y314650D02*
Y312400D01*
X153150Y309400D02*
X155400D01*
X158400Y304150D02*
Y306400D01*
X184753Y194984D02*
Y192734D01*
X187800Y305400D02*
Y303150D01*
X196050Y301900D02*
X193800D01*
X192800Y305400D02*
Y303150D01*
X313600Y179450D02*
Y177200D01*
X162598Y208173D02*
Y210423D01*
X165848Y211673D02*
X163598D01*
X160730Y201437D02*
X158480D01*
X154230D02*
X156480D01*
X287278Y148076D02*
X285028D01*
X284379Y142479D02*
Y144729D01*
X273802Y148076D02*
X276052D01*
X323000Y191600D02*
Y189350D01*
X138144Y184055D02*
X140394D01*
X345694Y271200D02*
X343444D01*
X339113Y279700D02*
Y277450D01*
X332533Y271200D02*
X334783D01*
X263000Y136150D02*
Y138400D01*
X269750Y142150D02*
X267500D01*
X263000Y148150D02*
Y145900D01*
X256250Y142150D02*
X258500D01*
X157428Y163935D02*
Y166185D01*
X339250Y309600D02*
X337000D01*
X334000Y314850D02*
Y312600D01*
X328750Y309600D02*
X331000D01*
X334000Y304350D02*
Y306600D01*
X223688Y196606D02*
X221438D01*
X272711Y243147D02*
Y245397D01*
X277503Y243125D02*
Y245375D01*
X287160Y255186D02*
Y252936D01*
X273100Y226177D02*
Y228427D01*
X277880Y238143D02*
Y235893D01*
X287500Y226177D02*
Y228427D01*
X290750Y229677D02*
X288500D01*
X337050Y158100D02*
X334800D01*
X179753Y194984D02*
Y192734D01*
X176253Y191734D02*
X178503D01*
X174439Y209267D02*
Y207017D01*
X167689Y203267D02*
X169939D01*
X174439Y197267D02*
Y199517D01*
X176794Y188942D02*
Y186692D01*
Y180842D02*
Y183092D01*
X167306Y179786D02*
Y182036D01*
X160556Y185786D02*
X162806D01*
X167306Y191786D02*
Y189536D01*
X236200Y138800D02*
Y136550D01*
X248200Y136150D02*
Y138400D01*
X254950Y142150D02*
X252700D01*
X248200Y148150D02*
Y145900D01*
X249776Y155095D02*
X247526D01*
X246876Y149499D02*
Y151749D01*
X236300Y155095D02*
X238550D01*
X267206Y179459D02*
Y177209D01*
X260456Y173459D02*
X262706D01*
X267206Y167459D02*
Y169709D01*
X273956Y173459D02*
X271706D01*
X257141Y179764D02*
Y182014D01*
X256363Y173518D02*
X254113D01*
X223688Y185806D02*
X221438D01*
X207500Y169744D02*
Y171994D01*
X214250Y175744D02*
X212000D01*
X207500Y181744D02*
Y179494D01*
X200750Y175744D02*
X203000D01*
X199326Y176402D02*
X197076D01*
X192826D02*
X195076D01*
X279323Y116229D02*
Y118479D01*
X282573Y119729D02*
X280323D01*
X210074Y182550D02*
Y184800D01*
X222117Y169736D02*
Y171986D01*
X215367Y175736D02*
X217617D01*
X303013Y178675D02*
Y180925D01*
X306263Y182175D02*
X304013D01*
X363506Y221600D02*
X365756D01*
X370087Y213100D02*
Y215350D01*
X376667Y221600D02*
X374417D01*
X370087Y230100D02*
Y227850D01*
G54D37*
X339250Y309600D02*
G75*
G03X339250I-5250J0D01*
G01X163650Y309400D02*
G03X163650I-5250J0D01*
G01X362686Y172335D02*
G03X341972Y340483I-110324J71759D01*
X341802Y340550I-170J-183*
G01X290832*
G03X290582Y340300I0J-250*
G01Y340270*
X290518Y339738D02*
G03X290582Y340270I-2186J532D01*
G01X290518Y339738D02*
G03Y339620I243J-59D01*
G01X290582Y339089D02*
G03X290518Y339620I-2250J-0D01*
G01X290582Y339089D02*
Y334364D01*
X290518Y333833D02*
G03X290582Y334364I-2186J531D01*
G01X290518Y333833D02*
G03Y333715I243J-59D01*
G01X290582Y333183D02*
G03X290518Y333715I-2250J0D01*
G01X290582Y333183D02*
Y328459D01*
X290518Y327927D02*
G03X290582Y328459I-2186J532D01*
G01X290518Y327927D02*
G03Y327809I243J-59D01*
G01X290582Y327278D02*
G03X290518Y327809I-2250J-0D01*
G01X290582Y327278D02*
Y322553D01*
X290518Y322022D02*
G03X290582Y322553I-2186J531D01*
G01X290518Y322022D02*
G03Y321903I243J-59D01*
G01X290582Y321372D02*
G03X290518Y321903I-2250J-0D01*
G01X290582Y321372D02*
Y316648D01*
X290518Y316116D02*
G03X290582Y316648I-2186J532D01*
G01X290518Y316116D02*
G03Y315998I243J-59D01*
G01X290582Y315466D02*
G03X290518Y315998I-2250J0D01*
G01X290582Y315466D02*
Y310742D01*
X290518Y310211D02*
G03X290582Y310742I-2186J531D01*
G01X290518Y310211D02*
G03Y310092I243J-59D01*
G01X290582Y309561D02*
G03X290518Y310092I-2250J-0D01*
G01X290582Y309561D02*
Y304837D01*
X290518Y304305D02*
G03X290582Y304837I-2186J532D01*
G01X290518Y304305D02*
G03Y304187I243J-59D01*
G01X290582Y303655D02*
G03X290518Y304187I-2250J0D01*
G01X290582Y303655D02*
Y298931D01*
X290518Y298400D02*
G03X290582Y298931I-2186J531D01*
G01X290518Y298400D02*
G03Y298281I243J-60D01*
G01X290582Y297750D02*
G03X290518Y298281I-2250J-0D01*
G01X290582Y297750D02*
Y293026D01*
X290518Y292494D02*
G03X290582Y293026I-2186J532D01*
G01X290518Y292494D02*
G03Y292376I243J-59D01*
G01X290582Y291844D02*
G03X290518Y292376I-2250J0D01*
G01X290582Y291844D02*
Y289414D01*
G03X290770Y289172I250J0*
G01X292650Y286750D02*
G03X290770Y289172I-2500J0D01*
G01X292650Y286750D02*
Y276650D01*
X290150Y274150D02*
G03X292650Y276650I0J2500D01*
G01X290150Y274150D02*
X247700D01*
G03X247450Y273900I0J-250*
G01Y249660*
G03X247700Y249410I250J0*
G01X262500*
G03X262750Y249660I-0J250*
G01Y251000*
X263526Y252874D02*
G03X262750Y251000I1874J-1874D01*
G01X263526Y252874D02*
X264212Y253560D01*
X264984Y254096D02*
G03X264212Y253560I1102J-2410D01*
G01X264984Y254096D02*
G03X265088Y254185I-104J228D01*
G01X266960Y255186D02*
G03X265088Y254185I-0J-2250D01*
G01X266960Y255186D02*
X268960D01*
X270224Y254797D02*
G03X268960Y255186I-1264J-1861D01*
G01X270224Y254797D02*
G03X270500Y254793I141J207D01*
G01X271711Y255147D02*
G03X270500Y254793I-0J-2250D01*
G01X271711Y255147D02*
X273711D01*
X274982Y254754D02*
G03X273711Y255147I-1271J-1857D01*
G01X274982Y254754D02*
G03X275262Y254751I142J206D01*
G01X276503Y255125D02*
G03X275262Y254751I0J-2250D01*
G01X276503Y255125D02*
X278503D01*
X279749Y254748D02*
G03X278503Y255125I-1246J-1873D01*
G01X279749Y254748D02*
G03X280035Y254754I138J209D01*
G01X281360Y255186D02*
G03X280035Y254754I-0J-2250D01*
G01X281360Y255186D02*
X283360D01*
X284620Y254800D02*
G03X283360Y255186I-1260J-1864D01*
G01X284620Y254800D02*
G03X284900I140J207D01*
G01X286160Y255186D02*
G03X284900Y254800I-0J-2250D01*
G01X286160Y255186D02*
X288160D01*
X289899Y254363D02*
G03X288160Y255186I-1739J-1427D01*
G01X289899Y254363D02*
G03X290276Y254352I194J159D01*
G01X294943Y254704D02*
G03X290276Y254352I-2143J-2704D01*
G01X294943Y254704D02*
G03X295098Y254650I155J196D01*
G01X299502*
G03X299657Y254704I0J250*
G01X303343Y248914D02*
G03X299657Y254704I-1543J3086D01*
G01X303343Y248914D02*
G03X303454Y248440I111J-224D01*
G01X304000*
X305571Y248005D02*
G03X304000Y248440I-1571J-2615D01*
G01X305571Y248005D02*
G03X305950Y248218I129J214D01*
G01X306696Y250343D02*
G03X305950Y248218I2704J-2143D01*
G01X306696Y250343D02*
G03X306750Y250498I-196J155D01*
G01Y251702*
G03X306696Y251857I-250J0*
G01X312104D02*
G03X306696I-2704J2143D01*
G01X312104D02*
G03X312050Y251702I196J-155D01*
G01Y250498*
G03X312104Y250343I250J-0*
G01X312776Y248911D02*
G03X312104Y250343I-3376J-711D01*
G01X312776Y248912D02*
G03X313204Y248793I244J51D01*
G01X314851Y249511D02*
G03X313204Y248793I0J-2250D01*
G01X314851Y249511D02*
X319772D01*
X320200Y249470D02*
G03X319772Y249511I-428J-2209D01*
G01X320200Y249470D02*
G03X320495Y249677I48J245D01*
G01X321142Y251271D02*
G03X320495Y249677I3058J-2171D01*
G01X321142Y251271D02*
G03X321165Y251309I-203J145D01*
G01X322711Y252546D02*
G03X321165Y251309I489J-2196D01*
G01X322711Y252546D02*
G03X322753Y252560I-54J244D01*
G01X324200Y252850D02*
G03X322753Y252560I0J-3750D01*
G01X324200Y252850D02*
X328189D01*
G03X328366Y252923I-0J250*
G01X336694Y261252*
X338328Y262209D02*
G03X336694Y261252I1018J-3609D01*
G01X338328Y262209D02*
G03X338260Y262700I-68J241D01*
G01X334783*
X332533Y264950D02*
G03X334783Y262700I2250J0D01*
G01X332533Y264950D02*
Y277450D01*
X334783Y279700D02*
G03X332533Y277450I-0J-2250D01*
G01X334783Y279700D02*
X343444D01*
X345694Y277450D02*
G03X343444Y279700I-2250J0D01*
G01X345694Y277450D02*
Y264950D01*
X344212Y262835D02*
G03X345694Y264950I-768J2115D01*
G01X344212Y262835D02*
G03X344297Y262350I85J-235D01*
G01X352827*
G03X352913Y262835I0J250*
G01X351430Y264950D02*
G03X352913Y262835I2250J0D01*
G01X351430Y264950D02*
Y277450D01*
X353680Y279700D02*
G03X351430Y277450I0J-2250D01*
G01X353680Y279700D02*
X362342D01*
X364592Y277450D02*
G03X362342Y279700I-2250J0D01*
G01X364592Y277450D02*
Y264950D01*
X362394Y262701D02*
G03X364592Y264950I-52J2249D01*
G01X362394Y262701D02*
G03X362150Y262451I6J-250D01*
G01Y258600*
Y258457*
G03X362223Y258280I250J-0*
G01X363350Y257154*
G03X363526Y257080I176J176*
G01X364643*
G03X364854Y257197I-0J250*
G01Y249464D02*
G03Y257197I6133J3866D01*
G01Y249464D02*
G03X364643Y249580I-211J-134D01*
G01X361870*
X359218Y250679D02*
G03X361870Y249580I2652J2651D01*
G01X359218Y250679D02*
X355748Y254148D01*
X355268Y254737D02*
G03X355748Y254148I3132J2063D01*
G01X355268Y254737D02*
G03X355059Y254850I-209J-137D01*
G01X353601*
G03X353448Y254402I0J-250*
G01X358144Y241076D02*
G03X353448Y254402I-12691J3018D01*
G01X358144Y241076D02*
G03X358546Y240825I243J-58D01*
G01X360930Y241680D02*
G03X358546Y240825I0J-3750D01*
G01X360930Y241680D02*
X363887D01*
G03X364137Y241930I-0J250*
G01Y242930*
X366387Y245180D02*
G03X364137Y242930I-0J-2250D01*
G01X366387Y245180D02*
X376387D01*
X378637Y242930D02*
G03X376387Y245180I-2250J0D01*
G01X378637Y242930D02*
Y232930D01*
X376387Y230680D02*
G03X378637Y232930I-0J2250D01*
G01X376387Y230680D02*
X366387D01*
X364137Y232930D02*
G03X366387Y230680I2250J0D01*
G01X364137Y232930D02*
Y233930D01*
G03X363887Y234180I-250J0*
G01X362587*
G03X362410Y234107I0J-250*
G01X362223Y233920*
G03X362150Y233743I177J-177*
G01Y224400*
X361052Y221748D02*
G03X362150Y224400I-2652J2652D01*
G01X361052Y221748D02*
X359652Y220348D01*
X357956Y219374D02*
G03X359652Y220348I-956J3626D01*
G01X357956Y219374D02*
G03X357770Y219132I64J-242D01*
G01Y215350*
X355520Y213100D02*
G03X357770Y215350I-0J2250D01*
G01X355520Y213100D02*
X346858D01*
X344608Y215350D02*
G03X346858Y213100I2250J0D01*
G01X344608Y215350D02*
Y217600D01*
G03X344358Y217850I-250J-0*
G01X344016*
X341365Y218948D02*
G03X344016Y217850I2651J2652D01*
G01X341365Y218948D02*
X330520Y229793D01*
G03X330343Y229866I-177J-177*
G01X324112*
X322665Y230157D02*
G03X324112Y229866I1447J3459D01*
G01X322665Y230157D02*
G03X322623Y230170I-97J-231D01*
G01X321077Y231407D02*
G03X322623Y230170I2035J959D01*
G01X321077Y231407D02*
G03X321054Y231445I-227J-106D01*
G01X320385Y233201D02*
G03X321054Y231445I3727J415D01*
G01X320385Y233201D02*
G03X320100Y233420I-249J-28D01*
G01X319772Y233396D02*
G03X320100Y233420I0J2250D01*
G01X319772Y233396D02*
X314851D01*
X312601Y235646D02*
G03X314851Y233396I2250J0D01*
G01X312601Y235646D02*
Y239387D01*
X313585Y241247D02*
G03X312601Y239387I1266J-1860D01*
G01X313585Y241247D02*
G03Y241660I-140J206D01*
G01X312601Y243520D02*
G03X313585Y241660I2250J0D01*
G01X312601Y243520D02*
Y245968D01*
G03X312152Y246119I-250J0*
G01X308994Y244774D02*
G03X312152Y246119I406J3426D01*
G01X308994Y244774D02*
G03X308725Y244455I-29J-248D01*
G01X308850Y243590D02*
G03X308725Y244455I-3050J0D01*
G01X308850Y243590D02*
Y213967D01*
G03X308923Y213790I250J-0*
G01X312390Y210323*
G03X312567Y210250I177J177*
G01X353200*
X355357Y209357D02*
G03X353200Y210250I-2157J-2157D01*
G01X355357Y209357D02*
X358974Y205739D01*
X359867Y203583D02*
G03X358974Y205739I-3050J-0D01*
G01X359867Y203583D02*
Y203521D01*
G03X360058Y203278I250J-0*
G01X362226Y200510D02*
G03X360058Y203278I-2850J0D01*
G01X362226Y200510D02*
Y195017D01*
X362043Y194010D02*
G03X362226Y195017I-2667J1007D01*
G01X362043Y194010D02*
G03X362026Y193922I233J-88D01*
G01Y177196*
G03X362043Y177108I250J0*
G01X362226Y176101D02*
G03X362043Y177108I-2850J-0D01*
G01X362226Y176101D02*
Y172471D01*
G03X362686Y172335I250J0*
G01X278272Y292376D02*
G03Y292494I-243J59D01*
G01X278261Y292542D02*
G03X278272Y292494I2197J484D01*
G01X278261Y292541D02*
G03X278016Y292738I-245J-53D01*
G01X259189*
G03X259012Y292664I-0J-250*
G01X256024Y289677*
G03X256201Y289250I177J-177*
G01X277958*
G03X278208Y289500I-0J250*
G01Y291844*
X278272Y292376D02*
G03X278208Y291844I2186J-532D01*
G01X278272Y339620D02*
G03Y339738I-243J59D01*
G01X278208Y340270D02*
G03X278272Y339738I2250J-0D01*
G01X278208Y340270D02*
Y340300D01*
G03X277958Y340550I-250J0*
G01X225871*
G03X225621Y340300I0J-250*
G01Y340270*
X225558Y339738D02*
G03X225621Y340270I-2187J532D01*
G01X225558Y339738D02*
G03Y339620I243J-59D01*
G01X225621Y339089D02*
G03X225558Y339620I-2250J-0D01*
G01X225621Y339089D02*
Y334364D01*
X225558Y333833D02*
G03X225621Y334364I-2187J531D01*
G01X225558Y333833D02*
G03Y333715I243J-59D01*
G01X225621Y333183D02*
G03X225558Y333715I-2250J0D01*
G01X225621Y333183D02*
Y328459D01*
X225558Y327927D02*
G03X225621Y328459I-2187J532D01*
G01X225558Y327927D02*
G03Y327809I243J-59D01*
G01X225621Y327278D02*
G03X225558Y327809I-2250J-0D01*
G01X225621Y327278D02*
Y322553D01*
X225558Y322022D02*
G03X225621Y322553I-2187J531D01*
G01X225558Y322022D02*
G03Y321903I243J-59D01*
G01X225621Y321372D02*
G03X225558Y321903I-2250J-0D01*
G01X225621Y321372D02*
Y316648D01*
X225558Y316116D02*
G03X225621Y316648I-2187J532D01*
G01X225558Y316116D02*
G03Y315998I243J-59D01*
G01X225621Y315466D02*
G03X225558Y315998I-2250J0D01*
G01X225621Y315466D02*
Y310742D01*
X225558Y310211D02*
G03X225621Y310742I-2187J531D01*
G01X225558Y310211D02*
G03Y310092I243J-59D01*
G01X225621Y309561D02*
G03X225558Y310092I-2250J-0D01*
G01X225621Y309561D02*
Y304837D01*
X225558Y304305D02*
G03X225621Y304837I-2187J532D01*
G01X225558Y304305D02*
G03Y304187I243J-59D01*
G01X225621Y303655D02*
G03X225558Y304187I-2250J0D01*
G01X225621Y303655D02*
Y298931D01*
X225558Y298400D02*
G03X225621Y298931I-2187J531D01*
G01X225558Y298400D02*
G03Y298281I243J-60D01*
G01X225621Y297750D02*
G03X225558Y298281I-2250J-0D01*
G01X225621Y297750D02*
Y293026D01*
X225558Y292494D02*
G03X225621Y293026I-2187J532D01*
G01X225558Y292494D02*
G03Y292376I243J-59D01*
G01X225621Y291844D02*
G03X225558Y292376I-2250J0D01*
G01X225621Y291844D02*
Y289500D01*
G03X225871Y289250I250J0*
G01X229559*
G03X229736Y289323I-0J250*
G01X237714Y297301*
G03X237784Y297513I-177J177*
G01X237782Y297534D02*
G03X237784Y297513I3418J466D01*
G01X237782Y297534D02*
G03X237538Y297751I-248J-33D01*
G01X237693Y304649D02*
G03X237538Y297751I-93J-3449D01*
G01X237693Y304649D02*
G03X237950Y304899I7J250D01*
G01Y306502*
G03X237896Y306657I-250J0*
G01X237284Y307847D02*
G03X237896Y306657I3316J953D01*
G01X237284Y307847D02*
G03X237095Y308023I-240J-69D01*
G01X239943Y314104D02*
G03X237095Y308023I-2143J-2704D01*
G01X239943Y314104D02*
G03X240098Y314050I155J196D01*
G01X241394*
X243268Y313274D02*
G03X241394Y314050I-1874J-1874D01*
G01X243268Y313274D02*
X245274Y311268D01*
X245970Y310039D02*
G03X245274Y311268I-2570J-645D01*
G01X245970Y310039D02*
G03X246212Y309850I243J61D01*
G01X249457Y305262D02*
G03X246212Y309850I-3257J1138D01*
G01X249457Y305262D02*
G03X249516Y305003I236J-82D01*
G01X250274Y304246*
X251050Y302372D02*
G03X250274Y304246I-2650J-0D01*
G01X251050Y302372D02*
Y299663D01*
G03X251477Y299486I250J-0*
G01X266969Y314978*
X268843Y315754D02*
G03X266969Y314978I-0J-2650D01*
G01X268843Y315754D02*
X278016D01*
G03X278261Y315951I0J250*
G01X278272Y315998D02*
G03X278261Y315951I2186J-532D01*
G01X278272Y315998D02*
G03Y316116I-243J59D01*
G01X278208Y316648D02*
G03X278272Y316116I2250J-0D01*
G01X278208Y316648D02*
Y321372D01*
X278272Y321903D02*
G03X278208Y321372I2186J-531D01*
G01X278272Y321903D02*
G03Y322022I-243J60D01*
G01X278208Y322553D02*
G03X278272Y322022I2250J0D01*
G01X278208Y322553D02*
Y327278D01*
X278272Y327809D02*
G03X278208Y327278I2186J-531D01*
G01X278272Y327809D02*
G03Y327927I-243J59D01*
G01X278208Y328459D02*
G03X278272Y327927I2250J-0D01*
G01X278208Y328459D02*
Y333183D01*
X278272Y333715D02*
G03X278208Y333183I2186J-532D01*
G01X278272Y333715D02*
G03Y333833I-243J59D01*
G01X278208Y334364D02*
G03X278272Y333833I2250J0D01*
G01X278208Y334364D02*
Y339089D01*
X278272Y339620D02*
G03X278208Y339089I2186J-531D01*
G01X213311Y339620D02*
G03Y339738I-243J59D01*
G01X213247Y340270D02*
G03X213311Y339738I2250J-0D01*
G01X213247Y340270D02*
Y340300D01*
G03X212997Y340550I-250J0*
G01X207900*
G03X207650Y340300I0J-250*
G01Y295907*
G03X207900Y295657I250J0*
G01X209341*
X211591Y293407D02*
G03X209341Y295657I-2250J0D01*
G01X211591Y293407D02*
Y292673D01*
G03X211904Y292431I250J0*
G01X212682Y292532D02*
G03X211904Y292431I0J-3050D01*
G01X212682Y292532D02*
X213009D01*
G03X213258Y292807I0J250*
G01X213247Y293026D02*
G03X213258Y292807I2250J-0D01*
G01X213247Y293026D02*
Y297750D01*
X213311Y298281D02*
G03X213247Y297750I2186J-531D01*
G01X213311Y298281D02*
G03Y298400I-243J59D01*
G01X213247Y298931D02*
G03X213311Y298400I2250J0D01*
G01X213247Y298931D02*
Y303655D01*
X213311Y304187D02*
G03X213247Y303655I2186J-532D01*
G01X213311Y304187D02*
G03Y304305I-243J59D01*
G01X213247Y304837D02*
G03X213311Y304305I2250J-0D01*
G01X213247Y304837D02*
Y309561D01*
X213311Y310092D02*
G03X213247Y309561I2186J-531D01*
G01X213311Y310092D02*
G03Y310211I-243J60D01*
G01X213247Y310742D02*
G03X213311Y310211I2250J0D01*
G01X213247Y310742D02*
Y315466D01*
X213311Y315998D02*
G03X213247Y315466I2186J-532D01*
G01X213311Y315998D02*
G03Y316116I-243J59D01*
G01X213247Y316648D02*
G03X213311Y316116I2250J-0D01*
G01X213247Y316648D02*
Y321372D01*
X213311Y321903D02*
G03X213247Y321372I2186J-531D01*
G01X213311Y321903D02*
G03Y322022I-243J60D01*
G01X213247Y322553D02*
G03X213311Y322022I2250J0D01*
G01X213247Y322553D02*
Y327278D01*
X213311Y327809D02*
G03X213247Y327278I2186J-531D01*
G01X213311Y327809D02*
G03Y327927I-243J59D01*
G01X213247Y328459D02*
G03X213311Y327927I2250J-0D01*
G01X213247Y328459D02*
Y333183D01*
X213311Y333715D02*
G03X213247Y333183I2186J-532D01*
G01X213311Y333715D02*
G03Y333833I-243J59D01*
G01X213247Y334364D02*
G03X213311Y333833I2250J0D01*
G01X213247Y334364D02*
Y339089D01*
X213311Y339620D02*
G03X213247Y339089I2186J-531D01*
G01X192863Y178055D02*
G03X192617Y178350I-246J45D01*
G01X185400*
X184892Y178399D02*
G03X185400Y178350I508J2601D01*
G01X184892Y178399D02*
G03X184594Y178154I-48J-245D01*
G01Y176423*
G03X184844Y176173I250J-0*
G01X187627*
X189575Y175048D02*
G03X187627Y176173I-1948J-1125D01*
G01X189575Y175048D02*
G03X189792Y174923I217J125D01*
G01X192576*
G03X192826Y175173I0J250*
G01Y177652*
X192863Y178055D02*
G03X192826Y177652I2213J-403D01*
G01X179827Y157600D02*
Y159223D01*
G03X179647Y159463I-250J-0*
G01X178376Y160419D02*
G03X179647Y159463I1901J1204D01*
G01X178376Y160419D02*
G03X178165Y160535I-211J-134D01*
G01X176165*
X173915Y162785D02*
G03X176165Y160535I2250J0D01*
G01X173915Y162785D02*
Y165285D01*
X174217Y166410D02*
G03X173915Y165285I1948J-1125D01*
G01X174217Y166410D02*
G03Y166660I-217J125D01*
G01X174026Y167089D02*
G03X174217Y166660I2139J696D01*
G01X174026Y167089D02*
G03X173590Y167164I-238J-77D01*
G01X171806Y166286D02*
G03X173590Y167164I-0J2250D01*
G01X171806Y166286D02*
X162806D01*
X161115Y167051D02*
G03X162806Y166286I1691J1485D01*
G01X161115Y167051D02*
G03X160678Y166886I-187J-165D01*
G01Y166185*
X158428Y163935D02*
G03X160678Y166185I-0J2250D01*
G01X158428Y163935D02*
X156828D01*
G03X156578Y163685I-0J-250*
G01Y163229*
G03X156651Y163053I250J0*
G01X165423Y154280*
G03X165777I177J177*
G01X167748Y156252*
X170400Y157350D02*
G03X167748Y156252I0J-3750D01*
G01X170400Y157350D02*
X179577D01*
G03X179827Y157600I-0J250*
G01X176829Y172535D02*
G03X177020Y172946I-0J250D01*
G01X176494Y174392D02*
G03X177020Y172946I2250J0D01*
G01X176494Y174392D02*
Y179392D01*
X176770Y180472D02*
G03X176494Y179392I1974J-1080D01*
G01X176770Y180472D02*
G03X176551Y180842I-219J120D01*
G01X174994*
X174084Y181034D02*
G03X174994Y180842I910J2058D01*
G01X174084Y181034D02*
G03X173765Y180929I-101J-228D01*
G01X171806Y179786D02*
G03X173765Y180929I-0J2250D01*
G01X171806Y179786D02*
X162806D01*
X160556Y182036D02*
G03X162806Y179786I2250J-0D01*
G01X160556Y182036D02*
Y187849D01*
G03X160123Y188020I-250J0*
G01X158480Y187307D02*
G03X160123Y188020I0J2250D01*
G01X158480Y187307D02*
X156480D01*
X154790Y188072D02*
G03X156480Y187307I1690J1485D01*
G01X154790Y188072D02*
G03X154602Y188157I-188J-165D01*
G01X151651*
G03X151418Y187815I-0J-250*
G01X151620Y186752D02*
G03X151418Y187815I-2900J-0D01*
G01X151620Y186752D02*
Y181358D01*
X151186Y179832D02*
G03X151620Y181358I-2466J1526D01*
G01X151186Y179832D02*
G03X151398Y179450I212J-132D01*
G01X156228*
X158384Y178557D02*
G03X156228Y179450I-2156J-2157D01*
G01X158384Y178557D02*
X159584Y177357D01*
X160162Y176552D02*
G03X159584Y177357I-2734J-1352D01*
G01X160162Y176552D02*
G03X160628Y176600I224J111D01*
G01X162806Y178286D02*
G03X160628Y176600I-0J-2250D01*
G01X162806Y178286D02*
X171806D01*
X174056Y176036D02*
G03X171806Y178286I-2250J-0D01*
G01X174056Y176036D02*
Y171957D01*
G03X174492Y171789I250J-0*
G01X176165Y172535D02*
G03X174492Y171789I0J-2250D01*
G01X176165Y172535D02*
X176829D01*
X180150Y209325D02*
Y210709D01*
G03X179804Y210940I-250J-0*
G01X178939Y210767D02*
G03X179804Y210940I-0J2250D01*
G01X178939Y210767D02*
X169939D01*
X167689Y213017D02*
G03X169939Y210767I2250J-0D01*
G01X167689Y213017D02*
Y213173D01*
G03X167439Y213423I-250J0*
G01X166086*
G03X165837Y213148I-0J-250*
G01X165848Y212923D02*
G03X165837Y213148I-2250J0D01*
G01X165848Y212923D02*
Y210423D01*
X163598Y208173D02*
G03X165848Y210423I0J2250D01*
G01X163598Y208173D02*
X161598D01*
X161024Y208248D02*
G03X161598Y208173I574J2175D01*
G01X161024Y208248D02*
G03X160712Y207974I-64J-242D01*
G01X160730Y207687D02*
G03X160712Y207974I-2250J0D01*
G01X160730Y207687D02*
Y205187D01*
X160429Y204062D02*
G03X160730Y205187I-1949J1125D01*
G01X160429Y204062D02*
G03Y203812I216J-125D01*
G01X160730Y202687D02*
G03X160429Y203812I-2250J0D01*
G01X160730Y202687D02*
Y200187D01*
X160235Y198779D02*
G03X160730Y200187I-1755J1408D01*
G01X160235Y198779D02*
G03Y198466I195J-157D01*
G01X160730Y197057D02*
G03X160235Y198466I-2250J0D01*
G01X160730Y197057D02*
Y194557D01*
X160429Y193432D02*
G03X160730Y194557I-1949J1125D01*
G01X160429Y193432D02*
G03Y193182I216J-125D01*
G01X160730Y192057D02*
G03X160429Y193182I-2250J0D01*
G01X160730Y192057D02*
Y191244D01*
G03X161163Y191073I250J-0*
G01X162806Y191786D02*
G03X161163Y191073I-0J-2250D01*
G01X162806Y191786D02*
X171806D01*
X174056Y189536D02*
G03X171806Y191786I-2250J-0D01*
G01X174056Y189536D02*
Y189096D01*
G03X174375Y188855I250J-0*
G01X174994Y188942D02*
G03X174375Y188855I-0J-2250D01*
G01X174994Y188942D02*
X176535D01*
G03X176732Y189346I0J250*
G01X176253Y190734D02*
G03X176732Y189346I2250J0D01*
G01X176253Y190734D02*
Y192734D01*
X178503Y194984D02*
G03X176253Y192734I-0J-2250D01*
G01X178503Y194984D02*
X179900D01*
G03X180150Y195234I0J250*
G01Y197209*
G03X179804Y197440I-250J-0*
G01X178939Y197267D02*
G03X179804Y197440I-0J2250D01*
G01X178939Y197267D02*
X169939D01*
X167689Y199517D02*
G03X169939Y197267I2250J-0D01*
G01X167689Y199517D02*
Y207017D01*
X169939Y209267D02*
G03X167689Y207017I-0J-2250D01*
G01X169939Y209267D02*
X178939D01*
X179804Y209094D02*
G03X178939Y209267I-865J-2077D01*
G01X179804Y209094D02*
G03X180150Y209325I96J231D01*
G01X154465Y198457D02*
G03X154667Y198855I0J250D01*
G01X154230Y200187D02*
G03X154667Y198855I2250J0D01*
G01X154230Y200187D02*
Y202687D01*
X154364Y203452D02*
G03X154230Y202687I2116J-765D01*
G01X154364Y203452D02*
G03X154129Y203787I-235J85D01*
G01X151870*
G03X151620Y203537I0J-250*
G01Y199862*
X151418Y198799D02*
G03X151620Y199862I-2698J1063D01*
G01X151418Y198799D02*
G03X151651Y198457I233J-92D01*
G01X154465*
X149879Y169810D02*
G03Y170060I-217J125D01*
G01X149578Y171185D02*
G03X149879Y170060I2250J-0D01*
G01X149578Y171185D02*
Y173100D01*
G03X149328Y173350I-250J-0*
G01X145600*
X143443Y174243D02*
G03X145600Y173350I2157J2157D01*
G01X143443Y174243D02*
X141446Y176241D01*
X140554Y178304D02*
G03X141446Y176241I3048J94D01*
G01X140554Y178304D02*
G03X140363Y178540I-250J-7D01*
G01X138144Y181358D02*
G03X140363Y178540I2899J0D01*
G01X138144Y181358D02*
Y186752D01*
X138280Y187631D02*
G03X138144Y186752I2763J-879D01*
G01X138280Y187631D02*
G03X138042Y187957I-238J76D01*
G01X137721*
G03X137553Y187892I-0J-250*
G01X136039Y187307D02*
G03X137553Y187892I0J2250D01*
G01X136039Y187307D02*
X134040D01*
X134034*
G03X133808Y186949I-1J-250*
X148630Y163098I118554J57145*
X149078Y163252I198J154*
G01Y167435*
X149770Y169606D02*
G03X149078Y167435I3058J-2171D01*
G01X149770Y169606D02*
G03X149792Y169644I-204J145D01*
G01X149879Y169810D02*
G03X149792Y169644I1949J-1125D01*
G01X138113Y198457D02*
G03X138346Y198799I0J250D01*
G01X138144Y199862D02*
G03X138346Y198799I2899J0D01*
G01X138144Y199862D02*
Y205256D01*
X138206Y205853D02*
G03X138144Y205256I2837J-597D01*
G01X138206Y205853D02*
G03X138109Y206106I-245J51D01*
G01X137785Y206385D02*
G03X138109Y206106I2015J2015D01*
G01X137785Y206385D02*
X136985Y207185D01*
X136164Y208915D02*
G03X136985Y207185I2836J285D01*
G01X136164Y208915D02*
G03X136007Y209122I-248J-25D01*
G01X134585Y211215D02*
G03X136007Y209122I2250J-0D01*
G01X134585Y211215D02*
Y224500D01*
G03X134335Y224750I-250J-0*
G01X132172*
G03X131981Y224338I-0J-250*
G01X123930Y217599D02*
G03X131981Y224338I4053J3337D01*
G01X123930Y217599D02*
G03X123492Y217389I-193J-159D01*
X131344Y192372I128870J26705*
X131820Y192428I230J98*
G01X132091Y193182D02*
G03X131820Y192428I1948J-1125D01*
G01X132091Y193182D02*
G03Y193432I-217J125D01*
G01X131789Y194557D02*
G03X132091Y193432I2250J0D01*
G01X131789Y194557D02*
Y197057D01*
X134039Y199307D02*
G03X131789Y197057I0J-2250D01*
G01X134039Y199307D02*
X136039D01*
X137730Y198542D02*
G03X136039Y199307I-1691J-1485D01*
G01X137730Y198542D02*
G03X137918Y198457I188J165D01*
G01X138113*
X238908Y138581D02*
Y149296D01*
G03X238701Y149542I-250J-0*
G01X236300Y152398D02*
G03X238701Y149542I2899J0D01*
G01X236300Y152398D02*
Y157792D01*
X236621Y159119D02*
G03X236300Y157792I2578J-1327D01*
G01X236621Y159119D02*
G03X236399Y159484I-222J115D01*
G01X235776*
G03X235607Y159419I-0J-250*
G01X234094Y158834D02*
G03X235607Y159419I0J2250D01*
G01X234094Y158834D02*
X232100D01*
G03X231850Y158584I0J-250*
G01Y155367*
G03X231923Y155190I250J-0*
G01X232757Y154357*
X233650Y152200D02*
G03X232757Y154357I-3050J0D01*
G01X233650Y152200D02*
Y138685D01*
G03X234030Y138472I250J0*
G01X235200Y138800D02*
G03X234030Y138472I0J-2250D01*
G01X235200Y138800D02*
X237200D01*
X238512Y138378D02*
G03X237200Y138800I-1312J-1828D01*
G01X238512Y138378D02*
G03X238908Y138581I146J203D01*
G01X227550Y132167D02*
Y138568D01*
G03X227297Y138818I-250J0*
G01X227266D02*
G03X227297I-0J2250D01*
G01X227266D02*
X217266D01*
X215016Y141068D02*
G03X217266Y138818I2250J-0D01*
G01X215016Y141068D02*
Y151068D01*
X217266Y153318D02*
G03X215016Y151068I-0J-2250D01*
G01X217266Y153318D02*
X218266D01*
G03X218516Y153568I-0J250*
G01Y155986*
G03X218266Y156236I-250J-0*
G01X217617*
X215367Y158486D02*
G03X217617Y156236I2250J-0D01*
G01X215367Y158486D02*
G03X215117Y158736I-250J-0D01*
G01X214500*
G03X214250Y158487I-0J-250*
G01X212000Y156244D02*
G03X214250Y158487I-0J2250D01*
G01X212000Y156244D02*
X203000D01*
X200750Y158454D02*
G03X203000Y156244I2250J40D01*
G01X200750Y158454D02*
G03X200500Y158700I-250J-4D01*
G01X198000*
X195525Y159725D02*
G03X198000Y158700I2475J2475D01*
G01X195525Y159725D02*
X193994Y161256D01*
G03X193573Y161134I-177J-176*
G01X193378Y160594D02*
G03X193573Y161134I-2001J1029D01*
G01X193378Y160594D02*
G03X193350Y160479I222J-115D01*
G01Y158268*
X190574Y154646D02*
G03X193350Y158268I-974J3622D01*
G01X190574Y154646D02*
G03X190462Y154582I65J-241D01*
G01X189557Y153677*
G03X189734Y153250I177J-177*
G01X194400*
X196650Y151000D02*
G03X194400Y153250I-2250J0D01*
G01X196650Y151000D02*
Y141000D01*
X196643Y140820D02*
G03X196650Y141000I-2243J180D01*
G01X196643Y140820D02*
G03X196892Y140550I249J-20D01*
G01X198508*
G03X198757Y140820I-0J250*
G01X198750Y141000D02*
G03X198757Y140820I2250J0D01*
G01X198750Y141000D02*
Y151000D01*
X201000Y153250D02*
G03X198750Y151000I0J-2250D01*
G01X201000Y153250D02*
X211000D01*
X213250Y151000D02*
G03X211000Y153250I-2250J0D01*
G01X213250Y151000D02*
Y141000D01*
X213152Y140342D02*
G03X213250Y141000I-2152J658D01*
G01X213152Y140342D02*
G03X213266Y140053I239J-73D01*
G01X214052Y139452D02*
G03X213266Y140053I-2652J-2652D01*
G01X214052Y139452D02*
X224318Y129185D01*
G03X224672I177J177*
G01X227477Y131990*
G03X227550Y132167I-177J177*
G01X225750Y168486D02*
Y169486D01*
G03X225500Y169736I-250J-0*
G01X217617*
X215367Y171986D02*
G03X217617Y169736I2250J-0D01*
G01X215367Y171986D02*
Y179486D01*
X215716Y180689D02*
G03X215367Y179486I1901J-1203D01*
G01X215716Y180689D02*
G03X215681Y181000I-211J134D01*
G01X214442Y182239*
G03X214283Y182311I-176J-177*
G01X212804Y183009D02*
G03X214283Y182311I1634J1547D01*
G01X212804Y183009D02*
G03X212468Y183034I-181J-172D01*
G01X211074Y182550D02*
G03X212468Y183034I-0J2250D01*
G01X211074Y182550D02*
X209074D01*
X207885Y182889D02*
G03X209074Y182550I1189J1911D01*
G01X207885Y182889D02*
G03X207507Y182722I-132J-212D01*
G01X207311Y182098D02*
G03X207507Y182722I-2410J1102D01*
G01X207311Y182098D02*
G03X207538Y181744I227J-104D01*
G01X212000*
X214250Y179494D02*
G03X212000Y181744I-2250J0D01*
G01X214250Y179494D02*
Y171994D01*
X212000Y169744D02*
G03X214250Y171994I-0J2250D01*
G01X212000Y169744D02*
X203000D01*
X200750Y171994D02*
G03X203000Y169744I2250J0D01*
G01X200750Y171994D02*
Y178100D01*
G03X200500Y178350I-250J-0*
G01X199536*
G03X199290Y178055I-0J-250*
G01X199326Y177652D02*
G03X199290Y178055I-2250J0D01*
G01X199326Y177652D02*
Y175152D01*
X199025Y174027D02*
G03X199326Y175152I-1949J1125D01*
G01X199025Y174027D02*
G03Y173777I216J-125D01*
G01X199325Y172744D02*
G03X199025Y173777I-2249J-92D01*
G01X199325Y172744D02*
G03X199341Y172664I249J10D01*
G01X199576Y171402D02*
G03X199341Y172664I-3500J0D01*
G01X199576Y171402D02*
Y165950D01*
G03X199826Y165700I250J0*
G01X200500*
G03X200750Y165950I-0J250*
G01Y165994*
X203000Y168244D02*
G03X200750Y165994I-0J-2250D01*
G01X203000Y168244D02*
X212000D01*
X214250Y165994D02*
G03X212000Y168244I-2250J0D01*
G01X214250Y165994D02*
Y165986D01*
G03X214500Y165736I250J-0*
G01X215117*
G03X215367Y165986I-0J250*
G01X217617Y168236D02*
G03X215367Y165986I-0J-2250D01*
G01X217617Y168236D02*
X225500D01*
G03X225750Y168486I-0J250*
G01X226350Y184500D02*
Y197100D01*
G03X226100Y197350I-250J-0*
G01X223938*
G03X223688Y197100I0J-250*
G01Y195356*
X223129Y193871D02*
G03X223688Y195356I-1691J1485D01*
G01X223129Y193871D02*
G03Y193541I188J-165D01*
G01X223688Y192056D02*
G03X223129Y193541I-2250J-0D01*
G01X223688Y192056D02*
Y189556D01*
X223387Y188431D02*
G03X223688Y189556I-1949J1125D01*
G01X223387Y188431D02*
G03Y188181I217J-125D01*
G01X223688Y187056D02*
G03X223387Y188181I-2250J-0D01*
G01X223688Y187056D02*
Y184556D01*
Y184506D02*
G03Y184556I-2250J50D01*
G01Y184506D02*
G03X223938Y184250I250J-6D01*
G01X226100*
G03X226350Y184500I-0J250*
G01X294885Y241247D02*
G03Y241660I-141J206D01*
G01X294153Y242484D02*
G03X294885Y241660I1997J1036D01*
G01X294153Y242484D02*
G03X293982Y242613I-221J-116D01*
G01X293144Y242920D02*
G03X293982Y242613I1456J2680D01*
G01X293144Y242920D02*
G03X293025Y242950I-119J-220D01*
G01X292123*
X290249Y243726D02*
G03X292123Y242950I1874J1874D01*
G01X290249Y243726D02*
X290117Y243858D01*
G03X289762Y243857I-177J-177*
G01X288160Y243186D02*
G03X289762Y243857I-0J2250D01*
G01X288160Y243186D02*
X286160D01*
X284900Y243572D02*
G03X286160Y243186I1260J1864D01*
G01X284900Y243572D02*
G03X284620I-140J-207D01*
G01X283360Y243186D02*
G03X284620Y243572I-0J2250D01*
G01X283360Y243186D02*
X281360D01*
X280114Y243563D02*
G03X281360Y243186I1246J1873D01*
G01X280114Y243563D02*
G03X279828Y243556I-138J-209D01*
G01X278503Y243125D02*
G03X279828Y243556I0J2250D01*
G01X278503Y243125D02*
X276503D01*
X275232Y243518D02*
G03X276503Y243125I1271J1857D01*
G01X275232Y243518D02*
G03X274952Y243521I-142J-206D01*
G01X273711Y243147D02*
G03X274952Y243521I-0J2250D01*
G01X273711Y243147D02*
X271711D01*
X270446Y243536D02*
G03X271711Y243147I1265J1861D01*
G01X270446Y243536D02*
G03X270171Y243540I-140J-207D01*
G01X268960Y243186D02*
G03X270171Y243540I-0J2250D01*
G01X268960Y243186D02*
X268300D01*
G03X268050Y242936I0J-250*
G01Y238427*
G03X268300Y238177I250J-0*
G01X269300*
X270560Y237791D02*
G03X269300Y238177I-1260J-1864D01*
G01X270560Y237791D02*
G03X270840I140J207D01*
G01X272100Y238177D02*
G03X270840Y237791I0J-2250D01*
G01X272100Y238177D02*
X274100D01*
X275374Y237781D02*
G03X274100Y238177I-1274J-1854D01*
G01X275374Y237781D02*
G03X275652Y237778I142J206D01*
G01X276880Y238143D02*
G03X275652Y237778I-0J-2250D01*
G01X276880Y238143D02*
X278880D01*
X280127Y237766D02*
G03X278880Y238143I-1247J-1873D01*
G01X280127Y237766D02*
G03X280409Y237769I138J208D01*
G01X281700Y238177D02*
G03X280409Y237769I0J-2250D01*
G01X281700Y238177D02*
X283700D01*
X284948Y237799D02*
G03X283700Y238177I-1248J-1872D01*
G01X284948Y237799D02*
G03X285294Y237869I138J208D01*
G01X285626Y238274D02*
G03X285294Y237869I1874J-1874D01*
G01X285626Y238274D02*
X286826Y239474D01*
X288700Y240250D02*
G03X286826Y239474I0J-2650D01*
G01X288700Y240250D02*
X292825D01*
G03X292944Y240280I0J250*
G01X294172Y240642D02*
G03X292944Y240280I228J-3042D01*
G01X294172Y240642D02*
G03X294353Y240740I-18J249D01*
G01X294885Y241247D02*
G03X294353Y240740I1265J-1860D01*
G01X262750Y232299D02*
Y241891D01*
G03X262500Y242141I-250J0*
G01X247700*
G03X247450Y241891I0J-250*
G01Y231700*
G03X247700Y231450I250J0*
G01X260580*
G03X260717Y231491I0J250*
G01X262507Y232049D02*
G03X260717Y231491I93J-3449D01*
G01X262507Y232049D02*
G03X262750Y232299I-7J250D01*
G01X308470Y192860D02*
G03X308400Y193350I-70J240D01*
G01X306000*
X304126Y194126D02*
G03X306000Y193350I1874J1874D01*
G01X304126Y194126D02*
X301576Y196677D01*
G03X301399Y196750I-177J-177*
G01X263224*
X261350Y197526D02*
G03X263224Y196750I1874J1874D01*
G01X261350Y197526D02*
X260930Y197946D01*
G03X260513Y197839I-176J-177*
G01X260430Y197588D02*
G03X260513Y197839I-3230J1212D01*
G01X260430Y197588D02*
G03Y197412I234J-88D01*
G01Y194988D02*
G03Y197412I-3230J1212D01*
G01Y194988D02*
G03Y194812I234J-88D01*
G01X260409Y192333D02*
G03X260430Y194812I-3209J1267D01*
G01X260409Y192333D02*
G03X260391Y192241I232J-92D01*
G01Y192118*
G03X260848Y191977I250J0*
G01X262706Y192959D02*
G03X260848Y191977I0J-2250D01*
G01X262706Y192959D02*
X271706D01*
X273956Y190709D02*
G03X271706Y192959I-2250J-0D01*
G01X273956Y190709D02*
Y183209D01*
X271706Y180959D02*
G03X273956Y183209I0J2250D01*
G01X271706Y180959D02*
X262706D01*
X260840Y181952D02*
G03X262706Y180959I1866J1257D01*
G01X260840Y181952D02*
G03X260384Y181832I-207J-140D01*
G01X258141Y179764D02*
G03X260384Y181832I0J2250D01*
G01X258141Y179764D02*
X256613D01*
G03X256363Y179514I0J-250*
G01Y177268*
X256062Y176143D02*
G03X256363Y177268I-1949J1125D01*
G01X256062Y176143D02*
G03Y175893I216J-125D01*
G01X256363Y174768D02*
G03X256062Y175893I-2250J-0D01*
G01X256363Y174768D02*
Y172268D01*
X255593Y170572D02*
G03X256363Y172268I-1480J1696D01*
G01X255593Y170572D02*
G03Y170195I164J-188D01*
G01X256364Y168499D02*
G03X255593Y170195I-2250J0D01*
G01X256364Y168499D02*
Y165999D01*
X256063Y164874D02*
G03X256364Y165999I-1949J1125D01*
G01X256063Y164874D02*
G03Y164624I216J-125D01*
G01X256364Y163499D02*
G03X256063Y164624I-2250J0D01*
G01X256364Y163499D02*
Y160999D01*
X254114Y158749D02*
G03X256364Y160999I0J2250D01*
G01X254114Y158749D02*
X252114D01*
X250424Y159514D02*
G03X252114Y158749I1690J1485D01*
G01X250424Y159514D02*
G03X250236Y159599I-188J-165D01*
G01X249614*
G03X249397Y159226I0J-250*
G01X249776Y157792D02*
G03X249397Y159226I-2900J0D01*
G01X249776Y157792D02*
Y152398D01*
X245698Y149749D02*
G03X249776Y152398I1178J2649D01*
G01X245698Y149749D02*
G03X245495I-101J-229D01*
G01X244815Y149542D02*
G03X245495Y149749I-498J2856D01*
G01X244815Y149542D02*
G03X244608Y149296I43J-246D01*
G01Y148400*
G03X244858Y148150I250J0*
G01X252700*
X254950Y145900D02*
G03X252700Y148150I-2250J0D01*
G01X254950Y145900D02*
Y138400D01*
X252700Y136150D02*
G03X254950Y138400I0J2250D01*
G01X252700Y136150D02*
X244858D01*
G03X244608Y135900I0J-250*
G01Y134900*
G03X244858Y134650I250J0*
G01X252700*
X254950Y132400D02*
G03X252700Y134650I-2250J0D01*
G01X254950Y132400D02*
Y124900D01*
X254674Y123820D02*
G03X254950Y124900I-1974J1080D01*
G01X254674Y123820D02*
G03X254893Y123450I219J-120D01*
G01X256307*
G03X256526Y123820I-0J250*
G01X256250Y124900D02*
G03X256526Y123820I2250J0D01*
G01X256250Y124900D02*
Y132400D01*
X258500Y134650D02*
G03X256250Y132400I0J-2250D01*
G01X258500Y134650D02*
X267500D01*
X269750Y132400D02*
G03X267500Y134650I-2250J0D01*
G01X269750Y132400D02*
Y132150D01*
G03X270000Y131900I250J0*
G01X273550*
X275848Y130948D02*
G03X273550Y131900I-2298J-2298D01*
G01X275848Y130948D02*
X276046Y130750D01*
G03X276473Y130927I177J177*
G01Y134767*
G03X276468Y134817I-250J0*
G01X276411Y135385D02*
G03X276468Y134817I2850J0D01*
G01X276411Y135385D02*
Y142276D01*
G03X276204Y142522I-250J-0*
G01X273802Y145379D02*
G03X276204Y142522I2900J-0D01*
G01X273802Y145379D02*
Y150772D01*
X273931Y151626D02*
G03X273802Y150772I2771J-854D01*
G01X273931Y151626D02*
G03X273692Y151950I-239J74D01*
G01X272585*
G03X272407Y151875I0J-250*
G01X270800Y151200D02*
G03X272407Y151875I0J2250D01*
G01X270800Y151200D02*
X268800D01*
X266550Y153450D02*
G03X268800Y151200I2250J0D01*
G01X266550Y153450D02*
Y155950D01*
X266851Y157075D02*
G03X266550Y155950I1949J-1125D01*
G01X266851Y157075D02*
G03Y157325I-216J125D01*
G01X266550Y158450D02*
G03X266851Y157325I2250J0D01*
G01X266550Y158450D02*
Y160950D01*
X268800Y163200D02*
G03X266550Y160950I0J-2250D01*
G01X268800Y163200D02*
X270800D01*
X272490Y162435D02*
G03X270800Y163200I-1690J-1485D01*
G01X272490Y162435D02*
G03X272678Y162350I188J165D01*
G01X273599*
G03X273776Y162423I-0J250*
G01X273936Y162583*
G03X273992Y162849I-177J177*
G01X273802Y163883D02*
G03X273992Y162849I2900J-0D01*
G01X273802Y163883D02*
Y168023D01*
G03X273367Y168191I-250J-0*
G01X271706Y167459D02*
G03X273367Y168191I0J2250D01*
G01X271706Y167459D02*
X262706D01*
X260456Y169709D02*
G03X262706Y167459I2250J-0D01*
G01X260456Y169709D02*
Y177209D01*
X262706Y179459D02*
G03X260456Y177209I0J-2250D01*
G01X262706Y179459D02*
X271706D01*
X273956Y177209D02*
G03X271706Y179459I-2250J-0D01*
G01X273956Y177209D02*
Y171198D01*
G03X274404Y171046I250J0*
G01X276148Y172123D02*
G03X274404Y171046I554J-2847D01*
G01X276148Y172123D02*
G03X276350Y172368I-48J245D01*
G01Y176633*
G03X276255Y176829I-250J0*
G01X275402Y178594D02*
G03X276255Y176829I2250J-0D01*
G01X275402Y178594D02*
Y193161D01*
X277652Y195411D02*
G03X275402Y193161I-0J-2250D01*
G01X277652Y195411D02*
X281982D01*
X284232Y193161D02*
G03X281982Y195411I-2250J-0D01*
G01X284232Y193161D02*
Y178594D01*
X283787Y177249D02*
G03X284232Y178594I-1805J1345D01*
G01X283787Y177249D02*
G03X283987Y176850I200J-149D01*
G01X287458*
G03X287658Y177249I-0J250*
G01X287213Y178594D02*
G03X287658Y177249I2250J-0D01*
G01X287213Y178594D02*
Y193161D01*
X289463Y195411D02*
G03X287213Y193161I-0J-2250D01*
G01X289463Y195411D02*
X293793D01*
X296043Y193161D02*
G03X293793Y195411I-2250J-0D01*
G01X296043Y193161D02*
Y190871D01*
G03X296345Y190626I250J-0*
G01X296813Y190675D02*
G03X296345Y190626I0J-2250D01*
G01X296813Y190675D02*
X298813D01*
X299794Y190450D02*
G03X298813Y190675I-981J-2025D01*
G01X299794Y190450D02*
G03X299903Y190425I109J225D01*
G01X300923*
G03X301032Y190450I0J250*
G01X302013Y190675D02*
G03X301032Y190450I0J-2250D01*
G01X302013Y190675D02*
X304013D01*
X304994Y190450D02*
G03X304013Y190675I-981J-2025D01*
G01X304994Y190450D02*
G03X305103Y190425I109J225D01*
G01X306600*
G03X306850Y190675I-0J250*
G01Y190700*
X308470Y192860D02*
G03X306850Y190700I630J-2160D01*
G01X304633Y205250D02*
G03X304810Y205677I0J250D01*
G01X301243Y209243*
X300350Y211400D02*
G03X301243Y209243I3050J0D01*
G01X300350Y211400D02*
Y233146D01*
G03X300100Y233396I-250J0*
G01X296150*
X294243Y234453D02*
G03X296150Y233396I1907J1193D01*
G01X294243Y234453D02*
G03X294059Y234569I-212J-132D01*
G01X292944Y234920D02*
G03X294059Y234569I1456J2680D01*
G01X292944Y234920D02*
G03X292825Y234950I-119J-220D01*
G01X291000*
G03X290750Y234700I0J-250*
G01Y233427*
X290449Y232302D02*
G03X290750Y233427I-1949J1125D01*
G01X290449Y232302D02*
G03Y232052I216J-125D01*
G01X290750Y230927D02*
G03X290449Y232052I-2250J-0D01*
G01X290750Y230927D02*
Y228427D01*
X288500Y226177D02*
G03X290750Y228427I0J2250D01*
G01X288500Y226177D02*
X286500D01*
X285240Y226562D02*
G03X286500Y226177I1260J1865D01*
G01X285240Y226562D02*
G03X284960I-140J-207D01*
G01X283700Y226177D02*
G03X284960Y226562I0J2250D01*
G01X283700Y226177D02*
X281700D01*
X280453Y226553D02*
G03X281700Y226177I1247J1874D01*
G01X280453Y226553D02*
G03X280171Y226550I-138J-208D01*
G01X278880Y226142D02*
G03X280171Y226550I-0J2251D01*
G01X278880Y226142D02*
X276880D01*
X275606Y226538D02*
G03X276880Y226142I1274J1855D01*
G01X275606Y226538D02*
G03X275328Y226541I-141J-206D01*
G01X274100Y226177D02*
G03X275328Y226541I0J2250D01*
G01X274100Y226177D02*
X272100D01*
X270840Y226562D02*
G03X272100Y226177I1260J1865D01*
G01X270840Y226562D02*
G03X270560I-140J-207D01*
G01X269300Y226177D02*
G03X270560Y226562I0J2250D01*
G01X269300Y226177D02*
X267300D01*
X265832Y226722D02*
G03X267300Y226177I1468J1705D01*
G01X265832Y226722D02*
G03X265461Y226672I-164J-190D01*
G01X260241Y226082D02*
G03X265461Y226672I2359J2518D01*
G01X260241Y226082D02*
G03X260070Y226150I-171J-182D01*
G01X247700*
G03X247450Y225900I0J-250*
G01Y214900*
G03X247700Y214650I250J0*
G01X255175*
X257049Y213874D02*
G03X255175Y214650I-1874J-1874D01*
G01X257049Y213874D02*
X265599Y205323D01*
G03X265776Y205250I177J177*
G01X304633*
X331290Y138780D02*
G03X331306Y139167I-150J200D01*
G01X331094Y139384D02*
G03X331306Y139167I1706J1466D01*
G01X331094Y139384D02*
G03X330734Y139404I-190J-163D01*
G01X329200Y138800D02*
G03X330734Y139404I0J2250D01*
G01X329200Y138800D02*
X327200D01*
X325811Y139280D02*
G03X327200Y138800I1389J1770D01*
G01X325811Y139280D02*
G03X325407Y139083I-154J-197D01*
G01Y135086*
G03X325796Y134878I250J-0*
X331290Y138780I-73434J109216*
G01X313366Y127478D02*
G03X313250Y127950I-116J222D01*
G01X304643*
X301000*
X299126Y128726D02*
G03X301000Y127950I1874J1874D01*
G01X299126Y128726D02*
X297926Y129926D01*
X297150Y131800D02*
G03X297926Y129926I2650J0D01*
G01X297150Y131800D02*
Y146260D01*
G03X297077Y146436I-250J-0*
G01X296976Y146538*
G03X296799Y146611I-177J-177*
G01X296091*
G03X295856Y146276I0J-250*
G01X295990Y145511D02*
G03X295856Y146276I-2250J-0D01*
G01X295990Y145511D02*
Y143011D01*
X295504Y141614D02*
G03X295990Y143011I-1764J1397D01*
G01X295504Y141614D02*
G03X295450Y141459I196J-155D01*
G01Y141298*
G03X295504Y141143I250J-0*
G01X290096D02*
G03X295504I2704J-2143D01*
G01X290096D02*
G03X290150Y141298I-196J155D01*
G01Y141319*
G03X290084Y141488I-250J-0*
G01X289490Y143011D02*
G03X290084Y141488I2250J-0D01*
G01X289490Y143011D02*
Y145511D01*
X289792Y146636D02*
G03X289490Y145511I1948J-1125D01*
G01X289792Y146636D02*
G03Y146886I-217J125D01*
G01X289490Y148011D02*
G03X289792Y146886I2250J-0D01*
G01X289490Y148011D02*
Y150511D01*
X289933Y151851D02*
G03X289490Y150511I1807J-1340D01*
G01X289933Y151851D02*
G03X289732Y152250I-201J149D01*
G01X287279*
G03X287049Y151903I0J-250*
G01X287278Y150772D02*
G03X287049Y151903I-2899J0D01*
G01X287278Y150772D02*
Y145379D01*
X283201Y142729D02*
G03X287278Y145379I1178J2650D01*
G01X283201Y142729D02*
G03X282998I-102J-228D01*
G01X282318Y142522D02*
G03X282998Y142729I-498J2857D01*
G01X282318Y142522D02*
G03X282111Y142276I43J-246D01*
G01Y135941*
G03X282116Y135891I250J-0*
G01X282173Y135323D02*
G03X282116Y135891I-2850J-0D01*
G01X282173Y135323D02*
Y127335D01*
G03X282213Y127200I250J0*
G01X282573Y125979D02*
G03X282213Y127200I-2250J-0D01*
G01X282573Y125979D02*
Y124729D01*
Y124700*
Y123479*
X282271Y122354D02*
G03X282573Y123479I-1948J1125D01*
G01X282271Y122354D02*
G03Y122104I217J-125D01*
G01X282573Y120979D02*
G03X282271Y122104I-2250J-0D01*
G01X282573Y120979D02*
Y118479D01*
X280323Y116229D02*
G03X282573Y118479I-0J2250D01*
G01X280323Y116229D02*
X278323D01*
X277210Y116523D02*
G03X278323Y116229I1113J1956D01*
G01X277210Y116523D02*
G03X276958Y116521I-124J-217D01*
G01X276289Y116254D02*
G03X276958Y116521I-489J2196D01*
G01X276289Y116254D02*
G03X276247Y116240I54J-244D01*
G01X274800Y115950D02*
G03X276247Y116240I0J3750D01*
G01X274800Y115950D02*
X236200D01*
X228500*
X225848Y117048D02*
G03X228500Y115950I2652J2652D01*
G01X225848Y117048D02*
X221348Y121548D01*
X209920Y132977*
G03X209743Y133050I-177J-177*
G01X183285*
X182498Y133133D02*
G03X183285Y133050I787J3667D01*
G01X182498Y133133D02*
G03X182313Y132677I-52J-244D01*
X313366Y127478I70049J111417*
G01X314589Y143394D02*
Y144922D01*
G03X314545Y145062I-250J0*
G01X314105Y148022D02*
G03X314545Y145062I3295J-1022D01*
G01X314105Y148022D02*
G03X313754Y148320I-239J74D01*
G01X312912Y148024D02*
G03X313754Y148320I-712J3376D01*
G01X312912Y148024D02*
G03X312787Y147956I52J-244D01*
G01X312685Y147854*
G03X312611Y147677I176J-177*
G01Y143394*
G03X312818Y143148I250J0*
G01X313497Y142938D02*
G03X312818Y143148I-1177J-2596D01*
G01X313497Y142938D02*
G03X313703I103J227D01*
G01X314382Y143148D02*
G03X313703Y142938I498J-2806D01*
G01X314382Y143148D02*
G03X314589Y143394I-43J246D01*
G01X320707Y179633D02*
G03X320687Y180023I-166J187D01*
G01X319829Y181257D02*
G03X320687Y180023I2171J593D01*
G01X319829Y181257D02*
G03X319439Y181392I-241J-66D01*
G01X318100Y180950D02*
G03X319439Y181392I0J2250D01*
G01X318100Y180950D02*
X309100D01*
X306850Y183200D02*
G03X309100Y180950I2250J0D01*
G01X306850Y183200D02*
Y183675D01*
G03X306600Y183925I-250J0*
G01X306501*
G03X306252Y183650I-0J-250*
G01X306263Y183425D02*
G03X306252Y183650I-2250J0D01*
G01X306263Y183425D02*
Y180925D01*
X304013Y178675D02*
G03X306263Y180925I0J2250D01*
G01X304013Y178675D02*
X302013D01*
X301138Y178852D02*
G03X302013Y178675I875J2073D01*
G01X301138Y178852D02*
G03X300798Y178562I-97J-230D01*
G01X300863Y178025D02*
G03X300798Y178562I-2250J0D01*
G01X300863Y178025D02*
Y175525D01*
X300567Y174409D02*
G03X300863Y175525I-1954J1116D01*
G01X300567Y174409D02*
G03X300960Y174108I217J-124D01*
G01X301901Y175049*
G03X301973Y175197I-176J177*
G01X306721Y177987D02*
G03X301973Y175197I-1321J-3187D01*
G01X306721Y177987D02*
G03X307045Y178116I96J231D01*
G01X309100Y179450D02*
G03X307045Y178116I0J-2250D01*
G01X309100Y179450D02*
X318100D01*
X319255Y179131D02*
G03X318100Y179450I-1155J-1931D01*
G01X319255Y179131D02*
G03X319514Y179132I129J214D01*
G01X320512Y179508D02*
G03X319514Y179132I488J-2808D01*
G01X320512Y179508D02*
G03X320643Y179574I-43J246D01*
G01X320707Y179633D02*
G03X320643Y179574I1493J-1683D01*
G01X354650Y230350D02*
Y234260D01*
G03X354232Y234445I-250J0*
G01X338659Y232958D02*
G03X354232Y234445I6794J11136D01*
G01X338659Y232958D02*
G03X338352Y232568I-130J-214D01*
G01X344181Y226738*
G03X344608Y226915I177J177*
G01Y227850*
X346858Y230100D02*
G03X344608Y227850I0J-2250D01*
G01X346858Y230100D02*
X354400D01*
G03X354650Y230350I-0J250*
G01X351408Y179153D02*
Y181258D01*
G03X351335Y181434I-250J-0*
G01X351099Y181671*
G03X350738Y181663I-177J-177*
G01X349581Y180838D02*
G03X350738Y181663I-1381J3162D01*
G01X349581Y180838D02*
G03X349431Y180609I100J-229D01*
G01Y179153*
G03X349637Y178907I250J0*
G01X350316Y178697D02*
G03X349637Y178907I-1176J-2596D01*
G01X350316Y178697D02*
G03X350523I104J228D01*
G01X351202Y178907D02*
G03X350523Y178697I497J-2806D01*
G01X351202Y178907D02*
G03X351408Y179153I-44J246D01*
G01X349165Y154932D02*
G03X348819Y155292I-184J170D01*
G01X340328Y157963D02*
G03X348819Y155292I5081J1320D01*
G01X340328Y157963D02*
G03X340086Y158150I-242J-63D01*
G01X337300*
G03X337050Y157900I0J-250*
G01Y156850*
X336749Y155725D02*
G03X337050Y156850I-1949J1125D01*
G01X336749Y155725D02*
G03Y155475I216J-125D01*
G01X337050Y154350D02*
G03X336749Y155475I-2250J0D01*
G01X337050Y154350D02*
Y154175D01*
G03X337428Y153960I250J-0*
G01X341904Y148857D02*
G03X337428Y153960I-2704J2143D01*
G01X341904Y148857D02*
G03X341850Y148702I196J-155D01*
G01Y148400*
X341841Y148178D02*
G03X341850Y148400I-2641J222D01*
G01X341841Y148178D02*
G03X342261Y147975I249J-21D01*
X349165Y154932I-89899J96119*
G01X333150Y174751D02*
Y192799D01*
G03X333077Y192976I-250J-0*
G01X332776Y193277*
G03X332599Y193350I-177J-177*
G01X318800*
G03X318730Y192860I0J-250*
G01X320271Y191293D02*
G03X318730Y192860I-2171J-593D01*
G01X320271Y191293D02*
G03X320661Y191158I241J66D01*
G01X322000Y191600D02*
G03X320661Y191158I0J-2250D01*
G01X322000Y191600D02*
X324000D01*
X325710Y190812D02*
G03X324000Y191600I-1710J-1462D01*
G01X325710Y190812D02*
G03X326090I190J163D01*
G01X327800Y191600D02*
G03X326090Y190812I0J-2250D01*
G01X327800Y191600D02*
X329800D01*
X332050Y189350D02*
G03X329800Y191600I-2250J0D01*
G01X332050Y189350D02*
Y186850D01*
X331749Y185725D02*
G03X332050Y186850I-1949J1125D01*
G01X331749Y185725D02*
G03Y185475I216J-125D01*
G01X332050Y184350D02*
G03X331749Y185475I-2250J0D01*
G01X332050Y184350D02*
Y183100D01*
Y181850*
Y177950*
Y176700*
Y175450*
X331749Y174325D02*
G03X332050Y175450I-1949J1125D01*
G01X331749Y174325D02*
G03Y174075I216J-125D01*
G01X331864Y173845D02*
G03X331749Y174075I-2064J-895D01*
G01X331864Y173845D02*
G03X332270Y173768I230J100D01*
G01X333077Y174574*
G03X333150Y174751I-177J177*
G01X288550Y278300D02*
Y278714D01*
G03X288300Y278964I-250J0*
G01X280458*
X278208Y281215D02*
G03X280458Y278964I2250J-0D01*
G01X278208Y281215D02*
Y285100D01*
G03X277958Y285350I-250J-0*
G01X263420*
G03X263283Y285309I-0J-250*
G01X259517D02*
G03X263283I1883J2891D01*
G01X259517D02*
G03X259380Y285350I-137J-209D01*
G01X251801*
G03X251624Y285277I0J-250*
G01X246523Y280176*
G03X246450Y279999I177J-177*
G01Y278300*
G03X246700Y278050I250J0*
G01X288300*
G03X288550Y278300I-0J250*
G01X236923Y211632D02*
G03X237185Y211983I34J248D01*
G01X236950Y213075D02*
G03X237185Y211983I2650J-0D01*
G01X236950Y213075D02*
Y225642D01*
G03X236877Y225819I-250J0*
G01X236376Y226320*
G03X236199Y226393I-177J-177*
G01X235802*
G03X235724Y226381I-0J-250*
G01X234853Y226242D02*
G03X235724Y226381I0J2801D01*
G01X234853Y226242D02*
X228886D01*
X227617Y226546D02*
G03X228886Y226242I1269J2497D01*
G01X227617Y226546D02*
G03X227281Y226210I-113J-223D01*
G01X227585Y224941D02*
G03X227281Y226210I-2801J0D01*
G01X227585Y224941D02*
Y218974D01*
X223880Y216322D02*
G03X227585Y218974I904J2652D01*
G01X223880Y216322D02*
G03X223718I-81J-236D01*
G01X223010Y216179D02*
G03X223718Y216322I-195J2795D01*
G01X223010Y216179D02*
G03X222782Y215881I17J-249D01*
G01X217946Y212071D02*
G03X222782Y215881I1454J3129D01*
G01X217946Y212071D02*
G03X217591Y211845I-105J-226D01*
G01Y209972*
G03X217664Y209795I250J0*
G01X218536Y208923*
G03X218713Y208850I177J177*
G01X225854*
X227728Y208074D02*
G03X225854Y208850I-1874J-1874D01*
G01X227728Y208074D02*
X230627Y205175D01*
G03X231049Y205401I177J177*
G01X236923Y211632D02*
G03X231049Y205401I-726J-5199D01*
G01X239550Y262375D02*
Y277197D01*
G03X239123Y277374I-250J0*
G01X229323Y267574*
G03X229250Y267398I177J-176*
G01Y261623*
G03X229500Y261373I250J-0*
G01X234603*
G03X234792Y261459I0J250*
G01X239172Y262160D02*
G03X234792Y261459I-1772J-2960D01*
G01X239172Y262160D02*
G03X239550Y262375I128J215D01*
G01X188700Y188286D02*
G03Y188455I-236J85D01*
G01X188567Y189217D02*
G03X188700Y188455I2250J0D01*
G01X188567Y189217D02*
Y189787D01*
G03X188085Y189882I-250J0*
G01X187367Y188945D02*
G03X188085Y189882I-1364J1789D01*
G01X187367Y188945D02*
G03X187376Y188541I152J-199D01*
G01X188109Y187694D02*
G03X187376Y188541I-2015J-1002D01*
G01X188109Y187694D02*
G03X188581Y187777I223J111D01*
G01X188700Y188286D02*
G03X188581Y187777I2117J-762D01*
G01X202188Y205101D02*
Y213490D01*
G03X202115Y213667I-250J-0*
G01X201256Y214526*
X200498Y216091D02*
G03X201256Y214526I2632J309D01*
G01X200498Y216091D02*
G03X200324Y216301I-249J-29D01*
G01X200258Y216322D02*
G03X200324Y216301I904J2652D01*
G01X200258Y216322D02*
G03X200096I-81J-236D01*
G01X198289D02*
G03X200096I904J2652D01*
G01X198289D02*
G03X198128I-80J-237D01*
G01X196321D02*
G03X198128I904J2652D01*
G01X196321D02*
G03X196159I-81J-236D01*
G01X192454Y218974D02*
G03X196159Y216322I2802J-0D01*
G01X192454Y218974D02*
Y224941D01*
X192758Y226210D02*
G03X192454Y224941I2498J-1269D01*
G01X192758Y226210D02*
G03X192422Y226546I-223J113D01*
G01X191153Y226242D02*
G03X192422Y226546I0J2801D01*
G01X191153Y226242D02*
X185186D01*
X184740Y226278D02*
G03X185186Y226242I446J2765D01*
G01X184740Y226278D02*
G03X184450Y226031I-40J-247D01*
G01Y222288*
G03X184720Y222039I250J-0*
G01X188264Y217481D02*
G03X184720Y222039I-3264J1119D01*
G01X188264Y217481D02*
G03Y217319I236J-81D01*
G01Y215081D02*
G03Y217319I-3264J1119D01*
G01Y215081D02*
G03Y214919I236J-81D01*
G01X188077Y212240D02*
G03X188264Y214919I-3077J1560D01*
G01X188077Y212240D02*
G03X188050Y212127I223J-113D01*
G01Y205567*
G03X188123Y205390I250J-0*
G01X188418Y205095*
G03X188659Y205030I177J177*
G01X189238Y205106D02*
G03X188659Y205030I0J-2250D01*
G01X189238Y205106D02*
X191238D01*
X192498Y204720D02*
G03X191238Y205106I-1260J-1864D01*
G01X192498Y204720D02*
G03X192778I140J207D01*
G01X194038Y205106D02*
G03X192778Y204720I0J-2250D01*
G01X194038Y205106D02*
X196038D01*
X197298Y204720D02*
G03X196038Y205106I-1260J-1864D01*
G01X197298Y204720D02*
G03X197578I140J207D01*
G01X198838Y205106D02*
G03X197578Y204720I0J-2250D01*
G01X198838Y205106D02*
X200838D01*
X201828Y204876D02*
G03X200838Y205106I-990J-2020D01*
G01X201828Y204876D02*
G03X202188Y205101I110J225D01*
G01X226052Y227439D02*
G03X226388Y227775I114J222D01*
G01X226235Y229947D02*
G03X226388Y227775I2651J-904D01*
G01X226235Y229947D02*
G03Y230109I-237J81D01*
G01X226234Y231916D02*
G03X226235Y230109I2652J-904D01*
G01X226234Y231916D02*
G03Y232077I-236J80D01*
G01X226235Y233884D02*
G03X226234Y232077I2651J-904D01*
G01X226235Y233884D02*
G03Y234046I-237J81D01*
G01X226234Y235853D02*
G03X226235Y234046I2652J-904D01*
G01X226234Y235853D02*
G03Y236014I-236J80D01*
G01X226235Y237821D02*
G03X226234Y236014I2651J-904D01*
G01X226235Y237821D02*
G03Y237983I-237J81D01*
G01X226234Y239790D02*
G03X226235Y237983I2652J-904D01*
G01X226234Y239790D02*
G03Y239951I-236J80D01*
G01X226235Y241758D02*
G03X226234Y239951I2651J-904D01*
G01X226235Y241758D02*
G03Y241920I-237J81D01*
G01X226234Y243727D02*
G03X226235Y241920I2652J-904D01*
G01X226234Y243727D02*
G03Y243888I-236J80D01*
G01X226235Y245695D02*
G03X226234Y243888I2651J-904D01*
G01X226235Y245695D02*
G03Y245857I-237J81D01*
G01X226234Y247664D02*
G03X226235Y245857I2652J-904D01*
G01X226234Y247664D02*
G03Y247825I-236J80D01*
G01X226235Y249632D02*
G03X226234Y247825I2651J-904D01*
G01X226235Y249632D02*
G03Y249794I-237J81D01*
G01X226122Y250239D02*
G03X226235Y249794I2764J458D01*
G01X226122Y250239D02*
G03X226007Y250411I-246J-41D01*
G01X225526Y250792D02*
G03X226007Y250411I1874J1873D01*
G01X225526Y250792D02*
X224726Y251592D01*
X223950Y253465D02*
G03X224726Y251592I2650J0D01*
G01X223950Y253465D02*
Y259754D01*
G03X223627Y259993I-250J-0*
G01X221911Y260022D02*
G03X223627Y259993I904J2652D01*
G01X221911Y260022D02*
G03X221750I-80J-237D01*
G01X219943D02*
G03X221750I904J2652D01*
G01X219943D02*
G03X219781I-81J-236D01*
G01X217974D02*
G03X219781I904J2652D01*
G01X217974D02*
G03X217813I-80J-237D01*
G01X216006D02*
G03X217813I904J2652D01*
G01X216006D02*
G03X215844I-81J-236D01*
G01X214037D02*
G03X215844I904J2652D01*
G01X214037D02*
G03X213876I-80J-237D01*
G01X212069D02*
G03X213876I904J2652D01*
G01X212069D02*
G03X211907I-81J-236D01*
G01X210100D02*
G03X211907I904J2652D01*
G01X210100D02*
G03X209939I-80J-237D01*
G01X208132D02*
G03X209939I904J2652D01*
G01X208132D02*
G03X207970I-81J-236D01*
G01X206163D02*
G03X207970I904J2652D01*
G01X206163D02*
G03X206002I-80J-237D01*
G01X204195D02*
G03X206002I904J2652D01*
G01X204195D02*
G03X204033I-81J-236D01*
G01X202226D02*
G03X204033I904J2652D01*
G01X202226D02*
G03X202065I-80J-237D01*
G01X201476Y259890D02*
G03X202065Y260022I-314J2784D01*
G01X201476Y259890D02*
G03X201305Y259793I28J-248D01*
G01X201066Y259519D02*
G03X201305Y259793I-1873J1874D01*
G01X201066Y259519D02*
X200474Y258926D01*
X198600Y258150D02*
G03X200474Y258926I0J2650D01*
G01X198600Y258150D02*
X194130D01*
G03X193886Y257955I-0J-250*
G01X193805Y257668D02*
G03X193886Y257955I-2652J903D01*
G01X193805Y257668D02*
G03Y257506I236J-81D01*
G01Y255699D02*
G03Y257506I-2652J903D01*
G01Y255699D02*
G03Y255538I237J-81D01*
G01Y253731D02*
G03Y255538I-2652J903D01*
G01Y253731D02*
G03Y253569I236J-81D01*
G01Y251762D02*
G03Y253569I-2652J903D01*
G01Y251762D02*
G03Y251601I237J-81D01*
G01Y249794D02*
G03Y251601I-2652J903D01*
G01Y249794D02*
G03Y249632I236J-81D01*
G01Y247825D02*
G03Y249632I-2652J903D01*
G01Y247825D02*
G03Y247664I237J-81D01*
G01Y245857D02*
G03Y247664I-2652J903D01*
G01Y245857D02*
G03Y245695I236J-81D01*
G01Y243888D02*
G03Y245695I-2652J903D01*
G01Y243888D02*
G03Y243727I237J-81D01*
G01Y241920D02*
G03Y243727I-2652J903D01*
G01Y241920D02*
G03Y241758I236J-81D01*
G01Y239951D02*
G03Y241758I-2652J903D01*
G01Y239951D02*
G03Y239790I237J-81D01*
G01Y237983D02*
G03Y239790I-2652J903D01*
G01Y237983D02*
G03Y237821I236J-81D01*
G01Y236014D02*
G03Y237821I-2652J903D01*
G01Y236014D02*
G03Y235853I237J-81D01*
G01Y234046D02*
G03Y235853I-2652J903D01*
G01Y234046D02*
G03Y233884I236J-81D01*
G01Y232077D02*
G03Y233884I-2652J903D01*
G01Y232077D02*
G03Y231916I237J-81D01*
G01Y230109D02*
G03Y231916I-2652J903D01*
G01Y230109D02*
G03Y229947I236J-81D01*
G01X193651Y227775D02*
G03X193805Y229947I-2498J1268D01*
G01X193651Y227775D02*
G03X193987Y227439I223J-114D01*
G01X196159Y227592D02*
G03X193987Y227439I-903J-2651D01*
G01X196159Y227592D02*
G03X196321I81J237D01*
G01X198128Y227593D02*
G03X196321Y227592I-903J-2652D01*
G01X198128Y227593D02*
G03X198289I81J236D01*
G01X200096Y227592D02*
G03X198289Y227593I-903J-2651D01*
G01X200096Y227592D02*
G03X200258I81J237D01*
G01X202065Y227593D02*
G03X200258Y227592I-903J-2652D01*
G01X202065Y227593D02*
G03X202226I81J236D01*
G01X204033Y227592D02*
G03X202226Y227593I-903J-2651D01*
G01X204033Y227592D02*
G03X204195I81J237D01*
G01X206002Y227593D02*
G03X204195Y227592I-903J-2652D01*
G01X206002Y227593D02*
G03X206163I81J236D01*
G01X207970Y227592D02*
G03X206163Y227593I-903J-2651D01*
G01X207970Y227592D02*
G03X208132I81J237D01*
G01X209939Y227593D02*
G03X208132Y227592I-903J-2652D01*
G01X209939Y227593D02*
G03X210100I81J236D01*
G01X211907Y227592D02*
G03X210100Y227593I-903J-2651D01*
G01X211907Y227592D02*
G03X212069I81J237D01*
G01X213876Y227593D02*
G03X212069Y227592I-903J-2652D01*
G01X213876Y227593D02*
G03X214037I81J236D01*
G01X215844Y227592D02*
G03X214037Y227593I-903J-2651D01*
G01X215844Y227592D02*
G03X216006I81J237D01*
G01X217813Y227593D02*
G03X216006Y227592I-903J-2652D01*
G01X217813Y227593D02*
G03X217974I81J236D01*
G01X219781Y227592D02*
G03X217974Y227593I-903J-2651D01*
G01X219781Y227592D02*
G03X219943I81J237D01*
G01X221750Y227593D02*
G03X219943Y227592I-903J-2652D01*
G01X221750Y227593D02*
G03X221911I81J236D01*
G01X223718Y227592D02*
G03X221911Y227593I-903J-2651D01*
G01X223718Y227592D02*
G03X223880I81J237D01*
G01X226052Y227439D02*
G03X223880Y227592I-1268J-2498D01*
G01X218950Y278538D02*
G03X218773Y278964I-177J176D01*
G01X215497*
X215466Y278965D02*
G03X215497Y278964I31J2250D01*
G01X215466Y278965D02*
G03X215248Y278587I-4J-250D01*
G01X215623Y277227D02*
G03X215248Y278587I-2650J0D01*
G01X215623Y277227D02*
Y275814D01*
G03X216049Y275637I250J-0*
G01X218950Y278538*
X210323Y271547D02*
Y276026D01*
G03X210249Y276203I-250J0*
G01X209976Y276477*
G03X209799Y276550I-177J-177*
G01X183862*
X181988Y277326D02*
G03X183862Y276550I1874J1874D01*
G01X181988Y277326D02*
X180788Y278526D01*
X180012Y280400D02*
G03X180788Y278526I2650J0D01*
G01X180012Y280400D02*
Y283744D01*
G03X179952Y283907I-250J0*
G01X179412Y285369D02*
G03X179952Y283907I2250J0D01*
G01X179412Y285369D02*
Y287869D01*
X179714Y288994D02*
G03X179412Y287869I1948J-1125D01*
G01X179714Y288994D02*
G03Y289244I-217J125D01*
G01X179412Y290369D02*
G03X179714Y289244I2250J0D01*
G01X179412Y290369D02*
Y292869D01*
X180322Y294676D02*
G03X179412Y292869I1340J-1807D01*
G01X180322Y294676D02*
G03X180350Y295054I-149J201D01*
G01X178902Y296502*
X177950Y298800D02*
G03X178902Y296502I3250J0D01*
G01X177950Y298800D02*
Y310233D01*
X177961Y310497D02*
G03X177950Y310233I3239J-264D01*
G01X177961Y310497D02*
G03X177535Y310694I-249J20D01*
G01X177123Y310283*
G03X177050Y310106I177J-177*
G01Y264201*
G03X177123Y264024I250J0*
G01X177624Y263523*
G03X177801Y263450I177J177*
G01X192204*
G03X192454Y263700I0J250*
G01Y268641*
X192730Y269853D02*
G03X192454Y268641I2526J-1212D01*
G01X192730Y269853D02*
G03X192755Y269962I-225J109D01*
G01Y270317*
G03X192728Y270431I-250J-0*
G01X199237Y271700D02*
G03X192728Y270431I-3437J300D01*
G01X199237Y271700D02*
G03X199462Y271429I249J-22D01*
G01X200096Y271292D02*
G03X199462Y271429I-903J-2651D01*
G01X200096Y271292D02*
G03X200258I81J237D01*
G01X202065Y271293D02*
G03X200258Y271292I-903J-2652D01*
G01X202065Y271293D02*
G03X202226I81J236D01*
G01X204033Y271292D02*
G03X202226Y271293I-903J-2651D01*
G01X204033Y271292D02*
G03X204195I81J237D01*
G01X206002Y271293D02*
G03X204195Y271292I-903J-2652D01*
G01X206002Y271293D02*
G03X206163I81J236D01*
G01X207970Y271292D02*
G03X206163Y271293I-903J-2651D01*
G01X207970Y271292D02*
G03X208132I81J237D01*
G01X209939Y271293D02*
G03X208132Y271292I-903J-2652D01*
G01X209939Y271293D02*
G03X210100I81J236D01*
G01X210149Y271309D02*
G03X210100Y271293I855J-2668D01*
G01X210149Y271309D02*
G03X210323Y271547I-76J238D01*
G01X203954Y340686D02*
G03X203704Y340950I-250J14D01*
G01X163355*
G03X163185Y340884I-0J-250*
X121274Y232403I89177J-96790*
X121773Y232425I249J22*
G01Y234215*
X121888Y234923D02*
G03X121773Y234215I2135J-708D01*
G01X121888Y234923D02*
G03Y235081I-237J79D01*
G01X121773Y235789D02*
G03X121888Y235081I2250J0D01*
G01X121773Y235789D02*
Y238545D01*
X121936Y239386D02*
G03X121773Y238545I2087J-841D01*
G01X121936Y239386D02*
G03X121954Y239479I-232J93D01*
G01X121954D02*
Y252804D01*
X122906Y255103D02*
G03X121954Y252804I2298J-2299D01*
G01X122906Y255103D02*
X137677Y269873D01*
G03X137750Y270050I-177J177*
G01Y285800*
Y305400*
X138702Y307698D02*
G03X137750Y305400I2298J-2298D01*
G01X138702Y307698D02*
X164902Y333898D01*
X167200Y334850D02*
G03X164902Y333898I0J-3250D01*
G01X167200Y334850D02*
X188600D01*
X190898Y333898D02*
G03X188600Y334850I-2298J-2298D01*
G01X190898Y333898D02*
X192025Y332771D01*
X192977Y330473D02*
G03X192025Y332771I-3250J-0D01*
G01X192977Y330473D02*
Y323003D01*
G03X193068Y322810I250J-0*
G01X193485Y322426D02*
G03X193068Y322810I-3758J-3666D01*
G01X193485Y322426D02*
G03X193843I179J175D01*
G01Y315094D02*
G03Y322426I3758J3666D01*
G01Y315094D02*
G03X193485I-179J-174D01*
G01X189226Y313534D02*
G03X193485Y315094I501J5226D01*
G01X189226Y313534D02*
G03X189025Y313462I-24J-249D01*
G01X184523Y308960*
G03X184450Y308783I177J-177*
G01Y304507*
G03X184910Y304371I250J-0*
G01X186800Y305400D02*
G03X184910Y304371I0J-2250D01*
G01X186800Y305400D02*
X188800D01*
X190150Y304950D02*
G03X188800Y305400I-1350J-1800D01*
G01X190150Y304950D02*
G03X190450I150J200D01*
G01X191800Y305400D02*
G03X190450Y304950I0J-2250D01*
G01X191800Y305400D02*
X193800D01*
X196050Y303150D02*
G03X193800Y305400I-2250J0D01*
G01X196050Y303150D02*
Y300650D01*
X195749Y299525D02*
G03X196050Y300650I-1949J1125D01*
G01X195749Y299525D02*
G03Y299275I216J-125D01*
G01X196050Y298150D02*
G03X195749Y299275I-2250J0D01*
G01X196050Y298150D02*
Y295650D01*
X195985Y295113D02*
G03X196050Y295650I-2185J537D01*
G01X195985Y295113D02*
G03X196228Y294804I243J-59D01*
G01X196359*
G03X196548Y294889I0J250*
G01X198241Y295657D02*
G03X196548Y294889I-0J-2250D01*
G01X198241Y295657D02*
X201841D01*
X203514Y294911D02*
G03X201841Y295657I-1673J-1504D01*
G01X203514Y294911D02*
G03X203950Y295079I186J168D01*
G01Y340550*
X203954Y340686D02*
G03X203950Y340550I2496J-136D01*
G01X154564Y271526D02*
G03X154754Y271939I0J250D01*
G01X154207Y273409D02*
G03X154754Y271939I2250J0D01*
G01X154207Y273409D02*
Y274591D01*
X154235Y274945D02*
G03X154207Y274591I2222J-354D01*
G01X154235Y274945D02*
G03Y275024I-247J39D01*
G01X154207Y275378D02*
G03X154235Y275024I2250J-0D01*
G01X154207Y275378D02*
Y276559D01*
X154235Y276913D02*
G03X154207Y276559I2222J-354D01*
G01X154235Y276913D02*
G03Y276992I-247J40D01*
G01X154207Y277346D02*
G03X154235Y276992I2250J0D01*
G01X154207Y277346D02*
Y278528D01*
X154235Y278882D02*
G03X154207Y278528I2222J-354D01*
G01X154235Y278882D02*
G03Y278961I-247J39D01*
G01X154207Y279315D02*
G03X154235Y278961I2250J-0D01*
G01X154207Y279315D02*
Y280496D01*
X154235Y280850D02*
G03X154207Y280496I2222J-354D01*
G01X154235Y280850D02*
G03Y280929I-247J40D01*
G01X154207Y281283D02*
G03X154235Y280929I2250J0D01*
G01X154207Y281283D02*
Y282441D01*
G03X153889Y282682I-250J0*
G01X153011Y282561D02*
G03X153889Y282682I0J3250D01*
G01X153011Y282561D02*
X148278D01*
G03X148258Y282560I-0J-250*
G01X148000Y282550D02*
G03X148258Y282560I0J3250D01*
G01X148000Y282550D02*
X144500D01*
G03X144250Y282300I0J-250*
G01Y271717*
G03X144554Y271473I250J-0*
G01X145039Y271526D02*
G03X144554Y271473I0J-2250D01*
G01X145039Y271526D02*
X154564D01*
X154754Y289841D02*
G03X154564Y290254I-190J163D01*
G01X145039*
X144554Y290307D02*
G03X145039Y290254I485J2197D01*
G01X144554Y290307D02*
G03X144250Y290063I-54J-244D01*
G01Y289300*
G03X144500Y289050I250J0*
G01X147733*
G03X147753Y289051I0J250*
G01X148011Y289061D02*
G03X147753Y289051I0J-3250D01*
G01X148011Y289061D02*
X153011D01*
X154003Y288906D02*
G03X153011Y289061I-992J-3095D01*
G01X154003Y288906D02*
G03X154317Y289067I76J238D01*
G01X154754Y289841D02*
G03X154317Y289067I1703J-1471D01*
G01X187043Y198348D02*
G03X186859Y198646I-244J55D01*
G01X185437Y199449D02*
G03X186859Y198646I2157J2157D01*
G01X185437Y199449D02*
X184877Y200010D01*
G03X184450Y199833I-177J-177*
G01Y195234*
G03X184700Y194984I250J0*
G01X186003*
X186675Y194882D02*
G03X186003Y194984I-672J-2148D01*
G01X186675Y194882D02*
G03X186998Y195144I75J238D01*
G01X186988Y195356D02*
G03X186998Y195144I2250J-0D01*
G01X186988Y195356D02*
Y197856D01*
X187043Y198348D02*
G03X186988Y197856I2195J-492D01*
G01X174350Y249066D02*
Y252399D01*
G03X174277Y252576I-250J-0*
G01X167726Y259126*
X166950Y261000D02*
G03X167726Y259126I2650J0D01*
G01X166950Y261000D02*
Y270999D01*
G03X166877Y271176I-250J-0*
G01X166776Y271277*
G03X166599Y271350I-177J-177*
G01X164501*
G03X164405Y271331I-0J-250*
G01X163543Y271159D02*
G03X164405Y271331I0J2250D01*
G01X163543Y271159D02*
X158743D01*
G03X158553Y270746I-0J-250*
G01X159100Y269276D02*
G03X158553Y270746I-2250J-0D01*
G01X159100Y269276D02*
Y261402D01*
X156850Y259152D02*
G03X159100Y261402I0J2250D01*
G01X156850Y259152D02*
X145039D01*
X142789Y261402D02*
G03X145039Y259152I2250J-0D01*
G01X142789Y261402D02*
Y265190D01*
G03X142363Y265366I-250J-0*
G01X128528Y251531*
G03X128454Y251355I176J-176*
G01Y241045*
G03X128704Y240795I250J0*
G01X130716*
X132146Y240283D02*
G03X130716Y240795I-1430J-1738D01*
G01X132146Y240283D02*
G03X132401Y240245I159J193D01*
G01X133265Y240417D02*
G03X132401Y240245I0J-2250D01*
G01X133265Y240417D02*
X135765D01*
X136890Y240116D02*
G03X135765Y240417I-1125J-1949D01*
G01X136890Y240116D02*
G03X137140I125J216D01*
G01X138265Y240417D02*
G03X137140Y240116I0J-2250D01*
G01X138265Y240417D02*
X140765D01*
X143015Y238167D02*
G03X140765Y240417I-2250J0D01*
G01X143015Y238167D02*
Y236167D01*
X142756Y235119D02*
G03X143015Y236167I-1991J1048D01*
G01X142756Y235119D02*
G03Y234885I221J-117D01*
G01X143015Y233837D02*
G03X142756Y234885I-2250J-0D01*
G01X143015Y233837D02*
Y233700D01*
G03X143265Y233450I250J0*
G01X150982*
G03X151138Y233895I-0J250*
G01X171738Y247936D02*
G03X151138Y233895I-12466J-3842D01*
G01X171738Y247936D02*
G03X172155Y247834I239J74D01*
G01X174134Y248818D02*
G03X172155Y247834I466J-3418D01*
G01X174134Y248818D02*
G03X174350Y249066I-34J248D01*
G01X186477Y323003D02*
Y328100D01*
G03X186227Y328350I-250J-0*
G01X168650*
G03X168473Y328277I-0J-250*
G01X144323Y304127*
G03X144250Y303950I177J-177*
G01Y302819*
G03X144554Y302575I250J0*
G01X145039Y302628D02*
G03X144554Y302575I0J-2250D01*
G01X145039Y302628D02*
X156850D01*
X159100Y300378D02*
G03X156850Y302628I-2250J-0D01*
G01X159100Y300378D02*
Y292504D01*
X158553Y291033D02*
G03X159100Y292504I-1703J1471D01*
G01X158553Y291033D02*
G03X158743Y290620I190J-163D01*
G01X163543*
X163684Y290616D02*
G03X163543Y290620I-141J-2246D01*
G01X163684Y290616D02*
G03X163950Y290865I16J249D01*
G01Y293302*
G03X163896Y293457I-250J0*
G01X169677Y297160D02*
G03X163896Y293457I-3077J-1560D01*
G01X169677Y297160D02*
G03X170150Y297273I223J113D01*
G01Y315071*
G03X170085Y315239I-250J0*
G01X177737Y322426D02*
G03X170085Y315239I-3758J-3666D01*
G01X177737Y322426D02*
G03X178095I179J175D01*
G01X185611D02*
G03X178095I-3758J-3666D01*
G01X185611D02*
G03X185969I179J175D01*
G01X186386Y322810D02*
G03X185969Y322426I3341J-4050D01*
G01X186386Y322810D02*
G03X186477Y323003I-159J193D01*
G01X376667Y227850D02*
Y215350D01*
X374417Y213100D02*
G03X376667Y215350I0J2250D01*
G01X374417Y213100D02*
X365756D01*
X363506Y215350D02*
G03X365756Y213100I2250J0D01*
G01X363506Y215350D02*
Y227850D01*
X365756Y230100D02*
G03X363506Y227850I-0J-2250D01*
G01X365756Y230100D02*
X374417D01*
X376667Y227850D02*
G03X374417Y230100I-2250J0D01*
G01X339250Y309600D02*
G03X339250I-5250J0D01*
G01X291377Y264383D02*
G03X296904Y264543I2823J-1983D01*
G01X291377Y264383D02*
G03X291349Y264703I-205J144D01*
G01X290976Y265077*
G03X290799Y265150I-177J-177*
G01X271730*
G03X271559Y265082I-0J-250*
G01X271083Y270491D02*
G03X271559Y265082I-1883J-2891D01*
G01X271083Y270491D02*
G03X271220Y270450I137J209D01*
G01X292000*
X293874Y269674D02*
G03X292000Y270450I-1874J-1874D01*
G01X293874Y269674D02*
X296074Y267474D01*
X296850Y265600D02*
G03X296074Y267474I-2650J0D01*
G01X296850Y265600D02*
Y264698D01*
G03X296904Y264543I250J-0*
G01X269750Y145900D02*
Y138400D01*
X267500Y136150D02*
G03X269750Y138400I0J2250D01*
G01X267500Y136150D02*
X258500D01*
X256250Y138400D02*
G03X258500Y136150I2250J0D01*
G01X256250Y138400D02*
Y145900D01*
X258500Y148150D02*
G03X256250Y145900I0J-2250D01*
G01X258500Y148150D02*
X267500D01*
X269750Y145900D02*
G03X267500Y148150I-2250J0D01*
G01X163650Y309400D02*
G03X163650I-5250J0D01*
G01X319133Y192699D02*
X333150D01*
X319732Y192249D02*
X333150D01*
X320064Y191799D02*
X333150D01*
X330833Y191349D02*
X333150D01*
X331432Y190899D02*
X333150D01*
X331764Y190449D02*
X333150D01*
X331954Y189999D02*
X333150D01*
X332041Y189549D02*
X333150D01*
X332050Y189099D02*
X333150D01*
X332050Y188649D02*
X333150D01*
X332050Y188199D02*
X333150D01*
X332050Y187749D02*
X333150D01*
X332050Y187299D02*
X333150D01*
X332050Y186849D02*
X333150D01*
X332004Y186399D02*
X333150D01*
X331862Y185949D02*
X333150D01*
X331737Y185499D02*
X333150D01*
X331939Y185049D02*
X333150D01*
X332036Y184599D02*
X333150D01*
X332050Y184149D02*
X333150D01*
X332050Y183699D02*
X333150D01*
X332050Y183249D02*
X333150D01*
X332050Y182799D02*
X333150D01*
X332050Y182349D02*
X333150D01*
X332050Y181899D02*
X333150D01*
X332050Y181449D02*
X333150D01*
X332050Y180999D02*
X333150D01*
X332050Y180549D02*
X333150D01*
X332050Y180099D02*
X333150D01*
X332050Y179649D02*
X333150D01*
X332050Y179199D02*
X333150D01*
X332050Y178749D02*
X333150D01*
X332050Y178299D02*
X333150D01*
X332050Y177849D02*
X333150D01*
X332050Y177399D02*
X333150D01*
X332050Y176949D02*
X333150D01*
X332050Y176499D02*
X333150D01*
X332050Y176049D02*
X333150D01*
X332050Y175599D02*
X333150D01*
X332030Y175149D02*
X333150D01*
X331921Y174699D02*
X333144D01*
X318555Y193149D02*
X332904D01*
X331720Y174249D02*
X332751D01*
X331891Y173799D02*
X332301D01*
X325033Y191349D02*
X326767D01*
X325632Y190899D02*
X326168D01*
X320254Y191349D02*
X320967D01*
X348296Y154899D02*
X349134D01*
X348942Y155349D02*
X349020D01*
X347455Y154449D02*
X348718D01*
X340906Y153999D02*
X348297D01*
X341525Y153549D02*
X347872D01*
X341938Y153099D02*
X347444D01*
X342231Y152649D02*
X347011D01*
X342435Y152199D02*
X346574D01*
X342568Y151749D02*
X346133D01*
X342637Y151299D02*
X345688D01*
X342647Y150849D02*
X345238D01*
X342597Y150399D02*
X344784D01*
X342486Y149949D02*
X344326D01*
X342306Y149499D02*
X343863D01*
X342045Y149049D02*
X343395D01*
X339296Y154449D02*
X343362D01*
X341850Y148599D02*
X342923D01*
X336982Y154899D02*
X342521D01*
X341840Y148149D02*
X342446D01*
X336816Y155349D02*
X341933D01*
X336789Y155799D02*
X341482D01*
X336968Y156249D02*
X341125D01*
X337045Y156699D02*
X340839D01*
X337050Y157149D02*
X340612D01*
X337050Y157599D02*
X340436D01*
X337099Y158049D02*
X340287D01*
X337048Y154449D02*
X339104D01*
X337123Y153999D02*
X337494D01*
X349901Y180999D02*
X351408D01*
X349431Y180549D02*
X351408D01*
X349431Y180099D02*
X351408D01*
X349431Y179649D02*
X351408D01*
X349431Y179199D02*
X351408D01*
X350522Y181449D02*
X351321D01*
X350195Y178749D02*
X350645D01*
X353835Y234099D02*
X354650D01*
X353267Y233649D02*
X354650D01*
X352626Y233199D02*
X354650D01*
X351891Y232749D02*
X354650D01*
X351024Y232299D02*
X354650D01*
X349949Y231849D02*
X354650D01*
X348452Y231399D02*
X354650D01*
X339971Y230949D02*
X354650D01*
X340421Y230499D02*
X354650D01*
X340871Y230049D02*
X346380D01*
X341321Y229599D02*
X345442D01*
X341771Y229149D02*
X345021D01*
X342221Y228699D02*
X344774D01*
X342671Y228249D02*
X344644D01*
X343121Y227799D02*
X344608D01*
X343571Y227349D02*
X344608D01*
X344021Y226899D02*
X344608D01*
X339521Y231399D02*
X342453D01*
X339071Y231849D02*
X340956D01*
X338621Y232299D02*
X339882D01*
X338279Y232749D02*
X339014D01*
X305866Y179649D02*
X320723D01*
X306106Y180099D02*
X320587D01*
X306231Y180549D02*
X320164D01*
X318566Y180999D02*
X319917D01*
X319133Y179199D02*
X319629D01*
X306263Y180999D02*
X308634D01*
X305456Y179199D02*
X308067D01*
X306263Y181449D02*
X307687D01*
X304583Y178749D02*
X307468D01*
X306263Y181899D02*
X307264D01*
X300846Y178299D02*
X307136D01*
X306263Y182349D02*
X307017D01*
X306263Y182799D02*
X306886D01*
X306263Y183249D02*
X306850D01*
X306252Y183699D02*
X306849D01*
X300863Y177849D02*
X303785D01*
X300863Y177399D02*
X303131D01*
X300863Y176949D02*
X302701D01*
X300863Y176499D02*
X302397D01*
X300863Y176049D02*
X302184D01*
X300863Y175599D02*
X302044D01*
X300831Y175149D02*
X301962D01*
X300706Y174699D02*
X301551D01*
X300825Y178749D02*
X301443D01*
X300536Y174249D02*
X301101D01*
X312611Y144549D02*
X314589D01*
X312611Y144099D02*
X314589D01*
X312611Y143649D02*
X314589D01*
X312611Y144999D02*
X314577D01*
X312706Y143199D02*
X314494D01*
X312611Y145449D02*
X314318D01*
X312611Y145899D02*
X314130D01*
X313354Y148149D02*
X314111D01*
X312612Y147699D02*
X314021D01*
X312611Y146349D02*
X314012D01*
X312611Y147249D02*
X313959D01*
X312611Y146799D02*
X313956D01*
X282173Y127899D02*
X313402D01*
X282173Y127449D02*
X313309D01*
X282328Y126999D02*
X312440D01*
X282500Y126549D02*
X311554D01*
X282570Y126099D02*
X310652D01*
X282573Y125649D02*
X309732D01*
X282573Y125199D02*
X308794D01*
X282573Y124749D02*
X307836D01*
X282573Y124299D02*
X306857D01*
X282573Y123849D02*
X305857D01*
X282571Y123399D02*
X304834D01*
X282509Y122949D02*
X303786D01*
X282348Y122499D02*
X302713D01*
X282302Y122049D02*
X301612D01*
X282486Y121599D02*
X300482D01*
X282173Y128349D02*
X299602D01*
X282566Y121149D02*
X299320D01*
X282173Y128799D02*
X299054D01*
X282173Y129249D02*
X298604D01*
X282173Y129699D02*
X298154D01*
X282573Y120699D02*
X298125D01*
X282173Y130149D02*
X297727D01*
X282173Y130599D02*
X297438D01*
X282173Y131049D02*
X297259D01*
X282173Y131499D02*
X297167D01*
X295956Y145899D02*
X297150D01*
X295990Y145449D02*
X297150D01*
X295990Y144999D02*
X297150D01*
X295990Y144549D02*
X297150D01*
X295990Y144099D02*
X297150D01*
X295990Y143649D02*
X297150D01*
X295990Y143199D02*
X297150D01*
X295975Y142749D02*
X297150D01*
X295874Y142299D02*
X297150D01*
X295667Y141849D02*
X297150D01*
X295450Y141399D02*
X297150D01*
X295647Y140949D02*
X297150D01*
X295908Y140499D02*
X297150D01*
X296087Y140049D02*
X297150D01*
X296198Y139599D02*
X297150D01*
X296247Y139149D02*
X297150D01*
X296237Y138699D02*
X297150D01*
X296167Y138249D02*
X297150D01*
X296034Y137799D02*
X297150D01*
X295829Y137349D02*
X297150D01*
X295536Y136899D02*
X297150D01*
X295122Y136449D02*
X297150D01*
X294501Y135999D02*
X297150D01*
X282164Y135549D02*
X297150D01*
X282173Y135099D02*
X297150D01*
X282173Y134649D02*
X297150D01*
X282173Y134199D02*
X297150D01*
X282173Y133749D02*
X297150D01*
X282173Y133299D02*
X297150D01*
X282173Y132849D02*
X297150D01*
X282173Y132399D02*
X297150D01*
X282173Y131949D02*
X297150D01*
X295842Y146349D02*
X297134D01*
X282573Y120249D02*
X296893D01*
X282573Y119799D02*
X295621D01*
X282573Y119349D02*
X294305D01*
X282573Y118899D02*
X292942D01*
X282573Y118449D02*
X291527D01*
X282111Y135999D02*
X291099D01*
X282111Y136449D02*
X290478D01*
X282111Y141399D02*
X290137D01*
X282111Y136899D02*
X290064D01*
X282521Y117999D02*
X290053D01*
X282111Y140949D02*
X289953D01*
X287128Y152199D02*
X289884D01*
X287109Y151749D02*
X289861D01*
X287278Y146799D02*
X289822D01*
X282111Y141849D02*
X289813D01*
X282111Y137349D02*
X289771D01*
X282111Y140499D02*
X289692D01*
X287278Y146349D02*
X289652D01*
X287230Y151299D02*
X289633D01*
X287278Y147249D02*
X289623D01*
X282112Y142299D02*
X289606D01*
X282111Y137799D02*
X289566D01*
X287278Y145899D02*
X289524D01*
X287277Y150849D02*
X289516D01*
X282111Y140049D02*
X289513D01*
X287278Y147699D02*
X289512D01*
X285600Y142749D02*
X289505D01*
X287278Y150399D02*
X289490D01*
X287278Y149949D02*
X289490D01*
X287278Y149499D02*
X289490D01*
X287278Y149049D02*
X289490D01*
X287278Y148599D02*
X289490D01*
X287278Y148149D02*
X289490D01*
X287278Y145449D02*
X289490D01*
X287253Y144999D02*
X289490D01*
X287157Y144549D02*
X289490D01*
X286981Y144099D02*
X289490D01*
X286706Y143649D02*
X289490D01*
X286291Y143199D02*
X289490D01*
X282111Y138249D02*
X289433D01*
X282111Y139599D02*
X289402D01*
X282111Y138699D02*
X289363D01*
X282111Y139149D02*
X289353D01*
X282372Y117549D02*
X288513D01*
X282100Y117099D02*
X286899D01*
X281632Y116649D02*
X285200D01*
X276143Y116199D02*
X283401D01*
X283067Y142749D02*
X283131D01*
X223240Y115749D02*
X281484D01*
X225300Y115299D02*
X279425D01*
X227538Y114849D02*
X277187D01*
X230008Y114399D02*
X274717D01*
X232797Y113949D02*
X271928D01*
X236069Y113499D02*
X268655D01*
X240208Y113049D02*
X264517D01*
X246923Y112599D02*
X257801D01*
X221324Y116199D02*
X227157D01*
X219525Y116649D02*
X226320D01*
X217825Y117099D02*
X225798D01*
X216211Y117549D02*
X225348D01*
X214672Y117999D02*
X224898D01*
X213198Y118449D02*
X224448D01*
X211782Y118899D02*
X223998D01*
X210419Y119349D02*
X223548D01*
X209104Y119799D02*
X223098D01*
X207832Y120249D02*
X222648D01*
X206600Y120699D02*
X222198D01*
X205404Y121149D02*
X221748D01*
X204242Y121599D02*
X221298D01*
X203112Y122049D02*
X220848D01*
X202012Y122499D02*
X220398D01*
X200938Y122949D02*
X219948D01*
X199891Y123399D02*
X219498D01*
X198868Y123849D02*
X219048D01*
X197867Y124299D02*
X218598D01*
X196889Y124749D02*
X218148D01*
X195931Y125199D02*
X217698D01*
X194992Y125649D02*
X217248D01*
X194072Y126099D02*
X216798D01*
X193170Y126549D02*
X216348D01*
X192285Y126999D02*
X215898D01*
X191416Y127449D02*
X215448D01*
X190562Y127899D02*
X214998D01*
X189723Y128349D02*
X214548D01*
X188899Y128799D02*
X214098D01*
X188088Y129249D02*
X213648D01*
X187290Y129699D02*
X213198D01*
X186506Y130149D02*
X212748D01*
X185733Y130599D02*
X212298D01*
X184972Y131049D02*
X211848D01*
X184223Y131499D02*
X211398D01*
X183485Y131949D02*
X210948D01*
X182758Y132399D02*
X210498D01*
X182199Y132849D02*
X210048D01*
X330403Y139149D02*
X331325D01*
X325407Y138699D02*
X331181D01*
X325407Y138249D02*
X330576D01*
X325407Y137799D02*
X329963D01*
X325407Y137349D02*
X329343D01*
X325407Y136899D02*
X328715D01*
X325407Y136449D02*
X328080D01*
X325407Y135999D02*
X327436D01*
X325407Y135549D02*
X326784D01*
X325407Y135099D02*
X326123D01*
X325415Y139149D02*
X325997D01*
X265628Y205299D02*
X304781D01*
X265174Y205749D02*
X304738D01*
X264724Y206199D02*
X304288D01*
X264274Y206649D02*
X303838D01*
X263824Y207099D02*
X303388D01*
X263374Y207549D02*
X302938D01*
X262924Y207999D02*
X302488D01*
X262474Y208449D02*
X302038D01*
X262024Y208899D02*
X301588D01*
X261574Y209349D02*
X301143D01*
X261124Y209799D02*
X300804D01*
X260674Y210249D02*
X300576D01*
X260224Y210699D02*
X300432D01*
X259774Y211149D02*
X300360D01*
X290646Y232749D02*
X300350D01*
X290447Y232299D02*
X300350D01*
X290552Y231849D02*
X300350D01*
X290700Y231399D02*
X300350D01*
X290750Y230949D02*
X300350D01*
X290750Y230499D02*
X300350D01*
X290750Y230049D02*
X300350D01*
X290750Y229599D02*
X300350D01*
X290750Y229149D02*
X300350D01*
X290750Y228699D02*
X300350D01*
X290743Y228249D02*
X300350D01*
X290661Y227799D02*
X300350D01*
X290475Y227349D02*
X300350D01*
X290152Y226899D02*
X300350D01*
X289573Y226449D02*
X300350D01*
X264866Y225999D02*
X300350D01*
X264210Y225549D02*
X300350D01*
X247450Y225099D02*
X300350D01*
X247450Y224649D02*
X300350D01*
X247450Y224199D02*
X300350D01*
X247450Y223749D02*
X300350D01*
X247450Y223299D02*
X300350D01*
X247450Y222849D02*
X300350D01*
X247450Y222399D02*
X300350D01*
X247450Y221949D02*
X300350D01*
X247450Y221499D02*
X300350D01*
X247450Y221049D02*
X300350D01*
X247450Y220599D02*
X300350D01*
X247450Y220149D02*
X300350D01*
X247450Y219699D02*
X300350D01*
X247450Y219249D02*
X300350D01*
X247450Y218799D02*
X300350D01*
X247450Y218349D02*
X300350D01*
X247450Y217899D02*
X300350D01*
X247450Y217449D02*
X300350D01*
X247450Y216999D02*
X300350D01*
X247450Y216549D02*
X300350D01*
X247450Y216099D02*
X300350D01*
X247450Y215649D02*
X300350D01*
X247450Y215199D02*
X300350D01*
X247501Y214749D02*
X300350D01*
X256493Y214299D02*
X300350D01*
X257074Y213849D02*
X300350D01*
X257524Y213399D02*
X300350D01*
X257974Y212949D02*
X300350D01*
X258424Y212499D02*
X300350D01*
X258874Y212049D02*
X300350D01*
X259324Y211599D02*
X300350D01*
X290739Y233199D02*
X300344D01*
X290750Y233649D02*
X295115D01*
X290750Y234099D02*
X294517D01*
X290750Y234549D02*
X294133D01*
X284773Y226449D02*
X285428D01*
X280013D02*
X280628D01*
X275173D02*
X275747D01*
X270373D02*
X271028D01*
X265297D02*
X266228D01*
X247450Y225549D02*
X260990D01*
X247470Y225999D02*
X260334D01*
X296043Y193149D02*
X308645D01*
X296043Y192699D02*
X308067D01*
X296043Y192249D02*
X307468D01*
X296043Y191799D02*
X307136D01*
X296043Y191349D02*
X306946D01*
X296043Y190899D02*
X306859D01*
X304997Y190449D02*
X306706D01*
X296000Y193599D02*
X304879D01*
X295861Y194049D02*
X304207D01*
X295602Y194499D02*
X303754D01*
X295159Y194949D02*
X303304D01*
X294024Y195399D02*
X302854D01*
X260632Y195849D02*
X302404D01*
X260649Y196299D02*
X301954D01*
X260606Y196749D02*
X301424D01*
X299797Y190449D02*
X301029D01*
X282213Y195399D02*
X289232D01*
X283348Y194949D02*
X288097D01*
X283788Y176949D02*
X287657D01*
X283791Y194499D02*
X287654D01*
X283889Y177399D02*
X287556D01*
X284050Y194049D02*
X287395D01*
X284105Y177849D02*
X287340D01*
X284189Y193599D02*
X287256D01*
X284213Y178299D02*
X287232D01*
X284232Y193149D02*
X287213D01*
X284232Y192699D02*
X287213D01*
X284232Y192249D02*
X287213D01*
X284232Y191799D02*
X287213D01*
X284232Y191349D02*
X287213D01*
X284232Y190899D02*
X287213D01*
X284232Y190449D02*
X287213D01*
X284232Y189999D02*
X287213D01*
X284232Y189549D02*
X287213D01*
X284232Y189099D02*
X287213D01*
X284232Y188649D02*
X287213D01*
X284232Y188199D02*
X287213D01*
X284232Y187749D02*
X287213D01*
X284232Y187299D02*
X287213D01*
X284232Y186849D02*
X287213D01*
X284232Y186399D02*
X287213D01*
X284232Y185949D02*
X287213D01*
X284232Y185499D02*
X287213D01*
X284232Y185049D02*
X287213D01*
X284232Y184599D02*
X287213D01*
X284232Y184149D02*
X287213D01*
X284232Y183699D02*
X287213D01*
X284232Y183249D02*
X287213D01*
X284232Y182799D02*
X287213D01*
X284232Y182349D02*
X287213D01*
X284232Y181899D02*
X287213D01*
X284232Y181449D02*
X287213D01*
X284232Y180999D02*
X287213D01*
X284232Y180549D02*
X287213D01*
X284232Y180099D02*
X287213D01*
X284232Y179649D02*
X287213D01*
X284232Y179199D02*
X287213D01*
X284232Y178749D02*
X287213D01*
X260556Y195399D02*
X277421D01*
X267577Y134649D02*
X276473D01*
X268852Y134199D02*
X276473D01*
X269301Y133749D02*
X276473D01*
X269563Y133299D02*
X276473D01*
X269705Y132849D02*
X276473D01*
X269750Y132399D02*
X276473D01*
X269852Y131949D02*
X276473D01*
X275114Y131499D02*
X276473D01*
X275743Y131049D02*
X276473D01*
X244608Y135099D02*
X276425D01*
X269750Y141849D02*
X276411D01*
X269750Y141399D02*
X276411D01*
X269750Y140949D02*
X276411D01*
X269750Y140499D02*
X276411D01*
X269750Y140049D02*
X276411D01*
X269750Y139599D02*
X276411D01*
X269750Y139149D02*
X276411D01*
X269750Y138699D02*
X276411D01*
X269745Y138249D02*
X276411D01*
X269668Y137799D02*
X276411D01*
X269489Y137349D02*
X276411D01*
X269176Y136899D02*
X276411D01*
X268620Y136449D02*
X276411D01*
X244629Y135999D02*
X276411D01*
X244608Y135549D02*
X276411D01*
X269750Y142299D02*
X276410D01*
X273956Y176499D02*
X276350D01*
X273956Y176049D02*
X276350D01*
X273956Y175599D02*
X276350D01*
X273956Y175149D02*
X276350D01*
X273956Y174699D02*
X276350D01*
X273956Y174249D02*
X276350D01*
X273956Y173799D02*
X276350D01*
X273956Y173349D02*
X276350D01*
X273956Y172899D02*
X276350D01*
X273956Y172449D02*
X276350D01*
X260419Y194949D02*
X276286D01*
X273956Y176949D02*
X276116D01*
X260531Y194499D02*
X275843D01*
X273948Y177399D02*
X275745D01*
X273956Y171999D02*
X275703D01*
X260621Y194049D02*
X275584D01*
X273863Y177849D02*
X275528D01*
X269750Y142749D02*
X275481D01*
X260650Y193599D02*
X275445D01*
X273675Y178299D02*
X275421D01*
X260620Y193149D02*
X275402D01*
X272757Y192699D02*
X275402D01*
X273347Y192249D02*
X275402D01*
X273675Y191799D02*
X275402D01*
X273863Y191349D02*
X275402D01*
X273948Y190899D02*
X275402D01*
X273956Y190449D02*
X275402D01*
X273956Y189999D02*
X275402D01*
X273956Y189549D02*
X275402D01*
X273956Y189099D02*
X275402D01*
X273956Y188649D02*
X275402D01*
X273956Y188199D02*
X275402D01*
X273956Y187749D02*
X275402D01*
X273956Y187299D02*
X275402D01*
X273956Y186849D02*
X275402D01*
X273956Y186399D02*
X275402D01*
X273956Y185949D02*
X275402D01*
X273956Y185499D02*
X275402D01*
X273956Y185049D02*
X275402D01*
X273956Y184599D02*
X275402D01*
X273956Y184149D02*
X275402D01*
X273956Y183699D02*
X275402D01*
X273956Y183249D02*
X275402D01*
X273919Y182799D02*
X275402D01*
X273785Y182349D02*
X275402D01*
X273536Y181899D02*
X275402D01*
X273108Y181449D02*
X275402D01*
X272128Y180999D02*
X275402D01*
X259848Y180549D02*
X275402D01*
X259322Y180099D02*
X275402D01*
X256403Y179649D02*
X275402D01*
X272757Y179199D02*
X275402D01*
X273347Y178749D02*
X275402D01*
X273956Y171549D02*
X274900D01*
X269750Y143199D02*
X274790D01*
X273977Y171099D02*
X274446D01*
X269750Y143649D02*
X274375D01*
X269750Y144099D02*
X274100D01*
X271730Y162999D02*
X273940D01*
X272272Y151749D02*
X273937D01*
X269750Y144549D02*
X273923D01*
X272383Y162549D02*
X273901D01*
X271459Y151299D02*
X273850D01*
X256364Y163449D02*
X273835D01*
X269750Y144999D02*
X273827D01*
X249327Y150849D02*
X273803D01*
X273108Y167949D02*
X273802D01*
X272128Y167499D02*
X273802D01*
X256364Y167049D02*
X273802D01*
X256364Y166599D02*
X273802D01*
X256364Y166149D02*
X273802D01*
X256344Y165699D02*
X273802D01*
X256235Y165249D02*
X273802D01*
X256034Y164799D02*
X273802D01*
X256198Y164349D02*
X273802D01*
X256329Y163899D02*
X273802D01*
X248976Y150399D02*
X273802D01*
X248428Y149949D02*
X273802D01*
X244713Y149499D02*
X273802D01*
X244608Y149049D02*
X273802D01*
X244608Y148599D02*
X273802D01*
X267577Y148149D02*
X273802D01*
X268852Y147699D02*
X273802D01*
X269301Y147249D02*
X273802D01*
X269563Y146799D02*
X273802D01*
X269705Y146349D02*
X273802D01*
X269750Y145899D02*
X273802D01*
X269750Y145449D02*
X273802D01*
X249559Y151299D02*
X268141D01*
X256364Y162999D02*
X267870D01*
X249702Y151749D02*
X267328D01*
X256364Y162549D02*
X267217D01*
X249769Y152199D02*
X266930D01*
X249776Y157149D02*
X266880D01*
X256364Y162099D02*
X266865D01*
X249776Y157599D02*
X266717D01*
X249776Y152649D02*
X266698D01*
X249776Y156699D02*
X266678D01*
X256364Y161649D02*
X266661D01*
X249765Y158049D02*
X266586D01*
X249776Y153099D02*
X266578D01*
X249776Y156249D02*
X266570D01*
X256364Y161199D02*
X266564D01*
X256350Y160749D02*
X266550D01*
X256252Y160299D02*
X266550D01*
X256048Y159849D02*
X266550D01*
X255696Y159399D02*
X266550D01*
X255040Y158949D02*
X266550D01*
X249689Y158499D02*
X266550D01*
X249776Y155799D02*
X266550D01*
X249776Y155349D02*
X266550D01*
X249776Y154899D02*
X266550D01*
X249776Y154449D02*
X266550D01*
X249776Y153999D02*
X266550D01*
X249776Y153549D02*
X266550D01*
X260149Y180999D02*
X262285D01*
X256364Y167499D02*
X262285D01*
X260502Y197199D02*
X261749D01*
X260530Y192699D02*
X261656D01*
X256363Y179199D02*
X261656D01*
X260319Y181449D02*
X261305D01*
X256364Y167949D02*
X261305D01*
X260452Y197649D02*
X261228D01*
X260391Y192249D02*
X261066D01*
X256363Y178749D02*
X261066D01*
X260399Y181899D02*
X260877D01*
X256364Y168399D02*
X260877D01*
X256363Y178299D02*
X260738D01*
X256337Y168849D02*
X260627D01*
X256363Y177849D02*
X260549D01*
X256218Y169299D02*
X260494D01*
X256363Y177399D02*
X260464D01*
X256341Y176949D02*
X260456D01*
X256228Y176499D02*
X260456D01*
X256030Y176049D02*
X260456D01*
X256204Y175599D02*
X260456D01*
X256331Y175149D02*
X260456D01*
X256363Y174699D02*
X260456D01*
X256363Y174249D02*
X260456D01*
X256363Y173799D02*
X260456D01*
X256363Y173349D02*
X260456D01*
X256363Y172899D02*
X260456D01*
X256363Y172449D02*
X260456D01*
X256347Y171999D02*
X260456D01*
X256245Y171549D02*
X260456D01*
X256036Y171099D02*
X260456D01*
X255676Y170649D02*
X260456D01*
X255589Y170199D02*
X260456D01*
X255986Y169749D02*
X260456D01*
X252777Y148149D02*
X258423D01*
X252777Y134649D02*
X258423D01*
X253820Y136449D02*
X257380D01*
X254052Y147699D02*
X257148D01*
X254052Y134199D02*
X257148D01*
X254376Y136899D02*
X256824D01*
X254501Y147249D02*
X256699D01*
X254501Y133749D02*
X256699D01*
X254689Y137349D02*
X256511D01*
X254689Y123849D02*
X256511D01*
X254763Y146799D02*
X256437D01*
X254763Y133299D02*
X256437D01*
X254868Y137799D02*
X256332D01*
X254868Y124299D02*
X256332D01*
X254905Y146349D02*
X256295D01*
X254905Y132849D02*
X256295D01*
X254945Y138249D02*
X256255D01*
X254945Y124749D02*
X256255D01*
X254950Y145899D02*
X256250D01*
X254950Y145449D02*
X256250D01*
X254950Y144999D02*
X256250D01*
X254950Y144549D02*
X256250D01*
X254950Y144099D02*
X256250D01*
X254950Y143649D02*
X256250D01*
X254950Y143199D02*
X256250D01*
X254950Y142749D02*
X256250D01*
X254950Y142299D02*
X256250D01*
X254950Y141849D02*
X256250D01*
X254950Y141399D02*
X256250D01*
X254950Y140949D02*
X256250D01*
X254950Y140499D02*
X256250D01*
X254950Y140049D02*
X256250D01*
X254950Y139599D02*
X256250D01*
X254950Y139149D02*
X256250D01*
X254950Y138699D02*
X256250D01*
X254950Y132399D02*
X256250D01*
X254950Y131949D02*
X256250D01*
X254950Y131499D02*
X256250D01*
X254950Y131049D02*
X256250D01*
X254950Y130599D02*
X256250D01*
X254950Y130149D02*
X256250D01*
X254950Y129699D02*
X256250D01*
X254950Y129249D02*
X256250D01*
X254950Y128799D02*
X256250D01*
X254950Y128349D02*
X256250D01*
X254950Y127899D02*
X256250D01*
X254950Y127449D02*
X256250D01*
X254950Y126999D02*
X256250D01*
X254950Y126549D02*
X256250D01*
X254950Y126099D02*
X256250D01*
X254950Y125649D02*
X256250D01*
X254950Y125199D02*
X256250D01*
X249535Y158949D02*
X251188D01*
X249369Y159399D02*
X250533D01*
X247450Y241749D02*
X262750D01*
X247450Y241299D02*
X262750D01*
X247450Y240849D02*
X262750D01*
X247450Y240399D02*
X262750D01*
X247450Y239949D02*
X262750D01*
X247450Y239499D02*
X262750D01*
X247450Y239049D02*
X262750D01*
X247450Y238599D02*
X262750D01*
X247450Y238149D02*
X262750D01*
X247450Y237699D02*
X262750D01*
X247450Y237249D02*
X262750D01*
X247450Y236799D02*
X262750D01*
X247450Y236349D02*
X262750D01*
X247450Y235899D02*
X262750D01*
X247450Y235449D02*
X262750D01*
X247450Y234999D02*
X262750D01*
X247450Y234549D02*
X262750D01*
X247450Y234099D02*
X262750D01*
X247450Y233649D02*
X262750D01*
X247450Y233199D02*
X262750D01*
X247450Y232749D02*
X262750D01*
X247450Y232299D02*
X262750D01*
X247450Y231849D02*
X261439D01*
X268050Y241299D02*
X294940D01*
X268050Y241749D02*
X294763D01*
X268050Y240849D02*
X294440D01*
X268050Y242199D02*
X294329D01*
X268050Y242649D02*
X293830D01*
X268050Y240399D02*
X293188D01*
X268110Y243099D02*
X291248D01*
X289385Y243549D02*
X290445D01*
X268050Y239949D02*
X287473D01*
X268050Y239499D02*
X286851D01*
X268050Y239049D02*
X286401D01*
X268050Y238599D02*
X285951D01*
X284054Y238149D02*
X285509D01*
X284585Y243549D02*
X284935D01*
X274454Y238149D02*
X281346D01*
X279818Y243549D02*
X280135D01*
X275009D02*
X275171D01*
X269654Y238149D02*
X271746D01*
X270186Y243549D02*
X270426D01*
X223688Y196749D02*
X226350D01*
X223688Y196299D02*
X226350D01*
X223688Y195849D02*
X226350D01*
X223688Y195399D02*
X226350D01*
X223651Y194949D02*
X226350D01*
X223519Y194499D02*
X226350D01*
X223270Y194049D02*
X226350D01*
X223091Y193599D02*
X226350D01*
X223405Y193149D02*
X226350D01*
X223595Y192699D02*
X226350D01*
X223680Y192249D02*
X226350D01*
X223688Y191799D02*
X226350D01*
X223688Y191349D02*
X226350D01*
X223688Y190899D02*
X226350D01*
X223688Y190449D02*
X226350D01*
X223688Y189999D02*
X226350D01*
X223688Y189549D02*
X226350D01*
X223641Y189099D02*
X226350D01*
X223497Y188649D02*
X226350D01*
X223378Y188199D02*
X226350D01*
X223579Y187749D02*
X226350D01*
X223675Y187299D02*
X226350D01*
X223688Y186849D02*
X226350D01*
X223688Y186399D02*
X226350D01*
X223688Y185949D02*
X226350D01*
X223688Y185499D02*
X226350D01*
X223688Y185049D02*
X226350D01*
X223688Y184599D02*
X226350D01*
X223709Y197199D02*
X226330D01*
X199576Y169299D02*
X225750D01*
X199576Y168849D02*
X225750D01*
X199576Y168399D02*
X225734D01*
X212141Y169749D02*
X217376D01*
X213115Y167949D02*
X216517D01*
X213356Y170199D02*
X216250D01*
X213673Y167499D02*
X215952D01*
X213803Y170649D02*
X215807D01*
X213673Y180999D02*
X215682D01*
X213987Y180549D02*
X215634D01*
X213987Y167049D02*
X215634D01*
X214064Y171099D02*
X215549D01*
X214167Y180099D02*
X215452D01*
X214167Y166599D02*
X215452D01*
X214205Y171549D02*
X215410D01*
X214245Y179649D02*
X215373D01*
X214245Y166149D02*
X215373D01*
X214250Y179199D02*
X215367D01*
X214250Y178749D02*
X215367D01*
X214250Y178299D02*
X215367D01*
X214250Y177849D02*
X215367D01*
X214250Y177399D02*
X215367D01*
X214250Y176949D02*
X215367D01*
X214250Y176499D02*
X215367D01*
X214250Y176049D02*
X215367D01*
X214250Y175599D02*
X215367D01*
X214250Y175149D02*
X215367D01*
X214250Y174699D02*
X215367D01*
X214250Y174249D02*
X215367D01*
X214250Y173799D02*
X215367D01*
X214250Y173349D02*
X215367D01*
X214250Y172899D02*
X215367D01*
X214250Y172449D02*
X215367D01*
X214250Y171999D02*
X215367D01*
X213115Y181449D02*
X215232D01*
X207307Y181899D02*
X214782D01*
X207410Y182349D02*
X214002D01*
X212102Y182799D02*
X213033D01*
X207535D02*
X208045D01*
X199576Y169749D02*
X202858D01*
X199576Y167949D02*
X201885D01*
X199576Y170199D02*
X201644D01*
X199576Y167499D02*
X201327D01*
X199576Y170649D02*
X201197D01*
X199576Y167049D02*
X201012D01*
X199576Y171099D02*
X200936D01*
X199576Y166599D02*
X200833D01*
X199573Y171549D02*
X200794D01*
X199576Y166149D02*
X200755D01*
X199318Y177849D02*
X200750D01*
X199326Y177399D02*
X200750D01*
X199326Y176949D02*
X200750D01*
X199326Y176499D02*
X200750D01*
X199326Y176049D02*
X200750D01*
X199326Y175599D02*
X200750D01*
X199326Y175149D02*
X200750D01*
X199280Y174699D02*
X200750D01*
X199137Y174249D02*
X200750D01*
X199014Y173799D02*
X200750D01*
X199216Y173349D02*
X200750D01*
X199313Y172899D02*
X200750D01*
X199416Y172449D02*
X200750D01*
X199525Y171999D02*
X200750D01*
X199384Y178299D02*
X200652D01*
X215255Y138249D02*
X227550D01*
X215705Y137799D02*
X227550D01*
X216155Y137349D02*
X227550D01*
X216605Y136899D02*
X227550D01*
X217055Y136449D02*
X227550D01*
X217505Y135999D02*
X227550D01*
X217955Y135549D02*
X227550D01*
X218405Y135099D02*
X227550D01*
X218855Y134649D02*
X227550D01*
X219305Y134199D02*
X227550D01*
X219755Y133749D02*
X227550D01*
X220205Y133299D02*
X227550D01*
X220655Y132849D02*
X227550D01*
X221105Y132399D02*
X227550D01*
X214805Y138699D02*
X227513D01*
X221555Y131949D02*
X227435D01*
X222005Y131499D02*
X226985D01*
X222455Y131049D02*
X226535D01*
X222905Y130599D02*
X226085D01*
X223355Y130149D02*
X225635D01*
X223805Y129699D02*
X225185D01*
X224255Y129249D02*
X224735D01*
X192423Y155799D02*
X218516D01*
X191954Y155349D02*
X218516D01*
X191247Y154899D02*
X218516D01*
X190329Y154449D02*
X218516D01*
X189879Y153999D02*
X218516D01*
X189489Y153549D02*
X218515D01*
X212141Y156249D02*
X217376D01*
X211811Y153099D02*
X216297D01*
X213356Y156699D02*
X216250D01*
X214355Y139149D02*
X216091D01*
X213803Y157149D02*
X215807D01*
X212531Y152649D02*
X215665D01*
X213896Y139599D02*
X215561D01*
X214064Y157599D02*
X215549D01*
X214205Y158049D02*
X215410D01*
X214250Y158499D02*
X215367D01*
X212904Y152199D02*
X215320D01*
X213273Y140049D02*
X215260D01*
X213122Y151749D02*
X215121D01*
X213193Y140499D02*
X215089D01*
X213230Y151299D02*
X215028D01*
X213249Y140949D02*
X215019D01*
X213250Y150849D02*
X215016D01*
X213250Y150399D02*
X215016D01*
X213250Y149949D02*
X215016D01*
X213250Y149499D02*
X215016D01*
X213250Y149049D02*
X215016D01*
X213250Y148599D02*
X215016D01*
X213250Y148149D02*
X215016D01*
X213250Y147699D02*
X215016D01*
X213250Y147249D02*
X215016D01*
X213250Y146799D02*
X215016D01*
X213250Y146349D02*
X215016D01*
X213250Y145899D02*
X215016D01*
X213250Y145449D02*
X215016D01*
X213250Y144999D02*
X215016D01*
X213250Y144549D02*
X215016D01*
X213250Y144099D02*
X215016D01*
X213250Y143649D02*
X215016D01*
X213250Y143199D02*
X215016D01*
X213250Y142749D02*
X215016D01*
X213250Y142299D02*
X215016D01*
X213250Y141849D02*
X215016D01*
X213250Y141399D02*
X215016D01*
X192760Y156249D02*
X202858D01*
X193006Y156699D02*
X201644D01*
X193179Y157149D02*
X201197D01*
X193290Y157599D02*
X200936D01*
X193344Y158049D02*
X200794D01*
X193350Y158499D02*
X200745D01*
X195211Y153099D02*
X200189D01*
X195931Y152649D02*
X199469D01*
X196304Y152199D02*
X199096D01*
X196522Y151749D02*
X198878D01*
X196630Y151299D02*
X198770D01*
X196649Y140949D02*
X198751D01*
X196650Y150849D02*
X198750D01*
X196650Y150399D02*
X198750D01*
X196650Y149949D02*
X198750D01*
X196650Y149499D02*
X198750D01*
X196650Y149049D02*
X198750D01*
X196650Y148599D02*
X198750D01*
X196650Y148149D02*
X198750D01*
X196650Y147699D02*
X198750D01*
X196650Y147249D02*
X198750D01*
X196650Y146799D02*
X198750D01*
X196650Y146349D02*
X198750D01*
X196650Y145899D02*
X198750D01*
X196650Y145449D02*
X198750D01*
X196650Y144999D02*
X198750D01*
X196650Y144549D02*
X198750D01*
X196650Y144099D02*
X198750D01*
X196650Y143649D02*
X198750D01*
X196650Y143199D02*
X198750D01*
X196650Y142749D02*
X198750D01*
X196650Y142299D02*
X198750D01*
X196650Y141849D02*
X198750D01*
X196650Y141399D02*
X198750D01*
X193350Y158949D02*
X196704D01*
X193350Y159399D02*
X195902D01*
X193350Y159849D02*
X195402D01*
X193350Y160299D02*
X194952D01*
X193450Y160749D02*
X194502D01*
X193597Y161199D02*
X194052D01*
X233650Y149049D02*
X238908D01*
X233650Y148599D02*
X238908D01*
X233650Y148149D02*
X238908D01*
X233650Y147699D02*
X238908D01*
X233650Y147249D02*
X238908D01*
X233650Y146799D02*
X238908D01*
X233650Y146349D02*
X238908D01*
X233650Y145899D02*
X238908D01*
X233650Y145449D02*
X238908D01*
X233650Y144999D02*
X238908D01*
X233650Y144549D02*
X238908D01*
X233650Y144099D02*
X238908D01*
X233650Y143649D02*
X238908D01*
X233650Y143199D02*
X238908D01*
X233650Y142749D02*
X238908D01*
X233650Y142299D02*
X238908D01*
X233650Y141849D02*
X238908D01*
X233650Y141399D02*
X238908D01*
X233650Y140949D02*
X238908D01*
X233650Y140499D02*
X238908D01*
X233650Y140049D02*
X238908D01*
X233650Y139599D02*
X238908D01*
X233650Y139149D02*
X238908D01*
X237868Y138699D02*
X238908D01*
X233650Y149499D02*
X238804D01*
X233650Y149949D02*
X237648D01*
X233650Y150399D02*
X237099D01*
X233650Y150849D02*
X236748D01*
X235585Y159399D02*
X236587D01*
X234803Y158949D02*
X236540D01*
X233650Y151299D02*
X236516D01*
X231850Y158499D02*
X236387D01*
X233650Y151749D02*
X236373D01*
X231850Y158049D02*
X236311D01*
X233650Y152199D02*
X236306D01*
X231850Y157599D02*
X236300D01*
X231850Y157149D02*
X236300D01*
X231850Y156699D02*
X236300D01*
X231850Y156249D02*
X236300D01*
X231850Y155799D02*
X236300D01*
X231851Y155349D02*
X236300D01*
X232215Y154899D02*
X236300D01*
X232665Y154449D02*
X236300D01*
X233063Y153999D02*
X236300D01*
X233336Y153549D02*
X236300D01*
X233515Y153099D02*
X236300D01*
X233617Y152649D02*
X236300D01*
X233650Y138699D02*
X234532D01*
X137724Y198549D02*
X138307D01*
X137176Y198999D02*
X138275D01*
X126464Y205749D02*
X138186D01*
X128558Y199449D02*
X138173D01*
X126602Y205299D02*
X138144D01*
X126742Y204849D02*
X138144D01*
X126883Y204399D02*
X138144D01*
X127026Y203949D02*
X138144D01*
X127172Y203499D02*
X138144D01*
X127318Y203049D02*
X138144D01*
X127467Y202599D02*
X138144D01*
X127617Y202149D02*
X138144D01*
X127770Y201699D02*
X138144D01*
X127924Y201249D02*
X138144D01*
X128079Y200799D02*
X138144D01*
X128237Y200349D02*
X138144D01*
X128397Y199899D02*
X138144D01*
X126328Y206199D02*
X137990D01*
X126193Y206649D02*
X137521D01*
X126061Y207099D02*
X137071D01*
X125930Y207549D02*
X136677D01*
X125801Y207999D02*
X136416D01*
X125673Y208449D02*
X136251D01*
X125547Y208899D02*
X136166D01*
X125423Y209349D02*
X135578D01*
X125301Y209799D02*
X135086D01*
X125180Y210249D02*
X134803D01*
X125062Y210699D02*
X134645D01*
X124944Y211149D02*
X134586D01*
X132096Y224199D02*
X134585D01*
X132416Y223749D02*
X134585D01*
X132671Y223299D02*
X134585D01*
X132872Y222849D02*
X134585D01*
X133025Y222399D02*
X134585D01*
X133134Y221949D02*
X134585D01*
X133202Y221499D02*
X134585D01*
X133231Y221049D02*
X134585D01*
X133222Y220599D02*
X134585D01*
X133173Y220149D02*
X134585D01*
X133085Y219699D02*
X134585D01*
X132954Y219249D02*
X134585D01*
X132778Y218799D02*
X134585D01*
X132551Y218349D02*
X134585D01*
X132265Y217899D02*
X134585D01*
X131907Y217449D02*
X134585D01*
X131455Y216999D02*
X134585D01*
X130866Y216549D02*
X134585D01*
X130022Y216099D02*
X134585D01*
X123865Y215649D02*
X134585D01*
X123965Y215199D02*
X134585D01*
X124067Y214749D02*
X134585D01*
X124171Y214299D02*
X134585D01*
X124277Y213849D02*
X134585D01*
X124384Y213399D02*
X134585D01*
X124492Y212949D02*
X134585D01*
X124603Y212499D02*
X134585D01*
X124715Y212049D02*
X134585D01*
X124829Y211599D02*
X134585D01*
X131971Y224649D02*
X134536D01*
X128721Y198999D02*
X132902D01*
X128886Y198549D02*
X132355D01*
X131015Y193149D02*
X132072D01*
X129053Y198099D02*
X132045D01*
X130827Y193599D02*
X132004D01*
X131204Y192699D02*
X131883D01*
X129222Y197649D02*
X131869D01*
X130641Y194049D02*
X131848D01*
X129393Y197199D02*
X131794D01*
X130457Y194499D02*
X131790D01*
X129565Y196749D02*
X131789D01*
X129740Y196299D02*
X131789D01*
X129916Y195849D02*
X131789D01*
X130094Y195399D02*
X131789D01*
X130274Y194949D02*
X131789D01*
X131457Y192249D02*
X131690D01*
X123766Y216099D02*
X125943D01*
X123669Y216549D02*
X125099D01*
X123573Y216999D02*
X124510D01*
X123487Y217449D02*
X124058D01*
X143765Y169749D02*
X149845D01*
X143458Y170199D02*
X149805D01*
X143154Y170649D02*
X149642D01*
X142853Y171099D02*
X149579D01*
X141674Y172899D02*
X149578D01*
X141965Y172449D02*
X149578D01*
X142258Y171999D02*
X149578D01*
X142554Y171549D02*
X149578D01*
X144074Y169299D02*
X149574D01*
X144386Y168849D02*
X149354D01*
X141386Y173349D02*
X149353D01*
X144701Y168399D02*
X149204D01*
X145019Y167949D02*
X149113D01*
X145340Y167499D02*
X149078D01*
X145663Y167049D02*
X149078D01*
X145990Y166599D02*
X149078D01*
X146319Y166149D02*
X149078D01*
X146651Y165699D02*
X149078D01*
X146986Y165249D02*
X149078D01*
X147325Y164799D02*
X149078D01*
X147666Y164349D02*
X149078D01*
X148010Y163899D02*
X149078D01*
X148357Y163449D02*
X149078D01*
X141100Y173799D02*
X144008D01*
X140817Y174249D02*
X143438D01*
X140537Y174699D02*
X142988D01*
X140259Y175149D02*
X142538D01*
X139983Y175599D02*
X142088D01*
X139710Y176049D02*
X141638D01*
X139439Y176499D02*
X141216D01*
X139171Y176949D02*
X140918D01*
X138906Y177399D02*
X140721D01*
X138642Y177849D02*
X140602D01*
X138381Y178299D02*
X140554D01*
X138123Y178749D02*
X139779D01*
X137867Y179199D02*
X139108D01*
X137613Y179649D02*
X138701D01*
X137361Y180099D02*
X138432D01*
X137378Y187749D02*
X138288D01*
X137112Y180549D02*
X138259D01*
X133969Y187299D02*
X138196D01*
X136865Y180999D02*
X138166D01*
X133856Y186849D02*
X138145D01*
X134075Y186399D02*
X138144D01*
X134295Y185949D02*
X138144D01*
X134518Y185499D02*
X138144D01*
X134743Y185049D02*
X138144D01*
X134970Y184599D02*
X138144D01*
X135199Y184149D02*
X138144D01*
X135430Y183699D02*
X138144D01*
X135664Y183249D02*
X138144D01*
X135900Y182799D02*
X138144D01*
X136137Y182349D02*
X138144D01*
X136378Y181899D02*
X138144D01*
X136620Y181449D02*
X138144D01*
X151457Y198549D02*
X154659D01*
X151489Y198999D02*
X154570D01*
X151620Y203499D02*
X154376D01*
X151590Y199449D02*
X154355D01*
X151620Y203049D02*
X154260D01*
X151620Y199899D02*
X154249D01*
X151620Y202599D02*
X154230D01*
X151620Y202149D02*
X154230D01*
X151620Y201699D02*
X154230D01*
X151620Y201249D02*
X154230D01*
X151620Y200799D02*
X154230D01*
X151620Y200349D02*
X154230D01*
X165848Y210699D02*
X180150D01*
X165842Y210249D02*
X180150D01*
X165760Y209799D02*
X180150D01*
X165575Y209349D02*
X180150D01*
X160726Y197199D02*
X180150D01*
X160730Y196749D02*
X180150D01*
X160730Y196299D02*
X180150D01*
X160730Y195849D02*
X180150D01*
X160730Y195399D02*
X180150D01*
X160730Y194949D02*
X178105D01*
X160730Y194499D02*
X177107D01*
X174056Y189099D02*
X176767D01*
X160672Y194049D02*
X176677D01*
X174056Y189549D02*
X176591D01*
X160516Y193599D02*
X176426D01*
X174008Y189999D02*
X176377D01*
X160448Y193149D02*
X176291D01*
X173862Y190449D02*
X176271D01*
X160637Y192699D02*
X176253D01*
X160722Y192249D02*
X176253D01*
X160730Y191799D02*
X176253D01*
X173138Y191349D02*
X176253D01*
X173596Y190899D02*
X176253D01*
X165253Y208899D02*
X168705D01*
X165848Y211149D02*
X168685D01*
X160651Y197649D02*
X168685D01*
X164677Y208449D02*
X168203D01*
X165848Y211599D02*
X168192D01*
X160475Y198099D02*
X168192D01*
X160710Y207999D02*
X167914D01*
X165848Y212049D02*
X167908D01*
X160191Y198549D02*
X167908D01*
X160730Y207549D02*
X167753D01*
X165848Y212499D02*
X167749D01*
X160391Y198999D02*
X167749D01*
X160730Y207099D02*
X167690D01*
X165848Y212949D02*
X167690D01*
X160606Y199449D02*
X167690D01*
X160730Y206649D02*
X167689D01*
X160730Y206199D02*
X167689D01*
X160730Y205749D02*
X167689D01*
X160730Y205299D02*
X167689D01*
X160705Y204849D02*
X167689D01*
X160588Y204399D02*
X167689D01*
X160396Y203949D02*
X167689D01*
X160579Y203499D02*
X167689D01*
X160701Y203049D02*
X167689D01*
X160730Y202599D02*
X167689D01*
X160730Y202149D02*
X167689D01*
X160730Y201699D02*
X167689D01*
X160730Y201249D02*
X167689D01*
X160730Y200799D02*
X167689D01*
X160730Y200349D02*
X167689D01*
X160712Y199899D02*
X167689D01*
X165978Y213399D02*
X167547D01*
X160730Y191349D02*
X161474D01*
X174056Y172899D02*
X177051D01*
X173495Y180549D02*
X176797D01*
X174056Y173349D02*
X176750D01*
X172951Y180099D02*
X176608D01*
X174056Y173799D02*
X176574D01*
X151154Y179649D02*
X176509D01*
X174056Y174249D02*
X176499D01*
X157440Y179199D02*
X176494D01*
X158173Y178749D02*
X176494D01*
X158642Y178299D02*
X176494D01*
X173138Y177849D02*
X176494D01*
X173596Y177399D02*
X176494D01*
X173862Y176949D02*
X176494D01*
X174008Y176499D02*
X176494D01*
X174056Y176049D02*
X176494D01*
X174056Y175599D02*
X176494D01*
X174056Y175149D02*
X176494D01*
X174056Y174699D02*
X176494D01*
X174056Y172449D02*
X175547D01*
X174056Y171999D02*
X174707D01*
X173824Y180999D02*
X174169D01*
X151332Y180099D02*
X161661D01*
X159092Y177849D02*
X161474D01*
X151505Y180549D02*
X161117D01*
X159542Y177399D02*
X161016D01*
X151598Y180999D02*
X160809D01*
X159927Y176949D02*
X160750D01*
X151620Y181449D02*
X160634D01*
X160197Y176499D02*
X160575D01*
X151620Y181899D02*
X160560D01*
X159819Y187749D02*
X160556D01*
X151568Y187299D02*
X160556D01*
X151618Y186849D02*
X160556D01*
X151620Y186399D02*
X160556D01*
X151620Y185949D02*
X160556D01*
X151620Y185499D02*
X160556D01*
X151620Y185049D02*
X160556D01*
X151620Y184599D02*
X160556D01*
X151620Y184149D02*
X160556D01*
X151620Y183699D02*
X160556D01*
X151620Y183249D02*
X160556D01*
X151620Y182799D02*
X160556D01*
X151620Y182349D02*
X160556D01*
X151443Y187749D02*
X155142D01*
X160755Y158949D02*
X179827D01*
X161205Y158499D02*
X179827D01*
X161655Y158049D02*
X179827D01*
X162105Y157599D02*
X179827D01*
X160305Y159399D02*
X179754D01*
X159855Y159849D02*
X178893D01*
X159405Y160299D02*
X178458D01*
X158955Y160749D02*
X175209D01*
X158505Y161199D02*
X174570D01*
X172951Y166599D02*
X174242D01*
X158055Y161649D02*
X174224D01*
X160677Y166149D02*
X174088D01*
X173495Y167049D02*
X174039D01*
X157605Y162099D02*
X174023D01*
X160624Y165699D02*
X173954D01*
X157155Y162549D02*
X173928D01*
X160474Y165249D02*
X173915D01*
X160200Y164799D02*
X173915D01*
X159728Y164349D02*
X173915D01*
X156698Y163899D02*
X173915D01*
X156578Y163449D02*
X173915D01*
X156705Y162999D02*
X173915D01*
X162555Y157149D02*
X169188D01*
X163005Y156699D02*
X168288D01*
X163455Y156249D02*
X167745D01*
X163905Y155799D02*
X167295D01*
X164355Y155349D02*
X166845D01*
X164805Y154899D02*
X166395D01*
X165255Y154449D02*
X165945D01*
X160678Y166599D02*
X161661D01*
X160738Y167049D02*
X161117D01*
X184594Y177849D02*
X192835D01*
X184594Y177399D02*
X192826D01*
X184594Y176949D02*
X192826D01*
X184594Y176499D02*
X192826D01*
X188364Y176049D02*
X192826D01*
X189128Y175599D02*
X192826D01*
X189514Y175149D02*
X192825D01*
X184640Y178299D02*
X192768D01*
X207650Y310149D02*
X213318D01*
X207650Y304299D02*
X213312D01*
X207650Y315999D02*
X213311D01*
X207650Y298449D02*
X213300D01*
X207650Y321849D02*
X213298D01*
X207650Y327699D02*
X213287D01*
X207650Y339849D02*
X213287D01*
X207650Y333549D02*
X213277D01*
X207650Y333999D02*
X213277D01*
X207650Y339399D02*
X213269D01*
X207650Y328149D02*
X213269D01*
X207650Y322299D02*
X213262D01*
X207650Y297999D02*
X213261D01*
X207650Y316449D02*
X213256D01*
X207650Y303849D02*
X213256D01*
X207650Y310599D02*
X213252D01*
X207650Y309699D02*
X213252D01*
X207650Y304749D02*
X213249D01*
X207650Y315549D02*
X213249D01*
X207650Y298899D02*
X213248D01*
X207650Y321399D02*
X213247D01*
X207650Y340299D02*
X213247D01*
X207650Y338949D02*
X213247D01*
X207650Y338499D02*
X213247D01*
X207650Y338049D02*
X213247D01*
X207650Y337599D02*
X213247D01*
X207650Y337149D02*
X213247D01*
X207650Y336699D02*
X213247D01*
X207650Y336249D02*
X213247D01*
X207650Y335799D02*
X213247D01*
X207650Y335349D02*
X213247D01*
X207650Y334899D02*
X213247D01*
X207650Y334449D02*
X213247D01*
X207650Y333099D02*
X213247D01*
X207650Y332649D02*
X213247D01*
X207650Y332199D02*
X213247D01*
X207650Y331749D02*
X213247D01*
X207650Y331299D02*
X213247D01*
X207650Y330849D02*
X213247D01*
X207650Y330399D02*
X213247D01*
X207650Y329949D02*
X213247D01*
X207650Y329499D02*
X213247D01*
X207650Y329049D02*
X213247D01*
X207650Y328599D02*
X213247D01*
X207650Y327249D02*
X213247D01*
X207650Y326799D02*
X213247D01*
X207650Y326349D02*
X213247D01*
X207650Y325899D02*
X213247D01*
X207650Y325449D02*
X213247D01*
X207650Y324999D02*
X213247D01*
X207650Y324549D02*
X213247D01*
X207650Y324099D02*
X213247D01*
X207650Y323649D02*
X213247D01*
X207650Y323199D02*
X213247D01*
X207650Y322749D02*
X213247D01*
X207650Y320949D02*
X213247D01*
X207650Y320499D02*
X213247D01*
X207650Y320049D02*
X213247D01*
X207650Y319599D02*
X213247D01*
X207650Y319149D02*
X213247D01*
X207650Y318699D02*
X213247D01*
X207650Y318249D02*
X213247D01*
X207650Y317799D02*
X213247D01*
X207650Y317349D02*
X213247D01*
X207650Y316899D02*
X213247D01*
X207650Y315099D02*
X213247D01*
X207650Y314649D02*
X213247D01*
X207650Y314199D02*
X213247D01*
X207650Y313749D02*
X213247D01*
X207650Y313299D02*
X213247D01*
X207650Y312849D02*
X213247D01*
X207650Y312399D02*
X213247D01*
X207650Y311949D02*
X213247D01*
X207650Y311499D02*
X213247D01*
X207650Y311049D02*
X213247D01*
X207650Y309249D02*
X213247D01*
X207650Y308799D02*
X213247D01*
X207650Y308349D02*
X213247D01*
X207650Y307899D02*
X213247D01*
X207650Y307449D02*
X213247D01*
X207650Y306999D02*
X213247D01*
X207650Y306549D02*
X213247D01*
X207650Y306099D02*
X213247D01*
X207650Y305649D02*
X213247D01*
X207650Y305199D02*
X213247D01*
X207650Y303399D02*
X213247D01*
X207650Y302949D02*
X213247D01*
X207650Y302499D02*
X213247D01*
X207650Y302049D02*
X213247D01*
X207650Y301599D02*
X213247D01*
X207650Y301149D02*
X213247D01*
X207650Y300699D02*
X213247D01*
X207650Y300249D02*
X213247D01*
X207650Y299799D02*
X213247D01*
X207650Y299349D02*
X213247D01*
X207650Y297549D02*
X213247D01*
X207650Y297099D02*
X213247D01*
X207650Y296649D02*
X213247D01*
X207650Y296199D02*
X213247D01*
X207707Y295749D02*
X213247D01*
X210559Y295299D02*
X213247D01*
X211068Y294849D02*
X213247D01*
X211361Y294399D02*
X213247D01*
X211525Y293949D02*
X213247D01*
X211589Y293499D02*
X213247D01*
X211591Y293049D02*
X213247D01*
X211602Y292599D02*
X213179D01*
X225558Y315999D02*
X278272D01*
X225570Y321849D02*
X278259D01*
X225582Y327699D02*
X278248D01*
X225582Y339849D02*
X278248D01*
X225591Y333549D02*
X278238D01*
X225592Y333999D02*
X278238D01*
X225600Y339399D02*
X278229D01*
X225600Y328149D02*
X278229D01*
X225607Y322299D02*
X278222D01*
X225613Y316449D02*
X278217D01*
X225621Y321399D02*
X278208D01*
X225621Y340299D02*
X278208D01*
X225621Y338949D02*
X278208D01*
X225621Y338499D02*
X278208D01*
X225621Y338049D02*
X278208D01*
X225621Y337599D02*
X278208D01*
X225621Y337149D02*
X278208D01*
X225621Y336699D02*
X278208D01*
X225621Y336249D02*
X278208D01*
X225621Y335799D02*
X278208D01*
X225621Y335349D02*
X278208D01*
X225621Y334899D02*
X278208D01*
X225621Y334449D02*
X278208D01*
X225621Y333099D02*
X278208D01*
X225621Y332649D02*
X278208D01*
X225621Y332199D02*
X278208D01*
X225621Y331749D02*
X278208D01*
X225621Y331299D02*
X278208D01*
X225621Y330849D02*
X278208D01*
X225621Y330399D02*
X278208D01*
X225621Y329949D02*
X278208D01*
X225621Y329499D02*
X278208D01*
X225621Y329049D02*
X278208D01*
X225621Y328599D02*
X278208D01*
X225621Y327249D02*
X278208D01*
X225621Y326799D02*
X278208D01*
X225621Y326349D02*
X278208D01*
X225621Y325899D02*
X278208D01*
X225621Y325449D02*
X278208D01*
X225621Y324999D02*
X278208D01*
X225621Y324549D02*
X278208D01*
X225621Y324099D02*
X278208D01*
X225621Y323649D02*
X278208D01*
X225621Y323199D02*
X278208D01*
X225621Y322749D02*
X278208D01*
X225621Y320949D02*
X278208D01*
X225621Y320499D02*
X278208D01*
X225621Y320049D02*
X278208D01*
X225621Y319599D02*
X278208D01*
X225621Y319149D02*
X278208D01*
X225621Y318699D02*
X278208D01*
X225621Y318249D02*
X278208D01*
X225621Y317799D02*
X278208D01*
X225621Y317349D02*
X278208D01*
X225621Y316899D02*
X278208D01*
X225620Y315549D02*
X267819D01*
X225621Y315099D02*
X267098D01*
X238961Y314649D02*
X266639D01*
X239817Y314199D02*
X266189D01*
X242621Y313749D02*
X265739D01*
X243243Y313299D02*
X265289D01*
X243693Y312849D02*
X264839D01*
X244143Y312399D02*
X264389D01*
X244593Y311949D02*
X263939D01*
X245043Y311499D02*
X263489D01*
X245470Y311049D02*
X263039D01*
X245760Y310599D02*
X262589D01*
X245940Y310149D02*
X262139D01*
X247211Y309699D02*
X261689D01*
X248146Y309249D02*
X261239D01*
X248680Y308799D02*
X260789D01*
X249047Y308349D02*
X260339D01*
X249308Y307899D02*
X259889D01*
X249487Y307449D02*
X259439D01*
X249598Y306999D02*
X258989D01*
X249647Y306549D02*
X258539D01*
X249637Y306099D02*
X258089D01*
X249567Y305649D02*
X257639D01*
X249444Y305199D02*
X257189D01*
X249771Y304749D02*
X256739D01*
X250221Y304299D02*
X256289D01*
X250600Y303849D02*
X255839D01*
X250843Y303399D02*
X255389D01*
X250986Y302949D02*
X254939D01*
X251047Y302499D02*
X254489D01*
X251050Y302049D02*
X254039D01*
X251050Y301599D02*
X253589D01*
X251050Y301149D02*
X253139D01*
X251050Y300699D02*
X252689D01*
X251050Y300249D02*
X252239D01*
X251050Y299799D02*
X251789D01*
X225621Y306099D02*
X237950D01*
X225621Y305649D02*
X237950D01*
X225621Y305199D02*
X237950D01*
X225621Y306549D02*
X237946D01*
X225620Y304749D02*
X237900D01*
X225621Y297549D02*
X237779D01*
X225621Y306999D02*
X237658D01*
X225621Y297099D02*
X237511D01*
X225621Y307449D02*
X237426D01*
X225621Y307899D02*
X237263D01*
X225621Y296649D02*
X237061D01*
X225621Y314649D02*
X236639D01*
X225621Y296199D02*
X236611D01*
X225608Y297999D02*
X236314D01*
X225621Y308349D02*
X236190D01*
X225621Y295749D02*
X236161D01*
X225556Y304299D02*
X236083D01*
X225621Y314199D02*
X235783D01*
X225621Y295299D02*
X235711D01*
X225621Y308799D02*
X235534D01*
X225569Y298449D02*
X235518D01*
X225613Y303849D02*
X235389D01*
X225621Y313749D02*
X235273D01*
X225621Y294849D02*
X235261D01*
X225621Y309249D02*
X235103D01*
X225621Y298899D02*
X235030D01*
X225621Y303399D02*
X234941D01*
X225621Y313299D02*
X234919D01*
X225621Y294399D02*
X234811D01*
X225617Y309699D02*
X234799D01*
X225621Y299349D02*
X234689D01*
X225621Y312849D02*
X234669D01*
X225621Y302949D02*
X234626D01*
X225551Y310149D02*
X234585D01*
X225621Y312399D02*
X234498D01*
X225621Y299799D02*
X234447D01*
X225617Y310599D02*
X234444D01*
X225621Y302499D02*
X234404D01*
X225621Y311949D02*
X234394D01*
X225621Y311049D02*
X234368D01*
X225621Y293949D02*
X234361D01*
X225621Y311499D02*
X234351D01*
X225621Y300249D02*
X234284D01*
X225621Y302049D02*
X234256D01*
X225621Y300699D02*
X234187D01*
X225621Y301599D02*
X234173D01*
X225621Y301149D02*
X234150D01*
X225621Y293499D02*
X233911D01*
X225621Y293049D02*
X233461D01*
X225581Y292599D02*
X233011D01*
X225601Y292149D02*
X232561D01*
X225621Y291699D02*
X232111D01*
X225621Y291249D02*
X231661D01*
X225621Y290799D02*
X231211D01*
X225621Y290349D02*
X230761D01*
X225621Y289899D02*
X230311D01*
X225627Y289449D02*
X229861D01*
X258946Y292599D02*
X278241D01*
X258496Y292149D02*
X278229D01*
X258046Y291699D02*
X278208D01*
X257596Y291249D02*
X278208D01*
X257146Y290799D02*
X278208D01*
X256696Y290349D02*
X278208D01*
X256246Y289899D02*
X278208D01*
X255957Y289449D02*
X278203D01*
X378367Y243999D02*
X383970D01*
X378047Y244449D02*
X383970D01*
X378550Y243549D02*
X383969D01*
X377477Y244899D02*
X383968D01*
X378631Y243099D02*
X383967D01*
X358438Y245349D02*
X383964D01*
X378637Y242649D02*
X383963D01*
X358386Y245799D02*
X383959D01*
X378637Y242199D02*
X383957D01*
X372540Y246249D02*
X383953D01*
X378637Y241749D02*
X383950D01*
X373917Y246699D02*
X383945D01*
X378637Y241299D02*
X383941D01*
X374775Y247149D02*
X383935D01*
X378637Y240849D02*
X383930D01*
X375426Y247599D02*
X383924D01*
X378637Y240399D02*
X383919D01*
X375953Y248049D02*
X383911D01*
X378637Y239949D02*
X383905D01*
X376392Y248499D02*
X383897D01*
X378637Y239499D02*
X383890D01*
X376763Y248949D02*
X383881D01*
X378637Y239049D02*
X383874D01*
X377078Y249399D02*
X383864D01*
X378637Y238599D02*
X383856D01*
X377346Y249849D02*
X383845D01*
X378637Y238149D02*
X383836D01*
X377573Y250299D02*
X383824D01*
X378637Y237699D02*
X383815D01*
X377762Y250749D02*
X383802D01*
X378637Y237249D02*
X383792D01*
X377916Y251199D02*
X383779D01*
X378637Y236799D02*
X383768D01*
X378039Y251649D02*
X383753D01*
X378637Y236349D02*
X383742D01*
X378131Y252099D02*
X383727D01*
X378637Y235899D02*
X383715D01*
X378195Y252549D02*
X383699D01*
X378637Y235449D02*
X383686D01*
X378229Y252999D02*
X383669D01*
X378637Y234999D02*
X383656D01*
X378236Y253449D02*
X383638D01*
X378637Y234549D02*
X383624D01*
X378215Y253899D02*
X383605D01*
X378637Y234099D02*
X383590D01*
X378165Y254349D02*
X383570D01*
X378637Y233649D02*
X383555D01*
X378087Y254799D02*
X383534D01*
X378637Y233199D02*
X383519D01*
X377978Y255249D02*
X383497D01*
X378630Y232749D02*
X383480D01*
X377839Y255699D02*
X383458D01*
X378546Y232299D02*
X383441D01*
X377667Y256149D02*
X383417D01*
X378360Y231849D02*
X383399D01*
X377458Y256599D02*
X383375D01*
X378035Y231399D02*
X383357D01*
X377211Y257049D02*
X383331D01*
X377452Y230949D02*
X383312D01*
X376919Y257499D02*
X383286D01*
X362150Y230499D02*
X383266D01*
X376576Y257949D02*
X383239D01*
X374895Y230049D02*
X383219D01*
X376171Y258399D02*
X383191D01*
X375833Y229599D02*
X383170D01*
X375689Y258849D02*
X383141D01*
X376255Y229149D02*
X383119D01*
X375103Y259299D02*
X383089D01*
X376501Y228699D02*
X383067D01*
X374359Y259749D02*
X383036D01*
X376632Y228249D02*
X383013D01*
X373308Y260199D02*
X382981D01*
X376667Y227799D02*
X382958D01*
X362150Y260649D02*
X382925D01*
X376667Y227349D02*
X382901D01*
X362150Y261099D02*
X382867D01*
X376667Y226899D02*
X382842D01*
X362150Y261549D02*
X382808D01*
X376667Y226449D02*
X382782D01*
X362150Y261999D02*
X382747D01*
X376667Y225999D02*
X382720D01*
X362150Y262449D02*
X382684D01*
X376667Y225549D02*
X382657D01*
X363266Y262899D02*
X382620D01*
X376667Y225099D02*
X382592D01*
X363922Y263349D02*
X382554D01*
X376667Y224649D02*
X382526D01*
X364275Y263799D02*
X382487D01*
X376667Y224199D02*
X382458D01*
X364480Y264249D02*
X382418D01*
X376667Y223749D02*
X382388D01*
X364578Y264699D02*
X382348D01*
X376667Y223299D02*
X382317D01*
X364592Y265149D02*
X382275D01*
X376667Y222849D02*
X382244D01*
X364592Y265599D02*
X382202D01*
X376667Y222399D02*
X382170D01*
X364592Y266049D02*
X382126D01*
X376667Y221949D02*
X382094D01*
X364592Y266499D02*
X382049D01*
X376667Y221499D02*
X382016D01*
X364592Y266949D02*
X381971D01*
X376667Y221049D02*
X381937D01*
X364592Y267399D02*
X381891D01*
X376667Y220599D02*
X381856D01*
X364592Y267849D02*
X381809D01*
X376667Y220149D02*
X381774D01*
X364592Y268299D02*
X381726D01*
X376667Y219699D02*
X381690D01*
X364592Y268749D02*
X381641D01*
X376667Y219249D02*
X381604D01*
X364592Y269199D02*
X381554D01*
X376667Y218799D02*
X381517D01*
X364592Y269649D02*
X381466D01*
X376667Y218349D02*
X381428D01*
X364592Y270099D02*
X381376D01*
X376667Y217899D02*
X381337D01*
X364592Y270549D02*
X381284D01*
X376667Y217449D02*
X381245D01*
X364592Y270999D02*
X381191D01*
X376667Y216999D02*
X381151D01*
X364592Y271449D02*
X381096D01*
X376667Y216549D02*
X381055D01*
X364592Y271899D02*
X381000D01*
X376667Y216099D02*
X380958D01*
X364592Y272349D02*
X380902D01*
X376667Y215649D02*
X380860D01*
X364592Y272799D02*
X380802D01*
X376662Y215199D02*
X380759D01*
X364592Y273249D02*
X380701D01*
X376586Y214749D02*
X380657D01*
X364592Y273699D02*
X380598D01*
X376407Y214299D02*
X380553D01*
X364592Y274149D02*
X380493D01*
X376093Y213849D02*
X380448D01*
X364592Y274599D02*
X380387D01*
X375538Y213399D02*
X380341D01*
X364592Y275049D02*
X380278D01*
X309765Y212949D02*
X380232D01*
X364592Y275499D02*
X380169D01*
X310215Y212499D02*
X380121D01*
X364592Y275949D02*
X380057D01*
X310665Y212049D02*
X380009D01*
X364592Y276399D02*
X379944D01*
X311115Y211599D02*
X379896D01*
X364592Y276849D02*
X379829D01*
X311565Y211149D02*
X379780D01*
X364592Y277299D02*
X379713D01*
X312015Y210699D02*
X379663D01*
X364572Y277749D02*
X379595D01*
X353290Y210249D02*
X379544D01*
X364464Y278199D02*
X379475D01*
X354797Y209799D02*
X379423D01*
X364246Y278649D02*
X379353D01*
X355365Y209349D02*
X379301D01*
X363873Y279099D02*
X379230D01*
X355815Y208899D02*
X379177D01*
X363153Y279549D02*
X379105D01*
X356265Y208449D02*
X379051D01*
X292650Y279999D02*
X378978D01*
X356715Y207999D02*
X378924D01*
X292650Y280449D02*
X378850D01*
X357165Y207549D02*
X378795D01*
X292650Y280899D02*
X378720D01*
X357615Y207099D02*
X378664D01*
X292650Y281349D02*
X378588D01*
X358065Y206649D02*
X378531D01*
X292650Y281799D02*
X378454D01*
X358515Y206199D02*
X378396D01*
X292650Y282249D02*
X378318D01*
X358965Y205749D02*
X378260D01*
X292650Y282699D02*
X378181D01*
X359339Y205299D02*
X378122D01*
X292650Y283149D02*
X378042D01*
X359592Y204849D02*
X377983D01*
X292650Y283599D02*
X377902D01*
X359756Y204399D02*
X377841D01*
X292650Y284049D02*
X377759D01*
X359845Y203949D02*
X377698D01*
X292650Y284499D02*
X377615D01*
X359868Y203499D02*
X377553D01*
X292650Y284949D02*
X377469D01*
X360672Y203049D02*
X377406D01*
X292650Y285399D02*
X377321D01*
X361316Y202599D02*
X377257D01*
X292650Y285849D02*
X377171D01*
X361708Y202149D02*
X377107D01*
X292650Y286299D02*
X377020D01*
X361967Y201699D02*
X376955D01*
X292650Y286749D02*
X376867D01*
X362129Y201249D02*
X376801D01*
X292609Y287199D02*
X376712D01*
X362212Y200799D02*
X376645D01*
X292483Y287649D02*
X376555D01*
X362226Y200349D02*
X376487D01*
X292255Y288099D02*
X376396D01*
X362226Y199899D02*
X376328D01*
X291886Y288549D02*
X376235D01*
X362226Y199449D02*
X376166D01*
X291242Y288999D02*
X376073D01*
X362226Y198999D02*
X376003D01*
X290582Y289449D02*
X375909D01*
X362226Y198549D02*
X375838D01*
X290582Y289899D02*
X375743D01*
X362226Y198099D02*
X375671D01*
X290582Y290349D02*
X375575D01*
X362226Y197649D02*
X375502D01*
X290582Y290799D02*
X375405D01*
X362226Y197199D02*
X375332D01*
X290582Y291249D02*
X375233D01*
X362226Y196749D02*
X375159D01*
X290582Y291699D02*
X375059D01*
X362226Y196299D02*
X374985D01*
X290561Y292149D02*
X374884D01*
X362226Y195849D02*
X374808D01*
X290541Y292599D02*
X374706D01*
X362226Y195399D02*
X374630D01*
X290582Y293049D02*
X374527D01*
X362226Y194949D02*
X374450D01*
X290582Y293499D02*
X374346D01*
X362179Y194499D02*
X374268D01*
X290582Y293949D02*
X374162D01*
X362057Y194049D02*
X374084D01*
X290582Y294399D02*
X373977D01*
X362026Y193599D02*
X373898D01*
X290582Y294849D02*
X373790D01*
X362026Y193149D02*
X373710D01*
X290582Y295299D02*
X373601D01*
X362026Y192699D02*
X373520D01*
X290582Y295749D02*
X373410D01*
X362026Y192249D02*
X373328D01*
X290582Y296199D02*
X373217D01*
X362026Y191799D02*
X373134D01*
X290582Y296649D02*
X373022D01*
X362026Y191349D02*
X372938D01*
X290582Y297099D02*
X372825D01*
X362026Y190899D02*
X372741D01*
X290582Y297549D02*
X372626D01*
X362026Y190449D02*
X372541D01*
X290568Y297999D02*
X372425D01*
X362026Y189999D02*
X372339D01*
X290530Y298449D02*
X372222D01*
X362026Y189549D02*
X372135D01*
X290582Y298899D02*
X372017D01*
X362026Y189099D02*
X371929D01*
X290582Y299349D02*
X371810D01*
X362026Y188649D02*
X371721D01*
X290582Y299799D02*
X371601D01*
X362026Y188199D02*
X371511D01*
X290582Y300249D02*
X371389D01*
X362026Y187749D02*
X371299D01*
X290582Y300699D02*
X371176D01*
X362026Y187299D02*
X371084D01*
X290582Y301149D02*
X370960D01*
X362026Y186849D02*
X370868D01*
X290582Y301599D02*
X370743D01*
X362026Y186399D02*
X370650D01*
X290582Y302049D02*
X370523D01*
X362026Y185949D02*
X370429D01*
X290582Y302499D02*
X370302D01*
X362026Y185499D02*
X370206D01*
X290582Y302949D02*
X370078D01*
X362026Y185049D02*
X369982D01*
X290582Y303399D02*
X369852D01*
X362026Y184599D02*
X369755D01*
X290574Y303849D02*
X369623D01*
X362026Y184149D02*
X369525D01*
X358319Y246249D02*
X369434D01*
X290517Y304299D02*
X369393D01*
X362026Y183699D02*
X369294D01*
X336007Y304749D02*
X369160D01*
X362026Y183249D02*
X369061D01*
X336862Y305199D02*
X368926D01*
X362026Y182799D02*
X368825D01*
X337457Y305649D02*
X368689D01*
X362150Y260199D02*
X368665D01*
X362026Y182349D02*
X368587D01*
X337912Y306099D02*
X368449D01*
X362026Y181899D02*
X368347D01*
X338272Y306549D02*
X368208D01*
X362026Y181449D02*
X368104D01*
X358235Y246699D02*
X368057D01*
X338560Y306999D02*
X367964D01*
X362026Y180999D02*
X367860D01*
X338789Y307449D02*
X367718D01*
X362150Y259749D02*
X367615D01*
X362026Y180549D02*
X367613D01*
X338967Y307899D02*
X367470D01*
X362026Y180099D02*
X367363D01*
X339099Y308349D02*
X367219D01*
X358135Y247149D02*
X367199D01*
X362026Y179649D02*
X367112D01*
X339189Y308799D02*
X366966D01*
X362150Y259299D02*
X366871D01*
X362026Y179199D02*
X366858D01*
X339238Y309249D02*
X366711D01*
X362026Y178749D02*
X366602D01*
X358019Y247599D02*
X366547D01*
X339249Y309699D02*
X366453D01*
X362026Y178299D02*
X366343D01*
X362150Y258849D02*
X366285D01*
X339221Y310149D02*
X366194D01*
X362026Y177849D02*
X366082D01*
X357884Y248049D02*
X366020D01*
X339154Y310599D02*
X365931D01*
X362026Y177399D02*
X365819D01*
X362157Y258399D02*
X365803D01*
X339046Y311049D02*
X365667D01*
X357732Y248499D02*
X365582D01*
X362097Y176949D02*
X365553D01*
X338895Y311499D02*
X365399D01*
X362555Y257949D02*
X365398D01*
X362150Y230949D02*
X365321D01*
X358473Y244899D02*
X365297D01*
X362198Y176499D02*
X365285D01*
X362150Y230049D02*
X365278D01*
X357561Y248949D02*
X365211D01*
X338695Y311949D02*
X365130D01*
X363005Y257499D02*
X365055D01*
X362226Y176049D02*
X365014D01*
X357371Y249399D02*
X364895D01*
X338442Y312399D02*
X364858D01*
X362226Y175599D02*
X364741D01*
X362150Y231399D02*
X364739D01*
X358493Y244449D02*
X364726D01*
X356640Y213399D02*
X364636D01*
X338124Y312849D02*
X364583D01*
X362226Y175149D02*
X364466D01*
X362150Y231849D02*
X364414D01*
X358498Y243999D02*
X364407D01*
X362150Y229599D02*
X364340D01*
X337726Y313299D02*
X364306D01*
X362150Y232299D02*
X364227D01*
X358487Y243549D02*
X364223D01*
X362226Y174699D02*
X364188D01*
X362150Y232749D02*
X364144D01*
X358460Y243099D02*
X364143D01*
X358418Y242649D02*
X364137D01*
X358360Y242199D02*
X364137D01*
X362150Y233649D02*
X364137D01*
X362150Y233199D02*
X364137D01*
X357196Y213849D02*
X364080D01*
X362402Y234099D02*
X364072D01*
X358285Y241749D02*
X364059D01*
X337217Y313749D02*
X364027D01*
X362150Y229149D02*
X363919D01*
X362226Y174249D02*
X363907D01*
X357509Y214299D02*
X363767D01*
X336533Y314199D02*
X363745D01*
X362150Y228699D02*
X363672D01*
X362226Y173799D02*
X363624D01*
X357688Y214749D02*
X363588D01*
X362150Y228249D02*
X363541D01*
X357765Y215199D02*
X363511D01*
X362150Y227799D02*
X363506D01*
X362150Y227349D02*
X363506D01*
X362150Y226899D02*
X363506D01*
X362150Y226449D02*
X363506D01*
X362150Y225999D02*
X363506D01*
X362150Y225549D02*
X363506D01*
X362150Y225099D02*
X363506D01*
X362150Y224649D02*
X363506D01*
X362145Y224199D02*
X363506D01*
X362093Y223749D02*
X363506D01*
X361985Y223299D02*
X363506D01*
X361814Y222849D02*
X363506D01*
X361571Y222399D02*
X363506D01*
X361238Y221949D02*
X363506D01*
X360802Y221499D02*
X363506D01*
X360352Y221049D02*
X363506D01*
X359902Y220599D02*
X363506D01*
X359436Y220149D02*
X363506D01*
X358779Y219699D02*
X363506D01*
X357799Y219249D02*
X363506D01*
X357770Y218799D02*
X363506D01*
X357770Y218349D02*
X363506D01*
X357770Y217899D02*
X363506D01*
X357770Y217449D02*
X363506D01*
X357770Y216999D02*
X363506D01*
X357770Y216549D02*
X363506D01*
X357770Y216099D02*
X363506D01*
X357770Y215649D02*
X363506D01*
X335440Y314649D02*
X363461D01*
X362226Y173349D02*
X363339D01*
X290582Y315099D02*
X363173D01*
X362226Y172899D02*
X363050D01*
X290581Y315549D02*
X362884D01*
X362227Y172449D02*
X362760D01*
X290518Y315999D02*
X362592D01*
X290573Y316449D02*
X362297D01*
X290582Y316899D02*
X361999D01*
X290582Y317349D02*
X361699D01*
X290582Y317799D02*
X361396D01*
X290582Y318249D02*
X361091D01*
X290582Y318699D02*
X360782D01*
X357160Y249849D02*
X360477D01*
X290582Y319149D02*
X360471D01*
X290582Y319599D02*
X360158D01*
X290582Y320049D02*
X359841D01*
X356928Y250299D02*
X359662D01*
X290582Y320499D02*
X359522D01*
X358195Y241299D02*
X359282D01*
X290582Y320949D02*
X359199D01*
X356673Y250749D02*
X359148D01*
X290582Y321399D02*
X358874D01*
X356394Y251199D02*
X358698D01*
X358203Y240849D02*
X358575D01*
X290531Y321849D02*
X358546D01*
X356088Y251649D02*
X358248D01*
X290568Y322299D02*
X358215D01*
X290582Y322749D02*
X357881D01*
X355754Y252099D02*
X357798D01*
X290582Y323199D02*
X357544D01*
X355388Y252549D02*
X357348D01*
X290582Y323649D02*
X357204D01*
X354987Y252999D02*
X356898D01*
X290582Y324099D02*
X356861D01*
X290582Y324549D02*
X356515D01*
X354546Y253449D02*
X356448D01*
X290582Y324999D02*
X356166D01*
X354058Y253899D02*
X355998D01*
X290582Y325449D02*
X355814D01*
X353517Y254349D02*
X355562D01*
X290582Y325899D02*
X355458D01*
X353450Y254799D02*
X355211D01*
X290582Y326349D02*
X355100D01*
X290582Y326799D02*
X354738D01*
X290582Y327249D02*
X354373D01*
X290542Y327699D02*
X354004D01*
X290561Y328149D02*
X353632D01*
X290582Y328599D02*
X353257D01*
X344098Y262449D02*
X353026D01*
X290582Y329049D02*
X352878D01*
X344255Y279549D02*
X352869D01*
X344369Y262899D02*
X352756D01*
X290582Y329499D02*
X352496D01*
X344975Y279099D02*
X352149D01*
X290582Y329949D02*
X352111D01*
X345025Y263349D02*
X352100D01*
X345348Y278649D02*
X351776D01*
X345377Y263799D02*
X351747D01*
X290582Y330399D02*
X351722D01*
X345566Y278199D02*
X351559D01*
X345582Y264249D02*
X351542D01*
X345674Y277749D02*
X351450D01*
X345680Y264699D02*
X351444D01*
X345694Y277299D02*
X351430D01*
X345694Y276849D02*
X351430D01*
X345694Y276399D02*
X351430D01*
X345694Y275949D02*
X351430D01*
X345694Y275499D02*
X351430D01*
X345694Y275049D02*
X351430D01*
X345694Y274599D02*
X351430D01*
X345694Y274149D02*
X351430D01*
X345694Y273699D02*
X351430D01*
X345694Y273249D02*
X351430D01*
X345694Y272799D02*
X351430D01*
X345694Y272349D02*
X351430D01*
X345694Y271899D02*
X351430D01*
X345694Y271449D02*
X351430D01*
X345694Y270999D02*
X351430D01*
X345694Y270549D02*
X351430D01*
X345694Y270099D02*
X351430D01*
X345694Y269649D02*
X351430D01*
X345694Y269199D02*
X351430D01*
X345694Y268749D02*
X351430D01*
X345694Y268299D02*
X351430D01*
X345694Y267849D02*
X351430D01*
X345694Y267399D02*
X351430D01*
X345694Y266949D02*
X351430D01*
X345694Y266499D02*
X351430D01*
X345694Y266049D02*
X351430D01*
X345694Y265599D02*
X351430D01*
X345694Y265149D02*
X351430D01*
X290582Y330849D02*
X351329D01*
X290582Y331299D02*
X350933D01*
X290582Y331749D02*
X350533D01*
X290582Y332199D02*
X350129D01*
X290582Y332649D02*
X349722D01*
X290582Y333099D02*
X349311D01*
X290552Y333549D02*
X348895D01*
X290552Y333999D02*
X348477D01*
X290582Y334449D02*
X348054D01*
X290582Y334899D02*
X347627D01*
X290582Y335349D02*
X347196D01*
X290582Y335799D02*
X346761D01*
X290582Y336249D02*
X346321D01*
X290582Y336699D02*
X345878D01*
X309315Y213399D02*
X345738D01*
X290582Y337149D02*
X345430D01*
X308880Y213849D02*
X345182D01*
X290582Y337599D02*
X344978D01*
X308850Y214299D02*
X344869D01*
X308850Y214749D02*
X344690D01*
X308850Y215199D02*
X344613D01*
X308850Y217449D02*
X344608D01*
X308850Y216999D02*
X344608D01*
X308850Y216549D02*
X344608D01*
X308850Y216099D02*
X344608D01*
X308850Y215649D02*
X344608D01*
X290582Y338049D02*
X344522D01*
X290582Y338499D02*
X344061D01*
X290582Y338949D02*
X343595D01*
X308850Y217899D02*
X343414D01*
X290561Y339399D02*
X343125D01*
X290542Y339849D02*
X342650D01*
X290582Y340299D02*
X342170D01*
X308850Y218349D02*
X342148D01*
X308850Y218799D02*
X341523D01*
X308850Y219249D02*
X341064D01*
X308850Y219699D02*
X340614D01*
X308850Y220149D02*
X340164D01*
X308850Y220599D02*
X339714D01*
X308850Y221049D02*
X339264D01*
X308850Y221499D02*
X338814D01*
X297650Y262449D02*
X338510D01*
X308850Y221949D02*
X338364D01*
X308850Y222399D02*
X337914D01*
X297627Y261999D02*
X337761D01*
X308850Y222849D02*
X337464D01*
X297543Y261549D02*
X337029D01*
X308850Y223299D02*
X337014D01*
X308850Y223749D02*
X336564D01*
X297395Y261099D02*
X336541D01*
X308850Y224199D02*
X336114D01*
X297172Y260649D02*
X336091D01*
X308850Y224649D02*
X335664D01*
X296856Y260199D02*
X335641D01*
X308850Y225099D02*
X335214D01*
X296408Y259749D02*
X335191D01*
X308850Y225549D02*
X334764D01*
X295711Y259299D02*
X334741D01*
X308850Y225999D02*
X334314D01*
X247450Y258849D02*
X334291D01*
X292650Y279549D02*
X333971D01*
X308850Y226449D02*
X333864D01*
X297614Y262899D02*
X333858D01*
X247450Y258399D02*
X333841D01*
X308850Y226899D02*
X333414D01*
X247450Y257949D02*
X333391D01*
X292650Y279099D02*
X333252D01*
X297517Y263349D02*
X333202D01*
X308850Y227349D02*
X332964D01*
X247450Y257499D02*
X332941D01*
X292650Y278649D02*
X332879D01*
X297354Y263799D02*
X332850D01*
X292650Y278199D02*
X332661D01*
X297113Y264249D02*
X332645D01*
X290582Y314649D02*
X332560D01*
X292650Y277749D02*
X332553D01*
X296850Y264699D02*
X332547D01*
X292650Y277299D02*
X332533D01*
X292650Y276849D02*
X332533D01*
X292637Y276399D02*
X332533D01*
X292550Y275949D02*
X332533D01*
X292369Y275499D02*
X332533D01*
X292070Y275049D02*
X332533D01*
X291579Y274599D02*
X332533D01*
X247675Y274149D02*
X332533D01*
X247450Y273699D02*
X332533D01*
X247450Y273249D02*
X332533D01*
X247450Y272799D02*
X332533D01*
X247450Y272349D02*
X332533D01*
X247450Y271899D02*
X332533D01*
X247450Y271449D02*
X332533D01*
X269793Y270999D02*
X332533D01*
X270991Y270549D02*
X332533D01*
X293319Y270099D02*
X332533D01*
X293899Y269649D02*
X332533D01*
X294349Y269199D02*
X332533D01*
X294799Y268749D02*
X332533D01*
X295249Y268299D02*
X332533D01*
X295699Y267849D02*
X332533D01*
X296146Y267399D02*
X332533D01*
X296481Y266949D02*
X332533D01*
X296693Y266499D02*
X332533D01*
X296812Y266049D02*
X332533D01*
X296850Y265599D02*
X332533D01*
X296850Y265149D02*
X332533D01*
X308850Y227799D02*
X332514D01*
X311015Y257049D02*
X332491D01*
X308850Y228249D02*
X332064D01*
X311669Y256599D02*
X332041D01*
X290580Y304749D02*
X331993D01*
X308850Y228699D02*
X331614D01*
X312099Y256149D02*
X331591D01*
X290582Y314199D02*
X331467D01*
X308850Y229149D02*
X331164D01*
X312403Y255699D02*
X331141D01*
X290582Y305199D02*
X331138D01*
X290582Y313749D02*
X330783D01*
X308850Y229599D02*
X330714D01*
X312616Y255249D02*
X330691D01*
X290582Y305649D02*
X330543D01*
X290582Y313299D02*
X330274D01*
X312756Y254799D02*
X330241D01*
X290582Y306099D02*
X330088D01*
X290582Y312849D02*
X329876D01*
X312832Y254349D02*
X329791D01*
X290582Y306549D02*
X329728D01*
X290582Y312399D02*
X329558D01*
X290582Y306999D02*
X329440D01*
X312849Y253899D02*
X329341D01*
X290582Y311949D02*
X329305D01*
X290582Y307449D02*
X329211D01*
X290582Y311499D02*
X329105D01*
X290582Y307899D02*
X329033D01*
X290582Y311049D02*
X328954D01*
X290582Y308349D02*
X328901D01*
X312806Y253449D02*
X328891D01*
X290577Y310599D02*
X328846D01*
X290582Y308799D02*
X328811D01*
X290511Y310149D02*
X328779D01*
X290582Y309249D02*
X328762D01*
X290578Y309699D02*
X328751D01*
X312702Y252999D02*
X328441D01*
X308850Y230049D02*
X322957D01*
X312530Y252549D02*
X322721D01*
X308850Y230499D02*
X321857D01*
X312279Y252099D02*
X321784D01*
X308850Y230949D02*
X321365D01*
X312050Y251649D02*
X321363D01*
X312050Y251199D02*
X321092D01*
X308850Y231399D02*
X321081D01*
X312050Y250749D02*
X320832D01*
X308850Y231849D02*
X320805D01*
X312138Y250299D02*
X320647D01*
X308850Y232299D02*
X320601D01*
X312431Y249849D02*
X320525D01*
X308850Y232749D02*
X320464D01*
X308850Y233199D02*
X320385D01*
X312635Y249399D02*
X314151D01*
X308850Y233649D02*
X313816D01*
X308850Y241299D02*
X313641D01*
X308850Y241749D02*
X313464D01*
X312768Y248949D02*
X313364D01*
X308850Y234099D02*
X313218D01*
X308850Y240849D02*
X313141D01*
X308850Y242199D02*
X313030D01*
X308850Y234549D02*
X312887D01*
X308850Y240399D02*
X312842D01*
X308850Y242649D02*
X312777D01*
X308850Y234999D02*
X312696D01*
X308850Y239949D02*
X312673D01*
X308850Y243099D02*
X312641D01*
X308850Y235449D02*
X312610D01*
X308850Y239499D02*
X312604D01*
X311877Y245799D02*
X312601D01*
X311342Y245349D02*
X312601D01*
X310402Y244899D02*
X312601D01*
X308727Y244449D02*
X312601D01*
X308823Y243999D02*
X312601D01*
X308850Y243549D02*
X312601D01*
X308850Y239049D02*
X312601D01*
X308850Y238599D02*
X312601D01*
X308850Y238149D02*
X312601D01*
X308850Y237699D02*
X312601D01*
X308850Y237249D02*
X312601D01*
X308850Y236799D02*
X312601D01*
X308850Y236349D02*
X312601D01*
X308850Y235899D02*
X312601D01*
X247450Y257049D02*
X307785D01*
X247450Y256599D02*
X307131D01*
X305232Y251649D02*
X306750D01*
X305156Y251199D02*
X306750D01*
X305015Y250749D02*
X306750D01*
X247450Y256149D02*
X306701D01*
X304801Y250299D02*
X306662D01*
X305249Y252099D02*
X306521D01*
X247450Y255699D02*
X306397D01*
X304497Y249849D02*
X306369D01*
X305206Y252549D02*
X306270D01*
X302961Y255249D02*
X306184D01*
X304066Y249399D02*
X306165D01*
X305102Y252999D02*
X306098D01*
X303817Y254799D02*
X306044D01*
X303410Y248949D02*
X306032D01*
X304931Y253449D02*
X305994D01*
X304327Y254349D02*
X305968D01*
X303294Y248499D02*
X305963D01*
X304681Y253899D02*
X305951D01*
X305495Y248049D02*
X305883D01*
X293961Y255249D02*
X300639D01*
X294817Y254799D02*
X299783D01*
X247450Y259299D02*
X292689D01*
X247450Y259749D02*
X291992D01*
X247450Y255249D02*
X291639D01*
X247450Y260199D02*
X291544D01*
X271067Y264699D02*
X291353D01*
X270019Y264249D02*
X291287D01*
X247450Y260649D02*
X291228D01*
X247450Y263799D02*
X291046D01*
X247450Y261099D02*
X291005D01*
X247450Y263349D02*
X290883D01*
X247450Y261549D02*
X290857D01*
X271704Y265149D02*
X290824D01*
X247450Y262899D02*
X290786D01*
X289422Y254799D02*
X290783D01*
X247450Y261999D02*
X290773D01*
X247450Y262449D02*
X290750D01*
X289912Y254349D02*
X290273D01*
X284622Y254799D02*
X284897D01*
X279670D02*
X280097D01*
X274914D02*
X275337D01*
X270222D02*
X270508D01*
X247450Y270999D02*
X268607D01*
X247450Y264249D02*
X268381D01*
X247450Y270549D02*
X267409D01*
X247450Y264699D02*
X267333D01*
X247450Y270099D02*
X266821D01*
X247450Y265149D02*
X266772D01*
X247450Y269649D02*
X266424D01*
X247450Y265599D02*
X266390D01*
X247450Y269199D02*
X266143D01*
X247450Y266049D02*
X266118D01*
X247450Y268749D02*
X265947D01*
X247450Y266499D02*
X265930D01*
X247450Y268299D02*
X265821D01*
X247450Y266949D02*
X265812D01*
X247450Y267849D02*
X265759D01*
X247450Y267399D02*
X265756D01*
X247450Y254799D02*
X265697D01*
X247450Y254349D02*
X265208D01*
X247450Y253899D02*
X264628D01*
X247450Y253449D02*
X264101D01*
X247450Y252999D02*
X263651D01*
X247450Y252549D02*
X263250D01*
X247450Y252099D02*
X262988D01*
X247450Y251649D02*
X262831D01*
X247450Y251199D02*
X262757D01*
X247450Y250749D02*
X262750D01*
X247450Y250299D02*
X262750D01*
X247450Y249849D02*
X262750D01*
X168095Y327899D02*
X186477D01*
X167645Y327449D02*
X186477D01*
X167195Y326999D02*
X186477D01*
X166745Y326549D02*
X186477D01*
X166295Y326099D02*
X186477D01*
X165845Y325649D02*
X186477D01*
X165395Y325199D02*
X186477D01*
X164945Y324749D02*
X186477D01*
X164495Y324299D02*
X186477D01*
X183146Y323849D02*
X186477D01*
X184313Y323399D02*
X186477D01*
X185019Y322949D02*
X186471D01*
X168624Y328349D02*
X186253D01*
X185539Y322499D02*
X186041D01*
X175272Y323849D02*
X180561D01*
X176439Y323399D02*
X179394D01*
X177145Y322949D02*
X178688D01*
X177665Y322499D02*
X178167D01*
X164045Y323849D02*
X172687D01*
X163595Y323399D02*
X171520D01*
X163145Y322949D02*
X170814D01*
X162695Y322499D02*
X170293D01*
X155045Y314849D02*
X170150D01*
X160005Y314399D02*
X170150D01*
X161021Y313949D02*
X170150D01*
X161681Y313499D02*
X170150D01*
X162175Y313049D02*
X170150D01*
X162563Y312599D02*
X170150D01*
X162873Y312149D02*
X170150D01*
X163120Y311699D02*
X170150D01*
X163314Y311249D02*
X170150D01*
X163460Y310799D02*
X170150D01*
X163564Y310349D02*
X170150D01*
X163626Y309899D02*
X170150D01*
X163650Y309449D02*
X170150D01*
X163635Y308999D02*
X170150D01*
X163581Y308549D02*
X170150D01*
X163486Y308099D02*
X170150D01*
X163349Y307649D02*
X170150D01*
X163166Y307199D02*
X170150D01*
X162931Y306749D02*
X170150D01*
X162636Y306299D02*
X170150D01*
X162267Y305849D02*
X170150D01*
X161799Y305399D02*
X170150D01*
X161184Y304949D02*
X170150D01*
X160281Y304499D02*
X170150D01*
X144270Y304049D02*
X170150D01*
X144250Y303599D02*
X170150D01*
X144250Y303149D02*
X170150D01*
X144281Y302699D02*
X170150D01*
X158101Y302249D02*
X170150D01*
X158595Y301799D02*
X170150D01*
X158880Y301349D02*
X170150D01*
X159039Y300899D02*
X170150D01*
X159099Y300449D02*
X170150D01*
X159100Y299999D02*
X170150D01*
X159100Y299549D02*
X170150D01*
X159100Y299099D02*
X170150D01*
X168215Y298649D02*
X170150D01*
X168869Y298199D02*
X170150D01*
X169299Y297749D02*
X170150D01*
X169603Y297299D02*
X170150D01*
X155495Y315299D02*
X170032D01*
X162245Y322049D02*
X169887D01*
X155945Y315749D02*
X169679D01*
X161795Y321599D02*
X169563D01*
X156395Y316199D02*
X169397D01*
X161345Y321149D02*
X169304D01*
X156845Y316649D02*
X169173D01*
X160895Y320699D02*
X169100D01*
X157295Y317099D02*
X168999D01*
X160445Y320249D02*
X168945D01*
X157745Y317549D02*
X168871D01*
X159995Y319799D02*
X168833D01*
X158195Y317999D02*
X168785D01*
X159545Y319349D02*
X168762D01*
X158645Y318449D02*
X168739D01*
X159095Y318899D02*
X168731D01*
X159100Y298649D02*
X164985D01*
X159100Y298199D02*
X164331D01*
X159100Y293249D02*
X163950D01*
X159100Y292799D02*
X163950D01*
X159095Y292349D02*
X163950D01*
X159017Y291899D02*
X163950D01*
X158838Y291449D02*
X163950D01*
X158528Y290999D02*
X163950D01*
X159100Y297749D02*
X163901D01*
X159100Y293699D02*
X163721D01*
X159100Y297299D02*
X163597D01*
X159100Y294149D02*
X163470D01*
X159100Y296849D02*
X163384D01*
X159100Y294599D02*
X163298D01*
X159100Y296399D02*
X163244D01*
X159100Y295049D02*
X163194D01*
X159100Y295949D02*
X163168D01*
X159100Y295499D02*
X163151D01*
X154595Y314399D02*
X156795D01*
X144695Y304499D02*
X156519D01*
X154145Y313949D02*
X155779D01*
X145145Y304949D02*
X155616D01*
X153695Y313499D02*
X155119D01*
X145595Y305399D02*
X155001D01*
X153245Y313049D02*
X154625D01*
X146045Y305849D02*
X154533D01*
X152795Y312599D02*
X154237D01*
X146495Y306299D02*
X154164D01*
X152345Y312149D02*
X153927D01*
X146945Y306749D02*
X153869D01*
X151895Y311699D02*
X153680D01*
X147395Y307199D02*
X153634D01*
X151445Y311249D02*
X153486D01*
X147845Y307649D02*
X153451D01*
X150995Y310799D02*
X153340D01*
X148295Y308099D02*
X153314D01*
X150545Y310349D02*
X153236D01*
X148745Y308549D02*
X153219D01*
X150095Y309899D02*
X153174D01*
X149195Y308999D02*
X153165D01*
X149645Y309449D02*
X153150D01*
X169414Y252299D02*
X174350D01*
X169762Y251849D02*
X174350D01*
X170080Y251399D02*
X174350D01*
X170371Y250949D02*
X174350D01*
X170637Y250499D02*
X174350D01*
X170879Y250049D02*
X174350D01*
X171099Y249599D02*
X174350D01*
X171298Y249149D02*
X174350D01*
X169033Y252749D02*
X174104D01*
X168615Y253199D02*
X173654D01*
X171477Y248699D02*
X173589D01*
X168154Y253649D02*
X173204D01*
X167644Y254099D02*
X172754D01*
X171638Y248249D02*
X172654D01*
X167075Y254549D02*
X172304D01*
X171844Y247799D02*
X172111D01*
X166433Y254999D02*
X171854D01*
X165695Y255449D02*
X171404D01*
X164825Y255899D02*
X170954D01*
X163745Y256349D02*
X170504D01*
X162235Y256799D02*
X170054D01*
X134245Y257249D02*
X169604D01*
X134695Y257699D02*
X169154D01*
X135145Y258149D02*
X168704D01*
X135595Y258599D02*
X168254D01*
X136045Y259049D02*
X167804D01*
X158051Y259499D02*
X167416D01*
X158568Y259949D02*
X167167D01*
X158865Y260399D02*
X167019D01*
X159031Y260849D02*
X166954D01*
X158551Y270749D02*
X166950D01*
X158854Y270299D02*
X166950D01*
X159026Y269849D02*
X166950D01*
X159097Y269399D02*
X166950D01*
X159100Y268949D02*
X166950D01*
X159100Y268499D02*
X166950D01*
X159100Y268049D02*
X166950D01*
X159100Y267599D02*
X166950D01*
X159100Y267149D02*
X166950D01*
X159100Y266699D02*
X166950D01*
X159100Y266249D02*
X166950D01*
X159100Y265799D02*
X166950D01*
X159100Y265349D02*
X166950D01*
X159100Y264899D02*
X166950D01*
X159100Y264449D02*
X166950D01*
X159100Y263999D02*
X166950D01*
X159100Y263549D02*
X166950D01*
X159100Y263099D02*
X166950D01*
X159100Y262649D02*
X166950D01*
X159100Y262199D02*
X166950D01*
X159100Y261749D02*
X166950D01*
X159098Y261299D02*
X166950D01*
X163962Y271199D02*
X166854D01*
X133795Y256799D02*
X156308D01*
X133345Y256349D02*
X154798D01*
X132895Y255899D02*
X153718D01*
X132445Y255449D02*
X152848D01*
X131995Y254999D02*
X152111D01*
X131545Y254549D02*
X151468D01*
X143015Y233849D02*
X151183D01*
X131095Y254099D02*
X150899D01*
X142967Y234299D02*
X150656D01*
X130645Y253649D02*
X150389D01*
X142822Y234749D02*
X150170D01*
X130195Y253199D02*
X149929D01*
X142796Y235199D02*
X149730D01*
X129745Y252749D02*
X149510D01*
X142955Y235649D02*
X149329D01*
X129295Y252299D02*
X149129D01*
X143014Y236099D02*
X148964D01*
X128845Y251849D02*
X148781D01*
X143015Y236549D02*
X148630D01*
X128458Y251399D02*
X148463D01*
X143015Y236999D02*
X148325D01*
X128454Y250949D02*
X148172D01*
X143015Y237449D02*
X148046D01*
X128454Y250499D02*
X147907D01*
X143015Y237899D02*
X147792D01*
X128454Y250049D02*
X147664D01*
X143008Y238349D02*
X147560D01*
X128454Y249599D02*
X147444D01*
X142925Y238799D02*
X147350D01*
X128454Y249149D02*
X147245D01*
X142739Y239249D02*
X147160D01*
X128454Y248699D02*
X147066D01*
X142414Y239699D02*
X146989D01*
X128454Y248249D02*
X146905D01*
X141832Y240149D02*
X146837D01*
X128454Y247799D02*
X146763D01*
X131636Y240599D02*
X146703D01*
X128454Y247349D02*
X146639D01*
X128454Y241049D02*
X146587D01*
X128454Y246899D02*
X146531D01*
X128454Y241499D02*
X146487D01*
X128454Y246449D02*
X146441D01*
X128454Y241949D02*
X146404D01*
X128454Y245999D02*
X146366D01*
X128454Y242399D02*
X146337D01*
X128454Y245549D02*
X146308D01*
X128454Y242849D02*
X146286D01*
X128454Y245099D02*
X146265D01*
X128454Y243299D02*
X146251D01*
X128454Y244649D02*
X146238D01*
X128454Y243749D02*
X146231D01*
X128454Y244199D02*
X146227D01*
X136495Y259499D02*
X143839D01*
X136945Y259949D02*
X143321D01*
X137395Y260399D02*
X143025D01*
X137845Y260849D02*
X142858D01*
X138295Y261299D02*
X142792D01*
X141895Y264899D02*
X142789D01*
X141445Y264449D02*
X142789D01*
X140995Y263999D02*
X142789D01*
X140545Y263549D02*
X142789D01*
X140095Y263099D02*
X142789D01*
X139645Y262649D02*
X142789D01*
X139195Y262199D02*
X142789D01*
X138745Y261749D02*
X142789D01*
X142345Y265349D02*
X142732D01*
X136832Y240149D02*
X137199D01*
X184450Y198299D02*
X187032D01*
X184465Y195149D02*
X186998D01*
X184450Y197849D02*
X186988D01*
X184450Y197399D02*
X186988D01*
X184450Y196949D02*
X186988D01*
X184450Y196499D02*
X186988D01*
X184450Y196049D02*
X186988D01*
X184450Y195599D02*
X186988D01*
X184450Y198749D02*
X186527D01*
X184450Y199199D02*
X185721D01*
X184450Y199649D02*
X185238D01*
X144253Y290099D02*
X154796D01*
X144250Y289649D02*
X154605D01*
X144271Y289199D02*
X154365D01*
X144259Y271649D02*
X154780D01*
X144250Y272099D02*
X154628D01*
X144250Y272549D02*
X154378D01*
X144250Y272999D02*
X154244D01*
X144250Y278849D02*
X154230D01*
X144250Y277049D02*
X154226D01*
X144250Y274799D02*
X154216D01*
X144250Y281099D02*
X154214D01*
X144250Y280649D02*
X154212D01*
X144250Y275249D02*
X154210D01*
X144250Y276599D02*
X154207D01*
X144250Y279299D02*
X154207D01*
X144250Y281999D02*
X154207D01*
X144250Y281549D02*
X154207D01*
X144250Y280199D02*
X154207D01*
X144250Y279749D02*
X154207D01*
X144250Y278399D02*
X154207D01*
X144250Y277949D02*
X154207D01*
X144250Y277499D02*
X154207D01*
X144250Y276149D02*
X154207D01*
X144250Y275699D02*
X154207D01*
X144250Y274349D02*
X154207D01*
X144250Y273899D02*
X154207D01*
X144250Y273449D02*
X154207D01*
X144299Y282449D02*
X154207D01*
X162769Y340499D02*
X203950D01*
X162287Y340049D02*
X203950D01*
X161810Y339599D02*
X203950D01*
X161338Y339149D02*
X203950D01*
X160870Y338699D02*
X203950D01*
X160407Y338249D02*
X203950D01*
X159949Y337799D02*
X203950D01*
X159495Y337349D02*
X203950D01*
X159045Y336899D02*
X203950D01*
X158600Y336449D02*
X203950D01*
X158158Y335999D02*
X203950D01*
X157722Y335549D02*
X203950D01*
X157289Y335099D02*
X203950D01*
X189726Y334649D02*
X203950D01*
X190552Y334199D02*
X203950D01*
X191048Y333749D02*
X203950D01*
X191498Y333299D02*
X203950D01*
X191948Y332849D02*
X203950D01*
X192345Y332399D02*
X203950D01*
X192623Y331949D02*
X203950D01*
X192811Y331499D02*
X203950D01*
X192926Y331049D02*
X203950D01*
X192975Y330599D02*
X203950D01*
X192977Y330149D02*
X203950D01*
X192977Y329699D02*
X203950D01*
X192977Y329249D02*
X203950D01*
X192977Y328799D02*
X203950D01*
X192977Y328349D02*
X203950D01*
X192977Y327899D02*
X203950D01*
X192977Y327449D02*
X203950D01*
X192977Y326999D02*
X203950D01*
X192977Y326549D02*
X203950D01*
X192977Y326099D02*
X203950D01*
X192977Y325649D02*
X203950D01*
X192977Y325199D02*
X203950D01*
X192977Y324749D02*
X203950D01*
X192977Y324299D02*
X203950D01*
X198894Y323849D02*
X203950D01*
X200061Y323399D02*
X203950D01*
X200767Y322949D02*
X203950D01*
X201287Y322499D02*
X203950D01*
X201694Y322049D02*
X203950D01*
X202018Y321599D02*
X203950D01*
X202277Y321149D02*
X203950D01*
X202480Y320699D02*
X203950D01*
X202636Y320249D02*
X203950D01*
X202748Y319799D02*
X203950D01*
X202818Y319349D02*
X203950D01*
X202850Y318899D02*
X203950D01*
X202842Y318449D02*
X203950D01*
X202796Y317999D02*
X203950D01*
X202710Y317549D02*
X203950D01*
X202581Y317099D02*
X203950D01*
X202408Y316649D02*
X203950D01*
X202184Y316199D02*
X203950D01*
X201902Y315749D02*
X203950D01*
X201548Y315299D02*
X203950D01*
X201103Y314849D02*
X203950D01*
X200524Y314399D02*
X203950D01*
X199702Y313949D02*
X203950D01*
X189072Y313499D02*
X203950D01*
X188612Y313049D02*
X203950D01*
X188162Y312599D02*
X203950D01*
X187712Y312149D02*
X203950D01*
X187262Y311699D02*
X203950D01*
X186812Y311249D02*
X203950D01*
X186362Y310799D02*
X203950D01*
X185912Y310349D02*
X203950D01*
X185462Y309899D02*
X203950D01*
X185012Y309449D02*
X203950D01*
X184562Y308999D02*
X203950D01*
X184450Y308549D02*
X203950D01*
X184450Y308099D02*
X203950D01*
X184450Y307649D02*
X203950D01*
X184450Y307199D02*
X203950D01*
X184450Y306749D02*
X203950D01*
X184450Y306299D02*
X203950D01*
X184450Y305849D02*
X203950D01*
X193877Y305399D02*
X203950D01*
X195152Y304949D02*
X203950D01*
X195601Y304499D02*
X203950D01*
X195863Y304049D02*
X203950D01*
X196005Y303599D02*
X203950D01*
X196050Y303149D02*
X203950D01*
X196050Y302699D02*
X203950D01*
X196050Y302249D02*
X203950D01*
X196050Y301799D02*
X203950D01*
X196050Y301349D02*
X203950D01*
X196050Y300899D02*
X203950D01*
X196041Y300449D02*
X203950D01*
X195954Y299999D02*
X203950D01*
X195762Y299549D02*
X203950D01*
X195840Y299099D02*
X203950D01*
X195994Y298649D02*
X203950D01*
X196049Y298199D02*
X203950D01*
X196050Y297749D02*
X203950D01*
X196050Y297299D02*
X203950D01*
X196050Y296849D02*
X203950D01*
X196050Y296399D02*
X203950D01*
X196050Y295949D02*
X203950D01*
X202671Y295499D02*
X203950D01*
X203380Y295049D02*
X203948D01*
X163329Y340949D02*
X203730D01*
X196045Y295499D02*
X197411D01*
X195978Y295049D02*
X196702D01*
X192977Y323849D02*
X196309D01*
X191828Y313949D02*
X195501D01*
X192977Y323399D02*
X195142D01*
X192650Y314399D02*
X194679D01*
X192983Y322949D02*
X194436D01*
X193229Y314849D02*
X194100D01*
X193413Y322499D02*
X193915D01*
X188877Y305399D02*
X191723D01*
X190152Y304949D02*
X190448D01*
X184450Y305399D02*
X186723D01*
X184450Y304949D02*
X185448D01*
X184450Y304499D02*
X184999D01*
X156860Y334649D02*
X166074D01*
X156435Y334199D02*
X165248D01*
X156015Y333749D02*
X164752D01*
X155598Y333299D02*
X164302D01*
X155185Y332849D02*
X163852D01*
X154776Y332399D02*
X163402D01*
X154371Y331949D02*
X162952D01*
X153969Y331499D02*
X162502D01*
X153571Y331049D02*
X162052D01*
X153177Y330599D02*
X161602D01*
X152786Y330149D02*
X161152D01*
X152399Y329699D02*
X160702D01*
X152015Y329249D02*
X160252D01*
X151635Y328799D02*
X159802D01*
X151258Y328349D02*
X159352D01*
X150885Y327899D02*
X158902D01*
X150515Y327449D02*
X158452D01*
X150149Y326999D02*
X158002D01*
X149785Y326549D02*
X157552D01*
X149425Y326099D02*
X157102D01*
X149068Y325649D02*
X156652D01*
X148715Y325199D02*
X156202D01*
X148364Y324749D02*
X155752D01*
X148017Y324299D02*
X155302D01*
X147672Y323849D02*
X154852D01*
X147331Y323399D02*
X154402D01*
X146993Y322949D02*
X153952D01*
X146657Y322499D02*
X153502D01*
X146325Y322049D02*
X153052D01*
X145996Y321599D02*
X152602D01*
X145669Y321149D02*
X152152D01*
X145346Y320699D02*
X151702D01*
X145025Y320249D02*
X151252D01*
X144707Y319799D02*
X150802D01*
X144392Y319349D02*
X150352D01*
X144080Y318899D02*
X149902D01*
X143770Y318449D02*
X149452D01*
X143464Y317999D02*
X149002D01*
X143160Y317549D02*
X148552D01*
X142858Y317099D02*
X148102D01*
X142560Y316649D02*
X147652D01*
X142264Y316199D02*
X147202D01*
X141970Y315749D02*
X146752D01*
X141679Y315299D02*
X146302D01*
X141391Y314849D02*
X145852D01*
X141106Y314399D02*
X145402D01*
X140822Y313949D02*
X144952D01*
X140542Y313499D02*
X144502D01*
X140264Y313049D02*
X144052D01*
X139988Y312599D02*
X143602D01*
X139715Y312149D02*
X143152D01*
X139445Y311699D02*
X142702D01*
X139176Y311249D02*
X142252D01*
X138911Y310799D02*
X141802D01*
X138647Y310349D02*
X141352D01*
X138386Y309899D02*
X140902D01*
X138128Y309449D02*
X140452D01*
X137871Y308999D02*
X140002D01*
X137617Y308549D02*
X139552D01*
X137366Y308099D02*
X139102D01*
X137116Y307649D02*
X138654D01*
X136869Y307199D02*
X138293D01*
X136625Y306749D02*
X138043D01*
X136382Y306299D02*
X137877D01*
X136142Y305849D02*
X137781D01*
X135904Y305399D02*
X137750D01*
X135668Y304949D02*
X137750D01*
X135435Y304499D02*
X137750D01*
X135203Y304049D02*
X137750D01*
X134974Y303599D02*
X137750D01*
X134747Y303149D02*
X137750D01*
X134522Y302699D02*
X137750D01*
X134299Y302249D02*
X137750D01*
X134079Y301799D02*
X137750D01*
X133860Y301349D02*
X137750D01*
X133644Y300899D02*
X137750D01*
X133430Y300449D02*
X137750D01*
X133218Y299999D02*
X137750D01*
X133007Y299549D02*
X137750D01*
X132799Y299099D02*
X137750D01*
X132593Y298649D02*
X137750D01*
X132389Y298199D02*
X137750D01*
X132188Y297749D02*
X137750D01*
X131988Y297299D02*
X137750D01*
X131790Y296849D02*
X137750D01*
X131594Y296399D02*
X137750D01*
X131400Y295949D02*
X137750D01*
X131208Y295499D02*
X137750D01*
X131018Y295049D02*
X137750D01*
X130830Y294599D02*
X137750D01*
X130644Y294149D02*
X137750D01*
X130460Y293699D02*
X137750D01*
X130278Y293249D02*
X137750D01*
X130098Y292799D02*
X137750D01*
X129919Y292349D02*
X137750D01*
X129743Y291899D02*
X137750D01*
X129568Y291449D02*
X137750D01*
X129396Y290999D02*
X137750D01*
X129225Y290549D02*
X137750D01*
X129056Y290099D02*
X137750D01*
X128889Y289649D02*
X137750D01*
X128724Y289199D02*
X137750D01*
X128561Y288749D02*
X137750D01*
X128400Y288299D02*
X137750D01*
X128240Y287849D02*
X137750D01*
X128082Y287399D02*
X137750D01*
X127926Y286949D02*
X137750D01*
X127772Y286499D02*
X137750D01*
X127620Y286049D02*
X137750D01*
X127470Y285599D02*
X137750D01*
X127321Y285149D02*
X137750D01*
X127174Y284699D02*
X137750D01*
X127029Y284249D02*
X137750D01*
X126886Y283799D02*
X137750D01*
X126744Y283349D02*
X137750D01*
X126605Y282899D02*
X137750D01*
X126467Y282449D02*
X137750D01*
X126330Y281999D02*
X137750D01*
X126196Y281549D02*
X137750D01*
X126063Y281099D02*
X137750D01*
X125932Y280649D02*
X137750D01*
X125803Y280199D02*
X137750D01*
X125676Y279749D02*
X137750D01*
X125550Y279299D02*
X137750D01*
X125426Y278849D02*
X137750D01*
X125303Y278399D02*
X137750D01*
X125183Y277949D02*
X137750D01*
X125064Y277499D02*
X137750D01*
X124947Y277049D02*
X137750D01*
X124831Y276599D02*
X137750D01*
X124717Y276149D02*
X137750D01*
X124605Y275699D02*
X137750D01*
X124495Y275249D02*
X137750D01*
X124386Y274799D02*
X137750D01*
X124279Y274349D02*
X137750D01*
X124173Y273899D02*
X137750D01*
X124069Y273449D02*
X137750D01*
X123967Y272999D02*
X137750D01*
X123867Y272549D02*
X137750D01*
X123768Y272099D02*
X137750D01*
X123671Y271649D02*
X137750D01*
X123575Y271199D02*
X137750D01*
X123481Y270749D02*
X137750D01*
X123389Y270299D02*
X137750D01*
X123298Y269849D02*
X137652D01*
X123209Y269399D02*
X137202D01*
X123122Y268949D02*
X136752D01*
X123036Y268499D02*
X136302D01*
X122952Y268049D02*
X135852D01*
X122870Y267599D02*
X135402D01*
X122789Y267149D02*
X134952D01*
X122710Y266699D02*
X134502D01*
X122632Y266249D02*
X134052D01*
X122556Y265799D02*
X133602D01*
X122482Y265349D02*
X133152D01*
X122409Y264899D02*
X132702D01*
X122337Y264449D02*
X132252D01*
X122268Y263999D02*
X131802D01*
X122200Y263549D02*
X131352D01*
X122133Y263099D02*
X130902D01*
X122068Y262649D02*
X130452D01*
X122005Y262199D02*
X130002D01*
X121943Y261749D02*
X129552D01*
X121883Y261299D02*
X129102D01*
X121825Y260849D02*
X128652D01*
X121768Y260399D02*
X128202D01*
X121712Y259949D02*
X127752D01*
X121659Y259499D02*
X127302D01*
X121606Y259049D02*
X126852D01*
X121556Y258599D02*
X126402D01*
X121507Y258149D02*
X125952D01*
X121459Y257699D02*
X125502D01*
X121413Y257249D02*
X125052D01*
X121369Y256799D02*
X124602D01*
X121326Y256349D02*
X124152D01*
X121284Y255899D02*
X123702D01*
X121245Y255449D02*
X123252D01*
X121206Y254999D02*
X122807D01*
X121170Y254549D02*
X122462D01*
X121135Y254099D02*
X122223D01*
X121101Y253649D02*
X122066D01*
X121069Y253199D02*
X121978D01*
X121039Y252749D02*
X121954D01*
X121010Y252299D02*
X121954D01*
X120983Y251849D02*
X121954D01*
X120957Y251399D02*
X121954D01*
X120933Y250949D02*
X121954D01*
X120910Y250499D02*
X121954D01*
X120889Y250049D02*
X121954D01*
X120869Y249599D02*
X121954D01*
X120851Y249149D02*
X121954D01*
X120835Y248699D02*
X121954D01*
X120820Y248249D02*
X121954D01*
X120806Y247799D02*
X121954D01*
X120794Y247349D02*
X121954D01*
X120784Y246899D02*
X121954D01*
X120775Y246449D02*
X121954D01*
X120768Y245999D02*
X121954D01*
X120762Y245549D02*
X121954D01*
X120758Y245099D02*
X121954D01*
X120755Y244649D02*
X121954D01*
X120754Y244199D02*
X121954D01*
X120754Y243749D02*
X121954D01*
X120756Y243299D02*
X121954D01*
X120760Y242849D02*
X121954D01*
X120765Y242399D02*
X121954D01*
X120771Y241949D02*
X121954D01*
X120780Y241499D02*
X121954D01*
X120789Y241049D02*
X121954D01*
X120800Y240599D02*
X121954D01*
X120813Y240149D02*
X121954D01*
X120827Y239699D02*
X121954D01*
X120843Y239249D02*
X121886D01*
X121055Y235199D02*
X121852D01*
X121086Y234749D02*
X121838D01*
X120861Y238799D02*
X121788D01*
X121025Y235649D02*
X121778D01*
X121119Y234299D02*
X121775D01*
X120879Y238349D02*
X121773D01*
X120900Y237899D02*
X121773D01*
X120922Y237449D02*
X121773D01*
X120945Y236999D02*
X121773D01*
X120970Y236549D02*
X121773D01*
X120997Y236099D02*
X121773D01*
X121153Y233849D02*
X121773D01*
X121189Y233399D02*
X121773D01*
X121227Y232949D02*
X121773D01*
X121266Y232499D02*
X121773D01*
X177050Y275699D02*
X210323D01*
X196961Y275249D02*
X210323D01*
X197817Y274799D02*
X210323D01*
X198327Y274349D02*
X210323D01*
X198681Y273899D02*
X210323D01*
X198931Y273449D02*
X210323D01*
X199102Y272999D02*
X210323D01*
X199206Y272549D02*
X210323D01*
X199249Y272099D02*
X210323D01*
X199238Y271649D02*
X210323D01*
X177050Y276149D02*
X210291D01*
X177050Y275249D02*
X194639D01*
X177050Y274799D02*
X193783D01*
X177050Y274349D02*
X193273D01*
X177050Y273899D02*
X192919D01*
X177050Y270299D02*
X192755D01*
X177050Y269849D02*
X192728D01*
X177050Y273449D02*
X192669D01*
X177050Y270749D02*
X192585D01*
X177050Y269399D02*
X192559D01*
X177050Y272999D02*
X192498D01*
X177050Y268949D02*
X192471D01*
X177050Y268499D02*
X192454D01*
X177050Y268049D02*
X192454D01*
X177050Y267599D02*
X192454D01*
X177050Y267149D02*
X192454D01*
X177050Y266699D02*
X192454D01*
X177050Y266249D02*
X192454D01*
X177050Y265799D02*
X192454D01*
X177050Y265349D02*
X192454D01*
X177050Y264899D02*
X192454D01*
X177050Y264449D02*
X192454D01*
X177149Y263999D02*
X192454D01*
X177050Y271199D02*
X192444D01*
X177599Y263549D02*
X192403D01*
X177050Y272549D02*
X192394D01*
X177050Y271649D02*
X192368D01*
X177050Y272099D02*
X192351D01*
X177050Y276599D02*
X183357D01*
X177050Y277049D02*
X182315D01*
X177050Y277499D02*
X181816D01*
X177050Y277949D02*
X181366D01*
X177050Y278399D02*
X180916D01*
X177050Y278849D02*
X180514D01*
X177050Y295049D02*
X180355D01*
X177050Y279299D02*
X180252D01*
X177050Y294599D02*
X180223D01*
X177050Y279749D02*
X180094D01*
X177050Y280199D02*
X180020D01*
X177050Y283349D02*
X180012D01*
X177050Y282899D02*
X180012D01*
X177050Y282449D02*
X180012D01*
X177050Y281999D02*
X180012D01*
X177050Y281549D02*
X180012D01*
X177050Y281099D02*
X180012D01*
X177050Y280649D02*
X180012D01*
X177050Y283799D02*
X180006D01*
X177050Y295499D02*
X179905D01*
X177050Y294149D02*
X179812D01*
X177050Y289199D02*
X179734D01*
X177050Y284249D02*
X179711D01*
X177050Y288749D02*
X179591D01*
X177050Y293699D02*
X179571D01*
X177050Y289649D02*
X179531D01*
X177050Y284699D02*
X179515D01*
X177050Y295949D02*
X179455D01*
X177050Y288299D02*
X179454D01*
X177050Y293249D02*
X179445D01*
X177050Y290099D02*
X179429D01*
X177050Y285149D02*
X179423D01*
X177050Y292799D02*
X179412D01*
X177050Y292349D02*
X179412D01*
X177050Y291899D02*
X179412D01*
X177050Y291449D02*
X179412D01*
X177050Y290999D02*
X179412D01*
X177050Y290549D02*
X179412D01*
X177050Y287849D02*
X179412D01*
X177050Y287399D02*
X179412D01*
X177050Y286949D02*
X179412D01*
X177050Y286499D02*
X179412D01*
X177050Y286049D02*
X179412D01*
X177050Y285599D02*
X179412D01*
X177050Y296399D02*
X179005D01*
X177050Y296849D02*
X178601D01*
X177050Y297299D02*
X178318D01*
X177050Y297749D02*
X178125D01*
X177050Y298199D02*
X178006D01*
X177050Y298649D02*
X177954D01*
X177189Y310349D02*
X177952D01*
X177050Y309899D02*
X177950D01*
X177050Y309449D02*
X177950D01*
X177050Y308999D02*
X177950D01*
X177050Y308549D02*
X177950D01*
X177050Y308099D02*
X177950D01*
X177050Y307649D02*
X177950D01*
X177050Y307199D02*
X177950D01*
X177050Y306749D02*
X177950D01*
X177050Y306299D02*
X177950D01*
X177050Y305849D02*
X177950D01*
X177050Y305399D02*
X177950D01*
X177050Y304949D02*
X177950D01*
X177050Y304499D02*
X177950D01*
X177050Y304049D02*
X177950D01*
X177050Y303599D02*
X177950D01*
X177050Y303149D02*
X177950D01*
X177050Y302699D02*
X177950D01*
X177050Y302249D02*
X177950D01*
X177050Y301799D02*
X177950D01*
X177050Y301349D02*
X177950D01*
X177050Y300899D02*
X177950D01*
X177050Y300449D02*
X177950D01*
X177050Y299999D02*
X177950D01*
X177050Y299549D02*
X177950D01*
X177050Y299099D02*
X177950D01*
X215251Y278849D02*
X218984D01*
X215350Y278399D02*
X218811D01*
X215523Y277949D02*
X218361D01*
X215609Y277499D02*
X217911D01*
X215623Y277049D02*
X217461D01*
X215623Y276599D02*
X217011D01*
X215623Y276149D02*
X216561D01*
X215651Y275699D02*
X216111D01*
X225807Y227549D02*
X226389D01*
X193752Y227999D02*
X226287D01*
X193791Y237899D02*
X226248D01*
X193797Y232049D02*
X226242D01*
X193798Y247799D02*
X226242D01*
X193799Y243749D02*
X226241D01*
X193815Y241949D02*
X226225D01*
X193816Y249599D02*
X226223D01*
X193817Y233849D02*
X226223D01*
X193832Y236099D02*
X226207D01*
X193834Y239699D02*
X226205D01*
X193848Y230249D02*
X226191D01*
X193849Y245999D02*
X226190D01*
X193850Y245549D02*
X226189D01*
X193851Y229799D02*
X226188D01*
X193864Y240149D02*
X226175D01*
X193866Y235649D02*
X226173D01*
X193878Y234299D02*
X226161D01*
X193878Y250049D02*
X226161D01*
X193879Y241499D02*
X226160D01*
X193891Y228449D02*
X226149D01*
X193891Y244199D02*
X226148D01*
X193892Y247349D02*
X226147D01*
X193893Y231599D02*
X226147D01*
X193902Y238349D02*
X226137D01*
X193904Y237449D02*
X226136D01*
X193913Y232499D02*
X226126D01*
X193913Y248249D02*
X226126D01*
X193914Y243299D02*
X226125D01*
X193922Y242399D02*
X226117D01*
X193923Y249149D02*
X226116D01*
X193923Y233399D02*
X226116D01*
X193930Y236549D02*
X226109D01*
X193931Y239249D02*
X226108D01*
X193937Y230699D02*
X226102D01*
X193937Y246449D02*
X226102D01*
X193938Y245099D02*
X226102D01*
X193938Y229349D02*
X226101D01*
X193943Y240599D02*
X226096D01*
X193943Y235199D02*
X226096D01*
X193947Y234749D02*
X226092D01*
X193948Y241049D02*
X226091D01*
X193951Y228899D02*
X226088D01*
X193951Y244649D02*
X226088D01*
X193951Y246899D02*
X226088D01*
X193951Y231149D02*
X226088D01*
X193953Y238799D02*
X226086D01*
X193953Y236999D02*
X226086D01*
X193954Y232949D02*
X226085D01*
X193954Y248699D02*
X226085D01*
X193954Y242849D02*
X226085D01*
X193948Y250499D02*
X225874D01*
X193943Y250949D02*
X225369D01*
X193865Y251399D02*
X224919D01*
X193833Y251849D02*
X224500D01*
X193930Y252299D02*
X224221D01*
X193953Y252749D02*
X224049D01*
X193903Y253199D02*
X223963D01*
X201046Y259499D02*
X223950D01*
X200596Y259049D02*
X223950D01*
X200075Y258599D02*
X223950D01*
X194104Y258149D02*
X223950D01*
X193815Y257699D02*
X223950D01*
X193879Y257249D02*
X223950D01*
X193948Y256799D02*
X223950D01*
X193943Y256349D02*
X223950D01*
X193865Y255899D02*
X223950D01*
X193834Y255449D02*
X223950D01*
X193931Y254999D02*
X223950D01*
X193953Y254549D02*
X223950D01*
X193903Y254099D02*
X223950D01*
X193791Y253649D02*
X223950D01*
X223464Y259949D02*
X223856D01*
X221496D02*
X222165D01*
X219527D02*
X220197D01*
X217559D02*
X218228D01*
X215590D02*
X216260D01*
X213622D02*
X214291D01*
X211653D02*
X212323D01*
X209685D02*
X210354D01*
X207716D02*
X208386D01*
X205748D02*
X206417D01*
X203779D02*
X204449D01*
X201811D02*
X202480D01*
X193651Y227549D02*
X194232D01*
X188388Y213149D02*
X202188D01*
X188270Y212699D02*
X202188D01*
X188082Y212249D02*
X202188D01*
X188050Y211799D02*
X202188D01*
X188050Y211349D02*
X202188D01*
X188050Y210899D02*
X202188D01*
X188050Y210449D02*
X202188D01*
X188050Y209999D02*
X202188D01*
X188050Y209549D02*
X202188D01*
X188050Y209099D02*
X202188D01*
X188050Y208649D02*
X202188D01*
X188050Y208199D02*
X202188D01*
X188050Y207749D02*
X202188D01*
X188050Y207299D02*
X202188D01*
X188050Y206849D02*
X202188D01*
X188050Y206399D02*
X202188D01*
X188050Y205949D02*
X202188D01*
X188060Y205499D02*
X202188D01*
X201343Y205049D02*
X202183D01*
X188444Y213599D02*
X202164D01*
X188441Y214049D02*
X201733D01*
X188379Y214499D02*
X201283D01*
X188255Y214949D02*
X200912D01*
X188356Y215399D02*
X200676D01*
X188432Y215849D02*
X200538D01*
X200024Y216299D02*
X200330D01*
X198056D02*
X198361D01*
X196543Y205049D02*
X198334D01*
X196087Y216299D02*
X196393D01*
X188449D02*
X194424D01*
X188406Y216749D02*
X193554D01*
X191743Y205049D02*
X193534D01*
X188302Y217199D02*
X193089D01*
X188316Y217649D02*
X192788D01*
X184515Y226199D02*
X192753D01*
X188413Y218099D02*
X192595D01*
X184450Y225749D02*
X192573D01*
X188450Y218549D02*
X192487D01*
X184450Y225299D02*
X192477D01*
X184450Y224849D02*
X192454D01*
X184450Y224399D02*
X192454D01*
X184450Y223949D02*
X192454D01*
X184450Y223499D02*
X192454D01*
X184450Y223049D02*
X192454D01*
X184450Y222599D02*
X192454D01*
X184492Y222149D02*
X192454D01*
X186517Y221699D02*
X192454D01*
X187211Y221249D02*
X192454D01*
X187659Y220799D02*
X192454D01*
X187974Y220349D02*
X192454D01*
X188196Y219899D02*
X192454D01*
X188344Y219449D02*
X192454D01*
X188427Y218999D02*
X192454D01*
X188482Y205049D02*
X188734D01*
X187560Y188399D02*
X188713D01*
X187960Y187949D02*
X188607D01*
X187291Y188849D02*
X188597D01*
X188026Y189749D02*
X188567D01*
X187736Y189299D02*
X188567D01*
X238798Y277049D02*
X239550D01*
X238348Y276599D02*
X239550D01*
X237898Y276149D02*
X239550D01*
X237448Y275699D02*
X239550D01*
X236998Y275249D02*
X239550D01*
X236548Y274799D02*
X239550D01*
X236098Y274349D02*
X239550D01*
X235648Y273899D02*
X239550D01*
X235198Y273449D02*
X239550D01*
X234748Y272999D02*
X239550D01*
X234298Y272549D02*
X239550D01*
X233848Y272099D02*
X239550D01*
X233398Y271649D02*
X239550D01*
X232948Y271199D02*
X239550D01*
X232498Y270749D02*
X239550D01*
X232048Y270299D02*
X239550D01*
X231598Y269849D02*
X239550D01*
X231148Y269399D02*
X239550D01*
X230698Y268949D02*
X239550D01*
X230248Y268499D02*
X239550D01*
X229798Y268049D02*
X239550D01*
X229348Y267599D02*
X239550D01*
X229250Y267149D02*
X239550D01*
X229250Y266699D02*
X239550D01*
X229250Y266249D02*
X239550D01*
X229250Y265799D02*
X239550D01*
X229250Y265349D02*
X239550D01*
X229250Y264899D02*
X239550D01*
X229250Y264449D02*
X239550D01*
X229250Y263999D02*
X239550D01*
X229250Y263549D02*
X239550D01*
X229250Y263099D02*
X239550D01*
X237496Y262649D02*
X239550D01*
X239106Y262199D02*
X239477D01*
X229250Y262649D02*
X237304D01*
X229250Y262199D02*
X235694D01*
X229250Y261749D02*
X235075D01*
X219978Y211799D02*
X237194D01*
X221187Y212249D02*
X237082D01*
X221776Y212699D02*
X236977D01*
X227562Y225299D02*
X236950D01*
X227585Y224849D02*
X236950D01*
X227585Y224399D02*
X236950D01*
X227585Y223949D02*
X236950D01*
X227585Y223499D02*
X236950D01*
X227585Y223049D02*
X236950D01*
X227585Y222599D02*
X236950D01*
X227585Y222149D02*
X236950D01*
X227585Y221699D02*
X236950D01*
X227585Y221249D02*
X236950D01*
X227585Y220799D02*
X236950D01*
X227585Y220349D02*
X236950D01*
X227585Y219899D02*
X236950D01*
X227585Y219449D02*
X236950D01*
X227585Y218999D02*
X236950D01*
X227552Y218549D02*
X236950D01*
X227445Y218099D02*
X236950D01*
X227252Y217649D02*
X236950D01*
X226951Y217199D02*
X236950D01*
X226486Y216749D02*
X236950D01*
X225615Y216299D02*
X236950D01*
X222788Y215849D02*
X236950D01*
X222844Y215399D02*
X236950D01*
X222841Y214949D02*
X236950D01*
X222778Y214499D02*
X236950D01*
X222652Y214049D02*
X236950D01*
X222456Y213599D02*
X236950D01*
X222174Y213149D02*
X236950D01*
X227466Y225749D02*
X236926D01*
X227287Y226199D02*
X236497D01*
X217591Y211349D02*
X234353D01*
X217591Y210899D02*
X233436D01*
X217591Y210449D02*
X232815D01*
X217591Y209999D02*
X232343D01*
X217911Y209549D02*
X231971D01*
X218361Y209099D02*
X231674D01*
X226867Y208649D02*
X231437D01*
X227594Y208199D02*
X231252D01*
X228053Y207749D02*
X231114D01*
X230303Y205499D02*
X231030D01*
X228503Y207299D02*
X231018D01*
X229853Y205949D02*
X230969D01*
X228953Y206849D02*
X230963D01*
X229403Y206399D02*
X230947D01*
X223646Y216299D02*
X223952D01*
X217591Y211799D02*
X218822D01*
X246450Y278399D02*
X288550D01*
X246450Y278849D02*
X288511D01*
X246450Y279299D02*
X279278D01*
X246450Y279749D02*
X278751D01*
X246546Y280199D02*
X278450D01*
X246996Y280649D02*
X278280D01*
X247446Y281099D02*
X278211D01*
X251046Y284699D02*
X278208D01*
X250596Y284249D02*
X278208D01*
X250146Y283799D02*
X278208D01*
X249696Y283349D02*
X278208D01*
X249246Y282899D02*
X278208D01*
X248796Y282449D02*
X278208D01*
X248346Y281999D02*
X278208D01*
X247896Y281549D02*
X278208D01*
X263010Y285149D02*
X278203D01*
X251496D02*
X259790D01*
G54D39*
X244600Y130400D02*
X241758D01*
Y155095*
X241658Y130300D02*
X241758Y130400D01*
X279261Y148076D02*
Y135385D01*
X279323Y135323*
Y124729*
X317400Y147000D02*
X317439Y146961D01*
Y137595*
X309761D02*
Y148961D01*
X312200Y151400*
X307202Y137595D02*
Y134849D01*
X307916Y133866*
X309182Y132600*
X318949*
X319998Y133649*
Y137595*
X307202D02*
Y155600D01*
X233094Y162334D02*
X238134D01*
X244317Y168517*
Y173599*
X233094Y167334D02*
X237334D01*
X239199Y169199*
Y173599*
X281820Y166580D02*
Y172820D01*
X283000Y174000*
X290800*
X291800Y175000*
Y178000*
X269800Y154700D02*
Y154800D01*
X275000*
X281820Y161620*
Y166580*
X307202Y155600D02*
X307602Y155200D01*
X317139*
X319998Y158058*
Y162005*
X307202Y155600D02*
Y162005D01*
X309761D02*
Y159258D01*
X310475Y158275*
X311550Y157200*
X315650*
X316725Y158275*
X317439Y159258*
Y162005*
X312320D02*
Y166000D01*
X313720Y167400*
X318000*
X320200Y169600*
Y175900*
X321000Y176700*
X323200*
X319998Y162005D02*
Y166400D01*
X320798Y167200*
X327800*
X328400Y166600*
Y161000*
X345409*
Y159283*
X328400Y157900D02*
Y161000D01*
X345409Y159283D02*
X346600D01*
Y165600*
X135039Y190807D02*
X141000D01*
X146161Y195969*
Y202559*
X192588Y190792D02*
Y196594D01*
X192600Y196606*
X234400Y183800D02*
Y180600D01*
X235200Y179800*
X240800*
X241758Y178842*
Y173599*
X244317D02*
Y178800D01*
X246400Y180883*
Y183800*
X279200Y178000D02*
Y166640D01*
X279261Y166580*
X325200Y176700D02*
X325600D01*
Y180000*
X344022Y173354D02*
Y197764D01*
X341463Y173354D02*
Y197764D01*
X353000Y188800D02*
X354273Y190073D01*
X356817Y173354D02*
Y197764D01*
X346581Y173354D02*
Y182381D01*
X348200Y184000*
X139000Y211000D02*
Y209200D01*
X139800Y208400*
X143000*
X143602Y207798*
Y202559*
X143714*
X146161D02*
Y207761D01*
X146800Y208400*
X150400*
X151000Y209000*
Y210800*
X195038Y196606D02*
X192600D01*
X190238*
X195038D02*
X199838D01*
X346581Y197764D02*
Y190219D01*
X354258Y182542*
Y173354*
X349140Y197764D02*
Y192400D01*
X349200*
X354258Y197764D02*
Y191942D01*
X354273Y191927*
Y190073*
X154011Y285811D02*
X154611D01*
G54D40*
X197601Y313510D02*
Y315760D01*
X202851Y318760D02*
X200601D01*
X197601Y324010D02*
Y321760D01*
X198750Y146000D02*
X201000D01*
X213250D02*
X211000D01*
X206000Y153250D02*
Y151000D01*
G54D41*
X185827Y171423D02*
X196056D01*
X196076Y171402*
Y164124*
X198000Y162200*
X207500*
Y162244*
Y162236*
X222117*
G54D42*
X345409Y159283D03*
X127983Y220936D03*
X236197Y206433D03*
X158400Y309400D03*
X197601Y318760D03*
X189727D03*
X181853D03*
X173979D03*
X334000Y309600D03*
G54D45*
X224000Y124200D02*
X228500Y119700D01*
X236200*
X274800*
X165600Y148800D02*
X170600Y143800D01*
X173600*
X173757Y143957*
X176378*
X165600Y148800D02*
X170400Y153600D01*
X184177*
X188461Y157884*
X176378Y148957D02*
X189312D01*
X189400Y146000*
X176378Y143957D02*
Y143707D01*
X183285Y136800*
X211400*
X224000Y124200*
X152828Y167435D02*
Y161572D01*
X165600Y148800*
X189577Y163423D02*
X189600D01*
X188327Y158268D02*
Y157884D01*
X188461*
X188327Y158268D02*
X189600D01*
Y163423*
X222117Y162236D02*
X222266D01*
Y146068*
X351189Y221600D02*
Y223000D01*
X357000*
X358400Y224400*
Y235400*
X360930Y237930*
X371387*
X324200Y249100D02*
X329846D01*
X339346Y258600*
X358400*
X324112Y233616D02*
X332000D01*
X344016Y221600*
X351189*
X358400Y258600D02*
Y256800D01*
X361870Y253330*
X370987*
X358011Y271200D02*
X358400D01*
Y258600*
G54D46*
X241658Y130300D02*
X248200D01*
Y128650*
X241658Y130300D02*
X244600D01*
Y130400*
X241658Y130300D02*
X236200D01*
Y124700*
X263000Y128650D02*
X273550D01*
X274800Y127400*
Y124700*
X279323*
Y124729*
X152828Y172435D02*
X157428D01*
X167306*
Y172286*
X234400Y184400D02*
Y191512D01*
X234454Y191566*
X257141Y188264D02*
X267206D01*
Y186959*
X257141Y188264D02*
Y193541D01*
X253113Y188242D02*
X257141D01*
Y188264*
X279200Y178600D02*
Y185260D01*
X279817Y185877*
X279800Y185860D02*
X279817Y185877D01*
X291628D02*
X291800Y185705D01*
Y178600*
X291628Y185877D02*
Y187175D01*
X297813*
X303013D02*
X313600D01*
Y186950*
X297813Y187175D02*
X303013D01*
X313600Y186950D02*
Y186200D01*
X319900*
X323000Y183100*
X328800*
X323200Y176700D02*
X325200D01*
X325600D02*
X328800D01*
Y183100*
X236197Y206433D02*
X252967D01*
X257200Y202200*
Y198800*
X257141Y196400D02*
X257200Y196341D01*
Y196200*
X257141Y196400D02*
Y198741D01*
X257200Y198800*
Y193600D02*
X257141Y193541D01*
Y196400*
X246265Y191566D02*
X246400Y191431D01*
Y184400*
X246265Y191566D02*
X252200D01*
X253113Y190653*
Y188242*
X139000Y211600D02*
Y218498D01*
X139000*
X128400Y228000D02*
X171800D01*
X174439Y225361*
Y216767*
X127983Y220936D02*
Y227583D01*
X128400Y228000*
X162598Y216673D02*
X174345D01*
X174439Y216767*
X157480Y216673D02*
X162598D01*
X150811Y218498D02*
Y216673D01*
X157480*
X150811Y218498D02*
X151000Y218309D01*
Y211400*
X185000Y218600D02*
Y216200D01*
Y213800*
X174439Y216767D02*
Y216200D01*
X185000*
X125204Y237167D02*
Y232837D01*
Y229000*
X126204Y228000*
X128400*
X125204Y237167D02*
Y252804D01*
X141000Y268600*
Y285800*
X295400Y237600D02*
X298527D01*
X298611Y237516*
X295600Y245600D02*
X298401D01*
X298611Y245390*
X317312D02*
X324200D01*
Y244100*
X317312Y237516D02*
X324112D01*
Y238616*
X141000Y285800D02*
X148000D01*
X148011Y285811*
X153011*
X141000Y285800D02*
Y305400D01*
X167200Y331600*
X188600*
X189727Y330473*
Y318760*
X181200Y298800D02*
X183100Y296900D01*
X187800*
X181200Y298800D02*
Y310233D01*
X189727Y318760*
X187800Y296900D02*
X192800D01*
X187762Y291558D02*
X192764D01*
Y291554*
X187762Y291558D02*
X187800Y292200D01*
Y296900*
X192764Y291554D02*
X200041D01*
Y291607*
G54D70*
X304643Y130600D02*
X319494D01*
X322557Y133662*
Y137595*
X304643Y130600D02*
Y137595D01*
X236200Y135300D02*
Y138600D01*
X275800Y142600D02*
X275900Y142700D01*
X276200Y142400*
X275800Y142600D02*
X276000Y142400D01*
X276702Y143102*
Y148076*
X284379D02*
Y141600D01*
X284400Y142400*
Y142600*
X281820Y148076D02*
Y153600D01*
X283120Y154900*
X292800*
X279261Y148076D02*
Y155000D01*
X284161Y159900*
X292800*
X304643Y137595D02*
Y162005D01*
X292740Y149261D02*
X298000D01*
X299800Y147461*
Y131800*
X301000Y130600*
X304643*
X292740Y144261D02*
X292800D01*
Y139000*
X313600Y142600D02*
X314400D01*
X314880Y142120*
Y137595*
X313600Y142600D02*
Y142800D01*
X322557Y137595D02*
Y162005D01*
X312320Y137595D02*
Y141920D01*
X313000Y142600*
X313600*
X328200Y139000D02*
Y142300D01*
Y147300D02*
X333400Y142100D01*
X333800*
X328200Y147300D02*
X328400D01*
Y152900*
X333800Y147100D02*
X337900D01*
X339200Y148400*
Y151000*
X333800Y147100D02*
Y153100D01*
X157428Y167435D02*
Y164372D01*
X158400Y163400*
X182077Y163423D02*
X183327D01*
Y158268*
X177165Y164035D02*
X182077D01*
Y163423*
X177165Y169035D02*
X179200D01*
X180600Y170435*
Y176892*
X244317Y155095D02*
Y160317D01*
X246249Y162249*
X253114*
X241758Y155095D02*
Y160608D01*
X248400Y167249*
X253114*
X284379Y166580D02*
Y171000D01*
X285379Y172000*
X295413*
X269800Y159700D02*
X274800D01*
X276702Y161602*
Y166580*
X297613Y160775D02*
X300775D01*
X302400Y162400*
Y171800*
X305400Y174800*
X309761Y162005D02*
Y167561D01*
X309800Y167600*
X341463Y168200D02*
X358200D01*
X359376Y169376*
Y173354*
X341463Y168200D02*
Y173354D01*
X334000Y165100D02*
X340400D01*
X341463Y166163*
Y168200*
X334000Y170100D02*
Y171750D01*
X335800Y173550*
X333800Y158100D02*
X336800D01*
Y158200*
X143602Y184055D02*
X143497D01*
Y190200*
X149104Y195807*
X157480*
X140400Y178600D02*
X141043Y179904D01*
Y184055*
X146161D02*
X146058D01*
Y189400*
X147465Y190807*
X157480*
X148720Y184055D02*
Y180400D01*
X149120Y180000*
X150800*
X151400Y180600*
X180544Y176892D02*
X180600D01*
X184294Y184892D02*
Y182106D01*
X185400Y181000*
X202701*
X204901Y183200*
Y186045*
X199006Y190792D02*
Y190774D01*
X199220*
X204838Y196392*
Y196606*
X204901Y191045D02*
Y191050D01*
X210074*
X220438Y190806D02*
X215438D01*
Y196606*
X210074Y191050D02*
Y191300D01*
X212238Y193465*
Y204455*
X246876Y173599D02*
Y177676D01*
X247718Y178518*
X253113*
Y183242*
X295413Y172000D02*
Y168225D01*
X297613Y166025*
Y165775*
X295413Y172000D02*
Y174325D01*
X297613Y176525*
Y176775*
X303013Y182175D02*
Y179556D01*
X303200Y179369*
Y178400*
X297613Y176775D02*
Y182175D01*
X297813*
X297613Y171775D02*
Y172025D01*
X299988Y174400*
X300600*
X313000Y179800D02*
Y173450D01*
X313600*
X323000Y188100D02*
X328800D01*
X323200Y171700D02*
X328800D01*
Y188100D02*
X331600D01*
X333000Y186700*
Y183000*
X328800Y171700D02*
Y171950D01*
X331250Y174400*
X333200*
X350400Y179200D02*
X351699Y177901D01*
Y173354*
X359376D02*
Y197764D01*
X349140Y173354D02*
Y177940D01*
X350400Y179200*
X135039Y195807D02*
X139600D01*
X141043Y197250*
Y202559*
X161400Y201437D02*
X161199Y201429D01*
X161200Y201400*
X157480Y206437D02*
Y211673D01*
Y201437D02*
X161400D01*
X148720Y202559D02*
Y206000D01*
X149157Y206437*
X157480*
X184753Y191734D02*
X187066D01*
X188000Y190800*
Y183600*
X189000Y182600*
X198006*
X199006Y183600*
Y185949*
X184753Y191734D02*
Y195353D01*
X184800Y195400*
X195038Y196356D02*
Y196606D01*
X190238Y196356D02*
Y196606D01*
X195000Y205400D02*
X195038Y205762D01*
Y201606*
X199800Y205400D02*
X199838Y205362D01*
Y201606*
Y201356*
X202088Y199106*
X207788*
X210038Y196856*
Y196606*
X195038Y201606D02*
X199838D01*
X210038Y196356D02*
Y196606D01*
X215438Y201606D02*
X220438D01*
X346400Y204400D02*
X346521D01*
Y197764*
X346581*
X162598Y211673D02*
Y208912D01*
X162600Y208911*
Y208400*
X181200Y229043D02*
X181329Y229081D01*
X181358Y229209*
X181400Y229200*
X181200Y229043D02*
X188170D01*
Y231012D02*
X195692D01*
X196400Y231720*
Y238400*
X203130Y221957D02*
Y216400D01*
X204838Y214691*
Y201606*
X218878Y218974D02*
Y221957D01*
X219021*
Y215200*
X219400*
X216910Y221957D02*
Y214090D01*
X219000Y212000*
X214941Y221957D02*
Y208771D01*
X217512Y206200*
X225854*
X231000Y201054*
Y182457*
X232400Y181057*
Y179194*
X236000Y175594*
Y171400*
X212973Y221957D02*
Y208476D01*
X216849Y204600*
X224800*
X229000Y200400*
Y182194*
X230800Y180394*
Y177400*
X233200Y175000*
X211004Y221957D02*
Y208182D01*
X215438Y203748*
Y201606*
X209036Y221957D02*
Y207657D01*
X212238Y204455*
X207067Y221957D02*
Y207133D01*
X210038Y204162*
Y201606*
X230000Y224000D02*
X227135Y226865D01*
Y230212*
X227935Y231012*
X231870*
X231882Y231000*
X231870Y229043D02*
X237400D01*
X239600Y226843*
Y213075*
X243875Y208800*
X253824*
X263224Y199400*
X302600*
X306000Y196000*
X333800*
X335800Y194000*
Y173550*
X277880Y229643D02*
X282700D01*
Y229677*
X129535Y232837D02*
X134515D01*
X129535Y237167D02*
X134515D01*
X139515D02*
X141265D01*
X141600Y237200*
X142800*
X139515Y237167D02*
Y262400D01*
X142454Y265339*
X150945*
X139515Y232837D02*
Y231400D01*
X140115Y230800*
X173000*
X174600Y232400*
Y245400*
X181400D02*
Y243823D01*
X182400Y242823*
X188170*
X182000Y240200D02*
Y237465D01*
X182630Y236911*
X182683Y236917*
X188170*
X231870Y250697D02*
X240697D01*
X241200Y251200*
X231870Y248728D02*
X242400D01*
X243800Y250128*
Y281200*
X257988Y295388*
X284395*
X231870Y246760D02*
X263800D01*
X265400Y248360*
Y251000*
X266086Y251686*
X267960*
X231870Y244791D02*
X264000D01*
X265400Y243391*
Y230400*
X266123Y229677*
X268300*
X231870Y242823D02*
X238377D01*
X239000Y242200*
X231870Y240854D02*
X236865D01*
X244400Y233320*
Y230200*
X245800Y228800*
X262000*
X262400Y228400*
X262600Y228600*
X231870Y238886D02*
X236570D01*
X242800Y232657*
Y214400*
X245200Y212000*
X255175*
X264575Y202600*
X336200*
X339000Y199800*
Y168200*
X231870Y234949D02*
X238245D01*
X241200Y231994*
Y213737*
X244537Y210400*
X254500*
X263900Y201000*
X305000*
X307600Y198400*
X231870Y232980D02*
X236820D01*
X237400Y232400*
X272711Y246647D02*
Y242289D01*
X273000Y242000*
X277503Y246625D02*
X277600D01*
Y242800*
X282360Y246686D02*
X287160D01*
X267960D02*
Y246791D01*
X272711Y251542*
Y251647*
X273100Y234677D02*
Y234550D01*
X277880Y229770*
Y229643*
X282700Y234677D02*
X287500D01*
X268300D02*
X273100D01*
X287160Y246686D02*
X291037D01*
X292123Y245600*
X294600*
X287500Y234677D02*
Y236400D01*
X288700Y237600*
X294400*
X150945Y265339D02*
X160139D01*
X160200Y265400*
X172800Y262337D02*
Y317581D01*
X173979Y318760*
X172800Y262337D02*
X176566Y258571D01*
X188170*
X174400Y263000D02*
Y311307D01*
X181853Y318760*
X174400Y263000D02*
X176600Y260800D01*
X198600*
X199193Y261393*
Y265657*
X195256D02*
X195405D01*
Y272000*
X195800*
X197225Y265657D02*
Y269825D01*
X198200Y270800*
Y274800*
X214941Y265657D02*
Y270781D01*
X241200Y297040*
Y298000*
X216910Y265657D02*
Y270286D01*
X243600Y296977*
Y298994*
X218878Y265657D02*
Y269968D01*
X245200Y296291*
Y300149*
X220847Y265657D02*
Y269651D01*
X246800Y295605*
Y301305*
X222815Y265657D02*
Y268641D01*
X223076Y269600*
X248400Y294924*
Y302372*
X224784Y265657D02*
Y269045D01*
X268843Y313104*
X284395*
X238800Y262800D02*
X239200Y262400D01*
X226600Y268599D02*
Y253465D01*
X227400Y252665*
X231870*
X226600Y268599D02*
X265200Y307199D01*
X284395*
X239200Y262400D02*
X240400Y261200D01*
X231870Y258571D02*
X236771D01*
X237400Y259200*
X231870Y256602D02*
X238996D01*
X240400Y258006*
Y261200*
X231870Y254634D02*
X240800D01*
X242200Y256034*
Y281893*
X261600Y301293*
X284395*
X269200Y267600D02*
Y267800D01*
X292000*
X294200Y265600*
Y262400*
X272711Y251647D02*
X277503D01*
Y251625*
X282360*
Y251686*
X285600Y255000D02*
X285496D01*
X287160Y253336*
Y251686*
X292800Y252000D02*
X301800D01*
X309100Y253700D02*
X309400Y253400D01*
Y248200*
X309100Y253700D02*
X309400Y254000D01*
X339113Y269713D02*
Y271200D01*
X149800Y273400D02*
X154337Y277937D01*
X160000*
Y274000D02*
X167800D01*
X169600Y272200*
Y261000*
X177000Y253600*
Y235537*
X179557Y232980*
X188170*
X160000Y275969D02*
X168494D01*
X171200Y273263*
Y261669*
X178800Y254069*
Y236000*
X179851Y234949*
X188170*
X160000Y281874D02*
X161200Y281800D01*
X169000*
X160000Y283843D02*
Y283958D01*
X166200*
Y284200*
X160000Y287780D02*
X165400D01*
X166600Y288980*
Y295600*
X182662Y286619D02*
Y280400D01*
X183862Y279200*
X211000*
X212973Y277227*
Y265657*
X187762Y286558D02*
Y286554D01*
X192764*
X196600*
X197446Y287400*
X206600*
X207541Y288341*
Y291607*
X217000Y278400D02*
X218600D01*
X219434Y279234*
Y283577*
X277800Y283400D02*
X277977Y283577D01*
X284395*
X150945Y296441D02*
X159359D01*
X159400Y296400*
X182662Y291619D02*
X182797D01*
Y291504*
X187627Y286673*
Y286558*
X187762*
X187800Y301900D02*
Y306200D01*
X192800Y301900D02*
Y306000D01*
X237600Y301200D02*
X241394D01*
X243600Y298994*
X237800Y311400D02*
X241394D01*
X243400Y309394*
Y304705*
X246800Y301305*
X240600Y308800D02*
Y304749D01*
X245200Y300149*
X246200Y306400D02*
Y304572D01*
X248400Y302372*
G54D75*
G54D106*
X222266Y146068D03*
X189400Y146000D03*
X206000D03*
X371387Y237930D03*
G54D107*
X370987Y253330D03*
G54D108*
X179753Y191734D03*
X184753D03*
X139515Y232837D03*
X134515D03*
X139515Y237167D03*
X134515D03*
X183327Y158268D03*
X188327D03*
G54D109*
X125204Y237167D03*
X129535D03*
X125204Y232837D03*
X129535D03*
G54D110*
X195256Y221957D03*
X197225D03*
X199193D03*
X201162D03*
X203130D03*
X205099D03*
X207067D03*
X209036D03*
X211004D03*
X212973D03*
X214941D03*
X216910D03*
X218878D03*
X220847D03*
X222815D03*
X224784D03*
Y265657D03*
X222815D03*
X220847D03*
X218878D03*
X216910D03*
X214941D03*
X212973D03*
X211004D03*
X209036D03*
X207067D03*
X205099D03*
X203130D03*
X201162D03*
X199193D03*
X197225D03*
X195256D03*
G54D111*
X231870Y229043D03*
Y231012D03*
Y232980D03*
Y234949D03*
Y236917D03*
Y238886D03*
Y240854D03*
Y242823D03*
Y244791D03*
Y246760D03*
Y248728D03*
Y250697D03*
Y252665D03*
Y254634D03*
Y256602D03*
Y258571D03*
X188170D03*
Y256602D03*
Y254634D03*
Y252665D03*
Y250697D03*
Y248728D03*
Y246760D03*
Y244791D03*
Y242823D03*
Y240854D03*
Y238886D03*
Y236917D03*
Y234949D03*
Y232980D03*
Y231012D03*
Y229043D03*
G54D113*
X192764Y291554D03*
Y286554D03*
X192800Y296900D03*
Y301900D03*
X182662Y286619D03*
Y291619D03*
X187762Y286558D03*
Y291558D03*
X187800Y296900D03*
Y301900D03*
X324112Y233616D03*
Y238616D03*
X297613Y165775D03*
Y160775D03*
X297813Y182175D03*
Y187175D03*
X297613Y171775D03*
Y176775D03*
X303013Y187175D03*
Y182175D03*
X253114Y162249D03*
Y167249D03*
X210074Y191050D03*
Y186050D03*
X204901Y191045D03*
Y186045D03*
X279323Y124729D03*
Y119729D03*
X196076Y171402D03*
Y176402D03*
X220438Y185806D03*
Y190806D03*
X233094Y167334D03*
Y162334D03*
X253113Y173518D03*
Y178518D03*
Y183242D03*
Y188242D03*
X257141Y188264D03*
Y183264D03*
X236200Y119700D03*
Y124700D03*
Y130300D03*
Y135300D03*
X333800Y153100D03*
Y158100D03*
X287500Y234677D03*
Y229677D03*
X268300Y234677D03*
Y229677D03*
X282700Y234677D03*
Y229677D03*
X277880Y229643D03*
Y234643D03*
X273100Y229677D03*
Y234677D03*
X267960Y251686D03*
Y246686D03*
X282360D03*
Y251686D03*
X287160Y246686D03*
Y251686D03*
X277503Y251625D03*
Y246625D03*
X272711Y251647D03*
Y246647D03*
X324200Y249100D03*
Y244100D03*
X215438Y196606D03*
Y201606D03*
X220438Y196606D03*
Y201606D03*
X195038Y196606D03*
Y201606D03*
X199838Y196606D03*
Y201606D03*
X210038D03*
Y196606D03*
X190238D03*
Y201606D03*
X215438Y190806D03*
Y185806D03*
X204838Y196606D03*
Y201606D03*
X292740Y144261D03*
Y149261D03*
X176378Y143957D03*
Y148957D03*
X157428Y172435D03*
Y167435D03*
X177165Y169035D03*
Y164035D03*
X157480Y190807D03*
Y195807D03*
Y211673D03*
Y216673D03*
X334000Y170100D03*
Y165100D03*
X328800Y176700D03*
Y171700D03*
X328400Y152900D03*
Y157900D03*
X333800Y147100D03*
Y142100D03*
X328200Y142300D03*
Y147300D03*
X323200Y176700D03*
Y171700D03*
X323000Y183100D03*
Y188100D03*
X269800Y159700D03*
Y154700D03*
X292800Y154900D03*
Y159900D03*
X274800Y119700D03*
Y124700D03*
X157480Y201437D03*
Y206437D03*
X162598Y216673D03*
Y211673D03*
X135039Y195807D03*
Y190807D03*
X328800Y183100D03*
Y188100D03*
X152828Y167435D03*
Y172435D03*
G54D114*
X150811Y218498D03*
X139000D03*
X246265Y191566D03*
X234454D03*
X291628Y185877D03*
X279817D03*
G54D117*
X370087Y221600D03*
X351189D03*
X339113Y271200D03*
X358011D03*
G54D119*
X203791Y283607D03*
X180544Y176892D03*
X185827Y171423D03*
G54D122*
X239199Y155095D03*
X241758D03*
X244317D03*
X246876D03*
Y173599D03*
X244317D03*
X241758D03*
X239199D03*
X141043Y184055D03*
X143602D03*
X146161D03*
X148720D03*
Y202559D03*
X146161D03*
X143602D03*
X141043D03*
X276702Y148076D03*
X279261D03*
X281820D03*
X284379D03*
Y166580D03*
X281820D03*
X279261D03*
X276702D03*
G54D126*
X192588Y185949D03*
X199006D03*
Y190792D03*
X192588D03*
G54D131*
X317312Y237516D03*
Y245390D03*
X298611D03*
Y237516D03*
G54D132*
X224000Y124200D02*
X230600Y130800D01*
Y152200*
X143602Y184055D02*
Y178398D01*
X145600Y176400*
X156228*
X157428Y175200*
Y172435*
X215438Y185806D02*
Y185556D01*
X219794Y181200*
X227165*
X228800Y179565*
Y154000*
X230600Y152200*
X234400Y183800D02*
Y184400D01*
X246400Y183800D02*
Y184400D01*
X253113Y178518D02*
X253113D01*
X279200Y178000D02*
Y178600D01*
X291800Y178000D02*
Y178600D01*
X139000Y211000D02*
Y211600D01*
X151000Y210800D02*
Y211400D01*
X185000Y213800D02*
Y204200D01*
X187594Y201606*
X190238*
X294600Y245600D02*
X295600D01*
X294400Y237600D02*
X295400D01*
X287500Y234677D02*
Y234927D01*
X298611Y237516D02*
X302200D01*
X303400Y236316*
Y211400*
X310000Y204800*
X342000*
X344022Y202778*
Y197764*
X298611Y245390D02*
X304000D01*
X305800Y243590*
Y212600*
X311200Y207200*
X353200*
X356817Y203583*
Y197764*
X153011Y285811D02*
X154011D01*
X203791Y283607D02*
X210200D01*
X211600Y285007*
Y288400*
X212682Y289482*
X219434*
Y289390*
X189727Y318760D02*
X190000D01*
G54D170*
X341463Y173354D03*
X344022D03*
X346581D03*
X349140D03*
X351699D03*
X354258D03*
X356817D03*
X359376D03*
Y197764D03*
X356817D03*
X354258D03*
X351699D03*
X349140D03*
X346581D03*
X344022D03*
X341463D03*
X304643Y137595D03*
X307202D03*
X309761D03*
X312320D03*
X314880D03*
X317439D03*
X319998D03*
X322557D03*
Y162005D03*
X319998D03*
X317439D03*
X314880D03*
X312320D03*
X309761D03*
X307202D03*
X304643D03*
G54D171*
X160000Y287780D03*
Y285811D03*
Y283843D03*
Y281874D03*
Y279906D03*
Y277937D03*
Y275969D03*
Y274000D03*
G54D172*
X150945Y265339D03*
Y296441D03*
G54D180*
X222117Y162236D03*
Y175736D03*
X207500Y162244D03*
Y175744D03*
X267206Y186959D03*
Y173459D03*
X248200Y128650D03*
Y142150D03*
X167306Y172286D03*
Y185786D03*
X174439Y216767D03*
Y203267D03*
X263000Y128650D03*
Y142150D03*
X313600Y186950D03*
Y173450D03*
G54D181*
X219434Y342632D03*
Y336726D03*
Y330821D03*
Y324915D03*
Y319010D03*
Y313104D03*
Y307199D03*
Y301293D03*
Y295388D03*
Y289482D03*
Y283577D03*
X284395D03*
Y289482D03*
Y295388D03*
Y301293D03*
Y307199D03*
Y313104D03*
Y319010D03*
Y324915D03*
Y330821D03*
Y336726D03*
Y342632D03*
G74*
X0Y0D02*
M02*
