%
T1C.012F095S3
X012362Y01126
X012992Y011575
X011614Y012165
X012913Y012283
X011654Y012756
X013465Y012835
X01252Y013031
X011063Y013307
X013307Y013898
X011772Y013976
X012283Y014094
X012874Y014252
X011457Y014921
X012835Y014961
X011024Y01685
X012953Y017283
X011063Y018465
X013701Y015079
X014213Y015039
X015669Y014685
X013858Y014528
X015669Y013976
X014724Y01374
X015827Y011102
X016339Y010906
X018346Y012205
X018465Y01252
X016535Y01252
X018346Y012874
X016299Y012953
X01748Y013976
X016535Y014055
X01815Y014094
X017835Y014803
X016654Y014961
X017047Y015866
X017992Y015906
X016772Y017283
X019488Y01752
X019409Y016575
X019606Y015866
X020827Y015748
X019252Y015512
X020118Y015433
X019961Y014646
X019567Y014606
X019213Y014488
X019646Y014252
X019213Y014134
X020945Y013346
X020512Y013346
X020197Y012717
X019567Y012559
X020157Y012165
X023268Y011299
X021457Y011811
X02252Y012008
X021496Y012244
X023425Y012402
X021496Y012756
X022717Y012992
X021299Y013346
X022087Y013898
X022402Y015315
X021102Y015394
X023031Y015472
X021614Y015906
X022835Y016063
X022283Y01622
X021614Y016614
X02315Y01752
X021614Y017559
X022559Y020669
X02437Y019803
X024724Y017244
X025354Y01563
X023858Y01374
X025394Y01374
X027638Y012008
X027126Y013346
X027362Y017008
X02622Y017047
X026024Y018425
X02748Y019016
X027205Y020236
X028583Y017835
X028583Y015394
T2C.035F197S55
X013346Y016142
X015118Y016142
X014331Y016142
X016102Y016142
T3C.03937F197S55
X017638Y016673G85X017638Y017185
X011811Y016673G85X011811Y017185
T4C.04331F139S55
X020354Y017087
X020354Y018087
X020354Y019087
X020354Y020087
M30
