%
T1C.012F095S3
X01474Y01698
X01434Y01728
X01404Y01786
X01496Y01788
X0138Y01826
X01364Y01854
X01428Y02372
X01336Y02448
X01432Y0246
X01332Y02506
X01438Y0256
X01248Y02622
X01296Y0266
X01278Y02728
X01454Y02734
X01308Y02808
X01734Y03422
X01678Y03322
X01594Y02964
X01726Y02892
X01666Y02878
X01662Y02842
X0169Y02818
X01498Y02734
X01638Y02688
X01602Y02654
X0165Y02636
X01608Y02616
X01746Y02454
X01626Y02084
X01606Y02014
X01704Y0199
X0164Y01962
X0169Y01934
X01734Y01886
X01648Y01862
X0158Y01848
X01536Y0184
X01566Y018
X01706Y01748
X01584Y01632
X01698Y01576
X01648Y01574
X01988Y0139
X01988Y01536
X01952Y01548
X0176Y01578
X0199Y01822
X0175Y01954
X018Y01986
X0195Y02054
X01954Y02104
X01912Y0211
X01992Y02136
X0185Y02138
X01952Y02144
X01902Y02158
X0185Y02162
X0185Y02186
X01896Y02202
X01814Y02292
X01964Y02384
X0182Y02402
X01814Y02454
X0197Y02478
X01974Y02522
X01882Y02634
X01922Y02648
X01892Y02686
X01922Y02694
X01958Y0272
X01892Y02736
X01982Y0275
X0193Y02756
X01868Y02874
X01804Y02892
X0194Y029
X01992Y02918
X0199Y03084
X01758Y03256
X01828Y03308
X01988Y03338
X01786Y03344
X01844Y03412
X01812Y03492
X01956Y036
X02052Y03654
X02076Y03608
X02004Y036
X02108Y03446
X0204Y03406
X02128Y03378
X021Y03322
X02006Y0326
X02122Y03244
X02226Y03236
X02042Y03066
X0209Y03054
X02056Y03012
X0206Y0297
X0206Y0293
X0207Y02894
X02118Y02886
X0201Y0288
X02118Y02836
X02204Y02828
X02198Y02772
X02092Y02762
X02228Y02756
X0215Y02732
X0213Y02578
X02056Y02576
X02188Y02576
X022Y02524
X02122Y02516
X02018Y02504
X0206Y02496
X02194Y02464
X02126Y0243
X02194Y02152
X0219Y0212
X02Y021
X01998Y02054
X02224Y01828
X0215Y01806
X02002Y0175
X0202Y01536
X02052Y01536
X0202Y0139
X02052Y0139
X02474Y01434
X0239Y01454
X02298Y0146
X02412Y0148
X02262Y01528
X02422Y0168
X0225Y01686
X02478Y01948
X02478Y01974
X02478Y02
X02252Y02144
X023Y02176
X0234Y02178
X02372Y02194
X02296Y0221
X02342Y02216
X02496Y02232
X02326Y02254
X02294Y02256
X02374Y02324
X02384Y02428
X02448Y02522
X0247Y02578
X02422Y02578
X02382Y02584
X02288Y02618
X02274Y03074
X0234Y03234
X02488Y03236
X02274Y03236
X02434Y03236
X02312Y03262
X0237Y03268
X02452Y0327
X02294Y03352
X02482Y03378
X02344Y03454
X0257Y03432
X02564Y03336
X02522Y0319
X02724Y03118
X02524Y0309
X0269Y02724
X02504Y02722
X02558Y02688
X02692Y02676
X02498Y02658
X02742Y02644
X02574Y02622
X02542Y02562
X02586Y02528
X02738Y0242
X02618Y02346
X02498Y02278
X02622Y02246
X0257Y02236
X0253Y02206
X02584Y02202
X02622Y02202
X02666Y0205
X02706Y0205
X02598Y01918
X02538Y01778
X0252Y01698
X02616Y01682
X0272Y01492
X02658Y01482
X02688Y01452
X02594Y01434
X02744Y01326
X02802Y01196
X0284Y01202
X02936Y01202
X02856Y01228
X02904Y01242
X0277Y01248
X02824Y01264
X0297Y01272
X02944Y01294
X02788Y01304
X02844Y01312
X02812Y0134
X02916Y01364
X02868Y0137
X02958Y01372
X0283Y01382
X02884Y01408
X02762Y01424
X02844Y01426
X02882Y0149
X02948Y02098
X02804Y02208
X02868Y02208
X02886Y02414
X0277Y02418
X02928Y0252
X02856Y0255
X02942Y02624
X02864Y02654
X02886Y02714
X02908Y0274
X0298Y02794
X02902Y02854
X028Y03012
X02986Y03036
X02906Y0314
X02758Y03144
X02854Y03196
X02802Y0329
X0296Y03304
X0279Y03372
X02866Y03468
X03136Y0353
X03226Y03344
X0313Y03328
X03206Y03254
X03094Y03202
X0318Y03182
X0302Y03136
X0314Y03124
X0323Y0306
X0311Y03048
X03166Y0293
X03038Y02846
X03128Y02772
X0324Y02746
X03152Y026
X03204Y026
X03092Y0254
X03018Y0252
X03092Y02486
X03206Y021
X03084Y01968
X03084Y01818
X03138Y01798
X03048Y01734
X03098Y01676
X03122Y01514
X03174Y0147
X03136Y01428
X03282Y0139
X03392Y0151
X03368Y01582
X03466Y01656
X0339Y01662
X03308Y0169
X03256Y018
X03482Y0184
X03492Y01924
X03466Y02032
X0334Y02666
X03446Y0267
X0334Y02692
X03446Y02696
X0334Y02718
X03446Y02722
X0334Y02744
X03446Y02748
X03252Y02888
X03358Y029
X03346Y03096
X0345Y03198
X0331Y032
X03422Y03268
X03328Y03302
X03264Y03414
X03532Y0315
X03642Y02986
X03628Y02902
X03512Y02878
X03724Y02872
X03618Y02306
X0374Y02276
X03662Y02272
X036Y02268
X0361Y02224
X03652Y02218
X03584Y02192
X03652Y0219
X03652Y02162
X03652Y02134
X03584Y02134
X03604Y0207
X037Y02068
X03676Y02034
X03724Y02028
X03744Y01992
X0364Y0199
X03694Y01986
X03688Y01942
X03638Y0193
X0353Y01888
X03696Y01886
X03652Y0188
X0368Y01836
X03644Y01808
X03504Y01792
X0376Y02074
X03768Y0214
X03768Y02166
X03768Y02192
X03766Y0222
X03802Y02276
X03794Y02316
X03778Y02672
T2C.035F197S55
X01726Y029966
X018835Y029966
X018047Y029966
X019622Y029966
T3C.06299F089S55
X037139Y023793
T4C.06299F089S55
X02152Y0146
X02022Y0146
X018931Y014607
X037099Y025333
M30
