*
*
G04 PADS 9.5 Build Number: 522968 generated Gerber (RS-274-X) file*
G04 PC Version=2.1*
*
%IN "alarm_V1.0.pcb"*%
*
%MOIN*%
*
%FSLAX35Y35*%
*
*
*
*
G04 PC Standard Apertures*
*
*
G04 Thermal Relief Aperture macro.*
%AMTER*
1,1,$1,0,0*
1,0,$1-$2,0,0*
21,0,$3,$4,0,0,45*
21,0,$3,$4,0,0,135*
%
*
*
G04 Annular Aperture macro.*
%AMANN*
1,1,$1,0,0*
1,0,$2,0,0*
%
*
*
G04 Odd Aperture macro.*
%AMODD*
1,1,$1,0,0*
1,0,$1-0.005,0,0*
%
*
*
G04 PC Custom Aperture Macros*
*
*
*
*
*
*
G04 PC Aperture Table*
*
%ADD020R,0.036X0.036*%
%ADD042C,0.06*%
%ADD075C,0.001*%
%ADD108R,0.025X0.02*%
%ADD113R,0.02X0.025*%
%ADD116R,0.05X0.036*%
%ADD118R,0.05118X0.06299*%
%ADD120O,0.06X0.013*%
%ADD121R,0.05X0.07*%
%ADD127R,0.04724X0.01772*%
%ADD133R,0.01378X0.05512*%
%ADD134O,0.01378X0.05512*%
%ADD173R,0.02362X0.04724*%
*
*
*
*
G04 PC Circuitry*
G04 Layer Name alarm_V1.0.pcb - circuitry*
%LPD*%
*
*
G04 PC Custom Flashes*
G04 Layer Name alarm_V1.0.pcb - flashes*
%LPD*%
*
*
G04 PC Circuitry*
G04 Layer Name alarm_V1.0.pcb - circuitry*
%LPD*%
*
G54D20*
G01X265473Y156654D03*
Y164154D03*
X237073Y156654D03*
Y164154D03*
G54D42*
X284722Y205349D03*
X328564Y224113D03*
G54D75*
G54D108*
X299518Y209478D03*
X304518D03*
X295162Y303629D03*
X290162D03*
X243979Y308961D03*
X248979D03*
X243979Y313761D03*
X248979D03*
X288811Y257976D03*
X293811D03*
X284912Y271142D03*
X279912D03*
X203976Y243020D03*
X208976D03*
X211732Y229634D03*
X206732D03*
X196496Y257587D03*
X201496D03*
X304513Y214145D03*
X299513D03*
X304338Y262681D03*
X299338D03*
X304338Y257957D03*
X299338D03*
G54D113*
X277789Y259379D03*
Y264379D03*
X282862Y259379D03*
Y264379D03*
X252373Y162704D03*
Y157704D03*
X257573Y162704D03*
Y157704D03*
X225041Y161585D03*
Y156585D03*
X230220Y161666D03*
Y156666D03*
X320115Y251200D03*
Y256200D03*
X315115Y251200D03*
Y256200D03*
X261202Y214773D03*
Y209773D03*
X275502Y214790D03*
Y209790D03*
X265957Y214773D03*
Y209773D03*
X270702Y214790D03*
Y209790D03*
X223352Y246548D03*
Y241548D03*
X223779Y235025D03*
Y230025D03*
X253407Y231834D03*
Y236834D03*
X248407D03*
Y231834D03*
X258600Y231900D03*
Y236900D03*
X258607Y242034D03*
Y247034D03*
X253407D03*
Y242034D03*
X248407Y247034D03*
Y242034D03*
X273200Y296300D03*
Y291300D03*
X353400Y208300D03*
Y213300D03*
X353346Y224118D03*
Y219118D03*
X348600Y224100D03*
Y219100D03*
X348648Y208224D03*
Y213224D03*
X218863Y230032D03*
Y235032D03*
X200965Y229890D03*
Y234890D03*
X223405Y257331D03*
Y252331D03*
X196240Y229890D03*
Y234890D03*
X310600Y237900D03*
Y232900D03*
X264000Y264300D03*
Y259300D03*
X269000Y264300D03*
Y259300D03*
X290600Y226900D03*
Y231900D03*
X280600D03*
Y226900D03*
X285400Y242500D03*
Y237500D03*
X285600Y226900D03*
Y231900D03*
X280600Y237500D03*
Y242500D03*
G54D116*
X273473Y160404D03*
X245073D03*
G54D118*
X279931Y279272D03*
Y295413D03*
X290168D03*
Y279272D03*
G54D120*
X264761Y301520D03*
Y298960D03*
Y296400D03*
Y293840D03*
Y291280D03*
Y288720D03*
Y286160D03*
Y283600D03*
Y281040D03*
Y278480D03*
X234839D03*
Y281040D03*
Y283600D03*
Y286160D03*
Y288720D03*
Y291280D03*
Y293840D03*
Y296400D03*
Y298960D03*
Y301520D03*
G54D121*
X316000Y220600D03*
Y208600D03*
G54D127*
X336363Y217583D03*
Y213843D03*
Y210103D03*
X325340D03*
Y217583D03*
G54D133*
X265961Y247011D03*
X296761Y247211D03*
G54D134*
X268520Y247011D03*
X271080D03*
X273639D03*
Y223389D03*
X271080D03*
X268520D03*
X265961D03*
X299320Y247211D03*
X301880D03*
X304439D03*
Y223589D03*
X301880D03*
X299320D03*
X296761D03*
G54D173*
X357890Y274970D03*
X361630D03*
X365370D03*
Y265915D03*
X361630D03*
X357890D03*
X0Y0D02*
M02*
