*
*
G04 PADS 9.5 Build Number: 522968 generated Gerber (RS-274-X) file*
G04 PC Version=2.1*
*
%IN "alarm_V1.0.pcb"*%
*
%MOIN*%
*
%FSLAX35Y35*%
*
*
*
*
G04 PC Standard Apertures*
*
*
G04 Thermal Relief Aperture macro.*
%AMTER*
1,1,$1,0,0*
1,0,$1-$2,0,0*
21,0,$3,$4,0,0,45*
21,0,$3,$4,0,0,135*
%
*
*
G04 Annular Aperture macro.*
%AMANN*
1,1,$1,0,0*
1,0,$2,0,0*
%
*
*
G04 Odd Aperture macro.*
%AMODD*
1,1,$1,0,0*
1,0,$1-0.005,0,0*
%
*
*
G04 PC Custom Aperture Macros*
*
*
*
*
*
*
G04 PC Aperture Table*
*
%ADD035C,0.01*%
%ADD037C,0.005*%
%ADD038C,0.006*%
%ADD075C,0.001*%
%ADD100C,0.00394*%
*
*
*
*
G04 PC Circuitry*
G04 Layer Name alarm_V1.0.pcb - circuitry*
%LPD*%
*
*
G04 PC Custom Flashes*
G04 Layer Name alarm_V1.0.pcb - flashes*
%LPD*%
*
*
G04 PC Circuitry*
G04 Layer Name alarm_V1.0.pcb - circuitry*
%LPD*%
*
G54D35*
G01X273373Y157404D02*
Y154904D01*
X268373*
X273373Y163404D02*
Y165904D01*
X268373*
X264373Y159904D02*
Y160904D01*
X244973Y157404D02*
Y154904D01*
X239973*
X244973Y163404D02*
Y165904D01*
X239973*
X235973Y159904D02*
Y160904D01*
X356118Y272214D02*
Y270664D01*
X356807*
Y270221*
X356118*
Y268671*
X367142*
Y272214*
X356118*
X260036Y275000D02*
Y305000D01*
X251300*
X248300D02*
G75*
G03X251300I1500J0D01*
G01X248300D02*
X239957D01*
Y275000*
X260036*
X320500Y212100D02*
Y203100D01*
X311500*
Y212100*
X320500Y217100D02*
Y224600D01*
X319000Y226100*
X313000*
X311500Y224600*
Y217100*
X386220Y244094D02*
G03X386220I-133858J0D01*
G01X351358D02*
G03X351358I-5905J0D01*
G01X165177D02*
G03X165177I-5905J0D01*
G54D37*
G01X283278Y275374D02*
Y283169D01*
X276585*
Y275374*
X283278*
X280010Y283366D02*
Y291791D01*
X287254Y295649D02*
X283002D01*
X287254Y279390D02*
X283514D01*
X290168Y282815D02*
Y291712D01*
X289383Y207997D02*
Y211278D01*
Y207997D02*
X290406D01*
X290747Y208153*
X290861Y208309*
X290974Y208622*
Y208934*
X290861Y209247*
X290747Y209403*
X290406Y209559*
X289383*
X290179D02*
X290974Y211278D01*
X293474Y207997D02*
X292338D01*
X292224Y209403*
X292338Y209247*
X292679Y209091*
X293020*
X293361Y209247*
X293588Y209559*
X293702Y210028*
X293588Y210341*
X293474Y210809*
X293247Y211122*
X292906Y211278*
X292565*
X292224Y211122*
X292111Y210966*
X291997Y210653*
X294724Y208622D02*
X294952Y208466D01*
X295292Y207997*
Y211278*
X272506Y263677D02*
X272194Y263791D01*
X271881Y264018*
X271725Y264245*
Y264700*
X271881Y264927*
X272194Y265155*
X272506Y265268*
X272975Y265382*
X273756*
X274225Y265268*
X274537Y265155*
X274537D02*
X274850Y264927D01*
X275006Y264700*
Y264245*
X274850Y264018*
X274537Y263791*
X274537D02*
X274225Y263677D01*
X272350Y262655D02*
X272194Y262427D01*
X271725Y262086*
X275006*
X271725Y260836D02*
Y259586D01*
X272975Y260268*
Y259927*
X273131Y259700*
X273287Y259586*
X273287D02*
X273756Y259473D01*
X274069*
X274537Y259586*
X274537D02*
X274850Y259814D01*
X275006Y260155*
Y260495*
X274850Y260836*
X274694Y260950*
X274381Y261064*
X286706Y263845D02*
X286394Y263959D01*
X286081Y264186*
X285925Y264414*
Y264868*
X286081Y265095*
X286394Y265323*
X286706Y265436*
X287175Y265550*
X287956*
X288425Y265436*
X288737Y265323*
X288737D02*
X289050Y265095D01*
X289206Y264868*
Y264414*
X289050Y264186*
X288737Y263959*
X288737D02*
X288425Y263845D01*
X285925Y261345D02*
Y262482D01*
X287331Y262595*
X287175Y262482*
X287019Y262141*
Y261800*
X287175Y261459*
X287487Y261232*
X287487D02*
X287956Y261118D01*
X288269Y261232*
X288737Y261345*
X288737D02*
X289050Y261573D01*
X289206Y261914*
Y262255*
X289050Y262595*
X288894Y262709*
X288581Y262823*
X285925Y259414D02*
X286081Y259755D01*
X286550Y259982*
X287331Y260095*
X287800*
X288581Y259982*
X289050Y259755*
X289206Y259414*
Y259186*
X289050Y258845*
X288581Y258618*
X287800Y258505*
X287331*
X286550Y258618*
X286081Y258845*
X285925Y259186*
Y259414*
X285170Y304506D02*
X285284Y304819D01*
X285511Y305131*
X285739Y305287*
X285739D02*
X286193D01*
X286193D02*
X286420Y305131D01*
X286648Y304819*
X286761Y304506*
X286875Y304037*
X286875D02*
Y303256D01*
X286761Y302787*
X286761D02*
X286648Y302475D01*
X286420Y302162*
X286420D02*
X286193Y302006D01*
X285739*
X285511Y302162*
X285511D02*
X285284Y302475D01*
X285170Y302787*
X284148Y304662D02*
X283920Y304819D01*
X283580Y305287*
X283580D02*
Y302006D01*
X281080Y304194D02*
X281193Y303725D01*
X281420Y303412*
X281420D02*
X281761Y303256D01*
X281875*
X282216Y303412*
X282216D02*
X282443Y303725D01*
X282557Y304194*
Y304350*
X282443Y304819*
X282216Y305131*
X281875Y305287*
X281875D02*
X281761D01*
X281761D02*
X281420Y305131D01*
X281193Y304819*
X281080Y304194*
Y303412*
X281080D02*
X281193Y302631D01*
X281420Y302162*
X281420D02*
X281761Y302006D01*
X281989*
X282330Y302162*
X282330D02*
X282443Y302475D01*
X254248Y147906D02*
X250967D01*
X254248D02*
Y148929D01*
X254092Y149269*
X253936Y149383*
X253623Y149497*
X253311*
X252998Y149383*
X252842Y149269*
X252686Y148929*
Y147906*
Y148701D02*
X250967Y149497D01*
X254248Y150747D02*
Y151997D01*
X252998Y151315*
Y151656*
X252842Y151883*
X252686Y151997*
X252217Y152110*
X251905*
X251436Y151997*
X251123Y151769*
X250967Y151429*
Y151088*
X251123Y150747*
X251280Y150633*
X251592Y150519*
X254248Y153701D02*
X254092Y153360D01*
X253780Y153247*
X253467*
X253155Y153360*
X252998Y153588*
X252842Y154042*
X252686Y154383*
X252373Y154610*
X252061Y154724*
X251592*
X251280Y154610*
X251123Y154497*
X250967Y154156*
Y153701*
X251123Y153360*
X251280Y153247*
X251592Y153133*
X252061*
X252373Y153247*
X252686Y153474*
X252842Y153815*
X252998Y154269*
X253155Y154497*
X253467Y154610*
X253780*
X254092Y154497*
X254248Y154156*
Y153701*
X273041Y149479D02*
X272885Y149252D01*
X272572Y149025*
X272260Y148911*
X271791Y148797*
X271010*
X270541Y148911*
X270228Y149025*
X269916Y149252*
X269760Y149479*
Y149934*
X269916Y150161*
X270228Y150388*
X270541Y150502*
X271010Y150616*
X271791*
X272260Y150502*
X272572Y150388*
X272885Y150161*
X273041Y149934*
Y149479*
X270385Y149820D02*
X269447Y150502D01*
X273041Y151866D02*
Y153116D01*
X271791Y152434*
Y152775*
X271635Y153002*
X271478Y153116*
X271010Y153229*
X270697*
X270228Y153116*
X269916Y152888*
X269760Y152547*
Y152206*
X269916Y151866*
X270072Y151752*
X270385Y151638*
X259448Y147849D02*
X256167D01*
X259448D02*
Y148872D01*
X259292Y149213*
X259136Y149326*
X258823Y149440*
X258511*
X258198Y149326*
X258042Y149213*
X257886Y148872*
Y147849*
Y148644D02*
X256167Y149440D01*
X259448Y151599D02*
X257261Y150463D01*
Y152167*
X259448Y151599D02*
X256167D01*
X258667Y153304D02*
X258823D01*
X259136Y153417*
X259292Y153531*
X259448Y153758*
Y154213*
X259292Y154440*
X259136Y154554*
X258823Y154667*
X258511*
X258198Y154554*
X257730Y154326*
X256167Y153190*
Y154781*
X226461Y146583D02*
X223180D01*
X226461D02*
Y147606D01*
X226305Y147947*
X226148Y148060*
X225836Y148174*
X225523*
X225211Y148060*
X225055Y147947*
X224898Y147606*
Y146583*
Y147379D02*
X223180Y148174D01*
X226461Y149424D02*
Y150674D01*
X225211Y149992*
Y150333*
X225055Y150560*
X224898Y150674*
X224430Y150788*
X224117*
X223648Y150674*
X223336Y150447*
X223180Y150106*
Y149765*
X223336Y149424*
X223492Y149310*
X223805Y149197*
X225367Y153288D02*
X224898Y153174D01*
X224586Y152947*
X224430Y152606*
Y152492*
X224586Y152151*
X224898Y151924*
X225367Y151810*
X225523*
X225992Y151924*
X226305Y152151*
X226461Y152492*
Y152606*
X226305Y152947*
X225992Y153174*
X225367Y153288*
X224586*
X223805Y153174*
X223336Y152947*
X223180Y152606*
Y152379*
X223336Y152038*
X223648Y151924*
X232061Y146697D02*
X228780D01*
X232061D02*
Y147720D01*
X231905Y148060*
X231748Y148174*
X231436Y148288*
X231123*
X230811Y148174*
X230655Y148060*
X230498Y147720*
Y146697*
Y147492D02*
X228780Y148288D01*
X232061Y150447D02*
X229873Y149310D01*
Y151015*
X232061Y150447D02*
X228780D01*
X232061Y152720D02*
X231905Y152379D01*
X231436Y152151*
X230655Y152038*
X230186*
X229405Y152151*
X228936Y152379*
X228780Y152720*
Y152947*
X228936Y153288*
X229405Y153515*
X230186Y153629*
X230655*
X231436Y153515*
X231905Y153288*
X232061Y152947*
Y152720*
X242861Y149185D02*
X242705Y148958D01*
X242392Y148731*
X242080Y148617*
X241611Y148504*
X240830*
X240361Y148617*
X240048Y148731*
X239736Y148958*
X239580Y149185*
Y149640*
X239736Y149867*
X240048Y150095*
X240361Y150208*
X240830Y150322*
X241611*
X242080Y150208*
X242392Y150095*
X242705Y149867*
X242861Y149640*
Y149185*
X240205Y149526D02*
X239267Y150208D01*
X242080Y151458D02*
X242236D01*
X242548Y151572*
X242705Y151685*
X242861Y151913*
Y152367*
X242705Y152595*
X242548Y152708*
X242236Y152822*
X241923*
X241611Y152708*
X241142Y152481*
X239580Y151345*
Y152935*
X320609Y262366D02*
X320921Y262252D01*
X321234Y262025*
X321390Y261798*
Y261343*
X321234Y261116*
X320921Y260889*
X320609Y260775*
X320140Y260661*
X319359*
X318890Y260775*
X318578Y260889*
X318265Y261116*
X318109Y261343*
Y261798*
X318265Y262025*
X318578Y262252*
X318890Y262366*
X321390Y264866D02*
Y263730D01*
X319984Y263616*
X320140Y263730*
X320296Y264070*
Y264411*
X320140Y264752*
X319828Y264980*
X319359Y265093*
X319046Y264980*
X318578Y264866*
X318265Y264639*
X318109Y264298*
Y263957*
X318265Y263616*
X318421Y263502*
X318734Y263389*
X320765Y266116D02*
X320921Y266343D01*
X321390Y266684*
X318109*
X315409Y261855D02*
X315721Y261741D01*
X316034Y261514*
X316190Y261286*
Y260832*
X316034Y260605*
X315721Y260377*
X315409Y260264*
X314940Y260150*
X314159*
X313690Y260264*
X313378Y260377*
X313065Y260605*
X312909Y260832*
Y261286*
X313065Y261514*
X313378Y261741*
X313690Y261855*
X316190Y264355D02*
Y263218D01*
X314784Y263105*
X314940Y263218*
X315096Y263559*
Y263900*
X314940Y264241*
X314628Y264468*
X314159Y264582*
X313846Y264468*
X313378Y264355*
X313065Y264127*
X312909Y263786*
Y263445*
X313065Y263105*
X313221Y262991*
X313534Y262877*
X315409Y265718D02*
X315565D01*
X315878Y265832*
X316034Y265945*
X316190Y266173*
Y266627*
X316034Y266855*
X315878Y266968*
X315565Y267082*
X315253*
X314940Y266968*
X314471Y266741*
X312909Y265605*
Y267195*
X262296Y201248D02*
X262608Y201134D01*
X262921Y200907*
X263077Y200680*
Y200225*
X262921Y199998*
X262608Y199770*
X262296Y199657*
X261827Y199543*
X261046*
X260577Y199657*
X260265Y199770*
X259952Y199998*
X259796Y200225*
Y200680*
X259952Y200907*
X260265Y201134*
X260577Y201248*
X261983Y203748D02*
X261515Y203634D01*
X261202Y203407*
X261046Y203066*
Y202952*
X261202Y202611*
X261515Y202384*
X261983Y202270*
X262140*
X262608Y202384*
X262921Y202611*
X263077Y202952*
Y203066*
X262921Y203407*
X262608Y203634*
X261983Y203748*
X261202*
X260421Y203634*
X259952Y203407*
X259796Y203066*
Y202839*
X259952Y202498*
X260265Y202384*
X276408Y201488D02*
X276720Y201374D01*
X277033Y201147*
X277189Y200919*
Y200465*
X277033Y200238*
X276720Y200010*
X276408Y199897*
X275939Y199783*
X275158*
X274689Y199897*
X274377Y200010*
X274064Y200238*
X273908Y200465*
Y200919*
X274064Y201147*
X274377Y201374*
X274689Y201488*
X277189Y203647D02*
X275002Y202510D01*
Y204215*
X277189Y203647D02*
X273908D01*
X276095Y206715D02*
X275627Y206601D01*
X275314Y206374*
X275158Y206033*
Y205919*
X275314Y205578*
X275627Y205351*
X276095Y205238*
X276252*
X276720Y205351*
X277033Y205578*
X277189Y205919*
Y206033*
X277033Y206374*
X276720Y206601*
X276095Y206715*
X275314*
X274533Y206601*
X274064Y206374*
X273908Y206033*
Y205806*
X274064Y205465*
X274377Y205351*
X267051Y201107D02*
X267363Y200993D01*
X267676Y200766*
X267832Y200539*
Y200084*
X267676Y199857*
X267363Y199630*
X267051Y199516*
X266582Y199402*
X265801*
X265332Y199516*
X265020Y199630*
X264707Y199857*
X264551Y200084*
Y200539*
X264707Y200766*
X265020Y200993*
X265332Y201107*
X267207Y202130D02*
X267363Y202357D01*
X267832Y202698*
X264551*
X267207Y203720D02*
X267363Y203948D01*
X267832Y204289*
X264551*
X271595Y201413D02*
X271908Y201299D01*
X272220Y201072*
X272377Y200844*
Y200390*
X272220Y200163*
X271908Y199935*
X271595Y199822*
X271127Y199708*
X270345*
X269877Y199822*
X269564Y199935*
X269252Y200163*
X269095Y200390*
Y200844*
X269252Y201072*
X269564Y201299*
X269877Y201413*
X271752Y202435D02*
X271908Y202663D01*
X272377Y203003*
X269095*
X272377Y204708D02*
X272220Y204367D01*
X271752Y204140*
X270970Y204026*
X270502*
X269720Y204140*
X269252Y204367*
X269095Y204708*
Y204935*
X269252Y205276*
X269720Y205503*
X270502Y205617*
X270970*
X271752Y205503*
X272220Y205276*
X272377Y204935*
Y204708*
X261125Y245130D02*
X263469D01*
X263938Y245016*
X263938D02*
X264250Y244789D01*
X264406Y244448*
Y244220*
X264250Y243880*
X263938Y243652*
X263938D02*
X263469Y243539D01*
X261125*
Y240925D02*
X264406Y242061D01*
X261125Y242516D02*
Y240925D01*
X253754Y307841D02*
X253640Y307529D01*
X253413Y307216*
X253186Y307060*
X252731*
X252504Y307216*
X252277Y307529*
X252163Y307841*
X252050Y308310*
Y309091*
X252163Y309560*
X252277Y309873*
X252504Y310185*
X252731Y310341*
X253186*
X253413Y310185*
X253640Y309873*
X253754Y309560*
X254777Y307685D02*
X255004Y307529D01*
X255345Y307060*
Y310341*
X257959Y307060D02*
X256822Y310341D01*
X256368Y307060D02*
X257959D01*
X254160Y313071D02*
X254046Y312758D01*
X253819Y312446*
X253592Y312290*
X253137*
X252910Y312446*
X252683Y312758*
X252569Y313071*
X252455Y313540*
Y314321*
X252569Y314790*
X252683Y315102*
X252910Y315415*
X253137Y315571*
X253592*
X253819Y315415*
X254046Y315102*
X254160Y314790*
X256660Y312290D02*
X255524D01*
X255410Y313696*
X255524Y313540*
X255864Y313383*
X256205*
X256546Y313540*
X256774Y313852*
X256887Y314321*
X256774Y314633*
X256660Y315102*
X256433Y315415*
X256092Y315571*
X255751*
X255410Y315415*
X255296Y315258*
X255183Y314946*
X259387Y312290D02*
X258251D01*
X258137Y313696*
X258251Y313540*
X258592Y313383*
X258933*
X259274Y313540*
X259501Y313852*
X259614Y314321*
X259501Y314633*
X259387Y315102*
X259160Y315415*
X258819Y315571*
X258478*
X258137Y315415*
X258024Y315258*
X257910Y314946*
X229475Y242870D02*
X226194D01*
X229475D02*
Y243893D01*
X229319Y244234*
X229163Y244348*
X229163D02*
X228850Y244461D01*
X228538*
X228538D02*
X228225Y244348D01*
X228069Y244234*
X227913Y243893*
X227913D02*
Y242870D01*
Y243666D02*
X226194Y244461D01*
X228850Y245484D02*
X229006Y245711D01*
X229475Y246052*
X226194*
X229106Y232291D02*
X229419Y232177D01*
X229731Y231950*
X229887Y231723*
Y231268*
X229731Y231041*
X229419Y230814*
X229106Y230700*
X228637Y230586*
X227856*
X227387Y230700*
X227075Y230814*
X226762Y231041*
X226606Y231268*
Y231723*
X226762Y231950*
X227075Y232177*
X227387Y232291*
X229887Y234905D02*
X226606Y233768D01*
X229887Y233314D02*
Y234905D01*
X255149Y221891D02*
X251868D01*
X255149D02*
Y222914D01*
X254993Y223255*
X254836Y223368*
X254524Y223482*
X254211*
X253899Y223368*
X253743Y223255*
X253586Y222914*
Y221891*
Y222687D02*
X251868Y223482D01*
X254055Y225982D02*
X253586Y225868D01*
X253274Y225641*
X253118Y225300*
Y225187*
X253274Y224846*
X253586Y224618*
X254055Y224505*
X254211*
X254680Y224618*
X254993Y224846*
X255149Y225187*
Y225300*
X254993Y225641*
X254680Y225868*
X254055Y225982*
X253274*
X252493Y225868*
X252024Y225641*
X251868Y225300*
Y225073*
X252024Y224732*
X252336Y224618*
X249113Y223475D02*
X249425Y223362D01*
X249738Y223134*
X249894Y222907*
Y222453*
X249738Y222225*
X249425Y221998*
X249113Y221884*
X248644Y221771*
X247863*
X247394Y221884*
X247082Y221998*
X246769Y222225*
X246613Y222453*
Y222907*
X246769Y223134*
X247082Y223362*
X247394Y223475*
X249894Y224725D02*
Y225975D01*
X248644Y225294*
Y225634*
X248488Y225862*
X248332Y225975*
X247863Y226089*
X247550*
X247082Y225975*
X246769Y225748*
X246613Y225407*
Y225066*
X246769Y224725*
X246925Y224612*
X247238Y224498*
X248800Y228589D02*
X248332Y228475D01*
X248019Y228248*
X247863Y227907*
Y227794*
X248019Y227453*
X248332Y227225*
X248800Y227112*
X248957*
X249425Y227225*
X249738Y227453*
X249894Y227794*
Y227907*
X249738Y228248*
X249425Y228475*
X248800Y228589*
X248019*
X247238Y228475*
X246769Y228248*
X246613Y227907*
Y227680*
X246769Y227339*
X247082Y227225*
X260287Y221836D02*
X257006D01*
X260287D02*
Y222859D01*
X260287D02*
X260131Y223200D01*
X259975Y223314*
X259662Y223427*
X259662D02*
X259350D01*
X259037Y223314*
X259037D02*
X258881Y223200D01*
X258725Y222859*
Y221836*
Y222632D02*
X257006Y223427D01*
X259662Y224450D02*
X259819Y224677D01*
X260287Y225018*
X260287D02*
X257006D01*
X260287Y226723D02*
X260131Y226382D01*
X259662Y226155*
X259662D02*
X258881Y226041D01*
X258412*
X258412D02*
X257631Y226155D01*
X257162Y226382*
X257162D02*
X257006Y226723D01*
Y226950*
X257162Y227291*
X257162D02*
X257631Y227518D01*
X258412Y227632*
X258412D02*
X258881D01*
X259662Y227518*
X259662D02*
X260131Y227291D01*
X260287Y226950*
X260287D02*
Y226723D01*
X260294Y250171D02*
X257013D01*
X260294D02*
Y251194D01*
X260138Y251534*
X259982Y251648*
X259669Y251762*
X259357*
X259044Y251648*
X258888Y251534*
X258732Y251194*
Y250171*
Y250966D02*
X257013Y251762D01*
X259669Y252784D02*
X259825Y253012D01*
X260294Y253353*
X257013*
X259669Y254375D02*
X259825Y254603D01*
X260294Y254944*
X257013*
X254894Y250428D02*
X251613D01*
X254894D02*
Y251450D01*
X254738Y251791*
X254582Y251905*
X254269Y252019*
X253957*
X253644Y251905*
X253488Y251791*
X253332Y251450*
Y250428*
Y251223D02*
X251613Y252019D01*
X254894Y253609D02*
X254738Y253269D01*
X254425Y253155*
X254113*
X253800Y253269*
X253644Y253496*
X253488Y253950*
X253332Y254291*
X253019Y254519*
X252707Y254632*
X252238*
X251925Y254519*
X251769Y254405*
X251613Y254064*
Y253609*
X251769Y253269*
X251925Y253155*
X252238Y253041*
X252707*
X253019Y253155*
X253332Y253382*
X253488Y253723*
X253644Y254178*
X253800Y254405*
X254113Y254519*
X254425*
X254738Y254405*
X254894Y254064*
Y253609*
X250338Y250476D02*
X247057D01*
X250338D02*
Y251499D01*
X250182Y251840*
X250026Y251953*
X249713Y252067*
X249401*
X249088Y251953*
X248932Y251840*
X248776Y251499*
Y250476*
Y251272D02*
X247057Y252067D01*
X250338Y254681D02*
X247057Y253544D01*
X250338Y253090D02*
Y254681D01*
X295020Y255487D02*
Y252206D01*
Y255487D02*
X293998D01*
X293998D02*
X293657Y255331D01*
X293543Y255175*
X293430Y254862*
X293430D02*
Y254550D01*
X293543Y254237*
X293543D02*
X293657Y254081D01*
X293998Y253925*
X295020*
X294225D02*
X293430Y252206D01*
X291270Y255487D02*
X292407Y253300D01*
X290702*
X291270Y255487D02*
Y252206D01*
X289111Y255487D02*
X289452Y255331D01*
X289566Y255019*
Y254706*
X289452Y254394*
X289225Y254237*
X289225D02*
X288770Y254081D01*
X288430Y253925*
X288202Y253612*
X288202D02*
X288089Y253300D01*
Y252831*
X288202Y252519*
X288316Y252362*
X288316D02*
X288657Y252206D01*
X289111*
X289452Y252362*
X289452D02*
X289566Y252519D01*
X289680Y252831*
Y253300*
X289566Y253612*
X289566D02*
X289339Y253925D01*
X288998Y254081*
X288543Y254237*
X288543D02*
X288316Y254394D01*
X288202Y254706*
Y255019*
X288316Y255331*
X288657Y255487*
X288657D02*
X289111D01*
X351431Y267662D02*
X353775D01*
X354243Y267549*
X354556Y267322*
X354712Y266981*
Y266753*
X354556Y266412*
X354243Y266185*
X353775Y266072*
X351431*
Y263572D02*
Y264708D01*
X352837Y264822*
X352681Y264708*
X352525Y264367*
Y264026*
X352681Y263685*
X352993Y263458*
X353462Y263344*
X353775Y263458*
X354243Y263572*
X354556Y263799*
X354712Y264140*
Y264481*
X354556Y264822*
X354400Y264935*
X354087Y265049*
X274047Y284246D02*
X274360Y284132D01*
X274672Y283905*
X274828Y283677*
Y283223*
X274672Y282996*
X274360Y282768*
X274047Y282655*
X273578Y282541*
X272797*
X272328Y282655*
X272016Y282768*
X271703Y282996*
X271547Y283223*
Y283677*
X271703Y283905*
X272016Y284132*
X272328Y284246*
X274203Y285268D02*
X274360Y285496D01*
X274828Y285837*
X271547*
X274828Y287427D02*
X274672Y287087D01*
X274360Y286973*
X274047*
X273735Y287087*
X273578Y287314*
X273422Y287768*
X273266Y288109*
X272953Y288337*
X272641Y288450*
X272172*
X271860Y288337*
X271703Y288223*
X271547Y287882*
Y287427*
X271703Y287087*
X271860Y286973*
X272172Y286859*
X272641*
X272953Y286973*
X273266Y287200*
X273422Y287541*
X273578Y287996*
X273735Y288223*
X274047Y288337*
X274360*
X274672Y288223*
X274828Y287882*
Y287427*
X354106Y199855D02*
X354419Y199741D01*
X354731Y199514*
X354887Y199286*
X354887D02*
Y198832D01*
X354887D02*
X354731Y198605D01*
X354419Y198377*
X354106Y198264*
X353637Y198150*
X353637D02*
X352856D01*
X352387Y198264*
X352387D02*
X352075Y198377D01*
X351762Y198605*
X351762D02*
X351606Y198832D01*
Y199286*
X351762Y199514*
X351762D02*
X352075Y199741D01*
X352387Y199855*
X354887Y202014D02*
X352700Y200877D01*
Y202582*
X354887Y202014D02*
X351606D01*
X354887Y205195D02*
X351606Y204059D01*
X354887Y203605D02*
Y205195D01*
X354103Y228984D02*
X354415Y228870D01*
X354728Y228643*
X354884Y228416*
Y227961*
X354728Y227734*
X354415Y227507*
X354103Y227393*
X353634Y227280*
X352853*
X352384Y227393*
X352071Y227507*
X351759Y227734*
X351603Y227961*
Y228416*
X351759Y228643*
X352071Y228870*
X352384Y228984*
X354884Y231143D02*
X352696Y230007D01*
Y231711*
X354884Y231143D02*
X351603D01*
X354415Y234098D02*
X354728Y233984D01*
X354884Y233643*
Y233416*
X354728Y233075*
X354259Y232848*
X353478Y232734*
X352696*
X352071Y232848*
X351759Y233075*
X351603Y233416*
Y233530*
X351759Y233870*
X352071Y234098*
X352540Y234211*
X352696*
X353165Y234098*
X353478Y233870*
X353634Y233530*
Y233416*
X353478Y233075*
X353165Y232848*
X352696Y232734*
X349357Y229023D02*
X349669Y228909D01*
X349982Y228682*
X350138Y228455*
Y228000*
X349982Y227773*
X349669Y227546*
X349357Y227432*
X348888Y227319*
X348107*
X347638Y227432*
X347325Y227546*
X347013Y227773*
X346857Y228000*
Y228455*
X347013Y228682*
X347325Y228909*
X347638Y229023*
X350138Y230273D02*
Y231523D01*
X348888Y230841*
Y231182*
X348732Y231409*
X348575Y231523*
X348107Y231637*
X347794*
X347325Y231523*
X347013Y231296*
X346857Y230955*
Y230614*
X347013Y230273*
X347169Y230159*
X347482Y230046*
X350138Y233796D02*
X347950Y232659D01*
Y234364*
X350138Y233796D02*
X346857D01*
X349354Y199722D02*
X349667Y199608D01*
X349979Y199381*
X350136Y199153*
Y198699*
X349979Y198472*
X349667Y198244*
X349354Y198131*
X348886Y198017*
X348104*
X347636Y198131*
X347323Y198244*
X347011Y198472*
X346854Y198699*
Y199153*
X347011Y199381*
X347323Y199608*
X347636Y199722*
X350136Y202222D02*
Y201085D01*
X348729Y200972*
X348886Y201085*
X349042Y201426*
Y201767*
X348886Y202108*
X348573Y202335*
X348104Y202449*
X347792Y202335*
X347323Y202222*
X347011Y201994*
X346854Y201653*
Y201313*
X347011Y200972*
X347167Y200858*
X347479Y200744*
X350136Y204608D02*
X347948Y203472D01*
Y205176*
X350136Y204608D02*
X346854D01*
X293602Y272306D02*
X293716Y272619D01*
X293943Y272931*
X294170Y273087*
X294170D02*
X294625D01*
X294625D02*
X294852Y272931D01*
X295080Y272619*
X295193Y272306*
X295307Y271837*
X295307D02*
Y271056D01*
X295193Y270587*
X295193D02*
X295080Y270275D01*
X294852Y269962*
X294852D02*
X294625Y269806D01*
X294170*
X293943Y269962*
X293943D02*
X293716Y270275D01*
X293602Y270587*
X292466Y272306D02*
Y272462D01*
X292466D02*
X292352Y272775D01*
X292239Y272931*
X292011Y273087*
X292011D02*
X291557D01*
X291557D02*
X291330Y272931D01*
X291216Y272775*
X291102Y272462*
X291102D02*
Y272150D01*
X291216Y271837*
X291216D02*
X291443Y271369D01*
X292580Y269806*
X290989*
X289284Y273087D02*
X289625Y272931D01*
X289852Y272462*
X289852D02*
X289966Y271681D01*
Y271212*
X289966D02*
X289852Y270431D01*
X289625Y269962*
X289625D02*
X289284Y269806D01*
X289057*
X288716Y269962*
X288716D02*
X288489Y270431D01*
X288375Y271212*
X288375D02*
Y271681D01*
X288489Y272462*
X288489D02*
X288716Y272931D01*
X289057Y273087*
X289057D02*
X289284D01*
X238330Y308875D02*
Y306531D01*
X238216Y306063*
X238216D02*
X237989Y305750D01*
X237648Y305594*
X237420*
X237080Y305750*
X236852Y306063*
X236852D02*
X236739Y306531D01*
Y308875*
X235489D02*
X234239D01*
X234920Y307625*
X234580*
X234352Y307469*
X234239Y307313*
X234239D02*
X234125Y306844D01*
Y306531*
X234239Y306063*
X234239D02*
X234466Y305750D01*
X234807Y305594*
X235148*
X235489Y305750*
X235602Y305906*
X235716Y306219*
X201694Y223918D02*
X202006Y223805D01*
X202319Y223577*
X202475Y223350*
Y222895*
X202319Y222668*
X202006Y222441*
X201694Y222327*
X201225Y222214*
X200444*
X199975Y222327*
X199663Y222441*
X199663D02*
X199350Y222668D01*
X199194Y222895*
Y223350*
X199350Y223577*
X199663Y223805*
X199663D02*
X199975Y223918D01*
X202475Y225509D02*
X202319Y225168D01*
X202006Y225055*
X201694*
X201381Y225168*
X201225Y225395*
X201069Y225850*
X200913Y226191*
X200913D02*
X200600Y226418D01*
X200288Y226532*
X200288D02*
X199819D01*
X199506Y226418*
X199350Y226305*
X199194Y225964*
Y225509*
X199350Y225168*
X199506Y225055*
X199819Y224941*
X200288*
X200288D02*
X200600Y225055D01*
X200913Y225282*
X200913D02*
X201069Y225623D01*
X201225Y226077*
X201381Y226305*
X201694Y226418*
X202006*
X202319Y226305*
X202475Y225964*
Y225509*
X228694Y254375D02*
X229006Y254261D01*
X229319Y254034*
X229475Y253807*
Y253352*
X229319Y253125*
X229006Y252898*
X228694Y252784*
X228225Y252670*
X227444*
X226975Y252784*
X226662Y252898*
X226662D02*
X226350Y253125D01*
X226194Y253352*
Y253807*
X226350Y254034*
X226662Y254261*
X226662D02*
X226975Y254375D01*
X229006Y256761D02*
X229319Y256648D01*
X229475Y256307*
Y256080*
X229319Y255739*
X228850Y255511*
X228069Y255398*
X227287*
X227287D02*
X226662Y255511D01*
X226662D02*
X226350Y255739D01*
X226194Y256080*
Y256193*
X226350Y256534*
X226662Y256761*
X226662D02*
X227131Y256875D01*
X227287*
X227287D02*
X227756Y256761D01*
X228069Y256534*
X228225Y256193*
Y256080*
X228069Y255739*
X227756Y255511*
X227287Y255398*
X196694Y223861D02*
X197006Y223748D01*
X197319Y223520*
X197475Y223293*
Y222839*
X197319Y222611*
X197006Y222384*
X196694Y222270*
X196225Y222157*
X195444*
X194975Y222270*
X194663Y222384*
X194663D02*
X194350Y222611D01*
X194194Y222839*
Y223293*
X194350Y223520*
X194663Y223748*
X194663D02*
X194975Y223861D01*
X197475Y226361D02*
Y225225D01*
X196069Y225111*
X196225Y225225*
X196381Y225566*
Y225907*
X196225Y226248*
X195913Y226475*
X195913D02*
X195444Y226589D01*
X195131Y226475*
X194663Y226361*
X194663D02*
X194350Y226134D01*
X194194Y225793*
Y225452*
X194350Y225111*
X194506Y224998*
X194819Y224884*
X208806Y249226D02*
Y245944D01*
Y249226D02*
X207783D01*
X207442Y249069*
X207329Y248913*
X207215Y248601*
Y248288*
X207329Y247976*
X207442Y247819*
X207783Y247663*
X208806*
X208010D02*
X207215Y245944D01*
X205965Y249226D02*
X204715D01*
X205397Y247976*
X205056*
X204829Y247819*
X204715Y247663*
X204601Y247194*
Y246882*
X204715Y246413*
X204942Y246101*
X205283Y245944*
X205624*
X205965Y246101*
X206079Y246257*
X206192Y246569*
X207215Y258681D02*
X207329Y258993D01*
X207556Y259306*
X207783Y259462*
X208238*
X208465Y259306*
X208692Y258993*
X208806Y258681*
X208920Y258212*
X208920D02*
Y257431D01*
X208920D02*
X208806Y256962D01*
X208692Y256649*
X208465Y256337*
X208238Y256181*
X207783*
X207556Y256337*
X207329Y256649*
X207215Y256962*
X205056Y259462D02*
X206192Y257274D01*
X204488*
X205056Y259462D02*
Y256181D01*
X296348Y215691D02*
Y212409D01*
Y215691D02*
X295325D01*
X294984Y215534*
X294871Y215378*
X294757Y215066*
Y214753*
X294871Y214441*
X294984Y214284*
X295325Y214128*
X296348*
X295552D02*
X294757Y212409D01*
X292598Y215691D02*
X293734Y213503D01*
X292030*
X292598Y215691D02*
Y212409D01*
X289530Y215691D02*
X290666D01*
X290780Y214284*
X290666Y214441*
X290325Y214597*
X289984*
X289643Y214441*
X289416Y214128*
X289302Y213659*
X289416Y213347*
X289530Y212878*
X289757Y212566*
X290098Y212409*
X290439*
X290780Y212566*
X290893Y212722*
X291007Y213034*
X295896Y264613D02*
Y261331D01*
Y264613D02*
X294873D01*
X294533Y264456*
X294419Y264300*
X294305Y263988*
Y263675*
X294419Y263363*
X294533Y263206*
X294873Y263050*
X295896*
X295101D02*
X294305Y261331D01*
X291805Y264613D02*
X292942D01*
X293055Y263206*
X292942Y263363*
X292601Y263519*
X292260*
X291919Y263363*
X291692Y263050*
X291578Y262581*
X291692Y262269*
X291805Y261800*
X292033Y261488*
X292373Y261331*
X292714*
X293055Y261488*
X293169Y261644*
X293283Y261956*
X289192Y264144D02*
X289305Y264456D01*
X289646Y264613*
X289873*
X290214Y264456*
X290442Y263988*
X290555Y263206*
Y262425*
X290442Y261800*
X290214Y261488*
X289873Y261331*
X289760*
X289419Y261488*
X289192Y261800*
X289078Y262269*
Y262425*
X289192Y262894*
X289419Y263206*
X289760Y263363*
X289873*
X290214Y263206*
X290442Y262894*
X290555Y262425*
X304636Y255275D02*
Y251994D01*
Y255275D02*
X303614D01*
X303273Y255119*
X303159Y254963*
X303159D02*
X303045Y254650D01*
Y254338*
X303045D02*
X303159Y254025D01*
X303273Y253869*
X303614Y253713*
X303614D02*
X304636D01*
X303841D02*
X303045Y251994D01*
X300545Y255275D02*
X301682D01*
X301795Y253869*
X301682Y254025*
X301341Y254181*
X301000*
X300659Y254025*
X300432Y253713*
X300432D02*
X300318Y253244D01*
X300432Y252931*
X300545Y252463*
X300545D02*
X300773Y252150D01*
X301114Y251994*
X301455*
X301795Y252150*
X301909Y252306*
X302023Y252619*
X298159Y255275D02*
X299295Y253088D01*
X299295D02*
X297591D01*
X298159Y255275D02*
Y251994D01*
X312072Y241200D02*
X308790D01*
X312072D02*
Y242223D01*
X311915Y242564*
X311759Y242677*
X311447Y242791*
X311134*
X310822Y242677*
X310665Y242564*
X310509Y242223*
Y241200*
Y241996D02*
X308790Y242791D01*
X312072Y244950D02*
X309884Y243814D01*
Y245518*
X312072Y244950D02*
X308790D01*
X312072Y246768D02*
Y248018D01*
X310822Y247337*
Y247677*
X310665Y247905*
X310509Y248018*
X310040Y248132*
X309728*
X309259Y248018*
X308947Y247791*
X308790Y247450*
Y247109*
X308947Y246768*
X309103Y246655*
X309415Y246541*
X265688Y268036D02*
X262406D01*
X265688D02*
Y269059D01*
X265688D02*
X265531Y269400D01*
X265375Y269514*
X265063Y269627*
X265063D02*
X264750D01*
X264438Y269514*
X264438D02*
X264281Y269400D01*
X264125Y269059*
Y268036*
Y268832D02*
X262406Y269627D01*
X265063Y270650D02*
X265219Y270877D01*
X265688Y271218*
X265688D02*
X262406D01*
X265688Y272809D02*
X265531Y272468D01*
X265219Y272355*
X264906*
X264594Y272468*
X264438Y272695*
X264438D02*
X264281Y273150D01*
X264125Y273491*
X263813Y273718*
X263813D02*
X263500Y273832D01*
X263031*
X262719Y273718*
X262563Y273605*
X262563D02*
X262406Y273264D01*
Y272809*
X262563Y272468*
X262563D02*
X262719Y272355D01*
X263031Y272241*
X263500*
X263813Y272355*
X263813D02*
X264125Y272582D01*
X264281Y272923*
X264438Y273377*
X264438D02*
X264594Y273605D01*
X264906Y273718*
X265219*
X265531Y273605*
X265688Y273264*
X265688D02*
Y272809D01*
X270488Y268125D02*
X267206D01*
X270488D02*
Y269148D01*
X270488D02*
X270331Y269489D01*
X270175Y269602*
X269863Y269716*
X269863D02*
X269550D01*
X269238Y269602*
X269238D02*
X269081Y269489D01*
X268925Y269148*
Y268125*
Y268920D02*
X267206Y269716D01*
X269863Y270739D02*
X270019Y270966D01*
X270488Y271307*
X270488D02*
X267206D01*
X270488Y273920D02*
X267206Y272784D01*
X270488Y272330D02*
Y273920D01*
X292487Y216723D02*
X289206D01*
X292487D02*
Y217745D01*
X292487D02*
X292331Y218086D01*
X292175Y218200*
X291862Y218314*
X291862D02*
X291550D01*
X291237Y218200*
X291237D02*
X291081Y218086D01*
X290925Y217745*
Y216723*
Y217518D02*
X289206Y218314D01*
X292487Y220473D02*
X290300Y219336D01*
Y221041*
X292487Y220473D02*
X289206D01*
X292019Y223427D02*
X292331Y223314D01*
X292487Y222973*
X292487D02*
Y222745D01*
X292487D02*
X292331Y222405D01*
X291862Y222177*
X291862D02*
X291081Y222064D01*
X290300*
X289675Y222177*
X289362Y222405*
X289362D02*
X289206Y222745D01*
Y222859*
X289362Y223200*
X289362D02*
X289675Y223427D01*
X290144Y223541*
X290300*
X290769Y223427*
X291081Y223200*
X291237Y222859*
X291237D02*
Y222745D01*
X291237D02*
X291081Y222405D01*
X290769Y222177*
X290300Y222064*
X338786Y207688D02*
Y205578D01*
X338673Y205156*
X338445Y204875*
X338105Y204734*
X337877*
X337536Y204875*
X337309Y205156*
X337195Y205578*
Y207688*
X335036D02*
X336173Y205719D01*
X334468*
X335036Y207688D02*
Y204734D01*
X282075Y217132D02*
X278794D01*
X282075D02*
Y218155D01*
X281919Y218495*
X281763Y218609*
X281763D02*
X281450Y218723D01*
X281138*
X281138D02*
X280825Y218609D01*
X280669Y218495*
X280513Y218155*
X280513D02*
Y217132D01*
Y217927D02*
X278794Y218723D01*
X281606Y221109D02*
X281919Y220995D01*
X282075Y220655*
Y220427*
X281919Y220086*
X281450Y219859*
X280669Y219745*
X279888*
X279888D02*
X279263Y219859D01*
X279263D02*
X278950Y220086D01*
X278794Y220427*
Y220541*
X278950Y220882*
X279263Y221109*
X279263D02*
X279731Y221223D01*
X279888*
X279888D02*
X280356Y221109D01*
X280669Y220882*
X280825Y220541*
Y220427*
X280669Y220086*
X280356Y219859*
X279888Y219745*
X282075Y222927D02*
X281919Y222586D01*
X281450Y222359*
X280669Y222245*
X280200*
X279419Y222359*
X278950Y222586*
X278794Y222927*
Y223155*
X278950Y223495*
X279419Y223723*
X280200Y223836*
X280669*
X281450Y223723*
X281919Y223495*
X282075Y223155*
Y222927*
X286881Y245756D02*
X283600D01*
X286881D02*
Y246778D01*
X286725Y247119*
X286569Y247233*
X286256Y247347*
X285944*
X285631Y247233*
X285475Y247119*
X285319Y246778*
Y245756*
Y246551D02*
X283600Y247347D01*
X286881Y249847D02*
Y248710D01*
X285475Y248597*
X285631Y248710*
X285788Y249051*
Y249392*
X285631Y249733*
X285319Y249960*
X284850Y250074*
X284538Y249960*
X284069Y249847*
X283756Y249619*
X283600Y249278*
Y248937*
X283756Y248597*
X283913Y248483*
X284225Y248369*
X286881Y251665D02*
X286725Y251324D01*
X286413Y251210*
X286100*
X285788Y251324*
X285631Y251551*
X285475Y252006*
X285319Y252347*
X285006Y252574*
X284694Y252687*
X284225*
X283913Y252574*
X283756Y252460*
X283600Y252119*
Y251665*
X283756Y251324*
X283913Y251210*
X284225Y251097*
X284694*
X285006Y251210*
X285319Y251437*
X285475Y251778*
X285631Y252233*
X285788Y252460*
X286100Y252574*
X286413*
X286725Y252460*
X286881Y252119*
Y251665*
X287287Y217036D02*
X284006D01*
X287287D02*
Y218059D01*
X287287D02*
X287131Y218400D01*
X286975Y218514*
X286662Y218627*
X286662D02*
X286350D01*
X286037Y218514*
X286037D02*
X285881Y218400D01*
X285725Y218059*
Y217036*
Y217832D02*
X284006Y218627D01*
X287287Y221127D02*
Y219991D01*
X287287D02*
X285881Y219877D01*
X286037Y219991*
X286037D02*
X286194Y220332D01*
Y220673*
X286037Y221014*
X286037D02*
X285725Y221241D01*
X285256Y221355*
X284944Y221241*
X284475Y221127*
X284162Y220900*
X284162D02*
X284006Y220559D01*
Y220218*
X284162Y219877*
X284162D02*
X284319Y219764D01*
X284631Y219650*
X286194Y223855D02*
X285725Y223741D01*
X285412Y223514*
X285412D02*
X285256Y223173D01*
Y223059*
X285412Y222718*
X285412D02*
X285725Y222491D01*
X286194Y222377*
X286350*
X286819Y222491*
X287131Y222718*
X287287Y223059*
X287287D02*
Y223173D01*
X287287D02*
X287131Y223514D01*
X286819Y223741*
X286194Y223855*
X285412*
X285412D02*
X284631Y223741D01*
X284162Y223514*
X284162D02*
X284006Y223173D01*
Y222945*
X284162Y222605*
X284162D02*
X284475Y222491D01*
X281306Y247398D02*
X281619Y247284D01*
X281931Y247057*
X282088Y246830*
X282088D02*
Y246375D01*
X282088D02*
X281931Y246148D01*
X281619Y245920*
X281306Y245807*
X280838Y245693*
X280838D02*
X280056D01*
X279588Y245807*
X279588D02*
X279275Y245920D01*
X278963Y246148*
X278963D02*
X278806Y246375D01*
Y246830*
X278963Y247057*
X278963D02*
X279275Y247284D01*
X279588Y247398*
X282088Y248648D02*
Y249898D01*
X282088D02*
X280838Y249216D01*
X280838D02*
Y249557D01*
X280838D02*
X280681Y249784D01*
X280525Y249898*
X280056Y250011*
X279744*
X279275Y249898*
X278963Y249670*
X278963D02*
X278806Y249330D01*
Y248989*
X278963Y248648*
X278963D02*
X279119Y248534D01*
X279431Y248420*
X282088Y252625D02*
X278806Y251489D01*
X282088Y251034D02*
Y252625D01*
X309955Y225314D02*
X307612D01*
X307143Y225428*
X306830Y225655*
X306674Y225996*
Y226223*
X306830Y226564*
X307143Y226791*
X307612Y226905*
X309955*
X309330Y227928D02*
X309487Y228155D01*
X309955Y228496*
X306674*
G54D38*
X300768Y207463D02*
X297202D01*
Y211494*
X300768*
X303268Y207463D02*
X306834D01*
Y211494*
X303268*
X279805Y260629D02*
Y257063D01*
X275774*
Y260629*
X279805Y263129D02*
Y266694D01*
X275774*
Y263129*
X284878Y260629D02*
Y257063D01*
X280846*
Y260629*
X284878Y263129D02*
Y266694D01*
X280846*
Y263129*
X293912Y305645D02*
X297477D01*
Y301613*
X293912*
X291412Y305645D02*
X287846D01*
Y301613*
X291412*
X250358Y161454D02*
Y165019D01*
X254389*
Y161454*
X250358Y158954D02*
Y155388D01*
X254389*
Y158954*
X255558Y161454D02*
Y165019D01*
X259589*
Y161454*
X255558Y158954D02*
Y155388D01*
X259589*
Y158954*
X223025Y160335D02*
Y163901D01*
X227057*
Y160335*
X223025Y157835D02*
Y154270D01*
X227057*
Y157835*
X228204Y160416D02*
Y163982D01*
X232236*
Y160416*
X228204Y157916D02*
Y154351D01*
X232236*
Y157916*
X322131Y252450D02*
Y248884D01*
X318099*
Y252450*
X322131Y254950D02*
Y258516D01*
X318099*
Y254950*
X317131Y252450D02*
Y248884D01*
X313099*
Y252450*
X317131Y254950D02*
Y258516D01*
X313099*
Y254950*
X259186Y213523D02*
Y217088D01*
X263218*
Y213523*
X259186Y211023D02*
Y207457D01*
X263218*
Y211023*
X273486Y213540D02*
Y217106D01*
X277517*
Y213540*
X273486Y211040D02*
Y207474D01*
X277517*
Y211040*
X263941Y213523D02*
Y217088D01*
X267973*
Y213523*
X263941Y211023D02*
Y207457D01*
X267973*
Y211023*
X268686Y213540D02*
Y217106D01*
X272717*
Y213540*
X268686Y211040D02*
Y207474D01*
X272717*
Y211040*
X275413Y240811D02*
Y229184D01*
X275261Y240858D02*
X264061D01*
X275261Y229184D02*
X264061D01*
Y240858D02*
Y236742D01*
Y229262D02*
Y233396D01*
X264148Y233431D02*
G03Y236660I0J1614D01*
G01X267206Y238514D02*
G03X267206I-612J0D01*
G01X245229Y306945D02*
X241664D01*
Y310977*
X245229*
X247729Y306945D02*
X251295D01*
Y310977*
X247729*
X245229Y311745D02*
X241664D01*
Y315777*
X245229*
X247729Y311745D02*
X251295D01*
Y315777*
X247729*
X221336Y245298D02*
Y248863D01*
X225368*
Y245298*
X221336Y242798D02*
Y239232D01*
X225368*
Y242798*
X221763Y233775D02*
Y237341D01*
X225795*
Y233775*
X221763Y231275D02*
Y227710D01*
X225795*
Y231275*
X255422Y233084D02*
Y229519D01*
X251391*
Y233084*
X255422Y235584D02*
Y239150D01*
X251391*
Y235584*
X246391D02*
Y239150D01*
X250422*
Y235584*
X246391Y233084D02*
Y229519D01*
X250422*
Y233084*
X260616Y233150D02*
Y229584D01*
X256584*
Y233150*
X260616Y235650D02*
Y239216D01*
X256584*
Y235650*
X260622Y243284D02*
Y239719D01*
X256591*
Y243284*
X260622Y245784D02*
Y249350D01*
X256591*
Y245784*
X251391D02*
Y249350D01*
X255422*
Y245784*
X251391Y243284D02*
Y239719D01*
X255422*
Y243284*
X246391Y245784D02*
Y249350D01*
X250422*
Y245784*
X246391Y243284D02*
Y239719D01*
X250422*
Y243284*
X290061Y255960D02*
X286495D01*
Y259991*
X290061*
X292561Y255960D02*
X296127D01*
Y259991*
X292561*
X271184Y295050D02*
Y298616D01*
X275216*
Y295050*
X271184Y292550D02*
Y288984D01*
X275216*
Y292550*
X355416Y209550D02*
Y205984D01*
X351384*
Y209550*
X355416Y212050D02*
Y215616D01*
X351384*
Y212050*
X351330Y222868D02*
Y226434D01*
X355362*
Y222868*
X351330Y220368D02*
Y216802D01*
X355362*
Y220368*
X346584Y222850D02*
Y226416D01*
X350616*
Y222850*
X346584Y220350D02*
Y216784D01*
X350616*
Y220350*
X350664Y209474D02*
Y205908D01*
X346632*
Y209474*
X350664Y211974D02*
Y215540D01*
X346632*
Y211974*
X220831Y231282D02*
Y227611D01*
X216894*
Y231282*
X220831Y233782D02*
Y237453D01*
X216894*
Y233782*
X283662Y273158D02*
X287228D01*
Y269127*
X283662*
X281162Y273158D02*
X277596D01*
Y269127*
X281162*
X202980Y231140D02*
Y227574D01*
X198949*
Y231140*
X202980Y233640D02*
Y237206D01*
X198949*
Y233640*
X221390Y256081D02*
Y259647D01*
X225421*
Y256081*
X221390Y253581D02*
Y250015D01*
X225421*
Y253581*
X198256Y231140D02*
Y227574D01*
X194224*
Y231140*
X198256Y233640D02*
Y237206D01*
X194224*
Y233640*
X205226Y241004D02*
X201661D01*
Y245036*
X205226*
X207726Y241004D02*
X211292D01*
Y245036*
X207726*
X210482Y231603D02*
X214153D01*
Y227666*
X210482*
X207982Y231603D02*
X204311D01*
Y227666*
X207982*
X197746Y255571D02*
X194180D01*
Y259603*
X197746*
X200246Y255571D02*
X203812D01*
Y259603*
X200246*
X303263Y216161D02*
X306829D01*
Y212130*
X303263*
X300763Y216161D02*
X297197D01*
Y212130*
X300763*
X303088Y264697D02*
X306654D01*
Y260665*
X303088*
X300588Y264697D02*
X297022D01*
Y260665*
X300588*
X303088Y259972D02*
X306654D01*
Y255941*
X303088*
X300588Y259972D02*
X297022D01*
Y255941*
X300588*
X308584Y236650D02*
Y240216D01*
X312616*
Y236650*
X308584Y234150D02*
Y230584D01*
X312616*
Y234150*
X261984Y263050D02*
Y266616D01*
X266016*
Y263050*
X261984Y260550D02*
Y256984D01*
X266016*
Y260550*
X266984Y263050D02*
Y266616D01*
X271016*
Y263050*
X266984Y260550D02*
Y256984D01*
X271016*
Y260550*
X292616Y228150D02*
Y224584D01*
X288584*
Y228150*
X292616Y230650D02*
Y234216D01*
X288584*
Y230650*
X333541Y219643D02*
X328194D01*
Y208043*
X333541*
Y219643*
X331852Y219443D02*
X333362Y217932D01*
X332781Y219654D02*
X333438Y218996D01*
X332434Y219532D02*
X333314Y218652D01*
X278584Y230650D02*
Y234216D01*
X282616*
Y230650*
X278584Y228150D02*
Y224584D01*
X282616*
Y228150*
X283384Y241250D02*
Y244816D01*
X287416*
Y241250*
X283384Y238750D02*
Y235184D01*
X287416*
Y238750*
X287616Y228150D02*
Y224584D01*
X283584*
Y228150*
X287616Y230650D02*
Y234216D01*
X283584*
Y230650*
X282616Y238750D02*
Y235184D01*
X278584*
Y238750*
X282616Y241250D02*
Y244816D01*
X278584*
Y241250*
X306213Y241011D02*
Y229384D01*
X306061Y241058D02*
X294861D01*
X306061Y229384D02*
X294861D01*
Y241058D02*
Y236942D01*
Y229462D02*
Y233596D01*
X294948Y233631D02*
G03Y236860I0J1614D01*
G01X298006Y238714D02*
G03X298006I-612J0D01*
G01X304300Y205050D02*
Y202163D01*
X303277Y205050D02*
Y202163D01*
Y205050D02*
X301686Y202163D01*
Y205050D02*
Y202163D01*
X300664Y205050D02*
Y202163D01*
Y205050D02*
X299641D01*
X299300Y204913*
X299300D02*
X299186Y204775D01*
X299073Y204500*
Y204088*
X299073D02*
X299186Y203813D01*
X299186D02*
X299300Y203675D01*
X299641Y203538*
X299641D02*
X300664D01*
X298050Y205050D02*
Y202988D01*
X298050D02*
X297936Y202575D01*
X297709Y202300*
X297368Y202163*
X297368D02*
X297141D01*
X297141D02*
X296800Y202300D01*
X296573Y202575*
X296459Y202988*
X296459D02*
Y205050D01*
X294641D02*
Y202163D01*
X295436Y205050D02*
X293845D01*
X292823Y201613D02*
X290436D01*
X289755Y205050D02*
Y202163D01*
X333385Y230806D02*
X331340D01*
X328840Y232456D02*
X329976D01*
X330090Y231218*
X329976Y231356*
X329635Y231493*
X329294*
X328953Y231356*
X328726Y231081*
X328612Y230668*
X328726Y230393*
X328840Y229981*
X329067Y229706*
X329408Y229568*
X329749*
X330090Y229706*
X330203Y229843*
X330317Y230118*
X327590Y232456D02*
X326681Y229568D01*
X325771Y232456D02*
X326681Y229568D01*
X220344Y238344D02*
X217063D01*
X220344D02*
Y239822D01*
X218782Y238344D02*
Y239254D01*
X220344Y240844D02*
X217063D01*
X220344D02*
Y241867D01*
X220188Y242208*
X220032Y242322*
X219719Y242435*
X219407*
X219094Y242322*
X218938Y242208*
X218782Y241867*
Y240844D02*
Y241867D01*
X218626Y242208*
X218469Y242322*
X218157Y242435*
X217688*
X217376Y242322*
X217219Y242208*
X217063Y241867*
Y240844*
X220344Y244935D02*
Y243799D01*
X218938Y243685*
X219094Y243799*
X219251Y244140*
Y244481*
X219094Y244822*
X218782Y245049*
X218313Y245163*
X218001Y245049*
X217532Y244935*
X217219Y244708*
X217063Y244367*
Y244026*
X217219Y243685*
X217376Y243572*
X217688Y243458*
X298228Y284943D02*
X296353Y286034D01*
X294290*
X298228Y287125D02*
X296353Y286034D01*
X297290Y288488D02*
X297478D01*
X297853Y288625*
X298040Y288761*
X298228Y289034*
Y289579*
X298040Y289852*
X297853Y289988*
X297478Y290125*
X297103*
X296728Y289988*
X296165Y289716*
X294290Y288352*
Y290261*
X212361Y236234D02*
Y232952D01*
Y236234D02*
X210884D01*
X212361Y234671D02*
X211452D01*
X209861Y236234D02*
Y232952D01*
Y236234D02*
X208839D01*
X208498Y236077*
X208384Y235921*
X208270Y235609*
Y235296*
X208384Y234984*
X208498Y234827*
X208839Y234671*
X209861D02*
X208839D01*
X208498Y234515*
X208384Y234359*
X208270Y234046*
Y233577*
X208384Y233265*
X208498Y233109*
X208839Y232952*
X209861*
X205884Y235765D02*
X205998Y236077D01*
X206339Y236234*
X206566*
X206907Y236077*
X207134Y235609*
X207248Y234827*
Y234046*
X207134Y233421*
X206907Y233109*
X206566Y232952*
X206452*
X206111Y233109*
X205884Y233421*
X205770Y233890*
Y234046*
X205884Y234515*
X206111Y234827*
X206452Y234984*
X206566*
X206907Y234827*
X207134Y234515*
X207248Y234046*
X316700Y229090D02*
X317013Y228976D01*
X317325Y228749*
X317481Y228522*
Y228067*
X317325Y227840*
X317013Y227613*
X316700Y227499*
X316231Y227385*
X315450*
X314981Y227499*
X314669Y227613*
X314356Y227840*
X314200Y228067*
Y228522*
X314356Y228749*
X314669Y228976*
X314981Y229090*
X317481Y231249D02*
X315294Y230113D01*
Y231817*
X317481Y231249D02*
X314200D01*
X317481Y233408D02*
X317325Y233067D01*
X317013Y232954*
X316700*
X316388Y233067*
X316231Y233295*
X316075Y233749*
X315919Y234090*
X315606Y234317*
X315294Y234431*
X314825*
X314513Y234317*
X314356Y234204*
X314200Y233863*
Y233408*
X314356Y233067*
X314513Y232954*
X314825Y232840*
X315294*
X315606Y232954*
X315919Y233181*
X316075Y233522*
X316231Y233976*
X316388Y234204*
X316700Y234317*
X317013*
X317325Y234204*
X317481Y233863*
Y233408*
G54D75*
G54D100*
X288328Y205349D02*
G03X288328I-3606J0D01*
G01X332170Y224113D02*
G03X332170I-3606J0D01*
G74*
G01X0Y0D02*
M02*
