*
*
G04 PADS 9.5 Build Number: 522968 generated Gerber (RS-274-X) file*
G04 PC Version=2.1*
*
%IN "alarm_V1.0.pcb"*%
*
%MOIN*%
*
%FSLAX35Y35*%
*
*
*
*
G04 PC Standard Apertures*
*
*
G04 Thermal Relief Aperture macro.*
%AMTER*
1,1,$1,0,0*
1,0,$1-$2,0,0*
21,0,$3,$4,0,0,45*
21,0,$3,$4,0,0,135*
%
*
*
G04 Annular Aperture macro.*
%AMANN*
1,1,$1,0,0*
1,0,$2,0,0*
%
*
*
G04 Odd Aperture macro.*
%AMODD*
1,1,$1,0,0*
1,0,$1-0.005,0,0*
%
*
*
G04 PC Custom Aperture Macros*
*
*
*
*
*
*
G04 PC Aperture Table*
*
%ADD015C,0.07*%
%ADD033R,0.046X0.046*%
%ADD075C,0.001*%
%ADD138C,0.11*%
%ADD139R,0.035X0.03*%
%ADD144R,0.03X0.035*%
%ADD147R,0.06X0.046*%
%ADD149R,0.06118X0.07299*%
%ADD151O,0.07X0.023*%
%ADD152R,0.06X0.08*%
%ADD158R,0.05724X0.02772*%
%ADD166R,0.02378X0.06512*%
%ADD167O,0.02378X0.06512*%
%ADD178R,0.03362X0.05724*%
*
*
*
*
G04 PC Circuitry*
G04 Layer Name alarm_V1.0.pcb - circuitry*
%LPD*%
*
*
G04 PC Custom Flashes*
G04 Layer Name alarm_V1.0.pcb - flashes*
%LPD*%
*
*
G04 PC Circuitry*
G04 Layer Name alarm_V1.0.pcb - circuitry*
%LPD*%
*
G54D15*
G01X284722Y205349D03*
X328564Y224113D03*
X196222Y299657D03*
X188348D03*
X180474D03*
X172600D03*
G54D33*
X265473Y156654D03*
Y164154D03*
X237073Y156654D03*
Y164154D03*
G54D75*
G54D138*
X371387Y237930D03*
X370987Y253330D03*
X189312Y146066D03*
X215200Y146000D03*
X202200D03*
G54D139*
X299518Y209478D03*
X304518D03*
X295162Y303629D03*
X290162D03*
X243979Y308961D03*
X248979D03*
X243979Y313761D03*
X248979D03*
X288811Y257976D03*
X293811D03*
X284912Y271142D03*
X279912D03*
X203976Y243020D03*
X208976D03*
X211732Y229634D03*
X206732D03*
X196496Y257587D03*
X201496D03*
X304513Y214145D03*
X299513D03*
X304338Y262681D03*
X299338D03*
X304338Y257957D03*
X299338D03*
G54D144*
X277789Y259379D03*
Y264379D03*
X282862Y259379D03*
Y264379D03*
X252373Y162704D03*
Y157704D03*
X257573Y162704D03*
Y157704D03*
X225041Y161585D03*
Y156585D03*
X230220Y161666D03*
Y156666D03*
X320115Y251200D03*
Y256200D03*
X315115Y251200D03*
Y256200D03*
X261202Y214773D03*
Y209773D03*
X275502Y214790D03*
Y209790D03*
X265957Y214773D03*
Y209773D03*
X270702Y214790D03*
Y209790D03*
X223352Y246548D03*
Y241548D03*
X223779Y235025D03*
Y230025D03*
X253407Y231834D03*
Y236834D03*
X248407D03*
Y231834D03*
X258600Y231900D03*
Y236900D03*
X258607Y242034D03*
Y247034D03*
X253407D03*
Y242034D03*
X248407Y247034D03*
Y242034D03*
X273200Y296300D03*
Y291300D03*
X353400Y208300D03*
Y213300D03*
X353346Y224118D03*
Y219118D03*
X348600Y224100D03*
Y219100D03*
X348648Y208224D03*
Y213224D03*
X218863Y230032D03*
Y235032D03*
X200965Y229890D03*
Y234890D03*
X223405Y257331D03*
Y252331D03*
X196240Y229890D03*
Y234890D03*
X310600Y237900D03*
Y232900D03*
X264000Y264300D03*
Y259300D03*
X269000Y264300D03*
Y259300D03*
X290600Y226900D03*
Y231900D03*
X280600D03*
Y226900D03*
X285400Y242500D03*
Y237500D03*
X285600Y226900D03*
Y231900D03*
X280600Y237500D03*
Y242500D03*
G54D147*
X273473Y160404D03*
X245073D03*
G54D149*
X279931Y279272D03*
Y295413D03*
X290168D03*
Y279272D03*
G54D151*
X264761Y301520D03*
Y298960D03*
Y296400D03*
Y293840D03*
Y291280D03*
Y288720D03*
Y286160D03*
Y283600D03*
Y281040D03*
Y278480D03*
X234839D03*
Y281040D03*
Y283600D03*
Y286160D03*
Y288720D03*
Y291280D03*
Y293840D03*
Y296400D03*
Y298960D03*
Y301520D03*
G54D152*
X316000Y220600D03*
Y208600D03*
G54D158*
X336363Y217583D03*
Y213843D03*
Y210103D03*
X325340D03*
Y217583D03*
G54D166*
X265961Y247011D03*
X296761Y247211D03*
G54D167*
X268520Y247011D03*
X271080D03*
X273639D03*
Y223389D03*
X271080D03*
X268520D03*
X265961D03*
X299320Y247211D03*
X301880D03*
X304439D03*
Y223589D03*
X301880D03*
X299320D03*
X296761D03*
G54D178*
X357890Y274970D03*
X361630D03*
X365370D03*
Y265915D03*
X361630D03*
X357890D03*
X0Y0D02*
M02*
