*
*
G04 PADS 9.5 Build Number: 522968 generated Gerber (RS-274-X) file*
G04 PC Version=2.1*
*
%IN "alarm_V1.0.pcb"*%
*
%MOIN*%
*
%FSLAX35Y35*%
*
*
*
*
G04 PC Standard Apertures*
*
*
G04 Thermal Relief Aperture macro.*
%AMTER*
1,1,$1,0,0*
1,0,$1-$2,0,0*
21,0,$3,$4,0,0,45*
21,0,$3,$4,0,0,135*
%
*
*
G04 Annular Aperture macro.*
%AMANN*
1,1,$1,0,0*
1,0,$2,0,0*
%
*
*
G04 Odd Aperture macro.*
%AMODD*
1,1,$1,0,0*
1,0,$1-0.005,0,0*
%
*
*
G04 PC Custom Aperture Macros*
*
*
*
*
*
*
G04 PC Aperture Table*
*
%ADD015C,0.07*%
%ADD033R,0.046X0.046*%
%ADD075C,0.001*%
%ADD137R,0.11X0.11*%
%ADD138C,0.11*%
%ADD139R,0.035X0.03*%
%ADD140R,0.03362X0.03756*%
%ADD141O,0.02102X0.0807*%
%ADD142O,0.0807X0.02102*%
%ADD144R,0.03X0.035*%
%ADD145R,0.05331X0.15567*%
%ADD148R,0.09661X0.135*%
%ADD150R,0.046X0.06*%
%ADD152R,0.06X0.08*%
%ADD153O,0.02299X0.07693*%
%ADD157R,0.04543X0.0415*%
%ADD162R,0.05921X0.0474*%
%ADD174R,0.05724X0.08874*%
%ADD175O,0.022X0.07693*%
%ADD176R,0.08087X0.02181*%
%ADD177R,0.12811X0.08874*%
*
*
*
*
G04 PC Circuitry*
G04 Layer Name alarm_V1.0.pcb - circuitry*
%LPD*%
*
*
G04 PC Custom Flashes*
G04 Layer Name alarm_V1.0.pcb - flashes*
%LPD*%
*
*
G04 PC Circuitry*
G04 Layer Name alarm_V1.0.pcb - circuitry*
%LPD*%
*
G54D15*
G01X349200Y160000D03*
X346125Y304344D03*
X152764Y317812D03*
X235800Y200000D03*
X196222Y299657D03*
X188348D03*
X180474D03*
X172600D03*
X127559Y223622D03*
G54D33*
X180915Y184609D03*
X173415D03*
X182077Y163423D03*
X189577D03*
G54D75*
G54D137*
X371387Y237930D03*
X189312Y146066D03*
X215200Y146000D03*
X202200D03*
G54D138*
X370987Y253330D03*
G54D139*
X180100Y202200D03*
X185100D03*
X139515Y232837D03*
X134515D03*
X139515Y237167D03*
X134515D03*
X183327Y158268D03*
X188327D03*
G54D140*
X125204Y237167D03*
X129535D03*
X125204Y232837D03*
X129535D03*
G54D141*
X195256Y221957D03*
X197225D03*
X199193D03*
X201162D03*
X203130D03*
X205099D03*
X207067D03*
X209036D03*
X211004D03*
X212973D03*
X214941D03*
X216910D03*
X218878D03*
X220847D03*
X222815D03*
X224784D03*
Y265657D03*
X222815D03*
X220847D03*
X218878D03*
X216910D03*
X214941D03*
X212973D03*
X211004D03*
X209036D03*
X207067D03*
X205099D03*
X203130D03*
X201162D03*
X199193D03*
X197225D03*
X195256D03*
G54D142*
X231870Y229043D03*
Y231012D03*
Y232980D03*
Y234949D03*
Y236917D03*
Y238886D03*
Y240854D03*
Y242823D03*
Y244791D03*
Y246760D03*
Y248728D03*
Y250697D03*
Y252665D03*
Y254634D03*
Y256602D03*
Y258571D03*
X188170D03*
Y256602D03*
Y254634D03*
Y252665D03*
Y250697D03*
Y248728D03*
Y246760D03*
Y244791D03*
Y242823D03*
Y240854D03*
Y238886D03*
Y236917D03*
Y234949D03*
Y232980D03*
Y231012D03*
Y229043D03*
G54D144*
X333800Y153100D03*
Y158100D03*
X287500Y234677D03*
Y229677D03*
X268300Y234677D03*
Y229677D03*
X282700Y234677D03*
Y229677D03*
X277880Y229643D03*
Y234643D03*
X273100Y229677D03*
Y234677D03*
X267960Y251686D03*
Y246686D03*
X282360D03*
Y251686D03*
X287160Y246686D03*
Y251686D03*
X277503Y251625D03*
Y246625D03*
X272711Y251647D03*
Y246647D03*
X323912Y249016D03*
Y244016D03*
X324112Y233616D03*
Y238616D03*
X239035Y136969D03*
Y141969D03*
X215438Y196606D03*
Y201606D03*
X220438Y196606D03*
Y201606D03*
X195038Y196606D03*
Y201606D03*
X199838Y196606D03*
Y201606D03*
X210038D03*
Y196606D03*
X190238D03*
Y201606D03*
X215438Y190806D03*
Y185806D03*
X220438D03*
Y190806D03*
X204838Y185806D03*
Y190806D03*
X210038D03*
Y185806D03*
X204838Y196606D03*
Y201606D03*
X292740Y144261D03*
Y149261D03*
X176378Y143957D03*
Y148957D03*
X157428Y172435D03*
Y167435D03*
X253635Y186369D03*
Y181369D03*
X177165Y169035D03*
Y164035D03*
X195276Y173760D03*
Y168760D03*
Y163130D03*
Y158130D03*
X157480Y190807D03*
Y195807D03*
Y211673D03*
Y216673D03*
X334000Y170100D03*
Y165100D03*
X328800Y176700D03*
Y171700D03*
X328400Y152900D03*
Y157900D03*
X333800Y147100D03*
Y142100D03*
X328200Y142300D03*
Y147300D03*
X323200Y176700D03*
Y171700D03*
X323000Y183100D03*
Y188100D03*
X247835Y159169D03*
Y164169D03*
X239035Y126339D03*
Y131339D03*
X269800Y159700D03*
Y154700D03*
X305000Y185900D03*
Y180900D03*
X299600Y170500D03*
Y175500D03*
X299800Y180900D03*
Y185900D03*
X299600Y164500D03*
Y159500D03*
X268800Y136900D03*
Y141900D03*
X292800Y154900D03*
Y159900D03*
X268800Y126300D03*
Y131300D03*
X247835Y181369D03*
Y186369D03*
Y170169D03*
Y175169D03*
X223800Y164300D03*
Y159300D03*
X157480Y201437D03*
Y206437D03*
X162598Y216673D03*
Y211673D03*
X135039Y195807D03*
Y190807D03*
X328800Y183100D03*
Y188100D03*
X195600Y351500D03*
Y356500D03*
X200400Y351500D03*
Y356500D03*
X152828Y167435D03*
Y172435D03*
G54D145*
X240729Y186209D03*
X228918D03*
X149606Y217323D03*
X137795D03*
X288808Y182918D03*
X276997D03*
G54D148*
X370803Y217679D03*
X351905D03*
X339113Y271200D03*
X358011D03*
G54D150*
X177165Y176609D03*
X185827Y171423D03*
G54D152*
X204724Y162898D03*
Y174898D03*
X164880Y168693D03*
Y180693D03*
X247302Y137013D03*
Y149013D03*
X261435Y186269D03*
Y174269D03*
X214961Y162898D03*
Y174898D03*
X313600Y186200D03*
Y174200D03*
X259400Y137000D03*
Y149000D03*
X170472Y216630D03*
Y204630D03*
G54D153*
X141043Y184055D03*
X143602D03*
X146161D03*
X148720D03*
Y202559D03*
X146161D03*
X143602D03*
X141043D03*
X276702Y148076D03*
X279261D03*
X281820D03*
X284379D03*
Y166580D03*
X281820D03*
X279261D03*
X276702D03*
X230591Y151761D03*
X233150D03*
X235709D03*
X238269D03*
Y170265D03*
X235709D03*
X233150D03*
X230591D03*
G54D157*
X192588Y185949D03*
X199006D03*
Y190792D03*
X192588D03*
G54D162*
X317312Y237516D03*
Y245390D03*
X298611D03*
Y237516D03*
G54D174*
X271091Y360769D03*
X265186D03*
X259280D03*
X253375D03*
X247469D03*
X241564D03*
X235658D03*
X229753D03*
X223847D03*
X217942D03*
X212036D03*
Y295808D03*
X217942D03*
X223847D03*
X229753D03*
X235658D03*
X241564D03*
X247469D03*
X253375D03*
X259280D03*
X265186D03*
X271091D03*
G54D175*
X341463Y173354D03*
X344022D03*
X346581D03*
X349140D03*
X351699D03*
X354258D03*
X356817D03*
X359376D03*
Y197764D03*
X356817D03*
X354258D03*
X351699D03*
X349140D03*
X346581D03*
X344022D03*
X341463D03*
X304643Y137595D03*
X307202D03*
X309761D03*
X312320D03*
X314880D03*
X317439D03*
X319998D03*
X322557D03*
Y162005D03*
X319998D03*
X317439D03*
X314880D03*
X312320D03*
X309761D03*
X307202D03*
X304643D03*
G54D176*
X160000Y287780D03*
Y285811D03*
Y283843D03*
Y281874D03*
Y279906D03*
Y277937D03*
Y275969D03*
Y274000D03*
G54D177*
X150945Y265339D03*
Y296441D03*
X0Y0D02*
M02*
