*
*
G04 PADS 9.5 Build Number: 522968 generated Gerber (RS-274-X) file*
G04 PC Version=2.1*
*
%IN "alarm_V1.0.pcb"*%
*
%MOIN*%
*
%FSLAX35Y35*%
*
*
*
*
G04 PC Standard Apertures*
*
*
G04 Thermal Relief Aperture macro.*
%AMTER*
1,1,$1,0,0*
1,0,$1-$2,0,0*
21,0,$3,$4,0,0,45*
21,0,$3,$4,0,0,135*
%
*
*
G04 Annular Aperture macro.*
%AMANN*
1,1,$1,0,0*
1,0,$2,0,0*
%
*
*
G04 Odd Aperture macro.*
%AMODD*
1,1,$1,0,0*
1,0,$1-0.005,0,0*
%
*
*
G04 PC Custom Aperture Macros*
*
*
*
*
*
*
G04 PC Aperture Table*
*
%ADD017C,0.024*%
%ADD020R,0.036X0.036*%
%ADD035C,0.01*%
%ADD037C,0.005*%
%ADD039C,0.012*%
%ADD040C,0.015*%
%ADD041C,0.025*%
%ADD042C,0.06*%
%ADD045C,0.03*%
%ADD046C,0.02*%
%ADD070C,0.008*%
%ADD075C,0.001*%
%ADD106R,0.1X0.1*%
%ADD107C,0.1*%
%ADD108R,0.025X0.02*%
%ADD109R,0.02362X0.02756*%
%ADD110O,0.01102X0.0707*%
%ADD111O,0.0707X0.01102*%
%ADD113R,0.02X0.025*%
%ADD114R,0.04331X0.14567*%
%ADD117R,0.08661X0.125*%
%ADD119R,0.036X0.05*%
%ADD121R,0.05X0.07*%
%ADD122O,0.01299X0.06693*%
%ADD126R,0.03543X0.0315*%
%ADD131R,0.04921X0.0374*%
%ADD132C,0.016*%
%ADD169R,0.04724X0.07874*%
%ADD170O,0.012X0.06693*%
%ADD171R,0.07087X0.01181*%
%ADD172R,0.11811X0.07874*%
*
*
*
*
G04 PC Circuitry*
G04 Layer Name alarm_V1.0.pcb - circuitry*
%LPD*%
*
*
G04 PC Custom Flashes*
G04 Layer Name alarm_V1.0.pcb - flashes*
%LPD*%
*
*
G04 PC Circuitry*
G04 Layer Name alarm_V1.0.pcb - circuitry*
%LPD*%
*
G54D17*
G01X278800Y130400D03*
X280200Y119600D03*
X284000Y120200D03*
X277000Y124800D03*
X282400Y126400D03*
X284400Y131200D03*
X285600Y122800D03*
X293600Y120200D03*
X297000Y127200D03*
X294400Y129400D03*
X290400Y124200D03*
X202000Y139000D03*
X205200D03*
X198800D03*
X239000Y145400D03*
X241200Y148000D03*
X229800Y146000D03*
X259400Y143400D03*
X247400D03*
X272000Y149200D03*
X274400Y132600D03*
X281200Y134000D03*
X283000Y138200D03*
X268800Y145200D03*
X276200Y142400D03*
X265800Y148200D03*
X284400Y142600D03*
X288200Y149000D03*
X286800Y137000D03*
X288400Y140800D03*
X295800Y137200D03*
X291600Y136400D03*
X317400Y147000D03*
X312200Y151400D03*
X313600Y142800D03*
X339200Y151000D03*
X328200Y139000D03*
X158400Y163200D03*
X164800Y157400D03*
X147400Y169800D03*
X176000Y157800D03*
X169800Y157600D03*
X195200Y154800D03*
X202000Y153600D03*
X198800D03*
X205200D03*
X225000Y168600D03*
X242200Y168000D03*
X226200Y152800D03*
X261600Y168200D03*
X252000Y169800D03*
X309800Y167600D03*
X339000Y166200D03*
X336800Y158200D03*
X330800Y169000D03*
X346600Y165600D03*
X138000Y182600D03*
X140400Y178600D03*
X136400Y185400D03*
X143400Y172800D03*
X158000Y184800D03*
X156600Y180000D03*
X149600Y178800D03*
X164800Y186200D03*
X153600Y184000D03*
X173400Y188600D03*
X170600Y174800D03*
X199000Y182200D03*
X200200Y175000D03*
X215000Y180600D03*
X222400Y182800D03*
X253800Y177800D03*
X304800Y173400D03*
X313800Y179800D03*
X308400Y181800D03*
X325600Y180000D03*
X348200Y184000D03*
X353000Y188800D03*
X364400Y180800D03*
X365200Y188000D03*
X350400Y179200D03*
X368000Y183600D03*
X369600Y188600D03*
X162600Y208400D03*
X160600Y201400D03*
X164000Y196200D03*
X170400Y199000D03*
X175000Y195400D03*
X169000Y193400D03*
X180000Y198600D03*
X200000Y210000D03*
X195400Y210400D03*
X191200Y211000D03*
X195000Y205400D03*
X199800D03*
X247800Y194800D03*
Y200000D03*
Y197400D03*
X259800Y191800D03*
X266600Y205000D03*
X270600D03*
X294800Y209800D03*
X320600Y210000D03*
X308400Y196800D03*
X349200Y192400D03*
X360400Y207000D03*
X363800Y193000D03*
X364000Y199000D03*
X346600Y203200D03*
X369400Y198600D03*
X374400Y199200D03*
X376000Y207400D03*
X370000Y206800D03*
X368800Y194200D03*
X367600Y203400D03*
X372400Y202800D03*
X181400Y229200D03*
X185000Y218600D03*
Y216200D03*
Y213800D03*
X190200Y215800D03*
X189600Y220200D03*
X195200Y214400D03*
X199200Y213600D03*
X219400Y215200D03*
X225200Y214400D03*
X219000Y212000D03*
X230000Y217600D03*
X234000Y217800D03*
X237200Y219400D03*
X234200Y221600D03*
X232600Y225400D03*
X229600Y221000D03*
X229400Y225600D03*
X249800Y227800D03*
X262200Y220200D03*
Y224600D03*
X258400Y220200D03*
X253000Y220600D03*
X249600Y223200D03*
X257000Y223600D03*
X280400Y220800D03*
X286800D03*
X365200Y221800D03*
X360000Y226800D03*
X361800Y230600D03*
X365200Y213400D03*
Y216200D03*
Y219000D03*
X361000Y222400D03*
X358400Y219200D03*
Y213400D03*
X380200Y227600D03*
X374000D03*
X366200Y227200D03*
X376800Y219200D03*
X376600Y222000D03*
X376800Y214000D03*
Y216600D03*
X143200Y246000D03*
X133600Y244800D03*
X133200Y250600D03*
X142800Y237200D03*
X174600Y245400D03*
X181400D03*
X182000Y240200D03*
X201800Y250400D03*
X197000Y247800D03*
X196400Y238400D03*
X219400Y246400D03*
X206000Y249600D03*
X212600Y243000D03*
X237400Y232400D03*
X238400Y242800D03*
X261800Y234600D03*
X277000Y241800D03*
X273800Y242000D03*
X288600Y241400D03*
X309200Y248600D03*
X379400Y231600D03*
X124800Y262200D03*
X143800Y256000D03*
X129600Y266000D03*
X165000Y263600D03*
X163800Y268800D03*
X160800Y261600D03*
X160200Y265400D03*
X197400Y252200D03*
X188200Y263400D03*
X189200Y268600D03*
X192200Y264800D03*
Y269400D03*
X213000Y257800D03*
X212200Y251600D03*
X220000Y252400D03*
X218800Y257600D03*
X205600D03*
X242200Y257800D03*
X244800Y252200D03*
X238200Y258400D03*
X228800Y261800D03*
X247000Y257800D03*
X249800Y265800D03*
X257400Y262200D03*
X254200Y256200D03*
X258600Y252800D03*
X255800Y268800D03*
X269200Y267600D03*
X274200Y264400D03*
X294200Y262400D03*
X301800Y252000D03*
X292800D03*
X286400Y265400D03*
X288600Y271400D03*
X285600Y255000D03*
X320400Y260000D03*
X315200D03*
X309200Y254000D03*
X334000Y269200D03*
Y266600D03*
X344600Y267000D03*
Y269600D03*
X377800Y267200D03*
X130800Y280800D03*
X127800Y272800D03*
X145400Y273400D03*
X149800D03*
X180400Y289200D03*
X172600D03*
X169000Y281800D03*
X166200Y284200D03*
X166600Y287800D03*
X195800Y272000D03*
X201000Y288000D03*
X186800Y287400D03*
X194000Y290000D03*
X189200Y273600D03*
X193000Y275600D03*
X198200Y275000D03*
X222800Y275600D03*
X209200Y276200D03*
X215000Y273200D03*
X219800Y277200D03*
X220400Y282800D03*
X211800Y283600D03*
X207000Y289400D03*
X211800Y288600D03*
X250400Y272200D03*
X269000Y272400D03*
X290200Y285400D03*
X303800Y284600D03*
X290800Y274000D03*
X298000Y279400D03*
X325200Y288800D03*
X324000Y274600D03*
X312800Y277200D03*
X334000Y274400D03*
Y271800D03*
X344600Y272200D03*
Y274800D03*
X335800Y290000D03*
X351200Y287800D03*
X362800Y290200D03*
X372400Y287200D03*
X159400Y296400D03*
X199200Y291800D03*
X199000Y308400D03*
X204200Y306600D03*
X209000Y305400D03*
X206000Y293000D03*
Y297000D03*
X205600Y301200D03*
X227400Y307400D03*
X252400Y309000D03*
X280000Y301200D03*
X298600Y303600D03*
X311000Y304800D03*
X323000Y306000D03*
X316600Y293000D03*
X334600Y309600D03*
X364200Y298600D03*
X175800Y325600D03*
X182800Y330800D03*
X200600Y326000D03*
X212200Y324400D03*
X222600Y323600D03*
X245200Y327000D03*
X237000Y326800D03*
X243400Y323600D03*
X227400D03*
X234000Y323400D03*
X231200Y326200D03*
X252200Y319000D03*
X248800Y323600D03*
X280200Y329000D03*
X272400Y311800D03*
X275800Y314400D03*
X290600Y314000D03*
X302000Y313600D03*
X285400Y319600D03*
X296000Y330400D03*
X314000Y312400D03*
X309400Y320200D03*
X320600Y325400D03*
X318000Y318200D03*
X331000Y320000D03*
X342200Y326800D03*
X332800Y330200D03*
X345000Y319800D03*
X353200Y315000D03*
X173400Y342200D03*
X178600Y334400D03*
X184400Y341200D03*
X167800Y332200D03*
X181200Y349200D03*
X204000Y340600D03*
X198800Y333800D03*
X212800Y337800D03*
X210000Y332200D03*
X210800Y344600D03*
X229400Y335200D03*
X234400Y345400D03*
X248200Y337800D03*
X257000Y343200D03*
X256400Y333600D03*
X279000Y337200D03*
X286600Y346800D03*
X313000Y332800D03*
X322600Y334400D03*
X326400Y341400D03*
X195600Y360000D03*
X200400D03*
X205200Y365400D03*
X207600Y360800D03*
X313600Y353000D03*
G54D20*
X180915Y184609D03*
X173415D03*
X182077Y163423D03*
X189577D03*
G54D35*
X154611Y285811D02*
X160000D01*
Y287780D02*
Y287800D01*
X166600*
X364100Y223500D02*
X377700D01*
Y211900*
X364100*
Y223500*
X377700*
Y212100*
X364100*
Y223500*
X332900Y277000D02*
X345500D01*
Y265400*
X332900*
Y277000*
X364100Y222699D02*
X377700D01*
X364100Y221799D02*
X377700D01*
X364100Y220899D02*
X377700D01*
X364100Y219999D02*
X377700D01*
X364100Y219099D02*
X377700D01*
X364100Y218199D02*
X377700D01*
X364100Y217299D02*
X377700D01*
X364100Y216399D02*
X377700D01*
X364100Y215499D02*
X377700D01*
X364100Y214599D02*
X377700D01*
X364100Y213699D02*
X377700D01*
X364100Y212799D02*
X377700D01*
X364100Y222899D02*
X377700D01*
X364100Y221999D02*
X377700D01*
X364100Y221099D02*
X377700D01*
X364100Y220199D02*
X377700D01*
X364100Y219299D02*
X377700D01*
X364100Y218399D02*
X377700D01*
X364100Y217499D02*
X377700D01*
X364100Y216599D02*
X377700D01*
X364100Y215699D02*
X377700D01*
X364100Y214799D02*
X377700D01*
X364100Y213899D02*
X377700D01*
X364100Y212999D02*
X377700D01*
X332900Y276199D02*
X345500D01*
X332900Y275299D02*
X345500D01*
X332900Y274399D02*
X345500D01*
X332900Y273499D02*
X345500D01*
X332900Y272599D02*
X345500D01*
X332900Y271699D02*
X345500D01*
X332900Y270799D02*
X345500D01*
X332900Y269899D02*
X345500D01*
X332900Y268999D02*
X345500D01*
X332900Y268099D02*
X345500D01*
X332900Y267199D02*
X345500D01*
X332900Y266299D02*
X345500D01*
X203650Y356500D02*
X201400D01*
X200400Y360000D02*
Y357750D01*
X195600Y360000D02*
Y357750D01*
X192350Y356500D02*
X194600D01*
X193955Y231012D02*
X191705D01*
X226085Y256602D02*
X228335D01*
X226085Y231012D02*
X228335D01*
X216910Y227742D02*
Y225492D01*
X150945Y302628D02*
Y300378D01*
X159100Y296441D02*
X156850D01*
X150945Y290254D02*
Y292504D01*
Y271526D02*
Y269276D01*
X142789Y265339D02*
X145039D01*
X150945Y259152D02*
Y261402D01*
X159100Y265339D02*
X156850D01*
X154207Y277937D02*
X156457D01*
X139515Y240417D02*
Y238167D01*
X143015Y237167D02*
X140765D01*
X158014Y317812D02*
X155764D01*
X152764Y323062D02*
Y320812D01*
X147514Y317812D02*
X149764D01*
X152764Y312562D02*
Y314812D01*
X185100Y198950D02*
Y201200D01*
X199838Y205106D02*
Y202856D01*
X195038Y205106D02*
Y202856D01*
X207424Y295808D02*
X209674D01*
X212036Y289621D02*
Y291871D01*
Y301995D02*
Y299745D01*
X207424Y360769D02*
X209674D01*
X212036Y366956D02*
Y364706D01*
X328800Y191600D02*
Y189350D01*
X175222Y204630D02*
X172972D01*
X165722D02*
X167972D01*
X170472Y198880D02*
Y201130D01*
X162598Y208173D02*
Y210423D01*
X165848Y211673D02*
X163598D01*
X160730Y201437D02*
X158480D01*
X154230D02*
X156480D01*
X241168Y151761D02*
X238918D01*
X238269Y146164D02*
Y148414D01*
X227692Y151761D02*
X229942D01*
X251085Y170169D02*
X248835D01*
X244585D02*
X246835D01*
X272050Y141900D02*
X269800D01*
X268800Y145400D02*
Y143150D01*
X265550Y141900D02*
X267800D01*
X254650Y149000D02*
X256900D01*
X259400Y154750D02*
Y152500D01*
X264150Y149000D02*
X261900D01*
X284379Y142479D02*
Y144729D01*
X138144Y184055D02*
X140394D01*
X256685Y174269D02*
X258935D01*
X261435Y168519D02*
Y170769D01*
X195276Y154630D02*
Y156880D01*
X198526Y158130D02*
X196276D01*
X253635Y177869D02*
Y180119D01*
X256885Y181369D02*
X254635D01*
X173415Y188659D02*
Y186409D01*
Y180559D02*
Y182809D01*
X242552Y149013D02*
X244802D01*
X252052D02*
X249802D01*
X247302Y154763D02*
Y152513D01*
X160130Y180693D02*
X162380D01*
X164880Y186443D02*
Y184193D01*
X169630Y180693D02*
X167380D01*
X157428Y163935D02*
Y166185D01*
X199974Y174898D02*
X202224D01*
X209474D02*
X207224D01*
X242285Y141969D02*
X240035D01*
X239035Y145469D02*
Y143219D01*
X272711Y243147D02*
Y245397D01*
X277503Y243125D02*
Y245375D01*
X287160Y255186D02*
Y252936D01*
X337050Y158100D02*
X334800D01*
X345694Y271200D02*
X343444D01*
X339113Y279700D02*
Y277450D01*
X332533Y271200D02*
X334783D01*
X351375Y304344D02*
X349125D01*
X346125Y309594D02*
Y307344D01*
X340875Y304344D02*
X343125D01*
X346125Y299094D02*
Y301344D01*
X364222Y217679D02*
X366472D01*
X370803Y209179D02*
Y211429D01*
X377384Y217679D02*
X375134D01*
X370803Y226179D02*
Y223929D01*
X273100Y226177D02*
Y228427D01*
X277880Y238143D02*
Y235893D01*
X287500Y226177D02*
Y228427D01*
X290750Y229677D02*
X288500D01*
G54D37*
X351375Y304344D02*
G75*
G03X351375I-5250J0D01*
G01X158015Y317812D02*
G03X158015I-5251J0D01*
G01X362686Y172335D02*
G03X218035Y371147I-110324J71759D01*
X217850Y370906I65J-241*
G01Y367206*
G03X218100Y366956I250J-0*
G01X220304*
X220835Y366892D02*
G03X220304Y366956I-531J-2186D01*
G01X220835Y366892D02*
G03X220954I59J243D01*
G01X221485Y366956D02*
G03X220954Y366892I0J-2250D01*
G01X221485Y366956D02*
X226209D01*
X226741Y366892D02*
G03X226209Y366956I-532J-2186D01*
G01X226741Y366892D02*
G03X226859I59J243D01*
G01X227391Y366956D02*
G03X226859Y366892I-0J-2250D01*
G01X227391Y366956D02*
X232115D01*
X232646Y366892D02*
G03X232115Y366956I-531J-2186D01*
G01X232646Y366892D02*
G03X232765I60J243D01*
G01X233296Y366956D02*
G03X232765Y366892I0J-2250D01*
G01X233296Y366956D02*
X238020D01*
X238552Y366892D02*
G03X238020Y366956I-532J-2186D01*
G01X238552Y366892D02*
G03X238670I59J243D01*
G01X239202Y366956D02*
G03X238670Y366892I-0J-2250D01*
G01X239202Y366956D02*
X243926D01*
X244457Y366892D02*
G03X243926Y366956I-531J-2186D01*
G01X244457Y366892D02*
G03X244576I60J243D01*
G01X245107Y366956D02*
G03X244576Y366892I0J-2250D01*
G01X245107Y366956D02*
X249831D01*
X250363Y366892D02*
G03X249831Y366956I-532J-2186D01*
G01X250363Y366892D02*
G03X250481I59J243D01*
G01X251013Y366956D02*
G03X250481Y366892I-0J-2250D01*
G01X251013Y366956D02*
X255737D01*
X256269Y366892D02*
G03X255737Y366956I-532J-2186D01*
G01X256269Y366892D02*
G03X256387I59J243D01*
G01X256918Y366956D02*
G03X256387Y366892I0J-2250D01*
G01X256918Y366956D02*
X261643D01*
X262174Y366892D02*
G03X261643Y366956I-531J-2186D01*
G01X262174Y366892D02*
G03X262292I59J243D01*
G01X262824Y366956D02*
G03X262292Y366892I-0J-2250D01*
G01X262824Y366956D02*
X267548D01*
X268080Y366892D02*
G03X267548Y366956I-532J-2186D01*
G01X268080Y366892D02*
G03X268198I59J243D01*
G01X268729Y366956D02*
G03X268198Y366892I0J-2250D01*
G01X268729Y366956D02*
X273454D01*
X275704Y364706D02*
G03X273454Y366956I-2250J-0D01*
G01X275704Y364706D02*
Y356831D01*
X273454Y354581D02*
G03X275704Y356831I-0J2250D01*
G01X273454Y354581D02*
X268729D01*
X268198Y354645D02*
G03X268729Y354581I531J2186D01*
G01X268198Y354645D02*
G03X268080I-59J-243D01*
G01X267548Y354581D02*
G03X268080Y354645I0J2250D01*
G01X267548Y354581D02*
X262824D01*
X262292Y354645D02*
G03X262824Y354581I532J2186D01*
G01X262292Y354645D02*
G03X262174I-59J-243D01*
G01X261643Y354581D02*
G03X262174Y354645I-0J2250D01*
G01X261643Y354581D02*
X256918D01*
X256387Y354645D02*
G03X256918Y354581I531J2186D01*
G01X256387Y354645D02*
G03X256269I-59J-243D01*
G01X255737Y354581D02*
G03X256269Y354645I0J2250D01*
G01X255737Y354581D02*
X251013D01*
X250481Y354645D02*
G03X251013Y354581I532J2186D01*
G01X250481Y354645D02*
G03X250363I-59J-243D01*
G01X249831Y354581D02*
G03X250363Y354645I0J2250D01*
G01X249831Y354581D02*
X245107D01*
X244576Y354645D02*
G03X245107Y354581I531J2186D01*
G01X244576Y354645D02*
G03X244457I-59J-243D01*
G01X243926Y354581D02*
G03X244457Y354645I-0J2250D01*
G01X243926Y354581D02*
X239202D01*
X238670Y354645D02*
G03X239202Y354581I532J2186D01*
G01X238670Y354645D02*
G03X238552I-59J-243D01*
G01X238020Y354581D02*
G03X238552Y354645I0J2250D01*
G01X238020Y354581D02*
X233296D01*
X232765Y354645D02*
G03X233296Y354581I531J2186D01*
G01X232765Y354645D02*
G03X232646I-59J-243D01*
G01X232115Y354581D02*
G03X232646Y354645I-0J2250D01*
G01X232115Y354581D02*
X227391D01*
X226859Y354645D02*
G03X227391Y354581I532J2186D01*
G01X226859Y354645D02*
G03X226741I-59J-243D01*
G01X226209Y354581D02*
G03X226741Y354645I0J2250D01*
G01X226209Y354581D02*
X221485D01*
X221446Y354582D02*
G03X221485Y354581I39J2249D01*
G01X221446Y354582D02*
G03X221192Y354332I-4J-250D01*
G01Y352942*
X220240Y350644D02*
G03X221192Y352942I-2298J2298D01*
G01X220240Y350644D02*
X218798Y349202D01*
X217986Y348609D02*
G03X218798Y349202I-1486J2891D01*
G01X217986Y348609D02*
G03X217850Y348387I114J-222D01*
G01Y302245*
G03X218100Y301995I250J-0*
G01X220304*
X220835Y301931D02*
G03X220304Y301995I-531J-2186D01*
G01X220835Y301931D02*
G03X220954I59J243D01*
G01X221485Y301995D02*
G03X220954Y301931I0J-2250D01*
G01X221485Y301995D02*
X226209D01*
X226741Y301931D02*
G03X226209Y301995I-532J-2186D01*
G01X226741Y301931D02*
G03X226859I59J243D01*
G01X227391Y301995D02*
G03X226859Y301931I-0J-2250D01*
G01X227391Y301995D02*
X232115D01*
X232646Y301931D02*
G03X232115Y301995I-531J-2186D01*
G01X232646Y301931D02*
G03X232765I60J243D01*
G01X233296Y301995D02*
G03X232765Y301931I0J-2250D01*
G01X233296Y301995D02*
X238020D01*
X238552Y301931D02*
G03X238020Y301995I-532J-2186D01*
G01X238552Y301931D02*
G03X238670I59J243D01*
G01X239202Y301995D02*
G03X238670Y301931I-0J-2250D01*
G01X239202Y301995D02*
X243926D01*
X244457Y301931D02*
G03X243926Y301995I-531J-2186D01*
G01X244457Y301931D02*
G03X244576I60J243D01*
G01X245107Y301995D02*
G03X244576Y301931I0J-2250D01*
G01X245107Y301995D02*
X249831D01*
X250363Y301931D02*
G03X249831Y301995I-532J-2186D01*
G01X250363Y301931D02*
G03X250481I59J243D01*
G01X251013Y301995D02*
G03X250481Y301931I-0J-2250D01*
G01X251013Y301995D02*
X255737D01*
X256269Y301931D02*
G03X255737Y301995I-532J-2186D01*
G01X256269Y301931D02*
G03X256387I59J243D01*
G01X256918Y301995D02*
G03X256387Y301931I0J-2250D01*
G01X256918Y301995D02*
X261643D01*
X262174Y301931D02*
G03X261643Y301995I-531J-2186D01*
G01X262174Y301931D02*
G03X262292I59J243D01*
G01X262824Y301995D02*
G03X262292Y301931I-0J-2250D01*
G01X262824Y301995D02*
X267548D01*
X268080Y301931D02*
G03X267548Y301995I-532J-2186D01*
G01X268080Y301931D02*
G03X268198I59J243D01*
G01X268729Y301995D02*
G03X268198Y301931I0J-2250D01*
G01X268729Y301995D02*
X273454D01*
X275704Y299745D02*
G03X273454Y301995I-2250J-0D01*
G01X275704Y299745D02*
Y291871D01*
X273454Y289621D02*
G03X275704Y291871I-0J2250D01*
G01X273454Y289621D02*
X268729D01*
X268198Y289685D02*
G03X268729Y289621I531J2186D01*
G01X268198Y289685D02*
G03X268080I-59J-243D01*
G01X267548Y289621D02*
G03X268080Y289685I0J2250D01*
G01X267548Y289621D02*
X262824D01*
X262292Y289685D02*
G03X262824Y289621I532J2186D01*
G01X262292Y289685D02*
G03X262174I-59J-243D01*
G01X261643Y289621D02*
G03X262174Y289685I-0J2250D01*
G01X261643Y289621D02*
X256918D01*
X256387Y289685D02*
G03X256918Y289621I531J2186D01*
G01X256387Y289685D02*
G03X256269I-59J-243D01*
G01X255737Y289621D02*
G03X256269Y289685I0J2250D01*
G01X255737Y289621D02*
X251013D01*
X250481Y289685D02*
G03X251013Y289621I532J2186D01*
G01X250481Y289685D02*
G03X250363I-59J-243D01*
G01X249831Y289621D02*
G03X250363Y289685I0J2250D01*
G01X249831Y289621D02*
X245107D01*
X244576Y289685D02*
G03X245107Y289621I531J2186D01*
G01X244576Y289685D02*
G03X244457I-59J-243D01*
G01X244410Y289674D02*
G03X244457Y289685I-484J2197D01*
G01X244410Y289674D02*
G03X244214Y289429I54J-245D01*
G01Y289400*
X243438Y287526D02*
G03X244214Y289400I-1874J1874D01*
G01X243438Y287526D02*
X241438Y285526D01*
X239564Y284750D02*
G03X241438Y285526I-0J2650D01*
G01X239564Y284750D02*
X233300D01*
G03X233050Y284500I0J-250*
G01Y272500*
G03X233300Y272250I250J0*
G01X243550*
X245313Y271523D02*
G03X243550Y272250I-1763J-1773D01*
G01X245313Y271523D02*
G03X245489Y271450I176J177D01*
G01X246250*
Y266201*
G03X246323Y266024I250J0*
G01X251274Y261074*
X252050Y259200D02*
G03X251274Y261074I-2650J0D01*
G01X252050Y259200D02*
Y253406D01*
X251274Y251532D02*
G03X252050Y253406I-1874J1874D01*
G01X251274Y251532D02*
X249819Y250077D01*
G03X249995Y249650I176J-177*
G01X262500*
G03X262750Y249900I-0J250*
G01Y251000*
X263526Y252874D02*
G03X262750Y251000I1874J-1874D01*
G01X263526Y252874D02*
X264212Y253560D01*
X264984Y254096D02*
G03X264212Y253560I1102J-2410D01*
G01X264984Y254096D02*
G03X265088Y254185I-104J228D01*
G01X266960Y255186D02*
G03X265088Y254185I-0J-2250D01*
G01X266960Y255186D02*
X268960D01*
X270224Y254797D02*
G03X268960Y255186I-1264J-1861D01*
G01X270224Y254797D02*
G03X270500Y254793I141J207D01*
G01X271711Y255147D02*
G03X270500Y254793I-0J-2250D01*
G01X271711Y255147D02*
X273711D01*
X274982Y254754D02*
G03X273711Y255147I-1271J-1857D01*
G01X274982Y254754D02*
G03X275262Y254751I142J206D01*
G01X276503Y255125D02*
G03X275262Y254751I0J-2250D01*
G01X276503Y255125D02*
X278503D01*
X279749Y254748D02*
G03X278503Y255125I-1246J-1873D01*
G01X279749Y254748D02*
G03X280035Y254754I138J209D01*
G01X281360Y255186D02*
G03X280035Y254754I-0J-2250D01*
G01X281360Y255186D02*
X283360D01*
X284620Y254800D02*
G03X283360Y255186I-1260J-1864D01*
G01X284620Y254800D02*
G03X284900I140J207D01*
G01X286160Y255186D02*
G03X284900Y254800I-0J-2250D01*
G01X286160Y255186D02*
X288160D01*
X289899Y254363D02*
G03X288160Y255186I-1739J-1427D01*
G01X289899Y254363D02*
G03X290276Y254352I194J159D01*
G01X294943Y254704D02*
G03X290276Y254352I-2143J-2704D01*
G01X294943Y254704D02*
G03X295098Y254650I155J196D01*
G01X299502*
G03X299657Y254704I0J250*
G01X303104Y248806D02*
G03X299657Y254704I-1304J3194D01*
G01X303104Y248806D02*
G03X302986Y248443I95J-232D01*
G01X303220Y247929D02*
G03X302986Y248443I-2148J-668D01*
G01X303220Y247929D02*
G03X303350Y247778I239J74D01*
G01X304074Y247264D02*
G03X303350Y247778I-1874J-1874D01*
G01X304074Y247264D02*
X305874Y245464D01*
X306650Y243590D02*
G03X305874Y245464I-2650J0D01*
G01X306650Y243590D02*
Y207100D01*
G03X306900Y206850I250J0*
G01X339199*
G03X339376Y206923I-0J250*
G01X339926Y207474*
X341800Y208250D02*
G03X339926Y207474I0J-2650D01*
G01X341800Y208250D02*
X354600D01*
X356474Y207474D02*
G03X354600Y208250I-1874J-1874D01*
G01X356474Y207474D02*
X358691Y205257D01*
X359460Y203574D02*
G03X358691Y205257I-2643J-191D01*
G01X359460Y203574D02*
G03X359683Y203344I250J18D01*
G01X362226Y200510D02*
G03X359683Y203344I-2850J0D01*
G01X362226Y200510D02*
Y195017D01*
X362043Y194010D02*
G03X362226Y195017I-2667J1007D01*
G01X362043Y194010D02*
G03X362026Y193922I233J-88D01*
G01Y177196*
G03X362043Y177108I250J0*
G01X362226Y176101D02*
G03X362043Y177108I-2850J-0D01*
G01X362226Y176101D02*
Y172471D01*
G03X362686Y172335I250J0*
G01X211450Y153500D02*
Y157239D01*
G03X211326Y157455I-250J-0*
G01X210222Y159173D02*
G03X211326Y157455I2239J225D01*
G01X210222Y159173D02*
G03X209973Y159398I-249J-25D01*
G01X209712*
G03X209463Y159173I-0J-250*
G01X207224Y157148D02*
G03X209463Y159173I0J2250D01*
G01X207224Y157148D02*
X202224D01*
X199974Y159382D02*
G03X202224Y157148I2250J16D01*
G01X199974Y159382D02*
G03X199724Y159630I-250J-2D01*
G01X198776*
G03X198526Y159380I-0J-250*
G01Y156880*
X196276Y154630D02*
G03X198526Y156880I-0J2250D01*
G01X196276Y154630D02*
X194276D01*
X192522Y155471D02*
G03X194276Y154630I1754J1409D01*
G01X192522Y155471D02*
G03X192077Y155314I-195J-157D01*
G01Y154873*
X191871Y153648D02*
G03X192077Y154873I-3544J1225D01*
G01X191871Y153648D02*
G03X192107Y153316I236J-82D01*
G01X194312*
X195654Y152872D02*
G03X194312Y153316I-1342J-1806D01*
G01X195654Y152872D02*
G03X195943Y152866I149J201D01*
G01X197200Y153250D02*
G03X195943Y152866I0J-2250D01*
G01X197200Y153250D02*
X207200D01*
X208550Y152800D02*
G03X207200Y153250I-1350J-1800D01*
G01X208550Y152800D02*
G03X208850I150J200D01*
G01X210200Y153250D02*
G03X208850Y152800I0J-2250D01*
G01X210200Y153250D02*
X211200D01*
G03X211450Y153500I-0J250*
G01X215430Y180648D02*
G03X215607Y181074I-0J250D01*
G01X214442Y182239*
G03X214283Y182311I-176J-177*
G01X212908Y182906D02*
G03X214283Y182311I1530J1650D01*
G01X212908Y182906D02*
G03X212568I-170J-183D01*
G01X211038Y182306D02*
G03X212568Y182906I0J2250D01*
G01X211038Y182306D02*
X209038D01*
X207868Y182634D02*
G03X209038Y182306I1170J1922D01*
G01X207868Y182634D02*
G03X207488Y182420I-130J-214D01*
G01Y181238*
X207465Y180883D02*
G03X207488Y181238I-2627J355D01*
G01X207465Y180883D02*
G03X207663Y180604I247J-33D01*
G01X209474Y178398D02*
G03X207663Y180604I-2250J-0D01*
G01X209474Y178398D02*
Y171398D01*
X207234Y169148D02*
G03X209474Y171398I-10J2250D01*
G01X207234Y169148D02*
G03Y168648I1J-250D01*
G01X209463Y166623D02*
G03X207234Y168648I-2239J-225D01*
G01X209463Y166623D02*
G03X209712Y166398I249J25D01*
G01X209973*
G03X210222Y166623I0J250*
G01X212451Y168648D02*
G03X210222Y166623I10J-2250D01*
G01X212451Y168648D02*
G03Y169148I-1J250D01*
G01X210211Y171398D02*
G03X212451Y169148I2250J-0D01*
G01X210211Y171398D02*
Y178398D01*
X212461Y180648D02*
G03X210211Y178398I-0J-2250D01*
G01X212461Y180648D02*
X215430D01*
X202215Y168648D02*
G03Y169148I-1J250D01*
G01X199974Y171398D02*
G03X202215Y169148I2250J-0D01*
G01X199974Y171398D02*
Y176900D01*
G03X199724Y177150I-250J-0*
G01X197912*
G03X197748Y176711I-0J-250*
G01X198524Y175101D02*
G03X197748Y176711I-2248J-91D01*
G01X198524Y175101D02*
G03X198540Y175021I250J11D01*
G01Y172498D02*
G03Y175021I-3264J1262D01*
G01Y172498D02*
G03X198524Y172418I234J-90D01*
G01X198224Y171385D02*
G03X198524Y172418I-1948J1125D01*
G01X198224Y171385D02*
G03Y171135I217J-125D01*
G01X198524Y170101D02*
G03X198224Y171135I-2248J-91D01*
G01X198524Y170101D02*
G03X198540Y170021I250J11D01*
G01X198776Y168760D02*
G03X198540Y170021I-3500J-0D01*
G01X198776Y168760D02*
Y166880D01*
G03X199026Y166630I250J-0*
G01X199771*
G03X200017Y166832I0J250*
G01X202215Y168648D02*
G03X200017Y166832I9J-2250D01*
G01X179827Y157400D02*
Y159223D01*
G03X179647Y159463I-250J-0*
G01X178376Y160419D02*
G03X179647Y159463I1901J1204D01*
G01X178376Y160419D02*
G03X178165Y160535I-211J-134D01*
G01X176165*
X173915Y162785D02*
G03X176165Y160535I2250J0D01*
G01X173915Y162785D02*
Y165285D01*
X174217Y166410D02*
G03X173915Y165285I1948J-1125D01*
G01X174217Y166410D02*
G03Y166660I-217J125D01*
G01X173915Y167785D02*
G03X174217Y166660I2250J0D01*
G01X173915Y167785D02*
Y170285D01*
X174430Y171718D02*
G03X173915Y170285I1735J-1433D01*
G01X174430Y171718D02*
G03X174350Y172101I-192J159D01*
G01X173115Y174109D02*
G03X174350Y172101I2250J-0D01*
G01X173115Y174109D02*
Y179109D01*
X173391Y180189D02*
G03X173115Y179109I1974J-1080D01*
G01X173391Y180189D02*
G03X173172Y180559I-219J120D01*
G01X171615*
X170053Y181189D02*
G03X171615Y180559I1562J1620D01*
G01X170053Y181189D02*
G03X169630Y181009I-173J-180D01*
G01Y177193*
X167389Y174943D02*
G03X169630Y177193I-9J2250D01*
G01X167389Y174943D02*
G03Y174443I1J-250D01*
G01X169630Y172193D02*
G03X167389Y174443I-2250J-0D01*
G01X169630Y172193D02*
Y165193D01*
X167380Y162943D02*
G03X169630Y165193I-0J2250D01*
G01X167380Y162943D02*
X162380D01*
X160284Y164374D02*
G03X162380Y162943I2096J819D01*
G01X160284Y164374D02*
G03X159889Y164474I-233J-90D01*
G01X158428Y163935D02*
G03X159889Y164474I-0J2250D01*
G01X158428Y163935D02*
X156800D01*
G03X156550Y163685I0J-250*
G01Y163057*
G03X156623Y162880I250J-0*
G01X166423Y153080*
G03X166777I177J177*
G01X169748Y156052*
X172400Y157150D02*
G03X169748Y156052I0J-3750D01*
G01X172400Y157150D02*
X179577D01*
G03X179827Y157400I-0J250*
G01X179350Y188909D02*
Y198700D01*
G03X179100Y198950I-250J-0*
G01X178850*
X176600Y201200D02*
G03X178850Y198950I2250J0D01*
G01X176600Y201200D02*
Y203200D01*
X176911Y204341D02*
G03X176600Y203200I1939J-1141D01*
G01X176911Y204341D02*
G03X176860Y204656I-216J127D01*
G01X176704Y204802D02*
G03X176860Y204656I2298J2298D01*
G01X176704Y204802D02*
X175649Y205857D01*
G03X175222Y205680I-177J-177*
G01Y201130*
X172972Y198880D02*
G03X175222Y201130I0J2250D01*
G01X172972Y198880D02*
X167972D01*
X165722Y201130D02*
G03X167972Y198880I2250J-0D01*
G01X165722Y201130D02*
Y208130D01*
X165841Y208851D02*
G03X165722Y208130I2131J-721D01*
G01X165841Y208851D02*
G03X165404Y209080I-237J80D01*
G01X163598Y208173D02*
G03X165404Y209080I0J2250D01*
G01X163598Y208173D02*
X161598D01*
X161024Y208248D02*
G03X161598Y208173I574J2175D01*
G01X161024Y208248D02*
G03X160712Y207974I-64J-242D01*
G01X160730Y207687D02*
G03X160712Y207974I-2250J0D01*
G01X160730Y207687D02*
Y205187D01*
X160429Y204062D02*
G03X160730Y205187I-1949J1125D01*
G01X160429Y204062D02*
G03Y203812I216J-125D01*
G01X160730Y202687D02*
G03X160429Y203812I-2250J0D01*
G01X160730Y202687D02*
Y200187D01*
X160235Y198779D02*
G03X160730Y200187I-1755J1408D01*
G01X160235Y198779D02*
G03Y198466I195J-157D01*
G01X160730Y197057D02*
G03X160235Y198466I-2250J0D01*
G01X160730Y197057D02*
Y194557D01*
X160429Y193432D02*
G03X160730Y194557I-1949J1125D01*
G01X160429Y193432D02*
G03Y193182I216J-125D01*
G01X160730Y192057D02*
G03X160429Y193182I-2250J0D01*
G01X160730Y192057D02*
Y189557D01*
X158480Y187307D02*
G03X160730Y189557I0J2250D01*
G01X158480Y187307D02*
X156480D01*
X154790Y188072D02*
G03X156480Y187307I1690J1485D01*
G01X154790Y188072D02*
G03X154602Y188157I-188J-165D01*
G01X151651*
G03X151418Y187815I-0J-250*
G01X151620Y186752D02*
G03X151418Y187815I-2900J-0D01*
G01X151620Y186752D02*
Y181358D01*
X150742Y179279D02*
G03X151620Y181358I-2022J2079D01*
G01X150742Y179279D02*
G03X150916Y178850I174J-179D01*
G01X156400*
X158698Y177898D02*
G03X156400Y178850I-2298J-2298D01*
G01X158698Y177898D02*
X159706Y176890D01*
G03X160133Y177079I177J177*
G01X160130Y177193D02*
G03X160133Y177079I2250J-0D01*
G01X160130Y177193D02*
Y184193D01*
X162380Y186443D02*
G03X160130Y184193I-0J-2250D01*
G01X162380Y186443D02*
X167380D01*
X168942Y185812D02*
G03X167380Y186443I-1562J-1619D01*
G01X168942Y185812D02*
G03X169365Y185992I173J180D01*
G01Y186409*
X171615Y188659D02*
G03X169365Y186409I0J-2250D01*
G01X171615Y188659D02*
X175215D01*
X176970Y187817D02*
G03X175215Y188659I-1755J-1408D01*
G01X176970Y187817D02*
G03X177360I195J156D01*
G01X179102Y188659D02*
G03X177360Y187817I13J-2250D01*
G01X179102Y188659D02*
G03X179350Y188909I-2J250D01*
G01X154465Y198457D02*
G03X154667Y198855I0J250D01*
G01X154230Y200187D02*
G03X154667Y198855I2250J0D01*
G01X154230Y200187D02*
Y202687D01*
X154364Y203452D02*
G03X154230Y202687I2116J-765D01*
G01X154364Y203452D02*
G03X154129Y203787I-235J85D01*
G01X151870*
G03X151620Y203537I0J-250*
G01Y199862*
X151418Y198799D02*
G03X151620Y199862I-2698J1063D01*
G01X151418Y198799D02*
G03X151651Y198457I233J-92D01*
G01X154465*
X149879Y169810D02*
G03Y170060I-217J125D01*
G01X149578Y171185D02*
G03X149879Y170060I2250J-0D01*
G01X149578Y171185D02*
Y172100D01*
G03X149328Y172350I-250J-0*
G01X145402*
X143104Y173302D02*
G03X145402Y172350I2298J2298D01*
G01X143104Y173302D02*
X141304Y175102D01*
X140352Y177400D02*
G03X141304Y175102I3250J0D01*
G01X140352Y177400D02*
Y178352D01*
G03X140177Y178591I-250J0*
G01X138144Y181358D02*
G03X140177Y178591I2899J0D01*
G01X138144Y181358D02*
Y186752D01*
X138280Y187631D02*
G03X138144Y186752I2763J-879D01*
G01X138280Y187631D02*
G03X138042Y187957I-238J76D01*
G01X137721*
G03X137553Y187892I-0J-250*
G01X136039Y187307D02*
G03X137553Y187892I0J2250D01*
G01X136039Y187307D02*
X134040D01*
X134034*
G03X133808Y186949I-1J-250*
X148603Y163133I118554J57145*
X149050Y163287I197J154*
G01Y164529*
X149076Y164968D02*
G03X149050Y164529I3724J-439D01*
G01X149076Y164968D02*
G03X149078Y164997I-248J29D01*
G01Y167435*
X149770Y169606D02*
G03X149078Y167435I3058J-2171D01*
G01X149770Y169606D02*
G03X149792Y169644I-204J145D01*
G01X149879Y169810D02*
G03X149792Y169644I1949J-1125D01*
G01X167963Y210380D02*
G03Y210880I-1J250D01*
G01X166286Y211641D02*
G03X167963Y210880I1686J1489D01*
G01X166286Y211641D02*
G03X165848Y211475I-188J-166D01*
G01Y210423*
X165730Y209702D02*
G03X165848Y210423I-2132J721D01*
G01X165730Y209702D02*
G03X166167Y209473I237J-80D01*
G01X167963Y210380D02*
G03X166167Y209473I9J-2250D01*
G01X245228Y166994D02*
G03Y167344I-179J175D01*
G01X244585Y168919D02*
G03X245228Y167344I2250J0D01*
G01X244585Y168919D02*
Y171419D01*
X244719Y172184D02*
G03X244585Y171419I2116J-765D01*
G01X244719Y172184D02*
G03X244484Y172519I-235J85D01*
G01X241418*
G03X241168Y172269I0J-250*
G01Y167568*
X241132Y167109D02*
G03X241168Y167568I-2863J459D01*
G01X241132Y167109D02*
G03X241378Y166819I246J-40D01*
G01X244956*
G03X245144Y166904I0J250*
G01X245228Y166994D02*
G03X245144Y166904I1607J-1575D01*
G01X235785Y131339D02*
Y133469D01*
G03X235535Y133719I-250J0*
G01X234981*
X232683Y134671D02*
G03X234981Y133719I2298J2298D01*
G01X232683Y134671D02*
X230852Y136502D01*
X229900Y138800D02*
G03X230852Y136502I3250J0D01*
G01X229900Y138800D02*
Y146058D01*
G03X229725Y146297I-250J-0*
G01X227692Y149064D02*
G03X229725Y146297I2899J-0D01*
G01X227692Y149064D02*
Y154457D01*
X228176Y156062D02*
G03X227692Y154457I2415J-1605D01*
G01X228176Y156062D02*
G03X227968Y156450I-208J138D01*
G01X226482*
G03X226313Y156385I-0J-250*
G01X225089Y155819D02*
G03X226313Y156385I-289J2231D01*
G01X225089Y155819D02*
G03X224944Y155394I32J-248D01*
G01X225357Y154982*
X226250Y152825D02*
G03X225357Y154982I-3050J0D01*
G01X226250Y152825D02*
Y135957D01*
G03X226323Y135780I250J-0*
G01X231941Y130163*
G03X232117Y130089I176J176*
G01X235535*
G03X235785Y130339I-0J250*
G01Y131339*
X258925Y180019D02*
G03Y180519I-1J250D01*
G01X257315Y181208D02*
G03X258925Y180519I1620J1561D01*
G01X257315Y181208D02*
G03X256885Y181034I-180J-174D01*
G01Y180119*
X256784Y179454D02*
G03X256885Y180119I-2149J665D01*
G01X256784Y179454D02*
G03X257214Y179219I239J-74D01*
G01X258925Y180019D02*
G03X257214Y179219I10J-2250D01*
G01X265550Y131300D02*
Y133400D01*
G03X265300Y133650I-250J-0*
G01X264398*
G03X264148Y133410I0J-250*
G01X261900Y131250D02*
G03X264148Y133410I0J2250D01*
G01X261900Y131250D02*
X256900D01*
X254650Y133500D02*
G03X256900Y131250I2250J0D01*
G01X254650Y133500D02*
Y140500D01*
X256891Y142750D02*
G03X254650Y140500I9J-2250D01*
G01X256891Y142750D02*
G03Y143250I-1J250D01*
G01X254650Y145500D02*
G03X256891Y143250I2250J0D01*
G01X254650Y145500D02*
Y152500D01*
X256900Y154750D02*
G03X254650Y152500I0J-2250D01*
G01X256900Y154750D02*
X261900D01*
X263340Y154229D02*
G03X261900Y154750I-1440J-1729D01*
G01X263340Y154229D02*
G03X263750Y154421I160J192D01*
G01Y168269*
G03X263500Y168519I-250J0*
G01X258935*
X256685Y170769D02*
G03X258935Y168519I2250J0D01*
G01X256685Y170769D02*
Y177769D01*
X256785Y178434D02*
G03X256685Y177769I2150J-665D01*
G01X256785Y178434D02*
G03X256355Y178669I-239J74D01*
G01X254635Y177869D02*
G03X256355Y178669I-0J2250D01*
G01X254635Y177869D02*
X252635D01*
X250925Y178657D02*
G03X252635Y177869I1710J1462D01*
G01X250925Y178657D02*
G03X250485Y178494I-190J-163D01*
G01Y178044*
G03X250545Y177882I250J0*
G01X251085Y176419D02*
G03X250545Y177882I-2250J0D01*
G01X251085Y176419D02*
Y173919D01*
X250783Y172794D02*
G03X251085Y173919I-1948J1125D01*
G01X250783Y172794D02*
G03Y172544I217J-125D01*
G01X251085Y171419D02*
G03X250783Y172544I-2250J0D01*
G01X251085Y171419D02*
Y168919D01*
X250441Y167344D02*
G03X251085Y168919I-1606J1575D01*
G01X250441Y167344D02*
G03Y166994I179J-175D01*
G01X251085Y165419D02*
G03X250441Y166994I-2250J0D01*
G01X251085Y165419D02*
Y162919D01*
X250783Y161794D02*
G03X251085Y162919I-1948J1125D01*
G01X250783Y161794D02*
G03Y161544I217J-125D01*
G01X251085Y160419D02*
G03X250783Y161544I-2250J0D01*
G01X251085Y160419D02*
Y157919D01*
X248835Y155669D02*
G03X251085Y157919I-0J2250D01*
G01X248835Y155669D02*
X246835D01*
X245144Y156434D02*
G03X246835Y155669I1691J1485D01*
G01X245144Y156434D02*
G03X244956Y156519I-188J-165D01*
G01X240845*
G03X240640Y156125I-0J-250*
G01X241168Y154457D02*
G03X240640Y156125I-2899J0D01*
G01X241168Y154457D02*
Y149064D01*
X237091Y146414D02*
G03X241168Y149064I1178J2650D01*
G01X237091Y146414D02*
G03X236887I-102J-228D01*
G01X236576Y146297D02*
G03X236887Y146414I-867J2767D01*
G01X236576Y146297D02*
G03X236400Y146058I74J-239D01*
G01Y145301*
G03X236789Y145093I250J0*
G01X238035Y145469D02*
G03X236789Y145093I-0J-2250D01*
G01X238035Y145469D02*
X240035D01*
X242285Y143219D02*
G03X240035Y145469I-2250J0D01*
G01X242285Y143219D02*
Y141565D01*
G03X242761Y141460I250J0*
G01X244793Y142763D02*
G03X242761Y141460I9J-2250D01*
G01X244793Y142763D02*
G03Y143263I-1J250D01*
G01X242552Y145513D02*
G03X244793Y143263I2250J-0D01*
G01X242552Y145513D02*
Y152513D01*
X244802Y154763D02*
G03X242552Y152513I0J-2250D01*
G01X244802Y154763D02*
X249802D01*
X252052Y152513D02*
G03X249802Y154763I-2250J-0D01*
G01X252052Y152513D02*
Y145513D01*
X249812Y143263D02*
G03X252052Y145513I-10J2250D01*
G01X249812Y143263D02*
G03Y142763I1J-250D01*
G01X252052Y140513D02*
G03X249812Y142763I-2250J-0D01*
G01X252052Y140513D02*
Y133513D01*
X249802Y131263D02*
G03X252052Y133513I0J2250D01*
G01X249802Y131263D02*
X244802D01*
X242761Y132565D02*
G03X244802Y131263I2041J948D01*
G01X242761Y132565D02*
G03X242285Y132460I-226J-105D01*
G01Y131339*
Y130339*
G03X242535Y130089I250J0*
G01X253861*
X254385Y130052D02*
G03X253861Y130089I-524J-3713D01*
G01X254385Y130052D02*
G03X254420Y130050I35J248D01*
G01X265300*
G03X265550Y130300I-0J250*
G01Y131300*
X220150Y137600D02*
Y138500D01*
G03X219900Y138750I-250J-0*
G01X210200*
X208850Y139200D02*
G03X210200Y138750I1350J1800D01*
G01X208850Y139200D02*
G03X208550I-150J-200D01*
G01X207200Y138750D02*
G03X208550Y139200I0J2250D01*
G01X207200Y138750D02*
X197200D01*
X195859Y139194D02*
G03X197200Y138750I1341J1806D01*
G01X195859Y139194D02*
G03X195570Y139200I-149J-201D01*
G01X194312Y138816D02*
G03X195570Y139200I0J2250D01*
G01X194312Y138816D02*
X187426D01*
G03X187249Y138389I-0J-250*
G01X188215Y137423*
G03X188392Y137350I177J177*
G01X219900*
G03X220150Y137600I-0J250*
G01X276211Y142306D02*
Y142318D01*
G03X276019Y142560I-250J-0*
G01X273802Y145379D02*
G03X276019Y142560I2900J-0D01*
G01X273802Y145379D02*
Y145841D01*
G03X273447Y146068I-250J0*
G01X269793Y146548D02*
G03X273447Y146068I2207J2652D01*
G01X269793Y146548D02*
G03X269682Y146601I-160J-192D01*
G01X268326Y147326D02*
G03X269682Y146601I1874J1874D01*
G01X268326Y147326D02*
X264577Y151076D01*
G03X264150Y150899I-177J-177*
G01Y145500*
X261909Y143250D02*
G03X264150Y145500I-9J2250D01*
G01X261909Y143250D02*
G03Y142750I1J-250D01*
G01X264150Y140500D02*
G03X261909Y142750I-2250J0D01*
G01X264150Y140500D02*
Y140400D01*
G03X264400Y140150I250J0*
G01X265313*
G03X265561Y140425I-0J250*
G01X265550Y140650D02*
G03X265561Y140425I2250J0D01*
G01X265550Y140650D02*
Y143150D01*
X267800Y145400D02*
G03X265550Y143150I0J-2250D01*
G01X267800Y145400D02*
X269800D01*
X272050Y143150D02*
G03X269800Y145400I-2250J0D01*
G01X272050Y143150D02*
Y140650D01*
X272039Y140425D02*
G03X272050Y140650I-2239J225D01*
G01X272039Y140425D02*
G03X272287Y140150I248J-25D01*
G01X275761*
G03X276011Y140400I-0J250*
G01Y141139*
X276196Y142222D02*
G03X276011Y141139I3065J-1083D01*
G01X276196Y142222D02*
G03X276211Y142306I-235J84D01*
G01X300009Y202250D02*
G03X300198Y202664I0J250D01*
G01X299550Y204400D02*
G03X300198Y202664I2650J0D01*
G01X299550Y204400D02*
Y233146D01*
G03X299300Y233396I-250J0*
G01X296150*
X294243Y234453D02*
G03X296150Y233396I1907J1193D01*
G01X294243Y234453D02*
G03X294059Y234569I-212J-132D01*
G01X292944Y234920D02*
G03X294059Y234569I1456J2680D01*
G01X292944Y234920D02*
G03X292825Y234950I-119J-220D01*
G01X291000*
G03X290750Y234700I0J-250*
G01Y233427*
X290449Y232302D02*
G03X290750Y233427I-1949J1125D01*
G01X290449Y232302D02*
G03Y232052I216J-125D01*
G01X290750Y230927D02*
G03X290449Y232052I-2250J-0D01*
G01X290750Y230927D02*
Y228427D01*
X288500Y226177D02*
G03X290750Y228427I0J2250D01*
G01X288500Y226177D02*
X286500D01*
X285240Y226562D02*
G03X286500Y226177I1260J1865D01*
G01X285240Y226562D02*
G03X284960I-140J-207D01*
G01X283700Y226177D02*
G03X284960Y226562I0J2250D01*
G01X283700Y226177D02*
X281700D01*
X280453Y226553D02*
G03X281700Y226177I1247J1874D01*
G01X280453Y226553D02*
G03X280171Y226550I-138J-208D01*
G01X278880Y226142D02*
G03X280171Y226550I-0J2251D01*
G01X278880Y226142D02*
X276880D01*
X275606Y226538D02*
G03X276880Y226142I1274J1855D01*
G01X275606Y226538D02*
G03X275328Y226541I-141J-206D01*
G01X274100Y226177D02*
G03X275328Y226541I0J2250D01*
G01X274100Y226177D02*
X272100D01*
X270840Y226562D02*
G03X272100Y226177I1260J1865D01*
G01X270840Y226562D02*
G03X270560I-140J-207D01*
G01X269300Y226177D02*
G03X270560Y226562I0J2250D01*
G01X269300Y226177D02*
X267300D01*
X265196Y227629D02*
G03X267300Y226177I2104J798D01*
G01X265196Y227629D02*
G03X265132Y227724I-233J-89D01*
G01X265050Y227803D02*
G03X265132Y227724I1873J1874D01*
G01X265050Y227803D02*
X263726Y229126D01*
X262950Y231000D02*
G03X263726Y229126I2650J0D01*
G01X262950Y231000D02*
Y242300D01*
G03X262700Y242550I-250J-0*
G01X246500*
G03X246250Y242300I0J-250*
G01Y235320*
G03X246319Y235147I250J-0*
G01X247050Y233320D02*
G03X246319Y235147I-2650J-0D01*
G01X247050Y233320D02*
Y230700D01*
G03X247300Y230450I250J0*
G01X247502*
G03X247657Y230504I0J250*
G01Y225096D02*
G03Y230504I2143J2704D01*
G01Y225096D02*
G03X247502Y225150I-155J-196D01*
G01X246500*
G03X246250Y224900I0J-250*
G01Y214601*
G03X246323Y214424I250J0*
G01X247424Y213323*
G03X247601Y213250I177J177*
G01X252400*
X254274Y212474D02*
G03X252400Y213250I-1874J-1874D01*
G01X254274Y212474D02*
X259274Y207474D01*
X260050Y205600D02*
G03X259274Y207474I-2650J0D01*
G01X260050Y205600D02*
Y202500D01*
G03X260300Y202250I250J0*
G01X300009*
X294885Y241247D02*
G03Y241660I-141J206D01*
G01X294153Y242484D02*
G03X294885Y241660I1997J1036D01*
G01X294153Y242484D02*
G03X293982Y242613I-221J-116D01*
G01X293144Y242920D02*
G03X293982Y242613I1456J2680D01*
G01X293144Y242920D02*
G03X293025Y242950I-119J-220D01*
G01X292123*
X290249Y243726D02*
G03X292123Y242950I1874J1874D01*
G01X290249Y243726D02*
X290117Y243858D01*
G03X289762Y243857I-177J-177*
G01X288160Y243186D02*
G03X289762Y243857I-0J2250D01*
G01X288160Y243186D02*
X286160D01*
X284900Y243572D02*
G03X286160Y243186I1260J1864D01*
G01X284900Y243572D02*
G03X284620I-140J-207D01*
G01X283360Y243186D02*
G03X284620Y243572I-0J2250D01*
G01X283360Y243186D02*
X281360D01*
X280114Y243563D02*
G03X281360Y243186I1246J1873D01*
G01X280114Y243563D02*
G03X279828Y243556I-138J-209D01*
G01X278503Y243125D02*
G03X279828Y243556I0J2250D01*
G01X278503Y243125D02*
X276503D01*
X275232Y243518D02*
G03X276503Y243125I1271J1857D01*
G01X275232Y243518D02*
G03X274952Y243521I-142J-206D01*
G01X273711Y243147D02*
G03X274952Y243521I-0J2250D01*
G01X273711Y243147D02*
X271711D01*
X270446Y243536D02*
G03X271711Y243147I1265J1861D01*
G01X270446Y243536D02*
G03X270171Y243540I-140J-207D01*
G01X268960Y243186D02*
G03X270171Y243540I-0J2250D01*
G01X268960Y243186D02*
X268500D01*
G03X268250Y242936I0J-250*
G01Y238427*
G03X268500Y238177I250J-0*
G01X269300*
X270560Y237791D02*
G03X269300Y238177I-1260J-1864D01*
G01X270560Y237791D02*
G03X270840I140J207D01*
G01X272100Y238177D02*
G03X270840Y237791I0J-2250D01*
G01X272100Y238177D02*
X274100D01*
X275374Y237781D02*
G03X274100Y238177I-1274J-1854D01*
G01X275374Y237781D02*
G03X275652Y237778I142J206D01*
G01X276880Y238143D02*
G03X275652Y237778I-0J-2250D01*
G01X276880Y238143D02*
X278880D01*
X280127Y237766D02*
G03X278880Y238143I-1247J-1873D01*
G01X280127Y237766D02*
G03X280409Y237769I138J208D01*
G01X281700Y238177D02*
G03X280409Y237769I0J-2250D01*
G01X281700Y238177D02*
X283700D01*
X284948Y237799D02*
G03X283700Y238177I-1248J-1872D01*
G01X284948Y237799D02*
G03X285294Y237869I138J208D01*
G01X285626Y238274D02*
G03X285294Y237869I1874J-1874D01*
G01X285626Y238274D02*
X286826Y239474D01*
X288700Y240250D02*
G03X286826Y239474I0J-2650D01*
G01X288700Y240250D02*
X292825D01*
G03X292944Y240280I0J250*
G01X294172Y240642D02*
G03X292944Y240280I228J-3042D01*
G01X294172Y240642D02*
G03X294353Y240740I-18J249D01*
G01X294885Y241247D02*
G03X294353Y240740I1265J-1860D01*
G01X351408Y179153D02*
Y181258D01*
G03X351335Y181434I-250J-0*
G01X351099Y181671*
G03X350738Y181663I-177J-177*
G01X349581Y180838D02*
G03X350738Y181663I-1381J3162D01*
G01X349581Y180838D02*
G03X349431Y180609I100J-229D01*
G01Y179153*
G03X349637Y178907I250J0*
G01X350316Y178697D02*
G03X349637Y178907I-1176J-2596D01*
G01X350316Y178697D02*
G03X350523I104J228D01*
G01X351202Y178907D02*
G03X350523Y178697I497J-2806D01*
G01X351202Y178907D02*
G03X351408Y179153I-44J246D01*
G01X348652Y154378D02*
G03X348502Y154797I-183J171D01*
G01X344149Y158568D02*
G03X348502Y154797I5051J1432D01*
G01X344149Y158568D02*
G03X343908Y158750I-241J-68D01*
G01X337300*
G03X337050Y158500I0J-250*
G01Y156850*
X336749Y155725D02*
G03X337050Y156850I-1949J1125D01*
G01X336749Y155725D02*
G03Y155475I216J-125D01*
G01X337050Y154350D02*
G03X336749Y155475I-2250J0D01*
G01X337050Y154350D02*
Y154175D01*
G03X337428Y153960I250J-0*
G01X341904Y148857D02*
G03X337428Y153960I-2704J2143D01*
G01X341904Y148857D02*
G03X341850Y148702I196J-155D01*
G01Y148400*
X341841Y148178D02*
G03X341850Y148400I-2641J222D01*
G01X341841Y148178D02*
G03X342261Y147975I249J-21D01*
X348652Y154378I-89899J96119*
G01X331290Y138780D02*
G03X331306Y139167I-150J200D01*
G01X331094Y139384D02*
G03X331306Y139167I1706J1466D01*
G01X331094Y139384D02*
G03X330734Y139404I-190J-163D01*
G01X329200Y138800D02*
G03X330734Y139404I0J2250D01*
G01X329200Y138800D02*
X327200D01*
X325811Y139280D02*
G03X327200Y138800I1389J1770D01*
G01X325811Y139280D02*
G03X325407Y139083I-154J-197D01*
G01Y135086*
G03X325796Y134878I250J-0*
X331290Y138780I-73434J109216*
G01X313366Y127478D02*
G03X313250Y127950I-116J222D01*
G01X304643*
X301000*
X299126Y128726D02*
G03X301000Y127950I1874J1874D01*
G01X299126Y128726D02*
X297926Y129926D01*
X297150Y131800D02*
G03X297926Y129926I2650J0D01*
G01X297150Y131800D02*
Y146260D01*
G03X297077Y146436I-250J-0*
G01X296976Y146538*
G03X296799Y146611I-177J-177*
G01X296091*
G03X295856Y146276I0J-250*
G01X295990Y145511D02*
G03X295856Y146276I-2250J-0D01*
G01X295990Y145511D02*
Y143011D01*
X293740Y140761D02*
G03X295990Y143011I0J2250D01*
G01X293740Y140761D02*
X291740D01*
X290289Y141291D02*
G03X291740Y140761I1451J1720D01*
G01X290289Y141291D02*
G03X290128Y141350I-161J-191D01*
G01X289000*
X287126Y142126D02*
G03X289000Y141350I1874J1874D01*
G01X287126Y142126D02*
X286326Y142926D01*
X286313Y142940D02*
G03X286326Y142926I1887J1860D01*
G01X286313Y142940D02*
G03X285995Y142972I-178J-176D01*
G01X283201Y142729D02*
G03X285995Y142972I1178J2650D01*
G01X283201Y142729D02*
G03X282998I-102J-228D01*
G01X282502Y142560D02*
G03X282998Y142729I-682J2819D01*
G01X282502Y142560D02*
G03X282311Y142318I59J-242D01*
G01Y142306*
G03X282325Y142222I250J-0*
G01X282511Y141139D02*
G03X282325Y142222I-3250J0D01*
G01X282511Y141139D02*
Y138461D01*
X281559Y136163D02*
G03X282511Y138461I-2298J2298D01*
G01X281559Y136163D02*
X279998Y134602D01*
X277700Y133650D02*
G03X279998Y134602I0J3250D01*
G01X277700Y133650D02*
X272300D01*
G03X272050Y133400I0J-250*
G01Y132550*
Y131300*
Y130050*
X271749Y128925D02*
G03X272050Y130050I-1949J1125D01*
G01X271749Y128925D02*
G03Y128675I216J-125D01*
G01X271835Y128509D02*
G03X271749Y128675I-2035J-959D01*
G01X271835Y128509D02*
G03X271858Y128471I226J107D01*
G01Y124129D02*
G03Y128471I-3058J2171D01*
G01Y124129D02*
G03X271835Y124091I203J-145D01*
G01X270289Y122854D02*
G03X271835Y124091I-489J2196D01*
G01X270289Y122854D02*
G03X270247Y122840I54J-244D01*
G01X268800Y122550D02*
G03X270247Y122840I0J3750D01*
G01X268800Y122550D02*
X253900D01*
X253375Y122587D02*
G03X253900Y122550I525J3713D01*
G01X253375Y122587D02*
G03X253340Y122589I-35J-248D01*
G01X239035*
X230461*
X227809Y123688D02*
G03X230461Y122589I2652J2651D01*
G01X227809Y123688D02*
X221720Y129777D01*
G03X221543Y129850I-177J-177*
G01X187973*
G03X187850Y129382I-0J-250*
X313366Y127478I64512J114712*
G01X314589Y143394D02*
Y144922D01*
G03X314545Y145062I-250J0*
G01X314105Y148022D02*
G03X314545Y145062I3295J-1022D01*
G01X314105Y148022D02*
G03X313754Y148320I-239J74D01*
G01X312912Y148024D02*
G03X313754Y148320I-712J3376D01*
G01X312912Y148024D02*
G03X312787Y147956I52J-244D01*
G01X312685Y147854*
G03X312611Y147677I176J-177*
G01Y143394*
G03X312818Y143148I250J0*
G01X313497Y142938D02*
G03X312818Y143148I-1177J-2596D01*
G01X313497Y142938D02*
G03X313703I103J227D01*
G01X314382Y143148D02*
G03X313703Y142938I498J-2806D01*
G01X314382Y143148D02*
G03X314589Y143394I-43J246D01*
G01X331350Y191485D02*
Y192599D01*
G03X331277Y192776I-250J-0*
G01X330776Y193277*
G03X330599Y193350I-177J-177*
G01X312401*
G03X312224Y193277I0J-250*
G01X311474Y192526*
X311327Y192390D02*
G03X311474Y192526I-1727J2010D01*
G01X311327Y192390D02*
G03X311490Y191950I163J-190D01*
G01X311490D02*
X316100D01*
X318350Y189700D02*
G03X316100Y191950I-2250J0D01*
G01X318350Y189700D02*
G03X318600Y189450I250J0D01*
G01X319525*
G03X319772Y189665I-0J250*
G01X322000Y191600D02*
G03X319772Y189665I0J-2250D01*
G01X322000Y191600D02*
X324000D01*
X325710Y190812D02*
G03X324000Y191600I-1710J-1462D01*
G01X325710Y190812D02*
G03X326090I190J163D01*
G01X327800Y191600D02*
G03X326090Y190812I0J-2250D01*
G01X327800Y191600D02*
X329800D01*
X330970Y191272D02*
G03X329800Y191600I-1170J-1922D01*
G01X330970Y191272D02*
G03X331350Y191485I130J213D01*
G01X305750Y171201D02*
Y177150D01*
G03X305500Y177400I-250J-0*
G01X304000*
X303190Y177551D02*
G03X304000Y177400I810J2099D01*
G01X303190Y177551D02*
G03X302850Y177318I-90J-233D01*
G01Y176750*
Y175500*
Y174250*
X302549Y173125D02*
G03X302850Y174250I-1949J1125D01*
G01X302549Y173125D02*
G03Y172875I216J-125D01*
G01X302850Y171750D02*
G03X302549Y172875I-2250J0D01*
G01X302850Y171750D02*
Y170957D01*
G03X303178Y170719I250J-0*
G01X304000Y170850D02*
G03X303178Y170719I0J-2650D01*
G01X304000Y170850D02*
X305399D01*
G03X305576Y170923I-0J250*
G01X305677Y171024*
G03X305750Y171201I-177J177*
G01X239673Y208450D02*
G03X239850Y208877I0J250D01*
G01X237726Y211001*
X236950Y212875D02*
G03X237726Y211001I2650J-0D01*
G01X236950Y212875D02*
Y226143D01*
G03X236700Y226393I-250J0*
G01X235802*
G03X235724Y226381I-0J-250*
G01X234853Y226242D02*
G03X235724Y226381I0J2801D01*
G01X234853Y226242D02*
X228886D01*
X227617Y226546D02*
G03X228886Y226242I1269J2497D01*
G01X227617Y226546D02*
G03X227281Y226210I-113J-223D01*
G01X227585Y224941D02*
G03X227281Y226210I-2801J0D01*
G01X227585Y224941D02*
Y218974D01*
X223880Y216322D02*
G03X227585Y218974I904J2652D01*
G01X223880Y216322D02*
G03X223718I-81J-236D01*
G01X223010Y216179D02*
G03X223718Y216322I-195J2795D01*
G01X223010Y216179D02*
G03X222782Y215881I17J-249D01*
G01X217946Y212071D02*
G03X222782Y215881I1454J3129D01*
G01X217946Y212071D02*
G03X217591Y211845I-105J-226D01*
G01Y210001*
G03X217664Y209824I250J0*
G01X218965Y208523*
G03X219142Y208450I177J177*
G01X239673*
X228373Y261325D02*
G03X228504Y261748I-45J246D01*
G01X227960Y262292*
G03X227538Y262161I-177J-177*
G01X227281Y261405D02*
G03X227538Y262161I-2497J1269D01*
G01X227281Y261405D02*
G03X227617Y261069I223J-113D01*
G01X228373Y261325D02*
G03X227617Y261069I513J-2754D01*
G01X188960Y182450D02*
G03X189146Y182867I0J250D01*
G01X188567Y184375D02*
G03X189146Y182867I2250J-0D01*
G01X188567Y184375D02*
Y187524D01*
X188700Y188286D02*
G03X188567Y187524I2117J-762D01*
G01X188700Y188286D02*
G03Y188455I-236J85D01*
G01X188567Y189217D02*
G03X188700Y188455I2250J0D01*
G01X188567Y189217D02*
Y192367D01*
X188640Y192938D02*
G03X188567Y192367I2177J-571D01*
G01X188640Y192938D02*
G03X188482Y193237I-241J63D01*
G01X186988Y195356D02*
G03X188483Y193237I2250J-0D01*
G01X186988Y195356D02*
Y197856D01*
X187142Y198673D02*
G03X186988Y197856I2096J-817D01*
G01X187142Y198673D02*
G03X186853Y199007I-233J90D01*
G01X186350Y198950D02*
G03X186853Y199007I0J2250D01*
G01X186350Y198950D02*
X185300D01*
G03X185050Y198700I0J-250*
G01Y182700*
G03X185300Y182450I250J0*
G01X188960*
X202188Y205101D02*
Y213490D01*
G03X202115Y213667I-250J-0*
G01X201256Y214526*
X200498Y216091D02*
G03X201256Y214526I2632J309D01*
G01X200498Y216091D02*
G03X200324Y216301I-249J-29D01*
G01X200258Y216322D02*
G03X200324Y216301I904J2652D01*
G01X200258Y216322D02*
G03X200096I-81J-236D01*
G01X198289D02*
G03X200096I904J2652D01*
G01X198289D02*
G03X198128I-80J-237D01*
G01X196321D02*
G03X198128I904J2652D01*
G01X196321D02*
G03X196159I-81J-236D01*
G01X192454Y218974D02*
G03X196159Y216322I2802J-0D01*
G01X192454Y218974D02*
Y224941D01*
X192758Y226210D02*
G03X192454Y224941I2498J-1269D01*
G01X192758Y226210D02*
G03X192422Y226546I-223J113D01*
G01X191153Y226242D02*
G03X192422Y226546I0J2801D01*
G01X191153Y226242D02*
X185300D01*
G03X185050Y225992I0J-250*
G01Y222288*
G03X185280Y222039I250J-0*
G01X188264Y217481D02*
G03X185280Y222039I-3264J1119D01*
G01X188264Y217481D02*
G03Y217319I236J-81D01*
G01Y215081D02*
G03Y217319I-3264J1119D01*
G01Y215081D02*
G03Y214919I236J-81D01*
G01Y212681D02*
G03Y214919I-3264J1119D01*
G01Y212681D02*
G03X188250Y212600I236J-81D01*
G01Y210507*
G03X188443Y210264I250J0*
G01X189998Y209398D02*
G03X188443Y210264I-2298J-2298D01*
G01X189998Y209398D02*
X192537Y206860D01*
X193410Y205272D02*
G03X192537Y206860I-3172J-710D01*
G01X193410Y205272D02*
G03X193692Y205079I244J54D01*
G01X194038Y205106D02*
G03X193692Y205079I0J-2250D01*
G01X194038Y205106D02*
X196038D01*
X197298Y204720D02*
G03X196038Y205106I-1260J-1864D01*
G01X197298Y204720D02*
G03X197578I140J207D01*
G01X198838Y205106D02*
G03X197578Y204720I0J-2250D01*
G01X198838Y205106D02*
X200838D01*
X201828Y204876D02*
G03X200838Y205106I-990J-2020D01*
G01X201828Y204876D02*
G03X202188Y205101I110J225D01*
G01X226388Y259840D02*
G03X226052Y260176I-222J113D01*
G01X223880Y260022D02*
G03X226052Y260176I904J2652D01*
G01X223880Y260022D02*
G03X223718I-81J-236D01*
G01X221911D02*
G03X223718I904J2652D01*
G01X221911D02*
G03X221750I-80J-237D01*
G01X219943D02*
G03X221750I904J2652D01*
G01X219943D02*
G03X219781I-81J-236D01*
G01X217974D02*
G03X219781I904J2652D01*
G01X217974D02*
G03X217813I-80J-237D01*
G01X216006D02*
G03X217813I904J2652D01*
G01X216006D02*
G03X215844I-81J-236D01*
G01X214037D02*
G03X215844I904J2652D01*
G01X214037D02*
G03X213876I-80J-237D01*
G01X212069D02*
G03X213876I904J2652D01*
G01X212069D02*
G03X211907I-81J-236D01*
G01X210100D02*
G03X211907I904J2652D01*
G01X210100D02*
G03X209939I-80J-237D01*
G01X208132D02*
G03X209939I904J2652D01*
G01X208132D02*
G03X207970I-81J-236D01*
G01X206163D02*
G03X207970I904J2652D01*
G01X206163D02*
G03X206002I-80J-237D01*
G01X204195D02*
G03X206002I904J2652D01*
G01X204195D02*
G03X204033I-81J-236D01*
G01X202226D02*
G03X204033I904J2652D01*
G01X202226D02*
G03X202065I-80J-237D01*
G01X201362Y259880D02*
G03X202065Y260022I-200J2794D01*
G01X201362Y259880D02*
G03X201191Y259794I17J-250D01*
G01X201066Y259661D02*
G03X201191Y259794I-1873J1874D01*
G01X201066Y259661D02*
X200331Y258926D01*
X198458Y258150D02*
G03X200331Y258926I-0J2650D01*
G01X198458Y258150D02*
X194130D01*
G03X193886Y257955I-0J-250*
G01X193805Y257668D02*
G03X193886Y257955I-2652J903D01*
G01X193805Y257668D02*
G03Y257506I236J-81D01*
G01Y255699D02*
G03Y257506I-2652J903D01*
G01Y255699D02*
G03Y255538I237J-81D01*
G01Y253731D02*
G03Y255538I-2652J903D01*
G01Y253731D02*
G03Y253569I236J-81D01*
G01Y251762D02*
G03Y253569I-2652J903D01*
G01Y251762D02*
G03Y251601I237J-81D01*
G01Y249794D02*
G03Y251601I-2652J903D01*
G01Y249794D02*
G03Y249632I236J-81D01*
G01Y247825D02*
G03Y249632I-2652J903D01*
G01Y247825D02*
G03Y247664I237J-81D01*
G01Y245857D02*
G03Y247664I-2652J903D01*
G01Y245857D02*
G03Y245695I236J-81D01*
G01Y243888D02*
G03Y245695I-2652J903D01*
G01Y243888D02*
G03Y243727I237J-81D01*
G01Y241920D02*
G03Y243727I-2652J903D01*
G01Y241920D02*
G03Y241758I236J-81D01*
G01Y239951D02*
G03Y241758I-2652J903D01*
G01Y239951D02*
G03Y239790I237J-81D01*
G01Y237983D02*
G03Y239790I-2652J903D01*
G01Y237983D02*
G03Y237821I236J-81D01*
G01Y236014D02*
G03Y237821I-2652J903D01*
G01Y236014D02*
G03Y235853I237J-81D01*
G01Y234046D02*
G03Y235853I-2652J903D01*
G01Y234046D02*
G03Y233884I236J-81D01*
G01Y232077D02*
G03Y233884I-2652J903D01*
G01Y232077D02*
G03Y231916I237J-81D01*
G01Y230109D02*
G03Y231916I-2652J903D01*
G01Y230109D02*
G03Y229947I236J-81D01*
G01X193651Y227775D02*
G03X193805Y229947I-2498J1268D01*
G01X193651Y227775D02*
G03X193987Y227439I223J-114D01*
G01X196159Y227592D02*
G03X193987Y227439I-903J-2651D01*
G01X196159Y227592D02*
G03X196321I81J237D01*
G01X198128Y227593D02*
G03X196321Y227592I-903J-2652D01*
G01X198128Y227593D02*
G03X198289I81J236D01*
G01X200096Y227592D02*
G03X198289Y227593I-903J-2651D01*
G01X200096Y227592D02*
G03X200258I81J237D01*
G01X202065Y227593D02*
G03X200258Y227592I-903J-2652D01*
G01X202065Y227593D02*
G03X202226I81J236D01*
G01X204033Y227592D02*
G03X202226Y227593I-903J-2651D01*
G01X204033Y227592D02*
G03X204195I81J237D01*
G01X206002Y227593D02*
G03X204195Y227592I-903J-2652D01*
G01X206002Y227593D02*
G03X206163I81J236D01*
G01X207970Y227592D02*
G03X206163Y227593I-903J-2651D01*
G01X207970Y227592D02*
G03X208132I81J237D01*
G01X209939Y227593D02*
G03X208132Y227592I-903J-2652D01*
G01X209939Y227593D02*
G03X210100I81J236D01*
G01X211907Y227592D02*
G03X210100Y227593I-903J-2651D01*
G01X211907Y227592D02*
G03X212069I81J237D01*
G01X213876Y227593D02*
G03X212069Y227592I-903J-2652D01*
G01X213876Y227593D02*
G03X214037I81J236D01*
G01X215844Y227592D02*
G03X214037Y227593I-903J-2651D01*
G01X215844Y227592D02*
G03X216006I81J237D01*
G01X217813Y227593D02*
G03X216006Y227592I-903J-2652D01*
G01X217813Y227593D02*
G03X217974I81J236D01*
G01X219781Y227592D02*
G03X217974Y227593I-903J-2651D01*
G01X219781Y227592D02*
G03X219943I81J237D01*
G01X221750Y227593D02*
G03X219943Y227592I-903J-2652D01*
G01X221750Y227593D02*
G03X221911I81J236D01*
G01X223718Y227592D02*
G03X221911Y227593I-903J-2651D01*
G01X223718Y227592D02*
G03X223880I81J237D01*
G01X226052Y227439D02*
G03X223880Y227592I-1268J-2498D01*
G01X226052Y227439D02*
G03X226388Y227775I114J222D01*
G01X226235Y229947D02*
G03X226388Y227775I2651J-904D01*
G01X226235Y229947D02*
G03Y230109I-237J81D01*
G01X226234Y231916D02*
G03X226235Y230109I2652J-904D01*
G01X226234Y231916D02*
G03Y232077I-236J80D01*
G01X226235Y233884D02*
G03X226234Y232077I2651J-904D01*
G01X226235Y233884D02*
G03Y234046I-237J81D01*
G01X226234Y235853D02*
G03X226235Y234046I2652J-904D01*
G01X226234Y235853D02*
G03Y236014I-236J80D01*
G01X226235Y237821D02*
G03X226234Y236014I2651J-904D01*
G01X226235Y237821D02*
G03Y237983I-237J81D01*
G01X226234Y239790D02*
G03X226235Y237983I2652J-904D01*
G01X226234Y239790D02*
G03Y239951I-236J80D01*
G01X226235Y241758D02*
G03X226234Y239951I2651J-904D01*
G01X226235Y241758D02*
G03Y241920I-237J81D01*
G01X226234Y243727D02*
G03X226235Y241920I2652J-904D01*
G01X226234Y243727D02*
G03Y243888I-236J80D01*
G01X226235Y245695D02*
G03X226234Y243888I2651J-904D01*
G01X226235Y245695D02*
G03Y245857I-237J81D01*
G01X226234Y247664D02*
G03X226235Y245857I2652J-904D01*
G01X226234Y247664D02*
G03Y247825I-236J80D01*
G01X226235Y249632D02*
G03X226234Y247825I2651J-904D01*
G01X226235Y249632D02*
G03Y249794I-237J81D01*
G01X226234Y251601D02*
G03X226235Y249794I2652J-904D01*
G01X226234Y251601D02*
G03Y251762I-236J80D01*
G01X226235Y253569D02*
G03X226234Y251762I2651J-904D01*
G01X226235Y253569D02*
G03Y253731I-237J81D01*
G01X226234Y255538D02*
G03X226235Y253731I2652J-904D01*
G01X226234Y255538D02*
G03Y255699I-236J80D01*
G01X226235Y257506D02*
G03X226234Y255699I2651J-904D01*
G01X226235Y257506D02*
G03Y257668I-237J81D01*
G01X226388Y259840D02*
G03X226235Y257668I2498J-1269D01*
G01X214750Y302243D02*
Y348000D01*
G03X214500Y348250I-250J-0*
G01X202490*
G03X202381Y348225I-0J-250*
G01X201400Y348000D02*
G03X202381Y348225I0J2250D01*
G01X201400Y348000D02*
X199400D01*
X199100*
G03X198850Y347750I0J-250*
G01Y345800*
X197898Y343502D02*
G03X198850Y345800I-2298J2298D01*
G01X197898Y343502D02*
X196098Y341702D01*
X193800Y340750D02*
G03X196098Y341702I0J3250D01*
G01X193800Y340750D02*
X191848D01*
G03X191598Y340500I-0J-250*
G01Y308000*
Y303900*
G03X191689Y303707I250J-0*
G01X192106Y303323D02*
G03X191689Y303707I-3758J-3666D01*
G01X192106Y303323D02*
G03X192464I179J175D01*
G01Y295991D02*
G03Y303323I3758J3666D01*
G01Y295991D02*
G03X192106I-179J-174D01*
G01X184590D02*
G03X192106I3758J3666D01*
G01X184590D02*
G03X184232I-179J-174D01*
G01X176716D02*
G03X184232I3758J3666D01*
G01X176716D02*
G03X176358I-179J-174D01*
G01X170111Y304280D02*
G03X176358Y295991I2489J-4623D01*
G01X170111Y304280D02*
G03X169992Y304750I-119J220D01*
G01X151566*
G03X151389Y304677I-0J-250*
G01X149767Y303055*
G03X149944Y302628I177J-177*
G01X156850*
X159100Y300378D02*
G03X156850Y302628I-2250J-0D01*
G01X159100Y300378D02*
Y292504D01*
X158553Y291033D02*
G03X159100Y292504I-1703J1471D01*
G01X158553Y291033D02*
G03X158743Y290620I190J-163D01*
G01X163543*
X164072Y290557D02*
G03X163543Y290620I-529J-2187D01*
G01X164072Y290557D02*
G03X164131Y290550I59J243D01*
G01X164434*
G03X164581Y290597I0J250*
G01X168963Y290314D02*
G03X164581Y290597I-2363J-2514D01*
G01X168963Y290314D02*
G03X169368Y290408I171J182D01*
G01X175304Y287057D02*
G03X169368Y290408I-2704J2143D01*
G01X175304Y287057D02*
G03X175250Y286902I196J-155D01*
G01Y263401*
G03X175323Y263224I250J0*
G01X177253Y261295*
G03X177430Y261221I177J176*
G01X177729*
G03X177959Y261569I-0J250*
G01X177750Y262600D02*
G03X177959Y261569I2650J0D01*
G01X177750Y262600D02*
Y286902D01*
G03X177696Y287057I-250J0*
G01X183104D02*
G03X177696I-2704J2143D01*
G01X183104D02*
G03X183050Y286902I196J-155D01*
G01Y263801*
G03X183123Y263624I250J0*
G01X183224Y263523*
G03X183401Y263450I177J177*
G01X192204*
G03X192454Y263700I0J250*
G01Y268641*
X192730Y269853D02*
G03X192454Y268641I2526J-1212D01*
G01X192730Y269853D02*
G03X192755Y269962I-225J109D01*
G01Y270317*
G03X192728Y270431I-250J-0*
G01X198095Y274576D02*
G03X192728Y270431I-2295J-2576D01*
G01X198095Y274576D02*
G03X198512Y274762I167J186D01*
G01Y274800*
X199288Y276674D02*
G03X198512Y274800I1874J-1874D01*
G01X199288Y276674D02*
X200688Y278074D01*
X202562Y278850D02*
G03X200688Y278074I-0J-2650D01*
G01X202562Y278850D02*
X206902D01*
G03X207057Y278904I0J250*
G01X212650Y276243D02*
G03X207057Y278904I-3450J-43D01*
G01X212650Y276243D02*
G03X213042Y276040I250J3D01*
G01X214534Y276618D02*
G03X213042Y276040I466J-3418D01*
G01X214534Y276618D02*
G03X214750Y276866I-34J248D01*
G01Y289373*
G03X214490Y289623I-250J-0*
G01X214398Y289621D02*
G03X214490Y289623I0J2250D01*
G01X214398Y289621D02*
X209674D01*
X207424Y291871D02*
G03X209674Y289621I2250J-0D01*
G01X207424Y291871D02*
Y299745D01*
X209674Y301995D02*
G03X207424Y299745I0J-2250D01*
G01X209674Y301995D02*
X214398D01*
X214490Y301993D02*
G03X214398Y301995I-92J-2248D01*
G01X214490Y301993D02*
G03X214750Y302243I10J250D01*
G01Y367203D02*
Y369878D01*
G03X214428Y370117I-250J-0*
X121274Y232403I37934J-126023*
X121773Y232425I249J22*
G01Y234215*
X121888Y234923D02*
G03X121773Y234215I2135J-708D01*
G01X121888Y234923D02*
G03Y235081I-237J79D01*
G01X121773Y235789D02*
G03X121888Y235081I2250J0D01*
G01X121773Y235789D02*
Y238545D01*
X121936Y239386D02*
G03X121773Y238545I2087J-841D01*
G01X121936Y239386D02*
G03X121954Y239479I-232J93D01*
G01X121954D02*
Y252804D01*
X122906Y255103D02*
G03X121954Y252804I2298J-2299D01*
G01X122906Y255103D02*
X137677Y269873D01*
G03X137750Y270050I-177J177*
G01Y285800*
Y298884*
X138702Y301182D02*
G03X137750Y298884I2298J-2298D01*
G01X138702Y301182D02*
X147818Y310298D01*
X150116Y311250D02*
G03X147818Y310298I-0J-3250D01*
G01X150116Y311250D02*
X184848D01*
G03X185098Y311500I-0J250*
G01Y342200*
X186050Y344498D02*
G03X185098Y342200I2298J-2298D01*
G01X186050Y344498D02*
X187850Y346298D01*
X190148Y347250D02*
G03X187850Y346298I-0J-3250D01*
G01X190148Y347250D02*
X192100D01*
G03X192350Y347500I-0J250*
G01Y350250*
Y352750*
X192651Y353875D02*
G03X192350Y352750I1949J-1125D01*
G01X192651Y353875D02*
G03Y354125I-216J125D01*
G01X192350Y355250D02*
G03X192651Y354125I2250J0D01*
G01X192350Y355250D02*
Y357750D01*
X194600Y360000D02*
G03X192350Y357750I0J-2250D01*
G01X194600Y360000D02*
X196600D01*
X197860Y359614D02*
G03X196600Y360000I-1260J-1864D01*
G01X197860Y359614D02*
G03X198140I140J207D01*
G01X199400Y360000D02*
G03X198140Y359614I0J-2250D01*
G01X199400Y360000D02*
X201400D01*
X203650Y357750D02*
G03X201400Y360000I-2250J0D01*
G01X203650Y357750D02*
Y355250D01*
X203639Y355025D02*
G03X203650Y355250I-2239J225D01*
G01X203639Y355025D02*
G03X203887Y354750I248J-25D01*
G01X207972*
G03X208142Y355183I0J250*
G01X207424Y356831D02*
G03X208142Y355183I2250J0D01*
G01X207424Y356831D02*
Y364706D01*
X209674Y366956D02*
G03X207424Y364706I0J-2250D01*
G01X209674Y366956D02*
X214398D01*
X214490Y366954D02*
G03X214398Y366956I-92J-2248D01*
G01X214490Y366954D02*
G03X214750Y367203I10J249D01*
G01X154564Y271526D02*
G03X154754Y271939I0J250D01*
G01X154207Y273409D02*
G03X154754Y271939I2250J0D01*
G01X154207Y273409D02*
Y274591D01*
X154235Y274945D02*
G03X154207Y274591I2222J-354D01*
G01X154235Y274945D02*
G03Y275024I-247J39D01*
G01X154207Y275378D02*
G03X154235Y275024I2250J-0D01*
G01X154207Y275378D02*
Y276559D01*
X154235Y276913D02*
G03X154207Y276559I2222J-354D01*
G01X154235Y276913D02*
G03Y276992I-247J40D01*
G01X154207Y277346D02*
G03X154235Y276992I2250J0D01*
G01X154207Y277346D02*
Y278528D01*
X154235Y278882D02*
G03X154207Y278528I2222J-354D01*
G01X154235Y278882D02*
G03Y278961I-247J39D01*
G01X154207Y279315D02*
G03X154235Y278961I2250J-0D01*
G01X154207Y279315D02*
Y280496D01*
X154235Y280850D02*
G03X154207Y280496I2222J-354D01*
G01X154235Y280850D02*
G03Y280929I-247J40D01*
G01X154207Y281283D02*
G03X154235Y280929I2250J0D01*
G01X154207Y281283D02*
Y282441D01*
G03X153889Y282682I-250J0*
G01X153011Y282561D02*
G03X153889Y282682I0J3250D01*
G01X153011Y282561D02*
X148278D01*
G03X148258Y282560I-0J-250*
G01X148000Y282550D02*
G03X148258Y282560I0J3250D01*
G01X148000Y282550D02*
X144500D01*
G03X144250Y282300I0J-250*
G01Y271717*
G03X144554Y271473I250J-0*
G01X145039Y271526D02*
G03X144554Y271473I0J-2250D01*
G01X145039Y271526D02*
X154564D01*
X154754Y289841D02*
G03X154564Y290254I-190J163D01*
G01X145039*
X144554Y290307D02*
G03X145039Y290254I485J2197D01*
G01X144554Y290307D02*
G03X144250Y290063I-54J-244D01*
G01Y289300*
G03X144500Y289050I250J0*
G01X147733*
G03X147753Y289051I0J250*
G01X148011Y289061D02*
G03X147753Y289051I0J-3250D01*
G01X148011Y289061D02*
X153011D01*
X154003Y288906D02*
G03X153011Y289061I-992J-3095D01*
G01X154003Y288906D02*
G03X154317Y289067I76J238D01*
G01X154754Y289841D02*
G03X154317Y289067I1703J-1471D01*
G01X174079Y248810D02*
G03X174218Y249234I-38J248D01*
G01X166326Y257126*
X165550Y259000D02*
G03X166326Y257126I2650J0D01*
G01X165550Y259000D02*
Y271100D01*
G03X165300Y271350I-250J-0*
G01X164501*
G03X164405Y271331I-0J-250*
G01X163543Y271159D02*
G03X164405Y271331I0J2250D01*
G01X163543Y271159D02*
X158743D01*
G03X158553Y270746I-0J-250*
G01X159100Y269276D02*
G03X158553Y270746I-2250J-0D01*
G01X159100Y269276D02*
Y261402D01*
X156850Y259152D02*
G03X159100Y261402I0J2250D01*
G01X156850Y259152D02*
X145039D01*
X142789Y261402D02*
G03X145039Y259152I2250J-0D01*
G01X142789Y261402D02*
Y265190D01*
G03X142363Y265366I-250J-0*
G01X128528Y251531*
G03X128454Y251355I176J-176*
G01Y241045*
G03X128704Y240795I250J0*
G01X130716*
X132146Y240283D02*
G03X130716Y240795I-1430J-1738D01*
G01X132146Y240283D02*
G03X132401Y240245I159J193D01*
G01X133265Y240417D02*
G03X132401Y240245I0J-2250D01*
G01X133265Y240417D02*
X135765D01*
X136890Y240116D02*
G03X135765Y240417I-1125J-1949D01*
G01X136890Y240116D02*
G03X137140I125J216D01*
G01X138265Y240417D02*
G03X137140Y240116I0J-2250D01*
G01X138265Y240417D02*
X140765D01*
X143015Y238167D02*
G03X140765Y240417I-2250J0D01*
G01X143015Y238167D02*
Y236167D01*
X142756Y235119D02*
G03X143015Y236167I-1991J1048D01*
G01X142756Y235119D02*
G03Y234885I221J-117D01*
G01X143015Y233837D02*
G03X142756Y234885I-2250J-0D01*
G01X143015Y233837D02*
Y233700D01*
G03X143265Y233450I250J0*
G01X150982*
G03X151138Y233895I-0J250*
G01X171738Y247936D02*
G03X151138Y233895I-12466J-3842D01*
G01X171738Y247936D02*
G03X172155Y247834I239J74D01*
G01X174079Y248810D02*
G03X172155Y247834I521J-3410D01*
G01X377384Y223929D02*
Y211429D01*
X375134Y209179D02*
G03X377384Y211429I-0J2250D01*
G01X375134Y209179D02*
X366472D01*
X364222Y211429D02*
G03X366472Y209179I2250J0D01*
G01X364222Y211429D02*
Y223929D01*
X366472Y226180D02*
G03X364222Y223929I0J-2251D01*
G01X366472Y226180D02*
X375134D01*
X377384Y223929D02*
G03X375134Y226180I-2250J0D01*
G01X378637Y242930D02*
Y232930D01*
X376387Y230680D02*
G03X378637Y232930I-0J2250D01*
G01X376387Y230680D02*
X366387D01*
X364137Y232930D02*
G03X366387Y230680I2250J0D01*
G01X364137Y232930D02*
Y233930D01*
G03X363887Y234180I-250J0*
G01X363457*
G03X363280Y234107I-0J-250*
G01X355779Y226606*
G03X355956Y226180I177J-176*
G01X356236*
X358486Y223929D02*
G03X356236Y226180I-2250J0D01*
G01X358486Y223929D02*
Y211429D01*
X356236Y209179D02*
G03X358486Y211429I0J2250D01*
G01X356236Y209179D02*
X347575D01*
X345325Y211429D02*
G03X347575Y209179I2250J0D01*
G01X345325Y211429D02*
Y222200D01*
G03X345075Y222450I-250J-0*
G01X331278*
X328627Y223548D02*
G03X331278Y222450I2651J2652D01*
G01X328627Y223548D02*
X321460Y230715D01*
X320366Y233182D02*
G03X321460Y230715I3746J184D01*
G01X320366Y233182D02*
G03X320082Y233418I-249J-12D01*
G01X319772Y233396D02*
G03X320082Y233418I0J2250D01*
G01X319772Y233396D02*
X314851D01*
X312601Y235646D02*
G03X314851Y233396I2250J0D01*
G01X312601Y235646D02*
Y239387D01*
X313585Y241247D02*
G03X312601Y239387I1266J-1860D01*
G01X313585Y241247D02*
G03Y241660I-140J206D01*
G01X312601Y243520D02*
G03X313585Y241660I2250J0D01*
G01X312601Y243520D02*
Y246661D01*
G03X312138Y246792I-250J-0*
G01X306496Y250743D02*
G03X312138Y246792I2704J-2143D01*
G01X306496Y250743D02*
G03X306550Y250898I-196J155D01*
G01Y251702*
G03X306496Y251857I-250J0*
G01X311904D02*
G03X306496I-2704J2143D01*
G01X311904D02*
G03X311850Y251702I196J-155D01*
G01Y250898*
G03X311904Y250743I250J-0*
G01X312644Y248801D02*
G03X311904Y250743I-3444J-201D01*
G01X312644Y248801D02*
G03X313089Y248660I250J15D01*
G01X314851Y249511D02*
G03X313089Y248660I0J-2250D01*
G01X314851Y249511D02*
X319772D01*
X319925Y249505D02*
G03X319772Y249511I-153J-2244D01*
G01X319925Y249505D02*
G03X320190Y249724I17J250D01*
G01X321260Y251918D02*
G03X320190Y249724I2652J-2652D01*
G01X321260Y251918D02*
X330594Y261252D01*
X333245Y262350D02*
G03X330594Y261252I0J-3750D01*
G01X333245Y262350D02*
X333930D01*
G03X334015Y262835I-0J250*
G01X332533Y264950D02*
G03X334015Y262835I2250J0D01*
G01X332533Y264950D02*
Y277450D01*
X334783Y279700D02*
G03X332533Y277450I-0J-2250D01*
G01X334783Y279700D02*
X343444D01*
X345694Y277450D02*
G03X343444Y279700I-2250J0D01*
G01X345694Y277450D02*
Y264950D01*
X344212Y262835D02*
G03X345694Y264950I-768J2115D01*
G01X344212Y262835D02*
G03X344297Y262350I85J-235D01*
G01X352827*
G03X352913Y262835I0J250*
G01X351430Y264950D02*
G03X352913Y262835I2250J0D01*
G01X351430Y264950D02*
Y277450D01*
X353680Y279700D02*
G03X351430Y277450I0J-2250D01*
G01X353680Y279700D02*
X362342D01*
X364592Y277450D02*
G03X362342Y279700I-2250J0D01*
G01X364592Y277450D02*
Y264950D01*
X362394Y262701D02*
G03X364592Y264950I-52J2249D01*
G01X362394Y262701D02*
G03X362150Y262451I6J-250D01*
G01Y258600*
Y258457*
G03X362223Y258280I250J-0*
G01X363350Y257154*
G03X363526Y257080I176J176*
G01X364643*
G03X364854Y257197I-0J250*
G01Y249464D02*
G03Y257197I6133J3866D01*
G01Y249464D02*
G03X364643Y249580I-211J-134D01*
G01X361870*
X359218Y250679D02*
G03X361870Y249580I2652J2651D01*
G01X359218Y250679D02*
X355748Y254148D01*
X355268Y254737D02*
G03X355748Y254148I3132J2063D01*
G01X355268Y254737D02*
G03X355059Y254850I-209J-137D01*
G01X353601*
G03X353448Y254402I0J-250*
G01X357810Y239914D02*
G03X353448Y254402I-12357J4180D01*
G01X357810Y239914D02*
G03X358224Y239658I237J-80D01*
G01X359148Y240582*
X361800Y241680D02*
G03X359148Y240582I0J-3750D01*
G01X361800Y241680D02*
X363887D01*
G03X364137Y241930I-0J250*
G01Y242930*
X366387Y245180D02*
G03X364137Y242930I-0J-2250D01*
G01X366387Y245180D02*
X376387D01*
X378637Y242930D02*
G03X376387Y245180I-2250J0D01*
G01X351375Y304344D02*
G03X351375I-5250J0D01*
G01X291377Y264383D02*
G03X296904Y264543I2823J-1983D01*
G01X291377Y264383D02*
G03X291349Y264703I-205J144D01*
G01X290976Y265077*
G03X290799Y265150I-177J-177*
G01X271730*
G03X271559Y265082I-0J-250*
G01X271083Y270491D02*
G03X271559Y265082I-1883J-2891D01*
G01X271083Y270491D02*
G03X271220Y270450I137J209D01*
G01X292000*
X293874Y269674D02*
G03X292000Y270450I-1874J-1874D01*
G01X293874Y269674D02*
X296074Y267474D01*
X296850Y265600D02*
G03X296074Y267474I-2650J0D01*
G01X296850Y265600D02*
Y264698D01*
G03X296904Y264543I250J-0*
G01X158015Y317812D02*
G03X158015I-5251J0D01*
G01X302850Y177099D02*
X305750D01*
X302850Y176649D02*
X305750D01*
X302850Y176199D02*
X305750D01*
X302850Y175749D02*
X305750D01*
X302850Y175299D02*
X305750D01*
X302850Y174849D02*
X305750D01*
X302850Y174399D02*
X305750D01*
X302830Y173949D02*
X305750D01*
X302721Y173499D02*
X305750D01*
X302520Y173049D02*
X305750D01*
X302684Y172599D02*
X305750D01*
X302814Y172149D02*
X305750D01*
X302850Y171699D02*
X305750D01*
X302850Y171249D02*
X305750D01*
X302906Y170799D02*
X303481D01*
X303005Y177549D02*
X303196D01*
X311337Y192399D02*
X331350D01*
X316177Y191949D02*
X331350D01*
X330468Y191499D02*
X331350D01*
X311796Y192849D02*
X331204D01*
X312250Y193299D02*
X330750D01*
X324668Y191499D02*
X327132D01*
X325475Y191049D02*
X326325D01*
X317452Y191499D02*
X321332D01*
X317901Y191049D02*
X320525D01*
X318163Y190599D02*
X320128D01*
X318305Y190149D02*
X319897D01*
X318350Y189699D02*
X319777D01*
X312611Y144699D02*
X314589D01*
X312611Y144249D02*
X314589D01*
X312611Y143799D02*
X314589D01*
X312616Y143349D02*
X314584D01*
X312611Y145149D02*
X314489D01*
X312611Y145599D02*
X314247D01*
X312611Y146049D02*
X314084D01*
X312679Y147849D02*
X314056D01*
X313711Y148299D02*
X314013D01*
X312611Y146499D02*
X313987D01*
X312611Y147399D02*
X313973D01*
X312611Y146949D02*
X313950D01*
X272318Y127599D02*
X313478D01*
X272453Y127149D02*
X312731D01*
X272529Y126699D02*
X311851D01*
X272550Y126249D02*
X310955D01*
X272516Y125799D02*
X310041D01*
X272427Y125349D02*
X309109D01*
X272278Y124899D02*
X308157D01*
X272061Y124449D02*
X307186D01*
X271789Y123999D02*
X306193D01*
X271476Y123549D02*
X305177D01*
X270920Y123099D02*
X304138D01*
X269655Y122649D02*
X303074D01*
X202742Y122199D02*
X301982D01*
X203862Y121749D02*
X300862D01*
X272117Y128049D02*
X300283D01*
X205013Y121299D02*
X299711D01*
X271841Y128499D02*
X299385D01*
X271762Y128949D02*
X298904D01*
X206197Y120849D02*
X298527D01*
X271954Y129399D02*
X298454D01*
X272041Y129849D02*
X298004D01*
X272050Y130299D02*
X297616D01*
X272050Y130749D02*
X297367D01*
X207417Y120399D02*
X297307D01*
X272050Y131199D02*
X297219D01*
X272050Y131649D02*
X297154D01*
X295925Y146049D02*
X297150D01*
X295988Y145599D02*
X297150D01*
X295990Y145149D02*
X297150D01*
X295990Y144699D02*
X297150D01*
X295990Y144249D02*
X297150D01*
X295990Y143799D02*
X297150D01*
X295990Y143349D02*
X297150D01*
X295987Y142899D02*
X297150D01*
X295919Y142449D02*
X297150D01*
X295750Y141999D02*
X297150D01*
X295450Y141549D02*
X297150D01*
X294926Y141099D02*
X297150D01*
X282511Y140649D02*
X297150D01*
X282511Y140199D02*
X297150D01*
X282511Y139749D02*
X297150D01*
X282511Y139299D02*
X297150D01*
X282511Y138849D02*
X297150D01*
X282510Y138399D02*
X297150D01*
X282470Y137949D02*
X297150D01*
X282365Y137499D02*
X297150D01*
X282188Y137049D02*
X297150D01*
X281924Y136599D02*
X297150D01*
X281545Y136149D02*
X297150D01*
X281095Y135699D02*
X297150D01*
X280645Y135249D02*
X297150D01*
X280195Y134799D02*
X297150D01*
X279713Y134349D02*
X297150D01*
X278947Y133899D02*
X297150D01*
X272055Y133449D02*
X297150D01*
X272050Y132999D02*
X297150D01*
X272050Y132549D02*
X297150D01*
X272050Y132099D02*
X297150D01*
X295883Y146499D02*
X297015D01*
X208675Y119949D02*
X296049D01*
X209976Y119499D02*
X294749D01*
X211322Y119049D02*
X293402D01*
X212720Y118599D02*
X292005D01*
X282511Y141099D02*
X290554D01*
X214173Y118149D02*
X290551D01*
X215690Y117699D02*
X289034D01*
X282485Y141549D02*
X287993D01*
X217278Y117249D02*
X287446D01*
X282395Y141999D02*
X287263D01*
X282348Y142449D02*
X286804D01*
X285881Y142899D02*
X286354D01*
X218948Y116799D02*
X285776D01*
X220712Y116349D02*
X284012D01*
X222587Y115899D02*
X282137D01*
X224596Y115449D02*
X280129D01*
X226769Y114999D02*
X277955D01*
X229154Y114549D02*
X275570D01*
X231824Y114099D02*
X272901D01*
X234909Y113649D02*
X269816D01*
X238687Y113199D02*
X266038D01*
X244055Y112749D02*
X260670D01*
X201651Y122649D02*
X229796D01*
X200586Y123099D02*
X228574D01*
X199547Y123549D02*
X227956D01*
X198532Y123999D02*
X227498D01*
X197539Y124449D02*
X227048D01*
X196567Y124899D02*
X226598D01*
X195616Y125349D02*
X226148D01*
X194683Y125799D02*
X225698D01*
X193770Y126249D02*
X225248D01*
X192873Y126699D02*
X224798D01*
X191993Y127149D02*
X224348D01*
X191129Y127599D02*
X223898D01*
X190281Y128049D02*
X223448D01*
X189447Y128499D02*
X222998D01*
X188627Y128949D02*
X222548D01*
X187825Y129399D02*
X222098D01*
X187947Y129849D02*
X221569D01*
X329666Y138849D02*
X331353D01*
X330613Y139299D02*
X331170D01*
X325407Y138399D02*
X330779D01*
X325407Y137949D02*
X330168D01*
X325407Y137499D02*
X329551D01*
X325407Y137049D02*
X328925D01*
X325407Y136599D02*
X328292D01*
X325407Y136149D02*
X327651D01*
X325407Y135699D02*
X327002D01*
X325407Y138849D02*
X326734D01*
X325407Y135249D02*
X326344D01*
X325530Y139299D02*
X325783D01*
X337036Y154599D02*
X348714D01*
X340610Y154149D02*
X348438D01*
X341349Y153699D02*
X348014D01*
X341816Y153249D02*
X347587D01*
X336939Y155049D02*
X347454D01*
X342144Y152799D02*
X347156D01*
X342375Y152349D02*
X346720D01*
X336737Y155499D02*
X346498D01*
X342531Y151899D02*
X346281D01*
X336862Y155949D02*
X345861D01*
X342621Y151449D02*
X345837D01*
X342650Y150999D02*
X345389D01*
X337004Y156399D02*
X345380D01*
X337050Y156849D02*
X345001D01*
X342620Y150549D02*
X344936D01*
X337050Y157299D02*
X344698D01*
X342530Y150099D02*
X344479D01*
X337050Y157749D02*
X344457D01*
X337050Y158199D02*
X344269D01*
X337099Y158649D02*
X344109D01*
X342374Y149649D02*
X344018D01*
X342142Y149199D02*
X343552D01*
X341854Y148749D02*
X343081D01*
X341848Y148299D02*
X342606D01*
X337051Y154149D02*
X337790D01*
X350142Y181149D02*
X351408D01*
X349448Y180699D02*
X351408D01*
X349431Y180249D02*
X351408D01*
X349431Y179799D02*
X351408D01*
X349431Y179349D02*
X351408D01*
X350677Y181599D02*
X351171D01*
X349683Y178899D02*
X351156D01*
X268250Y241449D02*
X294994D01*
X268250Y241899D02*
X294591D01*
X268250Y240999D02*
X294581D01*
X268250Y242349D02*
X294230D01*
X268250Y240549D02*
X293620D01*
X268250Y242799D02*
X293394D01*
X288686Y243249D02*
X290901D01*
X289589Y243699D02*
X290277D01*
X268250Y240099D02*
X287817D01*
X268250Y239649D02*
X287019D01*
X268250Y239199D02*
X286551D01*
X268250Y238749D02*
X286101D01*
X268285Y238299D02*
X285651D01*
X283886Y243249D02*
X285633D01*
X284870Y237849D02*
X285279D01*
X279240Y243249D02*
X280833D01*
X279992Y237849D02*
X280530D01*
X275270D02*
X275768D01*
X274379Y243249D02*
X275766D01*
X269486D02*
X271043D01*
X270470Y237849D02*
X270930D01*
X260152Y202299D02*
X300157D01*
X260050Y202749D02*
X300127D01*
X260050Y203199D02*
X299838D01*
X260050Y203649D02*
X299659D01*
X260050Y204099D02*
X299567D01*
X290687Y232899D02*
X299550D01*
X290526Y232449D02*
X299550D01*
X290478Y231999D02*
X299550D01*
X290662Y231549D02*
X299550D01*
X290744Y231099D02*
X299550D01*
X290750Y230649D02*
X299550D01*
X290750Y230199D02*
X299550D01*
X290750Y229749D02*
X299550D01*
X290750Y229299D02*
X299550D01*
X290750Y228849D02*
X299550D01*
X290750Y228399D02*
X299550D01*
X290699Y227949D02*
X299550D01*
X290550Y227499D02*
X299550D01*
X290279Y227049D02*
X299550D01*
X289812Y226599D02*
X299550D01*
X279047Y226149D02*
X299550D01*
X252536Y225699D02*
X299550D01*
X252122Y225249D02*
X299550D01*
X251501Y224799D02*
X299550D01*
X246250Y224349D02*
X299550D01*
X246250Y223899D02*
X299550D01*
X246250Y223449D02*
X299550D01*
X246250Y222999D02*
X299550D01*
X246250Y222549D02*
X299550D01*
X246250Y222099D02*
X299550D01*
X246250Y221649D02*
X299550D01*
X246250Y221199D02*
X299550D01*
X246250Y220749D02*
X299550D01*
X246250Y220299D02*
X299550D01*
X246250Y219849D02*
X299550D01*
X246250Y219399D02*
X299550D01*
X246250Y218949D02*
X299550D01*
X246250Y218499D02*
X299550D01*
X246250Y218049D02*
X299550D01*
X246250Y217599D02*
X299550D01*
X246250Y217149D02*
X299550D01*
X246250Y216699D02*
X299550D01*
X246250Y216249D02*
X299550D01*
X246250Y215799D02*
X299550D01*
X246250Y215349D02*
X299550D01*
X246250Y214899D02*
X299550D01*
X246302Y214449D02*
X299550D01*
X246749Y213999D02*
X299550D01*
X247199Y213549D02*
X299550D01*
X253283Y213099D02*
X299550D01*
X254081Y212649D02*
X299550D01*
X254549Y212199D02*
X299550D01*
X254999Y211749D02*
X299550D01*
X255449Y211299D02*
X299550D01*
X255899Y210849D02*
X299550D01*
X256349Y210399D02*
X299550D01*
X256799Y209949D02*
X299550D01*
X257249Y209499D02*
X299550D01*
X257699Y209049D02*
X299550D01*
X258149Y208599D02*
X299550D01*
X258599Y208149D02*
X299550D01*
X259049Y207699D02*
X299550D01*
X259475Y207249D02*
X299550D01*
X259763Y206799D02*
X299550D01*
X259942Y206349D02*
X299550D01*
X260033Y205899D02*
X299550D01*
X260050Y205449D02*
X299550D01*
X260050Y204999D02*
X299550D01*
X260050Y204549D02*
X299550D01*
X290749Y233349D02*
X299447D01*
X290750Y233799D02*
X294866D01*
X290750Y234249D02*
X294387D01*
X290750Y234699D02*
X293459D01*
X285043Y226599D02*
X285157D01*
X252829Y226149D02*
X276713D01*
X270643Y226599D02*
X270757D01*
X253034D02*
X265988D01*
X253167Y227049D02*
X265521D01*
X253237Y227499D02*
X265250D01*
X253247Y227949D02*
X264904D01*
X253198Y228399D02*
X264454D01*
X253087Y228849D02*
X264004D01*
X252908Y229299D02*
X263568D01*
X252647Y229749D02*
X263264D01*
X252280Y230199D02*
X263074D01*
X251746Y230649D02*
X262973D01*
X246250Y241899D02*
X262950D01*
X246250Y241449D02*
X262950D01*
X246250Y240999D02*
X262950D01*
X246250Y240549D02*
X262950D01*
X246250Y240099D02*
X262950D01*
X246250Y239649D02*
X262950D01*
X246250Y239199D02*
X262950D01*
X246250Y238749D02*
X262950D01*
X246250Y238299D02*
X262950D01*
X246250Y237849D02*
X262950D01*
X246250Y237399D02*
X262950D01*
X246250Y236949D02*
X262950D01*
X246250Y236499D02*
X262950D01*
X246250Y236049D02*
X262950D01*
X246250Y235599D02*
X262950D01*
X246318Y235149D02*
X262950D01*
X246663Y234699D02*
X262950D01*
X246882Y234249D02*
X262950D01*
X247006Y233799D02*
X262950D01*
X247050Y233349D02*
X262950D01*
X247050Y232899D02*
X262950D01*
X247050Y232449D02*
X262950D01*
X247050Y231999D02*
X262950D01*
X247050Y231549D02*
X262950D01*
X250811Y231099D02*
X262950D01*
X246255Y242349D02*
X262945D01*
X247050Y231099D02*
X248789D01*
X246250Y224799D02*
X248099D01*
X247055Y230649D02*
X247854D01*
X272050Y142449D02*
X276173D01*
X272050Y141999D02*
X276126D01*
X272050Y141549D02*
X276036D01*
X272050Y141099D02*
X276011D01*
X272050Y140649D02*
X276011D01*
X272139Y140199D02*
X275909D01*
X272050Y142899D02*
X275199D01*
X272041Y143349D02*
X274631D01*
X271954Y143799D02*
X274270D01*
X271764Y144249D02*
X274031D01*
X271432Y144699D02*
X273883D01*
X270833Y145149D02*
X273811D01*
X264150Y145599D02*
X273802D01*
X273404Y146049D02*
X273691D01*
X264150D02*
X270596D01*
X264150Y146499D02*
X269854D01*
X264150Y146949D02*
X268802D01*
X264150Y147399D02*
X268254D01*
X264150Y147849D02*
X267804D01*
X264150Y148299D02*
X267354D01*
X264150Y148749D02*
X266904D01*
X264122Y145149D02*
X266767D01*
X264150Y149199D02*
X266454D01*
X264002Y144699D02*
X266168D01*
X264150Y149649D02*
X266004D01*
X263770Y144249D02*
X265836D01*
X263372Y143799D02*
X265646D01*
X262559Y143349D02*
X265559D01*
X264150Y150099D02*
X265554D01*
X261682Y142899D02*
X265550D01*
X263025Y142449D02*
X265550D01*
X263578Y141999D02*
X265550D01*
X263891Y141549D02*
X265550D01*
X264069Y141099D02*
X265550D01*
X264145Y140649D02*
X265550D01*
X264252Y140199D02*
X265461D01*
X264150Y150549D02*
X265104D01*
X264171Y150999D02*
X264654D01*
X187240Y138399D02*
X220150D01*
X187689Y137949D02*
X220150D01*
X188139Y137499D02*
X220129D01*
X207859Y138849D02*
X209541D01*
X194695D02*
X196541D01*
X264093Y132999D02*
X265550D01*
X263939Y132549D02*
X265550D01*
X263660Y132099D02*
X265550D01*
X263179Y131649D02*
X265550D01*
X242285Y131199D02*
X265550D01*
X242285Y130749D02*
X265550D01*
X242288Y130299D02*
X265550D01*
X264153Y133449D02*
X265545D01*
X250930Y168099D02*
X263750D01*
X250692Y167649D02*
X263750D01*
X250372Y167199D02*
X263750D01*
X250650Y166749D02*
X263750D01*
X250906Y166299D02*
X263750D01*
X251043Y165849D02*
X263750D01*
X251085Y165399D02*
X263750D01*
X251085Y164949D02*
X263750D01*
X251085Y164499D02*
X263750D01*
X251085Y164049D02*
X263750D01*
X251085Y163599D02*
X263750D01*
X251085Y163149D02*
X263750D01*
X251074Y162699D02*
X263750D01*
X250982Y162249D02*
X263750D01*
X250786Y161799D02*
X263750D01*
X250884Y161349D02*
X263750D01*
X251033Y160899D02*
X263750D01*
X251084Y160449D02*
X263750D01*
X251085Y159999D02*
X263750D01*
X251085Y159549D02*
X263750D01*
X251085Y159099D02*
X263750D01*
X251085Y158649D02*
X263750D01*
X251085Y158199D02*
X263750D01*
X251078Y157749D02*
X263750D01*
X250997Y157299D02*
X263750D01*
X250814Y156849D02*
X263750D01*
X250493Y156399D02*
X263750D01*
X249921Y155949D02*
X263750D01*
X240975Y155499D02*
X263750D01*
X241107Y155049D02*
X263750D01*
X262711Y154599D02*
X263750D01*
X251054Y168549D02*
X258572D01*
X251085Y168999D02*
X257546D01*
X249590Y142899D02*
X257118D01*
X251085Y169449D02*
X257113D01*
X251085Y169899D02*
X256860D01*
X256142Y178449D02*
X256789D01*
X251085Y170349D02*
X256724D01*
X255387Y177999D02*
X256696D01*
X250781Y177549D02*
X256685D01*
X250980Y177099D02*
X256685D01*
X251073Y176649D02*
X256685D01*
X251085Y176199D02*
X256685D01*
X251085Y175749D02*
X256685D01*
X251085Y175299D02*
X256685D01*
X251085Y174849D02*
X256685D01*
X251085Y174399D02*
X256685D01*
X251085Y173949D02*
X256685D01*
X251045Y173499D02*
X256685D01*
X250909Y173049D02*
X256685D01*
X250760Y172599D02*
X256685D01*
X250963Y172149D02*
X256685D01*
X251067Y171699D02*
X256685D01*
X251085Y171249D02*
X256685D01*
X251085Y170799D02*
X256685D01*
X250419Y143349D02*
X256241D01*
X250645Y154599D02*
X256089D01*
X250949Y142449D02*
X255775D01*
X251063Y131649D02*
X255621D01*
X251260Y143799D02*
X255428D01*
X251347Y154149D02*
X255369D01*
X251492Y141999D02*
X255222D01*
X251553Y132099D02*
X255140D01*
X251664Y144249D02*
X255030D01*
X251714Y153699D02*
X254996D01*
X251800Y141549D02*
X254909D01*
X251835Y132549D02*
X254861D01*
X251900Y144699D02*
X254798D01*
X251929Y153249D02*
X254778D01*
X251975Y141099D02*
X254731D01*
X251993Y132999D02*
X254707D01*
X252023Y145149D02*
X254678D01*
X252034Y152799D02*
X254670D01*
X252048Y140649D02*
X254655D01*
X252051Y133449D02*
X254651D01*
X252052Y152349D02*
X254650D01*
X252052Y151899D02*
X254650D01*
X252052Y151449D02*
X254650D01*
X252052Y150999D02*
X254650D01*
X252052Y150549D02*
X254650D01*
X252052Y150099D02*
X254650D01*
X252052Y149649D02*
X254650D01*
X252052Y149199D02*
X254650D01*
X252052Y148749D02*
X254650D01*
X252052Y148299D02*
X254650D01*
X252052Y147849D02*
X254650D01*
X252052Y147399D02*
X254650D01*
X252052Y146949D02*
X254650D01*
X252052Y146499D02*
X254650D01*
X252052Y146049D02*
X254650D01*
X252052Y145599D02*
X254650D01*
X252052Y140199D02*
X254650D01*
X252052Y139749D02*
X254650D01*
X252052Y139299D02*
X254650D01*
X252052Y138849D02*
X254650D01*
X252052Y138399D02*
X254650D01*
X252052Y137949D02*
X254650D01*
X252052Y137499D02*
X254650D01*
X252052Y137049D02*
X254650D01*
X252052Y136599D02*
X254650D01*
X252052Y136149D02*
X254650D01*
X252052Y135699D02*
X254650D01*
X252052Y135249D02*
X254650D01*
X252052Y134799D02*
X254650D01*
X252052Y134349D02*
X254650D01*
X252052Y133899D02*
X254650D01*
X250489Y177999D02*
X251883D01*
X250485Y178449D02*
X251127D01*
X240755Y155949D02*
X245749D01*
X240631Y156399D02*
X245176D01*
X242285Y142899D02*
X245015D01*
X242281Y143349D02*
X244186D01*
X241165Y154599D02*
X243959D01*
X242285Y142449D02*
X243656D01*
X242285Y131649D02*
X243542D01*
X242209Y143799D02*
X243345D01*
X241168Y154149D02*
X243258D01*
X242285Y141999D02*
X243113D01*
X242285Y132099D02*
X243052D01*
X242035Y144249D02*
X242941D01*
X241168Y153699D02*
X242890D01*
X242285Y141549D02*
X242805D01*
X242301Y132549D02*
X242769D01*
X241730Y144699D02*
X242705D01*
X241168Y153249D02*
X242676D01*
X241192Y145149D02*
X242582D01*
X241168Y152799D02*
X242571D01*
X241168Y152349D02*
X242552D01*
X241168Y151899D02*
X242552D01*
X241168Y151449D02*
X242552D01*
X241168Y150999D02*
X242552D01*
X241168Y150549D02*
X242552D01*
X241168Y150099D02*
X242552D01*
X241168Y149649D02*
X242552D01*
X241168Y149199D02*
X242552D01*
X241151Y148749D02*
X242552D01*
X241065Y148299D02*
X242552D01*
X240901Y147849D02*
X242552D01*
X240642Y147399D02*
X242552D01*
X240252Y146949D02*
X242552D01*
X239621Y146499D02*
X242552D01*
X236400Y146049D02*
X242552D01*
X236400Y145599D02*
X242552D01*
X236452Y145149D02*
X236877D01*
X256885Y180249D02*
X259174D01*
X256885Y180699D02*
X258054D01*
X256862Y179799D02*
X257963D01*
X256912Y181149D02*
X257374D01*
X256775Y179349D02*
X257332D01*
X228655Y133449D02*
X235785D01*
X229105Y132999D02*
X235785D01*
X229555Y132549D02*
X235785D01*
X230005Y132099D02*
X235785D01*
X230455Y131649D02*
X235785D01*
X230905Y131199D02*
X235785D01*
X231355Y130749D02*
X235785D01*
X231805Y130299D02*
X235781D01*
X228205Y133899D02*
X233916D01*
X227755Y134349D02*
X233059D01*
X227305Y134799D02*
X232555D01*
X226855Y135249D02*
X232105D01*
X226405Y135699D02*
X231655D01*
X226250Y136149D02*
X231205D01*
X226250Y136599D02*
X230759D01*
X226250Y137049D02*
X230413D01*
X226250Y137499D02*
X230172D01*
X226250Y137949D02*
X230014D01*
X226250Y138399D02*
X229925D01*
X226250Y146049D02*
X229900D01*
X226250Y145599D02*
X229900D01*
X226250Y145149D02*
X229900D01*
X226250Y144699D02*
X229900D01*
X226250Y144249D02*
X229900D01*
X226250Y143799D02*
X229900D01*
X226250Y143349D02*
X229900D01*
X226250Y142899D02*
X229900D01*
X226250Y142449D02*
X229900D01*
X226250Y141999D02*
X229900D01*
X226250Y141549D02*
X229900D01*
X226250Y141099D02*
X229900D01*
X226250Y140649D02*
X229900D01*
X226250Y140199D02*
X229900D01*
X226250Y139749D02*
X229900D01*
X226250Y139299D02*
X229900D01*
X226250Y138849D02*
X229900D01*
X226250Y146499D02*
X229239D01*
X226250Y146949D02*
X228608D01*
X226250Y147399D02*
X228217D01*
X226330Y156399D02*
X228119D01*
X225604Y155949D02*
X228105D01*
X226250Y147849D02*
X227959D01*
X224882Y155499D02*
X227885D01*
X226250Y148299D02*
X227794D01*
X225290Y155049D02*
X227753D01*
X226250Y148749D02*
X227709D01*
X225681Y154599D02*
X227695D01*
X225948Y154149D02*
X227692D01*
X226122Y153699D02*
X227692D01*
X226220Y153249D02*
X227692D01*
X226250Y152799D02*
X227692D01*
X226250Y152349D02*
X227692D01*
X226250Y151899D02*
X227692D01*
X226250Y151449D02*
X227692D01*
X226250Y150999D02*
X227692D01*
X226250Y150549D02*
X227692D01*
X226250Y150099D02*
X227692D01*
X226250Y149649D02*
X227692D01*
X226250Y149199D02*
X227692D01*
X241145Y167199D02*
X245298D01*
X241168Y167649D02*
X244978D01*
X241168Y168099D02*
X244740D01*
X241168Y172149D02*
X244706D01*
X241168Y168549D02*
X244615D01*
X241168Y171699D02*
X244602D01*
X241168Y171249D02*
X244585D01*
X241168Y170799D02*
X244585D01*
X241168Y170349D02*
X244585D01*
X241168Y169899D02*
X244585D01*
X241168Y169449D02*
X244585D01*
X241168Y168999D02*
X244585D01*
X165848Y210849D02*
X168083D01*
X165848Y210399D02*
X168057D01*
X165848Y211299D02*
X166665D01*
X165798Y209949D02*
X166648D01*
X165749Y209499D02*
X166187D01*
X143662Y169899D02*
X149910D01*
X143356Y170349D02*
X149739D01*
X143971Y169449D02*
X149664D01*
X143053Y170799D02*
X149611D01*
X142455Y171699D02*
X149578D01*
X142753Y171249D02*
X149578D01*
X142160Y172149D02*
X149573D01*
X144282Y168999D02*
X149419D01*
X144596Y168549D02*
X149247D01*
X144913Y168099D02*
X149137D01*
X145233Y167649D02*
X149084D01*
X145555Y167199D02*
X149078D01*
X145880Y166749D02*
X149078D01*
X146209Y166299D02*
X149078D01*
X146540Y165849D02*
X149078D01*
X146874Y165399D02*
X149078D01*
X147211Y164949D02*
X149074D01*
X147552Y164499D02*
X149050D01*
X147895Y164049D02*
X149050D01*
X148241Y163599D02*
X149050D01*
X148591Y163149D02*
X149008D01*
X141867Y172599D02*
X144155D01*
X141578Y173049D02*
X143389D01*
X141290Y173499D02*
X142907D01*
X141006Y173949D02*
X142457D01*
X140723Y174399D02*
X142007D01*
X140444Y174849D02*
X141557D01*
X140167Y175299D02*
X141123D01*
X139892Y175749D02*
X140803D01*
X139620Y176199D02*
X140583D01*
X139350Y176649D02*
X140440D01*
X139082Y177099D02*
X140366D01*
X138555Y177999D02*
X140352D01*
X138818Y177549D02*
X140352D01*
X138295Y178449D02*
X140333D01*
X138037Y178899D02*
X139508D01*
X137782Y179349D02*
X138953D01*
X137528Y179799D02*
X138599D01*
X137278Y180249D02*
X138364D01*
X136825Y187449D02*
X138229D01*
X137029Y180699D02*
X138220D01*
X137560Y187899D02*
X138203D01*
X133790Y186999D02*
X138154D01*
X136783Y181149D02*
X138151D01*
X134002Y186549D02*
X138144D01*
X134222Y186099D02*
X138144D01*
X134444Y185649D02*
X138144D01*
X134668Y185199D02*
X138144D01*
X134894Y184749D02*
X138144D01*
X135122Y184299D02*
X138144D01*
X135353Y183849D02*
X138144D01*
X135586Y183399D02*
X138144D01*
X135821Y182949D02*
X138144D01*
X136058Y182499D02*
X138144D01*
X136297Y182049D02*
X138144D01*
X136539Y181599D02*
X138144D01*
X151401Y198699D02*
X154715D01*
X151531Y199149D02*
X154484D01*
X151646Y203649D02*
X154353D01*
X151608Y199599D02*
X154309D01*
X151620Y203199D02*
X154289D01*
X151620Y200049D02*
X154235D01*
X151620Y202749D02*
X154231D01*
X151620Y202299D02*
X154230D01*
X151620Y201849D02*
X154230D01*
X151620Y201399D02*
X154230D01*
X151620Y200949D02*
X154230D01*
X151620Y200499D02*
X154230D01*
X160192Y198699D02*
X179350D01*
X160389Y198249D02*
X179350D01*
X160605Y197799D02*
X179350D01*
X160711Y197349D02*
X179350D01*
X160730Y196899D02*
X179350D01*
X160730Y196449D02*
X179350D01*
X160730Y195999D02*
X179350D01*
X160730Y195549D02*
X179350D01*
X160730Y195099D02*
X179350D01*
X160730Y194649D02*
X179350D01*
X160702Y194199D02*
X179350D01*
X160580Y193749D02*
X179350D01*
X160396Y193299D02*
X179350D01*
X160586Y192849D02*
X179350D01*
X160704Y192399D02*
X179350D01*
X160730Y191949D02*
X179350D01*
X160730Y191499D02*
X179350D01*
X160730Y191049D02*
X179350D01*
X160730Y190599D02*
X179350D01*
X160730Y190149D02*
X179350D01*
X160730Y189699D02*
X179350D01*
X160709Y189249D02*
X179350D01*
X160599Y188799D02*
X179325D01*
X176355Y188349D02*
X177976D01*
X174039Y199149D02*
X177925D01*
X176901Y187899D02*
X177429D01*
X174621Y199599D02*
X177269D01*
X175222Y204549D02*
X176932D01*
X174946Y200049D02*
X176917D01*
X175222Y204099D02*
X176787D01*
X175132Y200499D02*
X176712D01*
X175222Y203649D02*
X176645D01*
X175215Y200949D02*
X176614D01*
X175222Y203199D02*
X176600D01*
X175222Y202749D02*
X176600D01*
X175222Y202299D02*
X176600D01*
X175222Y201849D02*
X176600D01*
X175222Y201399D02*
X176600D01*
X175222Y204999D02*
X176507D01*
X175222Y205449D02*
X176057D01*
X175351Y205899D02*
X175594D01*
X160378Y188349D02*
X170476D01*
X160001Y187899D02*
X169929D01*
X159266Y187449D02*
X169620D01*
X151610Y186999D02*
X169444D01*
X151620Y186549D02*
X169370D01*
X168576Y186099D02*
X169365D01*
X160476Y199149D02*
X166906D01*
X160652Y199599D02*
X166324D01*
X160726Y200049D02*
X165999D01*
X165380Y209049D02*
X165825D01*
X160730Y200499D02*
X165813D01*
X164915Y208599D02*
X165772D01*
X160730Y200949D02*
X165730D01*
X160755Y208149D02*
X165722D01*
X160730Y207699D02*
X165722D01*
X160730Y207249D02*
X165722D01*
X160730Y206799D02*
X165722D01*
X160730Y206349D02*
X165722D01*
X160730Y205899D02*
X165722D01*
X160730Y205449D02*
X165722D01*
X160722Y204999D02*
X165722D01*
X160638Y204549D02*
X165722D01*
X160450Y204099D02*
X165722D01*
X160514Y203649D02*
X165722D01*
X160671Y203199D02*
X165722D01*
X160729Y202749D02*
X165722D01*
X160730Y202299D02*
X165722D01*
X160730Y201849D02*
X165722D01*
X160730Y201399D02*
X165722D01*
X151620Y186099D02*
X161184D01*
X151620Y185649D02*
X160664D01*
X151620Y185199D02*
X160367D01*
X151620Y184749D02*
X160199D01*
X151620Y184299D02*
X160132D01*
X159498Y177099D02*
X160132D01*
X151620Y183849D02*
X160130D01*
X151620Y183399D02*
X160130D01*
X151620Y182949D02*
X160130D01*
X151620Y182499D02*
X160130D01*
X151620Y182049D02*
X160130D01*
X151620Y181599D02*
X160130D01*
X151613Y181149D02*
X160130D01*
X151544Y180699D02*
X160130D01*
X151399Y180249D02*
X160130D01*
X151165Y179799D02*
X160130D01*
X150811Y179349D02*
X160130D01*
X150768Y178899D02*
X160130D01*
X157964Y178449D02*
X160130D01*
X158593Y177999D02*
X160130D01*
X159048Y177549D02*
X160130D01*
X151535Y187449D02*
X155695D01*
X151401Y187899D02*
X154960D01*
X160405Y159099D02*
X179827D01*
X160855Y158649D02*
X179827D01*
X161305Y158199D02*
X179827D01*
X161755Y157749D02*
X179827D01*
X162205Y157299D02*
X179805D01*
X159955Y159549D02*
X179405D01*
X159505Y159999D02*
X178720D01*
X159055Y160449D02*
X178354D01*
X158605Y160899D02*
X174939D01*
X158155Y161349D02*
X174434D01*
X169630Y171699D02*
X174415D01*
X169630Y172149D02*
X174260D01*
X169630Y166749D02*
X174168D01*
X169630Y166299D02*
X174156D01*
X157705Y161799D02*
X174143D01*
X169630Y171249D02*
X174132D01*
X169630Y167199D02*
X173993D01*
X169630Y165849D02*
X173987D01*
X157255Y162249D02*
X173980D01*
X169630Y170799D02*
X173975D01*
X169630Y167649D02*
X173919D01*
X169630Y165399D02*
X173918D01*
X156805Y162699D02*
X173917D01*
X169630Y170349D02*
X173916D01*
X169630Y169899D02*
X173915D01*
X169630Y169449D02*
X173915D01*
X169630Y168999D02*
X173915D01*
X169630Y168549D02*
X173915D01*
X169630Y168099D02*
X173915D01*
X169616Y164949D02*
X173915D01*
X169520Y164499D02*
X173915D01*
X169317Y164049D02*
X173915D01*
X168968Y163599D02*
X173915D01*
X168320Y163149D02*
X173915D01*
X169593Y172599D02*
X173697D01*
X169630Y180249D02*
X173415D01*
X169461Y173049D02*
X173381D01*
X169630Y179799D02*
X173224D01*
X169212Y173499D02*
X173200D01*
X169630Y179349D02*
X173128D01*
X168787Y173949D02*
X173121D01*
X169630Y178899D02*
X173115D01*
X169630Y178449D02*
X173115D01*
X169630Y177999D02*
X173115D01*
X169630Y177549D02*
X173115D01*
X169628Y177099D02*
X173115D01*
X169563Y176649D02*
X173115D01*
X169398Y176199D02*
X173115D01*
X169105Y175749D02*
X173115D01*
X168594Y175299D02*
X173115D01*
X167194Y174849D02*
X173115D01*
X167824Y174399D02*
X173115D01*
X162655Y156849D02*
X170927D01*
X169630Y180699D02*
X170834D01*
X163105Y156399D02*
X170148D01*
X169672Y181149D02*
X170096D01*
X163555Y155949D02*
X169645D01*
X164005Y155499D02*
X169195D01*
X164455Y155049D02*
X168745D01*
X164905Y154599D02*
X168295D01*
X165355Y154149D02*
X167845D01*
X165805Y153699D02*
X167395D01*
X166255Y153249D02*
X166945D01*
X156550Y163149D02*
X161440D01*
X156550Y163599D02*
X160792D01*
X159135Y164049D02*
X160442D01*
X159924Y164499D02*
X160178D01*
X198767Y168999D02*
X202443D01*
X198776Y168549D02*
X201564D01*
X198707Y169449D02*
X201100D01*
X198776Y168099D02*
X200752D01*
X198585Y169899D02*
X200546D01*
X198776Y167649D02*
X200354D01*
X198500Y170349D02*
X200234D01*
X198776Y167199D02*
X200122D01*
X198383Y170799D02*
X200056D01*
X198813Y166749D02*
X199984D01*
X198191Y171249D02*
X199979D01*
X197817Y176649D02*
X199974D01*
X198186Y176199D02*
X199974D01*
X198401Y175749D02*
X199974D01*
X198507Y175299D02*
X199974D01*
X198602Y174849D02*
X199974D01*
X198717Y174399D02*
X199974D01*
X198771Y173949D02*
X199974D01*
X198766Y173499D02*
X199974D01*
X198703Y173049D02*
X199974D01*
X198577Y172599D02*
X199974D01*
X198496Y172149D02*
X199974D01*
X198374Y171699D02*
X199974D01*
X197760Y177099D02*
X199876D01*
X207513Y180699D02*
X215581D01*
X207487Y181149D02*
X215532D01*
X207488Y181599D02*
X215082D01*
X207488Y182049D02*
X214632D01*
X211950Y182499D02*
X213527D01*
X212631Y182949D02*
X212846D01*
X207006Y168999D02*
X212679D01*
X207884Y168549D02*
X211801D01*
X208349Y169449D02*
X211336D01*
X208504Y180249D02*
X211181D01*
X208697Y168099D02*
X210988D01*
X208902Y169899D02*
X210783D01*
X208985Y179799D02*
X210700D01*
X209095Y167649D02*
X210590D01*
X209215Y170349D02*
X210470D01*
X209264Y179349D02*
X210421D01*
X209327Y167199D02*
X210358D01*
X209393Y170799D02*
X210292D01*
X209418Y178899D02*
X210267D01*
X209447Y166749D02*
X210238D01*
X209469Y171249D02*
X210216D01*
X209474Y178449D02*
X210211D01*
X209474Y177999D02*
X210211D01*
X209474Y177549D02*
X210211D01*
X209474Y177099D02*
X210211D01*
X209474Y176649D02*
X210211D01*
X209474Y176199D02*
X210211D01*
X209474Y175749D02*
X210211D01*
X209474Y175299D02*
X210211D01*
X209474Y174849D02*
X210211D01*
X209474Y174399D02*
X210211D01*
X209474Y173949D02*
X210211D01*
X209474Y173499D02*
X210211D01*
X209474Y173049D02*
X210211D01*
X209474Y172599D02*
X210211D01*
X209474Y172149D02*
X210211D01*
X209474Y171699D02*
X210211D01*
X207501Y182499D02*
X208127D01*
X198525Y156849D02*
X211450D01*
X198474Y156399D02*
X211450D01*
X198324Y155949D02*
X211450D01*
X198052Y155499D02*
X211450D01*
X197583Y155049D02*
X211450D01*
X192067Y154599D02*
X211450D01*
X192006Y154149D02*
X211450D01*
X191888Y153699D02*
X211450D01*
X208035Y157299D02*
X211443D01*
X208755Y157749D02*
X210930D01*
X209128Y158199D02*
X210557D01*
X209346Y158649D02*
X210339D01*
X209454Y159099D02*
X210231D01*
X207277Y153249D02*
X210123D01*
X208552Y152799D02*
X208848D01*
X198526Y157299D02*
X201414D01*
X198526Y157749D02*
X200694D01*
X198526Y158199D02*
X200320D01*
X198526Y158649D02*
X200103D01*
X198526Y159099D02*
X199994D01*
X198591Y159549D02*
X199909D01*
X194859Y153249D02*
X197123D01*
X192077Y155049D02*
X192968D01*
X192158Y155499D02*
X192495D01*
X378278Y244149D02*
X383970D01*
X378502Y243699D02*
X383970D01*
X377897Y244599D02*
X383969D01*
X378614Y243249D02*
X383968D01*
X377145Y245049D02*
X383967D01*
X378637Y242799D02*
X383964D01*
X358422Y245499D02*
X383963D01*
X378637Y242349D02*
X383959D01*
X358366Y245949D02*
X383957D01*
X378637Y241899D02*
X383952D01*
X373112Y246399D02*
X383950D01*
X378637Y241449D02*
X383944D01*
X374235Y246849D02*
X383942D01*
X378637Y240999D02*
X383934D01*
X375009Y247299D02*
X383931D01*
X378637Y240549D02*
X383923D01*
X375614Y247749D02*
X383920D01*
X378637Y240099D02*
X383910D01*
X376108Y248199D02*
X383906D01*
X378637Y239649D02*
X383895D01*
X376523Y248649D02*
X383892D01*
X378637Y239199D02*
X383879D01*
X376874Y249099D02*
X383875D01*
X378637Y238749D02*
X383862D01*
X377172Y249549D02*
X383857D01*
X378637Y238299D02*
X383843D01*
X377426Y249999D02*
X383838D01*
X378637Y237849D02*
X383822D01*
X377640Y250449D02*
X383817D01*
X378637Y237399D02*
X383800D01*
X377817Y250899D02*
X383794D01*
X378637Y236949D02*
X383776D01*
X377961Y251349D02*
X383770D01*
X378637Y236499D02*
X383751D01*
X378073Y251799D02*
X383745D01*
X378637Y236049D02*
X383724D01*
X378156Y252249D02*
X383718D01*
X378637Y235599D02*
X383696D01*
X378209Y252699D02*
X383689D01*
X378637Y235149D02*
X383666D01*
X378235Y253149D02*
X383659D01*
X378637Y234699D02*
X383635D01*
X378232Y253599D02*
X383627D01*
X378637Y234249D02*
X383602D01*
X378201Y254049D02*
X383593D01*
X378637Y233799D02*
X383567D01*
X378142Y254499D02*
X383559D01*
X378637Y233349D02*
X383531D01*
X378054Y254949D02*
X383522D01*
X378637Y232899D02*
X383493D01*
X377936Y255399D02*
X383484D01*
X378585Y232449D02*
X383454D01*
X377785Y255849D02*
X383445D01*
X378435Y231999D02*
X383413D01*
X377601Y256299D02*
X383403D01*
X378163Y231549D02*
X383371D01*
X377380Y256749D02*
X383361D01*
X377694Y231099D02*
X383327D01*
X377119Y257199D02*
X383316D01*
X359822Y230649D02*
X383282D01*
X376810Y257649D02*
X383271D01*
X359372Y230199D02*
X383235D01*
X376448Y258099D02*
X383223D01*
X358922Y229749D02*
X383186D01*
X376020Y258549D02*
X383174D01*
X358472Y229299D02*
X383136D01*
X375507Y258999D02*
X383124D01*
X358022Y228849D02*
X383084D01*
X374876Y259449D02*
X383072D01*
X357572Y228399D02*
X383031D01*
X374056Y259899D02*
X383018D01*
X357122Y227949D02*
X382976D01*
X372805Y260349D02*
X382963D01*
X356672Y227499D02*
X382920D01*
X362150Y260799D02*
X382906D01*
X356222Y227049D02*
X382862D01*
X362150Y261249D02*
X382848D01*
X355772Y226599D02*
X382802D01*
X362150Y261699D02*
X382788D01*
X375505Y226149D02*
X382741D01*
X362150Y262149D02*
X382726D01*
X376524Y225699D02*
X382678D01*
X362199Y262599D02*
X382663D01*
X376956Y225249D02*
X382614D01*
X363545Y263049D02*
X382598D01*
X377209Y224799D02*
X382548D01*
X364061Y263499D02*
X382532D01*
X377344Y224349D02*
X382481D01*
X364357Y263949D02*
X382464D01*
X377384Y223899D02*
X382412D01*
X364523Y264399D02*
X382395D01*
X377384Y223449D02*
X382341D01*
X364589Y264849D02*
X382324D01*
X377384Y222999D02*
X382269D01*
X364592Y265299D02*
X382251D01*
X377384Y222549D02*
X382195D01*
X364592Y265749D02*
X382177D01*
X377384Y222099D02*
X382119D01*
X364592Y266199D02*
X382101D01*
X377384Y221649D02*
X382042D01*
X364592Y266649D02*
X382023D01*
X377384Y221199D02*
X381964D01*
X364592Y267099D02*
X381944D01*
X377384Y220749D02*
X381883D01*
X364592Y267549D02*
X381864D01*
X377384Y220299D02*
X381801D01*
X364592Y267999D02*
X381781D01*
X377384Y219849D02*
X381718D01*
X364592Y268449D02*
X381697D01*
X377384Y219399D02*
X381633D01*
X364592Y268899D02*
X381612D01*
X377384Y218949D02*
X381546D01*
X364592Y269349D02*
X381525D01*
X377384Y218499D02*
X381457D01*
X364592Y269799D02*
X381436D01*
X377384Y218049D02*
X381367D01*
X364592Y270249D02*
X381345D01*
X377384Y217599D02*
X381276D01*
X364592Y270699D02*
X381253D01*
X377384Y217149D02*
X381182D01*
X364592Y271149D02*
X381160D01*
X377384Y216699D02*
X381087D01*
X364592Y271599D02*
X381064D01*
X377384Y216249D02*
X380991D01*
X364592Y272049D02*
X380967D01*
X377384Y215799D02*
X380893D01*
X364592Y272499D02*
X380869D01*
X377384Y215349D02*
X380793D01*
X364592Y272949D02*
X380768D01*
X377384Y214899D02*
X380691D01*
X364592Y273399D02*
X380667D01*
X377384Y214449D02*
X380588D01*
X364592Y273849D02*
X380563D01*
X377384Y213999D02*
X380483D01*
X364592Y274299D02*
X380458D01*
X377384Y213549D02*
X380377D01*
X364592Y274749D02*
X380351D01*
X377384Y213099D02*
X380268D01*
X364592Y275199D02*
X380242D01*
X377384Y212649D02*
X380158D01*
X364592Y275649D02*
X380132D01*
X377384Y212199D02*
X380047D01*
X364592Y276099D02*
X380020D01*
X377384Y211749D02*
X379934D01*
X364592Y276549D02*
X379906D01*
X377380Y211299D02*
X379819D01*
X364592Y276999D02*
X379791D01*
X377307Y210849D02*
X379702D01*
X364592Y277449D02*
X379674D01*
X377134Y210399D02*
X379584D01*
X364547Y277899D02*
X379555D01*
X376828Y209949D02*
X379464D01*
X364404Y278349D02*
X379435D01*
X376289Y209499D02*
X379342D01*
X364143Y278799D02*
X379312D01*
X306650Y209049D02*
X379219D01*
X363694Y279249D02*
X379189D01*
X306650Y208599D02*
X379093D01*
X362419Y279699D02*
X379063D01*
X355326Y208149D02*
X378966D01*
X233050Y280149D02*
X378936D01*
X356218Y207699D02*
X378838D01*
X233050Y280599D02*
X378807D01*
X356699Y207249D02*
X378707D01*
X233050Y281049D02*
X378676D01*
X357149Y206799D02*
X378575D01*
X233050Y281499D02*
X378543D01*
X357599Y206349D02*
X378441D01*
X233050Y281949D02*
X378409D01*
X358049Y205899D02*
X378306D01*
X233050Y282399D02*
X378273D01*
X358499Y205449D02*
X378169D01*
X233050Y282849D02*
X378135D01*
X358918Y204999D02*
X378029D01*
X233050Y283299D02*
X377996D01*
X359197Y204549D02*
X377889D01*
X233050Y283749D02*
X377854D01*
X359369Y204099D02*
X377746D01*
X233050Y284199D02*
X377711D01*
X359454Y203649D02*
X377601D01*
X233099Y284649D02*
X377566D01*
X360323Y203199D02*
X377455D01*
X240878Y285099D02*
X377420D01*
X361141Y202749D02*
X377307D01*
X241460Y285549D02*
X377271D01*
X361595Y202299D02*
X377157D01*
X241910Y285999D02*
X377121D01*
X361893Y201849D02*
X377006D01*
X242360Y286449D02*
X376969D01*
X362084Y201399D02*
X376852D01*
X242810Y286899D02*
X376815D01*
X362192Y200949D02*
X376697D01*
X243260Y287349D02*
X376659D01*
X362226Y200499D02*
X376540D01*
X243675Y287799D02*
X376502D01*
X362226Y200049D02*
X376381D01*
X243951Y288249D02*
X376343D01*
X362226Y199599D02*
X376220D01*
X244119Y288699D02*
X376181D01*
X362226Y199149D02*
X376058D01*
X244202Y289149D02*
X376018D01*
X362226Y198699D02*
X375893D01*
X244280Y289599D02*
X375853D01*
X362226Y198249D02*
X375727D01*
X274773Y290049D02*
X375687D01*
X362226Y197799D02*
X375559D01*
X275237Y290499D02*
X375518D01*
X362226Y197349D02*
X375389D01*
X275506Y290949D02*
X375348D01*
X362226Y196899D02*
X375217D01*
X275653Y291399D02*
X375175D01*
X362226Y196449D02*
X375043D01*
X275703Y291849D02*
X375001D01*
X362226Y195999D02*
X374867D01*
X275704Y292299D02*
X374825D01*
X362226Y195549D02*
X374690D01*
X275704Y292749D02*
X374647D01*
X362226Y195099D02*
X374510D01*
X275704Y293199D02*
X374467D01*
X362202Y194649D02*
X374329D01*
X275704Y293649D02*
X374285D01*
X362106Y194199D02*
X374145D01*
X275704Y294099D02*
X374101D01*
X362026Y193749D02*
X373960D01*
X275704Y294549D02*
X373915D01*
X362026Y193299D02*
X373773D01*
X275704Y294999D02*
X373727D01*
X362026Y192849D02*
X373583D01*
X275704Y295449D02*
X373538D01*
X362026Y192399D02*
X373392D01*
X275704Y295899D02*
X373346D01*
X362026Y191949D02*
X373199D01*
X275704Y296349D02*
X373152D01*
X362026Y191499D02*
X373004D01*
X275704Y296799D02*
X372957D01*
X362026Y191049D02*
X372807D01*
X275704Y297249D02*
X372759D01*
X362026Y190599D02*
X372607D01*
X275704Y297699D02*
X372559D01*
X362026Y190149D02*
X372406D01*
X275704Y298149D02*
X372358D01*
X362026Y189699D02*
X372203D01*
X275704Y298599D02*
X372154D01*
X362026Y189249D02*
X371998D01*
X275704Y299049D02*
X371948D01*
X362026Y188799D02*
X371790D01*
X348146Y299499D02*
X371740D01*
X362026Y188349D02*
X371581D01*
X348996Y299949D02*
X371530D01*
X362026Y187899D02*
X371370D01*
X349588Y300399D02*
X371318D01*
X362026Y187449D02*
X371156D01*
X350042Y300849D02*
X371104D01*
X362026Y186999D02*
X370940D01*
X350401Y301299D02*
X370888D01*
X362026Y186549D02*
X370723D01*
X350688Y301749D02*
X370670D01*
X362026Y186099D02*
X370503D01*
X350916Y302199D02*
X370450D01*
X362026Y185649D02*
X370281D01*
X351093Y302649D02*
X370227D01*
X362026Y185199D02*
X370057D01*
X351225Y303099D02*
X370002D01*
X362026Y184749D02*
X369831D01*
X351314Y303549D02*
X369776D01*
X362026Y184299D02*
X369602D01*
X351363Y303999D02*
X369547D01*
X362026Y183849D02*
X369371D01*
X351374Y304449D02*
X369316D01*
X362150Y260349D02*
X369169D01*
X362026Y183399D02*
X369139D01*
X351345Y304899D02*
X369082D01*
X362026Y182949D02*
X368904D01*
X358293Y246399D02*
X368862D01*
X351278Y305349D02*
X368847D01*
X362026Y182499D02*
X368666D01*
X351169Y305799D02*
X368609D01*
X362026Y182049D02*
X368427D01*
X351017Y306249D02*
X368369D01*
X362026Y181599D02*
X368185D01*
X350817Y306699D02*
X368127D01*
X362026Y181149D02*
X367941D01*
X362150Y259899D02*
X367918D01*
X350563Y307149D02*
X367882D01*
X358204Y246849D02*
X367739D01*
X362026Y180699D02*
X367695D01*
X350244Y307599D02*
X367636D01*
X362026Y180249D02*
X367447D01*
X349845Y308049D02*
X367387D01*
X362026Y179799D02*
X367196D01*
X349335Y308499D02*
X367135D01*
X362150Y259449D02*
X367097D01*
X358098Y247299D02*
X366964D01*
X362026Y179349D02*
X366943D01*
X348647Y308949D02*
X366881D01*
X362026Y178899D02*
X366687D01*
X347544Y309399D02*
X366625D01*
X362150Y258999D02*
X366467D01*
X362026Y178449D02*
X366430D01*
X217850Y309849D02*
X366367D01*
X357976Y247749D02*
X366360D01*
X362026Y177999D02*
X366169D01*
X217850Y310299D02*
X366106D01*
X356607Y226149D02*
X366101D01*
X362150Y258549D02*
X365954D01*
X362026Y177549D02*
X365907D01*
X357836Y248199D02*
X365865D01*
X217850Y310749D02*
X365843D01*
X362046Y177099D02*
X365642D01*
X358463Y245049D02*
X365628D01*
X217850Y311199D02*
X365578D01*
X362405Y258099D02*
X365526D01*
X357677Y248649D02*
X365451D01*
X362173Y176649D02*
X365375D01*
X357391Y209499D02*
X365317D01*
X217850Y311649D02*
X365310D01*
X362855Y257649D02*
X365163D01*
X362225Y176199D02*
X365105D01*
X357500Y249099D02*
X365100D01*
X357626Y225699D02*
X365082D01*
X360272Y231099D02*
X365080D01*
X217850Y312099D02*
X365039D01*
X358488Y244599D02*
X364877D01*
X363305Y257199D02*
X364855D01*
X362226Y175749D02*
X364833D01*
X357930Y209949D02*
X364778D01*
X217850Y312549D02*
X364767D01*
X357303Y249549D02*
X364764D01*
X358059Y225249D02*
X364650D01*
X360722Y231549D02*
X364611D01*
X362226Y175299D02*
X364558D01*
X358498Y244149D02*
X364495D01*
X217850Y312999D02*
X364491D01*
X358236Y210399D02*
X364472D01*
X358311Y224799D02*
X364397D01*
X361172Y231999D02*
X364339D01*
X358410Y210849D02*
X364298D01*
X362226Y174849D02*
X364281D01*
X358492Y243699D02*
X364272D01*
X358447Y224349D02*
X364262D01*
X358482Y211299D02*
X364226D01*
X358486Y223899D02*
X364222D01*
X358486Y223449D02*
X364222D01*
X358486Y222999D02*
X364222D01*
X358486Y222549D02*
X364222D01*
X358486Y222099D02*
X364222D01*
X358486Y221649D02*
X364222D01*
X358486Y221199D02*
X364222D01*
X358486Y220749D02*
X364222D01*
X358486Y220299D02*
X364222D01*
X358486Y219849D02*
X364222D01*
X358486Y219399D02*
X364222D01*
X358486Y218949D02*
X364222D01*
X358486Y218499D02*
X364222D01*
X358486Y218049D02*
X364222D01*
X358486Y217599D02*
X364222D01*
X358486Y217149D02*
X364222D01*
X358486Y216699D02*
X364222D01*
X358486Y216249D02*
X364222D01*
X358486Y215799D02*
X364222D01*
X358486Y215349D02*
X364222D01*
X358486Y214899D02*
X364222D01*
X358486Y214449D02*
X364222D01*
X358486Y213999D02*
X364222D01*
X358486Y213549D02*
X364222D01*
X358486Y213099D02*
X364222D01*
X358486Y212649D02*
X364222D01*
X358486Y212199D02*
X364222D01*
X358486Y211749D02*
X364222D01*
X217850Y313449D02*
X364214D01*
X361622Y232449D02*
X364189D01*
X358471Y243249D02*
X364159D01*
X362072Y232899D02*
X364137D01*
X358434Y242799D02*
X364137D01*
X358381Y242349D02*
X364137D01*
X362972Y233799D02*
X364137D01*
X362522Y233349D02*
X364137D01*
X358312Y241899D02*
X364135D01*
X362226Y174399D02*
X364001D01*
X217850Y313899D02*
X363933D01*
X362226Y173949D02*
X363719D01*
X217850Y314349D02*
X363650D01*
X362226Y173499D02*
X363434D01*
X217850Y314799D02*
X363365D01*
X362226Y173049D02*
X363147D01*
X217850Y315249D02*
X363077D01*
X362226Y172599D02*
X362857D01*
X217850Y315699D02*
X362787D01*
X217850Y316149D02*
X362494D01*
X217850Y316599D02*
X362198D01*
X217850Y317049D02*
X361899D01*
X217850Y317499D02*
X361598D01*
X217850Y317949D02*
X361295D01*
X217850Y318399D02*
X360988D01*
X217850Y318849D02*
X360679D01*
X358227Y241449D02*
X360502D01*
X217850Y319299D02*
X360367D01*
X357085Y249999D02*
X360148D01*
X217850Y319749D02*
X360052D01*
X217850Y320199D02*
X359735D01*
X358125Y240999D02*
X359644D01*
X356846Y250449D02*
X359470D01*
X217850Y320649D02*
X359414D01*
X358007Y240549D02*
X359115D01*
X217850Y321099D02*
X359091D01*
X356583Y250899D02*
X358998D01*
X217850Y321549D02*
X358765D01*
X357871Y240099D02*
X358665D01*
X356295Y251349D02*
X358548D01*
X217850Y321999D02*
X358436D01*
X357880Y239649D02*
X358215D01*
X217850Y322449D02*
X358104D01*
X355980Y251799D02*
X358098D01*
X217850Y322899D02*
X357769D01*
X355636Y252249D02*
X357648D01*
X217850Y323349D02*
X357431D01*
X355258Y252699D02*
X357198D01*
X217850Y323799D02*
X357090D01*
X354844Y253149D02*
X356748D01*
X217850Y324249D02*
X356746D01*
X217850Y324699D02*
X356399D01*
X354389Y253599D02*
X356298D01*
X217850Y325149D02*
X356049D01*
X353884Y254049D02*
X355848D01*
X217850Y325599D02*
X355696D01*
X353373Y254499D02*
X355439D01*
X217850Y326049D02*
X355339D01*
X217850Y326499D02*
X354979D01*
X217850Y326949D02*
X354616D01*
X217850Y327399D02*
X354250D01*
X217850Y327849D02*
X353881D01*
X343522Y279699D02*
X353603D01*
X217850Y328299D02*
X353508D01*
X217850Y328749D02*
X353131D01*
X344047Y262599D02*
X353077D01*
X217850Y329199D02*
X352751D01*
X344647Y263049D02*
X352477D01*
X217850Y329649D02*
X352368D01*
X344796Y279249D02*
X352329D01*
X217850Y330099D02*
X351982D01*
X345163Y263499D02*
X351961D01*
X345245Y278799D02*
X351879D01*
X345459Y263949D02*
X351665D01*
X345507Y278349D02*
X351618D01*
X217850Y330549D02*
X351591D01*
X345626Y264399D02*
X351499D01*
X345649Y277899D02*
X351475D01*
X345692Y264849D02*
X351433D01*
X345694Y277449D02*
X351430D01*
X345694Y276999D02*
X351430D01*
X345694Y276549D02*
X351430D01*
X345694Y276099D02*
X351430D01*
X345694Y275649D02*
X351430D01*
X345694Y275199D02*
X351430D01*
X345694Y274749D02*
X351430D01*
X345694Y274299D02*
X351430D01*
X345694Y273849D02*
X351430D01*
X345694Y273399D02*
X351430D01*
X345694Y272949D02*
X351430D01*
X345694Y272499D02*
X351430D01*
X345694Y272049D02*
X351430D01*
X345694Y271599D02*
X351430D01*
X345694Y271149D02*
X351430D01*
X345694Y270699D02*
X351430D01*
X345694Y270249D02*
X351430D01*
X345694Y269799D02*
X351430D01*
X345694Y269349D02*
X351430D01*
X345694Y268899D02*
X351430D01*
X345694Y268449D02*
X351430D01*
X345694Y267999D02*
X351430D01*
X345694Y267549D02*
X351430D01*
X345694Y267099D02*
X351430D01*
X345694Y266649D02*
X351430D01*
X345694Y266199D02*
X351430D01*
X345694Y265749D02*
X351430D01*
X345694Y265299D02*
X351430D01*
X217850Y330999D02*
X351197D01*
X217850Y331449D02*
X350800D01*
X217850Y331899D02*
X350399D01*
X217850Y332349D02*
X349994D01*
X217850Y332799D02*
X349585D01*
X217850Y333249D02*
X349173D01*
X217850Y333699D02*
X348756D01*
X217850Y334149D02*
X348336D01*
X217850Y334599D02*
X347912D01*
X217850Y335049D02*
X347484D01*
X217850Y335499D02*
X347051D01*
X217850Y335949D02*
X346615D01*
X306650Y209499D02*
X346419D01*
X217850Y336399D02*
X346174D01*
X306650Y209949D02*
X345881D01*
X217850Y336849D02*
X345729D01*
X306650Y210399D02*
X345575D01*
X306650Y210849D02*
X345401D01*
X306650Y211299D02*
X345328D01*
X306650Y222099D02*
X345325D01*
X306650Y221649D02*
X345325D01*
X306650Y221199D02*
X345325D01*
X306650Y220749D02*
X345325D01*
X306650Y220299D02*
X345325D01*
X306650Y219849D02*
X345325D01*
X306650Y219399D02*
X345325D01*
X306650Y218949D02*
X345325D01*
X306650Y218499D02*
X345325D01*
X306650Y218049D02*
X345325D01*
X306650Y217599D02*
X345325D01*
X306650Y217149D02*
X345325D01*
X306650Y216699D02*
X345325D01*
X306650Y216249D02*
X345325D01*
X306650Y215799D02*
X345325D01*
X306650Y215349D02*
X345325D01*
X306650Y214899D02*
X345325D01*
X306650Y214449D02*
X345325D01*
X306650Y213999D02*
X345325D01*
X306650Y213549D02*
X345325D01*
X306650Y213099D02*
X345325D01*
X306650Y212649D02*
X345325D01*
X306650Y212199D02*
X345325D01*
X306650Y211749D02*
X345325D01*
X217850Y337299D02*
X345280D01*
X217850Y337749D02*
X344826D01*
X217850Y309399D02*
X344705D01*
X217850Y338199D02*
X344368D01*
X275704Y299499D02*
X344104D01*
X217850Y338649D02*
X343906D01*
X217850Y308949D02*
X343603D01*
X217850Y339099D02*
X343439D01*
X275694Y299949D02*
X343254D01*
X217850Y339549D02*
X342967D01*
X217850Y308499D02*
X342915D01*
X275606Y300399D02*
X342661D01*
X217850Y339999D02*
X342491D01*
X217850Y308049D02*
X342405D01*
X275414Y300849D02*
X342208D01*
X217850Y340449D02*
X342009D01*
X217850Y307599D02*
X342005D01*
X275081Y301299D02*
X341848D01*
X217850Y307149D02*
X341687D01*
X274477Y301749D02*
X341561D01*
X217850Y340899D02*
X341523D01*
X217850Y306699D02*
X341432D01*
X217854Y302199D02*
X341333D01*
X217850Y306249D02*
X341232D01*
X217850Y302649D02*
X341156D01*
X217850Y305799D02*
X341080D01*
X306650Y208149D02*
X341074D01*
X217850Y341349D02*
X341032D01*
X217850Y303099D02*
X341025D01*
X217850Y305349D02*
X340972D01*
X217850Y303549D02*
X340935D01*
X217850Y304899D02*
X340904D01*
X217850Y303999D02*
X340886D01*
X217850Y304449D02*
X340876D01*
X217850Y341799D02*
X340536D01*
X306650Y207699D02*
X340182D01*
X217850Y342249D02*
X340035D01*
X306650Y207249D02*
X339701D01*
X217850Y342699D02*
X339528D01*
X217850Y343149D02*
X339017D01*
X217850Y343599D02*
X338500D01*
X217850Y344049D02*
X337977D01*
X217850Y344499D02*
X337449D01*
X217850Y344949D02*
X336915D01*
X217850Y345399D02*
X336375D01*
X217850Y345849D02*
X335830D01*
X217850Y346299D02*
X335278D01*
X217850Y346749D02*
X334720D01*
X233050Y279699D02*
X334705D01*
X297644Y262599D02*
X334180D01*
X217850Y347199D02*
X334156D01*
X217850Y347649D02*
X333586D01*
X297588Y263049D02*
X333580D01*
X233050Y279249D02*
X333431D01*
X297470Y263499D02*
X333063D01*
X217850Y348099D02*
X333009D01*
X233050Y278799D02*
X332982D01*
X297283Y263949D02*
X332768D01*
X233050Y278349D02*
X332720D01*
X297012Y264399D02*
X332601D01*
X233050Y277899D02*
X332578D01*
X296850Y264849D02*
X332535D01*
X233050Y277449D02*
X332533D01*
X233050Y276999D02*
X332533D01*
X233050Y276549D02*
X332533D01*
X233050Y276099D02*
X332533D01*
X233050Y275649D02*
X332533D01*
X233050Y275199D02*
X332533D01*
X233050Y274749D02*
X332533D01*
X233050Y274299D02*
X332533D01*
X233050Y273849D02*
X332533D01*
X233050Y273399D02*
X332533D01*
X233050Y272949D02*
X332533D01*
X233050Y272499D02*
X332533D01*
X244533Y272049D02*
X332533D01*
X245233Y271599D02*
X332533D01*
X246250Y271149D02*
X332533D01*
X270717Y270699D02*
X332533D01*
X293013Y270249D02*
X332533D01*
X293740Y269799D02*
X332533D01*
X294199Y269349D02*
X332533D01*
X294649Y268899D02*
X332533D01*
X295099Y268449D02*
X332533D01*
X295549Y267999D02*
X332533D01*
X295999Y267549D02*
X332533D01*
X296386Y267099D02*
X332533D01*
X296634Y266649D02*
X332533D01*
X296782Y266199D02*
X332533D01*
X296846Y265749D02*
X332533D01*
X296850Y265299D02*
X332533D01*
X217909Y348549D02*
X332425D01*
X297641Y262149D02*
X332033D01*
X218575Y348999D02*
X331834D01*
X219045Y349449D02*
X331237D01*
X297578Y261699D02*
X331133D01*
X219495Y349899D02*
X330632D01*
X297452Y261249D02*
X330591D01*
X306650Y222549D02*
X330424D01*
X297256Y260799D02*
X330141D01*
X219945Y350349D02*
X330020D01*
X296974Y260349D02*
X329691D01*
X220385Y350799D02*
X329401D01*
X306650Y222999D02*
X329325D01*
X296576Y259899D02*
X329241D01*
X295987Y259449D02*
X328791D01*
X220716Y351249D02*
X328774D01*
X306650Y223449D02*
X328730D01*
X294778Y258999D02*
X328341D01*
X306650Y223899D02*
X328276D01*
X220945Y351699D02*
X328139D01*
X252050Y258549D02*
X327891D01*
X306650Y224349D02*
X327826D01*
X221094Y352149D02*
X327496D01*
X252050Y258099D02*
X327441D01*
X306650Y224799D02*
X327376D01*
X252050Y257649D02*
X326991D01*
X306650Y225249D02*
X326926D01*
X221174Y352599D02*
X326844D01*
X310493Y257199D02*
X326541D01*
X306650Y225699D02*
X326476D01*
X221192Y353049D02*
X326184D01*
X311285Y256749D02*
X326091D01*
X306650Y226149D02*
X326026D01*
X311773Y256299D02*
X325641D01*
X306650Y226599D02*
X325576D01*
X221192Y353499D02*
X325516D01*
X312113Y255849D02*
X325191D01*
X306650Y227049D02*
X325126D01*
X221192Y353949D02*
X324838D01*
X312354Y255399D02*
X324741D01*
X306650Y227499D02*
X324676D01*
X312517Y254949D02*
X324291D01*
X306650Y227949D02*
X324226D01*
X221201Y354399D02*
X324152D01*
X312614Y254499D02*
X323841D01*
X306650Y228399D02*
X323776D01*
X274517Y354849D02*
X323455D01*
X312650Y254049D02*
X323391D01*
X306650Y228849D02*
X323326D01*
X312627Y253599D02*
X322941D01*
X306650Y229299D02*
X322876D01*
X275101Y355299D02*
X322749D01*
X312543Y253149D02*
X322491D01*
X306650Y229749D02*
X322426D01*
X312395Y252699D02*
X322041D01*
X275426Y355749D02*
X322033D01*
X306650Y230199D02*
X321976D01*
X312172Y252249D02*
X321591D01*
X306650Y230649D02*
X321526D01*
X275613Y356199D02*
X321307D01*
X311869Y251799D02*
X321146D01*
X306650Y231099D02*
X321125D01*
X306650Y231549D02*
X320832D01*
X311850Y251349D02*
X320793D01*
X306650Y231999D02*
X320620D01*
X275696Y356649D02*
X320570D01*
X311850Y250899D02*
X320536D01*
X306650Y232449D02*
X320476D01*
X306650Y232899D02*
X320391D01*
X312113Y250449D02*
X320353D01*
X306650Y233349D02*
X320292D01*
X312354Y249999D02*
X320234D01*
X312517Y249549D02*
X320083D01*
X275704Y357099D02*
X319822D01*
X275704Y357549D02*
X319062D01*
X275704Y357999D02*
X318291D01*
X275704Y358449D02*
X317507D01*
X275704Y358899D02*
X316711D01*
X275704Y359349D02*
X315901D01*
X275704Y359799D02*
X315078D01*
X275704Y360249D02*
X314241D01*
X306650Y241449D02*
X313695D01*
X306650Y233799D02*
X313567D01*
X312614Y249099D02*
X313554D01*
X275704Y360699D02*
X313388D01*
X306650Y241899D02*
X313291D01*
X306650Y240999D02*
X313282D01*
X306650Y234249D02*
X313088D01*
X312708Y248649D02*
X313080D01*
X306650Y242349D02*
X312930D01*
X306650Y240549D02*
X312925D01*
X306650Y234699D02*
X312810D01*
X306650Y242799D02*
X312720D01*
X306650Y240099D02*
X312717D01*
X306650Y235149D02*
X312657D01*
X306650Y243249D02*
X312618D01*
X306650Y239649D02*
X312616D01*
X306650Y235599D02*
X312602D01*
X311856Y246399D02*
X312601D01*
X311408Y245949D02*
X312601D01*
X310711Y245499D02*
X312601D01*
X306213Y245049D02*
X312601D01*
X306451Y244599D02*
X312601D01*
X306591Y244149D02*
X312601D01*
X306648Y243699D02*
X312601D01*
X306650Y239199D02*
X312601D01*
X306650Y238749D02*
X312601D01*
X306650Y238299D02*
X312601D01*
X306650Y237849D02*
X312601D01*
X306650Y237399D02*
X312601D01*
X306650Y236949D02*
X312601D01*
X306650Y236499D02*
X312601D01*
X306650Y236049D02*
X312601D01*
X275704Y361149D02*
X312521D01*
X312186Y246849D02*
X312516D01*
X275704Y361599D02*
X311637D01*
X275704Y362049D02*
X310736D01*
X275704Y362499D02*
X309818D01*
X275704Y362949D02*
X308881D01*
X275704Y363399D02*
X307925D01*
X252050Y257199D02*
X307907D01*
X305839Y245499D02*
X307689D01*
X252050Y256749D02*
X307115D01*
X305389Y245949D02*
X306992D01*
X275704Y363849D02*
X306948D01*
X252050Y256299D02*
X306627D01*
X305188Y251349D02*
X306550D01*
X305070Y250899D02*
X306550D01*
X304939Y246399D02*
X306544D01*
X305244Y251799D02*
X306531D01*
X252050Y255849D02*
X306287D01*
X304882Y250449D02*
X306287D01*
X305241Y252249D02*
X306228D01*
X304489Y246849D02*
X306228D01*
X302393Y255399D02*
X306046D01*
X304610Y249999D02*
X306046D01*
X305179Y252699D02*
X306005D01*
X304039Y247299D02*
X306005D01*
X275704Y364299D02*
X305950D01*
X303591Y254949D02*
X305883D01*
X304228Y249549D02*
X305883D01*
X305053Y253149D02*
X305857D01*
X303409Y247749D02*
X305857D01*
X304179Y254499D02*
X305786D01*
X303667Y249099D02*
X305786D01*
X304857Y253599D02*
X305773D01*
X303117Y248199D02*
X305773D01*
X304576Y254049D02*
X305750D01*
X302960Y248649D02*
X305750D01*
X275703Y364749D02*
X304929D01*
X275649Y365199D02*
X303884D01*
X275496Y365649D02*
X302813D01*
X275220Y366099D02*
X301715D01*
X293393Y255399D02*
X301207D01*
X274744Y366549D02*
X300588D01*
X294591Y254949D02*
X300009D01*
X217960Y366999D02*
X299429D01*
X217850Y367449D02*
X298237D01*
X217850Y367899D02*
X297008D01*
X217850Y368349D02*
X295740D01*
X217850Y368799D02*
X294429D01*
X252050Y258999D02*
X293622D01*
X217850Y369249D02*
X293070D01*
X252038Y259449D02*
X292413D01*
X252050Y255399D02*
X292207D01*
X251956Y259899D02*
X291824D01*
X217850Y369699D02*
X291660D01*
X251788Y260349D02*
X291426D01*
X270486Y264399D02*
X291387D01*
X271282Y264849D02*
X291204D01*
X251513Y260799D02*
X291144D01*
X248399Y263949D02*
X291117D01*
X289166Y254949D02*
X291009D01*
X251099Y261249D02*
X290948D01*
X248849Y263499D02*
X290930D01*
X250649Y261699D02*
X290822D01*
X249299Y263049D02*
X290812D01*
X250199Y262149D02*
X290759D01*
X249749Y262599D02*
X290756D01*
X289779Y254499D02*
X290421D01*
X217850Y370149D02*
X290192D01*
X217850Y370599D02*
X288658D01*
X217895Y371049D02*
X287052D01*
X219364Y371499D02*
X285361D01*
X284366Y254949D02*
X285154D01*
X221153Y371949D02*
X283572D01*
X223058Y372399D02*
X281667D01*
X279376Y254949D02*
X280354D01*
X225103Y372849D02*
X279622D01*
X227322Y373299D02*
X277402D01*
X274635Y254949D02*
X275631D01*
X229768Y373749D02*
X274957D01*
X232522Y374199D02*
X272202D01*
X269966Y254949D02*
X270787D01*
X235739Y374649D02*
X268985D01*
X247949Y264399D02*
X267914D01*
X246250Y270699D02*
X267683D01*
X247499Y264849D02*
X267118D01*
X246250Y270249D02*
X266989D01*
X247049Y265299D02*
X266630D01*
X246250Y269799D02*
X266541D01*
X246599Y265749D02*
X266289D01*
X246250Y269349D02*
X266226D01*
X246250Y266199D02*
X266047D01*
X246250Y268899D02*
X266004D01*
X252050Y254949D02*
X265954D01*
X246250Y266649D02*
X265884D01*
X246250Y268449D02*
X265856D01*
X246250Y267099D02*
X265787D01*
X246250Y267999D02*
X265773D01*
X246250Y267549D02*
X265750D01*
X252050Y254499D02*
X265341D01*
X239767Y375099D02*
X264957D01*
X252050Y254049D02*
X264886D01*
X252050Y253599D02*
X264252D01*
X252038Y253149D02*
X263801D01*
X251954Y252699D02*
X263366D01*
X251784Y252249D02*
X263063D01*
X251507Y251799D02*
X262873D01*
X251090Y251349D02*
X262773D01*
X250640Y250899D02*
X262750D01*
X250190Y250449D02*
X262750D01*
X249766Y249999D02*
X262750D01*
X245996Y375549D02*
X258728D01*
X171340Y249049D02*
X174291D01*
X171145Y249499D02*
X173954D01*
X170930Y249949D02*
X173504D01*
X171515Y248599D02*
X173307D01*
X170693Y250399D02*
X173054D01*
X170432Y250849D02*
X172604D01*
X171671Y248149D02*
X172515D01*
X170147Y251299D02*
X172154D01*
X169835Y251749D02*
X171704D01*
X169494Y252199D02*
X171254D01*
X169121Y252649D02*
X170804D01*
X168711Y253099D02*
X170354D01*
X168260Y253549D02*
X169904D01*
X167762Y253999D02*
X169454D01*
X167207Y254449D02*
X169004D01*
X166583Y254899D02*
X168554D01*
X165869Y255349D02*
X168104D01*
X165033Y255799D02*
X167654D01*
X164010Y256249D02*
X167204D01*
X162635Y256699D02*
X166754D01*
X134145Y257149D02*
X166304D01*
X134595Y257599D02*
X165951D01*
X135045Y258049D02*
X165727D01*
X135495Y258499D02*
X165598D01*
X135945Y258949D02*
X165550D01*
X158579Y271099D02*
X165550D01*
X158633Y270649D02*
X165550D01*
X158902Y270199D02*
X165550D01*
X159050Y269749D02*
X165550D01*
X159100Y269299D02*
X165550D01*
X159100Y268849D02*
X165550D01*
X159100Y268399D02*
X165550D01*
X159100Y267949D02*
X165550D01*
X159100Y267499D02*
X165550D01*
X159100Y267049D02*
X165550D01*
X159100Y266599D02*
X165550D01*
X159100Y266149D02*
X165550D01*
X159100Y265699D02*
X165550D01*
X159100Y265249D02*
X165550D01*
X159100Y264799D02*
X165550D01*
X159100Y264349D02*
X165550D01*
X159100Y263899D02*
X165550D01*
X159100Y263449D02*
X165550D01*
X159100Y262999D02*
X165550D01*
X159100Y262549D02*
X165550D01*
X159100Y262099D02*
X165550D01*
X159100Y261649D02*
X165550D01*
X159091Y261199D02*
X165550D01*
X159004Y260749D02*
X165550D01*
X158812Y260299D02*
X165550D01*
X158479Y259849D02*
X165550D01*
X157876Y259399D02*
X165550D01*
X133695Y256699D02*
X155908D01*
X133245Y256249D02*
X154533D01*
X132795Y255799D02*
X153510D01*
X132345Y255349D02*
X152674D01*
X131895Y254899D02*
X151961D01*
X131445Y254449D02*
X151336D01*
X143015Y233749D02*
X151227D01*
X130995Y253999D02*
X150781D01*
X142986Y234199D02*
X150771D01*
X130545Y253549D02*
X150283D01*
X142864Y234649D02*
X150274D01*
X130095Y253099D02*
X149832D01*
X142747Y235099D02*
X149824D01*
X129645Y252649D02*
X149423D01*
X142929Y235549D02*
X149415D01*
X129195Y252199D02*
X149049D01*
X143009Y235999D02*
X149042D01*
X128745Y251749D02*
X148708D01*
X143015Y236449D02*
X148702D01*
X128454Y251299D02*
X148396D01*
X143015Y236899D02*
X148390D01*
X128454Y250849D02*
X148111D01*
X143015Y237349D02*
X148106D01*
X128454Y250399D02*
X147851D01*
X143015Y237799D02*
X147846D01*
X128454Y249949D02*
X147614D01*
X143014Y238249D02*
X147609D01*
X128454Y249499D02*
X147398D01*
X142952Y238699D02*
X147395D01*
X128454Y249049D02*
X147204D01*
X142790Y239149D02*
X147200D01*
X128454Y248599D02*
X147029D01*
X142501Y239599D02*
X147026D01*
X128454Y248149D02*
X146872D01*
X142000Y240049D02*
X146870D01*
X128454Y247699D02*
X146734D01*
X131833Y240499D02*
X146732D01*
X128454Y247249D02*
X146613D01*
X128474Y240949D02*
X146611D01*
X128454Y246799D02*
X146510D01*
X128454Y241399D02*
X146508D01*
X128454Y246349D02*
X146423D01*
X128454Y241849D02*
X146421D01*
X128454Y245899D02*
X146352D01*
X128454Y242299D02*
X146351D01*
X128454Y245449D02*
X146297D01*
X128454Y242749D02*
X146296D01*
X128454Y244999D02*
X146258D01*
X128454Y243199D02*
X146257D01*
X128454Y244549D02*
X146234D01*
X128454Y243649D02*
X146234D01*
X128454Y244099D02*
X146226D01*
X136395Y259399D02*
X144014D01*
X136845Y259849D02*
X143411D01*
X137295Y260299D02*
X143078D01*
X137745Y260749D02*
X142886D01*
X138195Y261199D02*
X142799D01*
X141795Y264799D02*
X142789D01*
X141345Y264349D02*
X142789D01*
X140895Y263899D02*
X142789D01*
X140445Y263449D02*
X142789D01*
X139995Y262999D02*
X142789D01*
X139545Y262549D02*
X142789D01*
X139095Y262099D02*
X142789D01*
X138645Y261649D02*
X142789D01*
X142245Y265249D02*
X142782D01*
X144250Y289999D02*
X154814D01*
X144250Y289549D02*
X154540D01*
X144352Y289099D02*
X154328D01*
X144250Y271999D02*
X154704D01*
X144315Y271549D02*
X154669D01*
X144250Y272449D02*
X154422D01*
X144250Y272899D02*
X154265D01*
X144250Y276949D02*
X154238D01*
X144250Y280999D02*
X154225D01*
X144250Y275149D02*
X154218D01*
X144250Y278749D02*
X154218D01*
X144250Y279199D02*
X154210D01*
X144250Y274699D02*
X154209D01*
X144250Y273349D02*
X154207D01*
X144250Y280549D02*
X154207D01*
X144255Y282349D02*
X154207D01*
X144250Y281899D02*
X154207D01*
X144250Y281449D02*
X154207D01*
X144250Y280099D02*
X154207D01*
X144250Y279649D02*
X154207D01*
X144250Y278299D02*
X154207D01*
X144250Y277849D02*
X154207D01*
X144250Y277399D02*
X154207D01*
X144250Y276499D02*
X154207D01*
X144250Y276049D02*
X154207D01*
X144250Y275599D02*
X154207D01*
X144250Y274249D02*
X154207D01*
X144250Y273799D02*
X154207D01*
X212905Y369649D02*
X214750D01*
X211501Y369199D02*
X214750D01*
X210148Y368749D02*
X214750D01*
X208842Y368299D02*
X214750D01*
X207578Y367849D02*
X214750D01*
X206353Y367399D02*
X214750D01*
X214367Y370099D02*
X214617D01*
X205165Y366949D02*
X209499D01*
X204010Y366499D02*
X208315D01*
X203739Y354799D02*
X208121D01*
X203650Y355249D02*
X208075D01*
X202886Y366049D02*
X207869D01*
X203650Y355699D02*
X207730D01*
X201791Y365599D02*
X207609D01*
X203650Y356149D02*
X207530D01*
X200723Y365149D02*
X207468D01*
X203650Y356599D02*
X207436D01*
X199681Y364699D02*
X207424D01*
X198662Y364249D02*
X207424D01*
X197666Y363799D02*
X207424D01*
X196692Y363349D02*
X207424D01*
X195738Y362899D02*
X207424D01*
X194803Y362449D02*
X207424D01*
X193887Y361999D02*
X207424D01*
X192988Y361549D02*
X207424D01*
X192107Y361099D02*
X207424D01*
X191241Y360649D02*
X207424D01*
X190390Y360199D02*
X207424D01*
X202433Y359749D02*
X207424D01*
X203032Y359299D02*
X207424D01*
X203364Y358849D02*
X207424D01*
X203554Y358399D02*
X207424D01*
X203641Y357949D02*
X207424D01*
X203650Y357499D02*
X207424D01*
X203650Y357049D02*
X207424D01*
X197633Y359749D02*
X198367D01*
X189554D02*
X193567D01*
X188733Y359299D02*
X192968D01*
X179810Y353899D02*
X192663D01*
X187925Y358849D02*
X192636D01*
X180496Y354349D02*
X192538D01*
X179134Y353449D02*
X192461D01*
X187130Y358399D02*
X192446D01*
X181191Y354799D02*
X192396D01*
X178466Y352999D02*
X192364D01*
X186347Y357949D02*
X192359D01*
X185577Y357499D02*
X192350D01*
X184819Y357049D02*
X192350D01*
X184072Y356599D02*
X192350D01*
X183336Y356149D02*
X192350D01*
X182611Y355699D02*
X192350D01*
X181896Y355249D02*
X192350D01*
X177807Y352549D02*
X192350D01*
X177157Y352099D02*
X192350D01*
X176515Y351649D02*
X192350D01*
X175881Y351199D02*
X192350D01*
X175254Y350749D02*
X192350D01*
X174636Y350299D02*
X192350D01*
X174025Y349849D02*
X192350D01*
X173421Y349399D02*
X192350D01*
X172824Y348949D02*
X192350D01*
X172234Y348499D02*
X192350D01*
X171651Y348049D02*
X192350D01*
X171075Y347599D02*
X192350D01*
X170505Y347149D02*
X189343D01*
X169942Y346699D02*
X188337D01*
X169385Y346249D02*
X187800D01*
X168834Y345799D02*
X187350D01*
X168289Y345349D02*
X186900D01*
X167750Y344899D02*
X186450D01*
X167217Y344449D02*
X186001D01*
X166689Y343999D02*
X185641D01*
X166167Y343549D02*
X185391D01*
X165651Y343099D02*
X185225D01*
X165139Y342649D02*
X185129D01*
X164634Y342199D02*
X185098D01*
X164133Y341749D02*
X185098D01*
X163637Y341299D02*
X185098D01*
X163147Y340849D02*
X185098D01*
X162661Y340399D02*
X185098D01*
X162181Y339949D02*
X185098D01*
X161705Y339499D02*
X185098D01*
X161234Y339049D02*
X185098D01*
X160767Y338599D02*
X185098D01*
X160305Y338149D02*
X185098D01*
X159847Y337699D02*
X185098D01*
X159394Y337249D02*
X185098D01*
X158946Y336799D02*
X185098D01*
X158501Y336349D02*
X185098D01*
X158061Y335899D02*
X185098D01*
X157625Y335449D02*
X185098D01*
X157193Y334999D02*
X185098D01*
X156765Y334549D02*
X185098D01*
X156342Y334099D02*
X185098D01*
X155922Y333649D02*
X185098D01*
X155506Y333199D02*
X185098D01*
X155094Y332749D02*
X185098D01*
X154685Y332299D02*
X185098D01*
X154281Y331849D02*
X185098D01*
X153880Y331399D02*
X185098D01*
X153483Y330949D02*
X185098D01*
X153090Y330499D02*
X185098D01*
X152700Y330049D02*
X185098D01*
X152313Y329599D02*
X185098D01*
X151931Y329149D02*
X185098D01*
X151551Y328699D02*
X185098D01*
X151175Y328249D02*
X185098D01*
X150803Y327799D02*
X185098D01*
X150433Y327349D02*
X185098D01*
X150068Y326899D02*
X185098D01*
X149705Y326449D02*
X185098D01*
X149346Y325999D02*
X185098D01*
X148989Y325549D02*
X185098D01*
X148636Y325099D02*
X185098D01*
X148287Y324649D02*
X185098D01*
X147940Y324199D02*
X185098D01*
X147596Y323749D02*
X185098D01*
X147255Y323299D02*
X185098D01*
X154246Y322849D02*
X185098D01*
X155319Y322399D02*
X185098D01*
X155997Y321949D02*
X185098D01*
X156502Y321499D02*
X185098D01*
X156898Y321049D02*
X185098D01*
X157214Y320599D02*
X185098D01*
X157466Y320149D02*
X185098D01*
X157664Y319699D02*
X185098D01*
X157814Y319249D02*
X185098D01*
X157921Y318799D02*
X185098D01*
X157987Y318349D02*
X185098D01*
X158014Y317899D02*
X185098D01*
X158002Y317449D02*
X185098D01*
X157951Y316999D02*
X185098D01*
X157860Y316549D02*
X185098D01*
X157727Y316099D02*
X185098D01*
X157548Y315649D02*
X185098D01*
X157318Y315199D02*
X185098D01*
X157028Y314749D02*
X185098D01*
X156666Y314299D02*
X185098D01*
X156208Y313849D02*
X185098D01*
X155608Y313399D02*
X185098D01*
X154742Y312949D02*
X185098D01*
X139927Y312499D02*
X185098D01*
X139655Y312049D02*
X185098D01*
X139385Y311599D02*
X185098D01*
X146918Y322849D02*
X151283D01*
X140202Y312949D02*
X150787D01*
X146583Y322399D02*
X150210D01*
X140480Y313399D02*
X149921D01*
X146252Y321949D02*
X149532D01*
X140760Y313849D02*
X149321D01*
X139117Y311149D02*
X149311D01*
X145923Y321499D02*
X149027D01*
X141042Y314299D02*
X148863D01*
X145597Y321049D02*
X148631D01*
X141327Y314749D02*
X148501D01*
X145274Y320599D02*
X148315D01*
X138852Y310699D02*
X148305D01*
X141615Y315199D02*
X148211D01*
X144954Y320149D02*
X148063D01*
X141905Y315649D02*
X147981D01*
X144637Y319699D02*
X147865D01*
X142198Y316099D02*
X147802D01*
X138589Y310249D02*
X147768D01*
X144323Y319249D02*
X147715D01*
X142494Y316549D02*
X147669D01*
X144011Y318799D02*
X147608D01*
X142792Y316999D02*
X147578D01*
X143702Y318349D02*
X147542D01*
X143092Y317449D02*
X147527D01*
X143396Y317899D02*
X147515D01*
X138328Y309799D02*
X147318D01*
X138070Y309349D02*
X146868D01*
X137815Y308899D02*
X146418D01*
X137561Y308449D02*
X145968D01*
X137310Y307999D02*
X145518D01*
X137061Y307549D02*
X145068D01*
X136815Y307099D02*
X144618D01*
X136571Y306649D02*
X144168D01*
X136329Y306199D02*
X143718D01*
X136089Y305749D02*
X143268D01*
X135851Y305299D02*
X142818D01*
X135616Y304849D02*
X142368D01*
X135383Y304399D02*
X141918D01*
X135152Y303949D02*
X141468D01*
X134923Y303499D02*
X141018D01*
X134697Y303049D02*
X140568D01*
X134472Y302599D02*
X140118D01*
X134250Y302149D02*
X139668D01*
X134030Y301699D02*
X139218D01*
X133812Y301249D02*
X138768D01*
X133596Y300799D02*
X138374D01*
X133382Y300349D02*
X138099D01*
X133171Y299899D02*
X137912D01*
X132961Y299449D02*
X137799D01*
X132753Y298999D02*
X137752D01*
X132548Y298549D02*
X137750D01*
X132344Y298099D02*
X137750D01*
X132143Y297649D02*
X137750D01*
X131943Y297199D02*
X137750D01*
X131746Y296749D02*
X137750D01*
X131551Y296299D02*
X137750D01*
X131357Y295849D02*
X137750D01*
X131166Y295399D02*
X137750D01*
X130976Y294949D02*
X137750D01*
X130789Y294499D02*
X137750D01*
X130603Y294049D02*
X137750D01*
X130419Y293599D02*
X137750D01*
X130238Y293149D02*
X137750D01*
X130058Y292699D02*
X137750D01*
X129880Y292249D02*
X137750D01*
X129704Y291799D02*
X137750D01*
X129530Y291349D02*
X137750D01*
X129358Y290899D02*
X137750D01*
X129187Y290449D02*
X137750D01*
X129019Y289999D02*
X137750D01*
X128853Y289549D02*
X137750D01*
X128688Y289099D02*
X137750D01*
X128525Y288649D02*
X137750D01*
X128364Y288199D02*
X137750D01*
X128205Y287749D02*
X137750D01*
X128048Y287299D02*
X137750D01*
X127892Y286849D02*
X137750D01*
X127738Y286399D02*
X137750D01*
X127587Y285949D02*
X137750D01*
X127437Y285499D02*
X137750D01*
X127288Y285049D02*
X137750D01*
X127142Y284599D02*
X137750D01*
X126997Y284149D02*
X137750D01*
X126854Y283699D02*
X137750D01*
X126713Y283249D02*
X137750D01*
X126574Y282799D02*
X137750D01*
X126436Y282349D02*
X137750D01*
X126300Y281899D02*
X137750D01*
X126166Y281449D02*
X137750D01*
X126034Y280999D02*
X137750D01*
X125903Y280549D02*
X137750D01*
X125775Y280099D02*
X137750D01*
X125647Y279649D02*
X137750D01*
X125522Y279199D02*
X137750D01*
X125398Y278749D02*
X137750D01*
X125276Y278299D02*
X137750D01*
X125156Y277849D02*
X137750D01*
X125038Y277399D02*
X137750D01*
X124921Y276949D02*
X137750D01*
X124806Y276499D02*
X137750D01*
X124692Y276049D02*
X137750D01*
X124580Y275599D02*
X137750D01*
X124470Y275149D02*
X137750D01*
X124362Y274699D02*
X137750D01*
X124255Y274249D02*
X137750D01*
X124150Y273799D02*
X137750D01*
X124046Y273349D02*
X137750D01*
X123945Y272899D02*
X137750D01*
X123845Y272449D02*
X137750D01*
X123746Y271999D02*
X137750D01*
X123649Y271549D02*
X137750D01*
X123554Y271099D02*
X137750D01*
X123461Y270649D02*
X137750D01*
X123369Y270199D02*
X137750D01*
X123279Y269749D02*
X137552D01*
X123190Y269299D02*
X137102D01*
X123103Y268849D02*
X136652D01*
X123018Y268399D02*
X136202D01*
X122934Y267949D02*
X135752D01*
X122852Y267499D02*
X135302D01*
X122771Y267049D02*
X134852D01*
X122692Y266599D02*
X134402D01*
X122615Y266149D02*
X133952D01*
X122539Y265699D02*
X133502D01*
X122465Y265249D02*
X133052D01*
X122393Y264799D02*
X132602D01*
X122322Y264349D02*
X132152D01*
X122253Y263899D02*
X131702D01*
X122185Y263449D02*
X131252D01*
X122119Y262999D02*
X130802D01*
X122054Y262549D02*
X130352D01*
X121991Y262099D02*
X129902D01*
X121930Y261649D02*
X129452D01*
X121870Y261199D02*
X129002D01*
X121812Y260749D02*
X128552D01*
X121755Y260299D02*
X128102D01*
X121700Y259849D02*
X127652D01*
X121647Y259399D02*
X127202D01*
X121595Y258949D02*
X126752D01*
X121545Y258499D02*
X126302D01*
X121496Y258049D02*
X125852D01*
X121449Y257599D02*
X125402D01*
X121403Y257149D02*
X124952D01*
X121359Y256699D02*
X124502D01*
X121316Y256249D02*
X124052D01*
X121275Y255799D02*
X123602D01*
X121236Y255349D02*
X123152D01*
X121198Y254899D02*
X122719D01*
X121162Y254449D02*
X122401D01*
X121127Y253999D02*
X122182D01*
X121094Y253549D02*
X122041D01*
X121062Y253099D02*
X121968D01*
X121032Y252649D02*
X121954D01*
X121004Y252199D02*
X121954D01*
X120977Y251749D02*
X121954D01*
X120951Y251299D02*
X121954D01*
X120927Y250849D02*
X121954D01*
X120905Y250399D02*
X121954D01*
X120884Y249949D02*
X121954D01*
X120865Y249499D02*
X121954D01*
X120847Y249049D02*
X121954D01*
X120831Y248599D02*
X121954D01*
X120816Y248149D02*
X121954D01*
X120803Y247699D02*
X121954D01*
X120792Y247249D02*
X121954D01*
X120782Y246799D02*
X121954D01*
X120773Y246349D02*
X121954D01*
X120766Y245899D02*
X121954D01*
X120761Y245449D02*
X121954D01*
X120757Y244999D02*
X121954D01*
X120755Y244549D02*
X121954D01*
X120754Y244099D02*
X121954D01*
X120755Y243649D02*
X121954D01*
X120757Y243199D02*
X121954D01*
X120761Y242749D02*
X121954D01*
X120766Y242299D02*
X121954D01*
X120773Y241849D02*
X121954D01*
X120782Y241399D02*
X121954D01*
X120792Y240949D02*
X121954D01*
X120803Y240499D02*
X121954D01*
X120816Y240049D02*
X121954D01*
X120831Y239599D02*
X121954D01*
X121062Y235099D02*
X121882D01*
X120847Y239149D02*
X121856D01*
X121093Y234649D02*
X121816D01*
X121032Y235549D02*
X121786D01*
X120865Y238699D02*
X121779D01*
X120884Y238249D02*
X121773D01*
X120905Y237799D02*
X121773D01*
X120927Y237349D02*
X121773D01*
X120951Y236899D02*
X121773D01*
X120976Y236449D02*
X121773D01*
X121003Y235999D02*
X121773D01*
X121127Y234199D02*
X121773D01*
X121161Y233749D02*
X121773D01*
X121197Y233299D02*
X121773D01*
X121235Y232849D02*
X121773D01*
X121275Y232399D02*
X121772D01*
X198850Y347599D02*
X214750D01*
X198850Y347149D02*
X214750D01*
X198850Y346699D02*
X214750D01*
X198850Y346249D02*
X214750D01*
X198850Y345799D02*
X214750D01*
X198819Y345349D02*
X214750D01*
X198723Y344899D02*
X214750D01*
X198556Y344449D02*
X214750D01*
X198305Y343999D02*
X214750D01*
X197944Y343549D02*
X214750D01*
X197495Y343099D02*
X214750D01*
X197045Y342649D02*
X214750D01*
X196595Y342199D02*
X214750D01*
X196145Y341749D02*
X214750D01*
X195607Y341299D02*
X214750D01*
X194595Y340849D02*
X214750D01*
X191598Y340399D02*
X214750D01*
X191598Y339949D02*
X214750D01*
X191598Y339499D02*
X214750D01*
X191598Y339049D02*
X214750D01*
X191598Y338599D02*
X214750D01*
X191598Y338149D02*
X214750D01*
X191598Y337699D02*
X214750D01*
X191598Y337249D02*
X214750D01*
X191598Y336799D02*
X214750D01*
X191598Y336349D02*
X214750D01*
X191598Y335899D02*
X214750D01*
X191598Y335449D02*
X214750D01*
X191598Y334999D02*
X214750D01*
X191598Y334549D02*
X214750D01*
X191598Y334099D02*
X214750D01*
X191598Y333649D02*
X214750D01*
X191598Y333199D02*
X214750D01*
X191598Y332749D02*
X214750D01*
X191598Y332299D02*
X214750D01*
X191598Y331849D02*
X214750D01*
X191598Y331399D02*
X214750D01*
X191598Y330949D02*
X214750D01*
X191598Y330499D02*
X214750D01*
X191598Y330049D02*
X214750D01*
X191598Y329599D02*
X214750D01*
X191598Y329149D02*
X214750D01*
X191598Y328699D02*
X214750D01*
X191598Y328249D02*
X214750D01*
X191598Y327799D02*
X214750D01*
X191598Y327349D02*
X214750D01*
X191598Y326899D02*
X214750D01*
X191598Y326449D02*
X214750D01*
X191598Y325999D02*
X214750D01*
X191598Y325549D02*
X214750D01*
X191598Y325099D02*
X214750D01*
X191598Y324649D02*
X214750D01*
X191598Y324199D02*
X214750D01*
X191598Y323749D02*
X214750D01*
X191598Y323299D02*
X214750D01*
X191598Y322849D02*
X214750D01*
X191598Y322399D02*
X214750D01*
X191598Y321949D02*
X214750D01*
X191598Y321499D02*
X214750D01*
X191598Y321049D02*
X214750D01*
X191598Y320599D02*
X214750D01*
X191598Y320149D02*
X214750D01*
X191598Y319699D02*
X214750D01*
X191598Y319249D02*
X214750D01*
X191598Y318799D02*
X214750D01*
X191598Y318349D02*
X214750D01*
X191598Y317899D02*
X214750D01*
X191598Y317449D02*
X214750D01*
X191598Y316999D02*
X214750D01*
X191598Y316549D02*
X214750D01*
X191598Y316099D02*
X214750D01*
X191598Y315649D02*
X214750D01*
X191598Y315199D02*
X214750D01*
X191598Y314749D02*
X214750D01*
X191598Y314299D02*
X214750D01*
X191598Y313849D02*
X214750D01*
X191598Y313399D02*
X214750D01*
X191598Y312949D02*
X214750D01*
X191598Y312499D02*
X214750D01*
X191598Y312049D02*
X214750D01*
X191598Y311599D02*
X214750D01*
X191598Y311149D02*
X214750D01*
X191598Y310699D02*
X214750D01*
X191598Y310249D02*
X214750D01*
X191598Y309799D02*
X214750D01*
X191598Y309349D02*
X214750D01*
X191598Y308899D02*
X214750D01*
X191598Y308449D02*
X214750D01*
X191598Y307999D02*
X214750D01*
X191598Y307549D02*
X214750D01*
X191598Y307099D02*
X214750D01*
X191598Y306649D02*
X214750D01*
X191598Y306199D02*
X214750D01*
X191598Y305749D02*
X214750D01*
X191598Y305299D02*
X214750D01*
X197004Y304849D02*
X214750D01*
X198476Y304399D02*
X214750D01*
X199246Y303949D02*
X214750D01*
X199801Y303499D02*
X214750D01*
X200230Y303049D02*
X214750D01*
X200571Y302599D02*
X214750D01*
X183849Y289099D02*
X214750D01*
X183806Y288649D02*
X214750D01*
X183702Y288199D02*
X214750D01*
X183530Y287749D02*
X214750D01*
X183279Y287299D02*
X214750D01*
X183050Y286849D02*
X214750D01*
X183050Y286399D02*
X214750D01*
X183050Y285949D02*
X214750D01*
X183050Y285499D02*
X214750D01*
X183050Y285049D02*
X214750D01*
X183050Y284599D02*
X214750D01*
X183050Y284149D02*
X214750D01*
X183050Y283699D02*
X214750D01*
X183050Y283249D02*
X214750D01*
X183050Y282799D02*
X214750D01*
X183050Y282349D02*
X214750D01*
X183050Y281899D02*
X214750D01*
X183050Y281449D02*
X214750D01*
X183050Y280999D02*
X214750D01*
X183050Y280549D02*
X214750D01*
X183050Y280099D02*
X214750D01*
X209296Y279649D02*
X214750D01*
X210906Y279199D02*
X214750D01*
X211525Y278749D02*
X214750D01*
X211938Y278299D02*
X214750D01*
X212231Y277849D02*
X214750D01*
X212435Y277399D02*
X214750D01*
X212568Y276949D02*
X214750D01*
X201866Y348049D02*
X214745D01*
X200843Y302149D02*
X214732D01*
X183832Y289549D02*
X214678D01*
X212637Y276499D02*
X213989D01*
X212746Y276049D02*
X213054D01*
X183050Y279649D02*
X209104D01*
X201059Y301699D02*
X208558D01*
X183756Y289999D02*
X208426D01*
X201225Y301249D02*
X208000D01*
X183616Y290449D02*
X207930D01*
X201346Y300799D02*
X207686D01*
X183403Y290899D02*
X207645D01*
X201426Y300349D02*
X207507D01*
X183050Y279199D02*
X207494D01*
X183099Y291349D02*
X207485D01*
X201466Y299899D02*
X207429D01*
X182669Y291799D02*
X207425D01*
X201468Y299449D02*
X207424D01*
X201430Y298999D02*
X207424D01*
X201354Y298549D02*
X207424D01*
X201235Y298099D02*
X207424D01*
X201072Y297649D02*
X207424D01*
X200861Y297199D02*
X207424D01*
X200593Y296749D02*
X207424D01*
X200257Y296299D02*
X207424D01*
X199835Y295849D02*
X207424D01*
X199292Y295399D02*
X207424D01*
X198544Y294949D02*
X207424D01*
X197197Y294499D02*
X207424D01*
X159100Y294049D02*
X207424D01*
X159100Y293599D02*
X207424D01*
X159100Y293149D02*
X207424D01*
X159100Y292699D02*
X207424D01*
X182015Y292249D02*
X207424D01*
X183050Y278749D02*
X201836D01*
X183050Y278299D02*
X200944D01*
X183050Y277849D02*
X200463D01*
X183050Y277399D02*
X200013D01*
X183050Y276949D02*
X199563D01*
X183050Y276499D02*
X199128D01*
X183050Y276049D02*
X198824D01*
X183050Y275599D02*
X198635D01*
X197210Y275149D02*
X198535D01*
X197949Y274699D02*
X198503D01*
X191598Y304849D02*
X195439D01*
X189323Y294499D02*
X195247D01*
X183050Y275149D02*
X194390D01*
X191598Y304399D02*
X193968D01*
X190670Y294949D02*
X193900D01*
X183050Y274699D02*
X193651D01*
X191598Y303949D02*
X193198D01*
X183050Y274249D02*
X193184D01*
X191418Y295399D02*
X193152D01*
X183050Y273799D02*
X192856D01*
X183050Y270199D02*
X192755D01*
X183050Y269749D02*
X192683D01*
X191926Y303499D02*
X192643D01*
X183050Y270649D02*
X192626D01*
X183050Y273349D02*
X192625D01*
X191961Y295849D02*
X192608D01*
X183050Y269299D02*
X192533D01*
X183050Y271099D02*
X192470D01*
X183050Y272899D02*
X192469D01*
X183050Y268849D02*
X192462D01*
X183050Y268399D02*
X192454D01*
X183050Y267949D02*
X192454D01*
X183050Y267499D02*
X192454D01*
X183050Y267049D02*
X192454D01*
X183050Y266599D02*
X192454D01*
X183050Y266149D02*
X192454D01*
X183050Y265699D02*
X192454D01*
X183050Y265249D02*
X192454D01*
X183050Y264799D02*
X192454D01*
X183050Y264349D02*
X192454D01*
X183050Y263899D02*
X192454D01*
X183050Y271549D02*
X192380D01*
X183050Y272449D02*
X192379D01*
X183050Y271999D02*
X192350D01*
X181449Y294499D02*
X187373D01*
X182796Y294949D02*
X186026D01*
X183544Y295399D02*
X185278D01*
X184087Y295849D02*
X184734D01*
X173575Y294499D02*
X179499D01*
X174215Y292249D02*
X178785D01*
X174922Y294949D02*
X178152D01*
X174869Y291799D02*
X178131D01*
X176899Y261649D02*
X177927D01*
X176449Y262099D02*
X177798D01*
X175999Y262549D02*
X177750D01*
X175250Y286849D02*
X177750D01*
X175250Y286399D02*
X177750D01*
X175250Y285949D02*
X177750D01*
X175250Y285499D02*
X177750D01*
X175250Y285049D02*
X177750D01*
X175250Y284599D02*
X177750D01*
X175250Y284149D02*
X177750D01*
X175250Y283699D02*
X177750D01*
X175250Y283249D02*
X177750D01*
X175250Y282799D02*
X177750D01*
X175250Y282349D02*
X177750D01*
X175250Y281899D02*
X177750D01*
X175250Y281449D02*
X177750D01*
X175250Y280999D02*
X177750D01*
X175250Y280549D02*
X177750D01*
X175250Y280099D02*
X177750D01*
X175250Y279649D02*
X177750D01*
X175250Y279199D02*
X177750D01*
X175250Y278749D02*
X177750D01*
X175250Y278299D02*
X177750D01*
X175250Y277849D02*
X177750D01*
X175250Y277399D02*
X177750D01*
X175250Y276949D02*
X177750D01*
X175250Y276499D02*
X177750D01*
X175250Y276049D02*
X177750D01*
X175250Y275599D02*
X177750D01*
X175250Y275149D02*
X177750D01*
X175250Y274699D02*
X177750D01*
X175250Y274249D02*
X177750D01*
X175250Y273799D02*
X177750D01*
X175250Y273349D02*
X177750D01*
X175250Y272899D02*
X177750D01*
X175250Y272449D02*
X177750D01*
X175250Y271999D02*
X177750D01*
X175250Y271549D02*
X177750D01*
X175250Y271099D02*
X177750D01*
X175250Y270649D02*
X177750D01*
X175250Y270199D02*
X177750D01*
X175250Y269749D02*
X177750D01*
X175250Y269299D02*
X177750D01*
X175250Y268849D02*
X177750D01*
X175250Y268399D02*
X177750D01*
X175250Y267949D02*
X177750D01*
X175250Y267499D02*
X177750D01*
X175250Y267049D02*
X177750D01*
X175250Y266599D02*
X177750D01*
X175250Y266149D02*
X177750D01*
X175250Y265699D02*
X177750D01*
X175250Y265249D02*
X177750D01*
X175250Y264799D02*
X177750D01*
X175250Y264349D02*
X177750D01*
X175250Y263899D02*
X177750D01*
X175250Y263449D02*
X177750D01*
X175549Y262999D02*
X177750D01*
X175299Y291349D02*
X177701D01*
X175479Y287299D02*
X177521D01*
X175670Y295399D02*
X177404D01*
X175603Y290899D02*
X177397D01*
X175730Y287749D02*
X177270D01*
X175816Y290449D02*
X177184D01*
X175902Y288199D02*
X177098D01*
X175956Y289999D02*
X177044D01*
X176006Y288649D02*
X176994D01*
X176032Y289549D02*
X176968D01*
X176049Y289099D02*
X176951D01*
X176213Y295849D02*
X176860D01*
X159100Y294499D02*
X171624D01*
X159086Y292249D02*
X170985D01*
X158987Y291799D02*
X170331D01*
X159100Y294949D02*
X170278D01*
X151111Y304399D02*
X170221D01*
X158781Y291349D02*
X169901D01*
X168117Y290899D02*
X169597D01*
X150661Y303949D02*
X169575D01*
X159100Y295399D02*
X169530D01*
X168811Y290449D02*
X169384D01*
X150211Y303499D02*
X169021D01*
X159100Y295849D02*
X168986D01*
X149761Y303049D02*
X168592D01*
X159100Y296299D02*
X168565D01*
X157212Y302599D02*
X168251D01*
X159100Y296749D02*
X168229D01*
X158239Y302149D02*
X167979D01*
X159100Y297199D02*
X167961D01*
X158672Y301699D02*
X167763D01*
X159100Y297649D02*
X167749D01*
X158925Y301249D02*
X167597D01*
X159100Y298099D02*
X167587D01*
X159061Y300799D02*
X167475D01*
X159100Y298549D02*
X167468D01*
X159100Y300349D02*
X167396D01*
X159100Y298999D02*
X167391D01*
X159100Y299899D02*
X167355D01*
X159100Y299449D02*
X167354D01*
X158494Y290899D02*
X165083D01*
X201258Y259849D02*
X226393D01*
X193710Y227899D02*
X226329D01*
X226032Y227449D02*
X226297D01*
X193792Y241849D02*
X226248D01*
X193792Y257599D02*
X226248D01*
X193796Y247699D02*
X226243D01*
X193796Y231949D02*
X226243D01*
X193800Y235999D02*
X226239D01*
X193801Y251749D02*
X226238D01*
X193812Y253549D02*
X226228D01*
X193812Y237799D02*
X226227D01*
X193818Y230149D02*
X226221D01*
X193819Y245899D02*
X226221D01*
X200804Y259399D02*
X226210D01*
X193830Y243649D02*
X226209D01*
X193836Y240049D02*
X226203D01*
X193837Y255799D02*
X226202D01*
X193847Y249499D02*
X226193D01*
X193847Y233749D02*
X226192D01*
X193852Y234199D02*
X226187D01*
X193853Y249949D02*
X226187D01*
X193862Y255349D02*
X226177D01*
X193862Y239599D02*
X226177D01*
X193867Y228349D02*
X226172D01*
X193868Y244099D02*
X226172D01*
X193876Y245449D02*
X226163D01*
X193877Y229699D02*
X226162D01*
X193881Y238249D02*
X226158D01*
X193881Y253999D02*
X226158D01*
X193889Y251299D02*
X226150D01*
X193890Y235549D02*
X226150D01*
X193894Y232399D02*
X226146D01*
X193894Y248149D02*
X226145D01*
X193901Y257149D02*
X226138D01*
X193901Y241399D02*
X226138D01*
X193905Y242299D02*
X226134D01*
X193929Y258049D02*
X226134D01*
X193912Y247249D02*
X226128D01*
X193912Y231499D02*
X226127D01*
X193915Y236449D02*
X226124D01*
X193915Y252199D02*
X226124D01*
X193921Y253099D02*
X226118D01*
X193921Y237349D02*
X226118D01*
X193924Y230599D02*
X226115D01*
X193924Y246349D02*
X226115D01*
X200354Y258949D02*
X226110D01*
X193929Y243199D02*
X226110D01*
X193932Y240499D02*
X226107D01*
X193932Y256249D02*
X226107D01*
X193936Y249049D02*
X226103D01*
X193936Y233299D02*
X226103D01*
X193938Y234649D02*
X226101D01*
X193939Y250399D02*
X226101D01*
X193942Y254899D02*
X226097D01*
X193942Y239149D02*
X226097D01*
X193944Y228799D02*
X226095D01*
X193944Y244549D02*
X226095D01*
X193947Y244999D02*
X226092D01*
X193947Y229249D02*
X226092D01*
X193948Y238699D02*
X226091D01*
X193948Y254449D02*
X226091D01*
X193950Y250849D02*
X226089D01*
X193951Y235099D02*
X226089D01*
X193951Y232849D02*
X226088D01*
X193952Y248599D02*
X226088D01*
X193953Y256699D02*
X226086D01*
X193953Y240949D02*
X226086D01*
X193954Y242749D02*
X226086D01*
X199772Y258499D02*
X226086D01*
X193954Y246799D02*
X226085D01*
X193954Y231049D02*
X226085D01*
X193955Y236899D02*
X226085D01*
X193955Y252649D02*
X226085D01*
X193742Y227449D02*
X194007D01*
X188367Y213049D02*
X202188D01*
X188250Y212599D02*
X202188D01*
X188250Y212149D02*
X202188D01*
X188250Y211699D02*
X202188D01*
X188250Y211249D02*
X202188D01*
X188250Y210799D02*
X202188D01*
X188307Y210349D02*
X202188D01*
X189352Y209899D02*
X202188D01*
X189946Y209449D02*
X202188D01*
X190398Y208999D02*
X202188D01*
X190848Y208549D02*
X202188D01*
X191298Y208099D02*
X202188D01*
X191748Y207649D02*
X202188D01*
X192198Y207199D02*
X202188D01*
X192642Y206749D02*
X202188D01*
X192985Y206299D02*
X202188D01*
X193223Y205849D02*
X202188D01*
X193379Y205399D02*
X202188D01*
X188437Y213499D02*
X202188D01*
X201665Y204949D02*
X202137D01*
X188447Y213949D02*
X201833D01*
X188398Y214399D02*
X201383D01*
X188287Y214849D02*
X200981D01*
X188330Y215299D02*
X200719D01*
X188420Y215749D02*
X200561D01*
X199575Y216199D02*
X200459D01*
X197607D02*
X198810D01*
X196865Y204949D02*
X198012D01*
X195638Y216199D02*
X196842D01*
X188450D02*
X194873D01*
X188421Y216649D02*
X193693D01*
X188331Y217099D02*
X193174D01*
X188286Y217549D02*
X192844D01*
X185074Y226099D02*
X192705D01*
X192428Y226549D02*
X192643D01*
X188397Y217999D02*
X192630D01*
X185050Y225649D02*
X192545D01*
X188447Y218449D02*
X192504D01*
X185050Y225199D02*
X192466D01*
X188437Y218899D02*
X192455D01*
X185050Y224749D02*
X192454D01*
X185050Y224299D02*
X192454D01*
X185050Y223849D02*
X192454D01*
X185050Y223399D02*
X192454D01*
X185050Y222949D02*
X192454D01*
X185050Y222499D02*
X192454D01*
X185227Y222049D02*
X192454D01*
X186706Y221599D02*
X192454D01*
X187325Y221149D02*
X192454D01*
X187738Y220699D02*
X192454D01*
X188031Y220249D02*
X192454D01*
X188235Y219799D02*
X192454D01*
X188368Y219349D02*
X192454D01*
X185050Y182899D02*
X189118D01*
X185050Y183349D02*
X188814D01*
X185050Y188299D02*
X188704D01*
X185050Y183799D02*
X188642D01*
X185050Y188749D02*
X188616D01*
X185050Y192799D02*
X188609D01*
X185050Y187849D02*
X188590D01*
X185050Y184249D02*
X188570D01*
X185050Y189199D02*
X188567D01*
X185050Y192349D02*
X188567D01*
X185050Y191899D02*
X188567D01*
X185050Y191449D02*
X188567D01*
X185050Y190999D02*
X188567D01*
X185050Y190549D02*
X188567D01*
X185050Y190099D02*
X188567D01*
X185050Y189649D02*
X188567D01*
X185050Y187399D02*
X188567D01*
X185050Y186949D02*
X188567D01*
X185050Y186499D02*
X188567D01*
X185050Y186049D02*
X188567D01*
X185050Y185599D02*
X188567D01*
X185050Y185149D02*
X188567D01*
X185050Y184699D02*
X188567D01*
X185050Y193249D02*
X188450D01*
X185050Y193699D02*
X187717D01*
X185050Y194149D02*
X187340D01*
X185050Y198649D02*
X187133D01*
X185050Y194599D02*
X187120D01*
X185050Y198199D02*
X187015D01*
X185050Y195049D02*
X187009D01*
X185050Y197749D02*
X186988D01*
X185050Y197299D02*
X186988D01*
X185050Y196849D02*
X186988D01*
X185050Y196399D02*
X186988D01*
X185050Y195949D02*
X186988D01*
X185050Y195499D02*
X186988D01*
X227391Y261649D02*
X228565D01*
X227525Y262099D02*
X228154D01*
X227272Y261199D02*
X227914D01*
X218940Y208549D02*
X239872D01*
X218490Y208999D02*
X239728D01*
X218040Y209449D02*
X239278D01*
X217613Y209899D02*
X238828D01*
X217591Y210349D02*
X238378D01*
X217591Y210799D02*
X237928D01*
X217591Y211249D02*
X237507D01*
X217591Y211699D02*
X237225D01*
X221010Y212149D02*
X237051D01*
X221666Y212599D02*
X236964D01*
X227334Y226099D02*
X236950D01*
X227494Y225649D02*
X236950D01*
X227573Y225199D02*
X236950D01*
X227585Y224749D02*
X236950D01*
X227585Y224299D02*
X236950D01*
X227585Y223849D02*
X236950D01*
X227585Y223399D02*
X236950D01*
X227585Y222949D02*
X236950D01*
X227585Y222499D02*
X236950D01*
X227585Y222049D02*
X236950D01*
X227585Y221599D02*
X236950D01*
X227585Y221149D02*
X236950D01*
X227585Y220699D02*
X236950D01*
X227585Y220249D02*
X236950D01*
X227585Y219799D02*
X236950D01*
X227585Y219349D02*
X236950D01*
X227584Y218899D02*
X236950D01*
X227535Y218449D02*
X236950D01*
X227410Y217999D02*
X236950D01*
X227195Y217549D02*
X236950D01*
X226865Y217099D02*
X236950D01*
X226346Y216649D02*
X236950D01*
X225166Y216199D02*
X236950D01*
X222806Y215749D02*
X236950D01*
X222849Y215299D02*
X236950D01*
X222832Y214849D02*
X236950D01*
X222756Y214399D02*
X236950D01*
X222615Y213949D02*
X236950D01*
X222401Y213499D02*
X236950D01*
X222097Y213049D02*
X236950D01*
X227396Y226549D02*
X227612D01*
X223197Y216199D02*
X224401D01*
G54D39*
X233150Y147450D02*
Y151761D01*
X279261Y142539D02*
Y148076D01*
X317400Y147000D02*
X317439Y146961D01*
Y137595*
X309761D02*
Y148961D01*
X312200Y151400*
X307202Y137595D02*
Y134849D01*
X307916Y133866*
X309182Y132600*
X318949*
X319998Y133649*
Y137595*
X307202D02*
Y155600D01*
X223800Y159300D02*
X230400D01*
X235878Y164778*
Y170265*
X233150D02*
Y178350D01*
X233200Y178400*
X235709Y170265D02*
Y177709D01*
X236600Y178600*
X235709Y170265D02*
X235878D01*
X279261Y166580D02*
Y171061D01*
X280800Y172600*
Y174600*
X281820Y166580D02*
Y169620D01*
X284800Y172600*
Y174800*
X307202Y162005D02*
Y155600D01*
X307602Y155200*
X317139*
X319998Y158058*
Y162005*
X309761D02*
Y159258D01*
X310475Y158275*
X311550Y157200*
X315650*
X316725Y158275*
X317439Y159258*
Y162005*
X312320D02*
Y166800D01*
X313800Y168200*
X317000*
X318400Y169600*
Y175500*
X319600Y176700*
X323200*
X319998Y162005D02*
Y166398D01*
X321200Y167600*
X327400*
X328400Y166600*
Y161600*
X344400D02*
X349200D01*
Y160000*
X344400Y161600D02*
Y164800D01*
X345200Y165600*
X346600*
X344400Y161600D02*
X328400D01*
Y157900*
X135039Y190807D02*
X141000D01*
X146161Y195969*
Y202559*
X325200Y176700D02*
X325600D01*
Y180000*
X344022Y173354D02*
Y197764D01*
X341463Y173354D02*
Y197764D01*
X353000Y188800D02*
X354273Y190073D01*
X356817Y173354D02*
Y197764D01*
X346581Y173354D02*
Y182381D01*
X348200Y184000*
X142200Y209800D02*
Y208800D01*
X143602Y207398*
Y202559*
X145400Y210600D02*
Y209600D01*
X146161Y208839*
Y202559*
X346581Y197764D02*
Y190219D01*
X354258Y182542*
Y173354*
X349140Y197764D02*
Y195017D01*
X349200Y192400*
X354258Y197764D02*
Y191942D01*
X354273Y191927*
Y190073*
X154011Y285811D02*
X154611D01*
G54D40*
X196222Y294407D02*
Y296657D01*
X201472Y299657D02*
X199222D01*
X196222Y304907D02*
Y302657D01*
X202200Y138750D02*
Y141000D01*
Y153250D02*
Y151000D01*
G54D41*
X204724Y162854D02*
Y162898D01*
X185827Y171423D02*
X189783D01*
X192120Y173760*
X195276*
Y168760D02*
Y163130D01*
X204724*
Y162898*
X214961*
G54D42*
X349200Y160000D03*
X346125Y304344D03*
X152764Y317812D03*
X235800Y200000D03*
X196222Y299657D03*
X188348D03*
X180474D03*
X172600D03*
X127559Y223622D03*
G54D45*
X239035Y126339D02*
X253861D01*
X253900Y126300*
X268800*
X166600Y147600D02*
X170243Y143957D01*
X176378*
X166600Y147600D02*
X172400Y153400D01*
X186854*
X188327Y154873*
Y158268*
X176378Y148957D02*
X189312D01*
Y146066*
X176378Y143957D02*
X186735Y133600D01*
X223200*
X230461Y126339*
X239035*
X166600Y147600D02*
X152800Y161400D01*
Y164529*
X152828Y164556*
Y167435*
X204724Y161898D02*
Y162898D01*
X189277Y163423D02*
X189577D01*
X188327Y158268D02*
Y163423D01*
X189577*
X214961Y162898D02*
X215200Y162658D01*
Y146000*
X351905Y226200D02*
Y228036D01*
X361800Y237930*
X371387*
X351905Y217679D02*
Y226200D01*
X324112Y233616D02*
Y233366D01*
X331278Y226200*
X351905*
X323912Y249016D02*
Y249266D01*
X333245Y258600*
X358400*
Y256800*
X361870Y253330*
X370987*
X358011Y271200D02*
X358400D01*
Y258600*
G54D46*
X239035Y131339D02*
Y136969D01*
X268800Y131300D02*
Y136900D01*
X233150Y146450D02*
Y138800D01*
X234981Y136969*
X239035*
Y137219*
Y136969D02*
Y137013D01*
X247302*
X259400Y137000D02*
X259500Y136900D01*
X268800*
X277700*
X279261Y138461*
Y141139*
X143602Y184055D02*
Y177400D01*
X145402Y175600*
X156400*
X157428Y174572*
Y172435*
X152828D02*
Y172185D01*
X157428*
Y172435*
X161207*
X164880Y168762*
Y168693*
X236600Y180000D02*
Y185246D01*
X237564Y186209*
X240729*
X228918D02*
X232083D01*
X233200Y185093*
Y179200*
X240729Y186209D02*
Y186369D01*
X247835*
X253635*
Y186269*
X261435*
X284800Y176200D02*
Y182076D01*
X285643Y182918*
X288808*
X276997D02*
X280162D01*
X280800Y182280*
Y175600*
X299800Y185900D02*
X298600D01*
X305000*
X313600*
Y186200*
X288808Y182918D02*
Y185900D01*
X298600*
X313600Y186200D02*
X319900D01*
X321168Y184932*
X323000Y183350*
Y183100*
X328800*
X323200Y176700D02*
X325200D01*
X325600D02*
X328800D01*
Y183100*
X145400Y211200D02*
Y216282D01*
X146441Y217323*
X149606*
X185200Y207100D02*
X187700D01*
X190238Y204562*
Y201606*
X235800Y200000D02*
X247800D01*
Y194800D02*
Y197400D01*
Y200000D02*
X247835Y199965D01*
Y186369*
X247800Y197400D02*
Y200000D01*
X259800Y191800D02*
X259935Y188769D01*
Y186269*
X261435*
X137795Y217323D02*
X140961D01*
X142200Y216083*
Y210600*
X127559Y223622D02*
X131830D01*
X134808Y226600*
X161502*
X170472Y217630*
Y216630*
X127559Y223622D02*
X128033Y224096D01*
X162598Y216673D02*
X170472D01*
Y216630*
X149606Y217323D02*
Y216673D01*
X157480*
X162598*
X185000Y218600D02*
Y216200D01*
Y213800*
Y207300*
X185200Y207100*
X170472Y216630D02*
Y215630D01*
X179002Y207100*
X185200*
X125204Y232837D02*
X125386D01*
Y237167*
X125204Y232837D02*
Y226924D01*
X128033Y224096*
X125386Y237167D02*
X125204D01*
Y252804*
X141000Y268600*
Y285800*
X295600Y245600D02*
X298401D01*
X298611Y245390*
X295400Y237600D02*
X298527D01*
X298611Y237516*
X317312Y245390D02*
X318436Y244266D01*
X323912*
Y244016*
X317312Y237516D02*
Y238371D01*
X324112*
Y238616*
X141000Y285800D02*
X148000D01*
X148011Y285811*
X153011*
X141000Y285800D02*
Y298884D01*
X150116Y308000*
X188348*
Y342200*
X190148Y344000*
X193800*
X195600Y345800*
Y351500*
X188348Y299657D02*
Y308000D01*
X200400Y351500D02*
X216500D01*
X217942Y352942*
Y360769*
X195600Y351500D02*
Y351250D01*
X200400*
Y351500*
G54D70*
X304643Y137595D02*
Y130600D01*
X319494*
X322557Y133662*
Y137595*
X239000Y145400D02*
X238900Y145300D01*
X239035Y145165*
Y141969*
X229800Y146000D02*
X229600Y145911D01*
X230591Y146903*
Y151761*
X259400Y143400D02*
Y149000D01*
X247302Y149013D02*
Y144305D01*
X247400Y144207*
Y143400*
X275800Y142600D02*
X275900Y142700D01*
X276200Y142400*
X275800Y142600D02*
X276000Y142400D01*
X276702Y143102*
Y148076*
X268800Y141900D02*
Y145200D01*
X284379Y148076D02*
Y141600D01*
X284400Y142400*
Y142600*
X281820Y148076D02*
Y153600D01*
X283120Y154900*
X292800*
X279261Y148076D02*
Y155000D01*
X284161Y159900*
X292800*
X288200Y149000D02*
Y144800D01*
X289000Y144000*
X292740*
Y144261*
X304643Y137595D02*
Y162005D01*
X292740Y149261D02*
X298000D01*
X299800Y147461*
Y131800*
X301000Y130600*
X304643*
X313600Y142800D02*
Y142600D01*
X314400*
X314880Y142120*
Y137595*
X322557D02*
Y162005D01*
X312320Y137595D02*
Y141920D01*
X313000Y142600*
X313600*
X328200Y139000D02*
Y142300D01*
Y147300D02*
X328400D01*
Y152900*
X328200Y147300D02*
X333400Y142100D01*
X333800*
Y147100D02*
X337900D01*
X339200Y148400*
Y151000*
X333800Y147100D02*
Y153100D01*
X157428Y167435D02*
Y164979D01*
X158400Y164006*
Y163200*
X182077Y163423D02*
X183327D01*
Y158268*
X177165Y164035D02*
X182077D01*
Y163423*
X177165Y169035D02*
Y176609D01*
X195276Y157880D02*
Y158130D01*
X195200Y154800D02*
X195400D01*
X195276Y158130D02*
Y155702D01*
X195400Y155578*
Y154800*
X223800Y164300D02*
X228800D01*
X230591Y166091*
Y170265*
X235658Y151761D02*
Y157400D01*
X237427Y159169*
X247835*
X235658Y151761D02*
X235709D01*
X233150D02*
X233058D01*
Y158200*
X239027Y164169*
X247835*
X238269Y170265D02*
Y174000D01*
X239438Y175169*
X247835*
X238269Y151761D02*
Y148014D01*
X238683Y147600*
X240800*
X241200Y148000*
X247835Y170169D02*
X251631D01*
X252000Y169800*
X284379Y166580D02*
Y164500D01*
X296600*
X269800Y159700D02*
X274800D01*
X276702Y161602*
Y166580*
X296600Y164500D02*
X299600D01*
X296400Y164700D02*
Y174400D01*
X297500Y175500*
X299600*
X296400Y164700D02*
X296600Y164500D01*
X299600Y159500D02*
X301600D01*
X302400Y160300*
Y166600*
X304000Y168200*
X306600*
X308400Y170000*
Y181800*
X299600Y170500D02*
Y170750D01*
X302250Y173400*
X304800*
X309761Y162005D02*
Y167561D01*
X309800Y167600*
X341463Y173354D02*
Y168200D01*
X358200*
X359376Y169376*
Y173354*
X339000Y166200D02*
X339400Y167200D01*
X334000Y165100D02*
X336100D01*
X337600Y163600*
X340194*
X341463Y164869*
Y168200*
X333800Y158100D02*
X336800D01*
Y158200*
X140950Y184055D02*
X141043D01*
X143497D02*
Y190200D01*
X149104Y195807*
X157480*
X143497Y184055D02*
X143602D01*
X140400Y178600D02*
X141043Y179904D01*
Y184055*
X148720Y181358D02*
Y184055D01*
X146058D02*
Y189400D01*
X147465Y190807*
X157480*
X146058Y184055D02*
X146161D01*
X149600Y178800D02*
X149640Y178720D01*
X164800Y186200D02*
X164880D01*
Y180693*
X148720Y184055D02*
Y179680D01*
X149400Y179000*
Y178600*
X149640Y178720*
X173400Y188600D02*
X173415Y188785D01*
Y184609*
Y184800*
X180915Y184609D02*
Y181260D01*
X182375Y179800*
X203400*
X204838Y181238*
Y185806*
X199000Y182200D02*
X199006Y182194D01*
Y185949*
X200200Y175000D02*
X204724D01*
Y174898*
X199006Y190792D02*
Y190774D01*
X199220*
X204838Y196392*
Y196606*
Y190806D02*
Y190556D01*
X207088Y188306*
X218188*
X220438Y186056*
Y185806*
X204838D02*
X210038D01*
X222400Y182800D02*
X222638Y183038D01*
Y185800*
X210038Y190806D02*
Y191056D01*
X212238Y193256*
X220438Y185806D02*
Y185800D01*
X222638*
X215438Y196606D02*
Y190806D01*
X220438*
X247835Y175169D02*
Y181369D01*
X261435Y174269D02*
Y169367D01*
X261600Y169202*
Y168200*
X253635Y181369D02*
Y178842D01*
X253800Y178677*
Y177800*
X304800Y173400D02*
X305000D01*
Y180900*
X313600Y174200D02*
X313800D01*
Y179800*
X323000Y188100D02*
X328800D01*
X323200Y171700D02*
X328800D01*
X331000Y173900*
X328800Y171700D02*
Y171000D01*
X330800Y169000*
X328800Y188100D02*
Y187850D01*
X331000Y185650*
Y173900*
X350400Y179200D02*
X351699Y177901D01*
Y173354*
X359376D02*
Y197764D01*
X349140Y173354D02*
Y177940D01*
X350400Y179200*
X135039Y195807D02*
X139600D01*
X141043Y197250*
Y202559*
X160600Y201400D02*
X161363Y201437D01*
X157480Y206437D02*
Y211673D01*
Y201437D02*
X161363D01*
X148720Y202559D02*
Y205256D01*
X149902Y206437*
X157480*
X169843Y205000D02*
X170472Y205630D01*
Y204630*
X170400Y199000D02*
X170600D01*
X180000Y198600D02*
Y202100D01*
X180100Y202200*
X170472Y204630D02*
Y199229D01*
X170600Y199101*
Y199000*
X185100Y202200D02*
X185350D01*
X188394Y199156*
X192838*
X195038Y201356*
Y201606*
X195000Y205400D02*
X195038Y205762D01*
Y201606*
X199800Y205400D02*
X199838Y205362D01*
Y201606*
X190238Y196606D02*
Y196356D01*
X192588Y194006*
Y190792*
X190238Y196606D02*
X195038D01*
X199838Y201606D02*
Y201356D01*
X202088Y199106*
X207788*
X210038Y196856*
Y196606*
X195038Y201606D02*
X199838D01*
X195038Y196606D02*
X199838D01*
X210038Y196356D02*
Y196606D01*
X220438D02*
X221832D01*
X222638Y195800*
Y185800*
X215438Y201606D02*
X220438D01*
X346581Y197764D02*
Y203181D01*
X346600Y203200*
X162598Y211673D02*
Y208912D01*
X162600Y208911*
Y208400*
X188170Y229043D02*
X181200D01*
X181329Y229081*
X181358Y229209*
X181400Y229200*
X188170Y231012D02*
Y230920D01*
X195000*
X196400Y232200*
Y238400*
X203130Y221957D02*
Y216400D01*
X204838Y214691*
Y201606*
X218878Y218974D02*
Y221957D01*
X219021*
Y215200*
X219400*
X216910Y221957D02*
Y214090D01*
X219000Y212000*
X214941Y221957D02*
Y208800D01*
X217941Y205800*
X250400*
X252400Y203800*
Y199200*
X257200Y194400*
X263400*
X266400Y191400*
Y153000*
X270200Y149200*
X272000*
X212973Y221957D02*
Y208505D01*
X217278Y204200*
X221791*
X225000Y200991*
Y168600*
X211004Y221957D02*
Y208182D01*
X215438Y203748*
Y201606*
X209036Y221957D02*
Y207731D01*
X212238Y204528*
Y193256*
X207067Y221957D02*
Y207133D01*
X210038Y204162*
Y201606*
X231870Y231012D02*
X231882Y231000D01*
X231870Y229043D02*
X237957D01*
X239600Y227400*
Y212875*
X245075Y207400*
X251063*
X254000Y204463*
Y199875*
X257875Y196000*
X305400*
X307000Y194400*
X309600*
X311200Y196000*
X331800*
X334000Y193800*
Y170100*
X277880Y229643D02*
X282700D01*
Y229677*
X129535Y232837D02*
X134515D01*
X129535Y237167D02*
X134515D01*
X139515D02*
Y262400D01*
X142454Y265339*
X150945*
X139515Y237167D02*
X141265D01*
X141600Y237200*
X142800*
X139515Y232837D02*
X141552Y230800D01*
X173000*
X174600Y232400*
Y245400*
X181400D02*
Y243823D01*
X182400Y242823*
X188170*
X182000Y240200D02*
Y238200D01*
X183283Y236917*
X188170*
X238400Y242800D02*
X238777Y242823D01*
X231870Y250697D02*
X243297D01*
X244800Y252200*
X231870Y248728D02*
X244722D01*
X249400Y253406*
Y259200*
X231870Y246760D02*
X235951D01*
X236191Y247000*
X264400*
X265400Y248000*
Y251000*
X266086Y251686*
X267960*
X231870Y244791D02*
X236621D01*
X237030Y245200*
X264600*
X265600Y244200*
Y231000*
X266923Y229677*
X268300*
X231870Y242823D02*
X238777D01*
X231870Y240854D02*
X236865D01*
X244400Y233320*
Y229400*
X246000Y227800*
X249800*
X231870Y238886D02*
X236570D01*
X242800Y232657*
Y214200*
X246400Y210600*
X252400*
X257400Y205600*
Y201000*
X258800Y199600*
X334263*
X339400Y194463*
Y167200*
X231870Y234949D02*
X238245D01*
X241200Y231994*
Y213537*
X245737Y209000*
X251725*
X255800Y204925*
Y200337*
X258137Y198000*
X307200*
X308400Y196800*
X231870Y232980D02*
X236820D01*
X237400Y232400*
X277000Y241800D02*
Y243136D01*
X277503Y243639*
Y246625*
X272711Y246647D02*
Y244043D01*
X273800Y242954*
Y242000*
X282360Y246686D02*
X287160D01*
X267960D02*
Y246791D01*
X272711Y251542*
Y251647*
X273100Y234677D02*
Y234550D01*
X277880Y229770*
Y229643*
X282700Y234677D02*
X287500D01*
X268300D02*
X273100D01*
X298611Y237516D02*
X301200D01*
X302200Y236516*
Y204400*
X304200Y202400*
X343000*
X344022Y201378*
Y197764*
X298611Y245390D02*
X302200D01*
X304000Y243590*
Y205200*
X305000Y204200*
X340400*
X341800Y205600*
X354600*
X356817Y203383*
Y197764*
X287160Y246686D02*
X291037D01*
X292123Y245600*
X294600*
X287500Y234677D02*
Y236400D01*
X288700Y237600*
X294400*
X309200Y248200D02*
Y248600D01*
Y254000*
X150945Y265339D02*
X160139D01*
X160200Y265400*
X195256Y265657D02*
X195405D01*
Y272000*
X195800*
X197225Y265657D02*
Y269839D01*
X198185Y270800*
Y271736*
X198200Y271750*
Y275000*
X201162Y265657D02*
Y274800D01*
X202562Y276200*
X209200*
X203130Y265657D02*
Y272000D01*
X204330Y273200*
X215000*
X218878Y265657D02*
X218970D01*
X224784D02*
Y271584D01*
X225600Y272400*
X228800Y267600D02*
Y286385D01*
X228800D02*
X231415Y289000D01*
X231415D02*
X234516D01*
X235916Y290400*
X228800Y267600D02*
X232800Y263600D01*
X242615*
X242615D02*
X247000Y259215D01*
X247000D02*
Y257800D01*
X227200Y266800D02*
X232200Y261800D01*
X242000*
X244600Y259200*
X227200Y266800D02*
Y287047D01*
X229753Y289600*
Y295808*
X227135Y257713D02*
X227918Y256930D01*
X228845Y256511*
X231870*
Y256602*
X227135Y257713D02*
Y260135D01*
X228800Y261800*
X231870Y258571D02*
X238200D01*
Y258400*
X231870Y254634D02*
X240800D01*
X242200Y256034*
Y257800*
X231870Y252665D02*
X241865D01*
X244600Y255400*
Y259200*
X269200Y267600D02*
Y267800D01*
X292000*
X294200Y265600*
Y262400*
X272711Y251647D02*
X277503D01*
Y251625*
X282360*
Y251686*
X285600Y255000D02*
X285496D01*
X287160Y253336*
Y251686*
X292800Y252000D02*
X301800D01*
X149800Y273400D02*
X154337Y277937D01*
X160000*
Y274000D02*
X166600D01*
X168200Y272400*
Y259000*
X177200Y250000*
Y235380*
X179600Y232980*
X188170*
X160000Y275969D02*
X168494D01*
X170200Y274263*
Y260786*
X178800Y252186*
Y236949*
X180800Y234949*
X188170*
X160000Y281874D02*
X161200Y281800D01*
X169000*
X160000Y283843D02*
Y283958D01*
X166200*
Y284200*
X180400Y289200D02*
Y262600D01*
X182200Y260800*
X198458*
X199193Y261535*
Y265657*
X172600Y289200D02*
Y262200D01*
X176229Y258571*
X188170*
X220400Y282800D02*
X217400Y279800D01*
Y272170*
X218970Y270600*
Y265657*
X222800Y275600D02*
X222815Y275585D01*
Y265657*
X219800Y277200D02*
Y273000D01*
X220847Y271953*
Y265657*
X230400Y285722D02*
Y268400D01*
X233600Y265200*
X243400*
X249400Y259200*
X230400Y285722D02*
X232078Y287400D01*
X239564*
X241564Y289400*
Y295808*
X150945Y296441D02*
X159359D01*
X159400Y296400*
X196222Y299657D02*
X200071Y295808D01*
X212036*
X223847D02*
X225600Y294055D01*
Y272400*
X235658Y295808D02*
X235916D01*
Y290400*
X200400Y356500D02*
Y360000D01*
X195600Y356500D02*
Y360000D01*
X207600Y360800D02*
X208600D01*
X209351Y360769*
X212036*
G54D75*
G54D106*
X371387Y237930D03*
X189312Y146066D03*
X215200Y146000D03*
X202200D03*
G54D107*
X370987Y253330D03*
G54D108*
X180100Y202200D03*
X185100D03*
X139515Y232837D03*
X134515D03*
X139515Y237167D03*
X134515D03*
X183327Y158268D03*
X188327D03*
G54D109*
X125204Y237167D03*
X129535D03*
X125204Y232837D03*
X129535D03*
G54D110*
X195256Y221957D03*
X197225D03*
X199193D03*
X201162D03*
X203130D03*
X205099D03*
X207067D03*
X209036D03*
X211004D03*
X212973D03*
X214941D03*
X216910D03*
X218878D03*
X220847D03*
X222815D03*
X224784D03*
Y265657D03*
X222815D03*
X220847D03*
X218878D03*
X216910D03*
X214941D03*
X212973D03*
X211004D03*
X209036D03*
X207067D03*
X205099D03*
X203130D03*
X201162D03*
X199193D03*
X197225D03*
X195256D03*
G54D111*
X231870Y229043D03*
Y231012D03*
Y232980D03*
Y234949D03*
Y236917D03*
Y238886D03*
Y240854D03*
Y242823D03*
Y244791D03*
Y246760D03*
Y248728D03*
Y250697D03*
Y252665D03*
Y254634D03*
Y256602D03*
Y258571D03*
X188170D03*
Y256602D03*
Y254634D03*
Y252665D03*
Y250697D03*
Y248728D03*
Y246760D03*
Y244791D03*
Y242823D03*
Y240854D03*
Y238886D03*
Y236917D03*
Y234949D03*
Y232980D03*
Y231012D03*
Y229043D03*
G54D113*
X333800Y153100D03*
Y158100D03*
X287500Y234677D03*
Y229677D03*
X268300Y234677D03*
Y229677D03*
X282700Y234677D03*
Y229677D03*
X277880Y229643D03*
Y234643D03*
X273100Y229677D03*
Y234677D03*
X267960Y251686D03*
Y246686D03*
X282360D03*
Y251686D03*
X287160Y246686D03*
Y251686D03*
X277503Y251625D03*
Y246625D03*
X272711Y251647D03*
Y246647D03*
X323912Y249016D03*
Y244016D03*
X324112Y233616D03*
Y238616D03*
X239035Y136969D03*
Y141969D03*
X215438Y196606D03*
Y201606D03*
X220438Y196606D03*
Y201606D03*
X195038Y196606D03*
Y201606D03*
X199838Y196606D03*
Y201606D03*
X210038D03*
Y196606D03*
X190238D03*
Y201606D03*
X215438Y190806D03*
Y185806D03*
X220438D03*
Y190806D03*
X204838Y185806D03*
Y190806D03*
X210038D03*
Y185806D03*
X204838Y196606D03*
Y201606D03*
X292740Y144261D03*
Y149261D03*
X176378Y143957D03*
Y148957D03*
X157428Y172435D03*
Y167435D03*
X253635Y186369D03*
Y181369D03*
X177165Y169035D03*
Y164035D03*
X195276Y173760D03*
Y168760D03*
Y163130D03*
Y158130D03*
X157480Y190807D03*
Y195807D03*
Y211673D03*
Y216673D03*
X334000Y170100D03*
Y165100D03*
X328800Y176700D03*
Y171700D03*
X328400Y152900D03*
Y157900D03*
X333800Y147100D03*
Y142100D03*
X328200Y142300D03*
Y147300D03*
X323200Y176700D03*
Y171700D03*
X323000Y183100D03*
Y188100D03*
X247835Y159169D03*
Y164169D03*
X239035Y126339D03*
Y131339D03*
X269800Y159700D03*
Y154700D03*
X305000Y185900D03*
Y180900D03*
X299600Y170500D03*
Y175500D03*
X299800Y180900D03*
Y185900D03*
X299600Y164500D03*
Y159500D03*
X268800Y136900D03*
Y141900D03*
X292800Y154900D03*
Y159900D03*
X268800Y126300D03*
Y131300D03*
X247835Y181369D03*
Y186369D03*
Y170169D03*
Y175169D03*
X223800Y164300D03*
Y159300D03*
X157480Y201437D03*
Y206437D03*
X162598Y216673D03*
Y211673D03*
X135039Y195807D03*
Y190807D03*
X328800Y183100D03*
Y188100D03*
X195600Y351500D03*
Y356500D03*
X200400Y351500D03*
Y356500D03*
X152828Y167435D03*
Y172435D03*
G54D114*
X240729Y186209D03*
X228918D03*
X149606Y217323D03*
X137795D03*
X288808Y182918D03*
X276997D03*
G54D117*
X370803Y217679D03*
X351905D03*
X339113Y271200D03*
X358011D03*
G54D119*
X177165Y176609D03*
X185827Y171423D03*
G54D121*
X204724Y162898D03*
Y174898D03*
X164880Y168693D03*
Y180693D03*
X247302Y137013D03*
Y149013D03*
X261435Y186269D03*
Y174269D03*
X214961Y162898D03*
Y174898D03*
X313600Y186200D03*
Y174200D03*
X259400Y137000D03*
Y149000D03*
X170472Y216630D03*
Y204630D03*
G54D122*
X141043Y184055D03*
X143602D03*
X146161D03*
X148720D03*
Y202559D03*
X146161D03*
X143602D03*
X141043D03*
X276702Y148076D03*
X279261D03*
X281820D03*
X284379D03*
Y166580D03*
X281820D03*
X279261D03*
X276702D03*
X230591Y151761D03*
X233150D03*
X235709D03*
X238269D03*
Y170265D03*
X235709D03*
X233150D03*
X230591D03*
G54D126*
X192588Y185949D03*
X199006D03*
Y190792D03*
X192588D03*
G54D131*
X317312Y237516D03*
Y245390D03*
X298611D03*
Y237516D03*
G54D132*
X233150Y146450D02*
Y147450D01*
X279261Y141139D02*
Y142539D01*
X269800Y154700D02*
X275200D01*
X281820Y161200*
Y166580*
X214961Y174898D02*
X215000D01*
Y180600*
X215438Y185806D02*
Y185556D01*
X220200Y180794*
Y155825*
X223200Y152825*
Y133600*
X236600Y178600D02*
Y180000D01*
X233200Y178400D02*
Y179200D01*
X280800Y174600D02*
Y175600D01*
X284800Y174800D02*
Y176200D01*
X299600Y175500D02*
X299800D01*
Y180900*
X142200Y209800D02*
Y210600D01*
X145400D02*
Y211200D01*
X294600Y245600D02*
X295600D01*
X294400Y237600D02*
X295400D01*
X287500Y234677D02*
Y234927D01*
X153011Y285811D02*
X154011D01*
G54D169*
X271091Y360769D03*
X265186D03*
X259280D03*
X253375D03*
X247469D03*
X241564D03*
X235658D03*
X229753D03*
X223847D03*
X217942D03*
X212036D03*
Y295808D03*
X217942D03*
X223847D03*
X229753D03*
X235658D03*
X241564D03*
X247469D03*
X253375D03*
X259280D03*
X265186D03*
X271091D03*
G54D170*
X341463Y173354D03*
X344022D03*
X346581D03*
X349140D03*
X351699D03*
X354258D03*
X356817D03*
X359376D03*
Y197764D03*
X356817D03*
X354258D03*
X351699D03*
X349140D03*
X346581D03*
X344022D03*
X341463D03*
X304643Y137595D03*
X307202D03*
X309761D03*
X312320D03*
X314880D03*
X317439D03*
X319998D03*
X322557D03*
Y162005D03*
X319998D03*
X317439D03*
X314880D03*
X312320D03*
X309761D03*
X307202D03*
X304643D03*
G54D171*
X160000Y287780D03*
Y285811D03*
Y283843D03*
Y281874D03*
Y279906D03*
Y277937D03*
Y275969D03*
Y274000D03*
G54D172*
X150945Y265339D03*
Y296441D03*
G74*
X0Y0D02*
M02*
