%
T1C.012F095S3
X01468Y01698
X01434Y0174
X01404Y01786
X0138Y01826
X01328Y02056
X01282Y02074
X01288Y02134
X01428Y02372
X01336Y02448
X01432Y0246
X01332Y02506
X01438Y0256
X01248Y02622
X01296Y0266
X01278Y02728
X01454Y02734
X01308Y02808
X01328Y02922
X01484Y03056
X0149Y03224
X01724Y03362
X01576Y0332
X01624Y0319
X01664Y03062
X01594Y02964
X01662Y02918
X0172Y02846
X0172Y0281
X01498Y02734
X01638Y02688
X01602Y02654
X0165Y02636
X01608Y02616
X01746Y02454
X01626Y02084
X01612Y02014
X01636Y01962
X0169Y01934
X01536Y01854
X0158Y01848
X01514Y01806
X01566Y01804
X01584Y01634
X01662Y01606
X01718Y01592
X01956Y013
X0175Y01954
X01848Y01954
X0195Y02054
X01954Y02104
X01912Y0211
X01992Y02136
X0185Y02138
X01952Y02144
X01902Y02158
X0185Y02162
X0185Y02186
X01896Y02202
X01814Y02292
X01964Y02384
X0182Y02402
X01814Y02454
X0197Y02478
X01974Y02522
X01892Y02656
X0189Y02712
X01828Y02718
X01958Y0272
X01982Y02748
X01834Y02758
X0199Y03056
X01928Y0306
X01878Y03062
X01922Y03362
X02018Y02996
X02096Y02962
X02138Y02792
X02024Y02722
X02072Y02722
X0213Y02578
X02188Y02576
X02056Y02576
X02188Y02522
X02122Y02516
X02018Y02504
X02064Y02502
X02202Y02466
X02126Y0243
X02194Y02152
X0219Y0212
X02Y021
X01998Y02054
X02244Y0186
X02102Y01822
X02074Y01692
X0222Y01688
X02092Y01536
X0203Y01536
X0206Y01536
X02052Y01306
X02118Y0124
X02362Y01386
X02468Y01496
X02382Y01498
X0236Y01714
X02332Y0175
X02252Y01966
X02252Y02144
X0231Y02146
X023Y02178
X0234Y02178
X02284Y0221
X02342Y02216
X023Y0224
X02484Y02256
X0233Y02258
X02274Y02262
X02374Y02324
X0239Y02422
X0238Y02512
X0242Y02572
X02482Y0258
X02374Y02592
X02466Y02646
X02328Y02656
X02396Y02684
X0241Y02732
X02344Y02842
X02408Y02908
X02354Y02934
X02384Y02956
X02342Y03036
X0231Y0311
X02376Y03138
X02456Y03196
X02326Y0321
X0238Y0331
X02526Y03348
X02498Y03284
X02706Y03264
X02654Y03172
X0268Y02768
X02576Y02748
X02498Y02706
X02574Y0269
X02692Y02676
X02742Y02644
X02584Y02628
X02532Y02624
X02732Y026
X02568Y02574
X0273Y0242
X02624Y02278
X02586Y02254
X02534Y02254
X02558Y02202
X0251Y02202
X02534Y02172
X02706Y02062
X02572Y01988
X02572Y01962
X02572Y01936
X02572Y01788
X0257Y01736
X02672Y01664
X02592Y01628
X02646Y01622
X0261Y01532
X02538Y0153
X02516Y01486
X0263Y0148
X0284Y01196
X02896Y01238
X02974Y01264
X02888Y0132
X02752Y01366
X02928Y0139
X02844Y01422
X02766Y01424
X02756Y02062
X02824Y02086
X02962Y02094
X02808Y02148
X02868Y02208
X02808Y02212
X02764Y02236
X02936Y0227
X02776Y02428
X02942Y0252
X02856Y0255
X02772Y0256
X02942Y02624
X02864Y02654
X02968Y02806
X02994Y03292
X03084Y03334
X0305Y03184
X03022Y03054
X03168Y03004
X03096Y02958
X03152Y02834
X03042Y0274
X0321Y02712
X03132Y02624
X03174Y02624
X03052Y02538
X03018Y0252
X03086Y02482
X0319Y02254
X0316Y02194
X0322Y0217
X0322Y0208
X0306Y01976
X0313Y01798
X03032Y01784
X03006Y01744
X03024Y01704
X03098Y01676
X03122Y01514
X03174Y0147
X03136Y01428
X03282Y0139
X03392Y0151
X03368Y01582
X03466Y01656
X0339Y01682
X03324Y01746
X03256Y018
X03486Y01844
X03322Y01882
X03492Y01924
X03384Y02006
X03298Y02156
X03428Y02166
X0334Y02674
X03444Y02674
X0334Y027
X03444Y027
X0334Y02726
X03444Y02728
X0334Y02752
X03444Y02754
X03266Y02874
X03452Y02912
X0334Y02946
X0334Y03076
X03414Y03232
X0354Y03018
X0369Y02908
X03644Y02254
X03644Y0223
X03644Y02206
X03644Y02182
X03722Y02056
X03712Y0197
X0353Y01888
X03666Y0183
X03504Y01792
X0376Y02182
X0376Y02206
X0376Y0223
X0376Y02254
T2C.035F197S55
X017398Y031876
X018973Y031876
X018185Y031876
X01976Y031876
T3C.06299F089S55
X037139Y023793
T4C.06299F089S55
X01894Y0146
X0206Y0146
X022227Y014607
X037099Y025333
M30
