*
*
G04 PADS 9.5 Build Number: 522968 generated Gerber (RS-274-X) file*
G04 PC Version=2.1*
*
%IN "alarm_V1.1.pcb"*%
*
%MOIN*%
*
%FSLAX35Y35*%
*
*
*
*
G04 PC Standard Apertures*
*
*
G04 Thermal Relief Aperture macro.*
%AMTER*
1,1,$1,0,0*
1,0,$1-$2,0,0*
21,0,$3,$4,0,0,45*
21,0,$3,$4,0,0,135*
%
*
*
G04 Annular Aperture macro.*
%AMANN*
1,1,$1,0,0*
1,0,$2,0,0*
%
*
*
G04 Odd Aperture macro.*
%AMODD*
1,1,$1,0,0*
1,0,$1-0.005,0,0*
%
*
*
G04 PC Custom Aperture Macros*
*
*
*
*
*
*
G04 PC Aperture Table*
*
%ADD015C,0.07*%
%ADD033R,0.046X0.046*%
%ADD075C,0.001*%
%ADD137R,0.11X0.11*%
%ADD138C,0.11*%
%ADD139R,0.035X0.03*%
%ADD140R,0.03362X0.03756*%
%ADD141O,0.02102X0.0807*%
%ADD142O,0.0807X0.02102*%
%ADD144R,0.03X0.035*%
%ADD145R,0.05331X0.15567*%
%ADD148R,0.09661X0.135*%
%ADD150R,0.046X0.06*%
%ADD153O,0.02299X0.07693*%
%ADD157R,0.04543X0.0415*%
%ADD162R,0.05921X0.0474*%
%ADD175O,0.022X0.07693*%
%ADD176R,0.08087X0.02181*%
%ADD177R,0.12811X0.08874*%
%ADD182R,0.1X0.085*%
%ADD183R,0.08874X0.05724*%
*
*
*
*
G04 PC Circuitry*
G04 Layer Name alarm_V1.1.pcb - circuitry*
%LPD*%
*
*
G04 PC Custom Flashes*
G04 Layer Name alarm_V1.1.pcb - flashes*
%LPD*%
*
*
G04 PC Circuitry*
G04 Layer Name alarm_V1.1.pcb - circuitry*
%LPD*%
*
G54D15*
G01X234415Y210528D03*
X197601Y318760D03*
X189727D03*
X181853D03*
X173979D03*
X346095Y302050D03*
X345409Y159283D03*
X127983Y220936D03*
X158400Y309400D03*
G54D33*
X183514Y164556D03*
X191014D03*
X207541Y291607D03*
X200041D03*
X184294Y184892D03*
X176794D03*
G54D75*
G54D137*
X222266Y146068D03*
X189400Y146000D03*
X206000D03*
X371387Y237930D03*
G54D138*
X370987Y253330D03*
G54D139*
X183540Y158045D03*
X188540D03*
X179753Y191734D03*
X184753D03*
X139515Y232837D03*
X134515D03*
X139515Y237167D03*
X134515D03*
G54D140*
X125204D03*
X129535D03*
X125204Y232837D03*
X129535D03*
G54D141*
X195256Y221957D03*
X197225D03*
X199193D03*
X201162D03*
X203130D03*
X205099D03*
X207067D03*
X209036D03*
X211004D03*
X212973D03*
X214941D03*
X216910D03*
X218878D03*
X220847D03*
X222815D03*
X224784D03*
Y265657D03*
X222815D03*
X220847D03*
X218878D03*
X216910D03*
X214941D03*
X212973D03*
X211004D03*
X209036D03*
X207067D03*
X205099D03*
X203130D03*
X201162D03*
X199193D03*
X197225D03*
X195256D03*
G54D142*
X231870Y229043D03*
Y231012D03*
Y232980D03*
Y234949D03*
Y236917D03*
Y238886D03*
Y240854D03*
Y242823D03*
Y244791D03*
Y246760D03*
Y248728D03*
Y250697D03*
Y252665D03*
Y254634D03*
Y256602D03*
Y258571D03*
X188170D03*
Y256602D03*
Y254634D03*
Y252665D03*
Y250697D03*
Y248728D03*
Y246760D03*
Y244791D03*
Y242823D03*
Y240854D03*
Y238886D03*
Y236917D03*
Y234949D03*
Y232980D03*
Y231012D03*
Y229043D03*
G54D144*
X324200Y249100D03*
Y244100D03*
X177067Y169578D03*
Y164578D03*
X197584Y172571D03*
Y177571D03*
X192764Y291554D03*
Y286554D03*
X192800Y296900D03*
Y301900D03*
X182662Y286619D03*
Y291619D03*
X187762Y286558D03*
Y291558D03*
X187800Y296900D03*
Y301900D03*
X324112Y233616D03*
Y238616D03*
X297613Y165775D03*
Y160775D03*
X297813Y182175D03*
Y187175D03*
X297613Y171775D03*
Y176775D03*
X303013Y187175D03*
Y182175D03*
X253114Y162249D03*
Y167249D03*
X210074Y191050D03*
Y186050D03*
X204901Y191045D03*
Y186045D03*
X279323Y124729D03*
Y119729D03*
X220438Y185806D03*
Y190806D03*
X233094Y167334D03*
Y162334D03*
X253113Y173518D03*
Y178518D03*
Y183242D03*
Y188242D03*
X257141Y188264D03*
Y183264D03*
X236200Y119700D03*
Y124700D03*
Y130300D03*
Y135300D03*
X333800Y153100D03*
Y158100D03*
X287500Y234677D03*
Y229677D03*
X268300Y234677D03*
Y229677D03*
X282700Y234677D03*
Y229677D03*
X277880Y229643D03*
Y234643D03*
X273100Y229677D03*
Y234677D03*
X267960Y251686D03*
Y246686D03*
X282360D03*
Y251686D03*
X287160Y246686D03*
Y251686D03*
X277503Y251625D03*
Y246625D03*
X272711Y251647D03*
Y246647D03*
X215438Y196606D03*
Y201606D03*
X220438Y196606D03*
Y201606D03*
X195038Y196606D03*
Y201606D03*
X199838Y196606D03*
Y201606D03*
X210038D03*
Y196606D03*
X190238D03*
Y201606D03*
X215438Y190806D03*
Y185806D03*
X204838Y196606D03*
Y201606D03*
X292740Y144261D03*
Y149261D03*
X176378Y143957D03*
Y148957D03*
X157428Y172435D03*
Y167435D03*
X157480Y190807D03*
Y195807D03*
Y211673D03*
Y216673D03*
X334000Y170100D03*
Y165100D03*
X328800Y176700D03*
Y171700D03*
X328400Y152900D03*
Y157900D03*
X333800Y147100D03*
Y142100D03*
X328200Y142300D03*
Y147300D03*
X323200Y176700D03*
Y171700D03*
X323000Y183100D03*
Y188100D03*
X269800Y159700D03*
Y154700D03*
X292800Y154900D03*
Y159900D03*
X274800Y119700D03*
Y124700D03*
X157480Y201437D03*
Y206437D03*
X162598Y216673D03*
Y211673D03*
X135039Y195807D03*
Y190807D03*
X328800Y183100D03*
Y188100D03*
X152828Y167435D03*
Y172435D03*
G54D145*
X150811Y218498D03*
X139000D03*
X246265Y191566D03*
X234454D03*
X291628Y185877D03*
X279817D03*
G54D148*
X370087Y221600D03*
X351189D03*
X339113Y271200D03*
X358011D03*
G54D150*
X187264Y172556D03*
X203791Y283607D03*
X180544Y176892D03*
G54D153*
X239199Y155095D03*
X241758D03*
X244317D03*
X246876D03*
Y173599D03*
X244317D03*
X241758D03*
X239199D03*
X141043Y184055D03*
X143602D03*
X146161D03*
X148720D03*
Y202559D03*
X146161D03*
X143602D03*
X141043D03*
X276702Y148076D03*
X279261D03*
X281820D03*
X284379D03*
Y166580D03*
X281820D03*
X279261D03*
X276702D03*
G54D157*
X192588Y185949D03*
X199006D03*
Y190792D03*
X192588D03*
G54D162*
X317312Y237516D03*
Y245390D03*
X298611D03*
Y237516D03*
G54D175*
X341463Y173354D03*
X344022D03*
X346581D03*
X349140D03*
X351699D03*
X354258D03*
X356817D03*
X359376D03*
Y197764D03*
X356817D03*
X354258D03*
X351699D03*
X349140D03*
X346581D03*
X344022D03*
X341463D03*
X304643Y137595D03*
X307202D03*
X309761D03*
X312320D03*
X314880D03*
X317439D03*
X319998D03*
X322557D03*
Y162005D03*
X319998D03*
X317439D03*
X314880D03*
X312320D03*
X309761D03*
X307202D03*
X304643D03*
G54D176*
X160000Y287780D03*
Y285811D03*
Y283843D03*
Y281874D03*
Y279906D03*
Y277937D03*
Y275969D03*
Y274000D03*
G54D177*
X150945Y265339D03*
Y296441D03*
G54D182*
X222117Y162236D03*
Y175736D03*
X207500Y162244D03*
Y175744D03*
X267206Y186959D03*
Y173459D03*
X248200Y128650D03*
Y142150D03*
X167306Y172286D03*
Y185786D03*
X174439Y216767D03*
Y203267D03*
X263000Y128650D03*
Y142150D03*
X313600Y186950D03*
Y173450D03*
G54D183*
X219231Y342091D03*
Y336186D03*
Y330280D03*
Y324375D03*
Y318469D03*
Y312564D03*
Y306658D03*
Y300753D03*
Y294847D03*
Y288942D03*
Y283036D03*
X284192D03*
Y288942D03*
Y294847D03*
Y300753D03*
Y306658D03*
Y312564D03*
Y318469D03*
Y324375D03*
Y330280D03*
Y336186D03*
Y342091D03*
X0Y0D02*
M02*
